G04 MADE WITH FRITZING*
G04 WWW.FRITZING.ORG*
G04 DOUBLE SIDED*
G04 HOLES PLATED*
G04 CONTOUR ON CENTER OF CONTOUR VECTOR*
%ASAXBY*%
%FSLAX23Y23*%
%MOIN*%
%OFA0B0*%
%SFA1.0B1.0*%
%ADD10C,0.070000*%
%ADD11C,0.140000*%
%ADD12C,0.085000*%
%ADD13C,0.080000*%
%ADD14C,0.072992*%
%ADD15C,0.135984*%
%ADD16C,0.063528*%
%ADD17C,0.090000*%
%ADD18C,0.148425*%
%ADD19C,0.088000*%
%ADD20C,0.049370*%
%ADD21R,0.085000X0.085000*%
%ADD22R,0.072992X0.072992*%
%ADD23R,0.090000X0.090000*%
%ADD24R,0.001000X0.001000*%
%LNMASK0*%
G90*
G70*
G54D10*
X939Y3156D03*
X1039Y3156D03*
X1139Y3156D03*
G54D11*
X1039Y3746D03*
G54D12*
X1439Y2756D03*
X1439Y2856D03*
G54D13*
X639Y2756D03*
X639Y2856D03*
X1839Y2756D03*
X1839Y2856D03*
G54D14*
X1039Y2258D03*
X1039Y2356D03*
G54D15*
X139Y156D03*
X139Y3856D03*
X6639Y3856D03*
X6639Y156D03*
G54D16*
X2039Y3156D03*
X2139Y3156D03*
X2239Y3156D03*
G54D15*
X3239Y3856D03*
X3239Y656D03*
G54D12*
X4339Y3656D03*
X4639Y3656D03*
X4339Y3556D03*
X4639Y3556D03*
X4339Y3456D03*
X4639Y3456D03*
X4339Y3356D03*
X4639Y3356D03*
X4339Y3056D03*
X4639Y3056D03*
X4339Y2956D03*
X4639Y2956D03*
X4339Y2856D03*
X4639Y2856D03*
X4339Y2756D03*
X4639Y2756D03*
X4339Y2456D03*
X4639Y2456D03*
X4339Y2356D03*
X4639Y2356D03*
X4339Y2256D03*
X4639Y2256D03*
X4339Y2156D03*
X4639Y2156D03*
X4339Y1856D03*
X4639Y1856D03*
X4339Y1756D03*
X4639Y1756D03*
X4339Y1656D03*
X4639Y1656D03*
X4339Y1556D03*
X4639Y1556D03*
X4339Y1256D03*
X4639Y1256D03*
X4339Y1156D03*
X4639Y1156D03*
X4339Y1056D03*
X4639Y1056D03*
X4339Y956D03*
X4639Y956D03*
X2039Y1656D03*
X2439Y1656D03*
G54D13*
X2039Y1256D03*
X2039Y1156D03*
X4139Y1756D03*
X4139Y1856D03*
X4139Y1556D03*
X4139Y1656D03*
X4139Y1156D03*
X4139Y1256D03*
X4139Y2156D03*
X4139Y2256D03*
X4139Y956D03*
X4139Y1056D03*
X4139Y3556D03*
X4139Y3656D03*
X4139Y3356D03*
X4139Y3456D03*
X4139Y2356D03*
X4139Y2456D03*
X4139Y2956D03*
X4139Y3056D03*
X4139Y2756D03*
X4139Y2856D03*
X2539Y2856D03*
X2539Y2956D03*
G54D14*
X3539Y3258D03*
X3539Y3356D03*
G54D12*
X2839Y3356D03*
X3239Y3356D03*
G54D17*
X139Y3156D03*
X139Y3294D03*
G54D14*
X5839Y3458D03*
X5839Y3556D03*
X5839Y2858D03*
X5839Y2956D03*
X5839Y2258D03*
X5839Y2356D03*
X5839Y1658D03*
X5839Y1756D03*
X5839Y1058D03*
X5839Y1156D03*
G54D18*
X389Y1756D03*
X1689Y1756D03*
G54D13*
X369Y1606D03*
X369Y1506D03*
X369Y1406D03*
X369Y1306D03*
X369Y1206D03*
X369Y1106D03*
X1539Y1756D03*
X1439Y1756D03*
X1339Y1756D03*
X1239Y1756D03*
X1139Y1756D03*
X1039Y1756D03*
X939Y1756D03*
X839Y1756D03*
X739Y1756D03*
G54D18*
X1689Y956D03*
G54D13*
X639Y1756D03*
G54D18*
X389Y956D03*
G54D13*
X639Y956D03*
X739Y956D03*
X839Y956D03*
X939Y956D03*
X1039Y956D03*
X1139Y956D03*
X1239Y956D03*
X1339Y956D03*
X1439Y956D03*
X1539Y956D03*
G54D19*
X6633Y2863D03*
X6633Y2763D03*
X6633Y2663D03*
X6633Y2563D03*
X6633Y2463D03*
X6633Y2363D03*
X6633Y2263D03*
X6633Y2163D03*
X6633Y2063D03*
X6633Y1963D03*
X6633Y1863D03*
X6633Y1763D03*
G54D20*
X2640Y3054D03*
X2938Y3054D03*
X2640Y2756D03*
X2540Y3457D03*
X3639Y3457D03*
X2137Y1155D03*
X2137Y1359D03*
X5937Y2756D03*
X4937Y2756D03*
X5539Y2557D03*
X2336Y1359D03*
X2336Y558D03*
X5037Y558D03*
X4440Y458D03*
X2540Y458D03*
X4540Y657D03*
X3441Y657D03*
X3038Y657D03*
X2441Y657D03*
X4037Y757D03*
X5440Y3258D03*
X4738Y3258D03*
X3739Y3258D03*
X3739Y1955D03*
X5639Y3154D03*
X4738Y3154D03*
X2739Y1756D03*
X4241Y2055D03*
X3341Y1557D03*
X4241Y1458D03*
X4137Y856D03*
X4838Y856D03*
X4738Y1458D03*
X5440Y1458D03*
X4738Y2055D03*
X5440Y2055D03*
X4838Y1155D03*
X3938Y2656D03*
X3938Y2259D03*
X4241Y2656D03*
X4937Y1359D03*
X4738Y1359D03*
X4241Y1359D03*
X3838Y1359D03*
X3838Y1155D03*
X4937Y2855D03*
X5539Y2855D03*
X2739Y354D03*
X4037Y354D03*
X2540Y1557D03*
X2237Y1458D03*
X2237Y254D03*
X3838Y254D03*
X3838Y757D03*
X3838Y1055D03*
X3540Y155D03*
X4738Y1955D03*
X5037Y1955D03*
X4937Y1155D03*
X4937Y458D03*
X3891Y1955D03*
X3891Y3457D03*
X3137Y804D03*
X2090Y804D03*
X5738Y2756D03*
G54D19*
X89Y1606D03*
X89Y1506D03*
X89Y1406D03*
X89Y1306D03*
X89Y1206D03*
X89Y1106D03*
G54D20*
X3990Y3258D03*
X3990Y3154D03*
X3639Y3154D03*
X3938Y1557D03*
X3938Y1155D03*
X1640Y2008D03*
G54D21*
X1439Y2756D03*
G54D22*
X1039Y2258D03*
G54D21*
X4339Y3656D03*
X4339Y3056D03*
X4339Y2456D03*
X4339Y1856D03*
X4339Y1256D03*
G54D22*
X3539Y3258D03*
G54D23*
X139Y3156D03*
G54D22*
X5839Y3458D03*
X5839Y2858D03*
X5839Y2258D03*
X5839Y1658D03*
X5839Y1058D03*
G54D24*
X933Y3221D02*
X944Y3221D01*
X1033Y3221D02*
X1044Y3221D01*
X1133Y3221D02*
X1144Y3221D01*
X2033Y3221D02*
X2043Y3221D01*
X2133Y3221D02*
X2143Y3221D01*
X2233Y3221D02*
X2243Y3221D01*
X929Y3220D02*
X948Y3220D01*
X1029Y3220D02*
X1048Y3220D01*
X1129Y3220D02*
X1148Y3220D01*
X2029Y3220D02*
X2048Y3220D01*
X2129Y3220D02*
X2148Y3220D01*
X2229Y3220D02*
X2248Y3220D01*
X926Y3219D02*
X951Y3219D01*
X1026Y3219D02*
X1051Y3219D01*
X1126Y3219D02*
X1151Y3219D01*
X2026Y3219D02*
X2050Y3219D01*
X2126Y3219D02*
X2150Y3219D01*
X2226Y3219D02*
X2250Y3219D01*
X924Y3218D02*
X953Y3218D01*
X1024Y3218D02*
X1053Y3218D01*
X1124Y3218D02*
X1153Y3218D01*
X2023Y3218D02*
X2053Y3218D01*
X2123Y3218D02*
X2153Y3218D01*
X2223Y3218D02*
X2253Y3218D01*
X922Y3217D02*
X955Y3217D01*
X1022Y3217D02*
X1055Y3217D01*
X1122Y3217D02*
X1155Y3217D01*
X2021Y3217D02*
X2055Y3217D01*
X2121Y3217D02*
X2155Y3217D01*
X2221Y3217D02*
X2255Y3217D01*
X920Y3216D02*
X956Y3216D01*
X1020Y3216D02*
X1056Y3216D01*
X1120Y3216D02*
X1156Y3216D01*
X2020Y3216D02*
X2056Y3216D01*
X2120Y3216D02*
X2156Y3216D01*
X2220Y3216D02*
X2256Y3216D01*
X918Y3215D02*
X958Y3215D01*
X1018Y3215D02*
X1058Y3215D01*
X1118Y3215D02*
X1158Y3215D01*
X2018Y3215D02*
X2058Y3215D01*
X2118Y3215D02*
X2158Y3215D01*
X2218Y3215D02*
X2258Y3215D01*
X917Y3214D02*
X959Y3214D01*
X1017Y3214D02*
X1059Y3214D01*
X1117Y3214D02*
X1159Y3214D01*
X2017Y3214D02*
X2059Y3214D01*
X2117Y3214D02*
X2159Y3214D01*
X2217Y3214D02*
X2259Y3214D01*
X916Y3213D02*
X961Y3213D01*
X1016Y3213D02*
X1061Y3213D01*
X1116Y3213D02*
X1161Y3213D01*
X2016Y3213D02*
X2060Y3213D01*
X2116Y3213D02*
X2160Y3213D01*
X2216Y3213D02*
X2260Y3213D01*
X915Y3212D02*
X962Y3212D01*
X1015Y3212D02*
X1062Y3212D01*
X1115Y3212D02*
X1162Y3212D01*
X2015Y3212D02*
X2062Y3212D01*
X2115Y3212D02*
X2162Y3212D01*
X2215Y3212D02*
X2262Y3212D01*
X914Y3211D02*
X963Y3211D01*
X1014Y3211D02*
X1063Y3211D01*
X1114Y3211D02*
X1163Y3211D01*
X2014Y3211D02*
X2063Y3211D01*
X2114Y3211D02*
X2163Y3211D01*
X2214Y3211D02*
X2263Y3211D01*
X913Y3210D02*
X964Y3210D01*
X1013Y3210D02*
X1064Y3210D01*
X1113Y3210D02*
X1164Y3210D01*
X2013Y3210D02*
X2063Y3210D01*
X2113Y3210D02*
X2163Y3210D01*
X2213Y3210D02*
X2263Y3210D01*
X912Y3209D02*
X965Y3209D01*
X1012Y3209D02*
X1065Y3209D01*
X1112Y3209D02*
X1165Y3209D01*
X2012Y3209D02*
X2064Y3209D01*
X2112Y3209D02*
X2164Y3209D01*
X2212Y3209D02*
X2264Y3209D01*
X911Y3208D02*
X965Y3208D01*
X1011Y3208D02*
X1065Y3208D01*
X1111Y3208D02*
X1165Y3208D01*
X2011Y3208D02*
X2065Y3208D01*
X2111Y3208D02*
X2165Y3208D01*
X2211Y3208D02*
X2265Y3208D01*
X910Y3207D02*
X966Y3207D01*
X1010Y3207D02*
X1066Y3207D01*
X1110Y3207D02*
X1166Y3207D01*
X2010Y3207D02*
X2066Y3207D01*
X2110Y3207D02*
X2166Y3207D01*
X2210Y3207D02*
X2266Y3207D01*
X910Y3206D02*
X967Y3206D01*
X1010Y3206D02*
X1067Y3206D01*
X1110Y3206D02*
X1167Y3206D01*
X2010Y3206D02*
X2067Y3206D01*
X2110Y3206D02*
X2167Y3206D01*
X2210Y3206D02*
X2267Y3206D01*
X909Y3205D02*
X967Y3205D01*
X1009Y3205D02*
X1067Y3205D01*
X1109Y3205D02*
X1167Y3205D01*
X2009Y3205D02*
X2067Y3205D01*
X2109Y3205D02*
X2167Y3205D01*
X2209Y3205D02*
X2267Y3205D01*
X908Y3204D02*
X968Y3204D01*
X1008Y3204D02*
X1068Y3204D01*
X1108Y3204D02*
X1168Y3204D01*
X2008Y3204D02*
X2068Y3204D01*
X2108Y3204D02*
X2168Y3204D01*
X2208Y3204D02*
X2268Y3204D01*
X908Y3203D02*
X968Y3203D01*
X1008Y3203D02*
X1068Y3203D01*
X1108Y3203D02*
X1168Y3203D01*
X2008Y3203D02*
X2068Y3203D01*
X2108Y3203D02*
X2168Y3203D01*
X2208Y3203D02*
X2268Y3203D01*
X907Y3202D02*
X969Y3202D01*
X1007Y3202D02*
X1069Y3202D01*
X1107Y3202D02*
X1169Y3202D01*
X2007Y3202D02*
X2069Y3202D01*
X2107Y3202D02*
X2169Y3202D01*
X2207Y3202D02*
X2269Y3202D01*
X907Y3201D02*
X969Y3201D01*
X1007Y3201D02*
X1069Y3201D01*
X1107Y3201D02*
X1169Y3201D01*
X2007Y3201D02*
X2069Y3201D01*
X2107Y3201D02*
X2169Y3201D01*
X2207Y3201D02*
X2269Y3201D01*
X906Y3200D02*
X970Y3200D01*
X1006Y3200D02*
X1070Y3200D01*
X1106Y3200D02*
X1170Y3200D01*
X2006Y3200D02*
X2070Y3200D01*
X2106Y3200D02*
X2170Y3200D01*
X2206Y3200D02*
X2270Y3200D01*
X906Y3199D02*
X970Y3199D01*
X1006Y3199D02*
X1070Y3199D01*
X1106Y3199D02*
X1170Y3199D01*
X2006Y3199D02*
X2070Y3199D01*
X2106Y3199D02*
X2170Y3199D01*
X2206Y3199D02*
X2270Y3199D01*
X906Y3198D02*
X971Y3198D01*
X1006Y3198D02*
X1071Y3198D01*
X1106Y3198D02*
X1171Y3198D01*
X2006Y3198D02*
X2071Y3198D01*
X2106Y3198D02*
X2170Y3198D01*
X2206Y3198D02*
X2270Y3198D01*
X905Y3197D02*
X971Y3197D01*
X1005Y3197D02*
X1071Y3197D01*
X1105Y3197D02*
X1171Y3197D01*
X2005Y3197D02*
X2071Y3197D01*
X2105Y3197D02*
X2171Y3197D01*
X2205Y3197D02*
X2271Y3197D01*
X905Y3196D02*
X971Y3196D01*
X1005Y3196D02*
X1071Y3196D01*
X1105Y3196D02*
X1171Y3196D01*
X2005Y3196D02*
X2071Y3196D01*
X2105Y3196D02*
X2171Y3196D01*
X2205Y3196D02*
X2271Y3196D01*
X905Y3195D02*
X972Y3195D01*
X1005Y3195D02*
X1072Y3195D01*
X1105Y3195D02*
X1172Y3195D01*
X2005Y3195D02*
X2071Y3195D01*
X2105Y3195D02*
X2171Y3195D01*
X2205Y3195D02*
X2271Y3195D01*
X905Y3194D02*
X972Y3194D01*
X1005Y3194D02*
X1072Y3194D01*
X1105Y3194D02*
X1172Y3194D01*
X2004Y3194D02*
X2072Y3194D01*
X2104Y3194D02*
X2172Y3194D01*
X2204Y3194D02*
X2272Y3194D01*
X904Y3193D02*
X972Y3193D01*
X1004Y3193D02*
X1072Y3193D01*
X1104Y3193D02*
X1172Y3193D01*
X2004Y3193D02*
X2072Y3193D01*
X2104Y3193D02*
X2172Y3193D01*
X2204Y3193D02*
X2272Y3193D01*
X904Y3192D02*
X972Y3192D01*
X1004Y3192D02*
X1072Y3192D01*
X1104Y3192D02*
X1172Y3192D01*
X2004Y3192D02*
X2072Y3192D01*
X2104Y3192D02*
X2172Y3192D01*
X2204Y3192D02*
X2272Y3192D01*
X904Y3191D02*
X972Y3191D01*
X1004Y3191D02*
X1072Y3191D01*
X1104Y3191D02*
X1172Y3191D01*
X2004Y3191D02*
X2072Y3191D01*
X2104Y3191D02*
X2172Y3191D01*
X2204Y3191D02*
X2272Y3191D01*
X904Y3190D02*
X972Y3190D01*
X1004Y3190D02*
X1072Y3190D01*
X1104Y3190D02*
X1172Y3190D01*
X2004Y3190D02*
X2072Y3190D01*
X2104Y3190D02*
X2172Y3190D01*
X2204Y3190D02*
X2272Y3190D01*
X904Y3189D02*
X973Y3189D01*
X1004Y3189D02*
X1073Y3189D01*
X1104Y3189D02*
X1173Y3189D01*
X2004Y3189D02*
X2072Y3189D01*
X2104Y3189D02*
X2172Y3189D01*
X2204Y3189D02*
X2272Y3189D01*
X904Y3188D02*
X973Y3188D01*
X1004Y3188D02*
X1073Y3188D01*
X1104Y3188D02*
X1173Y3188D01*
X2004Y3188D02*
X2072Y3188D01*
X2104Y3188D02*
X2172Y3188D01*
X2204Y3188D02*
X2272Y3188D01*
X904Y3187D02*
X973Y3187D01*
X1004Y3187D02*
X1073Y3187D01*
X1104Y3187D02*
X1173Y3187D01*
X2004Y3187D02*
X2073Y3187D01*
X2104Y3187D02*
X2173Y3187D01*
X2204Y3187D02*
X2273Y3187D01*
X904Y3186D02*
X973Y3186D01*
X1004Y3186D02*
X1073Y3186D01*
X1104Y3186D02*
X1173Y3186D01*
X2004Y3186D02*
X2073Y3186D01*
X2104Y3186D02*
X2173Y3186D01*
X2204Y3186D02*
X2273Y3186D01*
X904Y3185D02*
X973Y3185D01*
X1004Y3185D02*
X1073Y3185D01*
X1104Y3185D02*
X1173Y3185D01*
X2004Y3185D02*
X2073Y3185D01*
X2104Y3185D02*
X2173Y3185D01*
X2204Y3185D02*
X2273Y3185D01*
X904Y3184D02*
X973Y3184D01*
X1004Y3184D02*
X1073Y3184D01*
X1104Y3184D02*
X1173Y3184D01*
X2004Y3184D02*
X2073Y3184D01*
X2104Y3184D02*
X2173Y3184D01*
X2204Y3184D02*
X2273Y3184D01*
X904Y3183D02*
X973Y3183D01*
X1004Y3183D02*
X1073Y3183D01*
X1104Y3183D02*
X1173Y3183D01*
X2004Y3183D02*
X2073Y3183D01*
X2104Y3183D02*
X2173Y3183D01*
X2204Y3183D02*
X2273Y3183D01*
X904Y3182D02*
X973Y3182D01*
X1004Y3182D02*
X1073Y3182D01*
X1104Y3182D02*
X1173Y3182D01*
X2004Y3182D02*
X2073Y3182D01*
X2104Y3182D02*
X2173Y3182D01*
X2204Y3182D02*
X2273Y3182D01*
X904Y3181D02*
X973Y3181D01*
X1004Y3181D02*
X1073Y3181D01*
X1104Y3181D02*
X1173Y3181D01*
X2004Y3181D02*
X2073Y3181D01*
X2104Y3181D02*
X2173Y3181D01*
X2204Y3181D02*
X2273Y3181D01*
X904Y3180D02*
X973Y3180D01*
X1004Y3180D02*
X1073Y3180D01*
X1104Y3180D02*
X1173Y3180D01*
X2004Y3180D02*
X2073Y3180D01*
X2104Y3180D02*
X2173Y3180D01*
X2204Y3180D02*
X2273Y3180D01*
X904Y3179D02*
X973Y3179D01*
X1004Y3179D02*
X1073Y3179D01*
X1104Y3179D02*
X1173Y3179D01*
X2004Y3179D02*
X2073Y3179D01*
X2104Y3179D02*
X2173Y3179D01*
X2204Y3179D02*
X2273Y3179D01*
X904Y3178D02*
X973Y3178D01*
X1004Y3178D02*
X1073Y3178D01*
X1104Y3178D02*
X1173Y3178D01*
X2004Y3178D02*
X2073Y3178D01*
X2104Y3178D02*
X2173Y3178D01*
X2204Y3178D02*
X2273Y3178D01*
X904Y3177D02*
X973Y3177D01*
X1004Y3177D02*
X1073Y3177D01*
X1104Y3177D02*
X1173Y3177D01*
X2004Y3177D02*
X2073Y3177D01*
X2104Y3177D02*
X2173Y3177D01*
X2204Y3177D02*
X2273Y3177D01*
X904Y3176D02*
X973Y3176D01*
X1004Y3176D02*
X1073Y3176D01*
X1104Y3176D02*
X1173Y3176D01*
X2004Y3176D02*
X2073Y3176D01*
X2104Y3176D02*
X2173Y3176D01*
X2204Y3176D02*
X2273Y3176D01*
X904Y3175D02*
X973Y3175D01*
X1004Y3175D02*
X1073Y3175D01*
X1104Y3175D02*
X1173Y3175D01*
X2004Y3175D02*
X2073Y3175D01*
X2104Y3175D02*
X2173Y3175D01*
X2204Y3175D02*
X2273Y3175D01*
X904Y3174D02*
X973Y3174D01*
X1004Y3174D02*
X1073Y3174D01*
X1104Y3174D02*
X1173Y3174D01*
X2004Y3174D02*
X2073Y3174D01*
X2104Y3174D02*
X2173Y3174D01*
X2204Y3174D02*
X2273Y3174D01*
X904Y3173D02*
X973Y3173D01*
X1004Y3173D02*
X1073Y3173D01*
X1104Y3173D02*
X1173Y3173D01*
X2004Y3173D02*
X2073Y3173D01*
X2104Y3173D02*
X2173Y3173D01*
X2204Y3173D02*
X2273Y3173D01*
X904Y3172D02*
X973Y3172D01*
X1004Y3172D02*
X1073Y3172D01*
X1104Y3172D02*
X1173Y3172D01*
X2004Y3172D02*
X2073Y3172D01*
X2104Y3172D02*
X2173Y3172D01*
X2204Y3172D02*
X2273Y3172D01*
X904Y3171D02*
X934Y3171D01*
X943Y3171D02*
X973Y3171D01*
X1004Y3171D02*
X1034Y3171D01*
X1043Y3171D02*
X1073Y3171D01*
X1104Y3171D02*
X1134Y3171D01*
X1143Y3171D02*
X1173Y3171D01*
X2004Y3171D02*
X2034Y3171D01*
X2043Y3171D02*
X2073Y3171D01*
X2104Y3171D02*
X2134Y3171D01*
X2143Y3171D02*
X2173Y3171D01*
X2204Y3171D02*
X2233Y3171D01*
X2243Y3171D02*
X2273Y3171D01*
X904Y3170D02*
X931Y3170D01*
X945Y3170D02*
X973Y3170D01*
X1004Y3170D02*
X1031Y3170D01*
X1045Y3170D02*
X1073Y3170D01*
X1104Y3170D02*
X1131Y3170D01*
X1145Y3170D02*
X1173Y3170D01*
X2004Y3170D02*
X2031Y3170D01*
X2045Y3170D02*
X2073Y3170D01*
X2104Y3170D02*
X2131Y3170D01*
X2145Y3170D02*
X2173Y3170D01*
X2204Y3170D02*
X2231Y3170D01*
X2245Y3170D02*
X2273Y3170D01*
X904Y3169D02*
X929Y3169D01*
X947Y3169D02*
X973Y3169D01*
X1004Y3169D02*
X1029Y3169D01*
X1047Y3169D02*
X1073Y3169D01*
X1104Y3169D02*
X1129Y3169D01*
X1147Y3169D02*
X1173Y3169D01*
X2004Y3169D02*
X2029Y3169D01*
X2047Y3169D02*
X2073Y3169D01*
X2104Y3169D02*
X2129Y3169D01*
X2147Y3169D02*
X2173Y3169D01*
X2204Y3169D02*
X2229Y3169D01*
X2247Y3169D02*
X2273Y3169D01*
X904Y3168D02*
X928Y3168D01*
X948Y3168D02*
X973Y3168D01*
X1004Y3168D02*
X1028Y3168D01*
X1048Y3168D02*
X1073Y3168D01*
X1104Y3168D02*
X1128Y3168D01*
X1148Y3168D02*
X1173Y3168D01*
X2004Y3168D02*
X2028Y3168D01*
X2048Y3168D02*
X2073Y3168D01*
X2104Y3168D02*
X2128Y3168D01*
X2148Y3168D02*
X2173Y3168D01*
X2204Y3168D02*
X2228Y3168D01*
X2248Y3168D02*
X2273Y3168D01*
X904Y3167D02*
X927Y3167D01*
X949Y3167D02*
X973Y3167D01*
X1004Y3167D02*
X1027Y3167D01*
X1049Y3167D02*
X1073Y3167D01*
X1104Y3167D02*
X1127Y3167D01*
X1149Y3167D02*
X1173Y3167D01*
X2004Y3167D02*
X2027Y3167D01*
X2049Y3167D02*
X2073Y3167D01*
X2104Y3167D02*
X2127Y3167D01*
X2149Y3167D02*
X2173Y3167D01*
X2204Y3167D02*
X2227Y3167D01*
X2249Y3167D02*
X2273Y3167D01*
X904Y3166D02*
X926Y3166D01*
X950Y3166D02*
X973Y3166D01*
X1004Y3166D02*
X1026Y3166D01*
X1050Y3166D02*
X1073Y3166D01*
X1104Y3166D02*
X1126Y3166D01*
X1150Y3166D02*
X1173Y3166D01*
X2004Y3166D02*
X2026Y3166D01*
X2050Y3166D02*
X2073Y3166D01*
X2104Y3166D02*
X2126Y3166D01*
X2150Y3166D02*
X2173Y3166D01*
X2204Y3166D02*
X2226Y3166D01*
X2250Y3166D02*
X2273Y3166D01*
X904Y3165D02*
X925Y3165D01*
X951Y3165D02*
X973Y3165D01*
X1004Y3165D02*
X1025Y3165D01*
X1051Y3165D02*
X1073Y3165D01*
X1104Y3165D02*
X1125Y3165D01*
X1151Y3165D02*
X1173Y3165D01*
X2004Y3165D02*
X2025Y3165D01*
X2051Y3165D02*
X2073Y3165D01*
X2104Y3165D02*
X2125Y3165D01*
X2151Y3165D02*
X2173Y3165D01*
X2204Y3165D02*
X2225Y3165D01*
X2251Y3165D02*
X2273Y3165D01*
X904Y3164D02*
X925Y3164D01*
X952Y3164D02*
X973Y3164D01*
X1004Y3164D02*
X1025Y3164D01*
X1052Y3164D02*
X1073Y3164D01*
X1104Y3164D02*
X1125Y3164D01*
X1152Y3164D02*
X1173Y3164D01*
X2004Y3164D02*
X2025Y3164D01*
X2052Y3164D02*
X2073Y3164D01*
X2104Y3164D02*
X2125Y3164D01*
X2152Y3164D02*
X2173Y3164D01*
X2204Y3164D02*
X2225Y3164D01*
X2252Y3164D02*
X2273Y3164D01*
X904Y3163D02*
X924Y3163D01*
X952Y3163D02*
X973Y3163D01*
X1004Y3163D02*
X1024Y3163D01*
X1052Y3163D02*
X1073Y3163D01*
X1104Y3163D02*
X1124Y3163D01*
X1152Y3163D02*
X1173Y3163D01*
X2004Y3163D02*
X2024Y3163D01*
X2052Y3163D02*
X2073Y3163D01*
X2104Y3163D02*
X2124Y3163D01*
X2152Y3163D02*
X2173Y3163D01*
X2204Y3163D02*
X2224Y3163D01*
X2252Y3163D02*
X2273Y3163D01*
X904Y3162D02*
X924Y3162D01*
X953Y3162D02*
X973Y3162D01*
X1004Y3162D02*
X1024Y3162D01*
X1053Y3162D02*
X1073Y3162D01*
X1104Y3162D02*
X1124Y3162D01*
X1153Y3162D02*
X1173Y3162D01*
X2004Y3162D02*
X2024Y3162D01*
X2053Y3162D02*
X2073Y3162D01*
X2104Y3162D02*
X2124Y3162D01*
X2153Y3162D02*
X2173Y3162D01*
X2204Y3162D02*
X2224Y3162D01*
X2253Y3162D02*
X2273Y3162D01*
X904Y3161D02*
X923Y3161D01*
X953Y3161D02*
X973Y3161D01*
X1004Y3161D02*
X1023Y3161D01*
X1053Y3161D02*
X1073Y3161D01*
X1104Y3161D02*
X1123Y3161D01*
X1153Y3161D02*
X1173Y3161D01*
X2004Y3161D02*
X2023Y3161D01*
X2053Y3161D02*
X2073Y3161D01*
X2104Y3161D02*
X2123Y3161D01*
X2153Y3161D02*
X2173Y3161D01*
X2204Y3161D02*
X2223Y3161D01*
X2253Y3161D02*
X2273Y3161D01*
X904Y3160D02*
X923Y3160D01*
X953Y3160D02*
X973Y3160D01*
X1004Y3160D02*
X1023Y3160D01*
X1053Y3160D02*
X1073Y3160D01*
X1104Y3160D02*
X1123Y3160D01*
X1153Y3160D02*
X1173Y3160D01*
X2004Y3160D02*
X2023Y3160D01*
X2053Y3160D02*
X2073Y3160D01*
X2104Y3160D02*
X2123Y3160D01*
X2153Y3160D02*
X2173Y3160D01*
X2204Y3160D02*
X2223Y3160D01*
X2253Y3160D02*
X2273Y3160D01*
X904Y3159D02*
X923Y3159D01*
X953Y3159D02*
X973Y3159D01*
X1004Y3159D02*
X1023Y3159D01*
X1053Y3159D02*
X1073Y3159D01*
X1104Y3159D02*
X1123Y3159D01*
X1153Y3159D02*
X1173Y3159D01*
X2004Y3159D02*
X2023Y3159D01*
X2053Y3159D02*
X2073Y3159D01*
X2104Y3159D02*
X2123Y3159D01*
X2153Y3159D02*
X2173Y3159D01*
X2204Y3159D02*
X2223Y3159D01*
X2253Y3159D02*
X2273Y3159D01*
X904Y3158D02*
X923Y3158D01*
X954Y3158D02*
X973Y3158D01*
X1004Y3158D02*
X1023Y3158D01*
X1054Y3158D02*
X1073Y3158D01*
X1104Y3158D02*
X1123Y3158D01*
X1154Y3158D02*
X1173Y3158D01*
X2004Y3158D02*
X2023Y3158D01*
X2053Y3158D02*
X2073Y3158D01*
X2104Y3158D02*
X2123Y3158D01*
X2153Y3158D02*
X2173Y3158D01*
X2204Y3158D02*
X2223Y3158D01*
X2253Y3158D02*
X2273Y3158D01*
X904Y3157D02*
X923Y3157D01*
X954Y3157D02*
X973Y3157D01*
X1004Y3157D02*
X1023Y3157D01*
X1054Y3157D02*
X1073Y3157D01*
X1104Y3157D02*
X1123Y3157D01*
X1154Y3157D02*
X1173Y3157D01*
X2004Y3157D02*
X2023Y3157D01*
X2054Y3157D02*
X2073Y3157D01*
X2104Y3157D02*
X2123Y3157D01*
X2154Y3157D02*
X2173Y3157D01*
X2204Y3157D02*
X2223Y3157D01*
X2253Y3157D02*
X2273Y3157D01*
X904Y3156D02*
X923Y3156D01*
X954Y3156D02*
X973Y3156D01*
X1004Y3156D02*
X1023Y3156D01*
X1054Y3156D02*
X1073Y3156D01*
X1104Y3156D02*
X1123Y3156D01*
X1154Y3156D02*
X1173Y3156D01*
X2004Y3156D02*
X2023Y3156D01*
X2054Y3156D02*
X2073Y3156D01*
X2104Y3156D02*
X2118Y3156D01*
X2153Y3156D02*
X2173Y3156D01*
X2204Y3156D02*
X2223Y3156D01*
X2253Y3156D02*
X2273Y3156D01*
X904Y3155D02*
X923Y3155D01*
X954Y3155D02*
X973Y3155D01*
X1004Y3155D02*
X1023Y3155D01*
X1054Y3155D02*
X1073Y3155D01*
X1104Y3155D02*
X1123Y3155D01*
X1154Y3155D02*
X1173Y3155D01*
X2004Y3155D02*
X2023Y3155D01*
X2053Y3155D02*
X2073Y3155D01*
X2104Y3155D02*
X2118Y3155D01*
X2153Y3155D02*
X2173Y3155D01*
X2204Y3155D02*
X2223Y3155D01*
X2253Y3155D02*
X2273Y3155D01*
X904Y3154D02*
X923Y3154D01*
X953Y3154D02*
X973Y3154D01*
X1004Y3154D02*
X1023Y3154D01*
X1053Y3154D02*
X1073Y3154D01*
X1104Y3154D02*
X1123Y3154D01*
X1153Y3154D02*
X1173Y3154D01*
X2004Y3154D02*
X2023Y3154D01*
X2053Y3154D02*
X2073Y3154D01*
X2104Y3154D02*
X2118Y3154D01*
X2123Y3154D02*
X2123Y3154D01*
X2153Y3154D02*
X2173Y3154D01*
X2204Y3154D02*
X2223Y3154D01*
X2253Y3154D02*
X2273Y3154D01*
X904Y3153D02*
X923Y3153D01*
X953Y3153D02*
X973Y3153D01*
X1004Y3153D02*
X1023Y3153D01*
X1053Y3153D02*
X1073Y3153D01*
X1104Y3153D02*
X1123Y3153D01*
X1153Y3153D02*
X1173Y3153D01*
X2004Y3153D02*
X2023Y3153D01*
X2053Y3153D02*
X2073Y3153D01*
X2104Y3153D02*
X2118Y3153D01*
X2122Y3153D02*
X2123Y3153D01*
X2153Y3153D02*
X2173Y3153D01*
X2204Y3153D02*
X2223Y3153D01*
X2253Y3153D02*
X2273Y3153D01*
X904Y3152D02*
X923Y3152D01*
X953Y3152D02*
X973Y3152D01*
X1004Y3152D02*
X1023Y3152D01*
X1053Y3152D02*
X1073Y3152D01*
X1104Y3152D02*
X1123Y3152D01*
X1153Y3152D02*
X1173Y3152D01*
X2004Y3152D02*
X2023Y3152D01*
X2053Y3152D02*
X2073Y3152D01*
X2104Y3152D02*
X2118Y3152D01*
X2120Y3152D02*
X2123Y3152D01*
X2153Y3152D02*
X2173Y3152D01*
X2204Y3152D02*
X2223Y3152D01*
X2253Y3152D02*
X2273Y3152D01*
X904Y3151D02*
X924Y3151D01*
X953Y3151D02*
X973Y3151D01*
X1004Y3151D02*
X1024Y3151D01*
X1053Y3151D02*
X1073Y3151D01*
X1104Y3151D02*
X1124Y3151D01*
X1153Y3151D02*
X1173Y3151D01*
X2004Y3151D02*
X2024Y3151D01*
X2053Y3151D02*
X2073Y3151D01*
X2104Y3151D02*
X2124Y3151D01*
X2153Y3151D02*
X2173Y3151D01*
X2204Y3151D02*
X2224Y3151D01*
X2253Y3151D02*
X2273Y3151D01*
X904Y3150D02*
X924Y3150D01*
X952Y3150D02*
X973Y3150D01*
X1004Y3150D02*
X1024Y3150D01*
X1052Y3150D02*
X1073Y3150D01*
X1104Y3150D02*
X1124Y3150D01*
X1152Y3150D02*
X1173Y3150D01*
X2004Y3150D02*
X2024Y3150D01*
X2052Y3150D02*
X2073Y3150D01*
X2104Y3150D02*
X2124Y3150D01*
X2152Y3150D02*
X2173Y3150D01*
X2204Y3150D02*
X2224Y3150D01*
X2252Y3150D02*
X2273Y3150D01*
X904Y3149D02*
X925Y3149D01*
X952Y3149D02*
X973Y3149D01*
X1004Y3149D02*
X1025Y3149D01*
X1052Y3149D02*
X1073Y3149D01*
X1104Y3149D02*
X1125Y3149D01*
X1152Y3149D02*
X1173Y3149D01*
X2004Y3149D02*
X2025Y3149D01*
X2052Y3149D02*
X2073Y3149D01*
X2104Y3149D02*
X2125Y3149D01*
X2152Y3149D02*
X2173Y3149D01*
X2204Y3149D02*
X2225Y3149D01*
X2251Y3149D02*
X2273Y3149D01*
X904Y3148D02*
X925Y3148D01*
X951Y3148D02*
X973Y3148D01*
X1004Y3148D02*
X1025Y3148D01*
X1051Y3148D02*
X1073Y3148D01*
X1104Y3148D02*
X1125Y3148D01*
X1151Y3148D02*
X1173Y3148D01*
X2004Y3148D02*
X2025Y3148D01*
X2051Y3148D02*
X2073Y3148D01*
X2104Y3148D02*
X2125Y3148D01*
X2151Y3148D02*
X2173Y3148D01*
X2204Y3148D02*
X2225Y3148D01*
X2251Y3148D02*
X2273Y3148D01*
X904Y3147D02*
X926Y3147D01*
X950Y3147D02*
X973Y3147D01*
X1004Y3147D02*
X1026Y3147D01*
X1050Y3147D02*
X1073Y3147D01*
X1104Y3147D02*
X1126Y3147D01*
X1150Y3147D02*
X1173Y3147D01*
X2004Y3147D02*
X2026Y3147D01*
X2050Y3147D02*
X2073Y3147D01*
X2104Y3147D02*
X2126Y3147D01*
X2150Y3147D02*
X2173Y3147D01*
X2204Y3147D02*
X2226Y3147D01*
X2250Y3147D02*
X2273Y3147D01*
X904Y3146D02*
X927Y3146D01*
X949Y3146D02*
X973Y3146D01*
X1004Y3146D02*
X1027Y3146D01*
X1049Y3146D02*
X1073Y3146D01*
X1104Y3146D02*
X1127Y3146D01*
X1149Y3146D02*
X1173Y3146D01*
X2004Y3146D02*
X2027Y3146D01*
X2049Y3146D02*
X2073Y3146D01*
X2104Y3146D02*
X2127Y3146D01*
X2149Y3146D02*
X2173Y3146D01*
X2204Y3146D02*
X2227Y3146D01*
X2249Y3146D02*
X2273Y3146D01*
X904Y3145D02*
X928Y3145D01*
X948Y3145D02*
X973Y3145D01*
X1004Y3145D02*
X1028Y3145D01*
X1048Y3145D02*
X1073Y3145D01*
X1104Y3145D02*
X1128Y3145D01*
X1148Y3145D02*
X1173Y3145D01*
X2004Y3145D02*
X2028Y3145D01*
X2048Y3145D02*
X2073Y3145D01*
X2104Y3145D02*
X2128Y3145D01*
X2148Y3145D02*
X2173Y3145D01*
X2204Y3145D02*
X2228Y3145D01*
X2248Y3145D02*
X2273Y3145D01*
X904Y3144D02*
X929Y3144D01*
X947Y3144D02*
X973Y3144D01*
X1004Y3144D02*
X1029Y3144D01*
X1047Y3144D02*
X1073Y3144D01*
X1104Y3144D02*
X1129Y3144D01*
X1147Y3144D02*
X1173Y3144D01*
X2004Y3144D02*
X2029Y3144D01*
X2047Y3144D02*
X2073Y3144D01*
X2104Y3144D02*
X2129Y3144D01*
X2147Y3144D02*
X2173Y3144D01*
X2204Y3144D02*
X2229Y3144D01*
X2247Y3144D02*
X2273Y3144D01*
X904Y3143D02*
X931Y3143D01*
X945Y3143D02*
X973Y3143D01*
X1004Y3143D02*
X1031Y3143D01*
X1045Y3143D02*
X1073Y3143D01*
X1104Y3143D02*
X1131Y3143D01*
X1145Y3143D02*
X1173Y3143D01*
X2004Y3143D02*
X2031Y3143D01*
X2045Y3143D02*
X2073Y3143D01*
X2104Y3143D02*
X2131Y3143D01*
X2145Y3143D02*
X2173Y3143D01*
X2204Y3143D02*
X2231Y3143D01*
X2245Y3143D02*
X2273Y3143D01*
X904Y3142D02*
X934Y3142D01*
X942Y3142D02*
X973Y3142D01*
X1004Y3142D02*
X1034Y3142D01*
X1042Y3142D02*
X1073Y3142D01*
X1104Y3142D02*
X1134Y3142D01*
X1142Y3142D02*
X1173Y3142D01*
X2004Y3142D02*
X2034Y3142D01*
X2042Y3142D02*
X2073Y3142D01*
X2104Y3142D02*
X2134Y3142D01*
X2142Y3142D02*
X2173Y3142D01*
X2204Y3142D02*
X2234Y3142D01*
X2242Y3142D02*
X2273Y3142D01*
X904Y3141D02*
X973Y3141D01*
X1004Y3141D02*
X1073Y3141D01*
X1104Y3141D02*
X1173Y3141D01*
X2004Y3141D02*
X2073Y3141D01*
X2104Y3141D02*
X2173Y3141D01*
X2204Y3141D02*
X2273Y3141D01*
X904Y3140D02*
X973Y3140D01*
X1004Y3140D02*
X1073Y3140D01*
X1104Y3140D02*
X1173Y3140D01*
X2004Y3140D02*
X2073Y3140D01*
X2104Y3140D02*
X2173Y3140D01*
X2204Y3140D02*
X2273Y3140D01*
X904Y3139D02*
X973Y3139D01*
X1004Y3139D02*
X1073Y3139D01*
X1104Y3139D02*
X1173Y3139D01*
X2004Y3139D02*
X2073Y3139D01*
X2104Y3139D02*
X2173Y3139D01*
X2204Y3139D02*
X2273Y3139D01*
X904Y3138D02*
X973Y3138D01*
X1004Y3138D02*
X1073Y3138D01*
X1104Y3138D02*
X1173Y3138D01*
X2004Y3138D02*
X2073Y3138D01*
X2104Y3138D02*
X2173Y3138D01*
X2204Y3138D02*
X2273Y3138D01*
X904Y3137D02*
X973Y3137D01*
X1004Y3137D02*
X1073Y3137D01*
X1104Y3137D02*
X1173Y3137D01*
X2004Y3137D02*
X2073Y3137D01*
X2104Y3137D02*
X2173Y3137D01*
X2204Y3137D02*
X2273Y3137D01*
X904Y3136D02*
X973Y3136D01*
X1004Y3136D02*
X1073Y3136D01*
X1104Y3136D02*
X1173Y3136D01*
X2004Y3136D02*
X2073Y3136D01*
X2104Y3136D02*
X2173Y3136D01*
X2204Y3136D02*
X2273Y3136D01*
X904Y3135D02*
X973Y3135D01*
X1004Y3135D02*
X1073Y3135D01*
X1104Y3135D02*
X1173Y3135D01*
X2004Y3135D02*
X2073Y3135D01*
X2104Y3135D02*
X2173Y3135D01*
X2204Y3135D02*
X2273Y3135D01*
X904Y3134D02*
X973Y3134D01*
X1004Y3134D02*
X1073Y3134D01*
X1104Y3134D02*
X1173Y3134D01*
X2004Y3134D02*
X2073Y3134D01*
X2104Y3134D02*
X2173Y3134D01*
X2204Y3134D02*
X2273Y3134D01*
X904Y3133D02*
X973Y3133D01*
X1004Y3133D02*
X1073Y3133D01*
X1104Y3133D02*
X1173Y3133D01*
X2004Y3133D02*
X2073Y3133D01*
X2104Y3133D02*
X2173Y3133D01*
X2204Y3133D02*
X2273Y3133D01*
X904Y3132D02*
X973Y3132D01*
X1004Y3132D02*
X1073Y3132D01*
X1104Y3132D02*
X1173Y3132D01*
X2004Y3132D02*
X2073Y3132D01*
X2104Y3132D02*
X2173Y3132D01*
X2204Y3132D02*
X2273Y3132D01*
X904Y3131D02*
X973Y3131D01*
X1004Y3131D02*
X1073Y3131D01*
X1104Y3131D02*
X1173Y3131D01*
X2004Y3131D02*
X2073Y3131D01*
X2104Y3131D02*
X2173Y3131D01*
X2204Y3131D02*
X2273Y3131D01*
X904Y3130D02*
X973Y3130D01*
X1004Y3130D02*
X1073Y3130D01*
X1104Y3130D02*
X1173Y3130D01*
X2004Y3130D02*
X2073Y3130D01*
X2104Y3130D02*
X2173Y3130D01*
X2204Y3130D02*
X2273Y3130D01*
X904Y3129D02*
X973Y3129D01*
X1004Y3129D02*
X1073Y3129D01*
X1104Y3129D02*
X1173Y3129D01*
X2004Y3129D02*
X2073Y3129D01*
X2104Y3129D02*
X2173Y3129D01*
X2204Y3129D02*
X2273Y3129D01*
X904Y3128D02*
X973Y3128D01*
X1004Y3128D02*
X1073Y3128D01*
X1104Y3128D02*
X1173Y3128D01*
X2004Y3128D02*
X2073Y3128D01*
X2104Y3128D02*
X2173Y3128D01*
X2204Y3128D02*
X2273Y3128D01*
X904Y3127D02*
X973Y3127D01*
X1004Y3127D02*
X1073Y3127D01*
X1104Y3127D02*
X1173Y3127D01*
X2004Y3127D02*
X2073Y3127D01*
X2104Y3127D02*
X2173Y3127D01*
X2204Y3127D02*
X2273Y3127D01*
X904Y3126D02*
X973Y3126D01*
X1004Y3126D02*
X1073Y3126D01*
X1104Y3126D02*
X1173Y3126D01*
X2004Y3126D02*
X2073Y3126D01*
X2104Y3126D02*
X2173Y3126D01*
X2204Y3126D02*
X2273Y3126D01*
X904Y3125D02*
X973Y3125D01*
X1004Y3125D02*
X1073Y3125D01*
X1104Y3125D02*
X1173Y3125D01*
X2004Y3125D02*
X2072Y3125D01*
X2104Y3125D02*
X2172Y3125D01*
X2204Y3125D02*
X2272Y3125D01*
X904Y3124D02*
X973Y3124D01*
X1004Y3124D02*
X1073Y3124D01*
X1104Y3124D02*
X1173Y3124D01*
X2004Y3124D02*
X2072Y3124D01*
X2104Y3124D02*
X2172Y3124D01*
X2204Y3124D02*
X2272Y3124D01*
X904Y3123D02*
X972Y3123D01*
X1004Y3123D02*
X1072Y3123D01*
X1104Y3123D02*
X1172Y3123D01*
X2004Y3123D02*
X2072Y3123D01*
X2104Y3123D02*
X2172Y3123D01*
X2204Y3123D02*
X2272Y3123D01*
X904Y3122D02*
X972Y3122D01*
X1004Y3122D02*
X1072Y3122D01*
X1104Y3122D02*
X1172Y3122D01*
X2004Y3122D02*
X2072Y3122D01*
X2104Y3122D02*
X2172Y3122D01*
X2204Y3122D02*
X2272Y3122D01*
X904Y3121D02*
X972Y3121D01*
X1004Y3121D02*
X1072Y3121D01*
X1104Y3121D02*
X1172Y3121D01*
X2004Y3121D02*
X2072Y3121D01*
X2104Y3121D02*
X2172Y3121D01*
X2204Y3121D02*
X2272Y3121D01*
X904Y3120D02*
X972Y3120D01*
X1004Y3120D02*
X1072Y3120D01*
X1104Y3120D02*
X1172Y3120D01*
X2004Y3120D02*
X2072Y3120D01*
X2104Y3120D02*
X2172Y3120D01*
X2204Y3120D02*
X2272Y3120D01*
X905Y3119D02*
X972Y3119D01*
X1005Y3119D02*
X1072Y3119D01*
X1105Y3119D02*
X1172Y3119D01*
X2004Y3119D02*
X2072Y3119D01*
X2104Y3119D02*
X2172Y3119D01*
X2204Y3119D02*
X2272Y3119D01*
X905Y3118D02*
X972Y3118D01*
X1005Y3118D02*
X1072Y3118D01*
X1105Y3118D02*
X1171Y3118D01*
X2005Y3118D02*
X2071Y3118D01*
X2105Y3118D02*
X2171Y3118D01*
X2205Y3118D02*
X2271Y3118D01*
X905Y3117D02*
X971Y3117D01*
X1005Y3117D02*
X1071Y3117D01*
X1105Y3117D02*
X1171Y3117D01*
X2005Y3117D02*
X2071Y3117D01*
X2105Y3117D02*
X2171Y3117D01*
X2205Y3117D02*
X2271Y3117D01*
X905Y3116D02*
X971Y3116D01*
X1005Y3116D02*
X1071Y3116D01*
X1105Y3116D02*
X1171Y3116D01*
X2005Y3116D02*
X2071Y3116D01*
X2105Y3116D02*
X2171Y3116D01*
X2205Y3116D02*
X2271Y3116D01*
X906Y3115D02*
X971Y3115D01*
X1006Y3115D02*
X1071Y3115D01*
X1106Y3115D02*
X1171Y3115D01*
X2006Y3115D02*
X2070Y3115D01*
X2106Y3115D02*
X2170Y3115D01*
X2206Y3115D02*
X2270Y3115D01*
X906Y3114D02*
X970Y3114D01*
X1006Y3114D02*
X1070Y3114D01*
X1106Y3114D02*
X1170Y3114D01*
X2006Y3114D02*
X2070Y3114D01*
X2106Y3114D02*
X2170Y3114D01*
X2206Y3114D02*
X2270Y3114D01*
X907Y3113D02*
X970Y3113D01*
X1007Y3113D02*
X1070Y3113D01*
X1107Y3113D02*
X1170Y3113D01*
X2006Y3113D02*
X2070Y3113D01*
X2106Y3113D02*
X2170Y3113D01*
X2206Y3113D02*
X2270Y3113D01*
X907Y3112D02*
X969Y3112D01*
X1007Y3112D02*
X1069Y3112D01*
X1107Y3112D02*
X1169Y3112D01*
X2007Y3112D02*
X2069Y3112D01*
X2107Y3112D02*
X2169Y3112D01*
X2207Y3112D02*
X2269Y3112D01*
X907Y3111D02*
X969Y3111D01*
X1007Y3111D02*
X1069Y3111D01*
X1107Y3111D02*
X1169Y3111D01*
X2007Y3111D02*
X2069Y3111D01*
X2107Y3111D02*
X2169Y3111D01*
X2207Y3111D02*
X2269Y3111D01*
X908Y3110D02*
X968Y3110D01*
X1008Y3110D02*
X1068Y3110D01*
X1108Y3110D02*
X1168Y3110D01*
X2008Y3110D02*
X2068Y3110D01*
X2108Y3110D02*
X2168Y3110D01*
X2208Y3110D02*
X2268Y3110D01*
X909Y3109D02*
X968Y3109D01*
X1009Y3109D02*
X1068Y3109D01*
X1109Y3109D02*
X1168Y3109D01*
X2008Y3109D02*
X2068Y3109D01*
X2108Y3109D02*
X2168Y3109D01*
X2208Y3109D02*
X2268Y3109D01*
X909Y3108D02*
X967Y3108D01*
X1009Y3108D02*
X1067Y3108D01*
X1109Y3108D02*
X1167Y3108D01*
X2009Y3108D02*
X2067Y3108D01*
X2109Y3108D02*
X2167Y3108D01*
X2209Y3108D02*
X2267Y3108D01*
X910Y3107D02*
X967Y3107D01*
X1010Y3107D02*
X1067Y3107D01*
X1110Y3107D02*
X1167Y3107D01*
X2010Y3107D02*
X2067Y3107D01*
X2110Y3107D02*
X2166Y3107D01*
X2210Y3107D02*
X2266Y3107D01*
X910Y3106D02*
X966Y3106D01*
X1010Y3106D02*
X1066Y3106D01*
X1110Y3106D02*
X1166Y3106D01*
X2010Y3106D02*
X2066Y3106D01*
X2110Y3106D02*
X2166Y3106D01*
X2210Y3106D02*
X2266Y3106D01*
X911Y3105D02*
X965Y3105D01*
X1011Y3105D02*
X1065Y3105D01*
X1111Y3105D02*
X1165Y3105D01*
X2011Y3105D02*
X2065Y3105D01*
X2111Y3105D02*
X2165Y3105D01*
X2211Y3105D02*
X2265Y3105D01*
X912Y3104D02*
X964Y3104D01*
X1012Y3104D02*
X1064Y3104D01*
X1112Y3104D02*
X1164Y3104D01*
X2012Y3104D02*
X2064Y3104D01*
X2112Y3104D02*
X2164Y3104D01*
X2212Y3104D02*
X2264Y3104D01*
X913Y3103D02*
X963Y3103D01*
X1013Y3103D02*
X1063Y3103D01*
X1113Y3103D02*
X1163Y3103D01*
X2013Y3103D02*
X2063Y3103D01*
X2113Y3103D02*
X2163Y3103D01*
X2213Y3103D02*
X2263Y3103D01*
X914Y3102D02*
X963Y3102D01*
X1014Y3102D02*
X1063Y3102D01*
X1114Y3102D02*
X1163Y3102D01*
X2014Y3102D02*
X2062Y3102D01*
X2114Y3102D02*
X2162Y3102D01*
X2214Y3102D02*
X2262Y3102D01*
X915Y3101D02*
X962Y3101D01*
X1015Y3101D02*
X1062Y3101D01*
X1115Y3101D02*
X1162Y3101D01*
X2015Y3101D02*
X2061Y3101D01*
X2115Y3101D02*
X2161Y3101D01*
X2215Y3101D02*
X2261Y3101D01*
X916Y3100D02*
X960Y3100D01*
X1016Y3100D02*
X1060Y3100D01*
X1116Y3100D02*
X1160Y3100D01*
X2016Y3100D02*
X2060Y3100D01*
X2116Y3100D02*
X2160Y3100D01*
X2216Y3100D02*
X2260Y3100D01*
X917Y3099D02*
X959Y3099D01*
X1017Y3099D02*
X1059Y3099D01*
X1117Y3099D02*
X1159Y3099D01*
X2017Y3099D02*
X2059Y3099D01*
X2117Y3099D02*
X2159Y3099D01*
X2217Y3099D02*
X2259Y3099D01*
X919Y3098D02*
X958Y3098D01*
X1019Y3098D02*
X1058Y3098D01*
X1119Y3098D02*
X1158Y3098D01*
X2019Y3098D02*
X2058Y3098D01*
X2118Y3098D02*
X2158Y3098D01*
X2218Y3098D02*
X2258Y3098D01*
X920Y3097D02*
X956Y3097D01*
X1020Y3097D02*
X1056Y3097D01*
X1120Y3097D02*
X1156Y3097D01*
X2020Y3097D02*
X2056Y3097D01*
X2120Y3097D02*
X2156Y3097D01*
X2220Y3097D02*
X2256Y3097D01*
X922Y3096D02*
X955Y3096D01*
X1022Y3096D02*
X1055Y3096D01*
X1122Y3096D02*
X1155Y3096D01*
X2022Y3096D02*
X2054Y3096D01*
X2122Y3096D02*
X2154Y3096D01*
X2222Y3096D02*
X2254Y3096D01*
X924Y3095D02*
X953Y3095D01*
X1024Y3095D02*
X1052Y3095D01*
X1124Y3095D02*
X1152Y3095D01*
X2024Y3095D02*
X2052Y3095D01*
X2124Y3095D02*
X2152Y3095D01*
X2224Y3095D02*
X2252Y3095D01*
X926Y3094D02*
X950Y3094D01*
X1026Y3094D02*
X1050Y3094D01*
X1126Y3094D02*
X1150Y3094D01*
X2026Y3094D02*
X2050Y3094D01*
X2126Y3094D02*
X2150Y3094D01*
X2226Y3094D02*
X2250Y3094D01*
X929Y3093D02*
X947Y3093D01*
X1029Y3093D02*
X1047Y3093D01*
X1129Y3093D02*
X1147Y3093D01*
X2029Y3093D02*
X2047Y3093D01*
X2129Y3093D02*
X2147Y3093D01*
X2229Y3093D02*
X2247Y3093D01*
X934Y3092D02*
X943Y3092D01*
X1034Y3092D02*
X1043Y3092D01*
X1134Y3092D02*
X1143Y3092D01*
X2034Y3092D02*
X2042Y3092D01*
X2134Y3092D02*
X2142Y3092D01*
X2234Y3092D02*
X2242Y3092D01*
X2432Y1396D02*
X2444Y1396D01*
X2532Y1396D02*
X2544Y1396D01*
X2632Y1396D02*
X2644Y1396D01*
X2732Y1396D02*
X2744Y1396D01*
X2832Y1396D02*
X2844Y1396D01*
X2932Y1396D02*
X2944Y1396D01*
X3032Y1396D02*
X3044Y1396D01*
X3132Y1396D02*
X3144Y1396D01*
X3232Y1396D02*
X3244Y1396D01*
X3332Y1396D02*
X3344Y1396D01*
X3432Y1396D02*
X3444Y1396D01*
X3532Y1396D02*
X3544Y1396D01*
X3632Y1396D02*
X3644Y1396D01*
X3732Y1396D02*
X3744Y1396D01*
X2427Y1395D02*
X2449Y1395D01*
X2527Y1395D02*
X2549Y1395D01*
X2627Y1395D02*
X2649Y1395D01*
X2727Y1395D02*
X2749Y1395D01*
X2827Y1395D02*
X2849Y1395D01*
X2927Y1395D02*
X2949Y1395D01*
X3027Y1395D02*
X3048Y1395D01*
X3127Y1395D02*
X3148Y1395D01*
X3227Y1395D02*
X3248Y1395D01*
X3327Y1395D02*
X3348Y1395D01*
X3427Y1395D02*
X3448Y1395D01*
X3527Y1395D02*
X3548Y1395D01*
X3627Y1395D02*
X3648Y1395D01*
X3727Y1395D02*
X3748Y1395D01*
X2424Y1394D02*
X2452Y1394D01*
X2524Y1394D02*
X2552Y1394D01*
X2624Y1394D02*
X2652Y1394D01*
X2724Y1394D02*
X2752Y1394D01*
X2824Y1394D02*
X2852Y1394D01*
X2924Y1394D02*
X2952Y1394D01*
X3024Y1394D02*
X3052Y1394D01*
X3124Y1394D02*
X3152Y1394D01*
X3224Y1394D02*
X3252Y1394D01*
X3324Y1394D02*
X3352Y1394D01*
X3424Y1394D02*
X3452Y1394D01*
X3524Y1394D02*
X3552Y1394D01*
X3624Y1394D02*
X3652Y1394D01*
X3724Y1394D02*
X3752Y1394D01*
X2422Y1393D02*
X2454Y1393D01*
X2522Y1393D02*
X2554Y1393D01*
X2622Y1393D02*
X2654Y1393D01*
X2722Y1393D02*
X2754Y1393D01*
X2822Y1393D02*
X2854Y1393D01*
X2922Y1393D02*
X2954Y1393D01*
X3022Y1393D02*
X3054Y1393D01*
X3122Y1393D02*
X3154Y1393D01*
X3222Y1393D02*
X3254Y1393D01*
X3322Y1393D02*
X3354Y1393D01*
X3422Y1393D02*
X3454Y1393D01*
X3522Y1393D02*
X3554Y1393D01*
X3622Y1393D02*
X3654Y1393D01*
X3722Y1393D02*
X3754Y1393D01*
X2420Y1392D02*
X2456Y1392D01*
X2520Y1392D02*
X2556Y1392D01*
X2620Y1392D02*
X2656Y1392D01*
X2720Y1392D02*
X2756Y1392D01*
X2820Y1392D02*
X2856Y1392D01*
X2920Y1392D02*
X2956Y1392D01*
X3020Y1392D02*
X3056Y1392D01*
X3120Y1392D02*
X3156Y1392D01*
X3220Y1392D02*
X3256Y1392D01*
X3320Y1392D02*
X3356Y1392D01*
X3420Y1392D02*
X3456Y1392D01*
X3520Y1392D02*
X3556Y1392D01*
X3620Y1392D02*
X3656Y1392D01*
X3720Y1392D02*
X3756Y1392D01*
X2418Y1391D02*
X2458Y1391D01*
X2518Y1391D02*
X2558Y1391D01*
X2618Y1391D02*
X2658Y1391D01*
X2718Y1391D02*
X2758Y1391D01*
X2818Y1391D02*
X2858Y1391D01*
X2918Y1391D02*
X2958Y1391D01*
X3018Y1391D02*
X3058Y1391D01*
X3118Y1391D02*
X3158Y1391D01*
X3218Y1391D02*
X3258Y1391D01*
X3318Y1391D02*
X3358Y1391D01*
X3418Y1391D02*
X3458Y1391D01*
X3518Y1391D02*
X3558Y1391D01*
X3618Y1391D02*
X3658Y1391D01*
X3718Y1391D02*
X3758Y1391D01*
X2417Y1390D02*
X2459Y1390D01*
X2517Y1390D02*
X2559Y1390D01*
X2617Y1390D02*
X2659Y1390D01*
X2717Y1390D02*
X2759Y1390D01*
X2817Y1390D02*
X2859Y1390D01*
X2917Y1390D02*
X2959Y1390D01*
X3017Y1390D02*
X3059Y1390D01*
X3116Y1390D02*
X3159Y1390D01*
X3216Y1390D02*
X3259Y1390D01*
X3316Y1390D02*
X3359Y1390D01*
X3416Y1390D02*
X3459Y1390D01*
X3516Y1390D02*
X3559Y1390D01*
X3616Y1390D02*
X3659Y1390D01*
X3716Y1390D02*
X3759Y1390D01*
X2415Y1389D02*
X2461Y1389D01*
X2515Y1389D02*
X2561Y1389D01*
X2615Y1389D02*
X2661Y1389D01*
X2715Y1389D02*
X2761Y1389D01*
X2815Y1389D02*
X2861Y1389D01*
X2915Y1389D02*
X2961Y1389D01*
X3015Y1389D02*
X3061Y1389D01*
X3115Y1389D02*
X3161Y1389D01*
X3215Y1389D02*
X3261Y1389D01*
X3315Y1389D02*
X3361Y1389D01*
X3415Y1389D02*
X3461Y1389D01*
X3515Y1389D02*
X3561Y1389D01*
X3615Y1389D02*
X3661Y1389D01*
X3715Y1389D02*
X3761Y1389D01*
X2414Y1388D02*
X2462Y1388D01*
X2514Y1388D02*
X2562Y1388D01*
X2614Y1388D02*
X2662Y1388D01*
X2714Y1388D02*
X2762Y1388D01*
X2814Y1388D02*
X2862Y1388D01*
X2914Y1388D02*
X2962Y1388D01*
X3014Y1388D02*
X3062Y1388D01*
X3114Y1388D02*
X3162Y1388D01*
X3214Y1388D02*
X3262Y1388D01*
X3314Y1388D02*
X3362Y1388D01*
X3414Y1388D02*
X3462Y1388D01*
X3514Y1388D02*
X3562Y1388D01*
X3614Y1388D02*
X3662Y1388D01*
X3714Y1388D02*
X3762Y1388D01*
X2413Y1387D02*
X2463Y1387D01*
X2513Y1387D02*
X2563Y1387D01*
X2613Y1387D02*
X2663Y1387D01*
X2713Y1387D02*
X2763Y1387D01*
X2813Y1387D02*
X2863Y1387D01*
X2912Y1387D02*
X2963Y1387D01*
X3012Y1387D02*
X3063Y1387D01*
X3112Y1387D02*
X3163Y1387D01*
X3212Y1387D02*
X3263Y1387D01*
X3312Y1387D02*
X3363Y1387D01*
X3412Y1387D02*
X3463Y1387D01*
X3512Y1387D02*
X3563Y1387D01*
X3612Y1387D02*
X3663Y1387D01*
X3712Y1387D02*
X3763Y1387D01*
X2411Y1386D02*
X2465Y1386D01*
X2511Y1386D02*
X2565Y1386D01*
X2611Y1386D02*
X2665Y1386D01*
X2711Y1386D02*
X2765Y1386D01*
X2811Y1386D02*
X2865Y1386D01*
X2911Y1386D02*
X2965Y1386D01*
X3011Y1386D02*
X3065Y1386D01*
X3111Y1386D02*
X3165Y1386D01*
X3211Y1386D02*
X3264Y1386D01*
X3311Y1386D02*
X3364Y1386D01*
X3411Y1386D02*
X3464Y1386D01*
X3511Y1386D02*
X3564Y1386D01*
X3611Y1386D02*
X3664Y1386D01*
X3711Y1386D02*
X3764Y1386D01*
X2410Y1385D02*
X2466Y1385D01*
X2510Y1385D02*
X2566Y1385D01*
X2610Y1385D02*
X2666Y1385D01*
X2710Y1385D02*
X2766Y1385D01*
X2810Y1385D02*
X2866Y1385D01*
X2910Y1385D02*
X2966Y1385D01*
X3010Y1385D02*
X3066Y1385D01*
X3110Y1385D02*
X3166Y1385D01*
X3210Y1385D02*
X3266Y1385D01*
X3310Y1385D02*
X3366Y1385D01*
X3410Y1385D02*
X3466Y1385D01*
X3510Y1385D02*
X3566Y1385D01*
X3610Y1385D02*
X3666Y1385D01*
X3710Y1385D02*
X3766Y1385D01*
X2409Y1384D02*
X2467Y1384D01*
X2509Y1384D02*
X2567Y1384D01*
X2609Y1384D02*
X2667Y1384D01*
X2709Y1384D02*
X2767Y1384D01*
X2809Y1384D02*
X2867Y1384D01*
X2909Y1384D02*
X2967Y1384D01*
X3009Y1384D02*
X3067Y1384D01*
X3109Y1384D02*
X3167Y1384D01*
X3209Y1384D02*
X3267Y1384D01*
X3309Y1384D02*
X3367Y1384D01*
X3409Y1384D02*
X3466Y1384D01*
X3509Y1384D02*
X3566Y1384D01*
X3609Y1384D02*
X3666Y1384D01*
X3709Y1384D02*
X3766Y1384D01*
X2409Y1383D02*
X2468Y1383D01*
X2508Y1383D02*
X2568Y1383D01*
X2608Y1383D02*
X2667Y1383D01*
X2708Y1383D02*
X2767Y1383D01*
X2808Y1383D02*
X2867Y1383D01*
X2908Y1383D02*
X2967Y1383D01*
X3008Y1383D02*
X3067Y1383D01*
X3108Y1383D02*
X3167Y1383D01*
X3208Y1383D02*
X3267Y1383D01*
X3308Y1383D02*
X3367Y1383D01*
X3408Y1383D02*
X3467Y1383D01*
X3508Y1383D02*
X3567Y1383D01*
X3608Y1383D02*
X3667Y1383D01*
X3708Y1383D02*
X3767Y1383D01*
X2408Y1382D02*
X2468Y1382D01*
X2508Y1382D02*
X2568Y1382D01*
X2608Y1382D02*
X2668Y1382D01*
X2708Y1382D02*
X2768Y1382D01*
X2808Y1382D02*
X2868Y1382D01*
X2908Y1382D02*
X2968Y1382D01*
X3008Y1382D02*
X3068Y1382D01*
X3108Y1382D02*
X3168Y1382D01*
X3208Y1382D02*
X3268Y1382D01*
X3308Y1382D02*
X3368Y1382D01*
X3408Y1382D02*
X3468Y1382D01*
X3508Y1382D02*
X3568Y1382D01*
X3608Y1382D02*
X3668Y1382D01*
X3708Y1382D02*
X3768Y1382D01*
X2407Y1381D02*
X2469Y1381D01*
X2507Y1381D02*
X2569Y1381D01*
X2607Y1381D02*
X2669Y1381D01*
X2707Y1381D02*
X2769Y1381D01*
X2807Y1381D02*
X2869Y1381D01*
X2907Y1381D02*
X2969Y1381D01*
X3007Y1381D02*
X3069Y1381D01*
X3107Y1381D02*
X3169Y1381D01*
X3207Y1381D02*
X3269Y1381D01*
X3307Y1381D02*
X3369Y1381D01*
X3407Y1381D02*
X3469Y1381D01*
X3507Y1381D02*
X3569Y1381D01*
X3607Y1381D02*
X3669Y1381D01*
X3707Y1381D02*
X3769Y1381D01*
X2406Y1380D02*
X2470Y1380D01*
X2506Y1380D02*
X2570Y1380D01*
X2606Y1380D02*
X2670Y1380D01*
X2706Y1380D02*
X2770Y1380D01*
X2806Y1380D02*
X2870Y1380D01*
X2906Y1380D02*
X2970Y1380D01*
X3006Y1380D02*
X3070Y1380D01*
X3106Y1380D02*
X3170Y1380D01*
X3206Y1380D02*
X3270Y1380D01*
X3306Y1380D02*
X3370Y1380D01*
X3406Y1380D02*
X3470Y1380D01*
X3506Y1380D02*
X3570Y1380D01*
X3606Y1380D02*
X3670Y1380D01*
X3706Y1380D02*
X3770Y1380D01*
X2405Y1379D02*
X2471Y1379D01*
X2505Y1379D02*
X2571Y1379D01*
X2605Y1379D02*
X2671Y1379D01*
X2705Y1379D02*
X2771Y1379D01*
X2805Y1379D02*
X2871Y1379D01*
X2905Y1379D02*
X2971Y1379D01*
X3005Y1379D02*
X3071Y1379D01*
X3105Y1379D02*
X3171Y1379D01*
X3205Y1379D02*
X3270Y1379D01*
X3305Y1379D02*
X3370Y1379D01*
X3405Y1379D02*
X3470Y1379D01*
X3505Y1379D02*
X3570Y1379D01*
X3605Y1379D02*
X3670Y1379D01*
X3705Y1379D02*
X3770Y1379D01*
X2405Y1378D02*
X2471Y1378D01*
X2505Y1378D02*
X2571Y1378D01*
X2605Y1378D02*
X2671Y1378D01*
X2705Y1378D02*
X2771Y1378D01*
X2805Y1378D02*
X2871Y1378D01*
X2905Y1378D02*
X2971Y1378D01*
X3005Y1378D02*
X3071Y1378D01*
X3105Y1378D02*
X3171Y1378D01*
X3205Y1378D02*
X3271Y1378D01*
X3305Y1378D02*
X3371Y1378D01*
X3405Y1378D02*
X3471Y1378D01*
X3505Y1378D02*
X3571Y1378D01*
X3605Y1378D02*
X3671Y1378D01*
X3705Y1378D02*
X3771Y1378D01*
X2404Y1377D02*
X2472Y1377D01*
X2504Y1377D02*
X2572Y1377D01*
X2604Y1377D02*
X2672Y1377D01*
X2704Y1377D02*
X2772Y1377D01*
X2804Y1377D02*
X2872Y1377D01*
X2904Y1377D02*
X2972Y1377D01*
X3004Y1377D02*
X3072Y1377D01*
X3104Y1377D02*
X3172Y1377D01*
X3204Y1377D02*
X3272Y1377D01*
X3304Y1377D02*
X3372Y1377D01*
X3404Y1377D02*
X3472Y1377D01*
X3504Y1377D02*
X3572Y1377D01*
X3604Y1377D02*
X3672Y1377D01*
X3704Y1377D02*
X3772Y1377D01*
X2404Y1376D02*
X2472Y1376D01*
X2504Y1376D02*
X2572Y1376D01*
X2604Y1376D02*
X2672Y1376D01*
X2704Y1376D02*
X2772Y1376D01*
X2804Y1376D02*
X2872Y1376D01*
X2904Y1376D02*
X2972Y1376D01*
X3004Y1376D02*
X3072Y1376D01*
X3104Y1376D02*
X3172Y1376D01*
X3203Y1376D02*
X3272Y1376D01*
X3303Y1376D02*
X3372Y1376D01*
X3403Y1376D02*
X3472Y1376D01*
X3503Y1376D02*
X3572Y1376D01*
X3603Y1376D02*
X3672Y1376D01*
X3703Y1376D02*
X3772Y1376D01*
X2403Y1375D02*
X2473Y1375D01*
X2503Y1375D02*
X2573Y1375D01*
X2603Y1375D02*
X2673Y1375D01*
X2703Y1375D02*
X2773Y1375D01*
X2803Y1375D02*
X2873Y1375D01*
X2903Y1375D02*
X2973Y1375D01*
X3003Y1375D02*
X3073Y1375D01*
X3103Y1375D02*
X3173Y1375D01*
X3203Y1375D02*
X3273Y1375D01*
X3303Y1375D02*
X3373Y1375D01*
X3403Y1375D02*
X3473Y1375D01*
X3503Y1375D02*
X3573Y1375D01*
X3603Y1375D02*
X3673Y1375D01*
X3703Y1375D02*
X3773Y1375D01*
X2403Y1374D02*
X2473Y1374D01*
X2503Y1374D02*
X2573Y1374D01*
X2603Y1374D02*
X2673Y1374D01*
X2703Y1374D02*
X2773Y1374D01*
X2802Y1374D02*
X2873Y1374D01*
X2902Y1374D02*
X2973Y1374D01*
X3002Y1374D02*
X3073Y1374D01*
X3102Y1374D02*
X3173Y1374D01*
X3202Y1374D02*
X3273Y1374D01*
X3302Y1374D02*
X3373Y1374D01*
X3402Y1374D02*
X3473Y1374D01*
X3502Y1374D02*
X3573Y1374D01*
X3602Y1374D02*
X3673Y1374D01*
X3702Y1374D02*
X3773Y1374D01*
X2402Y1373D02*
X2474Y1373D01*
X2502Y1373D02*
X2574Y1373D01*
X2602Y1373D02*
X2674Y1373D01*
X2702Y1373D02*
X2774Y1373D01*
X2802Y1373D02*
X2874Y1373D01*
X2902Y1373D02*
X2974Y1373D01*
X3002Y1373D02*
X3074Y1373D01*
X3102Y1373D02*
X3174Y1373D01*
X3202Y1373D02*
X3274Y1373D01*
X3302Y1373D02*
X3374Y1373D01*
X3402Y1373D02*
X3474Y1373D01*
X3502Y1373D02*
X3574Y1373D01*
X3602Y1373D02*
X3674Y1373D01*
X3702Y1373D02*
X3774Y1373D01*
X2402Y1372D02*
X2474Y1372D01*
X2502Y1372D02*
X2574Y1372D01*
X2602Y1372D02*
X2674Y1372D01*
X2702Y1372D02*
X2774Y1372D01*
X2802Y1372D02*
X2874Y1372D01*
X2902Y1372D02*
X2974Y1372D01*
X3002Y1372D02*
X3074Y1372D01*
X3102Y1372D02*
X3174Y1372D01*
X3202Y1372D02*
X3274Y1372D01*
X3301Y1372D02*
X3374Y1372D01*
X3401Y1372D02*
X3474Y1372D01*
X3501Y1372D02*
X3574Y1372D01*
X3601Y1372D02*
X3674Y1372D01*
X3701Y1372D02*
X3774Y1372D01*
X2401Y1371D02*
X2475Y1371D01*
X2501Y1371D02*
X2575Y1371D01*
X2601Y1371D02*
X2675Y1371D01*
X2701Y1371D02*
X2775Y1371D01*
X2801Y1371D02*
X2875Y1371D01*
X2901Y1371D02*
X2975Y1371D01*
X3001Y1371D02*
X3075Y1371D01*
X3101Y1371D02*
X3175Y1371D01*
X3201Y1371D02*
X3275Y1371D01*
X3301Y1371D02*
X3375Y1371D01*
X3401Y1371D02*
X3475Y1371D01*
X3501Y1371D02*
X3575Y1371D01*
X3601Y1371D02*
X3675Y1371D01*
X3701Y1371D02*
X3775Y1371D01*
X2401Y1370D02*
X2475Y1370D01*
X2501Y1370D02*
X2575Y1370D01*
X2601Y1370D02*
X2675Y1370D01*
X2701Y1370D02*
X2775Y1370D01*
X2801Y1370D02*
X2875Y1370D01*
X2901Y1370D02*
X2975Y1370D01*
X3001Y1370D02*
X3075Y1370D01*
X3101Y1370D02*
X3175Y1370D01*
X3201Y1370D02*
X3275Y1370D01*
X3301Y1370D02*
X3375Y1370D01*
X3401Y1370D02*
X3475Y1370D01*
X3501Y1370D02*
X3575Y1370D01*
X3601Y1370D02*
X3675Y1370D01*
X3701Y1370D02*
X3775Y1370D01*
X2401Y1369D02*
X2476Y1369D01*
X2501Y1369D02*
X2575Y1369D01*
X2601Y1369D02*
X2675Y1369D01*
X2700Y1369D02*
X2775Y1369D01*
X2800Y1369D02*
X2875Y1369D01*
X2900Y1369D02*
X2975Y1369D01*
X3000Y1369D02*
X3075Y1369D01*
X3100Y1369D02*
X3175Y1369D01*
X3200Y1369D02*
X3275Y1369D01*
X3300Y1369D02*
X3375Y1369D01*
X3400Y1369D02*
X3475Y1369D01*
X3500Y1369D02*
X3575Y1369D01*
X3600Y1369D02*
X3675Y1369D01*
X3700Y1369D02*
X3775Y1369D01*
X2400Y1368D02*
X2476Y1368D01*
X2500Y1368D02*
X2576Y1368D01*
X2600Y1368D02*
X2676Y1368D01*
X2700Y1368D02*
X2776Y1368D01*
X2800Y1368D02*
X2876Y1368D01*
X2900Y1368D02*
X2976Y1368D01*
X3000Y1368D02*
X3076Y1368D01*
X3100Y1368D02*
X3176Y1368D01*
X3200Y1368D02*
X3276Y1368D01*
X3300Y1368D02*
X3376Y1368D01*
X3400Y1368D02*
X3476Y1368D01*
X3500Y1368D02*
X3576Y1368D01*
X3600Y1368D02*
X3676Y1368D01*
X3700Y1368D02*
X3776Y1368D01*
X2400Y1367D02*
X2476Y1367D01*
X2500Y1367D02*
X2576Y1367D01*
X2600Y1367D02*
X2676Y1367D01*
X2700Y1367D02*
X2776Y1367D01*
X2800Y1367D02*
X2876Y1367D01*
X2900Y1367D02*
X2976Y1367D01*
X3000Y1367D02*
X3076Y1367D01*
X3100Y1367D02*
X3176Y1367D01*
X3200Y1367D02*
X3276Y1367D01*
X3300Y1367D02*
X3376Y1367D01*
X3400Y1367D02*
X3476Y1367D01*
X3500Y1367D02*
X3576Y1367D01*
X3600Y1367D02*
X3676Y1367D01*
X3700Y1367D02*
X3776Y1367D01*
X2400Y1366D02*
X2476Y1366D01*
X2500Y1366D02*
X2576Y1366D01*
X2600Y1366D02*
X2676Y1366D01*
X2700Y1366D02*
X2776Y1366D01*
X2800Y1366D02*
X2876Y1366D01*
X2900Y1366D02*
X2976Y1366D01*
X3000Y1366D02*
X3076Y1366D01*
X3100Y1366D02*
X3176Y1366D01*
X3200Y1366D02*
X3276Y1366D01*
X3300Y1366D02*
X3376Y1366D01*
X3400Y1366D02*
X3476Y1366D01*
X3500Y1366D02*
X3576Y1366D01*
X3600Y1366D02*
X3676Y1366D01*
X3700Y1366D02*
X3776Y1366D01*
X2399Y1365D02*
X2477Y1365D01*
X2499Y1365D02*
X2577Y1365D01*
X2599Y1365D02*
X2677Y1365D01*
X2699Y1365D02*
X2777Y1365D01*
X2799Y1365D02*
X2877Y1365D01*
X2899Y1365D02*
X2976Y1365D01*
X2999Y1365D02*
X3076Y1365D01*
X3099Y1365D02*
X3176Y1365D01*
X3199Y1365D02*
X3276Y1365D01*
X3299Y1365D02*
X3376Y1365D01*
X3399Y1365D02*
X3476Y1365D01*
X3499Y1365D02*
X3576Y1365D01*
X3599Y1365D02*
X3676Y1365D01*
X3699Y1365D02*
X3776Y1365D01*
X2399Y1364D02*
X2477Y1364D01*
X2499Y1364D02*
X2577Y1364D01*
X2599Y1364D02*
X2677Y1364D01*
X2699Y1364D02*
X2777Y1364D01*
X2799Y1364D02*
X2877Y1364D01*
X2899Y1364D02*
X2977Y1364D01*
X2999Y1364D02*
X3077Y1364D01*
X3099Y1364D02*
X3177Y1364D01*
X3199Y1364D02*
X3277Y1364D01*
X3299Y1364D02*
X3377Y1364D01*
X3399Y1364D02*
X3477Y1364D01*
X3499Y1364D02*
X3577Y1364D01*
X3599Y1364D02*
X3677Y1364D01*
X3699Y1364D02*
X3777Y1364D01*
X2399Y1363D02*
X2477Y1363D01*
X2499Y1363D02*
X2577Y1363D01*
X2599Y1363D02*
X2677Y1363D01*
X2699Y1363D02*
X2777Y1363D01*
X2799Y1363D02*
X2877Y1363D01*
X2899Y1363D02*
X2977Y1363D01*
X2999Y1363D02*
X3077Y1363D01*
X3099Y1363D02*
X3177Y1363D01*
X3199Y1363D02*
X3277Y1363D01*
X3299Y1363D02*
X3377Y1363D01*
X3399Y1363D02*
X3477Y1363D01*
X3499Y1363D02*
X3577Y1363D01*
X3599Y1363D02*
X3677Y1363D01*
X3699Y1363D02*
X3777Y1363D01*
X2399Y1362D02*
X2477Y1362D01*
X2499Y1362D02*
X2577Y1362D01*
X2599Y1362D02*
X2677Y1362D01*
X2699Y1362D02*
X2777Y1362D01*
X2799Y1362D02*
X2877Y1362D01*
X2899Y1362D02*
X2977Y1362D01*
X2999Y1362D02*
X3077Y1362D01*
X3099Y1362D02*
X3177Y1362D01*
X3199Y1362D02*
X3277Y1362D01*
X3299Y1362D02*
X3377Y1362D01*
X3399Y1362D02*
X3477Y1362D01*
X3499Y1362D02*
X3577Y1362D01*
X3599Y1362D02*
X3677Y1362D01*
X3699Y1362D02*
X3777Y1362D01*
X2399Y1361D02*
X2477Y1361D01*
X2499Y1361D02*
X2577Y1361D01*
X2599Y1361D02*
X2677Y1361D01*
X2699Y1361D02*
X2777Y1361D01*
X2799Y1361D02*
X2877Y1361D01*
X2899Y1361D02*
X2977Y1361D01*
X2999Y1361D02*
X3077Y1361D01*
X3099Y1361D02*
X3177Y1361D01*
X3199Y1361D02*
X3277Y1361D01*
X3299Y1361D02*
X3377Y1361D01*
X3399Y1361D02*
X3477Y1361D01*
X3499Y1361D02*
X3577Y1361D01*
X3599Y1361D02*
X3677Y1361D01*
X3699Y1361D02*
X3777Y1361D01*
X2399Y1360D02*
X2477Y1360D01*
X2499Y1360D02*
X2577Y1360D01*
X2599Y1360D02*
X2677Y1360D01*
X2699Y1360D02*
X2777Y1360D01*
X2799Y1360D02*
X2877Y1360D01*
X2899Y1360D02*
X2977Y1360D01*
X2999Y1360D02*
X3077Y1360D01*
X3099Y1360D02*
X3177Y1360D01*
X3199Y1360D02*
X3277Y1360D01*
X3299Y1360D02*
X3377Y1360D01*
X3399Y1360D02*
X3477Y1360D01*
X3499Y1360D02*
X3577Y1360D01*
X3599Y1360D02*
X3677Y1360D01*
X3699Y1360D02*
X3777Y1360D01*
X2399Y1359D02*
X2477Y1359D01*
X2499Y1359D02*
X2577Y1359D01*
X2599Y1359D02*
X2677Y1359D01*
X2699Y1359D02*
X2777Y1359D01*
X2799Y1359D02*
X2877Y1359D01*
X2899Y1359D02*
X2977Y1359D01*
X2999Y1359D02*
X3077Y1359D01*
X3099Y1359D02*
X3177Y1359D01*
X3199Y1359D02*
X3277Y1359D01*
X3299Y1359D02*
X3377Y1359D01*
X3399Y1359D02*
X3477Y1359D01*
X3499Y1359D02*
X3577Y1359D01*
X3599Y1359D02*
X3677Y1359D01*
X3699Y1359D02*
X3777Y1359D01*
X2399Y1358D02*
X2477Y1358D01*
X2499Y1358D02*
X2577Y1358D01*
X2599Y1358D02*
X2677Y1358D01*
X2699Y1358D02*
X2777Y1358D01*
X2799Y1358D02*
X2877Y1358D01*
X2899Y1358D02*
X2977Y1358D01*
X2999Y1358D02*
X3077Y1358D01*
X3099Y1358D02*
X3177Y1358D01*
X3198Y1358D02*
X3277Y1358D01*
X3298Y1358D02*
X3377Y1358D01*
X3398Y1358D02*
X3477Y1358D01*
X3498Y1358D02*
X3577Y1358D01*
X3598Y1358D02*
X3677Y1358D01*
X3698Y1358D02*
X3777Y1358D01*
X2399Y1357D02*
X2477Y1357D01*
X2499Y1357D02*
X2577Y1357D01*
X2599Y1357D02*
X2677Y1357D01*
X2699Y1357D02*
X2777Y1357D01*
X2798Y1357D02*
X2877Y1357D01*
X2898Y1357D02*
X2977Y1357D01*
X2998Y1357D02*
X3077Y1357D01*
X3098Y1357D02*
X3177Y1357D01*
X3198Y1357D02*
X3277Y1357D01*
X3298Y1357D02*
X3377Y1357D01*
X3398Y1357D02*
X3477Y1357D01*
X3498Y1357D02*
X3577Y1357D01*
X3598Y1357D02*
X3677Y1357D01*
X3698Y1357D02*
X3777Y1357D01*
X2399Y1356D02*
X2477Y1356D01*
X2499Y1356D02*
X2577Y1356D01*
X2599Y1356D02*
X2677Y1356D01*
X2699Y1356D02*
X2777Y1356D01*
X2799Y1356D02*
X2877Y1356D01*
X2899Y1356D02*
X2977Y1356D01*
X2998Y1356D02*
X3077Y1356D01*
X3098Y1356D02*
X3177Y1356D01*
X3198Y1356D02*
X3277Y1356D01*
X3298Y1356D02*
X3377Y1356D01*
X3398Y1356D02*
X3477Y1356D01*
X3498Y1356D02*
X3577Y1356D01*
X3598Y1356D02*
X3677Y1356D01*
X3698Y1356D02*
X3777Y1356D01*
X2399Y1355D02*
X2477Y1355D01*
X2499Y1355D02*
X2577Y1355D01*
X2599Y1355D02*
X2677Y1355D01*
X2699Y1355D02*
X2777Y1355D01*
X2799Y1355D02*
X2877Y1355D01*
X2899Y1355D02*
X2977Y1355D01*
X2999Y1355D02*
X3077Y1355D01*
X3099Y1355D02*
X3177Y1355D01*
X3199Y1355D02*
X3277Y1355D01*
X3299Y1355D02*
X3377Y1355D01*
X3398Y1355D02*
X3477Y1355D01*
X3498Y1355D02*
X3577Y1355D01*
X3598Y1355D02*
X3677Y1355D01*
X3698Y1355D02*
X3777Y1355D01*
X2399Y1354D02*
X2477Y1354D01*
X2499Y1354D02*
X2577Y1354D01*
X2599Y1354D02*
X2677Y1354D01*
X2699Y1354D02*
X2777Y1354D01*
X2799Y1354D02*
X2877Y1354D01*
X2899Y1354D02*
X2977Y1354D01*
X2999Y1354D02*
X3077Y1354D01*
X3099Y1354D02*
X3177Y1354D01*
X3199Y1354D02*
X3277Y1354D01*
X3299Y1354D02*
X3377Y1354D01*
X3399Y1354D02*
X3477Y1354D01*
X3499Y1354D02*
X3577Y1354D01*
X3599Y1354D02*
X3677Y1354D01*
X3699Y1354D02*
X3777Y1354D01*
X2399Y1353D02*
X2477Y1353D01*
X2499Y1353D02*
X2577Y1353D01*
X2599Y1353D02*
X2677Y1353D01*
X2699Y1353D02*
X2777Y1353D01*
X2799Y1353D02*
X2877Y1353D01*
X2899Y1353D02*
X2977Y1353D01*
X2999Y1353D02*
X3077Y1353D01*
X3099Y1353D02*
X3177Y1353D01*
X3199Y1353D02*
X3277Y1353D01*
X3299Y1353D02*
X3377Y1353D01*
X3399Y1353D02*
X3477Y1353D01*
X3499Y1353D02*
X3577Y1353D01*
X3599Y1353D02*
X3677Y1353D01*
X3699Y1353D02*
X3777Y1353D01*
X2399Y1352D02*
X2477Y1352D01*
X2499Y1352D02*
X2577Y1352D01*
X2599Y1352D02*
X2677Y1352D01*
X2699Y1352D02*
X2777Y1352D01*
X2799Y1352D02*
X2877Y1352D01*
X2899Y1352D02*
X2977Y1352D01*
X2999Y1352D02*
X3077Y1352D01*
X3099Y1352D02*
X3177Y1352D01*
X3199Y1352D02*
X3277Y1352D01*
X3299Y1352D02*
X3377Y1352D01*
X3399Y1352D02*
X3477Y1352D01*
X3499Y1352D02*
X3577Y1352D01*
X3599Y1352D02*
X3677Y1352D01*
X3699Y1352D02*
X3777Y1352D01*
X2399Y1351D02*
X2477Y1351D01*
X2499Y1351D02*
X2577Y1351D01*
X2599Y1351D02*
X2677Y1351D01*
X2699Y1351D02*
X2777Y1351D01*
X2799Y1351D02*
X2877Y1351D01*
X2899Y1351D02*
X2977Y1351D01*
X2999Y1351D02*
X3077Y1351D01*
X3099Y1351D02*
X3177Y1351D01*
X3199Y1351D02*
X3277Y1351D01*
X3299Y1351D02*
X3377Y1351D01*
X3399Y1351D02*
X3477Y1351D01*
X3499Y1351D02*
X3577Y1351D01*
X3599Y1351D02*
X3677Y1351D01*
X3699Y1351D02*
X3777Y1351D01*
X2399Y1350D02*
X2477Y1350D01*
X2499Y1350D02*
X2577Y1350D01*
X2599Y1350D02*
X2677Y1350D01*
X2699Y1350D02*
X2777Y1350D01*
X2799Y1350D02*
X2877Y1350D01*
X2899Y1350D02*
X2977Y1350D01*
X2999Y1350D02*
X3077Y1350D01*
X3099Y1350D02*
X3177Y1350D01*
X3199Y1350D02*
X3277Y1350D01*
X3299Y1350D02*
X3377Y1350D01*
X3399Y1350D02*
X3477Y1350D01*
X3499Y1350D02*
X3577Y1350D01*
X3599Y1350D02*
X3677Y1350D01*
X3699Y1350D02*
X3777Y1350D01*
X2399Y1349D02*
X2477Y1349D01*
X2499Y1349D02*
X2577Y1349D01*
X2599Y1349D02*
X2677Y1349D01*
X2699Y1349D02*
X2777Y1349D01*
X2799Y1349D02*
X2877Y1349D01*
X2899Y1349D02*
X2977Y1349D01*
X2999Y1349D02*
X3077Y1349D01*
X3099Y1349D02*
X3177Y1349D01*
X3199Y1349D02*
X3277Y1349D01*
X3299Y1349D02*
X3377Y1349D01*
X3399Y1349D02*
X3477Y1349D01*
X3499Y1349D02*
X3577Y1349D01*
X3599Y1349D02*
X3677Y1349D01*
X3699Y1349D02*
X3777Y1349D01*
X2400Y1348D02*
X2476Y1348D01*
X2500Y1348D02*
X2576Y1348D01*
X2600Y1348D02*
X2676Y1348D01*
X2700Y1348D02*
X2776Y1348D01*
X2800Y1348D02*
X2876Y1348D01*
X2900Y1348D02*
X2976Y1348D01*
X2999Y1348D02*
X3076Y1348D01*
X3099Y1348D02*
X3176Y1348D01*
X3199Y1348D02*
X3276Y1348D01*
X3299Y1348D02*
X3376Y1348D01*
X3399Y1348D02*
X3476Y1348D01*
X3499Y1348D02*
X3576Y1348D01*
X3599Y1348D02*
X3676Y1348D01*
X3699Y1348D02*
X3776Y1348D01*
X2400Y1347D02*
X2476Y1347D01*
X2500Y1347D02*
X2576Y1347D01*
X2600Y1347D02*
X2676Y1347D01*
X2700Y1347D02*
X2776Y1347D01*
X2800Y1347D02*
X2876Y1347D01*
X2900Y1347D02*
X2976Y1347D01*
X3000Y1347D02*
X3076Y1347D01*
X3100Y1347D02*
X3176Y1347D01*
X3200Y1347D02*
X3276Y1347D01*
X3300Y1347D02*
X3376Y1347D01*
X3400Y1347D02*
X3476Y1347D01*
X3500Y1347D02*
X3576Y1347D01*
X3600Y1347D02*
X3676Y1347D01*
X3700Y1347D02*
X3776Y1347D01*
X2400Y1346D02*
X2476Y1346D01*
X2500Y1346D02*
X2576Y1346D01*
X2600Y1346D02*
X2676Y1346D01*
X2700Y1346D02*
X2776Y1346D01*
X2800Y1346D02*
X2876Y1346D01*
X2900Y1346D02*
X2976Y1346D01*
X3000Y1346D02*
X3076Y1346D01*
X3100Y1346D02*
X3176Y1346D01*
X3200Y1346D02*
X3276Y1346D01*
X3300Y1346D02*
X3376Y1346D01*
X3400Y1346D02*
X3476Y1346D01*
X3500Y1346D02*
X3576Y1346D01*
X3600Y1346D02*
X3676Y1346D01*
X3700Y1346D02*
X3776Y1346D01*
X2400Y1345D02*
X2476Y1345D01*
X2500Y1345D02*
X2576Y1345D01*
X2600Y1345D02*
X2676Y1345D01*
X2700Y1345D02*
X2776Y1345D01*
X2800Y1345D02*
X2876Y1345D01*
X2900Y1345D02*
X2976Y1345D01*
X3000Y1345D02*
X3076Y1345D01*
X3100Y1345D02*
X3176Y1345D01*
X3200Y1345D02*
X3276Y1345D01*
X3300Y1345D02*
X3376Y1345D01*
X3400Y1345D02*
X3476Y1345D01*
X3500Y1345D02*
X3576Y1345D01*
X3600Y1345D02*
X3676Y1345D01*
X3700Y1345D02*
X3776Y1345D01*
X2401Y1344D02*
X2475Y1344D01*
X2501Y1344D02*
X2575Y1344D01*
X2601Y1344D02*
X2675Y1344D01*
X2701Y1344D02*
X2775Y1344D01*
X2801Y1344D02*
X2875Y1344D01*
X2901Y1344D02*
X2975Y1344D01*
X3001Y1344D02*
X3075Y1344D01*
X3101Y1344D02*
X3175Y1344D01*
X3201Y1344D02*
X3275Y1344D01*
X3301Y1344D02*
X3375Y1344D01*
X3401Y1344D02*
X3475Y1344D01*
X3500Y1344D02*
X3575Y1344D01*
X3600Y1344D02*
X3675Y1344D01*
X3700Y1344D02*
X3775Y1344D01*
X2401Y1343D02*
X2475Y1343D01*
X2501Y1343D02*
X2575Y1343D01*
X2601Y1343D02*
X2675Y1343D01*
X2701Y1343D02*
X2775Y1343D01*
X2801Y1343D02*
X2875Y1343D01*
X2901Y1343D02*
X2975Y1343D01*
X3001Y1343D02*
X3075Y1343D01*
X3101Y1343D02*
X3175Y1343D01*
X3201Y1343D02*
X3275Y1343D01*
X3301Y1343D02*
X3375Y1343D01*
X3401Y1343D02*
X3475Y1343D01*
X3501Y1343D02*
X3575Y1343D01*
X3601Y1343D02*
X3675Y1343D01*
X3701Y1343D02*
X3775Y1343D01*
X2401Y1342D02*
X2475Y1342D01*
X2501Y1342D02*
X2575Y1342D01*
X2601Y1342D02*
X2675Y1342D01*
X2701Y1342D02*
X2775Y1342D01*
X2801Y1342D02*
X2875Y1342D01*
X2901Y1342D02*
X2975Y1342D01*
X3001Y1342D02*
X3075Y1342D01*
X3101Y1342D02*
X3175Y1342D01*
X3201Y1342D02*
X3275Y1342D01*
X3301Y1342D02*
X3375Y1342D01*
X3401Y1342D02*
X3475Y1342D01*
X3501Y1342D02*
X3575Y1342D01*
X3601Y1342D02*
X3675Y1342D01*
X3701Y1342D02*
X3775Y1342D01*
X2402Y1341D02*
X2474Y1341D01*
X2502Y1341D02*
X2574Y1341D01*
X2602Y1341D02*
X2674Y1341D01*
X2702Y1341D02*
X2774Y1341D01*
X2802Y1341D02*
X2874Y1341D01*
X2902Y1341D02*
X2974Y1341D01*
X3002Y1341D02*
X3074Y1341D01*
X3102Y1341D02*
X3174Y1341D01*
X3202Y1341D02*
X3274Y1341D01*
X3302Y1341D02*
X3374Y1341D01*
X3402Y1341D02*
X3474Y1341D01*
X3502Y1341D02*
X3574Y1341D01*
X3602Y1341D02*
X3674Y1341D01*
X3702Y1341D02*
X3774Y1341D01*
X2402Y1340D02*
X2474Y1340D01*
X2502Y1340D02*
X2574Y1340D01*
X2602Y1340D02*
X2674Y1340D01*
X2702Y1340D02*
X2774Y1340D01*
X2802Y1340D02*
X2874Y1340D01*
X2902Y1340D02*
X2974Y1340D01*
X3002Y1340D02*
X3074Y1340D01*
X3102Y1340D02*
X3174Y1340D01*
X3202Y1340D02*
X3274Y1340D01*
X3302Y1340D02*
X3374Y1340D01*
X3402Y1340D02*
X3474Y1340D01*
X3502Y1340D02*
X3574Y1340D01*
X3602Y1340D02*
X3674Y1340D01*
X3702Y1340D02*
X3774Y1340D01*
X2403Y1339D02*
X2473Y1339D01*
X2503Y1339D02*
X2573Y1339D01*
X2603Y1339D02*
X2673Y1339D01*
X2703Y1339D02*
X2773Y1339D01*
X2803Y1339D02*
X2873Y1339D01*
X2903Y1339D02*
X2973Y1339D01*
X3003Y1339D02*
X3073Y1339D01*
X3103Y1339D02*
X3173Y1339D01*
X3203Y1339D02*
X3273Y1339D01*
X3303Y1339D02*
X3373Y1339D01*
X3403Y1339D02*
X3473Y1339D01*
X3503Y1339D02*
X3573Y1339D01*
X3603Y1339D02*
X3673Y1339D01*
X3703Y1339D02*
X3773Y1339D01*
X2403Y1338D02*
X2473Y1338D01*
X2503Y1338D02*
X2573Y1338D01*
X2603Y1338D02*
X2673Y1338D01*
X2703Y1338D02*
X2773Y1338D01*
X2803Y1338D02*
X2873Y1338D01*
X2903Y1338D02*
X2973Y1338D01*
X3003Y1338D02*
X3073Y1338D01*
X3103Y1338D02*
X3173Y1338D01*
X3203Y1338D02*
X3273Y1338D01*
X3303Y1338D02*
X3373Y1338D01*
X3403Y1338D02*
X3473Y1338D01*
X3503Y1338D02*
X3573Y1338D01*
X3603Y1338D02*
X3673Y1338D01*
X3703Y1338D02*
X3773Y1338D01*
X2404Y1337D02*
X2472Y1337D01*
X2504Y1337D02*
X2572Y1337D01*
X2604Y1337D02*
X2672Y1337D01*
X2704Y1337D02*
X2772Y1337D01*
X2804Y1337D02*
X2872Y1337D01*
X2904Y1337D02*
X2972Y1337D01*
X3004Y1337D02*
X3072Y1337D01*
X3104Y1337D02*
X3172Y1337D01*
X3204Y1337D02*
X3272Y1337D01*
X3304Y1337D02*
X3372Y1337D01*
X3404Y1337D02*
X3472Y1337D01*
X3504Y1337D02*
X3572Y1337D01*
X3604Y1337D02*
X3672Y1337D01*
X3704Y1337D02*
X3772Y1337D01*
X2404Y1336D02*
X2472Y1336D01*
X2504Y1336D02*
X2572Y1336D01*
X2604Y1336D02*
X2672Y1336D01*
X2704Y1336D02*
X2772Y1336D01*
X2804Y1336D02*
X2872Y1336D01*
X2904Y1336D02*
X2972Y1336D01*
X3004Y1336D02*
X3072Y1336D01*
X3104Y1336D02*
X3172Y1336D01*
X3204Y1336D02*
X3272Y1336D01*
X3304Y1336D02*
X3372Y1336D01*
X3404Y1336D02*
X3472Y1336D01*
X3504Y1336D02*
X3572Y1336D01*
X3604Y1336D02*
X3672Y1336D01*
X3704Y1336D02*
X3771Y1336D01*
X2405Y1335D02*
X2471Y1335D01*
X2505Y1335D02*
X2571Y1335D01*
X2605Y1335D02*
X2671Y1335D01*
X2705Y1335D02*
X2771Y1335D01*
X2805Y1335D02*
X2871Y1335D01*
X2905Y1335D02*
X2971Y1335D01*
X3005Y1335D02*
X3071Y1335D01*
X3105Y1335D02*
X3171Y1335D01*
X3205Y1335D02*
X3271Y1335D01*
X3305Y1335D02*
X3371Y1335D01*
X3405Y1335D02*
X3471Y1335D01*
X3505Y1335D02*
X3571Y1335D01*
X3605Y1335D02*
X3671Y1335D01*
X3705Y1335D02*
X3771Y1335D01*
X2406Y1334D02*
X2470Y1334D01*
X2506Y1334D02*
X2570Y1334D01*
X2606Y1334D02*
X2670Y1334D01*
X2706Y1334D02*
X2770Y1334D01*
X2806Y1334D02*
X2870Y1334D01*
X2906Y1334D02*
X2970Y1334D01*
X3006Y1334D02*
X3070Y1334D01*
X3106Y1334D02*
X3170Y1334D01*
X3206Y1334D02*
X3270Y1334D01*
X3306Y1334D02*
X3370Y1334D01*
X3406Y1334D02*
X3470Y1334D01*
X3506Y1334D02*
X3570Y1334D01*
X3606Y1334D02*
X3670Y1334D01*
X3705Y1334D02*
X3770Y1334D01*
X2406Y1333D02*
X2470Y1333D01*
X2506Y1333D02*
X2570Y1333D01*
X2606Y1333D02*
X2670Y1333D01*
X2706Y1333D02*
X2770Y1333D01*
X2806Y1333D02*
X2870Y1333D01*
X2906Y1333D02*
X2970Y1333D01*
X3006Y1333D02*
X3070Y1333D01*
X3106Y1333D02*
X3170Y1333D01*
X3206Y1333D02*
X3270Y1333D01*
X3306Y1333D02*
X3370Y1333D01*
X3406Y1333D02*
X3470Y1333D01*
X3506Y1333D02*
X3570Y1333D01*
X3606Y1333D02*
X3670Y1333D01*
X3706Y1333D02*
X3769Y1333D01*
X2407Y1332D02*
X2469Y1332D01*
X2507Y1332D02*
X2569Y1332D01*
X2607Y1332D02*
X2669Y1332D01*
X2707Y1332D02*
X2769Y1332D01*
X2807Y1332D02*
X2869Y1332D01*
X2907Y1332D02*
X2969Y1332D01*
X3007Y1332D02*
X3069Y1332D01*
X3107Y1332D02*
X3169Y1332D01*
X3207Y1332D02*
X3269Y1332D01*
X3307Y1332D02*
X3369Y1332D01*
X3407Y1332D02*
X3469Y1332D01*
X3507Y1332D02*
X3569Y1332D01*
X3607Y1332D02*
X3669Y1332D01*
X3707Y1332D02*
X3769Y1332D01*
X2408Y1331D02*
X2468Y1331D01*
X2508Y1331D02*
X2568Y1331D01*
X2608Y1331D02*
X2668Y1331D01*
X2708Y1331D02*
X2768Y1331D01*
X2808Y1331D02*
X2868Y1331D01*
X2908Y1331D02*
X2968Y1331D01*
X3008Y1331D02*
X3068Y1331D01*
X3108Y1331D02*
X3168Y1331D01*
X3208Y1331D02*
X3268Y1331D01*
X3308Y1331D02*
X3368Y1331D01*
X3408Y1331D02*
X3468Y1331D01*
X3508Y1331D02*
X3568Y1331D01*
X3608Y1331D02*
X3668Y1331D01*
X3708Y1331D02*
X3768Y1331D01*
X2409Y1330D02*
X2467Y1330D01*
X2509Y1330D02*
X2567Y1330D01*
X2609Y1330D02*
X2667Y1330D01*
X2709Y1330D02*
X2767Y1330D01*
X2809Y1330D02*
X2867Y1330D01*
X2909Y1330D02*
X2967Y1330D01*
X3009Y1330D02*
X3067Y1330D01*
X3109Y1330D02*
X3167Y1330D01*
X3209Y1330D02*
X3267Y1330D01*
X3309Y1330D02*
X3367Y1330D01*
X3409Y1330D02*
X3467Y1330D01*
X3509Y1330D02*
X3567Y1330D01*
X3609Y1330D02*
X3667Y1330D01*
X3709Y1330D02*
X3767Y1330D01*
X2410Y1329D02*
X2466Y1329D01*
X2510Y1329D02*
X2566Y1329D01*
X2610Y1329D02*
X2666Y1329D01*
X2710Y1329D02*
X2766Y1329D01*
X2810Y1329D02*
X2866Y1329D01*
X2910Y1329D02*
X2966Y1329D01*
X3010Y1329D02*
X3066Y1329D01*
X3110Y1329D02*
X3166Y1329D01*
X3210Y1329D02*
X3266Y1329D01*
X3310Y1329D02*
X3366Y1329D01*
X3410Y1329D02*
X3466Y1329D01*
X3510Y1329D02*
X3566Y1329D01*
X3610Y1329D02*
X3666Y1329D01*
X3710Y1329D02*
X3766Y1329D01*
X2411Y1328D02*
X2465Y1328D01*
X2511Y1328D02*
X2565Y1328D01*
X2611Y1328D02*
X2665Y1328D01*
X2711Y1328D02*
X2765Y1328D01*
X2811Y1328D02*
X2865Y1328D01*
X2911Y1328D02*
X2965Y1328D01*
X3011Y1328D02*
X3065Y1328D01*
X3111Y1328D02*
X3165Y1328D01*
X3211Y1328D02*
X3265Y1328D01*
X3311Y1328D02*
X3365Y1328D01*
X3411Y1328D02*
X3465Y1328D01*
X3511Y1328D02*
X3565Y1328D01*
X3610Y1328D02*
X3665Y1328D01*
X3710Y1328D02*
X3765Y1328D01*
X2412Y1327D02*
X2464Y1327D01*
X2512Y1327D02*
X2564Y1327D01*
X2612Y1327D02*
X2664Y1327D01*
X2712Y1327D02*
X2764Y1327D01*
X2812Y1327D02*
X2864Y1327D01*
X2912Y1327D02*
X2964Y1327D01*
X3012Y1327D02*
X3064Y1327D01*
X3112Y1327D02*
X3164Y1327D01*
X3212Y1327D02*
X3264Y1327D01*
X3312Y1327D02*
X3364Y1327D01*
X3412Y1327D02*
X3464Y1327D01*
X3512Y1327D02*
X3564Y1327D01*
X3612Y1327D02*
X3664Y1327D01*
X3712Y1327D02*
X3764Y1327D01*
X2413Y1326D02*
X2463Y1326D01*
X2513Y1326D02*
X2563Y1326D01*
X2613Y1326D02*
X2663Y1326D01*
X2713Y1326D02*
X2763Y1326D01*
X2813Y1326D02*
X2863Y1326D01*
X2913Y1326D02*
X2963Y1326D01*
X3013Y1326D02*
X3063Y1326D01*
X3113Y1326D02*
X3163Y1326D01*
X3213Y1326D02*
X3263Y1326D01*
X3313Y1326D02*
X3363Y1326D01*
X3413Y1326D02*
X3463Y1326D01*
X3513Y1326D02*
X3563Y1326D01*
X3613Y1326D02*
X3663Y1326D01*
X3713Y1326D02*
X3763Y1326D01*
X2414Y1325D02*
X2462Y1325D01*
X2514Y1325D02*
X2562Y1325D01*
X2614Y1325D02*
X2662Y1325D01*
X2714Y1325D02*
X2762Y1325D01*
X2814Y1325D02*
X2862Y1325D01*
X2914Y1325D02*
X2962Y1325D01*
X3014Y1325D02*
X3062Y1325D01*
X3114Y1325D02*
X3162Y1325D01*
X3214Y1325D02*
X3262Y1325D01*
X3314Y1325D02*
X3362Y1325D01*
X3414Y1325D02*
X3462Y1325D01*
X3514Y1325D02*
X3562Y1325D01*
X3614Y1325D02*
X3662Y1325D01*
X3714Y1325D02*
X3762Y1325D01*
X2416Y1324D02*
X2460Y1324D01*
X2516Y1324D02*
X2560Y1324D01*
X2616Y1324D02*
X2660Y1324D01*
X2716Y1324D02*
X2760Y1324D01*
X2816Y1324D02*
X2860Y1324D01*
X2916Y1324D02*
X2960Y1324D01*
X3015Y1324D02*
X3060Y1324D01*
X3115Y1324D02*
X3160Y1324D01*
X3215Y1324D02*
X3260Y1324D01*
X3315Y1324D02*
X3360Y1324D01*
X3415Y1324D02*
X3460Y1324D01*
X3515Y1324D02*
X3560Y1324D01*
X3615Y1324D02*
X3660Y1324D01*
X3715Y1324D02*
X3760Y1324D01*
X2417Y1323D02*
X2459Y1323D01*
X2517Y1323D02*
X2559Y1323D01*
X2617Y1323D02*
X2659Y1323D01*
X2717Y1323D02*
X2759Y1323D01*
X2817Y1323D02*
X2859Y1323D01*
X2917Y1323D02*
X2959Y1323D01*
X3017Y1323D02*
X3059Y1323D01*
X3117Y1323D02*
X3159Y1323D01*
X3217Y1323D02*
X3259Y1323D01*
X3317Y1323D02*
X3359Y1323D01*
X3417Y1323D02*
X3459Y1323D01*
X3517Y1323D02*
X3559Y1323D01*
X3617Y1323D02*
X3659Y1323D01*
X3717Y1323D02*
X3759Y1323D01*
X2419Y1322D02*
X2457Y1322D01*
X2519Y1322D02*
X2557Y1322D01*
X2619Y1322D02*
X2657Y1322D01*
X2719Y1322D02*
X2757Y1322D01*
X2819Y1322D02*
X2857Y1322D01*
X2919Y1322D02*
X2957Y1322D01*
X3019Y1322D02*
X3057Y1322D01*
X3119Y1322D02*
X3157Y1322D01*
X3219Y1322D02*
X3257Y1322D01*
X3319Y1322D02*
X3357Y1322D01*
X3419Y1322D02*
X3457Y1322D01*
X3519Y1322D02*
X3557Y1322D01*
X3619Y1322D02*
X3657Y1322D01*
X3719Y1322D02*
X3757Y1322D01*
X2420Y1321D02*
X2456Y1321D01*
X2520Y1321D02*
X2556Y1321D01*
X2620Y1321D02*
X2656Y1321D01*
X2720Y1321D02*
X2755Y1321D01*
X2820Y1321D02*
X2855Y1321D01*
X2920Y1321D02*
X2955Y1321D01*
X3020Y1321D02*
X3055Y1321D01*
X3120Y1321D02*
X3155Y1321D01*
X3220Y1321D02*
X3255Y1321D01*
X3320Y1321D02*
X3355Y1321D01*
X3420Y1321D02*
X3455Y1321D01*
X3520Y1321D02*
X3555Y1321D01*
X3620Y1321D02*
X3655Y1321D01*
X3720Y1321D02*
X3755Y1321D01*
X2423Y1320D02*
X2454Y1320D01*
X2523Y1320D02*
X2553Y1320D01*
X2623Y1320D02*
X2653Y1320D01*
X2722Y1320D02*
X2753Y1320D01*
X2822Y1320D02*
X2853Y1320D01*
X2922Y1320D02*
X2953Y1320D01*
X3022Y1320D02*
X3053Y1320D01*
X3122Y1320D02*
X3153Y1320D01*
X3222Y1320D02*
X3253Y1320D01*
X3322Y1320D02*
X3353Y1320D01*
X3422Y1320D02*
X3453Y1320D01*
X3522Y1320D02*
X3553Y1320D01*
X3622Y1320D02*
X3653Y1320D01*
X3722Y1320D02*
X3753Y1320D01*
X2425Y1319D02*
X2451Y1319D01*
X2525Y1319D02*
X2551Y1319D01*
X2625Y1319D02*
X2651Y1319D01*
X2725Y1319D02*
X2751Y1319D01*
X2825Y1319D02*
X2851Y1319D01*
X2925Y1319D02*
X2951Y1319D01*
X3025Y1319D02*
X3051Y1319D01*
X3125Y1319D02*
X3151Y1319D01*
X3225Y1319D02*
X3251Y1319D01*
X3325Y1319D02*
X3351Y1319D01*
X3425Y1319D02*
X3451Y1319D01*
X3525Y1319D02*
X3551Y1319D01*
X3625Y1319D02*
X3651Y1319D01*
X3725Y1319D02*
X3751Y1319D01*
X2429Y1318D02*
X2447Y1318D01*
X2529Y1318D02*
X2547Y1318D01*
X2629Y1318D02*
X2647Y1318D01*
X2729Y1318D02*
X2747Y1318D01*
X2829Y1318D02*
X2847Y1318D01*
X2929Y1318D02*
X2947Y1318D01*
X3029Y1318D02*
X3047Y1318D01*
X3129Y1318D02*
X3147Y1318D01*
X3228Y1318D02*
X3247Y1318D01*
X3328Y1318D02*
X3347Y1318D01*
X3428Y1318D02*
X3447Y1318D01*
X3528Y1318D02*
X3547Y1318D01*
X3628Y1318D02*
X3647Y1318D01*
X3728Y1318D02*
X3747Y1318D01*
X2434Y1317D02*
X2442Y1317D01*
X2534Y1317D02*
X2542Y1317D01*
X2634Y1317D02*
X2642Y1317D01*
X2734Y1317D02*
X2742Y1317D01*
X2834Y1317D02*
X2842Y1317D01*
X2934Y1317D02*
X2942Y1317D01*
X3034Y1317D02*
X3042Y1317D01*
X3134Y1317D02*
X3142Y1317D01*
X3234Y1317D02*
X3242Y1317D01*
X3334Y1317D02*
X3342Y1317D01*
X3434Y1317D02*
X3442Y1317D01*
X3534Y1317D02*
X3542Y1317D01*
X3634Y1317D02*
X3642Y1317D01*
X3734Y1317D02*
X3742Y1317D01*
X2432Y1096D02*
X2444Y1096D01*
X2532Y1096D02*
X2544Y1096D01*
X2632Y1096D02*
X2644Y1096D01*
X2732Y1096D02*
X2744Y1096D01*
X2832Y1096D02*
X2844Y1096D01*
X2932Y1096D02*
X2944Y1096D01*
X3032Y1096D02*
X3044Y1096D01*
X3132Y1096D02*
X3144Y1096D01*
X3232Y1096D02*
X3244Y1096D01*
X3332Y1096D02*
X3344Y1096D01*
X3432Y1096D02*
X3444Y1096D01*
X3532Y1096D02*
X3544Y1096D01*
X3632Y1096D02*
X3644Y1096D01*
X3732Y1096D02*
X3744Y1096D01*
X2427Y1095D02*
X2449Y1095D01*
X2527Y1095D02*
X2549Y1095D01*
X2627Y1095D02*
X2649Y1095D01*
X2727Y1095D02*
X2749Y1095D01*
X2827Y1095D02*
X2849Y1095D01*
X2927Y1095D02*
X2949Y1095D01*
X3027Y1095D02*
X3049Y1095D01*
X3127Y1095D02*
X3149Y1095D01*
X3227Y1095D02*
X3249Y1095D01*
X3327Y1095D02*
X3349Y1095D01*
X3427Y1095D02*
X3449Y1095D01*
X3527Y1095D02*
X3549Y1095D01*
X3627Y1095D02*
X3648Y1095D01*
X3727Y1095D02*
X3748Y1095D01*
X2424Y1094D02*
X2452Y1094D01*
X2524Y1094D02*
X2552Y1094D01*
X2624Y1094D02*
X2652Y1094D01*
X2724Y1094D02*
X2752Y1094D01*
X2824Y1094D02*
X2852Y1094D01*
X2924Y1094D02*
X2952Y1094D01*
X3024Y1094D02*
X3052Y1094D01*
X3124Y1094D02*
X3152Y1094D01*
X3224Y1094D02*
X3252Y1094D01*
X3324Y1094D02*
X3352Y1094D01*
X3424Y1094D02*
X3452Y1094D01*
X3524Y1094D02*
X3552Y1094D01*
X3624Y1094D02*
X3652Y1094D01*
X3724Y1094D02*
X3752Y1094D01*
X2422Y1093D02*
X2454Y1093D01*
X2522Y1093D02*
X2554Y1093D01*
X2622Y1093D02*
X2654Y1093D01*
X2722Y1093D02*
X2754Y1093D01*
X2822Y1093D02*
X2854Y1093D01*
X2922Y1093D02*
X2954Y1093D01*
X3022Y1093D02*
X3054Y1093D01*
X3122Y1093D02*
X3154Y1093D01*
X3222Y1093D02*
X3254Y1093D01*
X3322Y1093D02*
X3354Y1093D01*
X3422Y1093D02*
X3454Y1093D01*
X3522Y1093D02*
X3554Y1093D01*
X3622Y1093D02*
X3654Y1093D01*
X3722Y1093D02*
X3754Y1093D01*
X2420Y1092D02*
X2456Y1092D01*
X2520Y1092D02*
X2556Y1092D01*
X2620Y1092D02*
X2656Y1092D01*
X2720Y1092D02*
X2756Y1092D01*
X2820Y1092D02*
X2856Y1092D01*
X2920Y1092D02*
X2956Y1092D01*
X3020Y1092D02*
X3056Y1092D01*
X3120Y1092D02*
X3156Y1092D01*
X3220Y1092D02*
X3256Y1092D01*
X3320Y1092D02*
X3356Y1092D01*
X3420Y1092D02*
X3456Y1092D01*
X3520Y1092D02*
X3556Y1092D01*
X3620Y1092D02*
X3656Y1092D01*
X3720Y1092D02*
X3756Y1092D01*
X2418Y1091D02*
X2458Y1091D01*
X2518Y1091D02*
X2558Y1091D01*
X2618Y1091D02*
X2658Y1091D01*
X2718Y1091D02*
X2758Y1091D01*
X2818Y1091D02*
X2858Y1091D01*
X2918Y1091D02*
X2958Y1091D01*
X3018Y1091D02*
X3058Y1091D01*
X3118Y1091D02*
X3158Y1091D01*
X3218Y1091D02*
X3258Y1091D01*
X3318Y1091D02*
X3358Y1091D01*
X3418Y1091D02*
X3458Y1091D01*
X3518Y1091D02*
X3558Y1091D01*
X3618Y1091D02*
X3658Y1091D01*
X3718Y1091D02*
X3758Y1091D01*
X2417Y1090D02*
X2459Y1090D01*
X2517Y1090D02*
X2559Y1090D01*
X2617Y1090D02*
X2659Y1090D01*
X2717Y1090D02*
X2759Y1090D01*
X2817Y1090D02*
X2859Y1090D01*
X2917Y1090D02*
X2959Y1090D01*
X3017Y1090D02*
X3059Y1090D01*
X3116Y1090D02*
X3159Y1090D01*
X3216Y1090D02*
X3259Y1090D01*
X3316Y1090D02*
X3359Y1090D01*
X3416Y1090D02*
X3459Y1090D01*
X3516Y1090D02*
X3559Y1090D01*
X3616Y1090D02*
X3659Y1090D01*
X3716Y1090D02*
X3759Y1090D01*
X2415Y1089D02*
X2461Y1089D01*
X2515Y1089D02*
X2561Y1089D01*
X2615Y1089D02*
X2661Y1089D01*
X2715Y1089D02*
X2761Y1089D01*
X2815Y1089D02*
X2861Y1089D01*
X2915Y1089D02*
X2961Y1089D01*
X3015Y1089D02*
X3061Y1089D01*
X3115Y1089D02*
X3161Y1089D01*
X3215Y1089D02*
X3261Y1089D01*
X3315Y1089D02*
X3361Y1089D01*
X3415Y1089D02*
X3461Y1089D01*
X3515Y1089D02*
X3561Y1089D01*
X3615Y1089D02*
X3661Y1089D01*
X3715Y1089D02*
X3761Y1089D01*
X2414Y1088D02*
X2462Y1088D01*
X2514Y1088D02*
X2562Y1088D01*
X2614Y1088D02*
X2662Y1088D01*
X2714Y1088D02*
X2762Y1088D01*
X2814Y1088D02*
X2862Y1088D01*
X2914Y1088D02*
X2962Y1088D01*
X3014Y1088D02*
X3062Y1088D01*
X3114Y1088D02*
X3162Y1088D01*
X3214Y1088D02*
X3262Y1088D01*
X3314Y1088D02*
X3362Y1088D01*
X3414Y1088D02*
X3462Y1088D01*
X3514Y1088D02*
X3562Y1088D01*
X3614Y1088D02*
X3662Y1088D01*
X3714Y1088D02*
X3762Y1088D01*
X2413Y1087D02*
X2463Y1087D01*
X2513Y1087D02*
X2563Y1087D01*
X2613Y1087D02*
X2663Y1087D01*
X2713Y1087D02*
X2763Y1087D01*
X2812Y1087D02*
X2863Y1087D01*
X2912Y1087D02*
X2963Y1087D01*
X3012Y1087D02*
X3063Y1087D01*
X3112Y1087D02*
X3163Y1087D01*
X3212Y1087D02*
X3263Y1087D01*
X3312Y1087D02*
X3363Y1087D01*
X3412Y1087D02*
X3463Y1087D01*
X3512Y1087D02*
X3563Y1087D01*
X3612Y1087D02*
X3663Y1087D01*
X3712Y1087D02*
X3763Y1087D01*
X2411Y1086D02*
X2465Y1086D01*
X2511Y1086D02*
X2565Y1086D01*
X2611Y1086D02*
X2665Y1086D01*
X2711Y1086D02*
X2765Y1086D01*
X2811Y1086D02*
X2865Y1086D01*
X2911Y1086D02*
X2965Y1086D01*
X3011Y1086D02*
X3065Y1086D01*
X3111Y1086D02*
X3165Y1086D01*
X3211Y1086D02*
X3265Y1086D01*
X3311Y1086D02*
X3364Y1086D01*
X3411Y1086D02*
X3464Y1086D01*
X3511Y1086D02*
X3564Y1086D01*
X3611Y1086D02*
X3664Y1086D01*
X3711Y1086D02*
X3764Y1086D01*
X2410Y1085D02*
X2466Y1085D01*
X2510Y1085D02*
X2566Y1085D01*
X2610Y1085D02*
X2666Y1085D01*
X2710Y1085D02*
X2766Y1085D01*
X2810Y1085D02*
X2866Y1085D01*
X2910Y1085D02*
X2966Y1085D01*
X3010Y1085D02*
X3066Y1085D01*
X3110Y1085D02*
X3166Y1085D01*
X3210Y1085D02*
X3266Y1085D01*
X3310Y1085D02*
X3366Y1085D01*
X3410Y1085D02*
X3466Y1085D01*
X3510Y1085D02*
X3566Y1085D01*
X3610Y1085D02*
X3666Y1085D01*
X3710Y1085D02*
X3766Y1085D01*
X2409Y1084D02*
X2467Y1084D01*
X2509Y1084D02*
X2567Y1084D01*
X2609Y1084D02*
X2667Y1084D01*
X2709Y1084D02*
X2767Y1084D01*
X2809Y1084D02*
X2867Y1084D01*
X2909Y1084D02*
X2967Y1084D01*
X3009Y1084D02*
X3067Y1084D01*
X3109Y1084D02*
X3167Y1084D01*
X3209Y1084D02*
X3267Y1084D01*
X3309Y1084D02*
X3367Y1084D01*
X3409Y1084D02*
X3467Y1084D01*
X3509Y1084D02*
X3567Y1084D01*
X3609Y1084D02*
X3666Y1084D01*
X3709Y1084D02*
X3766Y1084D01*
X2409Y1083D02*
X2468Y1083D01*
X2508Y1083D02*
X2568Y1083D01*
X2608Y1083D02*
X2668Y1083D01*
X2708Y1083D02*
X2767Y1083D01*
X2808Y1083D02*
X2867Y1083D01*
X2908Y1083D02*
X2967Y1083D01*
X3008Y1083D02*
X3067Y1083D01*
X3108Y1083D02*
X3167Y1083D01*
X3208Y1083D02*
X3267Y1083D01*
X3308Y1083D02*
X3367Y1083D01*
X3408Y1083D02*
X3467Y1083D01*
X3508Y1083D02*
X3567Y1083D01*
X3608Y1083D02*
X3667Y1083D01*
X3708Y1083D02*
X3767Y1083D01*
X2408Y1082D02*
X2468Y1082D01*
X2508Y1082D02*
X2568Y1082D01*
X2608Y1082D02*
X2668Y1082D01*
X2708Y1082D02*
X2768Y1082D01*
X2808Y1082D02*
X2868Y1082D01*
X2908Y1082D02*
X2968Y1082D01*
X3008Y1082D02*
X3068Y1082D01*
X3108Y1082D02*
X3168Y1082D01*
X3208Y1082D02*
X3268Y1082D01*
X3308Y1082D02*
X3368Y1082D01*
X3408Y1082D02*
X3468Y1082D01*
X3508Y1082D02*
X3568Y1082D01*
X3608Y1082D02*
X3668Y1082D01*
X3707Y1082D02*
X3768Y1082D01*
X2407Y1081D02*
X2469Y1081D01*
X2507Y1081D02*
X2569Y1081D01*
X2607Y1081D02*
X2669Y1081D01*
X2707Y1081D02*
X2769Y1081D01*
X2807Y1081D02*
X2869Y1081D01*
X2907Y1081D02*
X2969Y1081D01*
X3007Y1081D02*
X3069Y1081D01*
X3107Y1081D02*
X3169Y1081D01*
X3207Y1081D02*
X3269Y1081D01*
X3307Y1081D02*
X3369Y1081D01*
X3407Y1081D02*
X3469Y1081D01*
X3507Y1081D02*
X3569Y1081D01*
X3607Y1081D02*
X3669Y1081D01*
X3707Y1081D02*
X3769Y1081D01*
X2406Y1080D02*
X2470Y1080D01*
X2506Y1080D02*
X2570Y1080D01*
X2606Y1080D02*
X2670Y1080D01*
X2706Y1080D02*
X2770Y1080D01*
X2806Y1080D02*
X2870Y1080D01*
X2906Y1080D02*
X2970Y1080D01*
X3006Y1080D02*
X3070Y1080D01*
X3106Y1080D02*
X3170Y1080D01*
X3206Y1080D02*
X3270Y1080D01*
X3306Y1080D02*
X3370Y1080D01*
X3406Y1080D02*
X3470Y1080D01*
X3506Y1080D02*
X3570Y1080D01*
X3606Y1080D02*
X3670Y1080D01*
X3706Y1080D02*
X3770Y1080D01*
X2405Y1079D02*
X2471Y1079D01*
X2505Y1079D02*
X2571Y1079D01*
X2605Y1079D02*
X2671Y1079D01*
X2705Y1079D02*
X2771Y1079D01*
X2805Y1079D02*
X2871Y1079D01*
X2905Y1079D02*
X2971Y1079D01*
X3005Y1079D02*
X3071Y1079D01*
X3105Y1079D02*
X3171Y1079D01*
X3205Y1079D02*
X3271Y1079D01*
X3305Y1079D02*
X3370Y1079D01*
X3405Y1079D02*
X3470Y1079D01*
X3505Y1079D02*
X3570Y1079D01*
X3605Y1079D02*
X3670Y1079D01*
X3705Y1079D02*
X3770Y1079D01*
X2405Y1078D02*
X2471Y1078D01*
X2505Y1078D02*
X2571Y1078D01*
X2605Y1078D02*
X2671Y1078D01*
X2705Y1078D02*
X2771Y1078D01*
X2805Y1078D02*
X2871Y1078D01*
X2905Y1078D02*
X2971Y1078D01*
X3005Y1078D02*
X3071Y1078D01*
X3105Y1078D02*
X3171Y1078D01*
X3205Y1078D02*
X3271Y1078D01*
X3305Y1078D02*
X3371Y1078D01*
X3405Y1078D02*
X3471Y1078D01*
X3505Y1078D02*
X3571Y1078D01*
X3605Y1078D02*
X3671Y1078D01*
X3705Y1078D02*
X3771Y1078D01*
X2404Y1077D02*
X2472Y1077D01*
X2504Y1077D02*
X2572Y1077D01*
X2604Y1077D02*
X2672Y1077D01*
X2704Y1077D02*
X2772Y1077D01*
X2804Y1077D02*
X2872Y1077D01*
X2904Y1077D02*
X2972Y1077D01*
X3004Y1077D02*
X3072Y1077D01*
X3104Y1077D02*
X3172Y1077D01*
X3204Y1077D02*
X3272Y1077D01*
X3304Y1077D02*
X3372Y1077D01*
X3404Y1077D02*
X3472Y1077D01*
X3504Y1077D02*
X3572Y1077D01*
X3604Y1077D02*
X3672Y1077D01*
X3704Y1077D02*
X3772Y1077D01*
X2404Y1076D02*
X2472Y1076D01*
X2504Y1076D02*
X2572Y1076D01*
X2604Y1076D02*
X2672Y1076D01*
X2704Y1076D02*
X2772Y1076D01*
X2804Y1076D02*
X2872Y1076D01*
X2904Y1076D02*
X2972Y1076D01*
X3003Y1076D02*
X3072Y1076D01*
X3103Y1076D02*
X3172Y1076D01*
X3203Y1076D02*
X3272Y1076D01*
X3303Y1076D02*
X3372Y1076D01*
X3403Y1076D02*
X3472Y1076D01*
X3503Y1076D02*
X3572Y1076D01*
X3603Y1076D02*
X3672Y1076D01*
X3703Y1076D02*
X3772Y1076D01*
X2403Y1075D02*
X2473Y1075D01*
X2503Y1075D02*
X2573Y1075D01*
X2603Y1075D02*
X2673Y1075D01*
X2703Y1075D02*
X2773Y1075D01*
X2803Y1075D02*
X2873Y1075D01*
X2903Y1075D02*
X2973Y1075D01*
X3003Y1075D02*
X3073Y1075D01*
X3103Y1075D02*
X3173Y1075D01*
X3203Y1075D02*
X3273Y1075D01*
X3303Y1075D02*
X3373Y1075D01*
X3403Y1075D02*
X3473Y1075D01*
X3503Y1075D02*
X3573Y1075D01*
X3603Y1075D02*
X3673Y1075D01*
X3703Y1075D02*
X3773Y1075D01*
X2403Y1074D02*
X2473Y1074D01*
X2503Y1074D02*
X2573Y1074D01*
X2603Y1074D02*
X2673Y1074D01*
X2703Y1074D02*
X2773Y1074D01*
X2802Y1074D02*
X2873Y1074D01*
X2902Y1074D02*
X2973Y1074D01*
X3002Y1074D02*
X3073Y1074D01*
X3102Y1074D02*
X3173Y1074D01*
X3202Y1074D02*
X3273Y1074D01*
X3302Y1074D02*
X3373Y1074D01*
X3402Y1074D02*
X3473Y1074D01*
X3502Y1074D02*
X3573Y1074D01*
X3602Y1074D02*
X3673Y1074D01*
X3702Y1074D02*
X3773Y1074D01*
X2402Y1073D02*
X2474Y1073D01*
X2502Y1073D02*
X2574Y1073D01*
X2602Y1073D02*
X2674Y1073D01*
X2702Y1073D02*
X2774Y1073D01*
X2802Y1073D02*
X2874Y1073D01*
X2902Y1073D02*
X2974Y1073D01*
X3002Y1073D02*
X3074Y1073D01*
X3102Y1073D02*
X3174Y1073D01*
X3202Y1073D02*
X3274Y1073D01*
X3302Y1073D02*
X3374Y1073D01*
X3402Y1073D02*
X3474Y1073D01*
X3502Y1073D02*
X3574Y1073D01*
X3602Y1073D02*
X3674Y1073D01*
X3702Y1073D02*
X3774Y1073D01*
X2402Y1072D02*
X2474Y1072D01*
X2502Y1072D02*
X2574Y1072D01*
X2602Y1072D02*
X2674Y1072D01*
X2702Y1072D02*
X2774Y1072D01*
X2802Y1072D02*
X2874Y1072D01*
X2902Y1072D02*
X2974Y1072D01*
X3002Y1072D02*
X3074Y1072D01*
X3102Y1072D02*
X3174Y1072D01*
X3201Y1072D02*
X3274Y1072D01*
X3301Y1072D02*
X3374Y1072D01*
X3401Y1072D02*
X3474Y1072D01*
X3501Y1072D02*
X3574Y1072D01*
X3601Y1072D02*
X3674Y1072D01*
X3701Y1072D02*
X3774Y1072D01*
X2401Y1071D02*
X2475Y1071D01*
X2501Y1071D02*
X2575Y1071D01*
X2601Y1071D02*
X2675Y1071D01*
X2701Y1071D02*
X2775Y1071D01*
X2801Y1071D02*
X2875Y1071D01*
X2901Y1071D02*
X2975Y1071D01*
X3001Y1071D02*
X3075Y1071D01*
X3101Y1071D02*
X3175Y1071D01*
X3201Y1071D02*
X3275Y1071D01*
X3301Y1071D02*
X3375Y1071D01*
X3401Y1071D02*
X3475Y1071D01*
X3501Y1071D02*
X3575Y1071D01*
X3601Y1071D02*
X3675Y1071D01*
X3701Y1071D02*
X3775Y1071D01*
X2401Y1070D02*
X2475Y1070D01*
X2501Y1070D02*
X2575Y1070D01*
X2601Y1070D02*
X2675Y1070D01*
X2701Y1070D02*
X2775Y1070D01*
X2801Y1070D02*
X2875Y1070D01*
X2901Y1070D02*
X2975Y1070D01*
X3001Y1070D02*
X3075Y1070D01*
X3101Y1070D02*
X3175Y1070D01*
X3201Y1070D02*
X3275Y1070D01*
X3301Y1070D02*
X3375Y1070D01*
X3401Y1070D02*
X3475Y1070D01*
X3501Y1070D02*
X3575Y1070D01*
X3601Y1070D02*
X3675Y1070D01*
X3701Y1070D02*
X3775Y1070D01*
X2401Y1069D02*
X2476Y1069D01*
X2501Y1069D02*
X2576Y1069D01*
X2600Y1069D02*
X2675Y1069D01*
X2700Y1069D02*
X2775Y1069D01*
X2800Y1069D02*
X2875Y1069D01*
X2900Y1069D02*
X2975Y1069D01*
X3000Y1069D02*
X3075Y1069D01*
X3100Y1069D02*
X3175Y1069D01*
X3200Y1069D02*
X3275Y1069D01*
X3300Y1069D02*
X3375Y1069D01*
X3400Y1069D02*
X3475Y1069D01*
X3500Y1069D02*
X3575Y1069D01*
X3600Y1069D02*
X3675Y1069D01*
X3700Y1069D02*
X3775Y1069D01*
X2400Y1068D02*
X2476Y1068D01*
X2500Y1068D02*
X2576Y1068D01*
X2600Y1068D02*
X2676Y1068D01*
X2700Y1068D02*
X2776Y1068D01*
X2800Y1068D02*
X2876Y1068D01*
X2900Y1068D02*
X2976Y1068D01*
X3000Y1068D02*
X3076Y1068D01*
X3100Y1068D02*
X3176Y1068D01*
X3200Y1068D02*
X3276Y1068D01*
X3300Y1068D02*
X3376Y1068D01*
X3400Y1068D02*
X3476Y1068D01*
X3500Y1068D02*
X3576Y1068D01*
X3600Y1068D02*
X3676Y1068D01*
X3700Y1068D02*
X3776Y1068D01*
X2400Y1067D02*
X2476Y1067D01*
X2500Y1067D02*
X2576Y1067D01*
X2600Y1067D02*
X2676Y1067D01*
X2700Y1067D02*
X2776Y1067D01*
X2800Y1067D02*
X2876Y1067D01*
X2900Y1067D02*
X2976Y1067D01*
X3000Y1067D02*
X3076Y1067D01*
X3100Y1067D02*
X3176Y1067D01*
X3200Y1067D02*
X3276Y1067D01*
X3300Y1067D02*
X3376Y1067D01*
X3400Y1067D02*
X3476Y1067D01*
X3500Y1067D02*
X3576Y1067D01*
X3600Y1067D02*
X3676Y1067D01*
X3700Y1067D02*
X3776Y1067D01*
X2400Y1066D02*
X2476Y1066D01*
X2500Y1066D02*
X2576Y1066D01*
X2600Y1066D02*
X2676Y1066D01*
X2700Y1066D02*
X2776Y1066D01*
X2800Y1066D02*
X2876Y1066D01*
X2900Y1066D02*
X2976Y1066D01*
X3000Y1066D02*
X3076Y1066D01*
X3100Y1066D02*
X3176Y1066D01*
X3200Y1066D02*
X3276Y1066D01*
X3300Y1066D02*
X3376Y1066D01*
X3400Y1066D02*
X3476Y1066D01*
X3500Y1066D02*
X3576Y1066D01*
X3600Y1066D02*
X3676Y1066D01*
X3700Y1066D02*
X3776Y1066D01*
X2399Y1065D02*
X2477Y1065D01*
X2499Y1065D02*
X2577Y1065D01*
X2599Y1065D02*
X2677Y1065D01*
X2699Y1065D02*
X2777Y1065D01*
X2799Y1065D02*
X2877Y1065D01*
X2899Y1065D02*
X2976Y1065D01*
X2999Y1065D02*
X3076Y1065D01*
X3099Y1065D02*
X3176Y1065D01*
X3199Y1065D02*
X3276Y1065D01*
X3299Y1065D02*
X3376Y1065D01*
X3399Y1065D02*
X3476Y1065D01*
X3499Y1065D02*
X3576Y1065D01*
X3599Y1065D02*
X3676Y1065D01*
X3699Y1065D02*
X3776Y1065D01*
X2399Y1064D02*
X2477Y1064D01*
X2499Y1064D02*
X2577Y1064D01*
X2599Y1064D02*
X2677Y1064D01*
X2699Y1064D02*
X2777Y1064D01*
X2799Y1064D02*
X2877Y1064D01*
X2899Y1064D02*
X2977Y1064D01*
X2999Y1064D02*
X3077Y1064D01*
X3099Y1064D02*
X3177Y1064D01*
X3199Y1064D02*
X3277Y1064D01*
X3299Y1064D02*
X3377Y1064D01*
X3399Y1064D02*
X3477Y1064D01*
X3499Y1064D02*
X3577Y1064D01*
X3599Y1064D02*
X3677Y1064D01*
X3699Y1064D02*
X3777Y1064D01*
X2399Y1063D02*
X2477Y1063D01*
X2499Y1063D02*
X2577Y1063D01*
X2599Y1063D02*
X2677Y1063D01*
X2699Y1063D02*
X2777Y1063D01*
X2799Y1063D02*
X2877Y1063D01*
X2899Y1063D02*
X2977Y1063D01*
X2999Y1063D02*
X3077Y1063D01*
X3099Y1063D02*
X3177Y1063D01*
X3199Y1063D02*
X3277Y1063D01*
X3299Y1063D02*
X3377Y1063D01*
X3399Y1063D02*
X3477Y1063D01*
X3499Y1063D02*
X3577Y1063D01*
X3599Y1063D02*
X3677Y1063D01*
X3699Y1063D02*
X3777Y1063D01*
X2399Y1062D02*
X2477Y1062D01*
X2499Y1062D02*
X2577Y1062D01*
X2599Y1062D02*
X2677Y1062D01*
X2699Y1062D02*
X2777Y1062D01*
X2799Y1062D02*
X2877Y1062D01*
X2899Y1062D02*
X2977Y1062D01*
X2999Y1062D02*
X3077Y1062D01*
X3099Y1062D02*
X3177Y1062D01*
X3199Y1062D02*
X3277Y1062D01*
X3299Y1062D02*
X3377Y1062D01*
X3399Y1062D02*
X3477Y1062D01*
X3499Y1062D02*
X3577Y1062D01*
X3599Y1062D02*
X3677Y1062D01*
X3699Y1062D02*
X3777Y1062D01*
X2399Y1061D02*
X2477Y1061D01*
X2499Y1061D02*
X2577Y1061D01*
X2599Y1061D02*
X2677Y1061D01*
X2699Y1061D02*
X2777Y1061D01*
X2799Y1061D02*
X2877Y1061D01*
X2899Y1061D02*
X2977Y1061D01*
X2999Y1061D02*
X3077Y1061D01*
X3099Y1061D02*
X3177Y1061D01*
X3199Y1061D02*
X3277Y1061D01*
X3299Y1061D02*
X3377Y1061D01*
X3399Y1061D02*
X3477Y1061D01*
X3499Y1061D02*
X3577Y1061D01*
X3599Y1061D02*
X3677Y1061D01*
X3699Y1061D02*
X3777Y1061D01*
X2399Y1060D02*
X2477Y1060D01*
X2499Y1060D02*
X2577Y1060D01*
X2599Y1060D02*
X2677Y1060D01*
X2699Y1060D02*
X2777Y1060D01*
X2799Y1060D02*
X2877Y1060D01*
X2899Y1060D02*
X2977Y1060D01*
X2999Y1060D02*
X3077Y1060D01*
X3099Y1060D02*
X3177Y1060D01*
X3199Y1060D02*
X3277Y1060D01*
X3299Y1060D02*
X3377Y1060D01*
X3399Y1060D02*
X3477Y1060D01*
X3499Y1060D02*
X3577Y1060D01*
X3599Y1060D02*
X3677Y1060D01*
X3699Y1060D02*
X3777Y1060D01*
X2399Y1059D02*
X2477Y1059D01*
X2499Y1059D02*
X2577Y1059D01*
X2599Y1059D02*
X2677Y1059D01*
X2699Y1059D02*
X2777Y1059D01*
X2799Y1059D02*
X2877Y1059D01*
X2899Y1059D02*
X2977Y1059D01*
X2999Y1059D02*
X3077Y1059D01*
X3099Y1059D02*
X3177Y1059D01*
X3199Y1059D02*
X3277Y1059D01*
X3299Y1059D02*
X3377Y1059D01*
X3399Y1059D02*
X3477Y1059D01*
X3499Y1059D02*
X3577Y1059D01*
X3599Y1059D02*
X3677Y1059D01*
X3699Y1059D02*
X3777Y1059D01*
X2399Y1058D02*
X2477Y1058D01*
X2499Y1058D02*
X2577Y1058D01*
X2599Y1058D02*
X2677Y1058D01*
X2699Y1058D02*
X2777Y1058D01*
X2799Y1058D02*
X2877Y1058D01*
X2899Y1058D02*
X2977Y1058D01*
X2999Y1058D02*
X3077Y1058D01*
X3099Y1058D02*
X3177Y1058D01*
X3198Y1058D02*
X3277Y1058D01*
X3298Y1058D02*
X3377Y1058D01*
X3398Y1058D02*
X3477Y1058D01*
X3498Y1058D02*
X3577Y1058D01*
X3598Y1058D02*
X3677Y1058D01*
X3698Y1058D02*
X3777Y1058D01*
X2399Y1057D02*
X2477Y1057D01*
X2499Y1057D02*
X2577Y1057D01*
X2599Y1057D02*
X2677Y1057D01*
X2699Y1057D02*
X2777Y1057D01*
X2798Y1057D02*
X2877Y1057D01*
X2898Y1057D02*
X2977Y1057D01*
X2998Y1057D02*
X3077Y1057D01*
X3098Y1057D02*
X3177Y1057D01*
X3198Y1057D02*
X3277Y1057D01*
X3298Y1057D02*
X3377Y1057D01*
X3398Y1057D02*
X3477Y1057D01*
X3498Y1057D02*
X3577Y1057D01*
X3598Y1057D02*
X3677Y1057D01*
X3698Y1057D02*
X3777Y1057D01*
X2399Y1056D02*
X2477Y1056D01*
X2499Y1056D02*
X2577Y1056D01*
X2599Y1056D02*
X2677Y1056D01*
X2699Y1056D02*
X2777Y1056D01*
X2799Y1056D02*
X2877Y1056D01*
X2899Y1056D02*
X2977Y1056D01*
X2998Y1056D02*
X3077Y1056D01*
X3098Y1056D02*
X3177Y1056D01*
X3198Y1056D02*
X3277Y1056D01*
X3298Y1056D02*
X3377Y1056D01*
X3398Y1056D02*
X3477Y1056D01*
X3498Y1056D02*
X3577Y1056D01*
X3598Y1056D02*
X3677Y1056D01*
X3698Y1056D02*
X3777Y1056D01*
X2399Y1055D02*
X2477Y1055D01*
X2499Y1055D02*
X2577Y1055D01*
X2599Y1055D02*
X2677Y1055D01*
X2699Y1055D02*
X2777Y1055D01*
X2799Y1055D02*
X2877Y1055D01*
X2899Y1055D02*
X2977Y1055D01*
X2999Y1055D02*
X3077Y1055D01*
X3099Y1055D02*
X3177Y1055D01*
X3199Y1055D02*
X3277Y1055D01*
X3299Y1055D02*
X3377Y1055D01*
X3398Y1055D02*
X3477Y1055D01*
X3498Y1055D02*
X3577Y1055D01*
X3598Y1055D02*
X3677Y1055D01*
X3698Y1055D02*
X3777Y1055D01*
X2399Y1054D02*
X2477Y1054D01*
X2499Y1054D02*
X2577Y1054D01*
X2599Y1054D02*
X2677Y1054D01*
X2699Y1054D02*
X2777Y1054D01*
X2799Y1054D02*
X2877Y1054D01*
X2899Y1054D02*
X2977Y1054D01*
X2999Y1054D02*
X3077Y1054D01*
X3099Y1054D02*
X3177Y1054D01*
X3199Y1054D02*
X3277Y1054D01*
X3299Y1054D02*
X3377Y1054D01*
X3399Y1054D02*
X3477Y1054D01*
X3499Y1054D02*
X3577Y1054D01*
X3599Y1054D02*
X3677Y1054D01*
X3699Y1054D02*
X3777Y1054D01*
X2399Y1053D02*
X2477Y1053D01*
X2499Y1053D02*
X2577Y1053D01*
X2599Y1053D02*
X2677Y1053D01*
X2699Y1053D02*
X2777Y1053D01*
X2799Y1053D02*
X2877Y1053D01*
X2899Y1053D02*
X2977Y1053D01*
X2999Y1053D02*
X3077Y1053D01*
X3099Y1053D02*
X3177Y1053D01*
X3199Y1053D02*
X3277Y1053D01*
X3299Y1053D02*
X3377Y1053D01*
X3399Y1053D02*
X3477Y1053D01*
X3499Y1053D02*
X3577Y1053D01*
X3599Y1053D02*
X3677Y1053D01*
X3699Y1053D02*
X3777Y1053D01*
X2399Y1052D02*
X2477Y1052D01*
X2499Y1052D02*
X2577Y1052D01*
X2599Y1052D02*
X2677Y1052D01*
X2699Y1052D02*
X2777Y1052D01*
X2799Y1052D02*
X2877Y1052D01*
X2899Y1052D02*
X2977Y1052D01*
X2999Y1052D02*
X3077Y1052D01*
X3099Y1052D02*
X3177Y1052D01*
X3199Y1052D02*
X3277Y1052D01*
X3299Y1052D02*
X3377Y1052D01*
X3399Y1052D02*
X3477Y1052D01*
X3499Y1052D02*
X3577Y1052D01*
X3599Y1052D02*
X3677Y1052D01*
X3699Y1052D02*
X3777Y1052D01*
X2399Y1051D02*
X2477Y1051D01*
X2499Y1051D02*
X2577Y1051D01*
X2599Y1051D02*
X2677Y1051D01*
X2699Y1051D02*
X2777Y1051D01*
X2799Y1051D02*
X2877Y1051D01*
X2899Y1051D02*
X2977Y1051D01*
X2999Y1051D02*
X3077Y1051D01*
X3099Y1051D02*
X3177Y1051D01*
X3199Y1051D02*
X3277Y1051D01*
X3299Y1051D02*
X3377Y1051D01*
X3399Y1051D02*
X3477Y1051D01*
X3499Y1051D02*
X3577Y1051D01*
X3599Y1051D02*
X3677Y1051D01*
X3699Y1051D02*
X3777Y1051D01*
X2399Y1050D02*
X2477Y1050D01*
X2499Y1050D02*
X2577Y1050D01*
X2599Y1050D02*
X2677Y1050D01*
X2699Y1050D02*
X2777Y1050D01*
X2799Y1050D02*
X2877Y1050D01*
X2899Y1050D02*
X2977Y1050D01*
X2999Y1050D02*
X3077Y1050D01*
X3099Y1050D02*
X3177Y1050D01*
X3199Y1050D02*
X3277Y1050D01*
X3299Y1050D02*
X3377Y1050D01*
X3399Y1050D02*
X3477Y1050D01*
X3499Y1050D02*
X3577Y1050D01*
X3599Y1050D02*
X3677Y1050D01*
X3699Y1050D02*
X3777Y1050D01*
X2399Y1049D02*
X2477Y1049D01*
X2499Y1049D02*
X2577Y1049D01*
X2599Y1049D02*
X2677Y1049D01*
X2699Y1049D02*
X2777Y1049D01*
X2799Y1049D02*
X2877Y1049D01*
X2899Y1049D02*
X2977Y1049D01*
X2999Y1049D02*
X3077Y1049D01*
X3099Y1049D02*
X3177Y1049D01*
X3199Y1049D02*
X3277Y1049D01*
X3299Y1049D02*
X3377Y1049D01*
X3399Y1049D02*
X3477Y1049D01*
X3499Y1049D02*
X3577Y1049D01*
X3599Y1049D02*
X3677Y1049D01*
X3699Y1049D02*
X3777Y1049D01*
X2400Y1048D02*
X2476Y1048D01*
X2500Y1048D02*
X2576Y1048D01*
X2600Y1048D02*
X2676Y1048D01*
X2700Y1048D02*
X2776Y1048D01*
X2800Y1048D02*
X2876Y1048D01*
X2900Y1048D02*
X2976Y1048D01*
X2999Y1048D02*
X3076Y1048D01*
X3099Y1048D02*
X3176Y1048D01*
X3199Y1048D02*
X3276Y1048D01*
X3299Y1048D02*
X3376Y1048D01*
X3399Y1048D02*
X3476Y1048D01*
X3499Y1048D02*
X3576Y1048D01*
X3599Y1048D02*
X3676Y1048D01*
X3699Y1048D02*
X3776Y1048D01*
X2400Y1047D02*
X2476Y1047D01*
X2500Y1047D02*
X2576Y1047D01*
X2600Y1047D02*
X2676Y1047D01*
X2700Y1047D02*
X2776Y1047D01*
X2800Y1047D02*
X2876Y1047D01*
X2900Y1047D02*
X2976Y1047D01*
X3000Y1047D02*
X3076Y1047D01*
X3100Y1047D02*
X3176Y1047D01*
X3200Y1047D02*
X3276Y1047D01*
X3300Y1047D02*
X3376Y1047D01*
X3400Y1047D02*
X3476Y1047D01*
X3500Y1047D02*
X3576Y1047D01*
X3600Y1047D02*
X3676Y1047D01*
X3700Y1047D02*
X3776Y1047D01*
X2400Y1046D02*
X2476Y1046D01*
X2500Y1046D02*
X2576Y1046D01*
X2600Y1046D02*
X2676Y1046D01*
X2700Y1046D02*
X2776Y1046D01*
X2800Y1046D02*
X2876Y1046D01*
X2900Y1046D02*
X2976Y1046D01*
X3000Y1046D02*
X3076Y1046D01*
X3100Y1046D02*
X3176Y1046D01*
X3200Y1046D02*
X3276Y1046D01*
X3300Y1046D02*
X3376Y1046D01*
X3400Y1046D02*
X3476Y1046D01*
X3500Y1046D02*
X3576Y1046D01*
X3600Y1046D02*
X3676Y1046D01*
X3700Y1046D02*
X3776Y1046D01*
X2400Y1045D02*
X2476Y1045D01*
X2500Y1045D02*
X2576Y1045D01*
X2600Y1045D02*
X2676Y1045D01*
X2700Y1045D02*
X2776Y1045D01*
X2800Y1045D02*
X2876Y1045D01*
X2900Y1045D02*
X2976Y1045D01*
X3000Y1045D02*
X3076Y1045D01*
X3100Y1045D02*
X3176Y1045D01*
X3200Y1045D02*
X3276Y1045D01*
X3300Y1045D02*
X3376Y1045D01*
X3400Y1045D02*
X3476Y1045D01*
X3500Y1045D02*
X3576Y1045D01*
X3600Y1045D02*
X3676Y1045D01*
X3700Y1045D02*
X3776Y1045D01*
X2401Y1044D02*
X2475Y1044D01*
X2501Y1044D02*
X2575Y1044D01*
X2601Y1044D02*
X2675Y1044D01*
X2701Y1044D02*
X2775Y1044D01*
X2801Y1044D02*
X2875Y1044D01*
X2901Y1044D02*
X2975Y1044D01*
X3001Y1044D02*
X3075Y1044D01*
X3101Y1044D02*
X3175Y1044D01*
X3201Y1044D02*
X3275Y1044D01*
X3301Y1044D02*
X3375Y1044D01*
X3401Y1044D02*
X3475Y1044D01*
X3500Y1044D02*
X3575Y1044D01*
X3600Y1044D02*
X3675Y1044D01*
X3700Y1044D02*
X3775Y1044D01*
X2401Y1043D02*
X2475Y1043D01*
X2501Y1043D02*
X2575Y1043D01*
X2601Y1043D02*
X2675Y1043D01*
X2701Y1043D02*
X2775Y1043D01*
X2801Y1043D02*
X2875Y1043D01*
X2901Y1043D02*
X2975Y1043D01*
X3001Y1043D02*
X3075Y1043D01*
X3101Y1043D02*
X3175Y1043D01*
X3201Y1043D02*
X3275Y1043D01*
X3301Y1043D02*
X3375Y1043D01*
X3401Y1043D02*
X3475Y1043D01*
X3501Y1043D02*
X3575Y1043D01*
X3601Y1043D02*
X3675Y1043D01*
X3701Y1043D02*
X3775Y1043D01*
X2401Y1042D02*
X2475Y1042D01*
X2501Y1042D02*
X2575Y1042D01*
X2601Y1042D02*
X2675Y1042D01*
X2701Y1042D02*
X2775Y1042D01*
X2801Y1042D02*
X2875Y1042D01*
X2901Y1042D02*
X2975Y1042D01*
X3001Y1042D02*
X3075Y1042D01*
X3101Y1042D02*
X3175Y1042D01*
X3201Y1042D02*
X3275Y1042D01*
X3301Y1042D02*
X3375Y1042D01*
X3401Y1042D02*
X3475Y1042D01*
X3501Y1042D02*
X3575Y1042D01*
X3601Y1042D02*
X3675Y1042D01*
X3701Y1042D02*
X3775Y1042D01*
X2402Y1041D02*
X2474Y1041D01*
X2502Y1041D02*
X2574Y1041D01*
X2602Y1041D02*
X2674Y1041D01*
X2702Y1041D02*
X2774Y1041D01*
X2802Y1041D02*
X2874Y1041D01*
X2902Y1041D02*
X2974Y1041D01*
X3002Y1041D02*
X3074Y1041D01*
X3102Y1041D02*
X3174Y1041D01*
X3202Y1041D02*
X3274Y1041D01*
X3302Y1041D02*
X3374Y1041D01*
X3402Y1041D02*
X3474Y1041D01*
X3502Y1041D02*
X3574Y1041D01*
X3602Y1041D02*
X3674Y1041D01*
X3702Y1041D02*
X3774Y1041D01*
X2402Y1040D02*
X2474Y1040D01*
X2502Y1040D02*
X2574Y1040D01*
X2602Y1040D02*
X2674Y1040D01*
X2702Y1040D02*
X2774Y1040D01*
X2802Y1040D02*
X2874Y1040D01*
X2902Y1040D02*
X2974Y1040D01*
X3002Y1040D02*
X3074Y1040D01*
X3102Y1040D02*
X3174Y1040D01*
X3202Y1040D02*
X3274Y1040D01*
X3302Y1040D02*
X3374Y1040D01*
X3402Y1040D02*
X3474Y1040D01*
X3502Y1040D02*
X3574Y1040D01*
X3602Y1040D02*
X3674Y1040D01*
X3702Y1040D02*
X3774Y1040D01*
X2403Y1039D02*
X2473Y1039D01*
X2503Y1039D02*
X2573Y1039D01*
X2603Y1039D02*
X2673Y1039D01*
X2703Y1039D02*
X2773Y1039D01*
X2803Y1039D02*
X2873Y1039D01*
X2903Y1039D02*
X2973Y1039D01*
X3003Y1039D02*
X3073Y1039D01*
X3103Y1039D02*
X3173Y1039D01*
X3203Y1039D02*
X3273Y1039D01*
X3303Y1039D02*
X3373Y1039D01*
X3403Y1039D02*
X3473Y1039D01*
X3503Y1039D02*
X3573Y1039D01*
X3603Y1039D02*
X3673Y1039D01*
X3703Y1039D02*
X3773Y1039D01*
X2403Y1038D02*
X2473Y1038D01*
X2503Y1038D02*
X2573Y1038D01*
X2603Y1038D02*
X2673Y1038D01*
X2703Y1038D02*
X2773Y1038D01*
X2803Y1038D02*
X2873Y1038D01*
X2903Y1038D02*
X2973Y1038D01*
X3003Y1038D02*
X3073Y1038D01*
X3103Y1038D02*
X3173Y1038D01*
X3203Y1038D02*
X3273Y1038D01*
X3303Y1038D02*
X3373Y1038D01*
X3403Y1038D02*
X3473Y1038D01*
X3503Y1038D02*
X3573Y1038D01*
X3603Y1038D02*
X3673Y1038D01*
X3703Y1038D02*
X3773Y1038D01*
X2404Y1037D02*
X2472Y1037D01*
X2504Y1037D02*
X2572Y1037D01*
X2604Y1037D02*
X2672Y1037D01*
X2704Y1037D02*
X2772Y1037D01*
X2804Y1037D02*
X2872Y1037D01*
X2904Y1037D02*
X2972Y1037D01*
X3004Y1037D02*
X3072Y1037D01*
X3104Y1037D02*
X3172Y1037D01*
X3204Y1037D02*
X3272Y1037D01*
X3304Y1037D02*
X3372Y1037D01*
X3404Y1037D02*
X3472Y1037D01*
X3504Y1037D02*
X3572Y1037D01*
X3604Y1037D02*
X3672Y1037D01*
X3704Y1037D02*
X3772Y1037D01*
X2404Y1036D02*
X2472Y1036D01*
X2504Y1036D02*
X2572Y1036D01*
X2604Y1036D02*
X2672Y1036D01*
X2704Y1036D02*
X2772Y1036D01*
X2804Y1036D02*
X2872Y1036D01*
X2904Y1036D02*
X2972Y1036D01*
X3004Y1036D02*
X3072Y1036D01*
X3104Y1036D02*
X3172Y1036D01*
X3204Y1036D02*
X3272Y1036D01*
X3304Y1036D02*
X3372Y1036D01*
X3404Y1036D02*
X3472Y1036D01*
X3504Y1036D02*
X3572Y1036D01*
X3604Y1036D02*
X3672Y1036D01*
X3704Y1036D02*
X3771Y1036D01*
X2405Y1035D02*
X2471Y1035D01*
X2505Y1035D02*
X2571Y1035D01*
X2605Y1035D02*
X2671Y1035D01*
X2705Y1035D02*
X2771Y1035D01*
X2805Y1035D02*
X2871Y1035D01*
X2905Y1035D02*
X2971Y1035D01*
X3005Y1035D02*
X3071Y1035D01*
X3105Y1035D02*
X3171Y1035D01*
X3205Y1035D02*
X3271Y1035D01*
X3305Y1035D02*
X3371Y1035D01*
X3405Y1035D02*
X3471Y1035D01*
X3505Y1035D02*
X3571Y1035D01*
X3605Y1035D02*
X3671Y1035D01*
X3705Y1035D02*
X3771Y1035D01*
X2406Y1034D02*
X2470Y1034D01*
X2506Y1034D02*
X2570Y1034D01*
X2606Y1034D02*
X2670Y1034D01*
X2706Y1034D02*
X2770Y1034D01*
X2806Y1034D02*
X2870Y1034D01*
X2906Y1034D02*
X2970Y1034D01*
X3006Y1034D02*
X3070Y1034D01*
X3106Y1034D02*
X3170Y1034D01*
X3206Y1034D02*
X3270Y1034D01*
X3306Y1034D02*
X3370Y1034D01*
X3406Y1034D02*
X3470Y1034D01*
X3506Y1034D02*
X3570Y1034D01*
X3606Y1034D02*
X3670Y1034D01*
X3705Y1034D02*
X3770Y1034D01*
X2406Y1033D02*
X2470Y1033D01*
X2506Y1033D02*
X2570Y1033D01*
X2606Y1033D02*
X2670Y1033D01*
X2706Y1033D02*
X2770Y1033D01*
X2806Y1033D02*
X2870Y1033D01*
X2906Y1033D02*
X2970Y1033D01*
X3006Y1033D02*
X3070Y1033D01*
X3106Y1033D02*
X3170Y1033D01*
X3206Y1033D02*
X3270Y1033D01*
X3306Y1033D02*
X3370Y1033D01*
X3406Y1033D02*
X3470Y1033D01*
X3506Y1033D02*
X3570Y1033D01*
X3606Y1033D02*
X3669Y1033D01*
X3706Y1033D02*
X3769Y1033D01*
X2407Y1032D02*
X2469Y1032D01*
X2507Y1032D02*
X2569Y1032D01*
X2607Y1032D02*
X2669Y1032D01*
X2707Y1032D02*
X2769Y1032D01*
X2807Y1032D02*
X2869Y1032D01*
X2907Y1032D02*
X2969Y1032D01*
X3007Y1032D02*
X3069Y1032D01*
X3107Y1032D02*
X3169Y1032D01*
X3207Y1032D02*
X3269Y1032D01*
X3307Y1032D02*
X3369Y1032D01*
X3407Y1032D02*
X3469Y1032D01*
X3507Y1032D02*
X3569Y1032D01*
X3607Y1032D02*
X3669Y1032D01*
X3707Y1032D02*
X3769Y1032D01*
X2408Y1031D02*
X2468Y1031D01*
X2508Y1031D02*
X2568Y1031D01*
X2608Y1031D02*
X2668Y1031D01*
X2708Y1031D02*
X2768Y1031D01*
X2808Y1031D02*
X2868Y1031D01*
X2908Y1031D02*
X2968Y1031D01*
X3008Y1031D02*
X3068Y1031D01*
X3108Y1031D02*
X3168Y1031D01*
X3208Y1031D02*
X3268Y1031D01*
X3308Y1031D02*
X3368Y1031D01*
X3408Y1031D02*
X3468Y1031D01*
X3508Y1031D02*
X3568Y1031D01*
X3608Y1031D02*
X3668Y1031D01*
X3708Y1031D02*
X3768Y1031D01*
X2409Y1030D02*
X2467Y1030D01*
X2509Y1030D02*
X2567Y1030D01*
X2609Y1030D02*
X2667Y1030D01*
X2709Y1030D02*
X2767Y1030D01*
X2809Y1030D02*
X2867Y1030D01*
X2909Y1030D02*
X2967Y1030D01*
X3009Y1030D02*
X3067Y1030D01*
X3109Y1030D02*
X3167Y1030D01*
X3209Y1030D02*
X3267Y1030D01*
X3309Y1030D02*
X3367Y1030D01*
X3409Y1030D02*
X3467Y1030D01*
X3509Y1030D02*
X3567Y1030D01*
X3609Y1030D02*
X3667Y1030D01*
X3709Y1030D02*
X3767Y1030D01*
X2410Y1029D02*
X2466Y1029D01*
X2510Y1029D02*
X2566Y1029D01*
X2610Y1029D02*
X2666Y1029D01*
X2710Y1029D02*
X2766Y1029D01*
X2810Y1029D02*
X2866Y1029D01*
X2910Y1029D02*
X2966Y1029D01*
X3010Y1029D02*
X3066Y1029D01*
X3110Y1029D02*
X3166Y1029D01*
X3210Y1029D02*
X3266Y1029D01*
X3310Y1029D02*
X3366Y1029D01*
X3410Y1029D02*
X3466Y1029D01*
X3510Y1029D02*
X3566Y1029D01*
X3610Y1029D02*
X3666Y1029D01*
X3710Y1029D02*
X3766Y1029D01*
X2411Y1028D02*
X2465Y1028D01*
X2511Y1028D02*
X2565Y1028D01*
X2611Y1028D02*
X2665Y1028D01*
X2711Y1028D02*
X2765Y1028D01*
X2811Y1028D02*
X2865Y1028D01*
X2911Y1028D02*
X2965Y1028D01*
X3011Y1028D02*
X3065Y1028D01*
X3111Y1028D02*
X3165Y1028D01*
X3211Y1028D02*
X3265Y1028D01*
X3311Y1028D02*
X3365Y1028D01*
X3411Y1028D02*
X3465Y1028D01*
X3511Y1028D02*
X3565Y1028D01*
X3611Y1028D02*
X3665Y1028D01*
X3710Y1028D02*
X3765Y1028D01*
X2412Y1027D02*
X2464Y1027D01*
X2512Y1027D02*
X2564Y1027D01*
X2612Y1027D02*
X2664Y1027D01*
X2712Y1027D02*
X2764Y1027D01*
X2812Y1027D02*
X2864Y1027D01*
X2912Y1027D02*
X2964Y1027D01*
X3012Y1027D02*
X3064Y1027D01*
X3112Y1027D02*
X3164Y1027D01*
X3212Y1027D02*
X3264Y1027D01*
X3312Y1027D02*
X3364Y1027D01*
X3412Y1027D02*
X3464Y1027D01*
X3512Y1027D02*
X3564Y1027D01*
X3612Y1027D02*
X3664Y1027D01*
X3712Y1027D02*
X3764Y1027D01*
X2413Y1026D02*
X2463Y1026D01*
X2513Y1026D02*
X2563Y1026D01*
X2613Y1026D02*
X2663Y1026D01*
X2713Y1026D02*
X2763Y1026D01*
X2813Y1026D02*
X2863Y1026D01*
X2913Y1026D02*
X2963Y1026D01*
X3013Y1026D02*
X3063Y1026D01*
X3113Y1026D02*
X3163Y1026D01*
X3213Y1026D02*
X3263Y1026D01*
X3313Y1026D02*
X3363Y1026D01*
X3413Y1026D02*
X3463Y1026D01*
X3513Y1026D02*
X3563Y1026D01*
X3613Y1026D02*
X3663Y1026D01*
X3713Y1026D02*
X3763Y1026D01*
X2414Y1025D02*
X2462Y1025D01*
X2514Y1025D02*
X2562Y1025D01*
X2614Y1025D02*
X2662Y1025D01*
X2714Y1025D02*
X2762Y1025D01*
X2814Y1025D02*
X2862Y1025D01*
X2914Y1025D02*
X2962Y1025D01*
X3014Y1025D02*
X3062Y1025D01*
X3114Y1025D02*
X3162Y1025D01*
X3214Y1025D02*
X3262Y1025D01*
X3314Y1025D02*
X3362Y1025D01*
X3414Y1025D02*
X3462Y1025D01*
X3514Y1025D02*
X3562Y1025D01*
X3614Y1025D02*
X3662Y1025D01*
X3714Y1025D02*
X3762Y1025D01*
X2416Y1024D02*
X2460Y1024D01*
X2516Y1024D02*
X2560Y1024D01*
X2616Y1024D02*
X2660Y1024D01*
X2716Y1024D02*
X2760Y1024D01*
X2816Y1024D02*
X2860Y1024D01*
X2916Y1024D02*
X2960Y1024D01*
X3016Y1024D02*
X3060Y1024D01*
X3115Y1024D02*
X3160Y1024D01*
X3215Y1024D02*
X3260Y1024D01*
X3315Y1024D02*
X3360Y1024D01*
X3415Y1024D02*
X3460Y1024D01*
X3515Y1024D02*
X3560Y1024D01*
X3615Y1024D02*
X3660Y1024D01*
X3715Y1024D02*
X3760Y1024D01*
X2417Y1023D02*
X2459Y1023D01*
X2517Y1023D02*
X2559Y1023D01*
X2617Y1023D02*
X2659Y1023D01*
X2717Y1023D02*
X2759Y1023D01*
X2817Y1023D02*
X2859Y1023D01*
X2917Y1023D02*
X2959Y1023D01*
X3017Y1023D02*
X3059Y1023D01*
X3117Y1023D02*
X3159Y1023D01*
X3217Y1023D02*
X3259Y1023D01*
X3317Y1023D02*
X3359Y1023D01*
X3417Y1023D02*
X3459Y1023D01*
X3517Y1023D02*
X3559Y1023D01*
X3617Y1023D02*
X3659Y1023D01*
X3717Y1023D02*
X3759Y1023D01*
X2419Y1022D02*
X2457Y1022D01*
X2519Y1022D02*
X2557Y1022D01*
X2619Y1022D02*
X2657Y1022D01*
X2719Y1022D02*
X2757Y1022D01*
X2819Y1022D02*
X2857Y1022D01*
X2919Y1022D02*
X2957Y1022D01*
X3019Y1022D02*
X3057Y1022D01*
X3119Y1022D02*
X3157Y1022D01*
X3219Y1022D02*
X3257Y1022D01*
X3319Y1022D02*
X3357Y1022D01*
X3419Y1022D02*
X3457Y1022D01*
X3519Y1022D02*
X3557Y1022D01*
X3619Y1022D02*
X3657Y1022D01*
X3719Y1022D02*
X3757Y1022D01*
X2421Y1021D02*
X2456Y1021D01*
X2521Y1021D02*
X2555Y1021D01*
X2621Y1021D02*
X2655Y1021D01*
X2720Y1021D02*
X2755Y1021D01*
X2820Y1021D02*
X2855Y1021D01*
X2920Y1021D02*
X2955Y1021D01*
X3020Y1021D02*
X3055Y1021D01*
X3120Y1021D02*
X3155Y1021D01*
X3220Y1021D02*
X3255Y1021D01*
X3320Y1021D02*
X3355Y1021D01*
X3420Y1021D02*
X3455Y1021D01*
X3520Y1021D02*
X3555Y1021D01*
X3620Y1021D02*
X3655Y1021D01*
X3720Y1021D02*
X3755Y1021D01*
X2423Y1020D02*
X2453Y1020D01*
X2523Y1020D02*
X2553Y1020D01*
X2623Y1020D02*
X2653Y1020D01*
X2723Y1020D02*
X2753Y1020D01*
X2823Y1020D02*
X2853Y1020D01*
X2923Y1020D02*
X2953Y1020D01*
X3022Y1020D02*
X3053Y1020D01*
X3122Y1020D02*
X3153Y1020D01*
X3222Y1020D02*
X3253Y1020D01*
X3322Y1020D02*
X3353Y1020D01*
X3422Y1020D02*
X3453Y1020D01*
X3522Y1020D02*
X3553Y1020D01*
X3622Y1020D02*
X3653Y1020D01*
X3722Y1020D02*
X3753Y1020D01*
X2425Y1019D02*
X2451Y1019D01*
X2525Y1019D02*
X2551Y1019D01*
X2625Y1019D02*
X2651Y1019D01*
X2725Y1019D02*
X2751Y1019D01*
X2825Y1019D02*
X2851Y1019D01*
X2925Y1019D02*
X2951Y1019D01*
X3025Y1019D02*
X3051Y1019D01*
X3125Y1019D02*
X3151Y1019D01*
X3225Y1019D02*
X3251Y1019D01*
X3325Y1019D02*
X3351Y1019D01*
X3425Y1019D02*
X3451Y1019D01*
X3525Y1019D02*
X3551Y1019D01*
X3625Y1019D02*
X3651Y1019D01*
X3725Y1019D02*
X3751Y1019D01*
X2429Y1018D02*
X2447Y1018D01*
X2529Y1018D02*
X2547Y1018D01*
X2629Y1018D02*
X2647Y1018D01*
X2729Y1018D02*
X2747Y1018D01*
X2829Y1018D02*
X2847Y1018D01*
X2929Y1018D02*
X2947Y1018D01*
X3029Y1018D02*
X3047Y1018D01*
X3129Y1018D02*
X3147Y1018D01*
X3229Y1018D02*
X3247Y1018D01*
X3329Y1018D02*
X3347Y1018D01*
X3429Y1018D02*
X3447Y1018D01*
X3529Y1018D02*
X3547Y1018D01*
X3629Y1018D02*
X3647Y1018D01*
X3729Y1018D02*
X3747Y1018D01*
X2434Y1017D02*
X2442Y1017D01*
X2534Y1017D02*
X2542Y1017D01*
X2634Y1017D02*
X2642Y1017D01*
X2734Y1017D02*
X2742Y1017D01*
X2834Y1017D02*
X2842Y1017D01*
X2934Y1017D02*
X2942Y1017D01*
X3034Y1017D02*
X3042Y1017D01*
X3134Y1017D02*
X3142Y1017D01*
X3234Y1017D02*
X3242Y1017D01*
X3334Y1017D02*
X3342Y1017D01*
X3434Y1017D02*
X3442Y1017D01*
X3534Y1017D02*
X3542Y1017D01*
X3634Y1017D02*
X3642Y1017D01*
X3734Y1017D02*
X3742Y1017D01*
D02*
G04 End of Mask0*
M02*