G04 MADE WITH FRITZING*
G04 WWW.FRITZING.ORG*
G04 DOUBLE SIDED*
G04 HOLES PLATED*
G04 CONTOUR ON CENTER OF CONTOUR VECTOR*
%ASAXBY*%
%FSLAX23Y23*%
%MOIN*%
%OFA0B0*%
%SFA1.0B1.0*%
%ADD10C,0.039370*%
%ADD11C,0.070000*%
%ADD12C,0.078000*%
%ADD13C,0.060000*%
%ADD14C,0.075000*%
%ADD15C,0.062992*%
%ADD16C,0.053528*%
%ADD17C,0.080000*%
%ADD18C,0.138425*%
%ADD19R,0.075000X0.075000*%
%ADD20R,0.062992X0.062992*%
%ADD21R,0.080000X0.080000*%
%ADD22C,0.024000*%
%ADD23R,0.001000X0.001000*%
%LNCOPPER0*%
G90*
G70*
G54D10*
X4231Y3164D03*
X4832Y3164D03*
X5031Y3164D03*
X5031Y2960D03*
X2234Y1613D03*
X3082Y1613D03*
X1234Y2110D03*
X4132Y3009D03*
X5136Y812D03*
X5333Y262D03*
X5333Y3713D03*
X5232Y3814D03*
X4132Y1613D03*
G54D11*
X2433Y1012D03*
X3633Y1312D03*
X2533Y1012D03*
X3733Y1312D03*
X2633Y1012D03*
X2733Y1012D03*
X2833Y1012D03*
X2933Y1012D03*
X3733Y1012D03*
X3633Y1012D03*
X3533Y1012D03*
X3433Y1012D03*
X3033Y1012D03*
X3233Y1012D03*
X3133Y1012D03*
X3333Y1012D03*
X3233Y1312D03*
X3333Y1312D03*
X3433Y1312D03*
X3533Y1312D03*
X3033Y1312D03*
X3133Y1312D03*
X2633Y1312D03*
X2733Y1312D03*
X2833Y1312D03*
X2933Y1312D03*
X2433Y1312D03*
X2533Y1312D03*
G54D12*
X6627Y2818D03*
X6627Y2718D03*
X6627Y2618D03*
X6627Y2518D03*
X6627Y2418D03*
X6627Y2318D03*
X6627Y2218D03*
X6627Y2118D03*
X6627Y2018D03*
X6627Y1918D03*
X6627Y1818D03*
X6627Y1718D03*
G54D10*
X2634Y3010D03*
X2933Y3010D03*
X2634Y2711D03*
X2535Y3413D03*
X3634Y3413D03*
X2132Y1110D03*
X2132Y1314D03*
X5931Y2711D03*
X4932Y2711D03*
X5534Y2512D03*
X2331Y1314D03*
X2331Y513D03*
X5031Y513D03*
X4435Y414D03*
X2535Y414D03*
X4534Y613D03*
X3435Y613D03*
X3032Y613D03*
X2435Y613D03*
X4032Y712D03*
X5434Y3214D03*
X4733Y3214D03*
X3733Y3214D03*
X3733Y1911D03*
X5633Y3109D03*
X4733Y3109D03*
X2734Y1712D03*
X4236Y2010D03*
X3335Y1513D03*
X4236Y1413D03*
X4131Y812D03*
X4832Y812D03*
X4733Y1413D03*
X5434Y1413D03*
X4733Y2010D03*
X5434Y2010D03*
X4832Y1110D03*
X4236Y2612D03*
X4932Y1314D03*
X4733Y1314D03*
X4236Y1314D03*
X3833Y1314D03*
X3833Y1110D03*
X4932Y2811D03*
X5534Y2811D03*
X2734Y309D03*
X4032Y309D03*
X2535Y1513D03*
X2231Y1413D03*
X2231Y210D03*
X3833Y210D03*
X3833Y712D03*
X3833Y1010D03*
X3534Y110D03*
X4733Y1911D03*
X5031Y1911D03*
X4932Y1110D03*
X4932Y414D03*
X3131Y759D03*
X2085Y759D03*
X5732Y2711D03*
G54D12*
X83Y1562D03*
X83Y1462D03*
X83Y1362D03*
X83Y1262D03*
X83Y1162D03*
X83Y1062D03*
G54D10*
X3984Y3214D03*
X3984Y3109D03*
X3634Y3109D03*
X3932Y1513D03*
X1635Y1963D03*
G54D13*
X933Y3112D03*
X1033Y3112D03*
X1133Y3112D03*
G54D14*
X1433Y2712D03*
X1433Y2812D03*
G54D11*
X633Y2712D03*
X633Y2812D03*
X1833Y2712D03*
X1833Y2812D03*
G54D15*
X1033Y2213D03*
X1033Y2312D03*
G54D16*
X2033Y3112D03*
X2133Y3112D03*
X2233Y3112D03*
G54D14*
X4333Y3612D03*
X4633Y3612D03*
X4333Y3512D03*
X4633Y3512D03*
X4333Y3412D03*
X4633Y3412D03*
X4333Y3312D03*
X4633Y3312D03*
X4333Y3012D03*
X4633Y3012D03*
X4333Y2912D03*
X4633Y2912D03*
X4333Y2812D03*
X4633Y2812D03*
X4333Y2712D03*
X4633Y2712D03*
X4333Y2412D03*
X4633Y2412D03*
X4333Y2312D03*
X4633Y2312D03*
X4333Y2212D03*
X4633Y2212D03*
X4333Y2112D03*
X4633Y2112D03*
X4333Y1812D03*
X4633Y1812D03*
X4333Y1712D03*
X4633Y1712D03*
X4333Y1612D03*
X4633Y1612D03*
X4333Y1512D03*
X4633Y1512D03*
X4333Y1212D03*
X4633Y1212D03*
X4333Y1112D03*
X4633Y1112D03*
X4333Y1012D03*
X4633Y1012D03*
X4333Y912D03*
X4633Y912D03*
X3433Y2112D03*
X3433Y1712D03*
G54D11*
X633Y1912D03*
X733Y1912D03*
X3333Y862D03*
X3233Y862D03*
X2533Y2812D03*
X2533Y2912D03*
G54D15*
X3533Y3213D03*
X3533Y3312D03*
G54D14*
X2833Y3312D03*
X3233Y3312D03*
G54D17*
X183Y3124D03*
X183Y3262D03*
G54D15*
X5833Y3413D03*
X5833Y3512D03*
X5833Y2813D03*
X5833Y2912D03*
X5833Y2213D03*
X5833Y2312D03*
X5833Y1613D03*
X5833Y1712D03*
X5833Y1013D03*
X5833Y1112D03*
G54D18*
X383Y1712D03*
X1683Y1712D03*
G54D11*
X363Y1562D03*
X363Y1462D03*
X363Y1362D03*
X363Y1262D03*
X363Y1162D03*
X363Y1062D03*
X1533Y1712D03*
X1433Y1712D03*
X1333Y1712D03*
X1233Y1712D03*
X1133Y1712D03*
X1033Y1712D03*
X933Y1712D03*
X833Y1712D03*
X733Y1712D03*
G54D18*
X1683Y912D03*
G54D11*
X633Y1712D03*
G54D18*
X383Y912D03*
G54D11*
X633Y912D03*
X733Y912D03*
X833Y912D03*
X933Y912D03*
X1033Y912D03*
X1133Y912D03*
X1233Y912D03*
X1333Y912D03*
X1433Y912D03*
X1533Y912D03*
G54D10*
X2036Y2214D03*
G54D19*
X1433Y2712D03*
G54D20*
X1033Y2213D03*
G54D19*
X4333Y3612D03*
X4333Y3012D03*
X4333Y2412D03*
X4333Y1812D03*
X4333Y1212D03*
G54D20*
X3533Y3213D03*
G54D21*
X183Y3124D03*
G54D20*
X5833Y3413D03*
X5833Y2813D03*
X5833Y2213D03*
X5833Y1613D03*
X5833Y1013D03*
G54D22*
X4813Y3164D02*
X4250Y3164D01*
D02*
X5031Y2979D02*
X5031Y3146D01*
D02*
X3063Y1613D02*
X2253Y1613D01*
D02*
X3233Y985D02*
X3233Y888D01*
D02*
X3333Y985D02*
X3333Y888D01*
D02*
X4151Y3010D02*
X4305Y3011D01*
D02*
X3433Y1683D02*
X3433Y1338D01*
D02*
X633Y1885D02*
X633Y1742D01*
D02*
X832Y1909D02*
X760Y1911D01*
D02*
X833Y1742D02*
X832Y1909D01*
D02*
X4836Y2512D02*
X4832Y1129D01*
D02*
X4333Y2512D02*
X4836Y2512D01*
D02*
X4333Y2440D02*
X4333Y2512D01*
D02*
X4233Y2110D02*
X4305Y2111D01*
D02*
X4233Y2311D02*
X4233Y2110D01*
D02*
X4305Y2311D02*
X4233Y2311D01*
D02*
X4032Y2814D02*
X4305Y2812D01*
D02*
X4032Y731D02*
X4032Y2814D01*
D02*
X4305Y1612D02*
X4151Y1613D01*
D02*
X4233Y1111D02*
X4305Y1111D01*
D02*
X4233Y910D02*
X4233Y1111D01*
D02*
X4305Y911D02*
X4233Y910D01*
D02*
X4434Y3311D02*
X4362Y3311D01*
D02*
X4434Y3512D02*
X4434Y3311D01*
D02*
X4362Y3512D02*
X4434Y3512D01*
D02*
X4333Y1909D02*
X4714Y1911D01*
D02*
X4333Y1840D02*
X4333Y1909D01*
D02*
X5232Y3795D02*
X5232Y614D01*
D02*
X5232Y614D02*
X4553Y613D01*
D02*
X5333Y3694D02*
X5333Y281D01*
D02*
X635Y3109D02*
X633Y2838D01*
D02*
X214Y3123D02*
X635Y3109D01*
D02*
X933Y2811D02*
X933Y3080D01*
D02*
X659Y2812D02*
X933Y2811D01*
D02*
X1033Y2711D02*
X1405Y2712D01*
D02*
X1033Y3080D02*
X1033Y2711D01*
D02*
X1132Y2811D02*
X1405Y2811D01*
D02*
X1133Y3080D02*
X1132Y2811D01*
D02*
X1807Y2812D02*
X1462Y2812D01*
D02*
X1462Y2712D02*
X1807Y2712D01*
D02*
X2032Y2811D02*
X1859Y2811D01*
D02*
X2033Y3077D02*
X2032Y2811D01*
D02*
X2132Y2711D02*
X1859Y2712D01*
D02*
X2133Y3077D02*
X2132Y2711D01*
D02*
X3534Y2910D02*
X2559Y2912D01*
D02*
X3533Y3186D02*
X3534Y2910D01*
D02*
X2535Y3109D02*
X2533Y2938D01*
D02*
X2268Y3111D02*
X2535Y3109D01*
D02*
X3506Y3312D02*
X3262Y3312D01*
D02*
X1436Y2314D02*
X1433Y2683D01*
D02*
X1060Y2312D02*
X1436Y2314D01*
D02*
X635Y2314D02*
X1006Y2312D01*
D02*
X633Y2685D02*
X635Y2314D01*
D02*
X1132Y2010D02*
X1033Y2010D01*
D02*
X1033Y2010D02*
X1033Y2186D01*
D02*
X1133Y1742D02*
X1132Y2010D01*
D02*
X1985Y712D02*
X1985Y812D01*
D02*
X3183Y759D02*
X3535Y759D01*
D02*
X3183Y809D02*
X3183Y759D01*
D02*
X1985Y812D02*
X3183Y809D01*
D02*
X3535Y759D02*
X3533Y985D01*
D02*
X1331Y712D02*
X1985Y712D01*
D02*
X1333Y881D02*
X1331Y712D01*
D02*
X1232Y613D02*
X1233Y881D01*
D02*
X3634Y712D02*
X2184Y712D01*
D02*
X2184Y712D02*
X2184Y613D01*
D02*
X2184Y613D02*
X1232Y613D01*
D02*
X3633Y985D02*
X3634Y712D01*
D02*
X2831Y3612D02*
X2833Y3340D01*
D02*
X3535Y3612D02*
X2831Y3612D01*
D02*
X3532Y3910D02*
X3535Y3612D01*
D02*
X5832Y3910D02*
X3532Y3910D01*
D02*
X5833Y3538D02*
X5832Y3910D01*
D02*
X4932Y2910D02*
X4662Y2911D01*
D02*
X4932Y3810D02*
X4932Y2910D01*
D02*
X3634Y3810D02*
X4932Y3810D01*
D02*
X3634Y3432D02*
X3634Y3810D01*
D02*
X732Y3915D02*
X1633Y3915D01*
D02*
X1633Y3915D02*
X2535Y3915D01*
D02*
X2535Y3915D02*
X2535Y3432D01*
D02*
X732Y3115D02*
X732Y3915D01*
D02*
X902Y3112D02*
X732Y3115D01*
D02*
X5931Y3109D02*
X5832Y3109D01*
D02*
X5832Y3109D02*
X5833Y2938D01*
D02*
X5931Y3512D02*
X5931Y3109D01*
D02*
X5860Y3512D02*
X5931Y3512D01*
D02*
X5732Y2692D02*
X5732Y2314D01*
D02*
X5732Y2314D02*
X5806Y2312D01*
D02*
X5931Y2010D02*
X5832Y2010D01*
D02*
X5832Y2010D02*
X5833Y1738D01*
D02*
X5931Y2314D02*
X5931Y2010D01*
D02*
X5860Y2312D02*
X5931Y2314D01*
D02*
X5931Y1110D02*
X5860Y1111D01*
D02*
X5931Y1712D02*
X5931Y1110D01*
D02*
X5860Y1712D02*
X5931Y1712D01*
D02*
X6434Y2811D02*
X6597Y2817D01*
D02*
X6434Y2910D02*
X6434Y2811D01*
D02*
X5860Y2912D02*
X6434Y2910D01*
D02*
X4733Y1010D02*
X4662Y1011D01*
D02*
X5136Y831D02*
X5136Y1010D01*
D02*
X5136Y1010D02*
X4733Y1010D01*
D02*
X2634Y1110D02*
X2633Y1038D01*
D02*
X2151Y1110D02*
X2634Y1110D01*
D02*
X2133Y2311D02*
X2132Y1333D01*
D02*
X2636Y2311D02*
X2133Y2311D01*
D02*
X2634Y2692D02*
X2636Y2311D01*
D02*
X2914Y3010D02*
X2653Y3010D01*
D02*
X4732Y1712D02*
X4662Y1712D01*
D02*
X4733Y1513D02*
X4732Y1712D01*
D02*
X4662Y1512D02*
X4733Y1513D01*
D02*
X4733Y2314D02*
X4662Y2312D01*
D02*
X4733Y2109D02*
X4733Y2314D01*
D02*
X4662Y2111D02*
X4733Y2109D01*
D02*
X4733Y3313D02*
X4662Y3312D01*
D02*
X4733Y3512D02*
X4733Y3313D01*
D02*
X4662Y3512D02*
X4733Y3512D01*
D02*
X4913Y2711D02*
X4662Y2712D01*
D02*
X6597Y2718D02*
X5950Y2711D01*
D02*
X4913Y2811D02*
X4662Y2811D01*
D02*
X5534Y2531D02*
X5534Y2792D01*
D02*
X2350Y513D02*
X5012Y513D01*
D02*
X2407Y1312D02*
X2350Y1314D01*
D02*
X3659Y1312D02*
X3707Y1312D01*
D02*
X3559Y1312D02*
X3607Y1312D01*
D02*
X3534Y1209D02*
X3352Y1030D01*
D02*
X3534Y1285D02*
X3534Y1209D01*
D02*
X2554Y414D02*
X4416Y414D01*
D02*
X3454Y613D02*
X4515Y613D01*
D02*
X2454Y613D02*
X3013Y613D01*
D02*
X3733Y3195D02*
X3733Y1930D01*
D02*
X5633Y3214D02*
X5453Y3214D01*
D02*
X5633Y3414D02*
X5633Y3214D01*
D02*
X5806Y3413D02*
X5633Y3414D01*
D02*
X5633Y2811D02*
X5633Y3090D01*
D02*
X5806Y2813D02*
X5633Y2811D01*
D02*
X4714Y2010D02*
X4255Y2010D01*
D02*
X5434Y2214D02*
X5434Y2029D01*
D02*
X5806Y2213D02*
X5434Y2214D01*
D02*
X4714Y1413D02*
X4255Y1413D01*
D02*
X3317Y1513D02*
X2554Y1513D01*
D02*
X5434Y1612D02*
X5434Y1432D01*
D02*
X5806Y1613D02*
X5434Y1612D01*
D02*
X4813Y812D02*
X4150Y812D01*
D02*
X4714Y1314D02*
X4255Y1314D01*
D02*
X3833Y1295D02*
X3833Y1129D01*
D02*
X4932Y1811D02*
X4932Y1333D01*
D02*
X4932Y2612D02*
X4932Y1811D01*
D02*
X4255Y2612D02*
X4932Y2612D01*
D02*
X4013Y309D02*
X2753Y309D01*
D02*
X3833Y731D02*
X3833Y991D01*
D02*
X2933Y1413D02*
X2250Y1413D01*
D02*
X2250Y210D02*
X3814Y210D01*
D02*
X2933Y1338D02*
X2933Y1413D01*
D02*
X4932Y395D02*
X4932Y110D01*
D02*
X4932Y110D02*
X3553Y110D01*
D02*
X5031Y1110D02*
X4951Y1110D01*
D02*
X5031Y1892D02*
X5031Y1110D01*
D02*
X2104Y759D02*
X3112Y759D01*
D02*
X332Y1462D02*
X113Y1462D01*
D02*
X332Y1362D02*
X113Y1362D01*
D02*
X113Y1262D02*
X332Y1262D01*
D02*
X332Y1062D02*
X113Y1062D01*
D02*
X4435Y2711D02*
X4362Y2711D01*
D02*
X4435Y2910D02*
X4435Y2711D01*
D02*
X4362Y2911D02*
X4435Y2910D01*
D02*
X4714Y3214D02*
X4003Y3214D01*
D02*
X4714Y3109D02*
X4003Y3109D01*
D02*
X3733Y1513D02*
X3913Y1513D01*
D02*
X3733Y1338D02*
X3733Y1513D01*
D02*
X3635Y2512D02*
X3634Y3090D01*
D02*
X2731Y2512D02*
X3635Y2512D01*
D02*
X2734Y1731D02*
X2731Y2512D01*
D02*
X1635Y2512D02*
X1635Y1982D01*
D02*
X2231Y2512D02*
X1635Y2512D01*
D02*
X2233Y3077D02*
X2231Y2512D01*
D02*
X3233Y1162D02*
X3233Y1038D01*
D02*
X2036Y1162D02*
X3233Y1162D01*
D02*
X2036Y2195D02*
X2036Y1162D01*
G54D23*
X927Y3172D02*
X938Y3172D01*
X1027Y3172D02*
X1038Y3172D01*
X1127Y3172D02*
X1138Y3172D01*
X2027Y3172D02*
X2038Y3172D01*
X2127Y3172D02*
X2138Y3172D01*
X2227Y3172D02*
X2238Y3172D01*
X924Y3171D02*
X942Y3171D01*
X1024Y3171D02*
X1042Y3171D01*
X1124Y3171D02*
X1142Y3171D01*
X2024Y3171D02*
X2042Y3171D01*
X2124Y3171D02*
X2142Y3171D01*
X2224Y3171D02*
X2242Y3171D01*
X921Y3170D02*
X944Y3170D01*
X1021Y3170D02*
X1044Y3170D01*
X1121Y3170D02*
X1144Y3170D01*
X2021Y3170D02*
X2044Y3170D01*
X2121Y3170D02*
X2144Y3170D01*
X2221Y3170D02*
X2244Y3170D01*
X919Y3169D02*
X946Y3169D01*
X1019Y3169D02*
X1046Y3169D01*
X1119Y3169D02*
X1146Y3169D01*
X2019Y3169D02*
X2046Y3169D01*
X2119Y3169D02*
X2146Y3169D01*
X2219Y3169D02*
X2246Y3169D01*
X917Y3168D02*
X948Y3168D01*
X1017Y3168D02*
X1048Y3168D01*
X1117Y3168D02*
X1148Y3168D01*
X2017Y3168D02*
X2048Y3168D01*
X2117Y3168D02*
X2148Y3168D01*
X2217Y3168D02*
X2248Y3168D01*
X916Y3167D02*
X950Y3167D01*
X1016Y3167D02*
X1050Y3167D01*
X1116Y3167D02*
X1150Y3167D01*
X2016Y3167D02*
X2050Y3167D01*
X2116Y3167D02*
X2149Y3167D01*
X2216Y3167D02*
X2250Y3167D01*
X914Y3166D02*
X951Y3166D01*
X1014Y3166D02*
X1051Y3166D01*
X1114Y3166D02*
X1151Y3166D01*
X2014Y3166D02*
X2051Y3166D01*
X2114Y3166D02*
X2151Y3166D01*
X2214Y3166D02*
X2251Y3166D01*
X913Y3165D02*
X952Y3165D01*
X1013Y3165D02*
X1052Y3165D01*
X1113Y3165D02*
X1152Y3165D01*
X2013Y3165D02*
X2052Y3165D01*
X2113Y3165D02*
X2152Y3165D01*
X2213Y3165D02*
X2252Y3165D01*
X912Y3164D02*
X953Y3164D01*
X1012Y3164D02*
X1053Y3164D01*
X1112Y3164D02*
X1153Y3164D01*
X2012Y3164D02*
X2053Y3164D01*
X2112Y3164D02*
X2153Y3164D01*
X2212Y3164D02*
X2253Y3164D01*
X911Y3163D02*
X954Y3163D01*
X1011Y3163D02*
X1054Y3163D01*
X1111Y3163D02*
X1154Y3163D01*
X2011Y3163D02*
X2054Y3163D01*
X2111Y3163D02*
X2154Y3163D01*
X2211Y3163D02*
X2254Y3163D01*
X910Y3162D02*
X955Y3162D01*
X1010Y3162D02*
X1055Y3162D01*
X1110Y3162D02*
X1155Y3162D01*
X2010Y3162D02*
X2055Y3162D01*
X2110Y3162D02*
X2155Y3162D01*
X2210Y3162D02*
X2255Y3162D01*
X910Y3161D02*
X956Y3161D01*
X1010Y3161D02*
X1056Y3161D01*
X1110Y3161D02*
X1156Y3161D01*
X2010Y3161D02*
X2056Y3161D01*
X2110Y3161D02*
X2156Y3161D01*
X2210Y3161D02*
X2256Y3161D01*
X909Y3160D02*
X957Y3160D01*
X1009Y3160D02*
X1057Y3160D01*
X1109Y3160D02*
X1157Y3160D01*
X2009Y3160D02*
X2057Y3160D01*
X2109Y3160D02*
X2157Y3160D01*
X2209Y3160D02*
X2257Y3160D01*
X908Y3159D02*
X957Y3159D01*
X1008Y3159D02*
X1057Y3159D01*
X1108Y3159D02*
X1157Y3159D01*
X2008Y3159D02*
X2057Y3159D01*
X2108Y3159D02*
X2157Y3159D01*
X2208Y3159D02*
X2257Y3159D01*
X907Y3158D02*
X958Y3158D01*
X1007Y3158D02*
X1058Y3158D01*
X1107Y3158D02*
X1158Y3158D01*
X2007Y3158D02*
X2058Y3158D01*
X2107Y3158D02*
X2158Y3158D01*
X2207Y3158D02*
X2258Y3158D01*
X907Y3157D02*
X958Y3157D01*
X1007Y3157D02*
X1058Y3157D01*
X1107Y3157D02*
X1158Y3157D01*
X2007Y3157D02*
X2058Y3157D01*
X2107Y3157D02*
X2158Y3157D01*
X2207Y3157D02*
X2258Y3157D01*
X906Y3156D02*
X959Y3156D01*
X1006Y3156D02*
X1059Y3156D01*
X1106Y3156D02*
X1159Y3156D01*
X2006Y3156D02*
X2059Y3156D01*
X2106Y3156D02*
X2159Y3156D01*
X2206Y3156D02*
X2259Y3156D01*
X906Y3155D02*
X959Y3155D01*
X1006Y3155D02*
X1059Y3155D01*
X1106Y3155D02*
X1159Y3155D01*
X2006Y3155D02*
X2059Y3155D01*
X2106Y3155D02*
X2159Y3155D01*
X2206Y3155D02*
X2259Y3155D01*
X905Y3154D02*
X960Y3154D01*
X1005Y3154D02*
X1060Y3154D01*
X1105Y3154D02*
X1160Y3154D01*
X2005Y3154D02*
X2060Y3154D01*
X2105Y3154D02*
X2160Y3154D01*
X2205Y3154D02*
X2260Y3154D01*
X905Y3153D02*
X960Y3153D01*
X1005Y3153D02*
X1060Y3153D01*
X1105Y3153D02*
X1160Y3153D01*
X2005Y3153D02*
X2060Y3153D01*
X2105Y3153D02*
X2160Y3153D01*
X2205Y3153D02*
X2260Y3153D01*
X905Y3152D02*
X961Y3152D01*
X1005Y3152D02*
X1061Y3152D01*
X1105Y3152D02*
X1161Y3152D01*
X2005Y3152D02*
X2061Y3152D01*
X2105Y3152D02*
X2161Y3152D01*
X2205Y3152D02*
X2261Y3152D01*
X904Y3151D02*
X961Y3151D01*
X1004Y3151D02*
X1061Y3151D01*
X1104Y3151D02*
X1161Y3151D01*
X2004Y3151D02*
X2061Y3151D01*
X2104Y3151D02*
X2161Y3151D01*
X2204Y3151D02*
X2261Y3151D01*
X904Y3150D02*
X961Y3150D01*
X1004Y3150D02*
X1061Y3150D01*
X1104Y3150D02*
X1161Y3150D01*
X2004Y3150D02*
X2061Y3150D01*
X2104Y3150D02*
X2161Y3150D01*
X2204Y3150D02*
X2261Y3150D01*
X904Y3149D02*
X961Y3149D01*
X1004Y3149D02*
X1061Y3149D01*
X1104Y3149D02*
X1161Y3149D01*
X2004Y3149D02*
X2061Y3149D01*
X2104Y3149D02*
X2161Y3149D01*
X2204Y3149D02*
X2261Y3149D01*
X904Y3148D02*
X962Y3148D01*
X1004Y3148D02*
X1062Y3148D01*
X1104Y3148D02*
X1162Y3148D01*
X2004Y3148D02*
X2062Y3148D01*
X2104Y3148D02*
X2162Y3148D01*
X2204Y3148D02*
X2262Y3148D01*
X904Y3147D02*
X962Y3147D01*
X1004Y3147D02*
X1062Y3147D01*
X1104Y3147D02*
X1162Y3147D01*
X2004Y3147D02*
X2062Y3147D01*
X2104Y3147D02*
X2162Y3147D01*
X2204Y3147D02*
X2262Y3147D01*
X903Y3146D02*
X962Y3146D01*
X1003Y3146D02*
X1062Y3146D01*
X1103Y3146D02*
X1162Y3146D01*
X2003Y3146D02*
X2062Y3146D01*
X2103Y3146D02*
X2162Y3146D01*
X2203Y3146D02*
X2262Y3146D01*
X903Y3145D02*
X962Y3145D01*
X1003Y3145D02*
X1062Y3145D01*
X1103Y3145D02*
X1162Y3145D01*
X2003Y3145D02*
X2062Y3145D01*
X2103Y3145D02*
X2162Y3145D01*
X2203Y3145D02*
X2262Y3145D01*
X903Y3144D02*
X962Y3144D01*
X1003Y3144D02*
X1062Y3144D01*
X1103Y3144D02*
X1162Y3144D01*
X2003Y3144D02*
X2062Y3144D01*
X2103Y3144D02*
X2162Y3144D01*
X2203Y3144D02*
X2262Y3144D01*
X903Y3143D02*
X962Y3143D01*
X1003Y3143D02*
X1062Y3143D01*
X1103Y3143D02*
X1162Y3143D01*
X2003Y3143D02*
X2062Y3143D01*
X2103Y3143D02*
X2162Y3143D01*
X2203Y3143D02*
X2262Y3143D01*
X903Y3142D02*
X962Y3142D01*
X1003Y3142D02*
X1062Y3142D01*
X1103Y3142D02*
X1162Y3142D01*
X2003Y3142D02*
X2062Y3142D01*
X2103Y3142D02*
X2162Y3142D01*
X2203Y3142D02*
X2262Y3142D01*
X903Y3141D02*
X962Y3141D01*
X1003Y3141D02*
X1062Y3141D01*
X1103Y3141D02*
X1162Y3141D01*
X2003Y3141D02*
X2062Y3141D01*
X2103Y3141D02*
X2162Y3141D01*
X2203Y3141D02*
X2262Y3141D01*
X903Y3140D02*
X962Y3140D01*
X1003Y3140D02*
X1062Y3140D01*
X1103Y3140D02*
X1162Y3140D01*
X2003Y3140D02*
X2062Y3140D01*
X2103Y3140D02*
X2162Y3140D01*
X2203Y3140D02*
X2262Y3140D01*
X903Y3139D02*
X962Y3139D01*
X1003Y3139D02*
X1062Y3139D01*
X1103Y3139D02*
X1162Y3139D01*
X2003Y3139D02*
X2062Y3139D01*
X2103Y3139D02*
X2162Y3139D01*
X2203Y3139D02*
X2262Y3139D01*
X903Y3138D02*
X962Y3138D01*
X1003Y3138D02*
X1062Y3138D01*
X1103Y3138D02*
X1162Y3138D01*
X2003Y3138D02*
X2062Y3138D01*
X2103Y3138D02*
X2162Y3138D01*
X2203Y3138D02*
X2262Y3138D01*
X903Y3137D02*
X962Y3137D01*
X1003Y3137D02*
X1062Y3137D01*
X1103Y3137D02*
X1162Y3137D01*
X2003Y3137D02*
X2062Y3137D01*
X2103Y3137D02*
X2162Y3137D01*
X2203Y3137D02*
X2262Y3137D01*
X903Y3136D02*
X962Y3136D01*
X1003Y3136D02*
X1062Y3136D01*
X1103Y3136D02*
X1162Y3136D01*
X2003Y3136D02*
X2062Y3136D01*
X2103Y3136D02*
X2162Y3136D01*
X2203Y3136D02*
X2262Y3136D01*
X903Y3135D02*
X962Y3135D01*
X1003Y3135D02*
X1062Y3135D01*
X1103Y3135D02*
X1162Y3135D01*
X2003Y3135D02*
X2062Y3135D01*
X2103Y3135D02*
X2162Y3135D01*
X2203Y3135D02*
X2262Y3135D01*
X903Y3134D02*
X962Y3134D01*
X1003Y3134D02*
X1062Y3134D01*
X1103Y3134D02*
X1162Y3134D01*
X2003Y3134D02*
X2062Y3134D01*
X2103Y3134D02*
X2162Y3134D01*
X2203Y3134D02*
X2262Y3134D01*
X903Y3133D02*
X962Y3133D01*
X1003Y3133D02*
X1062Y3133D01*
X1103Y3133D02*
X1162Y3133D01*
X2003Y3133D02*
X2062Y3133D01*
X2103Y3133D02*
X2162Y3133D01*
X2203Y3133D02*
X2262Y3133D01*
X903Y3132D02*
X928Y3132D01*
X938Y3132D02*
X962Y3132D01*
X1003Y3132D02*
X1028Y3132D01*
X1038Y3132D02*
X1062Y3132D01*
X1103Y3132D02*
X1128Y3132D01*
X1138Y3132D02*
X1162Y3132D01*
X2003Y3132D02*
X2028Y3132D01*
X2038Y3132D02*
X2062Y3132D01*
X2103Y3132D02*
X2128Y3132D01*
X2138Y3132D02*
X2162Y3132D01*
X2203Y3132D02*
X2228Y3132D01*
X2238Y3132D02*
X2262Y3132D01*
X903Y3131D02*
X924Y3131D01*
X941Y3131D02*
X962Y3131D01*
X1003Y3131D02*
X1024Y3131D01*
X1041Y3131D02*
X1062Y3131D01*
X1103Y3131D02*
X1124Y3131D01*
X1141Y3131D02*
X1162Y3131D01*
X2003Y3131D02*
X2024Y3131D01*
X2041Y3131D02*
X2062Y3131D01*
X2103Y3131D02*
X2124Y3131D01*
X2141Y3131D02*
X2162Y3131D01*
X2203Y3131D02*
X2224Y3131D01*
X2241Y3131D02*
X2262Y3131D01*
X903Y3130D02*
X923Y3130D01*
X943Y3130D02*
X962Y3130D01*
X1003Y3130D02*
X1023Y3130D01*
X1043Y3130D02*
X1062Y3130D01*
X1103Y3130D02*
X1123Y3130D01*
X1143Y3130D02*
X1162Y3130D01*
X2003Y3130D02*
X2023Y3130D01*
X2043Y3130D02*
X2062Y3130D01*
X2103Y3130D02*
X2123Y3130D01*
X2143Y3130D02*
X2162Y3130D01*
X2203Y3130D02*
X2223Y3130D01*
X2243Y3130D02*
X2262Y3130D01*
X903Y3129D02*
X921Y3129D01*
X945Y3129D02*
X962Y3129D01*
X1003Y3129D02*
X1021Y3129D01*
X1045Y3129D02*
X1062Y3129D01*
X1103Y3129D02*
X1121Y3129D01*
X1145Y3129D02*
X1162Y3129D01*
X2003Y3129D02*
X2021Y3129D01*
X2044Y3129D02*
X2062Y3129D01*
X2103Y3129D02*
X2121Y3129D01*
X2144Y3129D02*
X2162Y3129D01*
X2203Y3129D02*
X2221Y3129D01*
X2244Y3129D02*
X2262Y3129D01*
X903Y3128D02*
X920Y3128D01*
X946Y3128D02*
X962Y3128D01*
X1003Y3128D02*
X1020Y3128D01*
X1046Y3128D02*
X1062Y3128D01*
X1103Y3128D02*
X1120Y3128D01*
X1146Y3128D02*
X1162Y3128D01*
X2003Y3128D02*
X2020Y3128D01*
X2046Y3128D02*
X2062Y3128D01*
X2103Y3128D02*
X2120Y3128D01*
X2146Y3128D02*
X2162Y3128D01*
X2203Y3128D02*
X2220Y3128D01*
X2246Y3128D02*
X2262Y3128D01*
X903Y3127D02*
X918Y3127D01*
X947Y3127D02*
X962Y3127D01*
X1003Y3127D02*
X1018Y3127D01*
X1047Y3127D02*
X1062Y3127D01*
X1103Y3127D02*
X1118Y3127D01*
X1147Y3127D02*
X1162Y3127D01*
X2003Y3127D02*
X2018Y3127D01*
X2047Y3127D02*
X2062Y3127D01*
X2103Y3127D02*
X2118Y3127D01*
X2147Y3127D02*
X2162Y3127D01*
X2203Y3127D02*
X2218Y3127D01*
X2247Y3127D02*
X2262Y3127D01*
X903Y3126D02*
X917Y3126D01*
X948Y3126D02*
X962Y3126D01*
X1003Y3126D02*
X1017Y3126D01*
X1048Y3126D02*
X1062Y3126D01*
X1103Y3126D02*
X1117Y3126D01*
X1148Y3126D02*
X1162Y3126D01*
X2003Y3126D02*
X2017Y3126D01*
X2048Y3126D02*
X2062Y3126D01*
X2103Y3126D02*
X2117Y3126D01*
X2148Y3126D02*
X2162Y3126D01*
X2203Y3126D02*
X2217Y3126D01*
X2248Y3126D02*
X2262Y3126D01*
X903Y3125D02*
X917Y3125D01*
X949Y3125D02*
X962Y3125D01*
X1003Y3125D02*
X1017Y3125D01*
X1049Y3125D02*
X1062Y3125D01*
X1103Y3125D02*
X1117Y3125D01*
X1149Y3125D02*
X1162Y3125D01*
X2003Y3125D02*
X2017Y3125D01*
X2049Y3125D02*
X2062Y3125D01*
X2103Y3125D02*
X2117Y3125D01*
X2149Y3125D02*
X2162Y3125D01*
X2203Y3125D02*
X2217Y3125D01*
X2249Y3125D02*
X2262Y3125D01*
X903Y3124D02*
X916Y3124D01*
X950Y3124D02*
X962Y3124D01*
X1003Y3124D02*
X1016Y3124D01*
X1050Y3124D02*
X1062Y3124D01*
X1103Y3124D02*
X1116Y3124D01*
X1150Y3124D02*
X1162Y3124D01*
X2003Y3124D02*
X2016Y3124D01*
X2049Y3124D02*
X2062Y3124D01*
X2103Y3124D02*
X2116Y3124D01*
X2149Y3124D02*
X2162Y3124D01*
X2203Y3124D02*
X2216Y3124D01*
X2249Y3124D02*
X2262Y3124D01*
X903Y3123D02*
X915Y3123D01*
X950Y3123D02*
X962Y3123D01*
X1003Y3123D02*
X1015Y3123D01*
X1050Y3123D02*
X1062Y3123D01*
X1103Y3123D02*
X1115Y3123D01*
X1150Y3123D02*
X1162Y3123D01*
X2003Y3123D02*
X2015Y3123D01*
X2050Y3123D02*
X2062Y3123D01*
X2103Y3123D02*
X2115Y3123D01*
X2150Y3123D02*
X2162Y3123D01*
X2203Y3123D02*
X2215Y3123D01*
X2250Y3123D02*
X2262Y3123D01*
X903Y3122D02*
X915Y3122D01*
X951Y3122D02*
X962Y3122D01*
X1003Y3122D02*
X1015Y3122D01*
X1051Y3122D02*
X1062Y3122D01*
X1103Y3122D02*
X1115Y3122D01*
X1151Y3122D02*
X1162Y3122D01*
X2003Y3122D02*
X2015Y3122D01*
X2051Y3122D02*
X2062Y3122D01*
X2103Y3122D02*
X2115Y3122D01*
X2151Y3122D02*
X2162Y3122D01*
X2203Y3122D02*
X2215Y3122D01*
X2251Y3122D02*
X2262Y3122D01*
X903Y3121D02*
X914Y3121D01*
X951Y3121D02*
X962Y3121D01*
X1003Y3121D02*
X1014Y3121D01*
X1051Y3121D02*
X1062Y3121D01*
X1103Y3121D02*
X1114Y3121D01*
X1151Y3121D02*
X1162Y3121D01*
X2003Y3121D02*
X2014Y3121D01*
X2051Y3121D02*
X2062Y3121D01*
X2103Y3121D02*
X2114Y3121D01*
X2151Y3121D02*
X2162Y3121D01*
X2203Y3121D02*
X2214Y3121D01*
X2251Y3121D02*
X2262Y3121D01*
X903Y3120D02*
X914Y3120D01*
X952Y3120D02*
X962Y3120D01*
X1003Y3120D02*
X1014Y3120D01*
X1052Y3120D02*
X1062Y3120D01*
X1103Y3120D02*
X1114Y3120D01*
X1152Y3120D02*
X1162Y3120D01*
X2003Y3120D02*
X2014Y3120D01*
X2052Y3120D02*
X2062Y3120D01*
X2103Y3120D02*
X2114Y3120D01*
X2152Y3120D02*
X2162Y3120D01*
X2203Y3120D02*
X2214Y3120D01*
X2252Y3120D02*
X2262Y3120D01*
X903Y3119D02*
X913Y3119D01*
X952Y3119D02*
X962Y3119D01*
X1003Y3119D02*
X1013Y3119D01*
X1052Y3119D02*
X1062Y3119D01*
X1103Y3119D02*
X1113Y3119D01*
X1152Y3119D02*
X1162Y3119D01*
X2003Y3119D02*
X2013Y3119D01*
X2052Y3119D02*
X2062Y3119D01*
X2103Y3119D02*
X2113Y3119D01*
X2152Y3119D02*
X2162Y3119D01*
X2203Y3119D02*
X2213Y3119D01*
X2252Y3119D02*
X2262Y3119D01*
X903Y3118D02*
X913Y3118D01*
X952Y3118D02*
X962Y3118D01*
X1003Y3118D02*
X1013Y3118D01*
X1052Y3118D02*
X1062Y3118D01*
X1103Y3118D02*
X1113Y3118D01*
X1152Y3118D02*
X1162Y3118D01*
X2003Y3118D02*
X2013Y3118D01*
X2052Y3118D02*
X2062Y3118D01*
X2103Y3118D02*
X2113Y3118D01*
X2152Y3118D02*
X2162Y3118D01*
X2203Y3118D02*
X2213Y3118D01*
X2252Y3118D02*
X2262Y3118D01*
X903Y3117D02*
X913Y3117D01*
X953Y3117D02*
X962Y3117D01*
X1003Y3117D02*
X1013Y3117D01*
X1053Y3117D02*
X1062Y3117D01*
X1103Y3117D02*
X1113Y3117D01*
X1153Y3117D02*
X1162Y3117D01*
X2003Y3117D02*
X2013Y3117D01*
X2053Y3117D02*
X2062Y3117D01*
X2103Y3117D02*
X2113Y3117D01*
X2153Y3117D02*
X2162Y3117D01*
X2203Y3117D02*
X2213Y3117D01*
X2253Y3117D02*
X2262Y3117D01*
X903Y3116D02*
X913Y3116D01*
X953Y3116D02*
X962Y3116D01*
X1003Y3116D02*
X1013Y3116D01*
X1053Y3116D02*
X1062Y3116D01*
X1103Y3116D02*
X1113Y3116D01*
X1153Y3116D02*
X1162Y3116D01*
X2003Y3116D02*
X2013Y3116D01*
X2053Y3116D02*
X2062Y3116D01*
X2103Y3116D02*
X2113Y3116D01*
X2153Y3116D02*
X2162Y3116D01*
X2203Y3116D02*
X2212Y3116D01*
X2253Y3116D02*
X2262Y3116D01*
X903Y3115D02*
X912Y3115D01*
X953Y3115D02*
X962Y3115D01*
X1003Y3115D02*
X1012Y3115D01*
X1053Y3115D02*
X1062Y3115D01*
X1103Y3115D02*
X1112Y3115D01*
X1153Y3115D02*
X1162Y3115D01*
X2003Y3115D02*
X2012Y3115D01*
X2053Y3115D02*
X2062Y3115D01*
X2103Y3115D02*
X2112Y3115D01*
X2153Y3115D02*
X2162Y3115D01*
X2203Y3115D02*
X2212Y3115D01*
X2253Y3115D02*
X2262Y3115D01*
X903Y3114D02*
X912Y3114D01*
X953Y3114D02*
X962Y3114D01*
X1003Y3114D02*
X1012Y3114D01*
X1053Y3114D02*
X1062Y3114D01*
X1103Y3114D02*
X1112Y3114D01*
X1153Y3114D02*
X1162Y3114D01*
X2003Y3114D02*
X2012Y3114D01*
X2053Y3114D02*
X2062Y3114D01*
X2103Y3114D02*
X2112Y3114D01*
X2153Y3114D02*
X2162Y3114D01*
X2203Y3114D02*
X2212Y3114D01*
X2253Y3114D02*
X2262Y3114D01*
X903Y3113D02*
X912Y3113D01*
X953Y3113D02*
X962Y3113D01*
X1003Y3113D02*
X1012Y3113D01*
X1053Y3113D02*
X1062Y3113D01*
X1103Y3113D02*
X1112Y3113D01*
X1153Y3113D02*
X1162Y3113D01*
X2003Y3113D02*
X2012Y3113D01*
X2053Y3113D02*
X2062Y3113D01*
X2103Y3113D02*
X2112Y3113D01*
X2153Y3113D02*
X2162Y3113D01*
X2203Y3113D02*
X2212Y3113D01*
X2253Y3113D02*
X2262Y3113D01*
X903Y3112D02*
X912Y3112D01*
X953Y3112D02*
X962Y3112D01*
X1003Y3112D02*
X1012Y3112D01*
X1053Y3112D02*
X1062Y3112D01*
X1103Y3112D02*
X1112Y3112D01*
X1153Y3112D02*
X1162Y3112D01*
X2003Y3112D02*
X2012Y3112D01*
X2053Y3112D02*
X2062Y3112D01*
X2103Y3112D02*
X2112Y3112D01*
X2153Y3112D02*
X2162Y3112D01*
X2203Y3112D02*
X2212Y3112D01*
X2253Y3112D02*
X2262Y3112D01*
X903Y3111D02*
X912Y3111D01*
X953Y3111D02*
X962Y3111D01*
X1003Y3111D02*
X1012Y3111D01*
X1053Y3111D02*
X1062Y3111D01*
X1103Y3111D02*
X1112Y3111D01*
X1153Y3111D02*
X1162Y3111D01*
X2003Y3111D02*
X2012Y3111D01*
X2053Y3111D02*
X2062Y3111D01*
X2103Y3111D02*
X2112Y3111D01*
X2153Y3111D02*
X2162Y3111D01*
X2203Y3111D02*
X2212Y3111D01*
X2253Y3111D02*
X2262Y3111D01*
X903Y3110D02*
X912Y3110D01*
X953Y3110D02*
X962Y3110D01*
X1003Y3110D02*
X1012Y3110D01*
X1053Y3110D02*
X1062Y3110D01*
X1103Y3110D02*
X1112Y3110D01*
X1153Y3110D02*
X1162Y3110D01*
X2003Y3110D02*
X2012Y3110D01*
X2053Y3110D02*
X2062Y3110D01*
X2103Y3110D02*
X2112Y3110D01*
X2153Y3110D02*
X2162Y3110D01*
X2203Y3110D02*
X2212Y3110D01*
X2253Y3110D02*
X2262Y3110D01*
X903Y3109D02*
X913Y3109D01*
X953Y3109D02*
X962Y3109D01*
X1003Y3109D02*
X1013Y3109D01*
X1053Y3109D02*
X1062Y3109D01*
X1103Y3109D02*
X1113Y3109D01*
X1153Y3109D02*
X1162Y3109D01*
X2003Y3109D02*
X2013Y3109D01*
X2053Y3109D02*
X2062Y3109D01*
X2103Y3109D02*
X2113Y3109D01*
X2153Y3109D02*
X2162Y3109D01*
X2203Y3109D02*
X2212Y3109D01*
X2253Y3109D02*
X2262Y3109D01*
X903Y3108D02*
X913Y3108D01*
X953Y3108D02*
X962Y3108D01*
X1003Y3108D02*
X1013Y3108D01*
X1053Y3108D02*
X1062Y3108D01*
X1103Y3108D02*
X1113Y3108D01*
X1153Y3108D02*
X1162Y3108D01*
X2003Y3108D02*
X2013Y3108D01*
X2053Y3108D02*
X2062Y3108D01*
X2103Y3108D02*
X2113Y3108D01*
X2153Y3108D02*
X2162Y3108D01*
X2203Y3108D02*
X2213Y3108D01*
X2253Y3108D02*
X2262Y3108D01*
X903Y3107D02*
X913Y3107D01*
X952Y3107D02*
X962Y3107D01*
X1003Y3107D02*
X1013Y3107D01*
X1052Y3107D02*
X1062Y3107D01*
X1103Y3107D02*
X1113Y3107D01*
X1152Y3107D02*
X1162Y3107D01*
X2003Y3107D02*
X2013Y3107D01*
X2052Y3107D02*
X2062Y3107D01*
X2103Y3107D02*
X2113Y3107D01*
X2152Y3107D02*
X2162Y3107D01*
X2203Y3107D02*
X2213Y3107D01*
X2252Y3107D02*
X2262Y3107D01*
X903Y3106D02*
X913Y3106D01*
X952Y3106D02*
X962Y3106D01*
X1003Y3106D02*
X1013Y3106D01*
X1052Y3106D02*
X1062Y3106D01*
X1103Y3106D02*
X1113Y3106D01*
X1152Y3106D02*
X1162Y3106D01*
X2003Y3106D02*
X2013Y3106D01*
X2052Y3106D02*
X2062Y3106D01*
X2103Y3106D02*
X2113Y3106D01*
X2152Y3106D02*
X2162Y3106D01*
X2203Y3106D02*
X2213Y3106D01*
X2252Y3106D02*
X2262Y3106D01*
X903Y3105D02*
X914Y3105D01*
X952Y3105D02*
X962Y3105D01*
X1003Y3105D02*
X1014Y3105D01*
X1052Y3105D02*
X1062Y3105D01*
X1103Y3105D02*
X1114Y3105D01*
X1152Y3105D02*
X1162Y3105D01*
X2003Y3105D02*
X2014Y3105D01*
X2052Y3105D02*
X2062Y3105D01*
X2103Y3105D02*
X2114Y3105D01*
X2152Y3105D02*
X2162Y3105D01*
X2203Y3105D02*
X2214Y3105D01*
X2252Y3105D02*
X2262Y3105D01*
X903Y3104D02*
X914Y3104D01*
X951Y3104D02*
X962Y3104D01*
X1003Y3104D02*
X1014Y3104D01*
X1051Y3104D02*
X1062Y3104D01*
X1103Y3104D02*
X1114Y3104D01*
X1151Y3104D02*
X1162Y3104D01*
X2003Y3104D02*
X2014Y3104D01*
X2051Y3104D02*
X2062Y3104D01*
X2103Y3104D02*
X2114Y3104D01*
X2151Y3104D02*
X2162Y3104D01*
X2203Y3104D02*
X2214Y3104D01*
X2251Y3104D02*
X2262Y3104D01*
X903Y3103D02*
X915Y3103D01*
X951Y3103D02*
X962Y3103D01*
X1003Y3103D02*
X1015Y3103D01*
X1051Y3103D02*
X1062Y3103D01*
X1103Y3103D02*
X1115Y3103D01*
X1151Y3103D02*
X1162Y3103D01*
X2003Y3103D02*
X2015Y3103D01*
X2051Y3103D02*
X2062Y3103D01*
X2103Y3103D02*
X2115Y3103D01*
X2151Y3103D02*
X2162Y3103D01*
X2203Y3103D02*
X2215Y3103D01*
X2251Y3103D02*
X2262Y3103D01*
X903Y3102D02*
X915Y3102D01*
X950Y3102D02*
X962Y3102D01*
X1003Y3102D02*
X1015Y3102D01*
X1050Y3102D02*
X1062Y3102D01*
X1103Y3102D02*
X1115Y3102D01*
X1150Y3102D02*
X1162Y3102D01*
X2003Y3102D02*
X2015Y3102D01*
X2050Y3102D02*
X2062Y3102D01*
X2103Y3102D02*
X2115Y3102D01*
X2150Y3102D02*
X2162Y3102D01*
X2203Y3102D02*
X2215Y3102D01*
X2250Y3102D02*
X2262Y3102D01*
X903Y3101D02*
X916Y3101D01*
X949Y3101D02*
X962Y3101D01*
X1003Y3101D02*
X1016Y3101D01*
X1049Y3101D02*
X1062Y3101D01*
X1103Y3101D02*
X1116Y3101D01*
X1149Y3101D02*
X1162Y3101D01*
X2003Y3101D02*
X2016Y3101D01*
X2049Y3101D02*
X2062Y3101D01*
X2103Y3101D02*
X2116Y3101D01*
X2149Y3101D02*
X2162Y3101D01*
X2203Y3101D02*
X2216Y3101D01*
X2249Y3101D02*
X2262Y3101D01*
X903Y3100D02*
X917Y3100D01*
X949Y3100D02*
X962Y3100D01*
X1003Y3100D02*
X1017Y3100D01*
X1049Y3100D02*
X1062Y3100D01*
X1103Y3100D02*
X1117Y3100D01*
X1149Y3100D02*
X1162Y3100D01*
X2003Y3100D02*
X2017Y3100D01*
X2049Y3100D02*
X2062Y3100D01*
X2103Y3100D02*
X2117Y3100D01*
X2149Y3100D02*
X2162Y3100D01*
X2203Y3100D02*
X2217Y3100D01*
X2249Y3100D02*
X2262Y3100D01*
X903Y3099D02*
X918Y3099D01*
X948Y3099D02*
X962Y3099D01*
X1003Y3099D02*
X1018Y3099D01*
X1048Y3099D02*
X1062Y3099D01*
X1103Y3099D02*
X1118Y3099D01*
X1148Y3099D02*
X1162Y3099D01*
X2003Y3099D02*
X2018Y3099D01*
X2048Y3099D02*
X2062Y3099D01*
X2103Y3099D02*
X2118Y3099D01*
X2148Y3099D02*
X2162Y3099D01*
X2203Y3099D02*
X2218Y3099D01*
X2248Y3099D02*
X2262Y3099D01*
X903Y3098D02*
X919Y3098D01*
X947Y3098D02*
X962Y3098D01*
X1003Y3098D02*
X1019Y3098D01*
X1047Y3098D02*
X1062Y3098D01*
X1103Y3098D02*
X1119Y3098D01*
X1147Y3098D02*
X1162Y3098D01*
X2003Y3098D02*
X2019Y3098D01*
X2047Y3098D02*
X2062Y3098D01*
X2103Y3098D02*
X2119Y3098D01*
X2147Y3098D02*
X2162Y3098D01*
X2203Y3098D02*
X2219Y3098D01*
X2247Y3098D02*
X2262Y3098D01*
X903Y3097D02*
X920Y3097D01*
X946Y3097D02*
X962Y3097D01*
X1003Y3097D02*
X1020Y3097D01*
X1046Y3097D02*
X1062Y3097D01*
X1103Y3097D02*
X1120Y3097D01*
X1146Y3097D02*
X1162Y3097D01*
X2003Y3097D02*
X2020Y3097D01*
X2046Y3097D02*
X2062Y3097D01*
X2103Y3097D02*
X2120Y3097D01*
X2146Y3097D02*
X2162Y3097D01*
X2203Y3097D02*
X2220Y3097D01*
X2246Y3097D02*
X2262Y3097D01*
X903Y3096D02*
X921Y3096D01*
X944Y3096D02*
X962Y3096D01*
X1003Y3096D02*
X1021Y3096D01*
X1044Y3096D02*
X1062Y3096D01*
X1103Y3096D02*
X1121Y3096D01*
X1144Y3096D02*
X1162Y3096D01*
X2003Y3096D02*
X2021Y3096D01*
X2044Y3096D02*
X2062Y3096D01*
X2103Y3096D02*
X2121Y3096D01*
X2144Y3096D02*
X2162Y3096D01*
X2203Y3096D02*
X2221Y3096D01*
X2244Y3096D02*
X2262Y3096D01*
X903Y3095D02*
X923Y3095D01*
X943Y3095D02*
X962Y3095D01*
X1003Y3095D02*
X1023Y3095D01*
X1043Y3095D02*
X1062Y3095D01*
X1103Y3095D02*
X1123Y3095D01*
X1143Y3095D02*
X1162Y3095D01*
X2003Y3095D02*
X2023Y3095D01*
X2042Y3095D02*
X2062Y3095D01*
X2103Y3095D02*
X2123Y3095D01*
X2143Y3095D02*
X2162Y3095D01*
X2203Y3095D02*
X2223Y3095D01*
X2243Y3095D02*
X2262Y3095D01*
X903Y3094D02*
X925Y3094D01*
X940Y3094D02*
X962Y3094D01*
X1003Y3094D02*
X1025Y3094D01*
X1040Y3094D02*
X1062Y3094D01*
X1103Y3094D02*
X1125Y3094D01*
X1140Y3094D02*
X1162Y3094D01*
X2003Y3094D02*
X2025Y3094D01*
X2040Y3094D02*
X2062Y3094D01*
X2103Y3094D02*
X2125Y3094D01*
X2140Y3094D02*
X2162Y3094D01*
X2203Y3094D02*
X2225Y3094D01*
X2240Y3094D02*
X2262Y3094D01*
X903Y3093D02*
X928Y3093D01*
X937Y3093D02*
X962Y3093D01*
X1003Y3093D02*
X1028Y3093D01*
X1037Y3093D02*
X1062Y3093D01*
X1103Y3093D02*
X1128Y3093D01*
X1137Y3093D02*
X1162Y3093D01*
X2003Y3093D02*
X2028Y3093D01*
X2037Y3093D02*
X2062Y3093D01*
X2103Y3093D02*
X2128Y3093D01*
X2137Y3093D02*
X2162Y3093D01*
X2203Y3093D02*
X2228Y3093D01*
X2237Y3093D02*
X2262Y3093D01*
X903Y3092D02*
X962Y3092D01*
X1003Y3092D02*
X1062Y3092D01*
X1103Y3092D02*
X1162Y3092D01*
X2003Y3092D02*
X2062Y3092D01*
X2103Y3092D02*
X2162Y3092D01*
X2203Y3092D02*
X2262Y3092D01*
X903Y3091D02*
X962Y3091D01*
X1003Y3091D02*
X1062Y3091D01*
X1103Y3091D02*
X1162Y3091D01*
X2003Y3091D02*
X2062Y3091D01*
X2103Y3091D02*
X2162Y3091D01*
X2203Y3091D02*
X2262Y3091D01*
X903Y3090D02*
X962Y3090D01*
X1003Y3090D02*
X1062Y3090D01*
X1103Y3090D02*
X1162Y3090D01*
X2003Y3090D02*
X2062Y3090D01*
X2103Y3090D02*
X2162Y3090D01*
X2203Y3090D02*
X2262Y3090D01*
X903Y3089D02*
X962Y3089D01*
X1003Y3089D02*
X1062Y3089D01*
X1103Y3089D02*
X1162Y3089D01*
X2003Y3089D02*
X2062Y3089D01*
X2103Y3089D02*
X2162Y3089D01*
X2203Y3089D02*
X2262Y3089D01*
X903Y3088D02*
X962Y3088D01*
X1003Y3088D02*
X1062Y3088D01*
X1103Y3088D02*
X1162Y3088D01*
X2003Y3088D02*
X2062Y3088D01*
X2103Y3088D02*
X2162Y3088D01*
X2203Y3088D02*
X2262Y3088D01*
X903Y3087D02*
X962Y3087D01*
X1003Y3087D02*
X1062Y3087D01*
X1103Y3087D02*
X1162Y3087D01*
X2003Y3087D02*
X2062Y3087D01*
X2103Y3087D02*
X2162Y3087D01*
X2203Y3087D02*
X2262Y3087D01*
X903Y3086D02*
X962Y3086D01*
X1003Y3086D02*
X1062Y3086D01*
X1103Y3086D02*
X1162Y3086D01*
X2003Y3086D02*
X2062Y3086D01*
X2103Y3086D02*
X2162Y3086D01*
X2203Y3086D02*
X2262Y3086D01*
X903Y3085D02*
X962Y3085D01*
X1003Y3085D02*
X1062Y3085D01*
X1103Y3085D02*
X1162Y3085D01*
X2003Y3085D02*
X2062Y3085D01*
X2103Y3085D02*
X2162Y3085D01*
X2203Y3085D02*
X2262Y3085D01*
X903Y3084D02*
X962Y3084D01*
X1003Y3084D02*
X1062Y3084D01*
X1103Y3084D02*
X1162Y3084D01*
X2003Y3084D02*
X2062Y3084D01*
X2103Y3084D02*
X2162Y3084D01*
X2203Y3084D02*
X2262Y3084D01*
X903Y3083D02*
X962Y3083D01*
X1003Y3083D02*
X1062Y3083D01*
X1103Y3083D02*
X1162Y3083D01*
X2003Y3083D02*
X2062Y3083D01*
X2103Y3083D02*
X2162Y3083D01*
X2203Y3083D02*
X2262Y3083D01*
X903Y3082D02*
X962Y3082D01*
X1003Y3082D02*
X1062Y3082D01*
X1103Y3082D02*
X1162Y3082D01*
X2003Y3082D02*
X2062Y3082D01*
X2103Y3082D02*
X2162Y3082D01*
X2203Y3082D02*
X2262Y3082D01*
X903Y3081D02*
X962Y3081D01*
X1003Y3081D02*
X1062Y3081D01*
X1103Y3081D02*
X1162Y3081D01*
X2003Y3081D02*
X2062Y3081D01*
X2103Y3081D02*
X2162Y3081D01*
X2203Y3081D02*
X2262Y3081D01*
X903Y3080D02*
X962Y3080D01*
X1003Y3080D02*
X1062Y3080D01*
X1103Y3080D02*
X1162Y3080D01*
X2003Y3080D02*
X2062Y3080D01*
X2103Y3080D02*
X2162Y3080D01*
X2203Y3080D02*
X2262Y3080D01*
X903Y3079D02*
X962Y3079D01*
X1003Y3079D02*
X1062Y3079D01*
X1103Y3079D02*
X1162Y3079D01*
X2003Y3079D02*
X2062Y3079D01*
X2103Y3079D02*
X2162Y3079D01*
X2203Y3079D02*
X2262Y3079D01*
X904Y3078D02*
X962Y3078D01*
X1004Y3078D02*
X1062Y3078D01*
X1104Y3078D02*
X1162Y3078D01*
X2004Y3078D02*
X2062Y3078D01*
X2104Y3078D02*
X2162Y3078D01*
X2204Y3078D02*
X2262Y3078D01*
X904Y3077D02*
X962Y3077D01*
X1004Y3077D02*
X1062Y3077D01*
X1104Y3077D02*
X1162Y3077D01*
X2004Y3077D02*
X2062Y3077D01*
X2104Y3077D02*
X2162Y3077D01*
X2204Y3077D02*
X2262Y3077D01*
X904Y3076D02*
X961Y3076D01*
X1004Y3076D02*
X1061Y3076D01*
X1104Y3076D02*
X1161Y3076D01*
X2004Y3076D02*
X2061Y3076D01*
X2104Y3076D02*
X2161Y3076D01*
X2204Y3076D02*
X2261Y3076D01*
X904Y3075D02*
X961Y3075D01*
X1004Y3075D02*
X1061Y3075D01*
X1104Y3075D02*
X1161Y3075D01*
X2004Y3075D02*
X2061Y3075D01*
X2104Y3075D02*
X2161Y3075D01*
X2204Y3075D02*
X2261Y3075D01*
X904Y3074D02*
X961Y3074D01*
X1004Y3074D02*
X1061Y3074D01*
X1104Y3074D02*
X1161Y3074D01*
X2004Y3074D02*
X2061Y3074D01*
X2104Y3074D02*
X2161Y3074D01*
X2204Y3074D02*
X2261Y3074D01*
X905Y3073D02*
X961Y3073D01*
X1005Y3073D02*
X1061Y3073D01*
X1105Y3073D02*
X1161Y3073D01*
X2005Y3073D02*
X2061Y3073D01*
X2105Y3073D02*
X2161Y3073D01*
X2205Y3073D02*
X2261Y3073D01*
X905Y3072D02*
X960Y3072D01*
X1005Y3072D02*
X1060Y3072D01*
X1105Y3072D02*
X1160Y3072D01*
X2005Y3072D02*
X2060Y3072D01*
X2105Y3072D02*
X2160Y3072D01*
X2205Y3072D02*
X2260Y3072D01*
X906Y3071D02*
X960Y3071D01*
X1006Y3071D02*
X1060Y3071D01*
X1106Y3071D02*
X1160Y3071D01*
X2005Y3071D02*
X2060Y3071D01*
X2105Y3071D02*
X2160Y3071D01*
X2205Y3071D02*
X2260Y3071D01*
X906Y3070D02*
X959Y3070D01*
X1006Y3070D02*
X1059Y3070D01*
X1106Y3070D02*
X1159Y3070D01*
X2006Y3070D02*
X2059Y3070D01*
X2106Y3070D02*
X2159Y3070D01*
X2206Y3070D02*
X2259Y3070D01*
X906Y3069D02*
X959Y3069D01*
X1006Y3069D02*
X1059Y3069D01*
X1106Y3069D02*
X1159Y3069D01*
X2006Y3069D02*
X2059Y3069D01*
X2106Y3069D02*
X2159Y3069D01*
X2206Y3069D02*
X2259Y3069D01*
X907Y3068D02*
X958Y3068D01*
X1007Y3068D02*
X1058Y3068D01*
X1107Y3068D02*
X1158Y3068D01*
X2007Y3068D02*
X2058Y3068D01*
X2107Y3068D02*
X2158Y3068D01*
X2207Y3068D02*
X2258Y3068D01*
X908Y3067D02*
X958Y3067D01*
X1008Y3067D02*
X1058Y3067D01*
X1108Y3067D02*
X1158Y3067D01*
X2008Y3067D02*
X2058Y3067D01*
X2108Y3067D02*
X2158Y3067D01*
X2208Y3067D02*
X2258Y3067D01*
X908Y3066D02*
X957Y3066D01*
X1008Y3066D02*
X1057Y3066D01*
X1108Y3066D02*
X1157Y3066D01*
X2008Y3066D02*
X2057Y3066D01*
X2108Y3066D02*
X2157Y3066D01*
X2208Y3066D02*
X2257Y3066D01*
X909Y3065D02*
X956Y3065D01*
X1009Y3065D02*
X1056Y3065D01*
X1109Y3065D02*
X1156Y3065D01*
X2009Y3065D02*
X2056Y3065D01*
X2109Y3065D02*
X2156Y3065D01*
X2209Y3065D02*
X2256Y3065D01*
X910Y3064D02*
X956Y3064D01*
X1010Y3064D02*
X1056Y3064D01*
X1110Y3064D02*
X1156Y3064D01*
X2010Y3064D02*
X2056Y3064D01*
X2110Y3064D02*
X2156Y3064D01*
X2210Y3064D02*
X2256Y3064D01*
X911Y3063D02*
X955Y3063D01*
X1010Y3063D02*
X1055Y3063D01*
X1110Y3063D02*
X1155Y3063D01*
X2010Y3063D02*
X2055Y3063D01*
X2110Y3063D02*
X2155Y3063D01*
X2210Y3063D02*
X2255Y3063D01*
X911Y3062D02*
X954Y3062D01*
X1011Y3062D02*
X1054Y3062D01*
X1111Y3062D02*
X1154Y3062D01*
X2011Y3062D02*
X2054Y3062D01*
X2111Y3062D02*
X2154Y3062D01*
X2211Y3062D02*
X2254Y3062D01*
X912Y3061D02*
X953Y3061D01*
X1012Y3061D02*
X1053Y3061D01*
X1112Y3061D02*
X1153Y3061D01*
X2012Y3061D02*
X2053Y3061D01*
X2112Y3061D02*
X2153Y3061D01*
X2212Y3061D02*
X2253Y3061D01*
X913Y3060D02*
X952Y3060D01*
X1013Y3060D02*
X1052Y3060D01*
X1113Y3060D02*
X1152Y3060D01*
X2013Y3060D02*
X2052Y3060D01*
X2113Y3060D02*
X2152Y3060D01*
X2213Y3060D02*
X2252Y3060D01*
X915Y3059D02*
X951Y3059D01*
X1015Y3059D02*
X1051Y3059D01*
X1115Y3059D02*
X1151Y3059D01*
X2015Y3059D02*
X2051Y3059D01*
X2115Y3059D02*
X2151Y3059D01*
X2215Y3059D02*
X2251Y3059D01*
X916Y3058D02*
X949Y3058D01*
X1016Y3058D02*
X1049Y3058D01*
X1116Y3058D02*
X1149Y3058D01*
X2016Y3058D02*
X2049Y3058D01*
X2116Y3058D02*
X2149Y3058D01*
X2216Y3058D02*
X2249Y3058D01*
X918Y3057D02*
X948Y3057D01*
X1018Y3057D02*
X1048Y3057D01*
X1118Y3057D02*
X1148Y3057D01*
X2018Y3057D02*
X2048Y3057D01*
X2118Y3057D02*
X2148Y3057D01*
X2218Y3057D02*
X2248Y3057D01*
X919Y3056D02*
X946Y3056D01*
X1019Y3056D02*
X1046Y3056D01*
X1119Y3056D02*
X1146Y3056D01*
X2019Y3056D02*
X2046Y3056D01*
X2119Y3056D02*
X2146Y3056D01*
X2219Y3056D02*
X2246Y3056D01*
X921Y3055D02*
X944Y3055D01*
X1021Y3055D02*
X1044Y3055D01*
X1121Y3055D02*
X1144Y3055D01*
X2021Y3055D02*
X2044Y3055D01*
X2121Y3055D02*
X2144Y3055D01*
X2221Y3055D02*
X2244Y3055D01*
X924Y3054D02*
X941Y3054D01*
X1024Y3054D02*
X1041Y3054D01*
X1124Y3054D02*
X1141Y3054D01*
X2024Y3054D02*
X2041Y3054D01*
X2124Y3054D02*
X2141Y3054D01*
X2224Y3054D02*
X2241Y3054D01*
X928Y3053D02*
X937Y3053D01*
X1028Y3053D02*
X1037Y3053D01*
X1128Y3053D02*
X1137Y3053D01*
X2029Y3053D02*
X2037Y3053D01*
X2129Y3053D02*
X2137Y3053D01*
X2229Y3053D02*
X2237Y3053D01*
X2426Y1347D02*
X2439Y1347D01*
X2526Y1347D02*
X2539Y1347D01*
X2626Y1347D02*
X2639Y1347D01*
X2726Y1347D02*
X2739Y1347D01*
X2826Y1347D02*
X2839Y1347D01*
X2926Y1347D02*
X2939Y1347D01*
X3026Y1347D02*
X3039Y1347D01*
X3126Y1347D02*
X3139Y1347D01*
X3226Y1347D02*
X3239Y1347D01*
X3326Y1347D02*
X3339Y1347D01*
X3426Y1347D02*
X3439Y1347D01*
X3526Y1347D02*
X3539Y1347D01*
X3626Y1347D02*
X3639Y1347D01*
X3726Y1347D02*
X3739Y1347D01*
X2422Y1346D02*
X2443Y1346D01*
X2522Y1346D02*
X2543Y1346D01*
X2622Y1346D02*
X2643Y1346D01*
X2722Y1346D02*
X2743Y1346D01*
X2822Y1346D02*
X2843Y1346D01*
X2922Y1346D02*
X2943Y1346D01*
X3022Y1346D02*
X3043Y1346D01*
X3122Y1346D02*
X3143Y1346D01*
X3222Y1346D02*
X3243Y1346D01*
X3322Y1346D02*
X3343Y1346D01*
X3422Y1346D02*
X3443Y1346D01*
X3522Y1346D02*
X3543Y1346D01*
X3622Y1346D02*
X3643Y1346D01*
X3722Y1346D02*
X3743Y1346D01*
X2420Y1345D02*
X2445Y1345D01*
X2520Y1345D02*
X2545Y1345D01*
X2620Y1345D02*
X2645Y1345D01*
X2720Y1345D02*
X2745Y1345D01*
X2820Y1345D02*
X2845Y1345D01*
X2920Y1345D02*
X2945Y1345D01*
X3020Y1345D02*
X3045Y1345D01*
X3120Y1345D02*
X3145Y1345D01*
X3220Y1345D02*
X3245Y1345D01*
X3320Y1345D02*
X3345Y1345D01*
X3420Y1345D02*
X3445Y1345D01*
X3520Y1345D02*
X3545Y1345D01*
X3620Y1345D02*
X3645Y1345D01*
X3720Y1345D02*
X3745Y1345D01*
X2418Y1344D02*
X2448Y1344D01*
X2518Y1344D02*
X2548Y1344D01*
X2618Y1344D02*
X2648Y1344D01*
X2718Y1344D02*
X2748Y1344D01*
X2818Y1344D02*
X2848Y1344D01*
X2918Y1344D02*
X2948Y1344D01*
X3018Y1344D02*
X3048Y1344D01*
X3118Y1344D02*
X3148Y1344D01*
X3218Y1344D02*
X3248Y1344D01*
X3318Y1344D02*
X3348Y1344D01*
X3418Y1344D02*
X3448Y1344D01*
X3518Y1344D02*
X3548Y1344D01*
X3618Y1344D02*
X3648Y1344D01*
X3718Y1344D02*
X3748Y1344D01*
X2416Y1343D02*
X2450Y1343D01*
X2516Y1343D02*
X2550Y1343D01*
X2616Y1343D02*
X2650Y1343D01*
X2716Y1343D02*
X2750Y1343D01*
X2816Y1343D02*
X2850Y1343D01*
X2916Y1343D02*
X2950Y1343D01*
X3016Y1343D02*
X3050Y1343D01*
X3116Y1343D02*
X3150Y1343D01*
X3216Y1343D02*
X3250Y1343D01*
X3316Y1343D02*
X3350Y1343D01*
X3416Y1343D02*
X3450Y1343D01*
X3516Y1343D02*
X3550Y1343D01*
X3616Y1343D02*
X3650Y1343D01*
X3716Y1343D02*
X3750Y1343D01*
X2414Y1342D02*
X2451Y1342D01*
X2514Y1342D02*
X2551Y1342D01*
X2614Y1342D02*
X2651Y1342D01*
X2714Y1342D02*
X2751Y1342D01*
X2814Y1342D02*
X2851Y1342D01*
X2914Y1342D02*
X2951Y1342D01*
X3014Y1342D02*
X3051Y1342D01*
X3114Y1342D02*
X3151Y1342D01*
X3214Y1342D02*
X3251Y1342D01*
X3314Y1342D02*
X3351Y1342D01*
X3414Y1342D02*
X3451Y1342D01*
X3514Y1342D02*
X3551Y1342D01*
X3614Y1342D02*
X3651Y1342D01*
X3714Y1342D02*
X3751Y1342D01*
X2413Y1341D02*
X2453Y1341D01*
X2513Y1341D02*
X2553Y1341D01*
X2613Y1341D02*
X2653Y1341D01*
X2713Y1341D02*
X2753Y1341D01*
X2813Y1341D02*
X2853Y1341D01*
X2912Y1341D02*
X2953Y1341D01*
X3012Y1341D02*
X3053Y1341D01*
X3112Y1341D02*
X3153Y1341D01*
X3212Y1341D02*
X3253Y1341D01*
X3312Y1341D02*
X3353Y1341D01*
X3412Y1341D02*
X3453Y1341D01*
X3512Y1341D02*
X3553Y1341D01*
X3612Y1341D02*
X3653Y1341D01*
X3712Y1341D02*
X3753Y1341D01*
X2411Y1340D02*
X2454Y1340D01*
X2511Y1340D02*
X2554Y1340D01*
X2611Y1340D02*
X2654Y1340D01*
X2711Y1340D02*
X2754Y1340D01*
X2811Y1340D02*
X2854Y1340D01*
X2911Y1340D02*
X2954Y1340D01*
X3011Y1340D02*
X3054Y1340D01*
X3111Y1340D02*
X3154Y1340D01*
X3211Y1340D02*
X3254Y1340D01*
X3311Y1340D02*
X3354Y1340D01*
X3411Y1340D02*
X3454Y1340D01*
X3511Y1340D02*
X3554Y1340D01*
X3611Y1340D02*
X3654Y1340D01*
X3711Y1340D02*
X3754Y1340D01*
X2410Y1339D02*
X2455Y1339D01*
X2510Y1339D02*
X2555Y1339D01*
X2610Y1339D02*
X2655Y1339D01*
X2710Y1339D02*
X2755Y1339D01*
X2810Y1339D02*
X2855Y1339D01*
X2910Y1339D02*
X2955Y1339D01*
X3010Y1339D02*
X3055Y1339D01*
X3110Y1339D02*
X3155Y1339D01*
X3210Y1339D02*
X3255Y1339D01*
X3310Y1339D02*
X3355Y1339D01*
X3410Y1339D02*
X3455Y1339D01*
X3510Y1339D02*
X3555Y1339D01*
X3610Y1339D02*
X3655Y1339D01*
X3710Y1339D02*
X3755Y1339D01*
X2409Y1338D02*
X2456Y1338D01*
X2509Y1338D02*
X2556Y1338D01*
X2609Y1338D02*
X2656Y1338D01*
X2709Y1338D02*
X2756Y1338D01*
X2809Y1338D02*
X2856Y1338D01*
X2909Y1338D02*
X2956Y1338D01*
X3009Y1338D02*
X3056Y1338D01*
X3109Y1338D02*
X3156Y1338D01*
X3209Y1338D02*
X3256Y1338D01*
X3309Y1338D02*
X3356Y1338D01*
X3409Y1338D02*
X3456Y1338D01*
X3509Y1338D02*
X3556Y1338D01*
X3609Y1338D02*
X3656Y1338D01*
X3709Y1338D02*
X3756Y1338D01*
X2408Y1337D02*
X2457Y1337D01*
X2508Y1337D02*
X2557Y1337D01*
X2608Y1337D02*
X2657Y1337D01*
X2708Y1337D02*
X2757Y1337D01*
X2808Y1337D02*
X2857Y1337D01*
X2908Y1337D02*
X2957Y1337D01*
X3008Y1337D02*
X3057Y1337D01*
X3108Y1337D02*
X3157Y1337D01*
X3208Y1337D02*
X3257Y1337D01*
X3308Y1337D02*
X3357Y1337D01*
X3408Y1337D02*
X3457Y1337D01*
X3508Y1337D02*
X3557Y1337D01*
X3608Y1337D02*
X3657Y1337D01*
X3708Y1337D02*
X3757Y1337D01*
X2407Y1336D02*
X2458Y1336D01*
X2507Y1336D02*
X2558Y1336D01*
X2607Y1336D02*
X2658Y1336D01*
X2707Y1336D02*
X2758Y1336D01*
X2807Y1336D02*
X2858Y1336D01*
X2907Y1336D02*
X2958Y1336D01*
X3007Y1336D02*
X3058Y1336D01*
X3107Y1336D02*
X3158Y1336D01*
X3207Y1336D02*
X3258Y1336D01*
X3307Y1336D02*
X3358Y1336D01*
X3407Y1336D02*
X3458Y1336D01*
X3507Y1336D02*
X3558Y1336D01*
X3607Y1336D02*
X3658Y1336D01*
X3707Y1336D02*
X3758Y1336D01*
X2406Y1335D02*
X2459Y1335D01*
X2506Y1335D02*
X2559Y1335D01*
X2606Y1335D02*
X2659Y1335D01*
X2706Y1335D02*
X2759Y1335D01*
X2806Y1335D02*
X2859Y1335D01*
X2906Y1335D02*
X2959Y1335D01*
X3006Y1335D02*
X3059Y1335D01*
X3106Y1335D02*
X3159Y1335D01*
X3206Y1335D02*
X3259Y1335D01*
X3306Y1335D02*
X3359Y1335D01*
X3406Y1335D02*
X3459Y1335D01*
X3506Y1335D02*
X3559Y1335D01*
X3606Y1335D02*
X3659Y1335D01*
X3706Y1335D02*
X3759Y1335D01*
X2405Y1334D02*
X2460Y1334D01*
X2505Y1334D02*
X2560Y1334D01*
X2605Y1334D02*
X2660Y1334D01*
X2705Y1334D02*
X2760Y1334D01*
X2805Y1334D02*
X2860Y1334D01*
X2905Y1334D02*
X2960Y1334D01*
X3005Y1334D02*
X3060Y1334D01*
X3105Y1334D02*
X3160Y1334D01*
X3205Y1334D02*
X3260Y1334D01*
X3305Y1334D02*
X3360Y1334D01*
X3405Y1334D02*
X3460Y1334D01*
X3505Y1334D02*
X3560Y1334D01*
X3605Y1334D02*
X3660Y1334D01*
X3705Y1334D02*
X3760Y1334D01*
X2405Y1333D02*
X2461Y1333D01*
X2505Y1333D02*
X2561Y1333D01*
X2605Y1333D02*
X2661Y1333D01*
X2705Y1333D02*
X2761Y1333D01*
X2805Y1333D02*
X2861Y1333D01*
X2905Y1333D02*
X2961Y1333D01*
X3005Y1333D02*
X3061Y1333D01*
X3105Y1333D02*
X3161Y1333D01*
X3205Y1333D02*
X3261Y1333D01*
X3305Y1333D02*
X3361Y1333D01*
X3405Y1333D02*
X3461Y1333D01*
X3505Y1333D02*
X3561Y1333D01*
X3605Y1333D02*
X3661Y1333D01*
X3705Y1333D02*
X3761Y1333D01*
X2404Y1332D02*
X2461Y1332D01*
X2504Y1332D02*
X2561Y1332D01*
X2604Y1332D02*
X2661Y1332D01*
X2704Y1332D02*
X2761Y1332D01*
X2804Y1332D02*
X2861Y1332D01*
X2904Y1332D02*
X2961Y1332D01*
X3004Y1332D02*
X3061Y1332D01*
X3104Y1332D02*
X3161Y1332D01*
X3204Y1332D02*
X3261Y1332D01*
X3304Y1332D02*
X3361Y1332D01*
X3404Y1332D02*
X3461Y1332D01*
X3504Y1332D02*
X3561Y1332D01*
X3604Y1332D02*
X3661Y1332D01*
X3704Y1332D02*
X3761Y1332D01*
X2403Y1331D02*
X2462Y1331D01*
X2503Y1331D02*
X2562Y1331D01*
X2603Y1331D02*
X2662Y1331D01*
X2703Y1331D02*
X2762Y1331D01*
X2803Y1331D02*
X2862Y1331D01*
X2903Y1331D02*
X2962Y1331D01*
X3003Y1331D02*
X3062Y1331D01*
X3103Y1331D02*
X3162Y1331D01*
X3203Y1331D02*
X3262Y1331D01*
X3303Y1331D02*
X3362Y1331D01*
X3403Y1331D02*
X3462Y1331D01*
X3503Y1331D02*
X3562Y1331D01*
X3603Y1331D02*
X3662Y1331D01*
X3703Y1331D02*
X3762Y1331D01*
X2403Y1330D02*
X2462Y1330D01*
X2503Y1330D02*
X2562Y1330D01*
X2603Y1330D02*
X2662Y1330D01*
X2703Y1330D02*
X2762Y1330D01*
X2803Y1330D02*
X2862Y1330D01*
X2903Y1330D02*
X2962Y1330D01*
X3003Y1330D02*
X3062Y1330D01*
X3103Y1330D02*
X3162Y1330D01*
X3203Y1330D02*
X3262Y1330D01*
X3303Y1330D02*
X3362Y1330D01*
X3403Y1330D02*
X3462Y1330D01*
X3503Y1330D02*
X3562Y1330D01*
X3603Y1330D02*
X3662Y1330D01*
X3703Y1330D02*
X3762Y1330D01*
X2402Y1329D02*
X2463Y1329D01*
X2502Y1329D02*
X2563Y1329D01*
X2602Y1329D02*
X2663Y1329D01*
X2702Y1329D02*
X2763Y1329D01*
X2802Y1329D02*
X2863Y1329D01*
X2902Y1329D02*
X2963Y1329D01*
X3002Y1329D02*
X3063Y1329D01*
X3102Y1329D02*
X3163Y1329D01*
X3202Y1329D02*
X3263Y1329D01*
X3302Y1329D02*
X3363Y1329D01*
X3402Y1329D02*
X3463Y1329D01*
X3502Y1329D02*
X3563Y1329D01*
X3602Y1329D02*
X3663Y1329D01*
X3702Y1329D02*
X3763Y1329D01*
X2402Y1328D02*
X2463Y1328D01*
X2502Y1328D02*
X2563Y1328D01*
X2602Y1328D02*
X2663Y1328D01*
X2702Y1328D02*
X2763Y1328D01*
X2802Y1328D02*
X2863Y1328D01*
X2902Y1328D02*
X2963Y1328D01*
X3002Y1328D02*
X3063Y1328D01*
X3102Y1328D02*
X3163Y1328D01*
X3202Y1328D02*
X3263Y1328D01*
X3302Y1328D02*
X3363Y1328D01*
X3402Y1328D02*
X3463Y1328D01*
X3502Y1328D02*
X3563Y1328D01*
X3602Y1328D02*
X3663Y1328D01*
X3702Y1328D02*
X3763Y1328D01*
X2401Y1327D02*
X2427Y1327D01*
X2439Y1327D02*
X2464Y1327D01*
X2501Y1327D02*
X2527Y1327D01*
X2539Y1327D02*
X2564Y1327D01*
X2601Y1327D02*
X2627Y1327D01*
X2639Y1327D02*
X2664Y1327D01*
X2701Y1327D02*
X2727Y1327D01*
X2739Y1327D02*
X2764Y1327D01*
X2801Y1327D02*
X2827Y1327D01*
X2839Y1327D02*
X2864Y1327D01*
X2901Y1327D02*
X2927Y1327D01*
X2939Y1327D02*
X2964Y1327D01*
X3001Y1327D02*
X3027Y1327D01*
X3039Y1327D02*
X3064Y1327D01*
X3101Y1327D02*
X3127Y1327D01*
X3139Y1327D02*
X3164Y1327D01*
X3201Y1327D02*
X3227Y1327D01*
X3239Y1327D02*
X3264Y1327D01*
X3301Y1327D02*
X3327Y1327D01*
X3339Y1327D02*
X3364Y1327D01*
X3401Y1327D02*
X3427Y1327D01*
X3439Y1327D02*
X3464Y1327D01*
X3501Y1327D02*
X3527Y1327D01*
X3539Y1327D02*
X3564Y1327D01*
X3601Y1327D02*
X3627Y1327D01*
X3639Y1327D02*
X3664Y1327D01*
X3701Y1327D02*
X3727Y1327D01*
X3738Y1327D02*
X3764Y1327D01*
X2401Y1326D02*
X2425Y1326D01*
X2441Y1326D02*
X2464Y1326D01*
X2501Y1326D02*
X2525Y1326D01*
X2541Y1326D02*
X2564Y1326D01*
X2601Y1326D02*
X2625Y1326D01*
X2641Y1326D02*
X2664Y1326D01*
X2701Y1326D02*
X2725Y1326D01*
X2741Y1326D02*
X2764Y1326D01*
X2801Y1326D02*
X2825Y1326D01*
X2841Y1326D02*
X2864Y1326D01*
X2901Y1326D02*
X2925Y1326D01*
X2941Y1326D02*
X2964Y1326D01*
X3001Y1326D02*
X3025Y1326D01*
X3041Y1326D02*
X3064Y1326D01*
X3101Y1326D02*
X3125Y1326D01*
X3141Y1326D02*
X3164Y1326D01*
X3201Y1326D02*
X3225Y1326D01*
X3241Y1326D02*
X3264Y1326D01*
X3301Y1326D02*
X3325Y1326D01*
X3341Y1326D02*
X3364Y1326D01*
X3401Y1326D02*
X3425Y1326D01*
X3440Y1326D02*
X3464Y1326D01*
X3501Y1326D02*
X3525Y1326D01*
X3540Y1326D02*
X3564Y1326D01*
X3601Y1326D02*
X3625Y1326D01*
X3640Y1326D02*
X3664Y1326D01*
X3701Y1326D02*
X3725Y1326D01*
X3740Y1326D02*
X3764Y1326D01*
X2401Y1325D02*
X2423Y1325D01*
X2442Y1325D02*
X2465Y1325D01*
X2501Y1325D02*
X2523Y1325D01*
X2542Y1325D02*
X2565Y1325D01*
X2601Y1325D02*
X2623Y1325D01*
X2642Y1325D02*
X2665Y1325D01*
X2701Y1325D02*
X2723Y1325D01*
X2742Y1325D02*
X2765Y1325D01*
X2801Y1325D02*
X2823Y1325D01*
X2842Y1325D02*
X2865Y1325D01*
X2901Y1325D02*
X2923Y1325D01*
X2942Y1325D02*
X2965Y1325D01*
X3001Y1325D02*
X3023Y1325D01*
X3042Y1325D02*
X3065Y1325D01*
X3101Y1325D02*
X3123Y1325D01*
X3142Y1325D02*
X3165Y1325D01*
X3200Y1325D02*
X3223Y1325D01*
X3242Y1325D02*
X3265Y1325D01*
X3300Y1325D02*
X3323Y1325D01*
X3342Y1325D02*
X3365Y1325D01*
X3400Y1325D02*
X3423Y1325D01*
X3442Y1325D02*
X3465Y1325D01*
X3500Y1325D02*
X3523Y1325D01*
X3542Y1325D02*
X3565Y1325D01*
X3600Y1325D02*
X3623Y1325D01*
X3642Y1325D02*
X3665Y1325D01*
X3700Y1325D02*
X3723Y1325D01*
X3742Y1325D02*
X3765Y1325D01*
X2400Y1324D02*
X2422Y1324D01*
X2443Y1324D02*
X2465Y1324D01*
X2500Y1324D02*
X2522Y1324D01*
X2543Y1324D02*
X2565Y1324D01*
X2600Y1324D02*
X2622Y1324D01*
X2643Y1324D02*
X2665Y1324D01*
X2700Y1324D02*
X2722Y1324D01*
X2743Y1324D02*
X2765Y1324D01*
X2800Y1324D02*
X2822Y1324D01*
X2843Y1324D02*
X2865Y1324D01*
X2900Y1324D02*
X2922Y1324D01*
X2943Y1324D02*
X2965Y1324D01*
X3000Y1324D02*
X3022Y1324D01*
X3043Y1324D02*
X3065Y1324D01*
X3100Y1324D02*
X3122Y1324D01*
X3143Y1324D02*
X3165Y1324D01*
X3200Y1324D02*
X3222Y1324D01*
X3243Y1324D02*
X3265Y1324D01*
X3300Y1324D02*
X3322Y1324D01*
X3343Y1324D02*
X3365Y1324D01*
X3400Y1324D02*
X3422Y1324D01*
X3443Y1324D02*
X3465Y1324D01*
X3500Y1324D02*
X3522Y1324D01*
X3543Y1324D02*
X3565Y1324D01*
X3600Y1324D02*
X3622Y1324D01*
X3643Y1324D02*
X3665Y1324D01*
X3700Y1324D02*
X3722Y1324D01*
X3743Y1324D02*
X3765Y1324D01*
X2400Y1323D02*
X2421Y1323D01*
X2444Y1323D02*
X2465Y1323D01*
X2500Y1323D02*
X2521Y1323D01*
X2544Y1323D02*
X2565Y1323D01*
X2600Y1323D02*
X2621Y1323D01*
X2644Y1323D02*
X2665Y1323D01*
X2700Y1323D02*
X2721Y1323D01*
X2744Y1323D02*
X2765Y1323D01*
X2800Y1323D02*
X2821Y1323D01*
X2844Y1323D02*
X2865Y1323D01*
X2900Y1323D02*
X2921Y1323D01*
X2944Y1323D02*
X2965Y1323D01*
X3000Y1323D02*
X3021Y1323D01*
X3044Y1323D02*
X3065Y1323D01*
X3100Y1323D02*
X3121Y1323D01*
X3144Y1323D02*
X3165Y1323D01*
X3200Y1323D02*
X3221Y1323D01*
X3244Y1323D02*
X3265Y1323D01*
X3300Y1323D02*
X3321Y1323D01*
X3344Y1323D02*
X3365Y1323D01*
X3400Y1323D02*
X3421Y1323D01*
X3444Y1323D02*
X3465Y1323D01*
X3500Y1323D02*
X3521Y1323D01*
X3544Y1323D02*
X3565Y1323D01*
X3600Y1323D02*
X3621Y1323D01*
X3644Y1323D02*
X3665Y1323D01*
X3700Y1323D02*
X3721Y1323D01*
X3744Y1323D02*
X3765Y1323D01*
X2400Y1322D02*
X2420Y1322D01*
X2445Y1322D02*
X2466Y1322D01*
X2500Y1322D02*
X2520Y1322D01*
X2545Y1322D02*
X2566Y1322D01*
X2600Y1322D02*
X2620Y1322D01*
X2645Y1322D02*
X2666Y1322D01*
X2700Y1322D02*
X2720Y1322D01*
X2745Y1322D02*
X2766Y1322D01*
X2800Y1322D02*
X2820Y1322D01*
X2845Y1322D02*
X2866Y1322D01*
X2900Y1322D02*
X2920Y1322D01*
X2945Y1322D02*
X2966Y1322D01*
X3000Y1322D02*
X3020Y1322D01*
X3045Y1322D02*
X3066Y1322D01*
X3100Y1322D02*
X3120Y1322D01*
X3145Y1322D02*
X3166Y1322D01*
X3199Y1322D02*
X3220Y1322D01*
X3245Y1322D02*
X3266Y1322D01*
X3299Y1322D02*
X3320Y1322D01*
X3345Y1322D02*
X3366Y1322D01*
X3399Y1322D02*
X3420Y1322D01*
X3445Y1322D02*
X3466Y1322D01*
X3499Y1322D02*
X3520Y1322D01*
X3545Y1322D02*
X3566Y1322D01*
X3599Y1322D02*
X3620Y1322D01*
X3645Y1322D02*
X3666Y1322D01*
X3699Y1322D02*
X3720Y1322D01*
X3745Y1322D02*
X3766Y1322D01*
X2399Y1321D02*
X2419Y1321D01*
X2446Y1321D02*
X2466Y1321D01*
X2499Y1321D02*
X2519Y1321D01*
X2546Y1321D02*
X2566Y1321D01*
X2599Y1321D02*
X2619Y1321D01*
X2646Y1321D02*
X2666Y1321D01*
X2699Y1321D02*
X2719Y1321D01*
X2746Y1321D02*
X2766Y1321D01*
X2799Y1321D02*
X2819Y1321D01*
X2846Y1321D02*
X2866Y1321D01*
X2899Y1321D02*
X2919Y1321D01*
X2946Y1321D02*
X2966Y1321D01*
X2999Y1321D02*
X3019Y1321D01*
X3046Y1321D02*
X3066Y1321D01*
X3099Y1321D02*
X3119Y1321D01*
X3146Y1321D02*
X3166Y1321D01*
X3199Y1321D02*
X3219Y1321D01*
X3246Y1321D02*
X3266Y1321D01*
X3299Y1321D02*
X3319Y1321D01*
X3346Y1321D02*
X3366Y1321D01*
X3399Y1321D02*
X3419Y1321D01*
X3446Y1321D02*
X3466Y1321D01*
X3499Y1321D02*
X3519Y1321D01*
X3546Y1321D02*
X3566Y1321D01*
X3599Y1321D02*
X3619Y1321D01*
X3646Y1321D02*
X3666Y1321D01*
X3699Y1321D02*
X3719Y1321D01*
X3746Y1321D02*
X3766Y1321D01*
X2399Y1320D02*
X2419Y1320D01*
X2446Y1320D02*
X2466Y1320D01*
X2499Y1320D02*
X2519Y1320D01*
X2546Y1320D02*
X2566Y1320D01*
X2599Y1320D02*
X2619Y1320D01*
X2646Y1320D02*
X2666Y1320D01*
X2699Y1320D02*
X2719Y1320D01*
X2746Y1320D02*
X2766Y1320D01*
X2799Y1320D02*
X2819Y1320D01*
X2846Y1320D02*
X2866Y1320D01*
X2899Y1320D02*
X2919Y1320D01*
X2946Y1320D02*
X2966Y1320D01*
X2999Y1320D02*
X3019Y1320D01*
X3046Y1320D02*
X3066Y1320D01*
X3099Y1320D02*
X3119Y1320D01*
X3146Y1320D02*
X3166Y1320D01*
X3199Y1320D02*
X3219Y1320D01*
X3246Y1320D02*
X3266Y1320D01*
X3299Y1320D02*
X3319Y1320D01*
X3346Y1320D02*
X3366Y1320D01*
X3399Y1320D02*
X3419Y1320D01*
X3446Y1320D02*
X3466Y1320D01*
X3499Y1320D02*
X3519Y1320D01*
X3546Y1320D02*
X3566Y1320D01*
X3599Y1320D02*
X3619Y1320D01*
X3646Y1320D02*
X3666Y1320D01*
X3699Y1320D02*
X3719Y1320D01*
X3746Y1320D02*
X3766Y1320D01*
X2399Y1319D02*
X2418Y1319D01*
X2447Y1319D02*
X2466Y1319D01*
X2499Y1319D02*
X2518Y1319D01*
X2547Y1319D02*
X2566Y1319D01*
X2599Y1319D02*
X2618Y1319D01*
X2647Y1319D02*
X2666Y1319D01*
X2699Y1319D02*
X2718Y1319D01*
X2747Y1319D02*
X2766Y1319D01*
X2799Y1319D02*
X2818Y1319D01*
X2847Y1319D02*
X2866Y1319D01*
X2899Y1319D02*
X2918Y1319D01*
X2947Y1319D02*
X2966Y1319D01*
X2999Y1319D02*
X3018Y1319D01*
X3047Y1319D02*
X3066Y1319D01*
X3099Y1319D02*
X3118Y1319D01*
X3147Y1319D02*
X3166Y1319D01*
X3199Y1319D02*
X3218Y1319D01*
X3247Y1319D02*
X3266Y1319D01*
X3299Y1319D02*
X3318Y1319D01*
X3347Y1319D02*
X3366Y1319D01*
X3399Y1319D02*
X3418Y1319D01*
X3447Y1319D02*
X3466Y1319D01*
X3499Y1319D02*
X3518Y1319D01*
X3547Y1319D02*
X3566Y1319D01*
X3599Y1319D02*
X3618Y1319D01*
X3647Y1319D02*
X3666Y1319D01*
X3699Y1319D02*
X3718Y1319D01*
X3747Y1319D02*
X3766Y1319D01*
X2399Y1318D02*
X2418Y1318D01*
X2447Y1318D02*
X2467Y1318D01*
X2499Y1318D02*
X2518Y1318D01*
X2547Y1318D02*
X2567Y1318D01*
X2599Y1318D02*
X2618Y1318D01*
X2647Y1318D02*
X2667Y1318D01*
X2699Y1318D02*
X2718Y1318D01*
X2747Y1318D02*
X2767Y1318D01*
X2799Y1318D02*
X2818Y1318D01*
X2847Y1318D02*
X2867Y1318D01*
X2899Y1318D02*
X2918Y1318D01*
X2947Y1318D02*
X2967Y1318D01*
X2999Y1318D02*
X3018Y1318D01*
X3047Y1318D02*
X3067Y1318D01*
X3099Y1318D02*
X3118Y1318D01*
X3147Y1318D02*
X3167Y1318D01*
X3199Y1318D02*
X3218Y1318D01*
X3247Y1318D02*
X3267Y1318D01*
X3299Y1318D02*
X3318Y1318D01*
X3347Y1318D02*
X3367Y1318D01*
X3399Y1318D02*
X3418Y1318D01*
X3447Y1318D02*
X3467Y1318D01*
X3499Y1318D02*
X3518Y1318D01*
X3547Y1318D02*
X3567Y1318D01*
X3599Y1318D02*
X3618Y1318D01*
X3647Y1318D02*
X3667Y1318D01*
X3699Y1318D02*
X3718Y1318D01*
X3747Y1318D02*
X3767Y1318D01*
X2398Y1317D02*
X2418Y1317D01*
X2448Y1317D02*
X2467Y1317D01*
X2498Y1317D02*
X2518Y1317D01*
X2548Y1317D02*
X2567Y1317D01*
X2598Y1317D02*
X2618Y1317D01*
X2648Y1317D02*
X2667Y1317D01*
X2698Y1317D02*
X2718Y1317D01*
X2748Y1317D02*
X2767Y1317D01*
X2798Y1317D02*
X2818Y1317D01*
X2848Y1317D02*
X2867Y1317D01*
X2898Y1317D02*
X2918Y1317D01*
X2948Y1317D02*
X2967Y1317D01*
X2998Y1317D02*
X3018Y1317D01*
X3048Y1317D02*
X3067Y1317D01*
X3098Y1317D02*
X3118Y1317D01*
X3148Y1317D02*
X3167Y1317D01*
X3198Y1317D02*
X3218Y1317D01*
X3248Y1317D02*
X3267Y1317D01*
X3298Y1317D02*
X3318Y1317D01*
X3348Y1317D02*
X3367Y1317D01*
X3398Y1317D02*
X3418Y1317D01*
X3448Y1317D02*
X3467Y1317D01*
X3498Y1317D02*
X3518Y1317D01*
X3548Y1317D02*
X3567Y1317D01*
X3598Y1317D02*
X3618Y1317D01*
X3648Y1317D02*
X3667Y1317D01*
X3698Y1317D02*
X3718Y1317D01*
X3748Y1317D02*
X3767Y1317D01*
X2398Y1316D02*
X2417Y1316D01*
X2448Y1316D02*
X2467Y1316D01*
X2498Y1316D02*
X2517Y1316D01*
X2548Y1316D02*
X2567Y1316D01*
X2598Y1316D02*
X2617Y1316D01*
X2648Y1316D02*
X2667Y1316D01*
X2698Y1316D02*
X2717Y1316D01*
X2748Y1316D02*
X2767Y1316D01*
X2798Y1316D02*
X2817Y1316D01*
X2848Y1316D02*
X2867Y1316D01*
X2898Y1316D02*
X2917Y1316D01*
X2948Y1316D02*
X2967Y1316D01*
X2998Y1316D02*
X3017Y1316D01*
X3048Y1316D02*
X3067Y1316D01*
X3098Y1316D02*
X3117Y1316D01*
X3148Y1316D02*
X3167Y1316D01*
X3198Y1316D02*
X3217Y1316D01*
X3248Y1316D02*
X3267Y1316D01*
X3298Y1316D02*
X3317Y1316D01*
X3348Y1316D02*
X3367Y1316D01*
X3398Y1316D02*
X3417Y1316D01*
X3448Y1316D02*
X3467Y1316D01*
X3498Y1316D02*
X3517Y1316D01*
X3548Y1316D02*
X3567Y1316D01*
X3598Y1316D02*
X3617Y1316D01*
X3648Y1316D02*
X3667Y1316D01*
X3698Y1316D02*
X3717Y1316D01*
X3748Y1316D02*
X3767Y1316D01*
X2398Y1315D02*
X2417Y1315D01*
X2448Y1315D02*
X2467Y1315D01*
X2498Y1315D02*
X2517Y1315D01*
X2548Y1315D02*
X2567Y1315D01*
X2598Y1315D02*
X2617Y1315D01*
X2648Y1315D02*
X2667Y1315D01*
X2698Y1315D02*
X2717Y1315D01*
X2748Y1315D02*
X2767Y1315D01*
X2798Y1315D02*
X2817Y1315D01*
X2848Y1315D02*
X2867Y1315D01*
X2898Y1315D02*
X2917Y1315D01*
X2948Y1315D02*
X2967Y1315D01*
X2998Y1315D02*
X3017Y1315D01*
X3048Y1315D02*
X3067Y1315D01*
X3098Y1315D02*
X3117Y1315D01*
X3148Y1315D02*
X3167Y1315D01*
X3198Y1315D02*
X3217Y1315D01*
X3248Y1315D02*
X3267Y1315D01*
X3298Y1315D02*
X3317Y1315D01*
X3348Y1315D02*
X3367Y1315D01*
X3398Y1315D02*
X3417Y1315D01*
X3448Y1315D02*
X3467Y1315D01*
X3498Y1315D02*
X3517Y1315D01*
X3548Y1315D02*
X3567Y1315D01*
X3598Y1315D02*
X3617Y1315D01*
X3648Y1315D02*
X3667Y1315D01*
X3698Y1315D02*
X3717Y1315D01*
X3748Y1315D02*
X3767Y1315D01*
X2398Y1314D02*
X2417Y1314D01*
X2448Y1314D02*
X2467Y1314D01*
X2498Y1314D02*
X2517Y1314D01*
X2548Y1314D02*
X2567Y1314D01*
X2598Y1314D02*
X2617Y1314D01*
X2648Y1314D02*
X2667Y1314D01*
X2698Y1314D02*
X2717Y1314D01*
X2748Y1314D02*
X2767Y1314D01*
X2798Y1314D02*
X2817Y1314D01*
X2848Y1314D02*
X2867Y1314D01*
X2898Y1314D02*
X2917Y1314D01*
X2948Y1314D02*
X2967Y1314D01*
X2998Y1314D02*
X3017Y1314D01*
X3048Y1314D02*
X3067Y1314D01*
X3098Y1314D02*
X3117Y1314D01*
X3148Y1314D02*
X3167Y1314D01*
X3198Y1314D02*
X3217Y1314D01*
X3248Y1314D02*
X3267Y1314D01*
X3298Y1314D02*
X3317Y1314D01*
X3348Y1314D02*
X3367Y1314D01*
X3398Y1314D02*
X3417Y1314D01*
X3448Y1314D02*
X3467Y1314D01*
X3498Y1314D02*
X3517Y1314D01*
X3548Y1314D02*
X3567Y1314D01*
X3598Y1314D02*
X3617Y1314D01*
X3648Y1314D02*
X3667Y1314D01*
X3698Y1314D02*
X3717Y1314D01*
X3748Y1314D02*
X3767Y1314D01*
X2398Y1313D02*
X2417Y1313D01*
X2448Y1313D02*
X2467Y1313D01*
X2498Y1313D02*
X2517Y1313D01*
X2548Y1313D02*
X2567Y1313D01*
X2598Y1313D02*
X2617Y1313D01*
X2648Y1313D02*
X2667Y1313D01*
X2698Y1313D02*
X2717Y1313D01*
X2748Y1313D02*
X2767Y1313D01*
X2798Y1313D02*
X2817Y1313D01*
X2848Y1313D02*
X2867Y1313D01*
X2898Y1313D02*
X2917Y1313D01*
X2948Y1313D02*
X2967Y1313D01*
X2998Y1313D02*
X3017Y1313D01*
X3048Y1313D02*
X3067Y1313D01*
X3098Y1313D02*
X3117Y1313D01*
X3148Y1313D02*
X3167Y1313D01*
X3198Y1313D02*
X3217Y1313D01*
X3248Y1313D02*
X3267Y1313D01*
X3298Y1313D02*
X3317Y1313D01*
X3348Y1313D02*
X3367Y1313D01*
X3398Y1313D02*
X3417Y1313D01*
X3448Y1313D02*
X3467Y1313D01*
X3498Y1313D02*
X3517Y1313D01*
X3548Y1313D02*
X3567Y1313D01*
X3598Y1313D02*
X3617Y1313D01*
X3648Y1313D02*
X3667Y1313D01*
X3698Y1313D02*
X3717Y1313D01*
X3748Y1313D02*
X3767Y1313D01*
X2398Y1312D02*
X2417Y1312D01*
X2448Y1312D02*
X2467Y1312D01*
X2498Y1312D02*
X2517Y1312D01*
X2548Y1312D02*
X2567Y1312D01*
X2598Y1312D02*
X2617Y1312D01*
X2648Y1312D02*
X2667Y1312D01*
X2698Y1312D02*
X2717Y1312D01*
X2748Y1312D02*
X2767Y1312D01*
X2798Y1312D02*
X2817Y1312D01*
X2848Y1312D02*
X2867Y1312D01*
X2898Y1312D02*
X2917Y1312D01*
X2948Y1312D02*
X2967Y1312D01*
X2998Y1312D02*
X3017Y1312D01*
X3048Y1312D02*
X3067Y1312D01*
X3098Y1312D02*
X3117Y1312D01*
X3148Y1312D02*
X3167Y1312D01*
X3198Y1312D02*
X3217Y1312D01*
X3248Y1312D02*
X3267Y1312D01*
X3298Y1312D02*
X3317Y1312D01*
X3348Y1312D02*
X3367Y1312D01*
X3398Y1312D02*
X3417Y1312D01*
X3448Y1312D02*
X3467Y1312D01*
X3498Y1312D02*
X3517Y1312D01*
X3548Y1312D02*
X3567Y1312D01*
X3598Y1312D02*
X3617Y1312D01*
X3648Y1312D02*
X3667Y1312D01*
X3698Y1312D02*
X3717Y1312D01*
X3748Y1312D02*
X3767Y1312D01*
X2398Y1311D02*
X2417Y1311D01*
X2448Y1311D02*
X2467Y1311D01*
X2498Y1311D02*
X2517Y1311D01*
X2548Y1311D02*
X2567Y1311D01*
X2598Y1311D02*
X2617Y1311D01*
X2648Y1311D02*
X2667Y1311D01*
X2698Y1311D02*
X2717Y1311D01*
X2748Y1311D02*
X2767Y1311D01*
X2798Y1311D02*
X2817Y1311D01*
X2848Y1311D02*
X2867Y1311D01*
X2898Y1311D02*
X2917Y1311D01*
X2948Y1311D02*
X2967Y1311D01*
X2998Y1311D02*
X3017Y1311D01*
X3048Y1311D02*
X3067Y1311D01*
X3098Y1311D02*
X3117Y1311D01*
X3148Y1311D02*
X3167Y1311D01*
X3198Y1311D02*
X3217Y1311D01*
X3248Y1311D02*
X3267Y1311D01*
X3298Y1311D02*
X3317Y1311D01*
X3348Y1311D02*
X3367Y1311D01*
X3398Y1311D02*
X3417Y1311D01*
X3448Y1311D02*
X3467Y1311D01*
X3498Y1311D02*
X3517Y1311D01*
X3548Y1311D02*
X3567Y1311D01*
X3598Y1311D02*
X3617Y1311D01*
X3648Y1311D02*
X3667Y1311D01*
X3698Y1311D02*
X3717Y1311D01*
X3748Y1311D02*
X3767Y1311D01*
X2398Y1310D02*
X2417Y1310D01*
X2448Y1310D02*
X2467Y1310D01*
X2498Y1310D02*
X2517Y1310D01*
X2548Y1310D02*
X2567Y1310D01*
X2598Y1310D02*
X2617Y1310D01*
X2648Y1310D02*
X2667Y1310D01*
X2698Y1310D02*
X2717Y1310D01*
X2748Y1310D02*
X2767Y1310D01*
X2798Y1310D02*
X2817Y1310D01*
X2848Y1310D02*
X2867Y1310D01*
X2898Y1310D02*
X2917Y1310D01*
X2948Y1310D02*
X2967Y1310D01*
X2998Y1310D02*
X3017Y1310D01*
X3048Y1310D02*
X3067Y1310D01*
X3098Y1310D02*
X3117Y1310D01*
X3148Y1310D02*
X3167Y1310D01*
X3198Y1310D02*
X3217Y1310D01*
X3248Y1310D02*
X3267Y1310D01*
X3298Y1310D02*
X3317Y1310D01*
X3348Y1310D02*
X3367Y1310D01*
X3398Y1310D02*
X3417Y1310D01*
X3448Y1310D02*
X3467Y1310D01*
X3498Y1310D02*
X3517Y1310D01*
X3548Y1310D02*
X3567Y1310D01*
X3598Y1310D02*
X3617Y1310D01*
X3648Y1310D02*
X3667Y1310D01*
X3698Y1310D02*
X3717Y1310D01*
X3748Y1310D02*
X3767Y1310D01*
X2398Y1309D02*
X2418Y1309D01*
X2448Y1309D02*
X2467Y1309D01*
X2498Y1309D02*
X2518Y1309D01*
X2548Y1309D02*
X2567Y1309D01*
X2598Y1309D02*
X2618Y1309D01*
X2648Y1309D02*
X2667Y1309D01*
X2698Y1309D02*
X2718Y1309D01*
X2748Y1309D02*
X2767Y1309D01*
X2798Y1309D02*
X2818Y1309D01*
X2848Y1309D02*
X2867Y1309D01*
X2898Y1309D02*
X2918Y1309D01*
X2948Y1309D02*
X2967Y1309D01*
X2998Y1309D02*
X3018Y1309D01*
X3048Y1309D02*
X3067Y1309D01*
X3098Y1309D02*
X3118Y1309D01*
X3148Y1309D02*
X3167Y1309D01*
X3198Y1309D02*
X3218Y1309D01*
X3248Y1309D02*
X3267Y1309D01*
X3298Y1309D02*
X3318Y1309D01*
X3348Y1309D02*
X3367Y1309D01*
X3398Y1309D02*
X3418Y1309D01*
X3448Y1309D02*
X3467Y1309D01*
X3498Y1309D02*
X3517Y1309D01*
X3548Y1309D02*
X3567Y1309D01*
X3598Y1309D02*
X3617Y1309D01*
X3648Y1309D02*
X3667Y1309D01*
X3698Y1309D02*
X3717Y1309D01*
X3748Y1309D02*
X3767Y1309D01*
X2399Y1308D02*
X2418Y1308D01*
X2447Y1308D02*
X2467Y1308D01*
X2499Y1308D02*
X2518Y1308D01*
X2547Y1308D02*
X2567Y1308D01*
X2599Y1308D02*
X2618Y1308D01*
X2647Y1308D02*
X2667Y1308D01*
X2699Y1308D02*
X2718Y1308D01*
X2747Y1308D02*
X2767Y1308D01*
X2799Y1308D02*
X2818Y1308D01*
X2847Y1308D02*
X2867Y1308D01*
X2899Y1308D02*
X2918Y1308D01*
X2947Y1308D02*
X2967Y1308D01*
X2999Y1308D02*
X3018Y1308D01*
X3047Y1308D02*
X3067Y1308D01*
X3099Y1308D02*
X3118Y1308D01*
X3147Y1308D02*
X3167Y1308D01*
X3199Y1308D02*
X3218Y1308D01*
X3247Y1308D02*
X3267Y1308D01*
X3299Y1308D02*
X3318Y1308D01*
X3347Y1308D02*
X3367Y1308D01*
X3399Y1308D02*
X3418Y1308D01*
X3447Y1308D02*
X3467Y1308D01*
X3499Y1308D02*
X3518Y1308D01*
X3547Y1308D02*
X3567Y1308D01*
X3599Y1308D02*
X3618Y1308D01*
X3647Y1308D02*
X3667Y1308D01*
X3699Y1308D02*
X3718Y1308D01*
X3747Y1308D02*
X3767Y1308D01*
X2399Y1307D02*
X2418Y1307D01*
X2447Y1307D02*
X2467Y1307D01*
X2499Y1307D02*
X2518Y1307D01*
X2547Y1307D02*
X2567Y1307D01*
X2599Y1307D02*
X2618Y1307D01*
X2647Y1307D02*
X2667Y1307D01*
X2699Y1307D02*
X2718Y1307D01*
X2747Y1307D02*
X2766Y1307D01*
X2799Y1307D02*
X2818Y1307D01*
X2847Y1307D02*
X2866Y1307D01*
X2899Y1307D02*
X2918Y1307D01*
X2947Y1307D02*
X2966Y1307D01*
X2999Y1307D02*
X3018Y1307D01*
X3047Y1307D02*
X3066Y1307D01*
X3099Y1307D02*
X3118Y1307D01*
X3147Y1307D02*
X3166Y1307D01*
X3199Y1307D02*
X3218Y1307D01*
X3247Y1307D02*
X3266Y1307D01*
X3299Y1307D02*
X3318Y1307D01*
X3347Y1307D02*
X3366Y1307D01*
X3399Y1307D02*
X3418Y1307D01*
X3447Y1307D02*
X3466Y1307D01*
X3499Y1307D02*
X3518Y1307D01*
X3547Y1307D02*
X3566Y1307D01*
X3599Y1307D02*
X3618Y1307D01*
X3647Y1307D02*
X3666Y1307D01*
X3699Y1307D02*
X3718Y1307D01*
X3747Y1307D02*
X3766Y1307D01*
X2399Y1306D02*
X2419Y1306D01*
X2447Y1306D02*
X2466Y1306D01*
X2499Y1306D02*
X2519Y1306D01*
X2547Y1306D02*
X2566Y1306D01*
X2599Y1306D02*
X2619Y1306D01*
X2647Y1306D02*
X2666Y1306D01*
X2699Y1306D02*
X2719Y1306D01*
X2747Y1306D02*
X2766Y1306D01*
X2799Y1306D02*
X2819Y1306D01*
X2847Y1306D02*
X2866Y1306D01*
X2899Y1306D02*
X2919Y1306D01*
X2947Y1306D02*
X2966Y1306D01*
X2999Y1306D02*
X3019Y1306D01*
X3047Y1306D02*
X3066Y1306D01*
X3099Y1306D02*
X3119Y1306D01*
X3147Y1306D02*
X3166Y1306D01*
X3199Y1306D02*
X3219Y1306D01*
X3247Y1306D02*
X3266Y1306D01*
X3299Y1306D02*
X3319Y1306D01*
X3347Y1306D02*
X3366Y1306D01*
X3399Y1306D02*
X3419Y1306D01*
X3447Y1306D02*
X3466Y1306D01*
X3499Y1306D02*
X3519Y1306D01*
X3547Y1306D02*
X3566Y1306D01*
X3599Y1306D02*
X3619Y1306D01*
X3647Y1306D02*
X3666Y1306D01*
X3699Y1306D02*
X3719Y1306D01*
X3747Y1306D02*
X3766Y1306D01*
X2399Y1305D02*
X2419Y1305D01*
X2446Y1305D02*
X2466Y1305D01*
X2499Y1305D02*
X2519Y1305D01*
X2546Y1305D02*
X2566Y1305D01*
X2599Y1305D02*
X2619Y1305D01*
X2646Y1305D02*
X2666Y1305D01*
X2699Y1305D02*
X2719Y1305D01*
X2746Y1305D02*
X2766Y1305D01*
X2799Y1305D02*
X2819Y1305D01*
X2846Y1305D02*
X2866Y1305D01*
X2899Y1305D02*
X2919Y1305D01*
X2946Y1305D02*
X2966Y1305D01*
X2999Y1305D02*
X3019Y1305D01*
X3046Y1305D02*
X3066Y1305D01*
X3099Y1305D02*
X3119Y1305D01*
X3146Y1305D02*
X3166Y1305D01*
X3199Y1305D02*
X3219Y1305D01*
X3246Y1305D02*
X3266Y1305D01*
X3299Y1305D02*
X3319Y1305D01*
X3346Y1305D02*
X3366Y1305D01*
X3399Y1305D02*
X3419Y1305D01*
X3446Y1305D02*
X3466Y1305D01*
X3499Y1305D02*
X3519Y1305D01*
X3546Y1305D02*
X3566Y1305D01*
X3599Y1305D02*
X3619Y1305D01*
X3646Y1305D02*
X3666Y1305D01*
X3699Y1305D02*
X3719Y1305D01*
X3746Y1305D02*
X3766Y1305D01*
X2399Y1304D02*
X2420Y1304D01*
X2445Y1304D02*
X2466Y1304D01*
X2499Y1304D02*
X2520Y1304D01*
X2545Y1304D02*
X2566Y1304D01*
X2599Y1304D02*
X2620Y1304D01*
X2645Y1304D02*
X2666Y1304D01*
X2699Y1304D02*
X2720Y1304D01*
X2745Y1304D02*
X2766Y1304D01*
X2799Y1304D02*
X2820Y1304D01*
X2845Y1304D02*
X2866Y1304D01*
X2899Y1304D02*
X2920Y1304D01*
X2945Y1304D02*
X2966Y1304D01*
X2999Y1304D02*
X3020Y1304D01*
X3045Y1304D02*
X3066Y1304D01*
X3099Y1304D02*
X3120Y1304D01*
X3145Y1304D02*
X3166Y1304D01*
X3199Y1304D02*
X3220Y1304D01*
X3245Y1304D02*
X3266Y1304D01*
X3299Y1304D02*
X3320Y1304D01*
X3345Y1304D02*
X3366Y1304D01*
X3399Y1304D02*
X3420Y1304D01*
X3445Y1304D02*
X3466Y1304D01*
X3499Y1304D02*
X3520Y1304D01*
X3545Y1304D02*
X3566Y1304D01*
X3599Y1304D02*
X3620Y1304D01*
X3645Y1304D02*
X3666Y1304D01*
X3699Y1304D02*
X3720Y1304D01*
X3745Y1304D02*
X3766Y1304D01*
X2400Y1303D02*
X2421Y1303D01*
X2444Y1303D02*
X2466Y1303D01*
X2500Y1303D02*
X2521Y1303D01*
X2544Y1303D02*
X2566Y1303D01*
X2600Y1303D02*
X2621Y1303D01*
X2644Y1303D02*
X2666Y1303D01*
X2700Y1303D02*
X2721Y1303D01*
X2744Y1303D02*
X2766Y1303D01*
X2800Y1303D02*
X2821Y1303D01*
X2844Y1303D02*
X2866Y1303D01*
X2900Y1303D02*
X2921Y1303D01*
X2944Y1303D02*
X2966Y1303D01*
X3000Y1303D02*
X3021Y1303D01*
X3044Y1303D02*
X3066Y1303D01*
X3100Y1303D02*
X3121Y1303D01*
X3144Y1303D02*
X3166Y1303D01*
X3200Y1303D02*
X3221Y1303D01*
X3244Y1303D02*
X3266Y1303D01*
X3300Y1303D02*
X3321Y1303D01*
X3344Y1303D02*
X3366Y1303D01*
X3400Y1303D02*
X3421Y1303D01*
X3444Y1303D02*
X3465Y1303D01*
X3500Y1303D02*
X3521Y1303D01*
X3544Y1303D02*
X3565Y1303D01*
X3600Y1303D02*
X3621Y1303D01*
X3644Y1303D02*
X3665Y1303D01*
X3700Y1303D02*
X3721Y1303D01*
X3744Y1303D02*
X3765Y1303D01*
X2400Y1302D02*
X2422Y1302D01*
X2443Y1302D02*
X2465Y1302D01*
X2500Y1302D02*
X2522Y1302D01*
X2543Y1302D02*
X2565Y1302D01*
X2600Y1302D02*
X2622Y1302D01*
X2643Y1302D02*
X2665Y1302D01*
X2700Y1302D02*
X2722Y1302D01*
X2743Y1302D02*
X2765Y1302D01*
X2800Y1302D02*
X2822Y1302D01*
X2843Y1302D02*
X2865Y1302D01*
X2900Y1302D02*
X2922Y1302D01*
X2943Y1302D02*
X2965Y1302D01*
X3000Y1302D02*
X3022Y1302D01*
X3043Y1302D02*
X3065Y1302D01*
X3100Y1302D02*
X3122Y1302D01*
X3143Y1302D02*
X3165Y1302D01*
X3200Y1302D02*
X3222Y1302D01*
X3243Y1302D02*
X3265Y1302D01*
X3300Y1302D02*
X3322Y1302D01*
X3343Y1302D02*
X3365Y1302D01*
X3400Y1302D02*
X3422Y1302D01*
X3443Y1302D02*
X3465Y1302D01*
X3500Y1302D02*
X3522Y1302D01*
X3543Y1302D02*
X3565Y1302D01*
X3600Y1302D02*
X3622Y1302D01*
X3643Y1302D02*
X3665Y1302D01*
X3700Y1302D02*
X3722Y1302D01*
X3743Y1302D02*
X3765Y1302D01*
X2400Y1301D02*
X2423Y1301D01*
X2442Y1301D02*
X2465Y1301D01*
X2500Y1301D02*
X2523Y1301D01*
X2542Y1301D02*
X2565Y1301D01*
X2600Y1301D02*
X2623Y1301D01*
X2642Y1301D02*
X2665Y1301D01*
X2700Y1301D02*
X2723Y1301D01*
X2742Y1301D02*
X2765Y1301D01*
X2800Y1301D02*
X2823Y1301D01*
X2842Y1301D02*
X2865Y1301D01*
X2900Y1301D02*
X2923Y1301D01*
X2942Y1301D02*
X2965Y1301D01*
X3000Y1301D02*
X3023Y1301D01*
X3042Y1301D02*
X3065Y1301D01*
X3100Y1301D02*
X3123Y1301D01*
X3142Y1301D02*
X3165Y1301D01*
X3200Y1301D02*
X3223Y1301D01*
X3242Y1301D02*
X3265Y1301D01*
X3300Y1301D02*
X3323Y1301D01*
X3342Y1301D02*
X3365Y1301D01*
X3400Y1301D02*
X3423Y1301D01*
X3442Y1301D02*
X3465Y1301D01*
X3500Y1301D02*
X3523Y1301D01*
X3542Y1301D02*
X3565Y1301D01*
X3600Y1301D02*
X3623Y1301D01*
X3642Y1301D02*
X3665Y1301D01*
X3700Y1301D02*
X3723Y1301D01*
X3742Y1301D02*
X3765Y1301D01*
X2401Y1300D02*
X2424Y1300D01*
X2441Y1300D02*
X2464Y1300D01*
X2501Y1300D02*
X2524Y1300D01*
X2541Y1300D02*
X2564Y1300D01*
X2601Y1300D02*
X2624Y1300D01*
X2641Y1300D02*
X2664Y1300D01*
X2701Y1300D02*
X2724Y1300D01*
X2741Y1300D02*
X2764Y1300D01*
X2801Y1300D02*
X2824Y1300D01*
X2841Y1300D02*
X2864Y1300D01*
X2901Y1300D02*
X2924Y1300D01*
X2941Y1300D02*
X2964Y1300D01*
X3001Y1300D02*
X3024Y1300D01*
X3041Y1300D02*
X3064Y1300D01*
X3101Y1300D02*
X3124Y1300D01*
X3141Y1300D02*
X3164Y1300D01*
X3201Y1300D02*
X3224Y1300D01*
X3241Y1300D02*
X3264Y1300D01*
X3301Y1300D02*
X3324Y1300D01*
X3341Y1300D02*
X3364Y1300D01*
X3401Y1300D02*
X3424Y1300D01*
X3441Y1300D02*
X3464Y1300D01*
X3501Y1300D02*
X3524Y1300D01*
X3541Y1300D02*
X3564Y1300D01*
X3601Y1300D02*
X3624Y1300D01*
X3641Y1300D02*
X3664Y1300D01*
X3701Y1300D02*
X3724Y1300D01*
X3741Y1300D02*
X3764Y1300D01*
X2401Y1299D02*
X2426Y1299D01*
X2439Y1299D02*
X2464Y1299D01*
X2501Y1299D02*
X2526Y1299D01*
X2539Y1299D02*
X2564Y1299D01*
X2601Y1299D02*
X2626Y1299D01*
X2639Y1299D02*
X2664Y1299D01*
X2701Y1299D02*
X2726Y1299D01*
X2739Y1299D02*
X2764Y1299D01*
X2801Y1299D02*
X2826Y1299D01*
X2839Y1299D02*
X2864Y1299D01*
X2901Y1299D02*
X2926Y1299D01*
X2939Y1299D02*
X2964Y1299D01*
X3001Y1299D02*
X3026Y1299D01*
X3039Y1299D02*
X3064Y1299D01*
X3101Y1299D02*
X3126Y1299D01*
X3139Y1299D02*
X3164Y1299D01*
X3201Y1299D02*
X3226Y1299D01*
X3239Y1299D02*
X3264Y1299D01*
X3301Y1299D02*
X3326Y1299D01*
X3339Y1299D02*
X3364Y1299D01*
X3401Y1299D02*
X3426Y1299D01*
X3439Y1299D02*
X3464Y1299D01*
X3501Y1299D02*
X3526Y1299D01*
X3539Y1299D02*
X3564Y1299D01*
X3601Y1299D02*
X3626Y1299D01*
X3639Y1299D02*
X3664Y1299D01*
X3701Y1299D02*
X3726Y1299D01*
X3739Y1299D02*
X3764Y1299D01*
X2402Y1298D02*
X2430Y1298D01*
X2435Y1298D02*
X2464Y1298D01*
X2502Y1298D02*
X2530Y1298D01*
X2535Y1298D02*
X2564Y1298D01*
X2602Y1298D02*
X2630Y1298D01*
X2635Y1298D02*
X2664Y1298D01*
X2702Y1298D02*
X2730Y1298D01*
X2735Y1298D02*
X2764Y1298D01*
X2802Y1298D02*
X2830Y1298D01*
X2835Y1298D02*
X2864Y1298D01*
X2902Y1298D02*
X2930Y1298D01*
X2935Y1298D02*
X2964Y1298D01*
X3002Y1298D02*
X3030Y1298D01*
X3035Y1298D02*
X3064Y1298D01*
X3102Y1298D02*
X3130Y1298D01*
X3135Y1298D02*
X3164Y1298D01*
X3202Y1298D02*
X3230Y1298D01*
X3235Y1298D02*
X3264Y1298D01*
X3302Y1298D02*
X3330Y1298D01*
X3335Y1298D02*
X3364Y1298D01*
X3402Y1298D02*
X3430Y1298D01*
X3435Y1298D02*
X3464Y1298D01*
X3502Y1298D02*
X3530Y1298D01*
X3535Y1298D02*
X3564Y1298D01*
X3602Y1298D02*
X3630Y1298D01*
X3635Y1298D02*
X3664Y1298D01*
X3702Y1298D02*
X3730Y1298D01*
X3735Y1298D02*
X3764Y1298D01*
X2402Y1297D02*
X2463Y1297D01*
X2502Y1297D02*
X2563Y1297D01*
X2602Y1297D02*
X2663Y1297D01*
X2702Y1297D02*
X2763Y1297D01*
X2802Y1297D02*
X2863Y1297D01*
X2902Y1297D02*
X2963Y1297D01*
X3002Y1297D02*
X3063Y1297D01*
X3102Y1297D02*
X3163Y1297D01*
X3202Y1297D02*
X3263Y1297D01*
X3302Y1297D02*
X3363Y1297D01*
X3402Y1297D02*
X3463Y1297D01*
X3502Y1297D02*
X3563Y1297D01*
X3602Y1297D02*
X3663Y1297D01*
X3702Y1297D02*
X3763Y1297D01*
X2403Y1296D02*
X2463Y1296D01*
X2503Y1296D02*
X2563Y1296D01*
X2603Y1296D02*
X2663Y1296D01*
X2703Y1296D02*
X2763Y1296D01*
X2803Y1296D02*
X2863Y1296D01*
X2903Y1296D02*
X2963Y1296D01*
X3003Y1296D02*
X3063Y1296D01*
X3103Y1296D02*
X3163Y1296D01*
X3203Y1296D02*
X3263Y1296D01*
X3303Y1296D02*
X3363Y1296D01*
X3403Y1296D02*
X3463Y1296D01*
X3503Y1296D02*
X3563Y1296D01*
X3603Y1296D02*
X3663Y1296D01*
X3703Y1296D02*
X3763Y1296D01*
X2403Y1295D02*
X2462Y1295D01*
X2503Y1295D02*
X2562Y1295D01*
X2603Y1295D02*
X2662Y1295D01*
X2703Y1295D02*
X2762Y1295D01*
X2803Y1295D02*
X2862Y1295D01*
X2903Y1295D02*
X2962Y1295D01*
X3003Y1295D02*
X3062Y1295D01*
X3103Y1295D02*
X3162Y1295D01*
X3203Y1295D02*
X3262Y1295D01*
X3303Y1295D02*
X3362Y1295D01*
X3403Y1295D02*
X3462Y1295D01*
X3503Y1295D02*
X3562Y1295D01*
X3603Y1295D02*
X3662Y1295D01*
X3703Y1295D02*
X3762Y1295D01*
X2404Y1294D02*
X2461Y1294D01*
X2504Y1294D02*
X2561Y1294D01*
X2604Y1294D02*
X2661Y1294D01*
X2704Y1294D02*
X2761Y1294D01*
X2804Y1294D02*
X2861Y1294D01*
X2904Y1294D02*
X2961Y1294D01*
X3004Y1294D02*
X3061Y1294D01*
X3104Y1294D02*
X3161Y1294D01*
X3204Y1294D02*
X3261Y1294D01*
X3304Y1294D02*
X3361Y1294D01*
X3404Y1294D02*
X3461Y1294D01*
X3504Y1294D02*
X3561Y1294D01*
X3604Y1294D02*
X3661Y1294D01*
X3704Y1294D02*
X3761Y1294D01*
X2404Y1293D02*
X2461Y1293D01*
X2504Y1293D02*
X2561Y1293D01*
X2604Y1293D02*
X2661Y1293D01*
X2704Y1293D02*
X2761Y1293D01*
X2804Y1293D02*
X2861Y1293D01*
X2904Y1293D02*
X2961Y1293D01*
X3004Y1293D02*
X3061Y1293D01*
X3104Y1293D02*
X3161Y1293D01*
X3204Y1293D02*
X3261Y1293D01*
X3304Y1293D02*
X3361Y1293D01*
X3404Y1293D02*
X3461Y1293D01*
X3504Y1293D02*
X3561Y1293D01*
X3604Y1293D02*
X3661Y1293D01*
X3704Y1293D02*
X3761Y1293D01*
X2405Y1292D02*
X2460Y1292D01*
X2505Y1292D02*
X2560Y1292D01*
X2605Y1292D02*
X2660Y1292D01*
X2705Y1292D02*
X2760Y1292D01*
X2805Y1292D02*
X2860Y1292D01*
X2905Y1292D02*
X2960Y1292D01*
X3005Y1292D02*
X3060Y1292D01*
X3105Y1292D02*
X3160Y1292D01*
X3205Y1292D02*
X3260Y1292D01*
X3305Y1292D02*
X3360Y1292D01*
X3405Y1292D02*
X3460Y1292D01*
X3505Y1292D02*
X3560Y1292D01*
X3605Y1292D02*
X3660Y1292D01*
X3705Y1292D02*
X3760Y1292D01*
X2406Y1291D02*
X2459Y1291D01*
X2506Y1291D02*
X2559Y1291D01*
X2606Y1291D02*
X2659Y1291D01*
X2706Y1291D02*
X2759Y1291D01*
X2806Y1291D02*
X2859Y1291D01*
X2906Y1291D02*
X2959Y1291D01*
X3006Y1291D02*
X3059Y1291D01*
X3106Y1291D02*
X3159Y1291D01*
X3206Y1291D02*
X3259Y1291D01*
X3306Y1291D02*
X3359Y1291D01*
X3406Y1291D02*
X3459Y1291D01*
X3506Y1291D02*
X3559Y1291D01*
X3606Y1291D02*
X3659Y1291D01*
X3706Y1291D02*
X3759Y1291D01*
X2407Y1290D02*
X2459Y1290D01*
X2507Y1290D02*
X2559Y1290D01*
X2607Y1290D02*
X2659Y1290D01*
X2707Y1290D02*
X2759Y1290D01*
X2807Y1290D02*
X2859Y1290D01*
X2907Y1290D02*
X2959Y1290D01*
X3007Y1290D02*
X3059Y1290D01*
X3107Y1290D02*
X3159Y1290D01*
X3207Y1290D02*
X3259Y1290D01*
X3307Y1290D02*
X3359Y1290D01*
X3407Y1290D02*
X3459Y1290D01*
X3507Y1290D02*
X3559Y1290D01*
X3607Y1290D02*
X3659Y1290D01*
X3707Y1290D02*
X3759Y1290D01*
X2408Y1289D02*
X2458Y1289D01*
X2508Y1289D02*
X2558Y1289D01*
X2608Y1289D02*
X2658Y1289D01*
X2708Y1289D02*
X2758Y1289D01*
X2808Y1289D02*
X2858Y1289D01*
X2908Y1289D02*
X2958Y1289D01*
X3008Y1289D02*
X3058Y1289D01*
X3108Y1289D02*
X3158Y1289D01*
X3208Y1289D02*
X3258Y1289D01*
X3308Y1289D02*
X3358Y1289D01*
X3408Y1289D02*
X3458Y1289D01*
X3508Y1289D02*
X3558Y1289D01*
X3608Y1289D02*
X3658Y1289D01*
X3708Y1289D02*
X3758Y1289D01*
X2409Y1288D02*
X2457Y1288D01*
X2509Y1288D02*
X2557Y1288D01*
X2609Y1288D02*
X2657Y1288D01*
X2709Y1288D02*
X2757Y1288D01*
X2808Y1288D02*
X2857Y1288D01*
X2908Y1288D02*
X2957Y1288D01*
X3008Y1288D02*
X3057Y1288D01*
X3108Y1288D02*
X3157Y1288D01*
X3208Y1288D02*
X3257Y1288D01*
X3308Y1288D02*
X3357Y1288D01*
X3408Y1288D02*
X3457Y1288D01*
X3508Y1288D02*
X3557Y1288D01*
X3608Y1288D02*
X3657Y1288D01*
X3708Y1288D02*
X3757Y1288D01*
X2410Y1287D02*
X2456Y1287D01*
X2510Y1287D02*
X2556Y1287D01*
X2610Y1287D02*
X2656Y1287D01*
X2710Y1287D02*
X2756Y1287D01*
X2810Y1287D02*
X2856Y1287D01*
X2910Y1287D02*
X2956Y1287D01*
X3010Y1287D02*
X3056Y1287D01*
X3110Y1287D02*
X3156Y1287D01*
X3210Y1287D02*
X3256Y1287D01*
X3310Y1287D02*
X3356Y1287D01*
X3410Y1287D02*
X3456Y1287D01*
X3510Y1287D02*
X3556Y1287D01*
X3610Y1287D02*
X3656Y1287D01*
X3710Y1287D02*
X3756Y1287D01*
X2411Y1286D02*
X2454Y1286D01*
X2511Y1286D02*
X2554Y1286D01*
X2611Y1286D02*
X2654Y1286D01*
X2711Y1286D02*
X2754Y1286D01*
X2811Y1286D02*
X2854Y1286D01*
X2911Y1286D02*
X2954Y1286D01*
X3011Y1286D02*
X3054Y1286D01*
X3111Y1286D02*
X3154Y1286D01*
X3211Y1286D02*
X3254Y1286D01*
X3311Y1286D02*
X3354Y1286D01*
X3411Y1286D02*
X3454Y1286D01*
X3511Y1286D02*
X3554Y1286D01*
X3611Y1286D02*
X3654Y1286D01*
X3711Y1286D02*
X3754Y1286D01*
X2412Y1285D02*
X2453Y1285D01*
X2512Y1285D02*
X2553Y1285D01*
X2612Y1285D02*
X2653Y1285D01*
X2712Y1285D02*
X2753Y1285D01*
X2812Y1285D02*
X2853Y1285D01*
X2912Y1285D02*
X2953Y1285D01*
X3012Y1285D02*
X3053Y1285D01*
X3112Y1285D02*
X3153Y1285D01*
X3212Y1285D02*
X3253Y1285D01*
X3312Y1285D02*
X3353Y1285D01*
X3412Y1285D02*
X3453Y1285D01*
X3512Y1285D02*
X3553Y1285D01*
X3612Y1285D02*
X3653Y1285D01*
X3712Y1285D02*
X3753Y1285D01*
X2414Y1284D02*
X2452Y1284D01*
X2514Y1284D02*
X2552Y1284D01*
X2614Y1284D02*
X2652Y1284D01*
X2714Y1284D02*
X2752Y1284D01*
X2814Y1284D02*
X2852Y1284D01*
X2914Y1284D02*
X2952Y1284D01*
X3014Y1284D02*
X3052Y1284D01*
X3114Y1284D02*
X3152Y1284D01*
X3214Y1284D02*
X3252Y1284D01*
X3313Y1284D02*
X3352Y1284D01*
X3413Y1284D02*
X3452Y1284D01*
X3513Y1284D02*
X3552Y1284D01*
X3613Y1284D02*
X3652Y1284D01*
X3713Y1284D02*
X3752Y1284D01*
X2415Y1283D02*
X2450Y1283D01*
X2515Y1283D02*
X2550Y1283D01*
X2615Y1283D02*
X2650Y1283D01*
X2715Y1283D02*
X2750Y1283D01*
X2815Y1283D02*
X2850Y1283D01*
X2915Y1283D02*
X2950Y1283D01*
X3015Y1283D02*
X3050Y1283D01*
X3115Y1283D02*
X3150Y1283D01*
X3215Y1283D02*
X3250Y1283D01*
X3315Y1283D02*
X3350Y1283D01*
X3415Y1283D02*
X3450Y1283D01*
X3515Y1283D02*
X3550Y1283D01*
X3615Y1283D02*
X3650Y1283D01*
X3715Y1283D02*
X3750Y1283D01*
X2417Y1282D02*
X2448Y1282D01*
X2517Y1282D02*
X2548Y1282D01*
X2617Y1282D02*
X2648Y1282D01*
X2717Y1282D02*
X2748Y1282D01*
X2817Y1282D02*
X2848Y1282D01*
X2917Y1282D02*
X2948Y1282D01*
X3017Y1282D02*
X3048Y1282D01*
X3117Y1282D02*
X3148Y1282D01*
X3217Y1282D02*
X3248Y1282D01*
X3317Y1282D02*
X3348Y1282D01*
X3417Y1282D02*
X3448Y1282D01*
X3517Y1282D02*
X3548Y1282D01*
X3617Y1282D02*
X3648Y1282D01*
X3717Y1282D02*
X3748Y1282D01*
X2419Y1281D02*
X2446Y1281D01*
X2519Y1281D02*
X2546Y1281D01*
X2619Y1281D02*
X2646Y1281D01*
X2719Y1281D02*
X2746Y1281D01*
X2819Y1281D02*
X2846Y1281D01*
X2919Y1281D02*
X2946Y1281D01*
X3019Y1281D02*
X3046Y1281D01*
X3119Y1281D02*
X3146Y1281D01*
X3219Y1281D02*
X3246Y1281D01*
X3319Y1281D02*
X3346Y1281D01*
X3419Y1281D02*
X3446Y1281D01*
X3519Y1281D02*
X3546Y1281D01*
X3619Y1281D02*
X3646Y1281D01*
X3719Y1281D02*
X3746Y1281D01*
X2422Y1280D02*
X2444Y1280D01*
X2522Y1280D02*
X2544Y1280D01*
X2622Y1280D02*
X2644Y1280D01*
X2722Y1280D02*
X2744Y1280D01*
X2822Y1280D02*
X2844Y1280D01*
X2922Y1280D02*
X2944Y1280D01*
X3022Y1280D02*
X3044Y1280D01*
X3122Y1280D02*
X3144Y1280D01*
X3222Y1280D02*
X3244Y1280D01*
X3322Y1280D02*
X3344Y1280D01*
X3422Y1280D02*
X3444Y1280D01*
X3522Y1280D02*
X3543Y1280D01*
X3622Y1280D02*
X3643Y1280D01*
X3722Y1280D02*
X3743Y1280D01*
X2425Y1279D02*
X2440Y1279D01*
X2525Y1279D02*
X2540Y1279D01*
X2625Y1279D02*
X2640Y1279D01*
X2725Y1279D02*
X2740Y1279D01*
X2825Y1279D02*
X2840Y1279D01*
X2925Y1279D02*
X2940Y1279D01*
X3025Y1279D02*
X3040Y1279D01*
X3125Y1279D02*
X3140Y1279D01*
X3225Y1279D02*
X3240Y1279D01*
X3325Y1279D02*
X3340Y1279D01*
X3425Y1279D02*
X3440Y1279D01*
X3525Y1279D02*
X3540Y1279D01*
X3625Y1279D02*
X3640Y1279D01*
X3725Y1279D02*
X3740Y1279D01*
X2431Y1278D02*
X2435Y1278D01*
X2531Y1278D02*
X2535Y1278D01*
X2631Y1278D02*
X2635Y1278D01*
X2731Y1278D02*
X2735Y1278D01*
X2831Y1278D02*
X2835Y1278D01*
X2931Y1278D02*
X2935Y1278D01*
X3031Y1278D02*
X3035Y1278D01*
X3131Y1278D02*
X3134Y1278D01*
X3231Y1278D02*
X3234Y1278D01*
X3331Y1278D02*
X3334Y1278D01*
X3431Y1278D02*
X3434Y1278D01*
X3531Y1278D02*
X3534Y1278D01*
X3631Y1278D02*
X3634Y1278D01*
X3731Y1278D02*
X3734Y1278D01*
X2426Y1047D02*
X2439Y1047D01*
X2526Y1047D02*
X2539Y1047D01*
X2626Y1047D02*
X2639Y1047D01*
X2726Y1047D02*
X2739Y1047D01*
X2826Y1047D02*
X2839Y1047D01*
X2926Y1047D02*
X2939Y1047D01*
X3026Y1047D02*
X3039Y1047D01*
X3126Y1047D02*
X3139Y1047D01*
X3226Y1047D02*
X3239Y1047D01*
X3326Y1047D02*
X3339Y1047D01*
X3426Y1047D02*
X3439Y1047D01*
X3526Y1047D02*
X3539Y1047D01*
X3626Y1047D02*
X3639Y1047D01*
X3726Y1047D02*
X3739Y1047D01*
X2422Y1046D02*
X2443Y1046D01*
X2522Y1046D02*
X2543Y1046D01*
X2622Y1046D02*
X2643Y1046D01*
X2722Y1046D02*
X2743Y1046D01*
X2822Y1046D02*
X2843Y1046D01*
X2922Y1046D02*
X2943Y1046D01*
X3022Y1046D02*
X3043Y1046D01*
X3122Y1046D02*
X3143Y1046D01*
X3222Y1046D02*
X3243Y1046D01*
X3322Y1046D02*
X3343Y1046D01*
X3422Y1046D02*
X3443Y1046D01*
X3522Y1046D02*
X3543Y1046D01*
X3622Y1046D02*
X3643Y1046D01*
X3722Y1046D02*
X3743Y1046D01*
X2420Y1045D02*
X2446Y1045D01*
X2520Y1045D02*
X2546Y1045D01*
X2620Y1045D02*
X2646Y1045D01*
X2720Y1045D02*
X2746Y1045D01*
X2820Y1045D02*
X2846Y1045D01*
X2920Y1045D02*
X2946Y1045D01*
X3020Y1045D02*
X3046Y1045D01*
X3120Y1045D02*
X3146Y1045D01*
X3220Y1045D02*
X3246Y1045D01*
X3320Y1045D02*
X3346Y1045D01*
X3420Y1045D02*
X3446Y1045D01*
X3520Y1045D02*
X3546Y1045D01*
X3620Y1045D02*
X3646Y1045D01*
X3720Y1045D02*
X3746Y1045D01*
X2418Y1044D02*
X2448Y1044D01*
X2518Y1044D02*
X2548Y1044D01*
X2618Y1044D02*
X2648Y1044D01*
X2718Y1044D02*
X2748Y1044D01*
X2818Y1044D02*
X2848Y1044D01*
X2918Y1044D02*
X2948Y1044D01*
X3018Y1044D02*
X3048Y1044D01*
X3117Y1044D02*
X3148Y1044D01*
X3217Y1044D02*
X3248Y1044D01*
X3317Y1044D02*
X3348Y1044D01*
X3417Y1044D02*
X3448Y1044D01*
X3517Y1044D02*
X3548Y1044D01*
X3617Y1044D02*
X3648Y1044D01*
X3717Y1044D02*
X3748Y1044D01*
X2416Y1043D02*
X2450Y1043D01*
X2516Y1043D02*
X2550Y1043D01*
X2616Y1043D02*
X2650Y1043D01*
X2716Y1043D02*
X2750Y1043D01*
X2816Y1043D02*
X2850Y1043D01*
X2916Y1043D02*
X2950Y1043D01*
X3016Y1043D02*
X3050Y1043D01*
X3116Y1043D02*
X3150Y1043D01*
X3216Y1043D02*
X3250Y1043D01*
X3316Y1043D02*
X3350Y1043D01*
X3416Y1043D02*
X3450Y1043D01*
X3516Y1043D02*
X3550Y1043D01*
X3616Y1043D02*
X3650Y1043D01*
X3716Y1043D02*
X3750Y1043D01*
X2414Y1042D02*
X2451Y1042D01*
X2514Y1042D02*
X2551Y1042D01*
X2614Y1042D02*
X2651Y1042D01*
X2714Y1042D02*
X2751Y1042D01*
X2814Y1042D02*
X2851Y1042D01*
X2914Y1042D02*
X2951Y1042D01*
X3014Y1042D02*
X3051Y1042D01*
X3114Y1042D02*
X3151Y1042D01*
X3214Y1042D02*
X3251Y1042D01*
X3314Y1042D02*
X3351Y1042D01*
X3414Y1042D02*
X3451Y1042D01*
X3514Y1042D02*
X3551Y1042D01*
X3614Y1042D02*
X3651Y1042D01*
X3714Y1042D02*
X3751Y1042D01*
X2412Y1041D02*
X2453Y1041D01*
X2512Y1041D02*
X2553Y1041D01*
X2612Y1041D02*
X2653Y1041D01*
X2712Y1041D02*
X2753Y1041D01*
X2812Y1041D02*
X2853Y1041D01*
X2912Y1041D02*
X2953Y1041D01*
X3012Y1041D02*
X3053Y1041D01*
X3112Y1041D02*
X3153Y1041D01*
X3212Y1041D02*
X3253Y1041D01*
X3312Y1041D02*
X3353Y1041D01*
X3412Y1041D02*
X3453Y1041D01*
X3512Y1041D02*
X3553Y1041D01*
X3612Y1041D02*
X3653Y1041D01*
X3712Y1041D02*
X3753Y1041D01*
X2411Y1040D02*
X2454Y1040D01*
X2511Y1040D02*
X2554Y1040D01*
X2611Y1040D02*
X2654Y1040D01*
X2711Y1040D02*
X2754Y1040D01*
X2811Y1040D02*
X2854Y1040D01*
X2911Y1040D02*
X2954Y1040D01*
X3011Y1040D02*
X3054Y1040D01*
X3111Y1040D02*
X3154Y1040D01*
X3211Y1040D02*
X3254Y1040D01*
X3311Y1040D02*
X3354Y1040D01*
X3411Y1040D02*
X3454Y1040D01*
X3511Y1040D02*
X3554Y1040D01*
X3611Y1040D02*
X3654Y1040D01*
X3711Y1040D02*
X3754Y1040D01*
X2410Y1039D02*
X2455Y1039D01*
X2510Y1039D02*
X2555Y1039D01*
X2610Y1039D02*
X2655Y1039D01*
X2710Y1039D02*
X2755Y1039D01*
X2810Y1039D02*
X2855Y1039D01*
X2910Y1039D02*
X2955Y1039D01*
X3010Y1039D02*
X3055Y1039D01*
X3110Y1039D02*
X3155Y1039D01*
X3210Y1039D02*
X3255Y1039D01*
X3310Y1039D02*
X3355Y1039D01*
X3410Y1039D02*
X3455Y1039D01*
X3510Y1039D02*
X3555Y1039D01*
X3610Y1039D02*
X3655Y1039D01*
X3710Y1039D02*
X3755Y1039D01*
X2409Y1038D02*
X2456Y1038D01*
X2509Y1038D02*
X2556Y1038D01*
X2609Y1038D02*
X2656Y1038D01*
X2709Y1038D02*
X2756Y1038D01*
X2809Y1038D02*
X2856Y1038D01*
X2909Y1038D02*
X2956Y1038D01*
X3009Y1038D02*
X3056Y1038D01*
X3109Y1038D02*
X3156Y1038D01*
X3209Y1038D02*
X3256Y1038D01*
X3309Y1038D02*
X3356Y1038D01*
X3409Y1038D02*
X3456Y1038D01*
X3509Y1038D02*
X3556Y1038D01*
X3609Y1038D02*
X3656Y1038D01*
X3709Y1038D02*
X3756Y1038D01*
X2408Y1037D02*
X2457Y1037D01*
X2508Y1037D02*
X2557Y1037D01*
X2608Y1037D02*
X2657Y1037D01*
X2708Y1037D02*
X2757Y1037D01*
X2808Y1037D02*
X2857Y1037D01*
X2908Y1037D02*
X2957Y1037D01*
X3008Y1037D02*
X3057Y1037D01*
X3108Y1037D02*
X3157Y1037D01*
X3208Y1037D02*
X3257Y1037D01*
X3308Y1037D02*
X3357Y1037D01*
X3408Y1037D02*
X3457Y1037D01*
X3508Y1037D02*
X3557Y1037D01*
X3608Y1037D02*
X3657Y1037D01*
X3708Y1037D02*
X3757Y1037D01*
X2407Y1036D02*
X2458Y1036D01*
X2507Y1036D02*
X2558Y1036D01*
X2607Y1036D02*
X2658Y1036D01*
X2707Y1036D02*
X2758Y1036D01*
X2807Y1036D02*
X2858Y1036D01*
X2907Y1036D02*
X2958Y1036D01*
X3007Y1036D02*
X3058Y1036D01*
X3107Y1036D02*
X3158Y1036D01*
X3207Y1036D02*
X3258Y1036D01*
X3307Y1036D02*
X3358Y1036D01*
X3407Y1036D02*
X3458Y1036D01*
X3507Y1036D02*
X3558Y1036D01*
X3607Y1036D02*
X3658Y1036D01*
X3707Y1036D02*
X3758Y1036D01*
X2406Y1035D02*
X2459Y1035D01*
X2506Y1035D02*
X2559Y1035D01*
X2606Y1035D02*
X2659Y1035D01*
X2706Y1035D02*
X2759Y1035D01*
X2806Y1035D02*
X2859Y1035D01*
X2906Y1035D02*
X2959Y1035D01*
X3006Y1035D02*
X3059Y1035D01*
X3106Y1035D02*
X3159Y1035D01*
X3206Y1035D02*
X3259Y1035D01*
X3306Y1035D02*
X3359Y1035D01*
X3406Y1035D02*
X3459Y1035D01*
X3506Y1035D02*
X3559Y1035D01*
X3606Y1035D02*
X3659Y1035D01*
X3706Y1035D02*
X3759Y1035D01*
X2405Y1034D02*
X2460Y1034D01*
X2505Y1034D02*
X2560Y1034D01*
X2605Y1034D02*
X2660Y1034D01*
X2705Y1034D02*
X2760Y1034D01*
X2805Y1034D02*
X2860Y1034D01*
X2905Y1034D02*
X2960Y1034D01*
X3005Y1034D02*
X3060Y1034D01*
X3105Y1034D02*
X3160Y1034D01*
X3205Y1034D02*
X3260Y1034D01*
X3305Y1034D02*
X3360Y1034D01*
X3405Y1034D02*
X3460Y1034D01*
X3505Y1034D02*
X3560Y1034D01*
X3605Y1034D02*
X3660Y1034D01*
X3705Y1034D02*
X3760Y1034D01*
X2405Y1033D02*
X2461Y1033D01*
X2505Y1033D02*
X2561Y1033D01*
X2605Y1033D02*
X2661Y1033D01*
X2705Y1033D02*
X2761Y1033D01*
X2805Y1033D02*
X2861Y1033D01*
X2905Y1033D02*
X2961Y1033D01*
X3005Y1033D02*
X3061Y1033D01*
X3105Y1033D02*
X3161Y1033D01*
X3205Y1033D02*
X3261Y1033D01*
X3305Y1033D02*
X3361Y1033D01*
X3405Y1033D02*
X3461Y1033D01*
X3505Y1033D02*
X3561Y1033D01*
X3605Y1033D02*
X3661Y1033D01*
X3705Y1033D02*
X3761Y1033D01*
X2404Y1032D02*
X2461Y1032D01*
X2504Y1032D02*
X2561Y1032D01*
X2604Y1032D02*
X2661Y1032D01*
X2704Y1032D02*
X2761Y1032D01*
X2804Y1032D02*
X2861Y1032D01*
X2904Y1032D02*
X2961Y1032D01*
X3004Y1032D02*
X3061Y1032D01*
X3104Y1032D02*
X3161Y1032D01*
X3204Y1032D02*
X3261Y1032D01*
X3304Y1032D02*
X3361Y1032D01*
X3404Y1032D02*
X3461Y1032D01*
X3504Y1032D02*
X3561Y1032D01*
X3604Y1032D02*
X3661Y1032D01*
X3704Y1032D02*
X3761Y1032D01*
X2403Y1031D02*
X2462Y1031D01*
X2503Y1031D02*
X2562Y1031D01*
X2603Y1031D02*
X2662Y1031D01*
X2703Y1031D02*
X2762Y1031D01*
X2803Y1031D02*
X2862Y1031D01*
X2903Y1031D02*
X2962Y1031D01*
X3003Y1031D02*
X3062Y1031D01*
X3103Y1031D02*
X3162Y1031D01*
X3203Y1031D02*
X3262Y1031D01*
X3303Y1031D02*
X3362Y1031D01*
X3403Y1031D02*
X3462Y1031D01*
X3503Y1031D02*
X3562Y1031D01*
X3603Y1031D02*
X3662Y1031D01*
X3703Y1031D02*
X3762Y1031D01*
X2403Y1030D02*
X2462Y1030D01*
X2503Y1030D02*
X2562Y1030D01*
X2603Y1030D02*
X2662Y1030D01*
X2703Y1030D02*
X2762Y1030D01*
X2803Y1030D02*
X2862Y1030D01*
X2903Y1030D02*
X2962Y1030D01*
X3003Y1030D02*
X3062Y1030D01*
X3103Y1030D02*
X3162Y1030D01*
X3203Y1030D02*
X3262Y1030D01*
X3303Y1030D02*
X3362Y1030D01*
X3403Y1030D02*
X3462Y1030D01*
X3503Y1030D02*
X3562Y1030D01*
X3603Y1030D02*
X3662Y1030D01*
X3703Y1030D02*
X3762Y1030D01*
X2402Y1029D02*
X2463Y1029D01*
X2502Y1029D02*
X2563Y1029D01*
X2602Y1029D02*
X2663Y1029D01*
X2702Y1029D02*
X2763Y1029D01*
X2802Y1029D02*
X2863Y1029D01*
X2902Y1029D02*
X2963Y1029D01*
X3002Y1029D02*
X3063Y1029D01*
X3102Y1029D02*
X3163Y1029D01*
X3202Y1029D02*
X3263Y1029D01*
X3302Y1029D02*
X3363Y1029D01*
X3402Y1029D02*
X3463Y1029D01*
X3502Y1029D02*
X3563Y1029D01*
X3602Y1029D02*
X3663Y1029D01*
X3702Y1029D02*
X3763Y1029D01*
X2402Y1028D02*
X2463Y1028D01*
X2502Y1028D02*
X2563Y1028D01*
X2602Y1028D02*
X2663Y1028D01*
X2702Y1028D02*
X2763Y1028D01*
X2802Y1028D02*
X2863Y1028D01*
X2902Y1028D02*
X2963Y1028D01*
X3002Y1028D02*
X3063Y1028D01*
X3102Y1028D02*
X3163Y1028D01*
X3202Y1028D02*
X3263Y1028D01*
X3302Y1028D02*
X3363Y1028D01*
X3402Y1028D02*
X3463Y1028D01*
X3502Y1028D02*
X3563Y1028D01*
X3602Y1028D02*
X3663Y1028D01*
X3702Y1028D02*
X3763Y1028D01*
X2401Y1027D02*
X2427Y1027D01*
X2439Y1027D02*
X2464Y1027D01*
X2501Y1027D02*
X2527Y1027D01*
X2539Y1027D02*
X2564Y1027D01*
X2601Y1027D02*
X2627Y1027D01*
X2639Y1027D02*
X2664Y1027D01*
X2701Y1027D02*
X2727Y1027D01*
X2739Y1027D02*
X2764Y1027D01*
X2801Y1027D02*
X2827Y1027D01*
X2839Y1027D02*
X2864Y1027D01*
X2901Y1027D02*
X2927Y1027D01*
X2939Y1027D02*
X2964Y1027D01*
X3001Y1027D02*
X3027Y1027D01*
X3039Y1027D02*
X3064Y1027D01*
X3101Y1027D02*
X3127Y1027D01*
X3139Y1027D02*
X3164Y1027D01*
X3201Y1027D02*
X3227Y1027D01*
X3239Y1027D02*
X3264Y1027D01*
X3301Y1027D02*
X3327Y1027D01*
X3339Y1027D02*
X3364Y1027D01*
X3401Y1027D02*
X3427Y1027D01*
X3439Y1027D02*
X3464Y1027D01*
X3501Y1027D02*
X3527Y1027D01*
X3539Y1027D02*
X3564Y1027D01*
X3601Y1027D02*
X3627Y1027D01*
X3639Y1027D02*
X3664Y1027D01*
X3701Y1027D02*
X3727Y1027D01*
X3739Y1027D02*
X3764Y1027D01*
X2401Y1026D02*
X2425Y1026D01*
X2441Y1026D02*
X2464Y1026D01*
X2501Y1026D02*
X2525Y1026D01*
X2541Y1026D02*
X2564Y1026D01*
X2601Y1026D02*
X2625Y1026D01*
X2641Y1026D02*
X2664Y1026D01*
X2701Y1026D02*
X2725Y1026D01*
X2741Y1026D02*
X2764Y1026D01*
X2801Y1026D02*
X2825Y1026D01*
X2841Y1026D02*
X2864Y1026D01*
X2901Y1026D02*
X2925Y1026D01*
X2941Y1026D02*
X2964Y1026D01*
X3001Y1026D02*
X3025Y1026D01*
X3041Y1026D02*
X3064Y1026D01*
X3101Y1026D02*
X3125Y1026D01*
X3141Y1026D02*
X3164Y1026D01*
X3201Y1026D02*
X3225Y1026D01*
X3241Y1026D02*
X3264Y1026D01*
X3301Y1026D02*
X3325Y1026D01*
X3341Y1026D02*
X3364Y1026D01*
X3401Y1026D02*
X3425Y1026D01*
X3441Y1026D02*
X3464Y1026D01*
X3501Y1026D02*
X3525Y1026D01*
X3541Y1026D02*
X3564Y1026D01*
X3601Y1026D02*
X3625Y1026D01*
X3641Y1026D02*
X3664Y1026D01*
X3701Y1026D02*
X3725Y1026D01*
X3741Y1026D02*
X3764Y1026D01*
X2401Y1025D02*
X2423Y1025D01*
X2442Y1025D02*
X2465Y1025D01*
X2501Y1025D02*
X2523Y1025D01*
X2542Y1025D02*
X2565Y1025D01*
X2601Y1025D02*
X2623Y1025D01*
X2642Y1025D02*
X2665Y1025D01*
X2701Y1025D02*
X2723Y1025D01*
X2742Y1025D02*
X2765Y1025D01*
X2800Y1025D02*
X2823Y1025D01*
X2842Y1025D02*
X2865Y1025D01*
X2900Y1025D02*
X2923Y1025D01*
X2942Y1025D02*
X2965Y1025D01*
X3000Y1025D02*
X3023Y1025D01*
X3042Y1025D02*
X3065Y1025D01*
X3100Y1025D02*
X3123Y1025D01*
X3142Y1025D02*
X3165Y1025D01*
X3200Y1025D02*
X3223Y1025D01*
X3242Y1025D02*
X3265Y1025D01*
X3300Y1025D02*
X3323Y1025D01*
X3342Y1025D02*
X3365Y1025D01*
X3400Y1025D02*
X3423Y1025D01*
X3442Y1025D02*
X3465Y1025D01*
X3500Y1025D02*
X3523Y1025D01*
X3542Y1025D02*
X3565Y1025D01*
X3600Y1025D02*
X3623Y1025D01*
X3642Y1025D02*
X3665Y1025D01*
X3700Y1025D02*
X3723Y1025D01*
X3742Y1025D02*
X3765Y1025D01*
X2400Y1024D02*
X2422Y1024D01*
X2443Y1024D02*
X2465Y1024D01*
X2500Y1024D02*
X2522Y1024D01*
X2543Y1024D02*
X2565Y1024D01*
X2600Y1024D02*
X2622Y1024D01*
X2643Y1024D02*
X2665Y1024D01*
X2700Y1024D02*
X2722Y1024D01*
X2743Y1024D02*
X2765Y1024D01*
X2800Y1024D02*
X2822Y1024D01*
X2843Y1024D02*
X2865Y1024D01*
X2900Y1024D02*
X2922Y1024D01*
X2943Y1024D02*
X2965Y1024D01*
X3000Y1024D02*
X3022Y1024D01*
X3043Y1024D02*
X3065Y1024D01*
X3100Y1024D02*
X3122Y1024D01*
X3143Y1024D02*
X3165Y1024D01*
X3200Y1024D02*
X3222Y1024D01*
X3243Y1024D02*
X3265Y1024D01*
X3300Y1024D02*
X3322Y1024D01*
X3343Y1024D02*
X3365Y1024D01*
X3400Y1024D02*
X3422Y1024D01*
X3443Y1024D02*
X3465Y1024D01*
X3500Y1024D02*
X3522Y1024D01*
X3543Y1024D02*
X3565Y1024D01*
X3600Y1024D02*
X3622Y1024D01*
X3643Y1024D02*
X3665Y1024D01*
X3700Y1024D02*
X3722Y1024D01*
X3743Y1024D02*
X3765Y1024D01*
X2400Y1023D02*
X2421Y1023D01*
X2444Y1023D02*
X2465Y1023D01*
X2500Y1023D02*
X2521Y1023D01*
X2544Y1023D02*
X2565Y1023D01*
X2600Y1023D02*
X2621Y1023D01*
X2644Y1023D02*
X2665Y1023D01*
X2700Y1023D02*
X2721Y1023D01*
X2744Y1023D02*
X2765Y1023D01*
X2800Y1023D02*
X2821Y1023D01*
X2844Y1023D02*
X2865Y1023D01*
X2900Y1023D02*
X2921Y1023D01*
X2944Y1023D02*
X2965Y1023D01*
X3000Y1023D02*
X3021Y1023D01*
X3044Y1023D02*
X3065Y1023D01*
X3100Y1023D02*
X3121Y1023D01*
X3144Y1023D02*
X3165Y1023D01*
X3200Y1023D02*
X3221Y1023D01*
X3244Y1023D02*
X3265Y1023D01*
X3300Y1023D02*
X3321Y1023D01*
X3344Y1023D02*
X3365Y1023D01*
X3400Y1023D02*
X3421Y1023D01*
X3444Y1023D02*
X3465Y1023D01*
X3500Y1023D02*
X3521Y1023D01*
X3544Y1023D02*
X3565Y1023D01*
X3600Y1023D02*
X3621Y1023D01*
X3644Y1023D02*
X3665Y1023D01*
X3700Y1023D02*
X3721Y1023D01*
X3744Y1023D02*
X3765Y1023D01*
X2400Y1022D02*
X2420Y1022D01*
X2445Y1022D02*
X2466Y1022D01*
X2500Y1022D02*
X2520Y1022D01*
X2545Y1022D02*
X2566Y1022D01*
X2600Y1022D02*
X2620Y1022D01*
X2645Y1022D02*
X2666Y1022D01*
X2700Y1022D02*
X2720Y1022D01*
X2745Y1022D02*
X2766Y1022D01*
X2800Y1022D02*
X2820Y1022D01*
X2845Y1022D02*
X2866Y1022D01*
X2899Y1022D02*
X2920Y1022D01*
X2945Y1022D02*
X2966Y1022D01*
X2999Y1022D02*
X3020Y1022D01*
X3045Y1022D02*
X3066Y1022D01*
X3099Y1022D02*
X3120Y1022D01*
X3145Y1022D02*
X3166Y1022D01*
X3199Y1022D02*
X3220Y1022D01*
X3245Y1022D02*
X3266Y1022D01*
X3299Y1022D02*
X3320Y1022D01*
X3345Y1022D02*
X3366Y1022D01*
X3399Y1022D02*
X3420Y1022D01*
X3445Y1022D02*
X3466Y1022D01*
X3499Y1022D02*
X3520Y1022D01*
X3545Y1022D02*
X3566Y1022D01*
X3599Y1022D02*
X3620Y1022D01*
X3645Y1022D02*
X3666Y1022D01*
X3699Y1022D02*
X3720Y1022D01*
X3745Y1022D02*
X3766Y1022D01*
X2399Y1021D02*
X2419Y1021D01*
X2446Y1021D02*
X2466Y1021D01*
X2499Y1021D02*
X2519Y1021D01*
X2546Y1021D02*
X2566Y1021D01*
X2599Y1021D02*
X2619Y1021D01*
X2646Y1021D02*
X2666Y1021D01*
X2699Y1021D02*
X2719Y1021D01*
X2746Y1021D02*
X2766Y1021D01*
X2799Y1021D02*
X2819Y1021D01*
X2846Y1021D02*
X2866Y1021D01*
X2899Y1021D02*
X2919Y1021D01*
X2946Y1021D02*
X2966Y1021D01*
X2999Y1021D02*
X3019Y1021D01*
X3046Y1021D02*
X3066Y1021D01*
X3099Y1021D02*
X3119Y1021D01*
X3146Y1021D02*
X3166Y1021D01*
X3199Y1021D02*
X3219Y1021D01*
X3246Y1021D02*
X3266Y1021D01*
X3299Y1021D02*
X3319Y1021D01*
X3346Y1021D02*
X3366Y1021D01*
X3399Y1021D02*
X3419Y1021D01*
X3446Y1021D02*
X3466Y1021D01*
X3499Y1021D02*
X3519Y1021D01*
X3546Y1021D02*
X3566Y1021D01*
X3599Y1021D02*
X3619Y1021D01*
X3646Y1021D02*
X3666Y1021D01*
X3699Y1021D02*
X3719Y1021D01*
X3746Y1021D02*
X3766Y1021D01*
X2399Y1020D02*
X2419Y1020D01*
X2446Y1020D02*
X2466Y1020D01*
X2499Y1020D02*
X2519Y1020D01*
X2546Y1020D02*
X2566Y1020D01*
X2599Y1020D02*
X2619Y1020D01*
X2646Y1020D02*
X2666Y1020D01*
X2699Y1020D02*
X2719Y1020D01*
X2746Y1020D02*
X2766Y1020D01*
X2799Y1020D02*
X2819Y1020D01*
X2846Y1020D02*
X2866Y1020D01*
X2899Y1020D02*
X2919Y1020D01*
X2946Y1020D02*
X2966Y1020D01*
X2999Y1020D02*
X3019Y1020D01*
X3046Y1020D02*
X3066Y1020D01*
X3099Y1020D02*
X3119Y1020D01*
X3146Y1020D02*
X3166Y1020D01*
X3199Y1020D02*
X3219Y1020D01*
X3246Y1020D02*
X3266Y1020D01*
X3299Y1020D02*
X3319Y1020D01*
X3346Y1020D02*
X3366Y1020D01*
X3399Y1020D02*
X3419Y1020D01*
X3446Y1020D02*
X3466Y1020D01*
X3499Y1020D02*
X3519Y1020D01*
X3546Y1020D02*
X3566Y1020D01*
X3599Y1020D02*
X3619Y1020D01*
X3646Y1020D02*
X3666Y1020D01*
X3699Y1020D02*
X3719Y1020D01*
X3746Y1020D02*
X3766Y1020D01*
X2399Y1019D02*
X2418Y1019D01*
X2447Y1019D02*
X2466Y1019D01*
X2499Y1019D02*
X2518Y1019D01*
X2547Y1019D02*
X2566Y1019D01*
X2599Y1019D02*
X2618Y1019D01*
X2647Y1019D02*
X2666Y1019D01*
X2699Y1019D02*
X2718Y1019D01*
X2747Y1019D02*
X2766Y1019D01*
X2799Y1019D02*
X2818Y1019D01*
X2847Y1019D02*
X2866Y1019D01*
X2899Y1019D02*
X2918Y1019D01*
X2947Y1019D02*
X2966Y1019D01*
X2999Y1019D02*
X3018Y1019D01*
X3047Y1019D02*
X3066Y1019D01*
X3099Y1019D02*
X3118Y1019D01*
X3147Y1019D02*
X3166Y1019D01*
X3199Y1019D02*
X3218Y1019D01*
X3247Y1019D02*
X3266Y1019D01*
X3299Y1019D02*
X3318Y1019D01*
X3347Y1019D02*
X3366Y1019D01*
X3399Y1019D02*
X3418Y1019D01*
X3447Y1019D02*
X3466Y1019D01*
X3499Y1019D02*
X3518Y1019D01*
X3547Y1019D02*
X3566Y1019D01*
X3599Y1019D02*
X3618Y1019D01*
X3647Y1019D02*
X3666Y1019D01*
X3699Y1019D02*
X3718Y1019D01*
X3747Y1019D02*
X3766Y1019D01*
X2399Y1018D02*
X2418Y1018D01*
X2447Y1018D02*
X2467Y1018D01*
X2499Y1018D02*
X2518Y1018D01*
X2547Y1018D02*
X2567Y1018D01*
X2599Y1018D02*
X2618Y1018D01*
X2647Y1018D02*
X2667Y1018D01*
X2699Y1018D02*
X2718Y1018D01*
X2747Y1018D02*
X2767Y1018D01*
X2799Y1018D02*
X2818Y1018D01*
X2847Y1018D02*
X2867Y1018D01*
X2899Y1018D02*
X2918Y1018D01*
X2947Y1018D02*
X2967Y1018D01*
X2999Y1018D02*
X3018Y1018D01*
X3047Y1018D02*
X3067Y1018D01*
X3099Y1018D02*
X3118Y1018D01*
X3147Y1018D02*
X3167Y1018D01*
X3199Y1018D02*
X3218Y1018D01*
X3247Y1018D02*
X3267Y1018D01*
X3299Y1018D02*
X3318Y1018D01*
X3347Y1018D02*
X3367Y1018D01*
X3399Y1018D02*
X3418Y1018D01*
X3447Y1018D02*
X3467Y1018D01*
X3499Y1018D02*
X3518Y1018D01*
X3547Y1018D02*
X3567Y1018D01*
X3599Y1018D02*
X3618Y1018D01*
X3647Y1018D02*
X3667Y1018D01*
X3699Y1018D02*
X3718Y1018D01*
X3747Y1018D02*
X3767Y1018D01*
X2398Y1017D02*
X2418Y1017D01*
X2448Y1017D02*
X2467Y1017D01*
X2498Y1017D02*
X2518Y1017D01*
X2548Y1017D02*
X2567Y1017D01*
X2598Y1017D02*
X2618Y1017D01*
X2648Y1017D02*
X2667Y1017D01*
X2698Y1017D02*
X2718Y1017D01*
X2748Y1017D02*
X2767Y1017D01*
X2798Y1017D02*
X2818Y1017D01*
X2848Y1017D02*
X2867Y1017D01*
X2898Y1017D02*
X2918Y1017D01*
X2948Y1017D02*
X2967Y1017D01*
X2998Y1017D02*
X3018Y1017D01*
X3048Y1017D02*
X3067Y1017D01*
X3098Y1017D02*
X3118Y1017D01*
X3148Y1017D02*
X3167Y1017D01*
X3198Y1017D02*
X3218Y1017D01*
X3248Y1017D02*
X3267Y1017D01*
X3298Y1017D02*
X3318Y1017D01*
X3348Y1017D02*
X3367Y1017D01*
X3398Y1017D02*
X3418Y1017D01*
X3448Y1017D02*
X3467Y1017D01*
X3498Y1017D02*
X3518Y1017D01*
X3548Y1017D02*
X3567Y1017D01*
X3598Y1017D02*
X3618Y1017D01*
X3648Y1017D02*
X3667Y1017D01*
X3698Y1017D02*
X3718Y1017D01*
X3748Y1017D02*
X3767Y1017D01*
X2398Y1016D02*
X2417Y1016D01*
X2448Y1016D02*
X2467Y1016D01*
X2498Y1016D02*
X2517Y1016D01*
X2548Y1016D02*
X2567Y1016D01*
X2598Y1016D02*
X2617Y1016D01*
X2648Y1016D02*
X2667Y1016D01*
X2698Y1016D02*
X2717Y1016D01*
X2748Y1016D02*
X2767Y1016D01*
X2798Y1016D02*
X2817Y1016D01*
X2848Y1016D02*
X2867Y1016D01*
X2898Y1016D02*
X2917Y1016D01*
X2948Y1016D02*
X2967Y1016D01*
X2998Y1016D02*
X3017Y1016D01*
X3048Y1016D02*
X3067Y1016D01*
X3098Y1016D02*
X3117Y1016D01*
X3148Y1016D02*
X3167Y1016D01*
X3198Y1016D02*
X3217Y1016D01*
X3248Y1016D02*
X3267Y1016D01*
X3298Y1016D02*
X3317Y1016D01*
X3348Y1016D02*
X3367Y1016D01*
X3398Y1016D02*
X3417Y1016D01*
X3448Y1016D02*
X3467Y1016D01*
X3498Y1016D02*
X3517Y1016D01*
X3548Y1016D02*
X3567Y1016D01*
X3598Y1016D02*
X3617Y1016D01*
X3648Y1016D02*
X3667Y1016D01*
X3698Y1016D02*
X3717Y1016D01*
X3748Y1016D02*
X3767Y1016D01*
X2398Y1015D02*
X2417Y1015D01*
X2448Y1015D02*
X2467Y1015D01*
X2498Y1015D02*
X2517Y1015D01*
X2548Y1015D02*
X2567Y1015D01*
X2598Y1015D02*
X2617Y1015D01*
X2648Y1015D02*
X2667Y1015D01*
X2698Y1015D02*
X2717Y1015D01*
X2748Y1015D02*
X2767Y1015D01*
X2798Y1015D02*
X2817Y1015D01*
X2848Y1015D02*
X2867Y1015D01*
X2898Y1015D02*
X2917Y1015D01*
X2948Y1015D02*
X2967Y1015D01*
X2998Y1015D02*
X3017Y1015D01*
X3048Y1015D02*
X3067Y1015D01*
X3098Y1015D02*
X3117Y1015D01*
X3148Y1015D02*
X3167Y1015D01*
X3198Y1015D02*
X3217Y1015D01*
X3248Y1015D02*
X3267Y1015D01*
X3298Y1015D02*
X3317Y1015D01*
X3348Y1015D02*
X3367Y1015D01*
X3398Y1015D02*
X3417Y1015D01*
X3448Y1015D02*
X3467Y1015D01*
X3498Y1015D02*
X3517Y1015D01*
X3548Y1015D02*
X3567Y1015D01*
X3598Y1015D02*
X3617Y1015D01*
X3648Y1015D02*
X3667Y1015D01*
X3698Y1015D02*
X3717Y1015D01*
X3748Y1015D02*
X3767Y1015D01*
X2398Y1014D02*
X2417Y1014D01*
X2448Y1014D02*
X2467Y1014D01*
X2498Y1014D02*
X2517Y1014D01*
X2548Y1014D02*
X2567Y1014D01*
X2598Y1014D02*
X2617Y1014D01*
X2648Y1014D02*
X2667Y1014D01*
X2698Y1014D02*
X2717Y1014D01*
X2748Y1014D02*
X2767Y1014D01*
X2798Y1014D02*
X2817Y1014D01*
X2848Y1014D02*
X2867Y1014D01*
X2898Y1014D02*
X2917Y1014D01*
X2948Y1014D02*
X2967Y1014D01*
X2998Y1014D02*
X3017Y1014D01*
X3048Y1014D02*
X3067Y1014D01*
X3098Y1014D02*
X3117Y1014D01*
X3148Y1014D02*
X3167Y1014D01*
X3198Y1014D02*
X3217Y1014D01*
X3248Y1014D02*
X3267Y1014D01*
X3298Y1014D02*
X3317Y1014D01*
X3348Y1014D02*
X3367Y1014D01*
X3398Y1014D02*
X3417Y1014D01*
X3448Y1014D02*
X3467Y1014D01*
X3498Y1014D02*
X3517Y1014D01*
X3548Y1014D02*
X3567Y1014D01*
X3598Y1014D02*
X3617Y1014D01*
X3648Y1014D02*
X3667Y1014D01*
X3698Y1014D02*
X3717Y1014D01*
X3748Y1014D02*
X3767Y1014D01*
X2398Y1013D02*
X2417Y1013D01*
X2448Y1013D02*
X2467Y1013D01*
X2498Y1013D02*
X2517Y1013D01*
X2548Y1013D02*
X2567Y1013D01*
X2598Y1013D02*
X2617Y1013D01*
X2648Y1013D02*
X2667Y1013D01*
X2698Y1013D02*
X2717Y1013D01*
X2748Y1013D02*
X2767Y1013D01*
X2798Y1013D02*
X2817Y1013D01*
X2848Y1013D02*
X2867Y1013D01*
X2898Y1013D02*
X2917Y1013D01*
X2948Y1013D02*
X2967Y1013D01*
X2998Y1013D02*
X3017Y1013D01*
X3048Y1013D02*
X3067Y1013D01*
X3098Y1013D02*
X3117Y1013D01*
X3148Y1013D02*
X3167Y1013D01*
X3198Y1013D02*
X3217Y1013D01*
X3248Y1013D02*
X3267Y1013D01*
X3298Y1013D02*
X3317Y1013D01*
X3348Y1013D02*
X3367Y1013D01*
X3398Y1013D02*
X3417Y1013D01*
X3448Y1013D02*
X3467Y1013D01*
X3498Y1013D02*
X3517Y1013D01*
X3548Y1013D02*
X3567Y1013D01*
X3598Y1013D02*
X3617Y1013D01*
X3648Y1013D02*
X3667Y1013D01*
X3698Y1013D02*
X3717Y1013D01*
X3748Y1013D02*
X3767Y1013D01*
X2398Y1012D02*
X2417Y1012D01*
X2448Y1012D02*
X2467Y1012D01*
X2498Y1012D02*
X2517Y1012D01*
X2548Y1012D02*
X2567Y1012D01*
X2598Y1012D02*
X2617Y1012D01*
X2648Y1012D02*
X2667Y1012D01*
X2698Y1012D02*
X2717Y1012D01*
X2748Y1012D02*
X2767Y1012D01*
X2798Y1012D02*
X2817Y1012D01*
X2848Y1012D02*
X2867Y1012D01*
X2898Y1012D02*
X2917Y1012D01*
X2948Y1012D02*
X2967Y1012D01*
X2998Y1012D02*
X3017Y1012D01*
X3048Y1012D02*
X3067Y1012D01*
X3098Y1012D02*
X3117Y1012D01*
X3148Y1012D02*
X3167Y1012D01*
X3198Y1012D02*
X3217Y1012D01*
X3248Y1012D02*
X3267Y1012D01*
X3298Y1012D02*
X3317Y1012D01*
X3348Y1012D02*
X3367Y1012D01*
X3398Y1012D02*
X3417Y1012D01*
X3448Y1012D02*
X3467Y1012D01*
X3498Y1012D02*
X3517Y1012D01*
X3548Y1012D02*
X3567Y1012D01*
X3598Y1012D02*
X3617Y1012D01*
X3648Y1012D02*
X3667Y1012D01*
X3698Y1012D02*
X3717Y1012D01*
X3748Y1012D02*
X3767Y1012D01*
X2398Y1011D02*
X2417Y1011D01*
X2448Y1011D02*
X2467Y1011D01*
X2498Y1011D02*
X2517Y1011D01*
X2548Y1011D02*
X2567Y1011D01*
X2598Y1011D02*
X2617Y1011D01*
X2648Y1011D02*
X2667Y1011D01*
X2698Y1011D02*
X2717Y1011D01*
X2748Y1011D02*
X2767Y1011D01*
X2798Y1011D02*
X2817Y1011D01*
X2848Y1011D02*
X2867Y1011D01*
X2898Y1011D02*
X2917Y1011D01*
X2948Y1011D02*
X2967Y1011D01*
X2998Y1011D02*
X3017Y1011D01*
X3048Y1011D02*
X3067Y1011D01*
X3098Y1011D02*
X3117Y1011D01*
X3148Y1011D02*
X3167Y1011D01*
X3198Y1011D02*
X3217Y1011D01*
X3248Y1011D02*
X3267Y1011D01*
X3298Y1011D02*
X3317Y1011D01*
X3348Y1011D02*
X3367Y1011D01*
X3398Y1011D02*
X3417Y1011D01*
X3448Y1011D02*
X3467Y1011D01*
X3498Y1011D02*
X3517Y1011D01*
X3548Y1011D02*
X3567Y1011D01*
X3598Y1011D02*
X3617Y1011D01*
X3648Y1011D02*
X3667Y1011D01*
X3698Y1011D02*
X3717Y1011D01*
X3748Y1011D02*
X3767Y1011D01*
X2398Y1010D02*
X2417Y1010D01*
X2448Y1010D02*
X2467Y1010D01*
X2498Y1010D02*
X2517Y1010D01*
X2548Y1010D02*
X2567Y1010D01*
X2598Y1010D02*
X2617Y1010D01*
X2648Y1010D02*
X2667Y1010D01*
X2698Y1010D02*
X2717Y1010D01*
X2748Y1010D02*
X2767Y1010D01*
X2798Y1010D02*
X2817Y1010D01*
X2848Y1010D02*
X2867Y1010D01*
X2898Y1010D02*
X2917Y1010D01*
X2948Y1010D02*
X2967Y1010D01*
X2998Y1010D02*
X3017Y1010D01*
X3048Y1010D02*
X3067Y1010D01*
X3098Y1010D02*
X3117Y1010D01*
X3148Y1010D02*
X3167Y1010D01*
X3198Y1010D02*
X3217Y1010D01*
X3248Y1010D02*
X3267Y1010D01*
X3298Y1010D02*
X3317Y1010D01*
X3348Y1010D02*
X3367Y1010D01*
X3398Y1010D02*
X3417Y1010D01*
X3448Y1010D02*
X3467Y1010D01*
X3498Y1010D02*
X3517Y1010D01*
X3548Y1010D02*
X3567Y1010D01*
X3598Y1010D02*
X3617Y1010D01*
X3648Y1010D02*
X3667Y1010D01*
X3698Y1010D02*
X3717Y1010D01*
X3748Y1010D02*
X3767Y1010D01*
X2398Y1009D02*
X2418Y1009D01*
X2448Y1009D02*
X2467Y1009D01*
X2498Y1009D02*
X2518Y1009D01*
X2548Y1009D02*
X2567Y1009D01*
X2598Y1009D02*
X2618Y1009D01*
X2648Y1009D02*
X2667Y1009D01*
X2698Y1009D02*
X2718Y1009D01*
X2748Y1009D02*
X2767Y1009D01*
X2798Y1009D02*
X2818Y1009D01*
X2848Y1009D02*
X2867Y1009D01*
X2898Y1009D02*
X2918Y1009D01*
X2948Y1009D02*
X2967Y1009D01*
X2998Y1009D02*
X3018Y1009D01*
X3048Y1009D02*
X3067Y1009D01*
X3098Y1009D02*
X3118Y1009D01*
X3148Y1009D02*
X3167Y1009D01*
X3198Y1009D02*
X3218Y1009D01*
X3248Y1009D02*
X3267Y1009D01*
X3298Y1009D02*
X3318Y1009D01*
X3348Y1009D02*
X3367Y1009D01*
X3398Y1009D02*
X3418Y1009D01*
X3448Y1009D02*
X3467Y1009D01*
X3498Y1009D02*
X3518Y1009D01*
X3548Y1009D02*
X3567Y1009D01*
X3598Y1009D02*
X3618Y1009D01*
X3648Y1009D02*
X3667Y1009D01*
X3698Y1009D02*
X3718Y1009D01*
X3748Y1009D02*
X3767Y1009D01*
X2399Y1008D02*
X2418Y1008D01*
X2447Y1008D02*
X2467Y1008D01*
X2499Y1008D02*
X2518Y1008D01*
X2547Y1008D02*
X2567Y1008D01*
X2599Y1008D02*
X2618Y1008D01*
X2647Y1008D02*
X2667Y1008D01*
X2699Y1008D02*
X2718Y1008D01*
X2747Y1008D02*
X2767Y1008D01*
X2799Y1008D02*
X2818Y1008D01*
X2847Y1008D02*
X2867Y1008D01*
X2899Y1008D02*
X2918Y1008D01*
X2947Y1008D02*
X2967Y1008D01*
X2999Y1008D02*
X3018Y1008D01*
X3047Y1008D02*
X3067Y1008D01*
X3099Y1008D02*
X3118Y1008D01*
X3147Y1008D02*
X3167Y1008D01*
X3199Y1008D02*
X3218Y1008D01*
X3247Y1008D02*
X3267Y1008D01*
X3299Y1008D02*
X3318Y1008D01*
X3347Y1008D02*
X3367Y1008D01*
X3399Y1008D02*
X3418Y1008D01*
X3447Y1008D02*
X3467Y1008D01*
X3499Y1008D02*
X3518Y1008D01*
X3547Y1008D02*
X3567Y1008D01*
X3599Y1008D02*
X3618Y1008D01*
X3647Y1008D02*
X3667Y1008D01*
X3699Y1008D02*
X3718Y1008D01*
X3747Y1008D02*
X3767Y1008D01*
X2399Y1007D02*
X2418Y1007D01*
X2447Y1007D02*
X2467Y1007D01*
X2499Y1007D02*
X2518Y1007D01*
X2547Y1007D02*
X2567Y1007D01*
X2599Y1007D02*
X2618Y1007D01*
X2647Y1007D02*
X2667Y1007D01*
X2699Y1007D02*
X2718Y1007D01*
X2747Y1007D02*
X2766Y1007D01*
X2799Y1007D02*
X2818Y1007D01*
X2847Y1007D02*
X2866Y1007D01*
X2899Y1007D02*
X2918Y1007D01*
X2947Y1007D02*
X2966Y1007D01*
X2999Y1007D02*
X3018Y1007D01*
X3047Y1007D02*
X3066Y1007D01*
X3099Y1007D02*
X3118Y1007D01*
X3147Y1007D02*
X3166Y1007D01*
X3199Y1007D02*
X3218Y1007D01*
X3247Y1007D02*
X3266Y1007D01*
X3299Y1007D02*
X3318Y1007D01*
X3347Y1007D02*
X3366Y1007D01*
X3399Y1007D02*
X3418Y1007D01*
X3447Y1007D02*
X3466Y1007D01*
X3499Y1007D02*
X3518Y1007D01*
X3547Y1007D02*
X3566Y1007D01*
X3599Y1007D02*
X3618Y1007D01*
X3647Y1007D02*
X3666Y1007D01*
X3699Y1007D02*
X3718Y1007D01*
X3747Y1007D02*
X3766Y1007D01*
X2399Y1006D02*
X2419Y1006D01*
X2447Y1006D02*
X2466Y1006D01*
X2499Y1006D02*
X2519Y1006D01*
X2547Y1006D02*
X2566Y1006D01*
X2599Y1006D02*
X2619Y1006D01*
X2647Y1006D02*
X2666Y1006D01*
X2699Y1006D02*
X2719Y1006D01*
X2747Y1006D02*
X2766Y1006D01*
X2799Y1006D02*
X2819Y1006D01*
X2847Y1006D02*
X2866Y1006D01*
X2899Y1006D02*
X2919Y1006D01*
X2947Y1006D02*
X2966Y1006D01*
X2999Y1006D02*
X3019Y1006D01*
X3047Y1006D02*
X3066Y1006D01*
X3099Y1006D02*
X3119Y1006D01*
X3147Y1006D02*
X3166Y1006D01*
X3199Y1006D02*
X3219Y1006D01*
X3247Y1006D02*
X3266Y1006D01*
X3299Y1006D02*
X3319Y1006D01*
X3347Y1006D02*
X3366Y1006D01*
X3399Y1006D02*
X3419Y1006D01*
X3447Y1006D02*
X3466Y1006D01*
X3499Y1006D02*
X3519Y1006D01*
X3547Y1006D02*
X3566Y1006D01*
X3599Y1006D02*
X3619Y1006D01*
X3647Y1006D02*
X3666Y1006D01*
X3699Y1006D02*
X3719Y1006D01*
X3746Y1006D02*
X3766Y1006D01*
X2399Y1005D02*
X2419Y1005D01*
X2446Y1005D02*
X2466Y1005D01*
X2499Y1005D02*
X2519Y1005D01*
X2546Y1005D02*
X2566Y1005D01*
X2599Y1005D02*
X2619Y1005D01*
X2646Y1005D02*
X2666Y1005D01*
X2699Y1005D02*
X2719Y1005D01*
X2746Y1005D02*
X2766Y1005D01*
X2799Y1005D02*
X2819Y1005D01*
X2846Y1005D02*
X2866Y1005D01*
X2899Y1005D02*
X2919Y1005D01*
X2946Y1005D02*
X2966Y1005D01*
X2999Y1005D02*
X3019Y1005D01*
X3046Y1005D02*
X3066Y1005D01*
X3099Y1005D02*
X3119Y1005D01*
X3146Y1005D02*
X3166Y1005D01*
X3199Y1005D02*
X3219Y1005D01*
X3246Y1005D02*
X3266Y1005D01*
X3299Y1005D02*
X3319Y1005D01*
X3346Y1005D02*
X3366Y1005D01*
X3399Y1005D02*
X3419Y1005D01*
X3446Y1005D02*
X3466Y1005D01*
X3499Y1005D02*
X3519Y1005D01*
X3546Y1005D02*
X3566Y1005D01*
X3599Y1005D02*
X3619Y1005D01*
X3646Y1005D02*
X3666Y1005D01*
X3699Y1005D02*
X3719Y1005D01*
X3746Y1005D02*
X3766Y1005D01*
X2399Y1004D02*
X2420Y1004D01*
X2445Y1004D02*
X2466Y1004D01*
X2499Y1004D02*
X2520Y1004D01*
X2545Y1004D02*
X2566Y1004D01*
X2599Y1004D02*
X2620Y1004D01*
X2645Y1004D02*
X2666Y1004D01*
X2699Y1004D02*
X2720Y1004D01*
X2745Y1004D02*
X2766Y1004D01*
X2799Y1004D02*
X2820Y1004D01*
X2845Y1004D02*
X2866Y1004D01*
X2899Y1004D02*
X2920Y1004D01*
X2945Y1004D02*
X2966Y1004D01*
X2999Y1004D02*
X3020Y1004D01*
X3045Y1004D02*
X3066Y1004D01*
X3099Y1004D02*
X3120Y1004D01*
X3145Y1004D02*
X3166Y1004D01*
X3199Y1004D02*
X3220Y1004D01*
X3245Y1004D02*
X3266Y1004D01*
X3299Y1004D02*
X3320Y1004D01*
X3345Y1004D02*
X3366Y1004D01*
X3399Y1004D02*
X3420Y1004D01*
X3445Y1004D02*
X3466Y1004D01*
X3499Y1004D02*
X3520Y1004D01*
X3545Y1004D02*
X3566Y1004D01*
X3599Y1004D02*
X3620Y1004D01*
X3645Y1004D02*
X3666Y1004D01*
X3699Y1004D02*
X3720Y1004D01*
X3745Y1004D02*
X3766Y1004D01*
X2400Y1003D02*
X2421Y1003D01*
X2444Y1003D02*
X2466Y1003D01*
X2500Y1003D02*
X2521Y1003D01*
X2544Y1003D02*
X2566Y1003D01*
X2600Y1003D02*
X2621Y1003D01*
X2644Y1003D02*
X2666Y1003D01*
X2700Y1003D02*
X2721Y1003D01*
X2744Y1003D02*
X2766Y1003D01*
X2800Y1003D02*
X2821Y1003D01*
X2844Y1003D02*
X2866Y1003D01*
X2900Y1003D02*
X2921Y1003D01*
X2944Y1003D02*
X2966Y1003D01*
X3000Y1003D02*
X3021Y1003D01*
X3044Y1003D02*
X3065Y1003D01*
X3100Y1003D02*
X3121Y1003D01*
X3144Y1003D02*
X3165Y1003D01*
X3200Y1003D02*
X3221Y1003D01*
X3244Y1003D02*
X3265Y1003D01*
X3300Y1003D02*
X3321Y1003D01*
X3344Y1003D02*
X3365Y1003D01*
X3400Y1003D02*
X3421Y1003D01*
X3444Y1003D02*
X3465Y1003D01*
X3500Y1003D02*
X3521Y1003D01*
X3544Y1003D02*
X3565Y1003D01*
X3600Y1003D02*
X3621Y1003D01*
X3644Y1003D02*
X3665Y1003D01*
X3700Y1003D02*
X3721Y1003D01*
X3744Y1003D02*
X3765Y1003D01*
X2400Y1002D02*
X2422Y1002D01*
X2443Y1002D02*
X2465Y1002D01*
X2500Y1002D02*
X2522Y1002D01*
X2543Y1002D02*
X2565Y1002D01*
X2600Y1002D02*
X2622Y1002D01*
X2643Y1002D02*
X2665Y1002D01*
X2700Y1002D02*
X2722Y1002D01*
X2743Y1002D02*
X2765Y1002D01*
X2800Y1002D02*
X2822Y1002D01*
X2843Y1002D02*
X2865Y1002D01*
X2900Y1002D02*
X2922Y1002D01*
X2943Y1002D02*
X2965Y1002D01*
X3000Y1002D02*
X3022Y1002D01*
X3043Y1002D02*
X3065Y1002D01*
X3100Y1002D02*
X3122Y1002D01*
X3143Y1002D02*
X3165Y1002D01*
X3200Y1002D02*
X3222Y1002D01*
X3243Y1002D02*
X3265Y1002D01*
X3300Y1002D02*
X3322Y1002D01*
X3343Y1002D02*
X3365Y1002D01*
X3400Y1002D02*
X3422Y1002D01*
X3443Y1002D02*
X3465Y1002D01*
X3500Y1002D02*
X3522Y1002D01*
X3543Y1002D02*
X3565Y1002D01*
X3600Y1002D02*
X3622Y1002D01*
X3643Y1002D02*
X3665Y1002D01*
X3700Y1002D02*
X3722Y1002D01*
X3743Y1002D02*
X3765Y1002D01*
X2400Y1001D02*
X2423Y1001D01*
X2442Y1001D02*
X2465Y1001D01*
X2500Y1001D02*
X2523Y1001D01*
X2542Y1001D02*
X2565Y1001D01*
X2600Y1001D02*
X2623Y1001D01*
X2642Y1001D02*
X2665Y1001D01*
X2700Y1001D02*
X2723Y1001D01*
X2742Y1001D02*
X2765Y1001D01*
X2800Y1001D02*
X2823Y1001D01*
X2842Y1001D02*
X2865Y1001D01*
X2900Y1001D02*
X2923Y1001D01*
X2942Y1001D02*
X2965Y1001D01*
X3000Y1001D02*
X3023Y1001D01*
X3042Y1001D02*
X3065Y1001D01*
X3100Y1001D02*
X3123Y1001D01*
X3142Y1001D02*
X3165Y1001D01*
X3200Y1001D02*
X3223Y1001D01*
X3242Y1001D02*
X3265Y1001D01*
X3300Y1001D02*
X3323Y1001D01*
X3342Y1001D02*
X3365Y1001D01*
X3400Y1001D02*
X3423Y1001D01*
X3442Y1001D02*
X3465Y1001D01*
X3500Y1001D02*
X3523Y1001D01*
X3542Y1001D02*
X3565Y1001D01*
X3600Y1001D02*
X3623Y1001D01*
X3642Y1001D02*
X3665Y1001D01*
X3700Y1001D02*
X3723Y1001D01*
X3742Y1001D02*
X3765Y1001D01*
X2401Y1000D02*
X2424Y1000D01*
X2441Y1000D02*
X2464Y1000D01*
X2501Y1000D02*
X2524Y1000D01*
X2541Y1000D02*
X2564Y1000D01*
X2601Y1000D02*
X2624Y1000D01*
X2641Y1000D02*
X2664Y1000D01*
X2701Y1000D02*
X2724Y1000D01*
X2741Y1000D02*
X2764Y1000D01*
X2801Y1000D02*
X2824Y1000D01*
X2841Y1000D02*
X2864Y1000D01*
X2901Y1000D02*
X2924Y1000D01*
X2941Y1000D02*
X2964Y1000D01*
X3001Y1000D02*
X3024Y1000D01*
X3041Y1000D02*
X3064Y1000D01*
X3101Y1000D02*
X3124Y1000D01*
X3141Y1000D02*
X3164Y1000D01*
X3201Y1000D02*
X3224Y1000D01*
X3241Y1000D02*
X3264Y1000D01*
X3301Y1000D02*
X3324Y1000D01*
X3341Y1000D02*
X3364Y1000D01*
X3401Y1000D02*
X3424Y1000D01*
X3441Y1000D02*
X3464Y1000D01*
X3501Y1000D02*
X3524Y1000D01*
X3541Y1000D02*
X3564Y1000D01*
X3601Y1000D02*
X3624Y1000D01*
X3641Y1000D02*
X3664Y1000D01*
X3701Y1000D02*
X3724Y1000D01*
X3741Y1000D02*
X3764Y1000D01*
X2401Y999D02*
X2426Y999D01*
X2439Y999D02*
X2464Y999D01*
X2501Y999D02*
X2526Y999D01*
X2539Y999D02*
X2564Y999D01*
X2601Y999D02*
X2626Y999D01*
X2639Y999D02*
X2664Y999D01*
X2701Y999D02*
X2726Y999D01*
X2739Y999D02*
X2764Y999D01*
X2801Y999D02*
X2826Y999D01*
X2839Y999D02*
X2864Y999D01*
X2901Y999D02*
X2926Y999D01*
X2939Y999D02*
X2964Y999D01*
X3001Y999D02*
X3026Y999D01*
X3039Y999D02*
X3064Y999D01*
X3101Y999D02*
X3126Y999D01*
X3139Y999D02*
X3164Y999D01*
X3201Y999D02*
X3226Y999D01*
X3239Y999D02*
X3264Y999D01*
X3301Y999D02*
X3326Y999D01*
X3339Y999D02*
X3364Y999D01*
X3401Y999D02*
X3426Y999D01*
X3439Y999D02*
X3464Y999D01*
X3501Y999D02*
X3526Y999D01*
X3539Y999D02*
X3564Y999D01*
X3601Y999D02*
X3626Y999D01*
X3639Y999D02*
X3664Y999D01*
X3701Y999D02*
X3726Y999D01*
X3739Y999D02*
X3764Y999D01*
X2402Y998D02*
X2431Y998D01*
X2434Y998D02*
X2464Y998D01*
X2502Y998D02*
X2531Y998D01*
X2534Y998D02*
X2564Y998D01*
X2602Y998D02*
X2631Y998D01*
X2634Y998D02*
X2664Y998D01*
X2702Y998D02*
X2731Y998D01*
X2734Y998D02*
X2764Y998D01*
X2802Y998D02*
X2831Y998D01*
X2834Y998D02*
X2864Y998D01*
X2902Y998D02*
X2931Y998D01*
X2934Y998D02*
X2964Y998D01*
X3002Y998D02*
X3031Y998D01*
X3034Y998D02*
X3064Y998D01*
X3102Y998D02*
X3131Y998D01*
X3134Y998D02*
X3164Y998D01*
X3202Y998D02*
X3231Y998D01*
X3234Y998D02*
X3264Y998D01*
X3302Y998D02*
X3331Y998D01*
X3334Y998D02*
X3364Y998D01*
X3402Y998D02*
X3431Y998D01*
X3434Y998D02*
X3464Y998D01*
X3502Y998D02*
X3531Y998D01*
X3534Y998D02*
X3564Y998D01*
X3602Y998D02*
X3631Y998D01*
X3634Y998D02*
X3664Y998D01*
X3702Y998D02*
X3731Y998D01*
X3734Y998D02*
X3764Y998D01*
X2402Y997D02*
X2463Y997D01*
X2502Y997D02*
X2563Y997D01*
X2602Y997D02*
X2663Y997D01*
X2702Y997D02*
X2763Y997D01*
X2802Y997D02*
X2863Y997D01*
X2902Y997D02*
X2963Y997D01*
X3002Y997D02*
X3063Y997D01*
X3102Y997D02*
X3163Y997D01*
X3202Y997D02*
X3263Y997D01*
X3302Y997D02*
X3363Y997D01*
X3402Y997D02*
X3463Y997D01*
X3502Y997D02*
X3563Y997D01*
X3602Y997D02*
X3663Y997D01*
X3702Y997D02*
X3763Y997D01*
X2403Y996D02*
X2463Y996D01*
X2503Y996D02*
X2563Y996D01*
X2603Y996D02*
X2663Y996D01*
X2703Y996D02*
X2763Y996D01*
X2803Y996D02*
X2863Y996D01*
X2903Y996D02*
X2963Y996D01*
X3003Y996D02*
X3063Y996D01*
X3103Y996D02*
X3163Y996D01*
X3203Y996D02*
X3263Y996D01*
X3303Y996D02*
X3363Y996D01*
X3403Y996D02*
X3463Y996D01*
X3503Y996D02*
X3563Y996D01*
X3603Y996D02*
X3663Y996D01*
X3703Y996D02*
X3763Y996D01*
X2403Y995D02*
X2462Y995D01*
X2503Y995D02*
X2562Y995D01*
X2603Y995D02*
X2662Y995D01*
X2703Y995D02*
X2762Y995D01*
X2803Y995D02*
X2862Y995D01*
X2903Y995D02*
X2962Y995D01*
X3003Y995D02*
X3062Y995D01*
X3103Y995D02*
X3162Y995D01*
X3203Y995D02*
X3262Y995D01*
X3303Y995D02*
X3362Y995D01*
X3403Y995D02*
X3462Y995D01*
X3503Y995D02*
X3562Y995D01*
X3603Y995D02*
X3662Y995D01*
X3703Y995D02*
X3762Y995D01*
X2404Y994D02*
X2461Y994D01*
X2504Y994D02*
X2561Y994D01*
X2604Y994D02*
X2661Y994D01*
X2704Y994D02*
X2761Y994D01*
X2804Y994D02*
X2861Y994D01*
X2904Y994D02*
X2961Y994D01*
X3004Y994D02*
X3061Y994D01*
X3104Y994D02*
X3161Y994D01*
X3204Y994D02*
X3261Y994D01*
X3304Y994D02*
X3361Y994D01*
X3404Y994D02*
X3461Y994D01*
X3504Y994D02*
X3561Y994D01*
X3604Y994D02*
X3661Y994D01*
X3704Y994D02*
X3761Y994D01*
X2404Y993D02*
X2461Y993D01*
X2504Y993D02*
X2561Y993D01*
X2604Y993D02*
X2661Y993D01*
X2704Y993D02*
X2761Y993D01*
X2804Y993D02*
X2861Y993D01*
X2904Y993D02*
X2961Y993D01*
X3004Y993D02*
X3061Y993D01*
X3104Y993D02*
X3161Y993D01*
X3204Y993D02*
X3261Y993D01*
X3304Y993D02*
X3361Y993D01*
X3404Y993D02*
X3461Y993D01*
X3504Y993D02*
X3561Y993D01*
X3604Y993D02*
X3661Y993D01*
X3704Y993D02*
X3761Y993D01*
X2405Y992D02*
X2460Y992D01*
X2505Y992D02*
X2560Y992D01*
X2605Y992D02*
X2660Y992D01*
X2705Y992D02*
X2760Y992D01*
X2805Y992D02*
X2860Y992D01*
X2905Y992D02*
X2960Y992D01*
X3005Y992D02*
X3060Y992D01*
X3105Y992D02*
X3160Y992D01*
X3205Y992D02*
X3260Y992D01*
X3305Y992D02*
X3360Y992D01*
X3405Y992D02*
X3460Y992D01*
X3505Y992D02*
X3560Y992D01*
X3605Y992D02*
X3660Y992D01*
X3705Y992D02*
X3760Y992D01*
X2406Y991D02*
X2459Y991D01*
X2506Y991D02*
X2559Y991D01*
X2606Y991D02*
X2659Y991D01*
X2706Y991D02*
X2759Y991D01*
X2806Y991D02*
X2859Y991D01*
X2906Y991D02*
X2959Y991D01*
X3006Y991D02*
X3059Y991D01*
X3106Y991D02*
X3159Y991D01*
X3206Y991D02*
X3259Y991D01*
X3306Y991D02*
X3359Y991D01*
X3406Y991D02*
X3459Y991D01*
X3506Y991D02*
X3559Y991D01*
X3606Y991D02*
X3659Y991D01*
X3706Y991D02*
X3759Y991D01*
X2407Y990D02*
X2459Y990D01*
X2507Y990D02*
X2559Y990D01*
X2607Y990D02*
X2659Y990D01*
X2707Y990D02*
X2759Y990D01*
X2807Y990D02*
X2858Y990D01*
X2907Y990D02*
X2958Y990D01*
X3007Y990D02*
X3058Y990D01*
X3107Y990D02*
X3158Y990D01*
X3207Y990D02*
X3258Y990D01*
X3307Y990D02*
X3358Y990D01*
X3407Y990D02*
X3458Y990D01*
X3507Y990D02*
X3558Y990D01*
X3607Y990D02*
X3658Y990D01*
X3707Y990D02*
X3758Y990D01*
X2408Y989D02*
X2458Y989D01*
X2508Y989D02*
X2558Y989D01*
X2608Y989D02*
X2658Y989D01*
X2708Y989D02*
X2758Y989D01*
X2808Y989D02*
X2858Y989D01*
X2908Y989D02*
X2958Y989D01*
X3008Y989D02*
X3058Y989D01*
X3108Y989D02*
X3158Y989D01*
X3208Y989D02*
X3258Y989D01*
X3308Y989D02*
X3358Y989D01*
X3408Y989D02*
X3458Y989D01*
X3508Y989D02*
X3558Y989D01*
X3608Y989D02*
X3658Y989D01*
X3708Y989D02*
X3758Y989D01*
X2409Y988D02*
X2457Y988D01*
X2509Y988D02*
X2557Y988D01*
X2609Y988D02*
X2657Y988D01*
X2709Y988D02*
X2757Y988D01*
X2809Y988D02*
X2857Y988D01*
X2909Y988D02*
X2957Y988D01*
X3009Y988D02*
X3057Y988D01*
X3109Y988D02*
X3157Y988D01*
X3209Y988D02*
X3257Y988D01*
X3309Y988D02*
X3357Y988D01*
X3409Y988D02*
X3457Y988D01*
X3509Y988D02*
X3557Y988D01*
X3609Y988D02*
X3657Y988D01*
X3709Y988D02*
X3757Y988D01*
X2410Y987D02*
X2456Y987D01*
X2510Y987D02*
X2556Y987D01*
X2610Y987D02*
X2656Y987D01*
X2710Y987D02*
X2756Y987D01*
X2810Y987D02*
X2856Y987D01*
X2910Y987D02*
X2956Y987D01*
X3010Y987D02*
X3056Y987D01*
X3110Y987D02*
X3156Y987D01*
X3210Y987D02*
X3256Y987D01*
X3310Y987D02*
X3356Y987D01*
X3410Y987D02*
X3456Y987D01*
X3510Y987D02*
X3556Y987D01*
X3610Y987D02*
X3656Y987D01*
X3710Y987D02*
X3756Y987D01*
X2411Y986D02*
X2454Y986D01*
X2511Y986D02*
X2554Y986D01*
X2611Y986D02*
X2654Y986D01*
X2711Y986D02*
X2754Y986D01*
X2811Y986D02*
X2854Y986D01*
X2911Y986D02*
X2954Y986D01*
X3011Y986D02*
X3054Y986D01*
X3111Y986D02*
X3154Y986D01*
X3211Y986D02*
X3254Y986D01*
X3311Y986D02*
X3354Y986D01*
X3411Y986D02*
X3454Y986D01*
X3511Y986D02*
X3554Y986D01*
X3611Y986D02*
X3654Y986D01*
X3711Y986D02*
X3754Y986D01*
X2412Y985D02*
X2453Y985D01*
X2512Y985D02*
X2553Y985D01*
X2612Y985D02*
X2653Y985D01*
X2712Y985D02*
X2753Y985D01*
X2812Y985D02*
X2853Y985D01*
X2912Y985D02*
X2953Y985D01*
X3012Y985D02*
X3053Y985D01*
X3112Y985D02*
X3153Y985D01*
X3212Y985D02*
X3253Y985D01*
X3312Y985D02*
X3353Y985D01*
X3412Y985D02*
X3453Y985D01*
X3512Y985D02*
X3553Y985D01*
X3612Y985D02*
X3653Y985D01*
X3712Y985D02*
X3753Y985D01*
X2414Y984D02*
X2452Y984D01*
X2514Y984D02*
X2552Y984D01*
X2614Y984D02*
X2652Y984D01*
X2714Y984D02*
X2752Y984D01*
X2814Y984D02*
X2852Y984D01*
X2914Y984D02*
X2952Y984D01*
X3014Y984D02*
X3052Y984D01*
X3114Y984D02*
X3152Y984D01*
X3214Y984D02*
X3252Y984D01*
X3314Y984D02*
X3352Y984D01*
X3414Y984D02*
X3452Y984D01*
X3514Y984D02*
X3552Y984D01*
X3614Y984D02*
X3652Y984D01*
X3714Y984D02*
X3752Y984D01*
X2415Y983D02*
X2450Y983D01*
X2515Y983D02*
X2550Y983D01*
X2615Y983D02*
X2650Y983D01*
X2715Y983D02*
X2750Y983D01*
X2815Y983D02*
X2850Y983D01*
X2915Y983D02*
X2950Y983D01*
X3015Y983D02*
X3050Y983D01*
X3115Y983D02*
X3150Y983D01*
X3215Y983D02*
X3250Y983D01*
X3315Y983D02*
X3350Y983D01*
X3415Y983D02*
X3450Y983D01*
X3515Y983D02*
X3550Y983D01*
X3615Y983D02*
X3650Y983D01*
X3715Y983D02*
X3750Y983D01*
X2417Y982D02*
X2448Y982D01*
X2517Y982D02*
X2548Y982D01*
X2617Y982D02*
X2648Y982D01*
X2717Y982D02*
X2748Y982D01*
X2817Y982D02*
X2848Y982D01*
X2917Y982D02*
X2948Y982D01*
X3017Y982D02*
X3048Y982D01*
X3117Y982D02*
X3148Y982D01*
X3217Y982D02*
X3248Y982D01*
X3317Y982D02*
X3348Y982D01*
X3417Y982D02*
X3448Y982D01*
X3517Y982D02*
X3548Y982D01*
X3617Y982D02*
X3648Y982D01*
X3717Y982D02*
X3748Y982D01*
X2419Y981D02*
X2446Y981D01*
X2519Y981D02*
X2546Y981D01*
X2619Y981D02*
X2646Y981D01*
X2719Y981D02*
X2746Y981D01*
X2819Y981D02*
X2846Y981D01*
X2919Y981D02*
X2946Y981D01*
X3019Y981D02*
X3046Y981D01*
X3119Y981D02*
X3146Y981D01*
X3219Y981D02*
X3246Y981D01*
X3319Y981D02*
X3346Y981D01*
X3419Y981D02*
X3446Y981D01*
X3519Y981D02*
X3546Y981D01*
X3619Y981D02*
X3646Y981D01*
X3719Y981D02*
X3746Y981D01*
X2422Y980D02*
X2443Y980D01*
X2522Y980D02*
X2543Y980D01*
X2622Y980D02*
X2643Y980D01*
X2722Y980D02*
X2743Y980D01*
X2822Y980D02*
X2843Y980D01*
X2922Y980D02*
X2943Y980D01*
X3022Y980D02*
X3043Y980D01*
X3122Y980D02*
X3143Y980D01*
X3222Y980D02*
X3243Y980D01*
X3322Y980D02*
X3343Y980D01*
X3422Y980D02*
X3443Y980D01*
X3522Y980D02*
X3543Y980D01*
X3622Y980D02*
X3643Y980D01*
X3722Y980D02*
X3743Y980D01*
X2425Y979D02*
X2440Y979D01*
X2525Y979D02*
X2540Y979D01*
X2625Y979D02*
X2640Y979D01*
X2725Y979D02*
X2740Y979D01*
X2825Y979D02*
X2840Y979D01*
X2925Y979D02*
X2940Y979D01*
X3025Y979D02*
X3040Y979D01*
X3125Y979D02*
X3140Y979D01*
X3225Y979D02*
X3240Y979D01*
X3325Y979D02*
X3340Y979D01*
X3425Y979D02*
X3440Y979D01*
X3525Y979D02*
X3540Y979D01*
X3625Y979D02*
X3640Y979D01*
X3725Y979D02*
X3740Y979D01*
X2432Y978D02*
X2434Y978D01*
X2532Y978D02*
X2534Y978D01*
X2632Y978D02*
X2634Y978D01*
X2732Y978D02*
X2734Y978D01*
X2832Y978D02*
X2834Y978D01*
X2932Y978D02*
X2934Y978D01*
X3032Y978D02*
X3034Y978D01*
X3131Y978D02*
X3134Y978D01*
X3231Y978D02*
X3234Y978D01*
X3331Y978D02*
X3334Y978D01*
X3431Y978D02*
X3434Y978D01*
X3531Y978D02*
X3534Y978D01*
X3631Y978D02*
X3634Y978D01*
X3731Y978D02*
X3734Y978D01*
D02*
G04 End of Copper0*
M02*