; NON-PLATED HOLES START AT T1
; THROUGH (PLATED) HOLES START AT T100
M48
INCH
T1C0.125984
T2C0.130000
T100C0.031497
T101C0.046472
T102C0.098425
T103C0.039370
T104C0.040000
T105C0.015748
T106C0.035000
T107C0.030000
%
T1
X001388Y001539
X001388Y033538
X032388Y001539
X066388Y001539
X032388Y033538
X066388Y033538
T2
X010388Y032438
X021388Y032438
T100
X035388Y027554
X058388Y006538
X010388Y017554
X058388Y030538
X058388Y029554
X058388Y023554
X058388Y018538
X058388Y012538
X058388Y005554
X035388Y028538
X010388Y018538
X058388Y017554
X058388Y024539
X058388Y011554
T101
X020388Y026538
X022388Y026538
X021388Y026538
T102
X016888Y012539
X016888Y004539
X003888Y012539
X003888Y004539
T103
X007388Y004539
X013388Y012539
X010388Y004539
X009388Y012539
X012388Y012539
X003688Y006039
X003688Y010039
X006388Y012539
X015388Y004539
X003688Y008039
X013388Y004539
X009388Y004539
X012388Y004539
X014388Y012539
X006388Y004539
X008388Y012539
X011388Y012539
X007388Y012539
X010388Y012539
X003688Y007039
X003688Y011039
X014388Y004539
X015388Y012539
X008388Y004539
X011388Y004539
X003688Y009039
T104
X066388Y014161
X066388Y021539
X066388Y018539
X066388Y012539
X010388Y026538
X066388Y009539
X066388Y020161
X001388Y026538
X009388Y026538
X066388Y017161
X066388Y011161
X011388Y026538
X066388Y024539
X066388Y008161
X066388Y015539
X001388Y027916
X066388Y023161
T105
X051720Y023118
X043320Y027198
X023160Y015918
X048600Y008238
X039720Y023358
X045480Y007758
X049080Y019758
X044760Y024318
X038760Y017598
X055080Y017838
X023880Y015438
X042360Y020238
X043320Y026478
X046920Y015678
X042360Y014478
X033720Y018078
X025080Y019278
X059640Y016878
X024840Y009678
X039960Y022638
X044520Y019758
X035400Y013038
X050280Y009678
X032760Y023118
X045000Y004638
X024120Y003198
X025080Y010878
T106
X035388Y007539
X031388Y017539
X043388Y022539
X046388Y004539
X046388Y023539
X031388Y020539
X043388Y018539
X046388Y019539
X029388Y007539
X046388Y022539
X038388Y007539
X050388Y005539
X014388Y023539
X050388Y024539
X043388Y017539
X032388Y004539
X046388Y018539
X030388Y007539
X028388Y017539
X014388Y022539
X024388Y011539
X043388Y016539
X028388Y020539
X026388Y004539
X046388Y017539
X035388Y004539
X033388Y007539
X054388Y012539
X046388Y016539
X029388Y004539
X050388Y018539
X027388Y007539
X038388Y004539
X032388Y017539
X036388Y007539
X054388Y030538
X032388Y020539
X030388Y004539
X043388Y029538
X026388Y017539
X043388Y013539
X026388Y020539
X043388Y028538
X033388Y004539
X046388Y029538
X031388Y007539
X043388Y012539
X043388Y031538
X029388Y017539
X046388Y013539
X028388Y028538
X054388Y005539
X029388Y020539
X027388Y004539
X054388Y024539
X046388Y028538
X025388Y007539
X036388Y004539
X043388Y011539
X043388Y030538
X030388Y017539
X034388Y007539
X046388Y012539
X046388Y031538
X043388Y007539
X030388Y020539
X043388Y010539
X028388Y007539
X046388Y011539
X046388Y030538
X020388Y011539
X037388Y007539
X043388Y006539
X032388Y028538
X043388Y025538
X046388Y007539
X031388Y004539
X054388Y018539
X046388Y010539
X027388Y017539
X050388Y012539
X043388Y005539
X043388Y024539
X046388Y006539
X027388Y020539
X046388Y025538
X025388Y004539
X034388Y004539
X032388Y007539
X043388Y004539
X050388Y030538
X043388Y023539
X046388Y005539
X046388Y024539
X028388Y004539
X043388Y019539
X026388Y007539
X037388Y004539
T107
X018388Y023539
X025388Y024540
X019888Y008039
X025388Y023539
X006388Y023540
X019888Y007037
X018388Y022539
X006388Y022539
T00
M30
