G04 MADE WITH FRITZING*
G04 WWW.FRITZING.ORG*
G04 DOUBLE SIDED*
G04 HOLES PLATED*
G04 CONTOUR ON CENTER OF CONTOUR VECTOR*
%ASAXBY*%
%FSLAX23Y23*%
%MOIN*%
%OFA0B0*%
%SFA1.0B1.0*%
%ADD10C,0.070000*%
%ADD11C,0.140000*%
%ADD12C,0.085000*%
%ADD13C,0.080000*%
%ADD14C,0.072992*%
%ADD15C,0.135984*%
%ADD16C,0.063528*%
%ADD17C,0.090000*%
%ADD18C,0.148425*%
%ADD19C,0.049370*%
%ADD20R,0.085000X0.085000*%
%ADD21R,0.072992X0.072992*%
%ADD22R,0.090000X0.090000*%
%ADD23R,0.001000X0.001000*%
%LNMASK0*%
G90*
G70*
G54D10*
X939Y2654D03*
X1039Y2654D03*
X1139Y2654D03*
G54D11*
X1039Y3244D03*
G54D12*
X1439Y2354D03*
X1439Y2254D03*
G54D13*
X639Y2254D03*
X639Y2354D03*
X1839Y2254D03*
X1839Y2354D03*
G54D14*
X1039Y1755D03*
X1039Y1854D03*
G54D15*
X139Y154D03*
X139Y3354D03*
X6639Y3354D03*
X6639Y154D03*
G54D16*
X2039Y2654D03*
X2139Y2654D03*
X2239Y2654D03*
G54D15*
X3239Y3354D03*
X3239Y154D03*
G54D12*
X4339Y3154D03*
X4639Y3154D03*
X4339Y3054D03*
X4639Y3054D03*
X4339Y2954D03*
X4639Y2954D03*
X4339Y2854D03*
X4639Y2854D03*
X4339Y2554D03*
X4639Y2554D03*
X4339Y2454D03*
X4639Y2454D03*
X4339Y2354D03*
X4639Y2354D03*
X4339Y2254D03*
X4639Y2254D03*
X4339Y1954D03*
X4639Y1954D03*
X4339Y1854D03*
X4639Y1854D03*
X4339Y1754D03*
X4639Y1754D03*
X4339Y1654D03*
X4639Y1654D03*
X4339Y1354D03*
X4639Y1354D03*
X4339Y1254D03*
X4639Y1254D03*
X4339Y1154D03*
X4639Y1154D03*
X4339Y1054D03*
X4639Y1054D03*
X4339Y754D03*
X4639Y754D03*
X4339Y654D03*
X4639Y654D03*
X4339Y554D03*
X4639Y554D03*
X4339Y454D03*
X4639Y454D03*
X3239Y2054D03*
X3239Y1754D03*
X3139Y2054D03*
X3139Y1754D03*
X3039Y2054D03*
X3039Y1754D03*
X2939Y2054D03*
X2939Y1754D03*
X2839Y2054D03*
X2839Y1754D03*
X2739Y2054D03*
X2739Y1754D03*
X2639Y2054D03*
X2639Y1754D03*
G54D17*
X6639Y2154D03*
X6639Y2016D03*
X6639Y1854D03*
X6639Y1716D03*
X6639Y1554D03*
X6639Y1416D03*
X6639Y1254D03*
X6639Y1116D03*
X6639Y954D03*
X6639Y816D03*
G54D12*
X2039Y1154D03*
X2439Y1154D03*
G54D13*
X1989Y804D03*
X1989Y704D03*
X2539Y2354D03*
X2539Y2454D03*
G54D14*
X3539Y2755D03*
X3539Y2854D03*
G54D12*
X2839Y2854D03*
X3239Y2854D03*
G54D17*
X139Y2654D03*
X139Y2792D03*
G54D14*
X5839Y2955D03*
X5839Y3054D03*
X5839Y2355D03*
X5839Y2454D03*
X5839Y1755D03*
X5839Y1854D03*
X5839Y1155D03*
X5839Y1254D03*
X5839Y555D03*
X5839Y654D03*
G54D12*
X5039Y3054D03*
X5439Y3054D03*
X5039Y2454D03*
X5439Y2454D03*
X5039Y1854D03*
X5439Y1854D03*
X5039Y1254D03*
X5439Y1254D03*
X5039Y554D03*
X5439Y554D03*
X3839Y754D03*
X3839Y454D03*
X3739Y754D03*
X3739Y454D03*
X3639Y754D03*
X3639Y454D03*
X3539Y754D03*
X3539Y454D03*
X3439Y754D03*
X3439Y454D03*
X3339Y754D03*
X3339Y454D03*
X3239Y754D03*
X3239Y454D03*
X3139Y754D03*
X3139Y454D03*
X3039Y754D03*
X3039Y454D03*
X2939Y754D03*
X2939Y454D03*
X2839Y754D03*
X2839Y454D03*
X2739Y754D03*
X2739Y454D03*
X2639Y754D03*
X2639Y454D03*
X2539Y754D03*
X2539Y454D03*
G54D17*
X6639Y2454D03*
X6639Y2316D03*
G54D18*
X389Y1254D03*
X1689Y1254D03*
G54D13*
X369Y1104D03*
X369Y1004D03*
X369Y904D03*
X369Y804D03*
X369Y704D03*
X369Y604D03*
X1539Y1254D03*
X1439Y1254D03*
X1339Y1254D03*
X1239Y1254D03*
X1139Y1254D03*
X1039Y1254D03*
X939Y1254D03*
X839Y1254D03*
X739Y1254D03*
G54D18*
X1689Y454D03*
G54D13*
X639Y1254D03*
G54D18*
X389Y454D03*
G54D13*
X639Y454D03*
X739Y454D03*
X839Y454D03*
X939Y454D03*
X1039Y454D03*
X1139Y454D03*
X1239Y454D03*
X1339Y454D03*
X1439Y454D03*
X1539Y454D03*
G54D19*
X4452Y1976D03*
X4476Y2432D03*
X2508Y1928D03*
X4548Y776D03*
X3540Y1304D03*
X2508Y1088D03*
X3372Y1808D03*
X4236Y2024D03*
X2388Y1544D03*
X4500Y464D03*
X4236Y1448D03*
X3876Y1760D03*
X4692Y1568D03*
X4908Y1976D03*
X4332Y2648D03*
X3996Y2264D03*
X2316Y1592D03*
X2484Y968D03*
X5172Y2312D03*
X4332Y2720D03*
X3972Y2336D03*
X3276Y2312D03*
X2412Y320D03*
X5028Y968D03*
X4860Y824D03*
X5964Y1688D03*
X5508Y1784D03*
G54D20*
X1439Y2354D03*
G54D21*
X1039Y1755D03*
G54D20*
X4339Y3154D03*
X4339Y2554D03*
X4339Y1954D03*
X4339Y1354D03*
X4339Y754D03*
X3239Y2054D03*
G54D22*
X6639Y2154D03*
X6639Y1854D03*
X6639Y1554D03*
X6639Y1254D03*
X6639Y954D03*
G54D21*
X3539Y2755D03*
G54D22*
X139Y2654D03*
G54D21*
X5839Y2955D03*
X5839Y2355D03*
X5839Y1755D03*
X5839Y1155D03*
X5839Y555D03*
G54D20*
X3839Y754D03*
G54D22*
X6639Y2454D03*
G54D23*
X932Y2719D02*
X945Y2719D01*
X1032Y2719D02*
X1045Y2719D01*
X1132Y2719D02*
X1145Y2719D01*
X2032Y2719D02*
X2044Y2719D01*
X2132Y2719D02*
X2144Y2719D01*
X2232Y2719D02*
X2244Y2719D01*
X928Y2718D02*
X948Y2718D01*
X1028Y2718D02*
X1048Y2718D01*
X1128Y2718D02*
X1148Y2718D01*
X2028Y2718D02*
X2048Y2718D01*
X2128Y2718D02*
X2148Y2718D01*
X2228Y2718D02*
X2248Y2718D01*
X925Y2717D02*
X951Y2717D01*
X1025Y2717D02*
X1051Y2717D01*
X1125Y2717D02*
X1151Y2717D01*
X2025Y2717D02*
X2051Y2717D01*
X2125Y2717D02*
X2151Y2717D01*
X2225Y2717D02*
X2251Y2717D01*
X923Y2716D02*
X953Y2716D01*
X1023Y2716D02*
X1053Y2716D01*
X1123Y2716D02*
X1153Y2716D01*
X2023Y2716D02*
X2053Y2716D01*
X2123Y2716D02*
X2153Y2716D01*
X2223Y2716D02*
X2253Y2716D01*
X921Y2715D02*
X955Y2715D01*
X1021Y2715D02*
X1055Y2715D01*
X1121Y2715D02*
X1155Y2715D01*
X2021Y2715D02*
X2055Y2715D01*
X2121Y2715D02*
X2155Y2715D01*
X2221Y2715D02*
X2255Y2715D01*
X920Y2714D02*
X957Y2714D01*
X1020Y2714D02*
X1057Y2714D01*
X1120Y2714D02*
X1157Y2714D01*
X2019Y2714D02*
X2057Y2714D01*
X2119Y2714D02*
X2157Y2714D01*
X2219Y2714D02*
X2257Y2714D01*
X918Y2713D02*
X958Y2713D01*
X1018Y2713D02*
X1058Y2713D01*
X1118Y2713D02*
X1158Y2713D01*
X2018Y2713D02*
X2058Y2713D01*
X2118Y2713D02*
X2158Y2713D01*
X2218Y2713D02*
X2258Y2713D01*
X917Y2712D02*
X960Y2712D01*
X1017Y2712D02*
X1060Y2712D01*
X1117Y2712D02*
X1160Y2712D01*
X2017Y2712D02*
X2059Y2712D01*
X2117Y2712D02*
X2159Y2712D01*
X2217Y2712D02*
X2259Y2712D01*
X916Y2711D02*
X961Y2711D01*
X1016Y2711D02*
X1061Y2711D01*
X1116Y2711D02*
X1161Y2711D01*
X2015Y2711D02*
X2061Y2711D01*
X2115Y2711D02*
X2161Y2711D01*
X2215Y2711D02*
X2261Y2711D01*
X914Y2710D02*
X962Y2710D01*
X1014Y2710D02*
X1062Y2710D01*
X1114Y2710D02*
X1162Y2710D01*
X2014Y2710D02*
X2062Y2710D01*
X2114Y2710D02*
X2162Y2710D01*
X2214Y2710D02*
X2262Y2710D01*
X913Y2709D02*
X963Y2709D01*
X1013Y2709D02*
X1063Y2709D01*
X1113Y2709D02*
X1163Y2709D01*
X2013Y2709D02*
X2063Y2709D01*
X2113Y2709D02*
X2163Y2709D01*
X2213Y2709D02*
X2263Y2709D01*
X913Y2708D02*
X964Y2708D01*
X1013Y2708D02*
X1064Y2708D01*
X1113Y2708D02*
X1164Y2708D01*
X2012Y2708D02*
X2064Y2708D01*
X2112Y2708D02*
X2164Y2708D01*
X2212Y2708D02*
X2264Y2708D01*
X912Y2707D02*
X965Y2707D01*
X1012Y2707D02*
X1065Y2707D01*
X1112Y2707D02*
X1165Y2707D01*
X2012Y2707D02*
X2064Y2707D01*
X2112Y2707D02*
X2164Y2707D01*
X2212Y2707D02*
X2264Y2707D01*
X911Y2706D02*
X965Y2706D01*
X1011Y2706D02*
X1065Y2706D01*
X1111Y2706D02*
X1165Y2706D01*
X2011Y2706D02*
X2065Y2706D01*
X2111Y2706D02*
X2165Y2706D01*
X2211Y2706D02*
X2265Y2706D01*
X910Y2705D02*
X966Y2705D01*
X1010Y2705D02*
X1066Y2705D01*
X1110Y2705D02*
X1166Y2705D01*
X2010Y2705D02*
X2066Y2705D01*
X2110Y2705D02*
X2166Y2705D01*
X2210Y2705D02*
X2266Y2705D01*
X910Y2704D02*
X967Y2704D01*
X1010Y2704D02*
X1067Y2704D01*
X1109Y2704D02*
X1167Y2704D01*
X2009Y2704D02*
X2067Y2704D01*
X2109Y2704D02*
X2167Y2704D01*
X2209Y2704D02*
X2267Y2704D01*
X909Y2703D02*
X967Y2703D01*
X1009Y2703D02*
X1067Y2703D01*
X1109Y2703D02*
X1167Y2703D01*
X2009Y2703D02*
X2067Y2703D01*
X2109Y2703D02*
X2167Y2703D01*
X2209Y2703D02*
X2267Y2703D01*
X908Y2702D02*
X968Y2702D01*
X1008Y2702D02*
X1068Y2702D01*
X1108Y2702D02*
X1168Y2702D01*
X2008Y2702D02*
X2068Y2702D01*
X2108Y2702D02*
X2168Y2702D01*
X2208Y2702D02*
X2268Y2702D01*
X908Y2701D02*
X969Y2701D01*
X1008Y2701D02*
X1069Y2701D01*
X1108Y2701D02*
X1169Y2701D01*
X2008Y2701D02*
X2068Y2701D01*
X2108Y2701D02*
X2168Y2701D01*
X2208Y2701D02*
X2268Y2701D01*
X907Y2700D02*
X969Y2700D01*
X1007Y2700D02*
X1069Y2700D01*
X1107Y2700D02*
X1169Y2700D01*
X2007Y2700D02*
X2069Y2700D01*
X2107Y2700D02*
X2169Y2700D01*
X2207Y2700D02*
X2269Y2700D01*
X907Y2699D02*
X970Y2699D01*
X1007Y2699D02*
X1070Y2699D01*
X1107Y2699D02*
X1169Y2699D01*
X2007Y2699D02*
X2069Y2699D01*
X2107Y2699D02*
X2169Y2699D01*
X2207Y2699D02*
X2269Y2699D01*
X906Y2698D02*
X970Y2698D01*
X1006Y2698D02*
X1070Y2698D01*
X1106Y2698D02*
X1170Y2698D01*
X2006Y2698D02*
X2070Y2698D01*
X2106Y2698D02*
X2170Y2698D01*
X2206Y2698D02*
X2270Y2698D01*
X906Y2697D02*
X970Y2697D01*
X1006Y2697D02*
X1070Y2697D01*
X1106Y2697D02*
X1170Y2697D01*
X2006Y2697D02*
X2070Y2697D01*
X2106Y2697D02*
X2170Y2697D01*
X2206Y2697D02*
X2270Y2697D01*
X906Y2696D02*
X971Y2696D01*
X1006Y2696D02*
X1071Y2696D01*
X1106Y2696D02*
X1171Y2696D01*
X2006Y2696D02*
X2071Y2696D01*
X2105Y2696D02*
X2171Y2696D01*
X2205Y2696D02*
X2271Y2696D01*
X905Y2695D02*
X971Y2695D01*
X1005Y2695D02*
X1071Y2695D01*
X1105Y2695D02*
X1171Y2695D01*
X2005Y2695D02*
X2071Y2695D01*
X2105Y2695D02*
X2171Y2695D01*
X2205Y2695D02*
X2271Y2695D01*
X905Y2694D02*
X971Y2694D01*
X1005Y2694D02*
X1071Y2694D01*
X1105Y2694D02*
X1171Y2694D01*
X2005Y2694D02*
X2071Y2694D01*
X2105Y2694D02*
X2171Y2694D01*
X2205Y2694D02*
X2271Y2694D01*
X905Y2693D02*
X972Y2693D01*
X1005Y2693D02*
X1072Y2693D01*
X1105Y2693D02*
X1172Y2693D01*
X2005Y2693D02*
X2071Y2693D01*
X2105Y2693D02*
X2171Y2693D01*
X2205Y2693D02*
X2271Y2693D01*
X904Y2692D02*
X972Y2692D01*
X1004Y2692D02*
X1072Y2692D01*
X1104Y2692D02*
X1172Y2692D01*
X2004Y2692D02*
X2072Y2692D01*
X2104Y2692D02*
X2172Y2692D01*
X2204Y2692D02*
X2272Y2692D01*
X904Y2691D02*
X972Y2691D01*
X1004Y2691D02*
X1072Y2691D01*
X1104Y2691D02*
X1172Y2691D01*
X2004Y2691D02*
X2072Y2691D01*
X2104Y2691D02*
X2172Y2691D01*
X2204Y2691D02*
X2272Y2691D01*
X904Y2690D02*
X972Y2690D01*
X1004Y2690D02*
X1072Y2690D01*
X1104Y2690D02*
X1172Y2690D01*
X2004Y2690D02*
X2072Y2690D01*
X2104Y2690D02*
X2172Y2690D01*
X2204Y2690D02*
X2272Y2690D01*
X904Y2689D02*
X972Y2689D01*
X1004Y2689D02*
X1072Y2689D01*
X1104Y2689D02*
X1172Y2689D01*
X2004Y2689D02*
X2072Y2689D01*
X2104Y2689D02*
X2172Y2689D01*
X2204Y2689D02*
X2272Y2689D01*
X904Y2688D02*
X972Y2688D01*
X1004Y2688D02*
X1072Y2688D01*
X1104Y2688D02*
X1172Y2688D01*
X2004Y2688D02*
X2072Y2688D01*
X2104Y2688D02*
X2172Y2688D01*
X2204Y2688D02*
X2272Y2688D01*
X904Y2687D02*
X973Y2687D01*
X1004Y2687D02*
X1073Y2687D01*
X1104Y2687D02*
X1173Y2687D01*
X2004Y2687D02*
X2072Y2687D01*
X2104Y2687D02*
X2172Y2687D01*
X2204Y2687D02*
X2272Y2687D01*
X904Y2686D02*
X973Y2686D01*
X1004Y2686D02*
X1073Y2686D01*
X1104Y2686D02*
X1173Y2686D01*
X2004Y2686D02*
X2072Y2686D01*
X2104Y2686D02*
X2172Y2686D01*
X2204Y2686D02*
X2272Y2686D01*
X904Y2685D02*
X973Y2685D01*
X1004Y2685D02*
X1073Y2685D01*
X1104Y2685D02*
X1173Y2685D01*
X2004Y2685D02*
X2073Y2685D01*
X2104Y2685D02*
X2172Y2685D01*
X2204Y2685D02*
X2272Y2685D01*
X904Y2684D02*
X973Y2684D01*
X1004Y2684D02*
X1073Y2684D01*
X1104Y2684D02*
X1173Y2684D01*
X2004Y2684D02*
X2073Y2684D01*
X2104Y2684D02*
X2172Y2684D01*
X2204Y2684D02*
X2272Y2684D01*
X904Y2683D02*
X973Y2683D01*
X1004Y2683D02*
X1073Y2683D01*
X1104Y2683D02*
X1173Y2683D01*
X2004Y2683D02*
X2073Y2683D01*
X2104Y2683D02*
X2172Y2683D01*
X2204Y2683D02*
X2272Y2683D01*
X904Y2682D02*
X973Y2682D01*
X1004Y2682D02*
X1073Y2682D01*
X1104Y2682D02*
X1173Y2682D01*
X2004Y2682D02*
X2073Y2682D01*
X2104Y2682D02*
X2172Y2682D01*
X2204Y2682D02*
X2272Y2682D01*
X904Y2681D02*
X973Y2681D01*
X1004Y2681D02*
X1073Y2681D01*
X1104Y2681D02*
X1173Y2681D01*
X2004Y2681D02*
X2073Y2681D01*
X2104Y2681D02*
X2172Y2681D01*
X2204Y2681D02*
X2272Y2681D01*
X904Y2680D02*
X973Y2680D01*
X1004Y2680D02*
X1073Y2680D01*
X1104Y2680D02*
X1173Y2680D01*
X2004Y2680D02*
X2073Y2680D01*
X2104Y2680D02*
X2172Y2680D01*
X2204Y2680D02*
X2272Y2680D01*
X904Y2679D02*
X973Y2679D01*
X1004Y2679D02*
X1073Y2679D01*
X1104Y2679D02*
X1173Y2679D01*
X2004Y2679D02*
X2073Y2679D01*
X2104Y2679D02*
X2172Y2679D01*
X2204Y2679D02*
X2272Y2679D01*
X904Y2678D02*
X973Y2678D01*
X1004Y2678D02*
X1073Y2678D01*
X1104Y2678D02*
X1173Y2678D01*
X2004Y2678D02*
X2073Y2678D01*
X2104Y2678D02*
X2172Y2678D01*
X2204Y2678D02*
X2272Y2678D01*
X904Y2677D02*
X973Y2677D01*
X1004Y2677D02*
X1073Y2677D01*
X1104Y2677D02*
X1173Y2677D01*
X2004Y2677D02*
X2073Y2677D01*
X2104Y2677D02*
X2172Y2677D01*
X2204Y2677D02*
X2272Y2677D01*
X904Y2676D02*
X973Y2676D01*
X1004Y2676D02*
X1073Y2676D01*
X1104Y2676D02*
X1173Y2676D01*
X2004Y2676D02*
X2073Y2676D01*
X2104Y2676D02*
X2172Y2676D01*
X2204Y2676D02*
X2272Y2676D01*
X904Y2675D02*
X973Y2675D01*
X1004Y2675D02*
X1073Y2675D01*
X1104Y2675D02*
X1173Y2675D01*
X2004Y2675D02*
X2073Y2675D01*
X2104Y2675D02*
X2172Y2675D01*
X2204Y2675D02*
X2272Y2675D01*
X904Y2674D02*
X973Y2674D01*
X1004Y2674D02*
X1073Y2674D01*
X1104Y2674D02*
X1173Y2674D01*
X2004Y2674D02*
X2073Y2674D01*
X2104Y2674D02*
X2172Y2674D01*
X2204Y2674D02*
X2272Y2674D01*
X904Y2673D02*
X973Y2673D01*
X1004Y2673D02*
X1073Y2673D01*
X1104Y2673D02*
X1173Y2673D01*
X2004Y2673D02*
X2073Y2673D01*
X2104Y2673D02*
X2172Y2673D01*
X2204Y2673D02*
X2272Y2673D01*
X904Y2672D02*
X973Y2672D01*
X1004Y2672D02*
X1073Y2672D01*
X1104Y2672D02*
X1173Y2672D01*
X2004Y2672D02*
X2073Y2672D01*
X2104Y2672D02*
X2172Y2672D01*
X2204Y2672D02*
X2272Y2672D01*
X904Y2671D02*
X973Y2671D01*
X1004Y2671D02*
X1073Y2671D01*
X1104Y2671D02*
X1173Y2671D01*
X2004Y2671D02*
X2073Y2671D01*
X2104Y2671D02*
X2172Y2671D01*
X2204Y2671D02*
X2272Y2671D01*
X904Y2670D02*
X973Y2670D01*
X1004Y2670D02*
X1073Y2670D01*
X1104Y2670D02*
X1173Y2670D01*
X2004Y2670D02*
X2073Y2670D01*
X2104Y2670D02*
X2172Y2670D01*
X2204Y2670D02*
X2272Y2670D01*
X904Y2669D02*
X933Y2669D01*
X943Y2669D02*
X973Y2669D01*
X1004Y2669D02*
X1033Y2669D01*
X1043Y2669D02*
X1073Y2669D01*
X1104Y2669D02*
X1133Y2669D01*
X1143Y2669D02*
X1173Y2669D01*
X2004Y2669D02*
X2033Y2669D01*
X2043Y2669D02*
X2073Y2669D01*
X2104Y2669D02*
X2133Y2669D01*
X2143Y2669D02*
X2172Y2669D01*
X2204Y2669D02*
X2233Y2669D01*
X2243Y2669D02*
X2272Y2669D01*
X904Y2668D02*
X931Y2668D01*
X946Y2668D02*
X973Y2668D01*
X1004Y2668D02*
X1031Y2668D01*
X1046Y2668D02*
X1073Y2668D01*
X1104Y2668D02*
X1131Y2668D01*
X1146Y2668D02*
X1173Y2668D01*
X2004Y2668D02*
X2030Y2668D01*
X2046Y2668D02*
X2073Y2668D01*
X2104Y2668D02*
X2130Y2668D01*
X2146Y2668D02*
X2172Y2668D01*
X2204Y2668D02*
X2230Y2668D01*
X2246Y2668D02*
X2272Y2668D01*
X904Y2667D02*
X929Y2667D01*
X947Y2667D02*
X973Y2667D01*
X1004Y2667D02*
X1029Y2667D01*
X1047Y2667D02*
X1073Y2667D01*
X1104Y2667D02*
X1129Y2667D01*
X1147Y2667D02*
X1173Y2667D01*
X2004Y2667D02*
X2029Y2667D01*
X2047Y2667D02*
X2073Y2667D01*
X2104Y2667D02*
X2129Y2667D01*
X2147Y2667D02*
X2172Y2667D01*
X2204Y2667D02*
X2229Y2667D01*
X2247Y2667D02*
X2272Y2667D01*
X904Y2666D02*
X928Y2666D01*
X949Y2666D02*
X973Y2666D01*
X1004Y2666D02*
X1028Y2666D01*
X1049Y2666D02*
X1073Y2666D01*
X1104Y2666D02*
X1128Y2666D01*
X1149Y2666D02*
X1173Y2666D01*
X2004Y2666D02*
X2028Y2666D01*
X2048Y2666D02*
X2073Y2666D01*
X2104Y2666D02*
X2128Y2666D01*
X2148Y2666D02*
X2172Y2666D01*
X2204Y2666D02*
X2228Y2666D01*
X2248Y2666D02*
X2272Y2666D01*
X904Y2665D02*
X927Y2665D01*
X950Y2665D02*
X973Y2665D01*
X1004Y2665D02*
X1027Y2665D01*
X1050Y2665D02*
X1073Y2665D01*
X1104Y2665D02*
X1127Y2665D01*
X1150Y2665D02*
X1173Y2665D01*
X2004Y2665D02*
X2027Y2665D01*
X2049Y2665D02*
X2073Y2665D01*
X2104Y2665D02*
X2127Y2665D01*
X2149Y2665D02*
X2172Y2665D01*
X2204Y2665D02*
X2227Y2665D01*
X2249Y2665D02*
X2272Y2665D01*
X904Y2664D02*
X926Y2664D01*
X950Y2664D02*
X973Y2664D01*
X1004Y2664D02*
X1026Y2664D01*
X1050Y2664D02*
X1073Y2664D01*
X1104Y2664D02*
X1126Y2664D01*
X1150Y2664D02*
X1173Y2664D01*
X2004Y2664D02*
X2026Y2664D01*
X2050Y2664D02*
X2073Y2664D01*
X2104Y2664D02*
X2126Y2664D01*
X2150Y2664D02*
X2172Y2664D01*
X2204Y2664D02*
X2226Y2664D01*
X2250Y2664D02*
X2272Y2664D01*
X904Y2663D02*
X925Y2663D01*
X951Y2663D02*
X973Y2663D01*
X1004Y2663D02*
X1025Y2663D01*
X1051Y2663D02*
X1073Y2663D01*
X1104Y2663D02*
X1125Y2663D01*
X1151Y2663D02*
X1173Y2663D01*
X2004Y2663D02*
X2025Y2663D01*
X2051Y2663D02*
X2073Y2663D01*
X2104Y2663D02*
X2125Y2663D01*
X2151Y2663D02*
X2172Y2663D01*
X2204Y2663D02*
X2225Y2663D01*
X2251Y2663D02*
X2272Y2663D01*
X904Y2662D02*
X925Y2662D01*
X952Y2662D02*
X973Y2662D01*
X1004Y2662D02*
X1025Y2662D01*
X1052Y2662D02*
X1073Y2662D01*
X1104Y2662D02*
X1125Y2662D01*
X1152Y2662D02*
X1173Y2662D01*
X2004Y2662D02*
X2024Y2662D01*
X2052Y2662D02*
X2073Y2662D01*
X2104Y2662D02*
X2124Y2662D01*
X2152Y2662D02*
X2172Y2662D01*
X2204Y2662D02*
X2224Y2662D01*
X2252Y2662D02*
X2272Y2662D01*
X904Y2661D02*
X924Y2661D01*
X952Y2661D02*
X973Y2661D01*
X1004Y2661D02*
X1024Y2661D01*
X1052Y2661D02*
X1073Y2661D01*
X1104Y2661D02*
X1124Y2661D01*
X1152Y2661D02*
X1173Y2661D01*
X2004Y2661D02*
X2024Y2661D01*
X2052Y2661D02*
X2073Y2661D01*
X2104Y2661D02*
X2124Y2661D01*
X2152Y2661D02*
X2172Y2661D01*
X2204Y2661D02*
X2224Y2661D01*
X2252Y2661D02*
X2272Y2661D01*
X904Y2660D02*
X924Y2660D01*
X953Y2660D02*
X973Y2660D01*
X1004Y2660D02*
X1024Y2660D01*
X1053Y2660D02*
X1073Y2660D01*
X1104Y2660D02*
X1124Y2660D01*
X1153Y2660D02*
X1173Y2660D01*
X2004Y2660D02*
X2023Y2660D01*
X2053Y2660D02*
X2073Y2660D01*
X2104Y2660D02*
X2123Y2660D01*
X2153Y2660D02*
X2172Y2660D01*
X2204Y2660D02*
X2223Y2660D01*
X2253Y2660D02*
X2272Y2660D01*
X904Y2659D02*
X923Y2659D01*
X953Y2659D02*
X973Y2659D01*
X1004Y2659D02*
X1023Y2659D01*
X1053Y2659D02*
X1073Y2659D01*
X1104Y2659D02*
X1123Y2659D01*
X1153Y2659D02*
X1173Y2659D01*
X2004Y2659D02*
X2023Y2659D01*
X2053Y2659D02*
X2073Y2659D01*
X2104Y2659D02*
X2123Y2659D01*
X2153Y2659D02*
X2172Y2659D01*
X2204Y2659D02*
X2223Y2659D01*
X2253Y2659D02*
X2272Y2659D01*
X904Y2658D02*
X923Y2658D01*
X953Y2658D02*
X973Y2658D01*
X1004Y2658D02*
X1023Y2658D01*
X1053Y2658D02*
X1073Y2658D01*
X1104Y2658D02*
X1123Y2658D01*
X1153Y2658D02*
X1173Y2658D01*
X2004Y2658D02*
X2023Y2658D01*
X2053Y2658D02*
X2073Y2658D01*
X2104Y2658D02*
X2123Y2658D01*
X2153Y2658D02*
X2172Y2658D01*
X2204Y2658D02*
X2223Y2658D01*
X2253Y2658D02*
X2272Y2658D01*
X904Y2657D02*
X923Y2657D01*
X953Y2657D02*
X973Y2657D01*
X1004Y2657D02*
X1023Y2657D01*
X1053Y2657D02*
X1073Y2657D01*
X1104Y2657D02*
X1123Y2657D01*
X1153Y2657D02*
X1173Y2657D01*
X2004Y2657D02*
X2023Y2657D01*
X2053Y2657D02*
X2073Y2657D01*
X2104Y2657D02*
X2123Y2657D01*
X2153Y2657D02*
X2172Y2657D01*
X2204Y2657D02*
X2223Y2657D01*
X2253Y2657D02*
X2272Y2657D01*
X904Y2656D02*
X923Y2656D01*
X954Y2656D02*
X973Y2656D01*
X1004Y2656D02*
X1023Y2656D01*
X1054Y2656D02*
X1073Y2656D01*
X1104Y2656D02*
X1123Y2656D01*
X1154Y2656D02*
X1173Y2656D01*
X2004Y2656D02*
X2023Y2656D01*
X2053Y2656D02*
X2073Y2656D01*
X2104Y2656D02*
X2123Y2656D01*
X2153Y2656D02*
X2172Y2656D01*
X2204Y2656D02*
X2223Y2656D01*
X2253Y2656D02*
X2272Y2656D01*
X904Y2655D02*
X923Y2655D01*
X954Y2655D02*
X973Y2655D01*
X1004Y2655D02*
X1023Y2655D01*
X1054Y2655D02*
X1073Y2655D01*
X1104Y2655D02*
X1123Y2655D01*
X1154Y2655D02*
X1173Y2655D01*
X2004Y2655D02*
X2023Y2655D01*
X2053Y2655D02*
X2073Y2655D01*
X2104Y2655D02*
X2123Y2655D01*
X2153Y2655D02*
X2172Y2655D01*
X2204Y2655D02*
X2223Y2655D01*
X2253Y2655D02*
X2272Y2655D01*
X904Y2654D02*
X923Y2654D01*
X954Y2654D02*
X973Y2654D01*
X1004Y2654D02*
X1023Y2654D01*
X1054Y2654D02*
X1073Y2654D01*
X1104Y2654D02*
X1123Y2654D01*
X1154Y2654D02*
X1173Y2654D01*
X2004Y2654D02*
X2023Y2654D01*
X2053Y2654D02*
X2073Y2654D01*
X2104Y2654D02*
X2118Y2654D01*
X2153Y2654D02*
X2172Y2654D01*
X2204Y2654D02*
X2223Y2654D01*
X2253Y2654D02*
X2272Y2654D01*
X904Y2653D02*
X923Y2653D01*
X954Y2653D02*
X973Y2653D01*
X1004Y2653D02*
X1023Y2653D01*
X1054Y2653D02*
X1073Y2653D01*
X1104Y2653D02*
X1123Y2653D01*
X1153Y2653D02*
X1173Y2653D01*
X2004Y2653D02*
X2023Y2653D01*
X2053Y2653D02*
X2073Y2653D01*
X2104Y2653D02*
X2118Y2653D01*
X2123Y2653D02*
X2123Y2653D01*
X2153Y2653D02*
X2172Y2653D01*
X2204Y2653D02*
X2223Y2653D01*
X2253Y2653D02*
X2272Y2653D01*
X904Y2652D02*
X923Y2652D01*
X953Y2652D02*
X973Y2652D01*
X1004Y2652D02*
X1023Y2652D01*
X1053Y2652D02*
X1073Y2652D01*
X1104Y2652D02*
X1123Y2652D01*
X1153Y2652D02*
X1173Y2652D01*
X2004Y2652D02*
X2023Y2652D01*
X2053Y2652D02*
X2073Y2652D01*
X2104Y2652D02*
X2118Y2652D01*
X2123Y2652D02*
X2123Y2652D01*
X2153Y2652D02*
X2172Y2652D01*
X2204Y2652D02*
X2223Y2652D01*
X2253Y2652D02*
X2272Y2652D01*
X904Y2651D02*
X923Y2651D01*
X953Y2651D02*
X973Y2651D01*
X1004Y2651D02*
X1023Y2651D01*
X1053Y2651D02*
X1073Y2651D01*
X1104Y2651D02*
X1123Y2651D01*
X1153Y2651D02*
X1173Y2651D01*
X2004Y2651D02*
X2023Y2651D01*
X2053Y2651D02*
X2073Y2651D01*
X2104Y2651D02*
X2118Y2651D01*
X2122Y2651D02*
X2123Y2651D01*
X2153Y2651D02*
X2172Y2651D01*
X2204Y2651D02*
X2223Y2651D01*
X2253Y2651D02*
X2272Y2651D01*
X904Y2650D02*
X923Y2650D01*
X953Y2650D02*
X973Y2650D01*
X1004Y2650D02*
X1023Y2650D01*
X1053Y2650D02*
X1073Y2650D01*
X1104Y2650D02*
X1123Y2650D01*
X1153Y2650D02*
X1173Y2650D01*
X2004Y2650D02*
X2023Y2650D01*
X2053Y2650D02*
X2073Y2650D01*
X2104Y2650D02*
X2118Y2650D01*
X2120Y2650D02*
X2123Y2650D01*
X2153Y2650D02*
X2172Y2650D01*
X2204Y2650D02*
X2223Y2650D01*
X2253Y2650D02*
X2272Y2650D01*
X904Y2649D02*
X924Y2649D01*
X953Y2649D02*
X973Y2649D01*
X1004Y2649D02*
X1024Y2649D01*
X1053Y2649D02*
X1073Y2649D01*
X1104Y2649D02*
X1124Y2649D01*
X1153Y2649D02*
X1173Y2649D01*
X2004Y2649D02*
X2024Y2649D01*
X2052Y2649D02*
X2073Y2649D01*
X2104Y2649D02*
X2124Y2649D01*
X2152Y2649D02*
X2172Y2649D01*
X2204Y2649D02*
X2224Y2649D01*
X2252Y2649D02*
X2272Y2649D01*
X904Y2648D02*
X924Y2648D01*
X952Y2648D02*
X973Y2648D01*
X1004Y2648D02*
X1024Y2648D01*
X1052Y2648D02*
X1073Y2648D01*
X1104Y2648D02*
X1124Y2648D01*
X1152Y2648D02*
X1173Y2648D01*
X2004Y2648D02*
X2024Y2648D01*
X2052Y2648D02*
X2073Y2648D01*
X2104Y2648D02*
X2124Y2648D01*
X2152Y2648D02*
X2172Y2648D01*
X2204Y2648D02*
X2224Y2648D01*
X2252Y2648D02*
X2272Y2648D01*
X904Y2647D02*
X925Y2647D01*
X952Y2647D02*
X973Y2647D01*
X1004Y2647D02*
X1025Y2647D01*
X1052Y2647D02*
X1073Y2647D01*
X1104Y2647D02*
X1125Y2647D01*
X1151Y2647D02*
X1173Y2647D01*
X2004Y2647D02*
X2025Y2647D01*
X2051Y2647D02*
X2073Y2647D01*
X2104Y2647D02*
X2125Y2647D01*
X2151Y2647D02*
X2172Y2647D01*
X2204Y2647D02*
X2225Y2647D01*
X2251Y2647D02*
X2272Y2647D01*
X904Y2646D02*
X926Y2646D01*
X951Y2646D02*
X973Y2646D01*
X1004Y2646D02*
X1026Y2646D01*
X1051Y2646D02*
X1073Y2646D01*
X1104Y2646D02*
X1125Y2646D01*
X1151Y2646D02*
X1173Y2646D01*
X2004Y2646D02*
X2025Y2646D01*
X2051Y2646D02*
X2073Y2646D01*
X2104Y2646D02*
X2125Y2646D01*
X2151Y2646D02*
X2172Y2646D01*
X2204Y2646D02*
X2225Y2646D01*
X2251Y2646D02*
X2272Y2646D01*
X904Y2645D02*
X926Y2645D01*
X950Y2645D02*
X973Y2645D01*
X1004Y2645D02*
X1026Y2645D01*
X1050Y2645D02*
X1073Y2645D01*
X1104Y2645D02*
X1126Y2645D01*
X1150Y2645D02*
X1173Y2645D01*
X2004Y2645D02*
X2026Y2645D01*
X2050Y2645D02*
X2073Y2645D01*
X2104Y2645D02*
X2126Y2645D01*
X2150Y2645D02*
X2172Y2645D01*
X2204Y2645D02*
X2226Y2645D01*
X2250Y2645D02*
X2272Y2645D01*
X904Y2644D02*
X927Y2644D01*
X949Y2644D02*
X973Y2644D01*
X1004Y2644D02*
X1027Y2644D01*
X1049Y2644D02*
X1073Y2644D01*
X1104Y2644D02*
X1127Y2644D01*
X1149Y2644D02*
X1173Y2644D01*
X2004Y2644D02*
X2027Y2644D01*
X2049Y2644D02*
X2073Y2644D01*
X2104Y2644D02*
X2127Y2644D01*
X2149Y2644D02*
X2172Y2644D01*
X2204Y2644D02*
X2227Y2644D01*
X2249Y2644D02*
X2272Y2644D01*
X904Y2643D02*
X928Y2643D01*
X948Y2643D02*
X973Y2643D01*
X1004Y2643D02*
X1028Y2643D01*
X1048Y2643D02*
X1073Y2643D01*
X1104Y2643D02*
X1128Y2643D01*
X1148Y2643D02*
X1173Y2643D01*
X2004Y2643D02*
X2028Y2643D01*
X2048Y2643D02*
X2073Y2643D01*
X2104Y2643D02*
X2128Y2643D01*
X2148Y2643D02*
X2172Y2643D01*
X2204Y2643D02*
X2228Y2643D01*
X2248Y2643D02*
X2272Y2643D01*
X904Y2642D02*
X930Y2642D01*
X947Y2642D02*
X973Y2642D01*
X1004Y2642D02*
X1030Y2642D01*
X1047Y2642D02*
X1073Y2642D01*
X1104Y2642D02*
X1130Y2642D01*
X1147Y2642D02*
X1173Y2642D01*
X2004Y2642D02*
X2030Y2642D01*
X2046Y2642D02*
X2073Y2642D01*
X2104Y2642D02*
X2130Y2642D01*
X2146Y2642D02*
X2172Y2642D01*
X2204Y2642D02*
X2230Y2642D01*
X2246Y2642D02*
X2272Y2642D01*
X904Y2641D02*
X932Y2641D01*
X945Y2641D02*
X973Y2641D01*
X1004Y2641D02*
X1032Y2641D01*
X1045Y2641D02*
X1073Y2641D01*
X1104Y2641D02*
X1132Y2641D01*
X1145Y2641D02*
X1173Y2641D01*
X2004Y2641D02*
X2031Y2641D01*
X2045Y2641D02*
X2073Y2641D01*
X2104Y2641D02*
X2131Y2641D01*
X2145Y2641D02*
X2172Y2641D01*
X2204Y2641D02*
X2231Y2641D01*
X2245Y2641D02*
X2272Y2641D01*
X904Y2640D02*
X935Y2640D01*
X941Y2640D02*
X973Y2640D01*
X1004Y2640D02*
X1035Y2640D01*
X1041Y2640D02*
X1073Y2640D01*
X1104Y2640D02*
X1135Y2640D01*
X1141Y2640D02*
X1173Y2640D01*
X2004Y2640D02*
X2035Y2640D01*
X2041Y2640D02*
X2073Y2640D01*
X2104Y2640D02*
X2135Y2640D01*
X2141Y2640D02*
X2172Y2640D01*
X2204Y2640D02*
X2235Y2640D01*
X2241Y2640D02*
X2272Y2640D01*
X904Y2639D02*
X973Y2639D01*
X1004Y2639D02*
X1073Y2639D01*
X1104Y2639D02*
X1173Y2639D01*
X2004Y2639D02*
X2073Y2639D01*
X2104Y2639D02*
X2172Y2639D01*
X2204Y2639D02*
X2272Y2639D01*
X904Y2638D02*
X973Y2638D01*
X1004Y2638D02*
X1073Y2638D01*
X1104Y2638D02*
X1173Y2638D01*
X2004Y2638D02*
X2073Y2638D01*
X2104Y2638D02*
X2172Y2638D01*
X2204Y2638D02*
X2272Y2638D01*
X904Y2637D02*
X973Y2637D01*
X1004Y2637D02*
X1073Y2637D01*
X1104Y2637D02*
X1173Y2637D01*
X2004Y2637D02*
X2073Y2637D01*
X2104Y2637D02*
X2172Y2637D01*
X2204Y2637D02*
X2272Y2637D01*
X904Y2636D02*
X973Y2636D01*
X1004Y2636D02*
X1073Y2636D01*
X1104Y2636D02*
X1173Y2636D01*
X2004Y2636D02*
X2073Y2636D01*
X2104Y2636D02*
X2172Y2636D01*
X2204Y2636D02*
X2272Y2636D01*
X904Y2635D02*
X973Y2635D01*
X1004Y2635D02*
X1073Y2635D01*
X1104Y2635D02*
X1173Y2635D01*
X2004Y2635D02*
X2073Y2635D01*
X2104Y2635D02*
X2172Y2635D01*
X2204Y2635D02*
X2272Y2635D01*
X904Y2634D02*
X973Y2634D01*
X1004Y2634D02*
X1073Y2634D01*
X1104Y2634D02*
X1173Y2634D01*
X2004Y2634D02*
X2073Y2634D01*
X2104Y2634D02*
X2172Y2634D01*
X2204Y2634D02*
X2272Y2634D01*
X904Y2633D02*
X973Y2633D01*
X1004Y2633D02*
X1073Y2633D01*
X1104Y2633D02*
X1173Y2633D01*
X2004Y2633D02*
X2073Y2633D01*
X2104Y2633D02*
X2172Y2633D01*
X2204Y2633D02*
X2272Y2633D01*
X904Y2632D02*
X973Y2632D01*
X1004Y2632D02*
X1073Y2632D01*
X1104Y2632D02*
X1173Y2632D01*
X2004Y2632D02*
X2073Y2632D01*
X2104Y2632D02*
X2172Y2632D01*
X2204Y2632D02*
X2272Y2632D01*
X904Y2631D02*
X973Y2631D01*
X1004Y2631D02*
X1073Y2631D01*
X1104Y2631D02*
X1173Y2631D01*
X2004Y2631D02*
X2073Y2631D01*
X2104Y2631D02*
X2172Y2631D01*
X2204Y2631D02*
X2272Y2631D01*
X904Y2630D02*
X973Y2630D01*
X1004Y2630D02*
X1073Y2630D01*
X1104Y2630D02*
X1173Y2630D01*
X2004Y2630D02*
X2073Y2630D01*
X2104Y2630D02*
X2172Y2630D01*
X2204Y2630D02*
X2272Y2630D01*
X904Y2629D02*
X973Y2629D01*
X1004Y2629D02*
X1073Y2629D01*
X1104Y2629D02*
X1173Y2629D01*
X2004Y2629D02*
X2073Y2629D01*
X2104Y2629D02*
X2172Y2629D01*
X2204Y2629D02*
X2272Y2629D01*
X904Y2628D02*
X973Y2628D01*
X1004Y2628D02*
X1073Y2628D01*
X1104Y2628D02*
X1173Y2628D01*
X2004Y2628D02*
X2073Y2628D01*
X2104Y2628D02*
X2172Y2628D01*
X2204Y2628D02*
X2272Y2628D01*
X904Y2627D02*
X973Y2627D01*
X1004Y2627D02*
X1073Y2627D01*
X1104Y2627D02*
X1173Y2627D01*
X2004Y2627D02*
X2073Y2627D01*
X2104Y2627D02*
X2172Y2627D01*
X2204Y2627D02*
X2272Y2627D01*
X904Y2626D02*
X973Y2626D01*
X1004Y2626D02*
X1073Y2626D01*
X1104Y2626D02*
X1173Y2626D01*
X2004Y2626D02*
X2073Y2626D01*
X2104Y2626D02*
X2172Y2626D01*
X2204Y2626D02*
X2272Y2626D01*
X904Y2625D02*
X973Y2625D01*
X1004Y2625D02*
X1073Y2625D01*
X1104Y2625D02*
X1173Y2625D01*
X2004Y2625D02*
X2073Y2625D01*
X2104Y2625D02*
X2172Y2625D01*
X2204Y2625D02*
X2272Y2625D01*
X904Y2624D02*
X973Y2624D01*
X1004Y2624D02*
X1073Y2624D01*
X1104Y2624D02*
X1173Y2624D01*
X2004Y2624D02*
X2072Y2624D01*
X2104Y2624D02*
X2172Y2624D01*
X2204Y2624D02*
X2272Y2624D01*
X904Y2623D02*
X973Y2623D01*
X1004Y2623D02*
X1073Y2623D01*
X1104Y2623D02*
X1173Y2623D01*
X2004Y2623D02*
X2072Y2623D01*
X2104Y2623D02*
X2172Y2623D01*
X2204Y2623D02*
X2272Y2623D01*
X904Y2622D02*
X973Y2622D01*
X1004Y2622D02*
X1073Y2622D01*
X1104Y2622D02*
X1172Y2622D01*
X2004Y2622D02*
X2072Y2622D01*
X2104Y2622D02*
X2172Y2622D01*
X2204Y2622D02*
X2272Y2622D01*
X904Y2621D02*
X972Y2621D01*
X1004Y2621D02*
X1072Y2621D01*
X1104Y2621D02*
X1172Y2621D01*
X2004Y2621D02*
X2072Y2621D01*
X2104Y2621D02*
X2172Y2621D01*
X2204Y2621D02*
X2272Y2621D01*
X904Y2620D02*
X972Y2620D01*
X1004Y2620D02*
X1072Y2620D01*
X1104Y2620D02*
X1172Y2620D01*
X2004Y2620D02*
X2072Y2620D01*
X2104Y2620D02*
X2172Y2620D01*
X2204Y2620D02*
X2272Y2620D01*
X904Y2619D02*
X972Y2619D01*
X1004Y2619D02*
X1072Y2619D01*
X1104Y2619D02*
X1172Y2619D01*
X2004Y2619D02*
X2072Y2619D01*
X2104Y2619D02*
X2172Y2619D01*
X2204Y2619D02*
X2272Y2619D01*
X904Y2618D02*
X972Y2618D01*
X1004Y2618D02*
X1072Y2618D01*
X1104Y2618D02*
X1172Y2618D01*
X2004Y2618D02*
X2072Y2618D01*
X2104Y2618D02*
X2172Y2618D01*
X2204Y2618D02*
X2272Y2618D01*
X905Y2617D02*
X972Y2617D01*
X1005Y2617D02*
X1072Y2617D01*
X1105Y2617D02*
X1172Y2617D01*
X2004Y2617D02*
X2072Y2617D01*
X2104Y2617D02*
X2172Y2617D01*
X2204Y2617D02*
X2272Y2617D01*
X905Y2616D02*
X971Y2616D01*
X1005Y2616D02*
X1071Y2616D01*
X1105Y2616D02*
X1171Y2616D01*
X2005Y2616D02*
X2071Y2616D01*
X2105Y2616D02*
X2171Y2616D01*
X2205Y2616D02*
X2271Y2616D01*
X905Y2615D02*
X971Y2615D01*
X1005Y2615D02*
X1071Y2615D01*
X1105Y2615D02*
X1171Y2615D01*
X2005Y2615D02*
X2071Y2615D01*
X2105Y2615D02*
X2171Y2615D01*
X2205Y2615D02*
X2271Y2615D01*
X905Y2614D02*
X971Y2614D01*
X1005Y2614D02*
X1071Y2614D01*
X1105Y2614D02*
X1171Y2614D01*
X2005Y2614D02*
X2071Y2614D01*
X2105Y2614D02*
X2171Y2614D01*
X2205Y2614D02*
X2271Y2614D01*
X906Y2613D02*
X971Y2613D01*
X1006Y2613D02*
X1070Y2613D01*
X1106Y2613D02*
X1170Y2613D01*
X2006Y2613D02*
X2070Y2613D01*
X2106Y2613D02*
X2170Y2613D01*
X2206Y2613D02*
X2270Y2613D01*
X906Y2612D02*
X970Y2612D01*
X1006Y2612D02*
X1070Y2612D01*
X1106Y2612D02*
X1170Y2612D01*
X2006Y2612D02*
X2070Y2612D01*
X2106Y2612D02*
X2170Y2612D01*
X2206Y2612D02*
X2270Y2612D01*
X907Y2611D02*
X970Y2611D01*
X1007Y2611D02*
X1070Y2611D01*
X1107Y2611D02*
X1170Y2611D01*
X2006Y2611D02*
X2070Y2611D01*
X2106Y2611D02*
X2170Y2611D01*
X2206Y2611D02*
X2270Y2611D01*
X907Y2610D02*
X969Y2610D01*
X1007Y2610D02*
X1069Y2610D01*
X1107Y2610D02*
X1169Y2610D01*
X2007Y2610D02*
X2069Y2610D01*
X2107Y2610D02*
X2169Y2610D01*
X2207Y2610D02*
X2269Y2610D01*
X908Y2609D02*
X969Y2609D01*
X1008Y2609D02*
X1069Y2609D01*
X1108Y2609D02*
X1169Y2609D01*
X2007Y2609D02*
X2069Y2609D01*
X2107Y2609D02*
X2169Y2609D01*
X2207Y2609D02*
X2269Y2609D01*
X908Y2608D02*
X968Y2608D01*
X1008Y2608D02*
X1068Y2608D01*
X1108Y2608D02*
X1168Y2608D01*
X2008Y2608D02*
X2068Y2608D01*
X2108Y2608D02*
X2168Y2608D01*
X2208Y2608D02*
X2268Y2608D01*
X909Y2607D02*
X968Y2607D01*
X1009Y2607D02*
X1068Y2607D01*
X1109Y2607D02*
X1168Y2607D01*
X2008Y2607D02*
X2068Y2607D01*
X2108Y2607D02*
X2167Y2607D01*
X2208Y2607D02*
X2267Y2607D01*
X909Y2606D02*
X967Y2606D01*
X1009Y2606D02*
X1067Y2606D01*
X1109Y2606D02*
X1167Y2606D01*
X2009Y2606D02*
X2067Y2606D01*
X2109Y2606D02*
X2167Y2606D01*
X2209Y2606D02*
X2267Y2606D01*
X910Y2605D02*
X966Y2605D01*
X1010Y2605D02*
X1066Y2605D01*
X1110Y2605D02*
X1166Y2605D01*
X2010Y2605D02*
X2066Y2605D01*
X2110Y2605D02*
X2166Y2605D01*
X2210Y2605D02*
X2266Y2605D01*
X911Y2604D02*
X966Y2604D01*
X1011Y2604D02*
X1066Y2604D01*
X1111Y2604D02*
X1166Y2604D01*
X2010Y2604D02*
X2066Y2604D01*
X2110Y2604D02*
X2166Y2604D01*
X2210Y2604D02*
X2266Y2604D01*
X911Y2603D02*
X965Y2603D01*
X1011Y2603D02*
X1065Y2603D01*
X1111Y2603D02*
X1165Y2603D01*
X2011Y2603D02*
X2065Y2603D01*
X2111Y2603D02*
X2165Y2603D01*
X2211Y2603D02*
X2265Y2603D01*
X912Y2602D02*
X964Y2602D01*
X1012Y2602D02*
X1064Y2602D01*
X1112Y2602D02*
X1164Y2602D01*
X2012Y2602D02*
X2064Y2602D01*
X2112Y2602D02*
X2164Y2602D01*
X2212Y2602D02*
X2264Y2602D01*
X913Y2601D02*
X963Y2601D01*
X1013Y2601D02*
X1063Y2601D01*
X1113Y2601D02*
X1163Y2601D01*
X2013Y2601D02*
X2063Y2601D01*
X2113Y2601D02*
X2163Y2601D01*
X2213Y2601D02*
X2263Y2601D01*
X914Y2600D02*
X962Y2600D01*
X1014Y2600D02*
X1062Y2600D01*
X1114Y2600D02*
X1162Y2600D01*
X2014Y2600D02*
X2062Y2600D01*
X2114Y2600D02*
X2162Y2600D01*
X2214Y2600D02*
X2262Y2600D01*
X915Y2599D02*
X961Y2599D01*
X1015Y2599D02*
X1061Y2599D01*
X1115Y2599D02*
X1161Y2599D01*
X2015Y2599D02*
X2061Y2599D01*
X2115Y2599D02*
X2161Y2599D01*
X2215Y2599D02*
X2261Y2599D01*
X916Y2598D02*
X960Y2598D01*
X1016Y2598D02*
X1060Y2598D01*
X1116Y2598D02*
X1160Y2598D01*
X2016Y2598D02*
X2060Y2598D01*
X2116Y2598D02*
X2160Y2598D01*
X2216Y2598D02*
X2260Y2598D01*
X917Y2597D02*
X959Y2597D01*
X1017Y2597D02*
X1059Y2597D01*
X1117Y2597D02*
X1159Y2597D01*
X2017Y2597D02*
X2059Y2597D01*
X2117Y2597D02*
X2159Y2597D01*
X2217Y2597D02*
X2259Y2597D01*
X919Y2596D02*
X957Y2596D01*
X1019Y2596D02*
X1057Y2596D01*
X1119Y2596D02*
X1157Y2596D01*
X2019Y2596D02*
X2057Y2596D01*
X2119Y2596D02*
X2157Y2596D01*
X2219Y2596D02*
X2257Y2596D01*
X920Y2595D02*
X956Y2595D01*
X1020Y2595D02*
X1056Y2595D01*
X1120Y2595D02*
X1156Y2595D01*
X2020Y2595D02*
X2056Y2595D01*
X2120Y2595D02*
X2156Y2595D01*
X2220Y2595D02*
X2256Y2595D01*
X922Y2594D02*
X954Y2594D01*
X1022Y2594D02*
X1054Y2594D01*
X1122Y2594D02*
X1154Y2594D01*
X2022Y2594D02*
X2054Y2594D01*
X2122Y2594D02*
X2154Y2594D01*
X2222Y2594D02*
X2254Y2594D01*
X924Y2593D02*
X952Y2593D01*
X1024Y2593D02*
X1052Y2593D01*
X1124Y2593D02*
X1152Y2593D01*
X2024Y2593D02*
X2052Y2593D01*
X2124Y2593D02*
X2152Y2593D01*
X2224Y2593D02*
X2252Y2593D01*
X927Y2592D02*
X950Y2592D01*
X1027Y2592D02*
X1050Y2592D01*
X1127Y2592D02*
X1150Y2592D01*
X2027Y2592D02*
X2049Y2592D01*
X2127Y2592D02*
X2149Y2592D01*
X2227Y2592D02*
X2249Y2592D01*
X930Y2591D02*
X946Y2591D01*
X1030Y2591D02*
X1046Y2591D01*
X1130Y2591D02*
X1146Y2591D01*
X2030Y2591D02*
X2046Y2591D01*
X2130Y2591D02*
X2146Y2591D01*
X2230Y2591D02*
X2246Y2591D01*
X935Y2590D02*
X941Y2590D01*
X1035Y2590D02*
X1041Y2590D01*
X1135Y2590D02*
X1141Y2590D01*
X2035Y2590D02*
X2041Y2590D01*
X2135Y2590D02*
X2141Y2590D01*
X2235Y2590D02*
X2241Y2590D01*
D02*
G04 End of Mask0*
M02*