G04 MADE WITH FRITZING*
G04 WWW.FRITZING.ORG*
G04 DOUBLE SIDED*
G04 HOLES PLATED*
G04 CONTOUR ON CENTER OF CONTOUR VECTOR*
%ASAXBY*%
%FSLAX23Y23*%
%MOIN*%
%OFA0B0*%
%SFA1.0B1.0*%
%ADD10C,0.060000*%
%ADD11C,0.075000*%
%ADD12C,0.070000*%
%ADD13C,0.062992*%
%ADD14C,0.053528*%
%ADD15C,0.080000*%
%ADD16C,0.138425*%
%ADD17C,0.039370*%
%ADD18R,0.075000X0.075000*%
%ADD19R,0.062992X0.062992*%
%ADD20R,0.080000X0.080000*%
%ADD21C,0.024000*%
%ADD22R,0.001000X0.001000*%
%LNCOPPER1*%
G90*
G70*
G54D10*
X939Y2654D03*
X1039Y2654D03*
X1139Y2654D03*
X939Y2654D03*
X1039Y2654D03*
X1139Y2654D03*
G54D11*
X1439Y2354D03*
X1439Y2254D03*
G54D12*
X639Y2254D03*
X639Y2354D03*
X1839Y2254D03*
X1839Y2354D03*
G54D13*
X1039Y1755D03*
X1039Y1854D03*
G54D14*
X2039Y2654D03*
X2139Y2654D03*
X2239Y2654D03*
G54D11*
X4339Y3154D03*
X4639Y3154D03*
X4339Y3054D03*
X4639Y3054D03*
X4339Y2954D03*
X4639Y2954D03*
X4339Y2854D03*
X4639Y2854D03*
X4339Y2554D03*
X4639Y2554D03*
X4339Y2454D03*
X4639Y2454D03*
X4339Y2354D03*
X4639Y2354D03*
X4339Y2254D03*
X4639Y2254D03*
X4339Y1954D03*
X4639Y1954D03*
X4339Y1854D03*
X4639Y1854D03*
X4339Y1754D03*
X4639Y1754D03*
X4339Y1654D03*
X4639Y1654D03*
X4339Y1354D03*
X4639Y1354D03*
X4339Y1254D03*
X4639Y1254D03*
X4339Y1154D03*
X4639Y1154D03*
X4339Y1054D03*
X4639Y1054D03*
X4339Y754D03*
X4639Y754D03*
X4339Y654D03*
X4639Y654D03*
X4339Y554D03*
X4639Y554D03*
X4339Y454D03*
X4639Y454D03*
X3239Y2054D03*
X3239Y1754D03*
X3139Y2054D03*
X3139Y1754D03*
X3039Y2054D03*
X3039Y1754D03*
X2939Y2054D03*
X2939Y1754D03*
X2839Y2054D03*
X2839Y1754D03*
X2739Y2054D03*
X2739Y1754D03*
X2639Y2054D03*
X2639Y1754D03*
G54D15*
X6639Y2154D03*
X6639Y2016D03*
X6639Y1854D03*
X6639Y1716D03*
X6639Y1554D03*
X6639Y1416D03*
X6639Y1254D03*
X6639Y1116D03*
X6639Y954D03*
X6639Y816D03*
G54D11*
X2039Y1154D03*
X2439Y1154D03*
G54D12*
X1989Y804D03*
X1989Y704D03*
X2539Y2354D03*
X2539Y2454D03*
G54D13*
X3539Y2755D03*
X3539Y2854D03*
G54D11*
X2839Y2854D03*
X3239Y2854D03*
G54D15*
X139Y2654D03*
X139Y2792D03*
G54D13*
X5839Y2955D03*
X5839Y3054D03*
X5839Y2355D03*
X5839Y2454D03*
X5839Y1755D03*
X5839Y1854D03*
X5839Y1155D03*
X5839Y1254D03*
X5839Y555D03*
X5839Y654D03*
G54D11*
X5039Y3054D03*
X5439Y3054D03*
X5039Y2454D03*
X5439Y2454D03*
X5039Y1854D03*
X5439Y1854D03*
X5039Y1254D03*
X5439Y1254D03*
X5039Y554D03*
X5439Y554D03*
X3839Y754D03*
X3839Y454D03*
X3739Y754D03*
X3739Y454D03*
X3639Y754D03*
X3639Y454D03*
X3539Y754D03*
X3539Y454D03*
X3439Y754D03*
X3439Y454D03*
X3339Y754D03*
X3339Y454D03*
X3239Y754D03*
X3239Y454D03*
X3139Y754D03*
X3139Y454D03*
X3039Y754D03*
X3039Y454D03*
X2939Y754D03*
X2939Y454D03*
X2839Y754D03*
X2839Y454D03*
X2739Y754D03*
X2739Y454D03*
X2639Y754D03*
X2639Y454D03*
X2539Y754D03*
X2539Y454D03*
G54D15*
X6639Y2454D03*
X6639Y2316D03*
G54D16*
X389Y1254D03*
X1689Y1254D03*
G54D12*
X369Y1104D03*
X369Y1004D03*
X369Y904D03*
X369Y804D03*
X369Y704D03*
X369Y604D03*
X1539Y1254D03*
X1439Y1254D03*
X1339Y1254D03*
X1239Y1254D03*
X1139Y1254D03*
X1039Y1254D03*
X939Y1254D03*
X839Y1254D03*
X739Y1254D03*
G54D16*
X1689Y454D03*
G54D12*
X639Y1254D03*
G54D16*
X389Y454D03*
G54D12*
X639Y454D03*
X739Y454D03*
X839Y454D03*
X939Y454D03*
X1039Y454D03*
X1139Y454D03*
X1239Y454D03*
X1339Y454D03*
X1439Y454D03*
X1539Y454D03*
G54D17*
X4476Y2432D03*
X4548Y776D03*
X2508Y1928D03*
X2508Y1088D03*
X2316Y1592D03*
X3996Y2264D03*
X4332Y2648D03*
X4908Y1976D03*
X2484Y968D03*
X2412Y320D03*
X3276Y2312D03*
X3972Y2336D03*
X4332Y2720D03*
X5172Y2312D03*
X2388Y1544D03*
X4236Y2024D03*
X3372Y1808D03*
X3540Y1304D03*
X3876Y1760D03*
X4236Y1448D03*
X4500Y464D03*
X4692Y1568D03*
X5028Y968D03*
X5508Y1784D03*
X5964Y1688D03*
X4860Y824D03*
X4452Y1976D03*
G54D18*
X1439Y2354D03*
G54D19*
X1039Y1755D03*
G54D18*
X4339Y3154D03*
X4339Y2554D03*
X4339Y1954D03*
X4339Y1354D03*
X4339Y754D03*
X3239Y2054D03*
G54D20*
X6639Y2154D03*
X6639Y1854D03*
X6639Y1554D03*
X6639Y1254D03*
X6639Y954D03*
G54D19*
X3539Y2755D03*
G54D20*
X139Y2654D03*
G54D19*
X5839Y2955D03*
X5839Y2355D03*
X5839Y1755D03*
X5839Y1155D03*
X5839Y555D03*
G54D18*
X3839Y754D03*
G54D20*
X6639Y2454D03*
G54D21*
X3267Y2854D02*
X3512Y2854D01*
D02*
X5467Y1854D02*
X5812Y1854D01*
D02*
X5467Y3054D02*
X5812Y3054D01*
D02*
X5467Y1254D02*
X5812Y1254D01*
D02*
X5467Y2454D02*
X5812Y2454D01*
D02*
X4660Y774D02*
X4788Y896D01*
X4788Y896D02*
X6608Y953D01*
D02*
X5467Y561D02*
X5813Y647D01*
D02*
X4318Y2434D02*
X4020Y2144D01*
X4020Y2144D02*
X3084Y2144D01*
X3084Y2144D02*
X3052Y2079D01*
D02*
X2020Y2625D02*
X1853Y2376D01*
D02*
X1467Y2261D02*
X1813Y2348D01*
D02*
X1144Y2623D02*
X1164Y2504D01*
X1164Y2504D02*
X1418Y2273D01*
D02*
X6608Y812D02*
X4668Y584D01*
X4668Y584D02*
X4659Y574D01*
D02*
X5537Y452D02*
X4692Y392D01*
D02*
X5813Y547D02*
X5537Y452D01*
D02*
X4692Y392D02*
X4260Y392D01*
X4260Y392D02*
X3900Y512D01*
X3900Y512D02*
X3756Y512D01*
X3756Y512D02*
X3747Y481D01*
D02*
X4310Y554D02*
X3708Y560D01*
X3708Y560D02*
X3276Y536D01*
X3276Y536D02*
X3251Y480D01*
D02*
X4315Y2839D02*
X3300Y2192D01*
X3300Y2192D02*
X3036Y2192D01*
X3036Y2192D02*
X3012Y2120D01*
X3012Y2120D02*
X2580Y2120D01*
X2580Y2120D02*
X2580Y1976D01*
X2580Y1976D02*
X3084Y1976D01*
X3084Y1976D02*
X3122Y2030D01*
D02*
X4362Y3037D02*
X4404Y3008D01*
X4404Y3008D02*
X4404Y2192D01*
X4404Y2192D02*
X4068Y2096D01*
X4068Y2096D02*
X3267Y2055D01*
D02*
X4312Y1064D02*
X2652Y1712D01*
X2652Y1712D02*
X2647Y1727D01*
D02*
X4362Y1936D02*
X4404Y1904D01*
X4404Y1904D02*
X4404Y992D01*
X4404Y992D02*
X4092Y992D01*
X4092Y992D02*
X3588Y1220D01*
X3588Y1220D02*
X3456Y1088D01*
X3456Y1088D02*
X3440Y782D01*
D02*
X3539Y783D02*
X3540Y1088D01*
X3540Y1088D02*
X3948Y944D01*
X3948Y944D02*
X4452Y944D01*
X4452Y944D02*
X4452Y1957D01*
D02*
X3638Y783D02*
X3636Y944D01*
X3636Y944D02*
X3828Y896D01*
X3828Y896D02*
X4500Y896D01*
X4500Y896D02*
X4500Y2408D01*
X4500Y2408D02*
X4489Y2418D01*
D02*
X3737Y782D02*
X3732Y848D01*
X3732Y848D02*
X4548Y848D01*
X4548Y848D02*
X4548Y2768D01*
X4548Y2768D02*
X4452Y3224D01*
X4452Y3224D02*
X4260Y3224D01*
X4260Y3224D02*
X4260Y3008D01*
X4260Y3008D02*
X4315Y2970D01*
D02*
X4313Y1266D02*
X3300Y1736D01*
X3300Y1736D02*
X3300Y1832D01*
X3300Y1832D02*
X2527Y1926D01*
D02*
X4560Y791D02*
X4716Y992D01*
X4716Y992D02*
X4716Y1112D01*
X4716Y1112D02*
X5812Y1154D01*
D02*
X2647Y781D02*
X2652Y800D01*
X2652Y800D02*
X3523Y1294D01*
D02*
X2520Y1073D02*
X2640Y920D01*
X2640Y920D02*
X2460Y776D01*
X2460Y776D02*
X2484Y680D01*
X2484Y680D02*
X2772Y680D01*
X2772Y680D02*
X2820Y733D01*
D02*
X4310Y654D02*
X2436Y632D01*
X2436Y632D02*
X2412Y656D01*
X2412Y656D02*
X2412Y1088D01*
X2412Y1088D02*
X2364Y1112D01*
X2364Y1112D02*
X2364Y1400D01*
X2364Y1400D02*
X2580Y1688D01*
X2580Y1688D02*
X2580Y1832D01*
X2580Y1832D02*
X2676Y1832D01*
X2676Y1832D02*
X2721Y1776D01*
D02*
X2767Y454D02*
X2810Y454D01*
D02*
X2015Y700D02*
X2364Y656D01*
X2364Y656D02*
X2364Y584D01*
X2364Y584D02*
X2628Y512D01*
X2628Y512D02*
X2634Y482D01*
D02*
X3390Y1812D02*
X4218Y2019D01*
D02*
X2375Y1530D02*
X2316Y1472D01*
X2316Y1472D02*
X2316Y1064D01*
X2316Y1064D02*
X2364Y656D01*
D02*
X4367Y456D02*
X4481Y463D01*
D02*
X4222Y1460D02*
X3890Y1747D01*
D02*
X5828Y1731D02*
X5820Y1712D01*
X5820Y1712D02*
X4788Y1712D01*
X4788Y1712D02*
X4703Y1584D01*
D02*
X5814Y2345D02*
X4980Y1976D01*
X4980Y1976D02*
X4927Y1976D01*
D02*
X4314Y2642D02*
X4260Y2624D01*
X4260Y2624D02*
X4260Y2456D01*
X4260Y2456D02*
X4011Y2275D01*
D02*
X2300Y1581D02*
X2244Y1544D01*
X2244Y1544D02*
X2244Y1016D01*
X2244Y1016D02*
X1908Y896D01*
X1908Y896D02*
X1908Y656D01*
X1908Y656D02*
X2316Y584D01*
X2316Y584D02*
X2340Y488D01*
X2340Y488D02*
X2460Y488D01*
X2460Y488D02*
X2460Y392D01*
X2460Y392D02*
X3396Y392D01*
X3396Y392D02*
X3423Y430D01*
D02*
X2267Y2635D02*
X2517Y2469D01*
D02*
X2446Y1126D02*
X2480Y986D01*
D02*
X5819Y2937D02*
X5186Y2325D01*
D02*
X4314Y2713D02*
X4212Y2672D01*
X4212Y2672D02*
X3983Y2351D01*
D02*
X3257Y2308D02*
X2532Y2168D01*
X2532Y2168D02*
X1908Y1064D01*
X1908Y1064D02*
X1860Y944D01*
X1860Y944D02*
X1860Y584D01*
X1860Y584D02*
X2395Y328D01*
D02*
X2135Y2620D02*
X2124Y2528D01*
X2124Y2528D02*
X1858Y2272D01*
D02*
X1055Y2681D02*
X1092Y2744D01*
X1092Y2744D02*
X1188Y2744D01*
X1188Y2744D02*
X1423Y2378D01*
D02*
X2515Y2364D02*
X2124Y2528D01*
D02*
X1020Y1873D02*
X657Y2235D01*
D02*
X655Y1280D02*
X972Y1808D01*
X972Y1808D02*
X1017Y1839D01*
D02*
X160Y2769D02*
X621Y2273D01*
D02*
X5012Y3065D02*
X4500Y3272D01*
X4500Y3272D02*
X4212Y3272D01*
X4212Y3272D02*
X2866Y2862D01*
D02*
X5039Y2483D02*
X5039Y3025D01*
D02*
X5011Y1862D02*
X4860Y1904D01*
X4860Y1904D02*
X4836Y2053D01*
D02*
X4836Y2053D02*
X4937Y2053D01*
D02*
X4937Y2053D02*
X5028Y2120D01*
X5028Y2120D02*
X5038Y2425D01*
D02*
X5038Y1283D02*
X5037Y1452D01*
D02*
X5037Y1452D02*
X5892Y1688D01*
X5892Y1688D02*
X5892Y1928D01*
X5892Y1928D02*
X5076Y1928D01*
X5076Y1928D02*
X5052Y1879D01*
D02*
X5047Y970D02*
X5937Y1052D01*
D02*
X5937Y1052D02*
X5937Y1352D01*
D02*
X5937Y1352D02*
X5028Y1328D01*
X5028Y1328D02*
X5035Y1282D01*
D02*
X6613Y2436D02*
X5892Y1928D01*
D02*
X4660Y3035D02*
X4716Y2984D01*
X4716Y2984D02*
X4668Y2888D01*
X4668Y2888D02*
X4657Y2876D01*
D02*
X4663Y2469D02*
X4716Y2504D01*
X4716Y2504D02*
X4645Y2826D01*
D02*
X4665Y2265D02*
X4716Y2288D01*
X4716Y2288D02*
X4716Y2384D01*
X4716Y2384D02*
X4660Y2435D01*
D02*
X4663Y1869D02*
X4716Y1904D01*
X4716Y1904D02*
X4645Y2226D01*
D02*
X4660Y1673D02*
X4704Y1712D01*
X4704Y1712D02*
X4692Y1808D01*
X4692Y1808D02*
X4660Y1835D01*
D02*
X4662Y1271D02*
X4704Y1304D01*
X4704Y1304D02*
X4692Y1424D01*
X4692Y1424D02*
X4644Y1424D01*
X4644Y1424D02*
X4639Y1625D01*
D02*
X4662Y671D02*
X4845Y812D01*
D02*
X6616Y2295D02*
X5978Y1701D01*
D02*
X5489Y1784D02*
X4980Y1784D01*
X4980Y1784D02*
X4812Y1832D01*
X4812Y1832D02*
X4650Y2227D01*
G54D22*
X932Y2714D02*
X944Y2714D01*
X1032Y2714D02*
X1044Y2714D01*
X1132Y2714D02*
X1144Y2714D01*
X2032Y2714D02*
X2044Y2714D01*
X2132Y2714D02*
X2144Y2714D01*
X2232Y2714D02*
X2244Y2714D01*
X929Y2713D02*
X948Y2713D01*
X1029Y2713D02*
X1048Y2713D01*
X1129Y2713D02*
X1148Y2713D01*
X2029Y2713D02*
X2048Y2713D01*
X2128Y2713D02*
X2148Y2713D01*
X2228Y2713D02*
X2247Y2713D01*
X926Y2712D02*
X950Y2712D01*
X1026Y2712D02*
X1050Y2712D01*
X1126Y2712D02*
X1150Y2712D01*
X2026Y2712D02*
X2050Y2712D01*
X2126Y2712D02*
X2150Y2712D01*
X2226Y2712D02*
X2250Y2712D01*
X924Y2711D02*
X952Y2711D01*
X1024Y2711D02*
X1052Y2711D01*
X1124Y2711D02*
X1152Y2711D01*
X2024Y2711D02*
X2052Y2711D01*
X2124Y2711D02*
X2152Y2711D01*
X2224Y2711D02*
X2252Y2711D01*
X923Y2710D02*
X954Y2710D01*
X1022Y2710D02*
X1054Y2710D01*
X1122Y2710D02*
X1154Y2710D01*
X2022Y2710D02*
X2054Y2710D01*
X2122Y2710D02*
X2154Y2710D01*
X2222Y2710D02*
X2254Y2710D01*
X921Y2709D02*
X955Y2709D01*
X1021Y2709D02*
X1055Y2709D01*
X1121Y2709D02*
X1155Y2709D01*
X2021Y2709D02*
X2055Y2709D01*
X2121Y2709D02*
X2155Y2709D01*
X2221Y2709D02*
X2255Y2709D01*
X920Y2708D02*
X957Y2708D01*
X1020Y2708D02*
X1057Y2708D01*
X1120Y2708D02*
X1157Y2708D01*
X2020Y2708D02*
X2056Y2708D01*
X2120Y2708D02*
X2156Y2708D01*
X2220Y2708D02*
X2256Y2708D01*
X919Y2707D02*
X958Y2707D01*
X1019Y2707D02*
X1058Y2707D01*
X1119Y2707D02*
X1158Y2707D01*
X2018Y2707D02*
X2058Y2707D01*
X2118Y2707D02*
X2158Y2707D01*
X2218Y2707D02*
X2258Y2707D01*
X918Y2706D02*
X959Y2706D01*
X1018Y2706D02*
X1059Y2706D01*
X1117Y2706D02*
X1159Y2706D01*
X2017Y2706D02*
X2059Y2706D01*
X2117Y2706D02*
X2159Y2706D01*
X2217Y2706D02*
X2259Y2706D01*
X917Y2705D02*
X960Y2705D01*
X1017Y2705D02*
X1060Y2705D01*
X1117Y2705D02*
X1160Y2705D01*
X2016Y2705D02*
X2060Y2705D01*
X2116Y2705D02*
X2160Y2705D01*
X2216Y2705D02*
X2260Y2705D01*
X916Y2704D02*
X961Y2704D01*
X1016Y2704D02*
X1061Y2704D01*
X1116Y2704D02*
X1161Y2704D01*
X2016Y2704D02*
X2061Y2704D01*
X2116Y2704D02*
X2160Y2704D01*
X2216Y2704D02*
X2260Y2704D01*
X915Y2703D02*
X961Y2703D01*
X1015Y2703D02*
X1061Y2703D01*
X1115Y2703D02*
X1161Y2703D01*
X2015Y2703D02*
X2061Y2703D01*
X2115Y2703D02*
X2161Y2703D01*
X2215Y2703D02*
X2261Y2703D01*
X914Y2702D02*
X962Y2702D01*
X1014Y2702D02*
X1062Y2702D01*
X1114Y2702D02*
X1162Y2702D01*
X2014Y2702D02*
X2062Y2702D01*
X2114Y2702D02*
X2162Y2702D01*
X2214Y2702D02*
X2262Y2702D01*
X913Y2701D02*
X963Y2701D01*
X1013Y2701D02*
X1063Y2701D01*
X1113Y2701D02*
X1163Y2701D01*
X2013Y2701D02*
X2063Y2701D01*
X2113Y2701D02*
X2163Y2701D01*
X2213Y2701D02*
X2263Y2701D01*
X913Y2700D02*
X963Y2700D01*
X1013Y2700D02*
X1063Y2700D01*
X1113Y2700D02*
X1163Y2700D01*
X2013Y2700D02*
X2063Y2700D01*
X2113Y2700D02*
X2163Y2700D01*
X2213Y2700D02*
X2263Y2700D01*
X912Y2699D02*
X964Y2699D01*
X1012Y2699D02*
X1064Y2699D01*
X1112Y2699D02*
X1164Y2699D01*
X2012Y2699D02*
X2064Y2699D01*
X2112Y2699D02*
X2164Y2699D01*
X2212Y2699D02*
X2264Y2699D01*
X912Y2698D02*
X965Y2698D01*
X1012Y2698D02*
X1065Y2698D01*
X1112Y2698D02*
X1165Y2698D01*
X2012Y2698D02*
X2064Y2698D01*
X2112Y2698D02*
X2164Y2698D01*
X2212Y2698D02*
X2264Y2698D01*
X911Y2697D02*
X965Y2697D01*
X1011Y2697D02*
X1065Y2697D01*
X1111Y2697D02*
X1165Y2697D01*
X2011Y2697D02*
X2065Y2697D01*
X2111Y2697D02*
X2165Y2697D01*
X2211Y2697D02*
X2265Y2697D01*
X911Y2696D02*
X965Y2696D01*
X1011Y2696D02*
X1065Y2696D01*
X1111Y2696D02*
X1165Y2696D01*
X2011Y2696D02*
X2065Y2696D01*
X2111Y2696D02*
X2165Y2696D01*
X2211Y2696D02*
X2265Y2696D01*
X911Y2695D02*
X966Y2695D01*
X1010Y2695D02*
X1066Y2695D01*
X1110Y2695D02*
X1166Y2695D01*
X2010Y2695D02*
X2066Y2695D01*
X2110Y2695D02*
X2166Y2695D01*
X2210Y2695D02*
X2266Y2695D01*
X910Y2694D02*
X966Y2694D01*
X1010Y2694D02*
X1066Y2694D01*
X1110Y2694D02*
X1166Y2694D01*
X2010Y2694D02*
X2066Y2694D01*
X2110Y2694D02*
X2166Y2694D01*
X2210Y2694D02*
X2266Y2694D01*
X910Y2693D02*
X967Y2693D01*
X1010Y2693D02*
X1066Y2693D01*
X1110Y2693D02*
X1166Y2693D01*
X2010Y2693D02*
X2066Y2693D01*
X2110Y2693D02*
X2166Y2693D01*
X2210Y2693D02*
X2266Y2693D01*
X910Y2692D02*
X967Y2692D01*
X1010Y2692D02*
X1067Y2692D01*
X1110Y2692D02*
X1167Y2692D01*
X2009Y2692D02*
X2067Y2692D01*
X2109Y2692D02*
X2167Y2692D01*
X2209Y2692D02*
X2267Y2692D01*
X909Y2691D02*
X967Y2691D01*
X1009Y2691D02*
X1067Y2691D01*
X1109Y2691D02*
X1167Y2691D01*
X2009Y2691D02*
X2067Y2691D01*
X2109Y2691D02*
X2167Y2691D01*
X2209Y2691D02*
X2267Y2691D01*
X909Y2690D02*
X967Y2690D01*
X1009Y2690D02*
X1067Y2690D01*
X1109Y2690D02*
X1167Y2690D01*
X2009Y2690D02*
X2067Y2690D01*
X2109Y2690D02*
X2167Y2690D01*
X2209Y2690D02*
X2267Y2690D01*
X909Y2689D02*
X967Y2689D01*
X1009Y2689D02*
X1067Y2689D01*
X1109Y2689D02*
X1167Y2689D01*
X2009Y2689D02*
X2067Y2689D01*
X2109Y2689D02*
X2167Y2689D01*
X2209Y2689D02*
X2267Y2689D01*
X909Y2688D02*
X967Y2688D01*
X1009Y2688D02*
X1067Y2688D01*
X1109Y2688D02*
X1167Y2688D01*
X2009Y2688D02*
X2067Y2688D01*
X2109Y2688D02*
X2167Y2688D01*
X2209Y2688D02*
X2267Y2688D01*
X909Y2687D02*
X968Y2687D01*
X1009Y2687D02*
X1068Y2687D01*
X1109Y2687D02*
X1168Y2687D01*
X2009Y2687D02*
X2067Y2687D01*
X2109Y2687D02*
X2167Y2687D01*
X2209Y2687D02*
X2267Y2687D01*
X909Y2686D02*
X968Y2686D01*
X1009Y2686D02*
X1068Y2686D01*
X1109Y2686D02*
X1168Y2686D01*
X2009Y2686D02*
X2067Y2686D01*
X2109Y2686D02*
X2167Y2686D01*
X2209Y2686D02*
X2267Y2686D01*
X909Y2685D02*
X968Y2685D01*
X1009Y2685D02*
X1068Y2685D01*
X1109Y2685D02*
X1168Y2685D01*
X2009Y2685D02*
X2068Y2685D01*
X2109Y2685D02*
X2167Y2685D01*
X2209Y2685D02*
X2267Y2685D01*
X909Y2684D02*
X968Y2684D01*
X1009Y2684D02*
X1068Y2684D01*
X1109Y2684D02*
X1168Y2684D01*
X2009Y2684D02*
X2068Y2684D01*
X2109Y2684D02*
X2167Y2684D01*
X2209Y2684D02*
X2267Y2684D01*
X909Y2683D02*
X968Y2683D01*
X1009Y2683D02*
X1068Y2683D01*
X1109Y2683D02*
X1168Y2683D01*
X2009Y2683D02*
X2068Y2683D01*
X2109Y2683D02*
X2167Y2683D01*
X2209Y2683D02*
X2267Y2683D01*
X909Y2682D02*
X968Y2682D01*
X1009Y2682D02*
X1068Y2682D01*
X1109Y2682D02*
X1168Y2682D01*
X2009Y2682D02*
X2068Y2682D01*
X2109Y2682D02*
X2167Y2682D01*
X2209Y2682D02*
X2267Y2682D01*
X909Y2681D02*
X968Y2681D01*
X1009Y2681D02*
X1068Y2681D01*
X1109Y2681D02*
X1168Y2681D01*
X2009Y2681D02*
X2068Y2681D01*
X2109Y2681D02*
X2167Y2681D01*
X2209Y2681D02*
X2267Y2681D01*
X909Y2680D02*
X968Y2680D01*
X1009Y2680D02*
X1068Y2680D01*
X1109Y2680D02*
X1168Y2680D01*
X2009Y2680D02*
X2068Y2680D01*
X2109Y2680D02*
X2167Y2680D01*
X2209Y2680D02*
X2267Y2680D01*
X909Y2679D02*
X968Y2679D01*
X1009Y2679D02*
X1068Y2679D01*
X1109Y2679D02*
X1168Y2679D01*
X2009Y2679D02*
X2068Y2679D01*
X2109Y2679D02*
X2167Y2679D01*
X2209Y2679D02*
X2267Y2679D01*
X909Y2678D02*
X968Y2678D01*
X1009Y2678D02*
X1068Y2678D01*
X1109Y2678D02*
X1168Y2678D01*
X2009Y2678D02*
X2068Y2678D01*
X2109Y2678D02*
X2167Y2678D01*
X2209Y2678D02*
X2267Y2678D01*
X909Y2677D02*
X968Y2677D01*
X1009Y2677D02*
X1068Y2677D01*
X1109Y2677D02*
X1168Y2677D01*
X2009Y2677D02*
X2068Y2677D01*
X2109Y2677D02*
X2167Y2677D01*
X2209Y2677D02*
X2267Y2677D01*
X909Y2676D02*
X968Y2676D01*
X1009Y2676D02*
X1068Y2676D01*
X1109Y2676D02*
X1168Y2676D01*
X2009Y2676D02*
X2068Y2676D01*
X2109Y2676D02*
X2167Y2676D01*
X2209Y2676D02*
X2267Y2676D01*
X909Y2675D02*
X968Y2675D01*
X1009Y2675D02*
X1068Y2675D01*
X1109Y2675D02*
X1168Y2675D01*
X2009Y2675D02*
X2068Y2675D01*
X2109Y2675D02*
X2167Y2675D01*
X2209Y2675D02*
X2267Y2675D01*
X909Y2674D02*
X932Y2674D01*
X944Y2674D02*
X968Y2674D01*
X1009Y2674D02*
X1032Y2674D01*
X1044Y2674D02*
X1068Y2674D01*
X1109Y2674D02*
X1132Y2674D01*
X1144Y2674D02*
X1168Y2674D01*
X2009Y2674D02*
X2032Y2674D01*
X2044Y2674D02*
X2068Y2674D01*
X2109Y2674D02*
X2132Y2674D01*
X2144Y2674D02*
X2167Y2674D01*
X2209Y2674D02*
X2232Y2674D01*
X2244Y2674D02*
X2267Y2674D01*
X909Y2673D02*
X930Y2673D01*
X947Y2673D02*
X968Y2673D01*
X1009Y2673D02*
X1030Y2673D01*
X1047Y2673D02*
X1068Y2673D01*
X1109Y2673D02*
X1130Y2673D01*
X1147Y2673D02*
X1168Y2673D01*
X2009Y2673D02*
X2029Y2673D01*
X2047Y2673D02*
X2068Y2673D01*
X2109Y2673D02*
X2129Y2673D01*
X2147Y2673D02*
X2167Y2673D01*
X2209Y2673D02*
X2229Y2673D01*
X2247Y2673D02*
X2267Y2673D01*
X909Y2672D02*
X928Y2672D01*
X949Y2672D02*
X968Y2672D01*
X1009Y2672D02*
X1028Y2672D01*
X1049Y2672D02*
X1068Y2672D01*
X1109Y2672D02*
X1128Y2672D01*
X1149Y2672D02*
X1168Y2672D01*
X2009Y2672D02*
X2028Y2672D01*
X2048Y2672D02*
X2068Y2672D01*
X2109Y2672D02*
X2128Y2672D01*
X2148Y2672D02*
X2167Y2672D01*
X2209Y2672D02*
X2228Y2672D01*
X2248Y2672D02*
X2267Y2672D01*
X909Y2671D02*
X926Y2671D01*
X950Y2671D02*
X968Y2671D01*
X1009Y2671D02*
X1026Y2671D01*
X1050Y2671D02*
X1068Y2671D01*
X1109Y2671D02*
X1126Y2671D01*
X1150Y2671D02*
X1168Y2671D01*
X2009Y2671D02*
X2026Y2671D01*
X2050Y2671D02*
X2068Y2671D01*
X2109Y2671D02*
X2126Y2671D01*
X2150Y2671D02*
X2167Y2671D01*
X2209Y2671D02*
X2226Y2671D01*
X2250Y2671D02*
X2267Y2671D01*
X909Y2670D02*
X925Y2670D01*
X951Y2670D02*
X968Y2670D01*
X1009Y2670D02*
X1025Y2670D01*
X1051Y2670D02*
X1068Y2670D01*
X1109Y2670D02*
X1125Y2670D01*
X1151Y2670D02*
X1168Y2670D01*
X2009Y2670D02*
X2025Y2670D01*
X2051Y2670D02*
X2068Y2670D01*
X2109Y2670D02*
X2125Y2670D01*
X2151Y2670D02*
X2167Y2670D01*
X2209Y2670D02*
X2225Y2670D01*
X2251Y2670D02*
X2267Y2670D01*
X909Y2669D02*
X924Y2669D01*
X953Y2669D02*
X968Y2669D01*
X1009Y2669D02*
X1024Y2669D01*
X1053Y2669D02*
X1068Y2669D01*
X1109Y2669D02*
X1124Y2669D01*
X1153Y2669D02*
X1168Y2669D01*
X2009Y2669D02*
X2024Y2669D01*
X2052Y2669D02*
X2068Y2669D01*
X2109Y2669D02*
X2124Y2669D01*
X2152Y2669D02*
X2167Y2669D01*
X2209Y2669D02*
X2224Y2669D01*
X2252Y2669D02*
X2267Y2669D01*
X909Y2668D02*
X923Y2668D01*
X954Y2668D02*
X968Y2668D01*
X1009Y2668D02*
X1023Y2668D01*
X1054Y2668D02*
X1068Y2668D01*
X1109Y2668D02*
X1123Y2668D01*
X1154Y2668D02*
X1168Y2668D01*
X2009Y2668D02*
X2023Y2668D01*
X2053Y2668D02*
X2068Y2668D01*
X2109Y2668D02*
X2123Y2668D01*
X2153Y2668D02*
X2167Y2668D01*
X2209Y2668D02*
X2223Y2668D01*
X2253Y2668D02*
X2267Y2668D01*
X909Y2667D02*
X922Y2667D01*
X954Y2667D02*
X968Y2667D01*
X1009Y2667D02*
X1022Y2667D01*
X1054Y2667D02*
X1068Y2667D01*
X1109Y2667D02*
X1122Y2667D01*
X1154Y2667D02*
X1168Y2667D01*
X2009Y2667D02*
X2022Y2667D01*
X2054Y2667D02*
X2068Y2667D01*
X2109Y2667D02*
X2122Y2667D01*
X2154Y2667D02*
X2167Y2667D01*
X2209Y2667D02*
X2222Y2667D01*
X2254Y2667D02*
X2267Y2667D01*
X909Y2666D02*
X921Y2666D01*
X955Y2666D02*
X968Y2666D01*
X1009Y2666D02*
X1021Y2666D01*
X1055Y2666D02*
X1068Y2666D01*
X1109Y2666D02*
X1121Y2666D01*
X1155Y2666D02*
X1168Y2666D01*
X2009Y2666D02*
X2021Y2666D01*
X2055Y2666D02*
X2068Y2666D01*
X2109Y2666D02*
X2121Y2666D01*
X2155Y2666D02*
X2167Y2666D01*
X2209Y2666D02*
X2221Y2666D01*
X2255Y2666D02*
X2267Y2666D01*
X909Y2665D02*
X921Y2665D01*
X956Y2665D02*
X968Y2665D01*
X1009Y2665D02*
X1021Y2665D01*
X1056Y2665D02*
X1068Y2665D01*
X1109Y2665D02*
X1121Y2665D01*
X1156Y2665D02*
X1168Y2665D01*
X2009Y2665D02*
X2020Y2665D01*
X2056Y2665D02*
X2068Y2665D01*
X2109Y2665D02*
X2120Y2665D01*
X2156Y2665D02*
X2167Y2665D01*
X2209Y2665D02*
X2220Y2665D01*
X2256Y2665D02*
X2267Y2665D01*
X909Y2664D02*
X920Y2664D01*
X956Y2664D02*
X968Y2664D01*
X1009Y2664D02*
X1020Y2664D01*
X1056Y2664D02*
X1068Y2664D01*
X1109Y2664D02*
X1120Y2664D01*
X1156Y2664D02*
X1168Y2664D01*
X2009Y2664D02*
X2020Y2664D01*
X2056Y2664D02*
X2068Y2664D01*
X2109Y2664D02*
X2120Y2664D01*
X2156Y2664D02*
X2167Y2664D01*
X2209Y2664D02*
X2220Y2664D01*
X2256Y2664D02*
X2267Y2664D01*
X909Y2663D02*
X919Y2663D01*
X957Y2663D02*
X968Y2663D01*
X1009Y2663D02*
X1019Y2663D01*
X1057Y2663D02*
X1068Y2663D01*
X1109Y2663D02*
X1119Y2663D01*
X1157Y2663D02*
X1168Y2663D01*
X2009Y2663D02*
X2019Y2663D01*
X2057Y2663D02*
X2068Y2663D01*
X2109Y2663D02*
X2119Y2663D01*
X2157Y2663D02*
X2167Y2663D01*
X2209Y2663D02*
X2219Y2663D01*
X2257Y2663D02*
X2267Y2663D01*
X909Y2662D02*
X919Y2662D01*
X957Y2662D02*
X968Y2662D01*
X1009Y2662D02*
X1019Y2662D01*
X1057Y2662D02*
X1068Y2662D01*
X1109Y2662D02*
X1119Y2662D01*
X1157Y2662D02*
X1168Y2662D01*
X2009Y2662D02*
X2019Y2662D01*
X2057Y2662D02*
X2068Y2662D01*
X2109Y2662D02*
X2119Y2662D01*
X2157Y2662D02*
X2167Y2662D01*
X2209Y2662D02*
X2219Y2662D01*
X2257Y2662D02*
X2267Y2662D01*
X909Y2661D02*
X919Y2661D01*
X958Y2661D02*
X968Y2661D01*
X1009Y2661D02*
X1019Y2661D01*
X1058Y2661D02*
X1068Y2661D01*
X1109Y2661D02*
X1119Y2661D01*
X1158Y2661D02*
X1168Y2661D01*
X2009Y2661D02*
X2019Y2661D01*
X2057Y2661D02*
X2068Y2661D01*
X2109Y2661D02*
X2119Y2661D01*
X2157Y2661D02*
X2167Y2661D01*
X2209Y2661D02*
X2219Y2661D01*
X2257Y2661D02*
X2267Y2661D01*
X909Y2660D02*
X918Y2660D01*
X958Y2660D02*
X968Y2660D01*
X1009Y2660D02*
X1018Y2660D01*
X1058Y2660D02*
X1068Y2660D01*
X1109Y2660D02*
X1118Y2660D01*
X1158Y2660D02*
X1168Y2660D01*
X2009Y2660D02*
X2018Y2660D01*
X2058Y2660D02*
X2068Y2660D01*
X2109Y2660D02*
X2118Y2660D01*
X2158Y2660D02*
X2167Y2660D01*
X2209Y2660D02*
X2218Y2660D01*
X2258Y2660D02*
X2267Y2660D01*
X909Y2659D02*
X918Y2659D01*
X958Y2659D02*
X968Y2659D01*
X1009Y2659D02*
X1018Y2659D01*
X1058Y2659D02*
X1068Y2659D01*
X1109Y2659D02*
X1118Y2659D01*
X1158Y2659D02*
X1168Y2659D01*
X2009Y2659D02*
X2018Y2659D01*
X2058Y2659D02*
X2068Y2659D01*
X2109Y2659D02*
X2118Y2659D01*
X2158Y2659D02*
X2167Y2659D01*
X2209Y2659D02*
X2218Y2659D01*
X2258Y2659D02*
X2267Y2659D01*
X909Y2658D02*
X918Y2658D01*
X958Y2658D02*
X968Y2658D01*
X1009Y2658D02*
X1018Y2658D01*
X1058Y2658D02*
X1068Y2658D01*
X1109Y2658D02*
X1118Y2658D01*
X1158Y2658D02*
X1168Y2658D01*
X2009Y2658D02*
X2018Y2658D01*
X2058Y2658D02*
X2068Y2658D01*
X2109Y2658D02*
X2118Y2658D01*
X2158Y2658D02*
X2167Y2658D01*
X2209Y2658D02*
X2218Y2658D01*
X2258Y2658D02*
X2267Y2658D01*
X909Y2657D02*
X918Y2657D01*
X958Y2657D02*
X968Y2657D01*
X1009Y2657D02*
X1018Y2657D01*
X1058Y2657D02*
X1068Y2657D01*
X1109Y2657D02*
X1118Y2657D01*
X1158Y2657D02*
X1168Y2657D01*
X2009Y2657D02*
X2018Y2657D01*
X2058Y2657D02*
X2068Y2657D01*
X2109Y2657D02*
X2118Y2657D01*
X2158Y2657D02*
X2167Y2657D01*
X2209Y2657D02*
X2218Y2657D01*
X2258Y2657D02*
X2267Y2657D01*
X909Y2656D02*
X918Y2656D01*
X959Y2656D02*
X968Y2656D01*
X1009Y2656D02*
X1018Y2656D01*
X1059Y2656D02*
X1068Y2656D01*
X1109Y2656D02*
X1118Y2656D01*
X1159Y2656D02*
X1168Y2656D01*
X2009Y2656D02*
X2018Y2656D01*
X2058Y2656D02*
X2068Y2656D01*
X2109Y2656D02*
X2118Y2656D01*
X2158Y2656D02*
X2167Y2656D01*
X2209Y2656D02*
X2218Y2656D01*
X2258Y2656D02*
X2267Y2656D01*
X909Y2655D02*
X918Y2655D01*
X959Y2655D02*
X968Y2655D01*
X1009Y2655D02*
X1018Y2655D01*
X1059Y2655D02*
X1068Y2655D01*
X1109Y2655D02*
X1118Y2655D01*
X1159Y2655D02*
X1168Y2655D01*
X2009Y2655D02*
X2018Y2655D01*
X2058Y2655D02*
X2068Y2655D01*
X2109Y2655D02*
X2118Y2655D01*
X2158Y2655D02*
X2167Y2655D01*
X2209Y2655D02*
X2218Y2655D01*
X2258Y2655D02*
X2267Y2655D01*
X909Y2654D02*
X918Y2654D01*
X959Y2654D02*
X968Y2654D01*
X1009Y2654D02*
X1018Y2654D01*
X1059Y2654D02*
X1068Y2654D01*
X1109Y2654D02*
X1118Y2654D01*
X1159Y2654D02*
X1168Y2654D01*
X2009Y2654D02*
X2018Y2654D01*
X2058Y2654D02*
X2068Y2654D01*
X2109Y2654D02*
X2118Y2654D01*
X2158Y2654D02*
X2167Y2654D01*
X2209Y2654D02*
X2218Y2654D01*
X2258Y2654D02*
X2267Y2654D01*
X909Y2653D02*
X918Y2653D01*
X958Y2653D02*
X968Y2653D01*
X1009Y2653D02*
X1018Y2653D01*
X1058Y2653D02*
X1068Y2653D01*
X1109Y2653D02*
X1118Y2653D01*
X1158Y2653D02*
X1168Y2653D01*
X2009Y2653D02*
X2018Y2653D01*
X2058Y2653D02*
X2068Y2653D01*
X2109Y2653D02*
X2118Y2653D01*
X2158Y2653D02*
X2167Y2653D01*
X2209Y2653D02*
X2218Y2653D01*
X2258Y2653D02*
X2267Y2653D01*
X909Y2652D02*
X918Y2652D01*
X958Y2652D02*
X968Y2652D01*
X1009Y2652D02*
X1018Y2652D01*
X1058Y2652D02*
X1068Y2652D01*
X1109Y2652D02*
X1118Y2652D01*
X1158Y2652D02*
X1168Y2652D01*
X2009Y2652D02*
X2018Y2652D01*
X2058Y2652D02*
X2068Y2652D01*
X2109Y2652D02*
X2118Y2652D01*
X2158Y2652D02*
X2167Y2652D01*
X2209Y2652D02*
X2218Y2652D01*
X2258Y2652D02*
X2267Y2652D01*
X909Y2651D02*
X918Y2651D01*
X958Y2651D02*
X968Y2651D01*
X1009Y2651D02*
X1018Y2651D01*
X1058Y2651D02*
X1068Y2651D01*
X1109Y2651D02*
X1118Y2651D01*
X1158Y2651D02*
X1168Y2651D01*
X2009Y2651D02*
X2018Y2651D01*
X2058Y2651D02*
X2068Y2651D01*
X2109Y2651D02*
X2118Y2651D01*
X2158Y2651D02*
X2167Y2651D01*
X2209Y2651D02*
X2218Y2651D01*
X2258Y2651D02*
X2267Y2651D01*
X909Y2650D02*
X918Y2650D01*
X958Y2650D02*
X968Y2650D01*
X1009Y2650D02*
X1018Y2650D01*
X1058Y2650D02*
X1068Y2650D01*
X1109Y2650D02*
X1118Y2650D01*
X1158Y2650D02*
X1168Y2650D01*
X2009Y2650D02*
X2018Y2650D01*
X2058Y2650D02*
X2068Y2650D01*
X2109Y2650D02*
X2118Y2650D01*
X2158Y2650D02*
X2167Y2650D01*
X2209Y2650D02*
X2218Y2650D01*
X2258Y2650D02*
X2267Y2650D01*
X909Y2649D02*
X919Y2649D01*
X958Y2649D02*
X968Y2649D01*
X1009Y2649D02*
X1019Y2649D01*
X1058Y2649D02*
X1068Y2649D01*
X1109Y2649D02*
X1119Y2649D01*
X1158Y2649D02*
X1168Y2649D01*
X2009Y2649D02*
X2018Y2649D01*
X2058Y2649D02*
X2068Y2649D01*
X2109Y2649D02*
X2118Y2649D01*
X2158Y2649D02*
X2167Y2649D01*
X2209Y2649D02*
X2218Y2649D01*
X2258Y2649D02*
X2267Y2649D01*
X909Y2648D02*
X919Y2648D01*
X957Y2648D02*
X968Y2648D01*
X1009Y2648D02*
X1019Y2648D01*
X1057Y2648D02*
X1068Y2648D01*
X1109Y2648D02*
X1119Y2648D01*
X1157Y2648D02*
X1168Y2648D01*
X2009Y2648D02*
X2019Y2648D01*
X2057Y2648D02*
X2068Y2648D01*
X2109Y2648D02*
X2119Y2648D01*
X2157Y2648D02*
X2167Y2648D01*
X2209Y2648D02*
X2219Y2648D01*
X2257Y2648D02*
X2267Y2648D01*
X909Y2647D02*
X919Y2647D01*
X957Y2647D02*
X968Y2647D01*
X1009Y2647D02*
X1019Y2647D01*
X1057Y2647D02*
X1068Y2647D01*
X1109Y2647D02*
X1119Y2647D01*
X1157Y2647D02*
X1168Y2647D01*
X2009Y2647D02*
X2019Y2647D01*
X2057Y2647D02*
X2068Y2647D01*
X2109Y2647D02*
X2119Y2647D01*
X2157Y2647D02*
X2167Y2647D01*
X2209Y2647D02*
X2219Y2647D01*
X2257Y2647D02*
X2267Y2647D01*
X909Y2646D02*
X920Y2646D01*
X957Y2646D02*
X968Y2646D01*
X1009Y2646D02*
X1020Y2646D01*
X1057Y2646D02*
X1068Y2646D01*
X1109Y2646D02*
X1120Y2646D01*
X1157Y2646D02*
X1168Y2646D01*
X2009Y2646D02*
X2020Y2646D01*
X2056Y2646D02*
X2068Y2646D01*
X2109Y2646D02*
X2120Y2646D01*
X2156Y2646D02*
X2167Y2646D01*
X2209Y2646D02*
X2220Y2646D01*
X2256Y2646D02*
X2267Y2646D01*
X909Y2645D02*
X920Y2645D01*
X956Y2645D02*
X968Y2645D01*
X1009Y2645D02*
X1020Y2645D01*
X1056Y2645D02*
X1068Y2645D01*
X1109Y2645D02*
X1120Y2645D01*
X1156Y2645D02*
X1168Y2645D01*
X2009Y2645D02*
X2020Y2645D01*
X2056Y2645D02*
X2068Y2645D01*
X2109Y2645D02*
X2120Y2645D01*
X2156Y2645D02*
X2167Y2645D01*
X2209Y2645D02*
X2220Y2645D01*
X2256Y2645D02*
X2267Y2645D01*
X909Y2644D02*
X921Y2644D01*
X955Y2644D02*
X968Y2644D01*
X1009Y2644D02*
X1021Y2644D01*
X1055Y2644D02*
X1068Y2644D01*
X1109Y2644D02*
X1121Y2644D01*
X1155Y2644D02*
X1168Y2644D01*
X2009Y2644D02*
X2021Y2644D01*
X2055Y2644D02*
X2068Y2644D01*
X2109Y2644D02*
X2121Y2644D01*
X2155Y2644D02*
X2167Y2644D01*
X2209Y2644D02*
X2221Y2644D01*
X2255Y2644D02*
X2267Y2644D01*
X909Y2643D02*
X922Y2643D01*
X955Y2643D02*
X968Y2643D01*
X1009Y2643D02*
X1022Y2643D01*
X1055Y2643D02*
X1068Y2643D01*
X1109Y2643D02*
X1122Y2643D01*
X1155Y2643D02*
X1168Y2643D01*
X2009Y2643D02*
X2021Y2643D01*
X2055Y2643D02*
X2068Y2643D01*
X2109Y2643D02*
X2121Y2643D01*
X2155Y2643D02*
X2167Y2643D01*
X2209Y2643D02*
X2221Y2643D01*
X2255Y2643D02*
X2267Y2643D01*
X909Y2642D02*
X922Y2642D01*
X954Y2642D02*
X968Y2642D01*
X1009Y2642D02*
X1022Y2642D01*
X1054Y2642D02*
X1068Y2642D01*
X1109Y2642D02*
X1122Y2642D01*
X1154Y2642D02*
X1168Y2642D01*
X2009Y2642D02*
X2022Y2642D01*
X2054Y2642D02*
X2068Y2642D01*
X2109Y2642D02*
X2122Y2642D01*
X2154Y2642D02*
X2167Y2642D01*
X2209Y2642D02*
X2222Y2642D01*
X2254Y2642D02*
X2267Y2642D01*
X909Y2641D02*
X923Y2641D01*
X953Y2641D02*
X968Y2641D01*
X1009Y2641D02*
X1023Y2641D01*
X1053Y2641D02*
X1068Y2641D01*
X1109Y2641D02*
X1123Y2641D01*
X1153Y2641D02*
X1168Y2641D01*
X2009Y2641D02*
X2023Y2641D01*
X2053Y2641D02*
X2068Y2641D01*
X2109Y2641D02*
X2123Y2641D01*
X2153Y2641D02*
X2167Y2641D01*
X2209Y2641D02*
X2223Y2641D01*
X2253Y2641D02*
X2267Y2641D01*
X909Y2640D02*
X924Y2640D01*
X952Y2640D02*
X968Y2640D01*
X1009Y2640D02*
X1024Y2640D01*
X1052Y2640D02*
X1068Y2640D01*
X1109Y2640D02*
X1124Y2640D01*
X1152Y2640D02*
X1168Y2640D01*
X2009Y2640D02*
X2024Y2640D01*
X2052Y2640D02*
X2068Y2640D01*
X2109Y2640D02*
X2124Y2640D01*
X2152Y2640D02*
X2167Y2640D01*
X2209Y2640D02*
X2224Y2640D01*
X2252Y2640D02*
X2267Y2640D01*
X909Y2639D02*
X926Y2639D01*
X951Y2639D02*
X968Y2639D01*
X1009Y2639D02*
X1025Y2639D01*
X1051Y2639D02*
X1068Y2639D01*
X1109Y2639D02*
X1125Y2639D01*
X1151Y2639D02*
X1168Y2639D01*
X2009Y2639D02*
X2025Y2639D01*
X2051Y2639D02*
X2068Y2639D01*
X2109Y2639D02*
X2125Y2639D01*
X2151Y2639D02*
X2167Y2639D01*
X2209Y2639D02*
X2225Y2639D01*
X2251Y2639D02*
X2267Y2639D01*
X909Y2638D02*
X927Y2638D01*
X949Y2638D02*
X968Y2638D01*
X1009Y2638D02*
X1027Y2638D01*
X1049Y2638D02*
X1068Y2638D01*
X1109Y2638D02*
X1127Y2638D01*
X1149Y2638D02*
X1168Y2638D01*
X2009Y2638D02*
X2027Y2638D01*
X2049Y2638D02*
X2068Y2638D01*
X2109Y2638D02*
X2127Y2638D01*
X2149Y2638D02*
X2167Y2638D01*
X2209Y2638D02*
X2227Y2638D01*
X2249Y2638D02*
X2267Y2638D01*
X909Y2637D02*
X929Y2637D01*
X948Y2637D02*
X968Y2637D01*
X1009Y2637D02*
X1029Y2637D01*
X1048Y2637D02*
X1068Y2637D01*
X1109Y2637D02*
X1129Y2637D01*
X1148Y2637D02*
X1168Y2637D01*
X2009Y2637D02*
X2029Y2637D01*
X2048Y2637D02*
X2068Y2637D01*
X2109Y2637D02*
X2128Y2637D01*
X2148Y2637D02*
X2167Y2637D01*
X2209Y2637D02*
X2228Y2637D01*
X2248Y2637D02*
X2267Y2637D01*
X909Y2636D02*
X931Y2636D01*
X945Y2636D02*
X968Y2636D01*
X1009Y2636D02*
X1031Y2636D01*
X1045Y2636D02*
X1068Y2636D01*
X1109Y2636D02*
X1131Y2636D01*
X1145Y2636D02*
X1168Y2636D01*
X2009Y2636D02*
X2031Y2636D01*
X2045Y2636D02*
X2068Y2636D01*
X2109Y2636D02*
X2131Y2636D01*
X2145Y2636D02*
X2167Y2636D01*
X2209Y2636D02*
X2231Y2636D01*
X2245Y2636D02*
X2267Y2636D01*
X909Y2635D02*
X935Y2635D01*
X941Y2635D02*
X968Y2635D01*
X1009Y2635D02*
X1035Y2635D01*
X1041Y2635D02*
X1068Y2635D01*
X1109Y2635D02*
X1135Y2635D01*
X1141Y2635D02*
X1168Y2635D01*
X2009Y2635D02*
X2035Y2635D01*
X2041Y2635D02*
X2068Y2635D01*
X2109Y2635D02*
X2135Y2635D01*
X2141Y2635D02*
X2167Y2635D01*
X2209Y2635D02*
X2235Y2635D01*
X2241Y2635D02*
X2267Y2635D01*
X909Y2634D02*
X968Y2634D01*
X1009Y2634D02*
X1068Y2634D01*
X1109Y2634D02*
X1168Y2634D01*
X2009Y2634D02*
X2068Y2634D01*
X2109Y2634D02*
X2167Y2634D01*
X2209Y2634D02*
X2267Y2634D01*
X909Y2633D02*
X968Y2633D01*
X1009Y2633D02*
X1068Y2633D01*
X1109Y2633D02*
X1168Y2633D01*
X2009Y2633D02*
X2068Y2633D01*
X2109Y2633D02*
X2167Y2633D01*
X2209Y2633D02*
X2267Y2633D01*
X909Y2632D02*
X968Y2632D01*
X1009Y2632D02*
X1068Y2632D01*
X1109Y2632D02*
X1168Y2632D01*
X2009Y2632D02*
X2068Y2632D01*
X2109Y2632D02*
X2167Y2632D01*
X2209Y2632D02*
X2267Y2632D01*
X909Y2631D02*
X968Y2631D01*
X1009Y2631D02*
X1068Y2631D01*
X1109Y2631D02*
X1168Y2631D01*
X2009Y2631D02*
X2068Y2631D01*
X2109Y2631D02*
X2167Y2631D01*
X2209Y2631D02*
X2267Y2631D01*
X909Y2630D02*
X968Y2630D01*
X1009Y2630D02*
X1068Y2630D01*
X1109Y2630D02*
X1168Y2630D01*
X2009Y2630D02*
X2068Y2630D01*
X2109Y2630D02*
X2167Y2630D01*
X2209Y2630D02*
X2267Y2630D01*
X909Y2629D02*
X968Y2629D01*
X1009Y2629D02*
X1068Y2629D01*
X1109Y2629D02*
X1168Y2629D01*
X2009Y2629D02*
X2068Y2629D01*
X2109Y2629D02*
X2167Y2629D01*
X2209Y2629D02*
X2267Y2629D01*
X909Y2628D02*
X968Y2628D01*
X1009Y2628D02*
X1068Y2628D01*
X1109Y2628D02*
X1168Y2628D01*
X2009Y2628D02*
X2068Y2628D01*
X2109Y2628D02*
X2167Y2628D01*
X2209Y2628D02*
X2267Y2628D01*
X909Y2627D02*
X968Y2627D01*
X1009Y2627D02*
X1068Y2627D01*
X1109Y2627D02*
X1168Y2627D01*
X2009Y2627D02*
X2068Y2627D01*
X2109Y2627D02*
X2167Y2627D01*
X2209Y2627D02*
X2267Y2627D01*
X909Y2626D02*
X968Y2626D01*
X1009Y2626D02*
X1068Y2626D01*
X1109Y2626D02*
X1168Y2626D01*
X2009Y2626D02*
X2068Y2626D01*
X2109Y2626D02*
X2167Y2626D01*
X2209Y2626D02*
X2267Y2626D01*
X909Y2625D02*
X968Y2625D01*
X1009Y2625D02*
X1068Y2625D01*
X1109Y2625D02*
X1168Y2625D01*
X2009Y2625D02*
X2068Y2625D01*
X2109Y2625D02*
X2167Y2625D01*
X2209Y2625D02*
X2267Y2625D01*
X909Y2624D02*
X968Y2624D01*
X1009Y2624D02*
X1068Y2624D01*
X1109Y2624D02*
X1168Y2624D01*
X2009Y2624D02*
X2067Y2624D01*
X2109Y2624D02*
X2167Y2624D01*
X2209Y2624D02*
X2267Y2624D01*
X909Y2623D02*
X968Y2623D01*
X1009Y2623D02*
X1068Y2623D01*
X1109Y2623D02*
X1168Y2623D01*
X2009Y2623D02*
X2067Y2623D01*
X2109Y2623D02*
X2167Y2623D01*
X2209Y2623D02*
X2267Y2623D01*
X909Y2622D02*
X968Y2622D01*
X1009Y2622D02*
X1068Y2622D01*
X1109Y2622D02*
X1168Y2622D01*
X2009Y2622D02*
X2067Y2622D01*
X2109Y2622D02*
X2167Y2622D01*
X2209Y2622D02*
X2267Y2622D01*
X909Y2621D02*
X967Y2621D01*
X1009Y2621D02*
X1067Y2621D01*
X1109Y2621D02*
X1167Y2621D01*
X2009Y2621D02*
X2067Y2621D01*
X2109Y2621D02*
X2167Y2621D01*
X2209Y2621D02*
X2267Y2621D01*
X909Y2620D02*
X967Y2620D01*
X1009Y2620D02*
X1067Y2620D01*
X1109Y2620D02*
X1167Y2620D01*
X2009Y2620D02*
X2067Y2620D01*
X2109Y2620D02*
X2167Y2620D01*
X2209Y2620D02*
X2267Y2620D01*
X909Y2619D02*
X967Y2619D01*
X1009Y2619D02*
X1067Y2619D01*
X1109Y2619D02*
X1167Y2619D01*
X2009Y2619D02*
X2067Y2619D01*
X2109Y2619D02*
X2167Y2619D01*
X2209Y2619D02*
X2267Y2619D01*
X909Y2618D02*
X967Y2618D01*
X1009Y2618D02*
X1067Y2618D01*
X1109Y2618D02*
X1167Y2618D01*
X2009Y2618D02*
X2067Y2618D01*
X2109Y2618D02*
X2167Y2618D01*
X2209Y2618D02*
X2267Y2618D01*
X910Y2617D02*
X967Y2617D01*
X1010Y2617D02*
X1067Y2617D01*
X1110Y2617D02*
X1167Y2617D01*
X2010Y2617D02*
X2066Y2617D01*
X2110Y2617D02*
X2166Y2617D01*
X2210Y2617D02*
X2266Y2617D01*
X910Y2616D02*
X966Y2616D01*
X1010Y2616D02*
X1066Y2616D01*
X1110Y2616D02*
X1166Y2616D01*
X2010Y2616D02*
X2066Y2616D01*
X2110Y2616D02*
X2166Y2616D01*
X2210Y2616D02*
X2266Y2616D01*
X910Y2615D02*
X966Y2615D01*
X1010Y2615D02*
X1066Y2615D01*
X1110Y2615D02*
X1166Y2615D01*
X2010Y2615D02*
X2066Y2615D01*
X2110Y2615D02*
X2166Y2615D01*
X2210Y2615D02*
X2266Y2615D01*
X911Y2614D02*
X966Y2614D01*
X1011Y2614D02*
X1066Y2614D01*
X1111Y2614D02*
X1166Y2614D01*
X2011Y2614D02*
X2065Y2614D01*
X2111Y2614D02*
X2165Y2614D01*
X2211Y2614D02*
X2265Y2614D01*
X911Y2613D02*
X965Y2613D01*
X1011Y2613D02*
X1065Y2613D01*
X1111Y2613D02*
X1165Y2613D01*
X2011Y2613D02*
X2065Y2613D01*
X2111Y2613D02*
X2165Y2613D01*
X2211Y2613D02*
X2265Y2613D01*
X912Y2612D02*
X965Y2612D01*
X1012Y2612D02*
X1065Y2612D01*
X1112Y2612D02*
X1165Y2612D01*
X2011Y2612D02*
X2065Y2612D01*
X2111Y2612D02*
X2165Y2612D01*
X2211Y2612D02*
X2265Y2612D01*
X912Y2611D02*
X964Y2611D01*
X1012Y2611D02*
X1064Y2611D01*
X1112Y2611D02*
X1164Y2611D01*
X2012Y2611D02*
X2064Y2611D01*
X2112Y2611D02*
X2164Y2611D01*
X2212Y2611D02*
X2264Y2611D01*
X913Y2610D02*
X964Y2610D01*
X1013Y2610D02*
X1064Y2610D01*
X1113Y2610D02*
X1164Y2610D01*
X2012Y2610D02*
X2064Y2610D01*
X2112Y2610D02*
X2164Y2610D01*
X2212Y2610D02*
X2264Y2610D01*
X913Y2609D02*
X963Y2609D01*
X1013Y2609D02*
X1063Y2609D01*
X1113Y2609D02*
X1163Y2609D01*
X2013Y2609D02*
X2063Y2609D01*
X2113Y2609D02*
X2163Y2609D01*
X2213Y2609D02*
X2263Y2609D01*
X914Y2608D02*
X963Y2608D01*
X1014Y2608D02*
X1063Y2608D01*
X1114Y2608D02*
X1163Y2608D01*
X2014Y2608D02*
X2062Y2608D01*
X2114Y2608D02*
X2162Y2608D01*
X2214Y2608D02*
X2262Y2608D01*
X915Y2607D02*
X962Y2607D01*
X1015Y2607D02*
X1062Y2607D01*
X1115Y2607D02*
X1162Y2607D01*
X2014Y2607D02*
X2062Y2607D01*
X2114Y2607D02*
X2162Y2607D01*
X2214Y2607D02*
X2262Y2607D01*
X915Y2606D02*
X961Y2606D01*
X1015Y2606D02*
X1061Y2606D01*
X1115Y2606D02*
X1161Y2606D01*
X2015Y2606D02*
X2061Y2606D01*
X2115Y2606D02*
X2161Y2606D01*
X2215Y2606D02*
X2261Y2606D01*
X916Y2605D02*
X960Y2605D01*
X1016Y2605D02*
X1060Y2605D01*
X1116Y2605D02*
X1160Y2605D01*
X2016Y2605D02*
X2060Y2605D01*
X2116Y2605D02*
X2160Y2605D01*
X2216Y2605D02*
X2260Y2605D01*
X917Y2604D02*
X959Y2604D01*
X1017Y2604D02*
X1059Y2604D01*
X1117Y2604D02*
X1159Y2604D01*
X2017Y2604D02*
X2059Y2604D01*
X2117Y2604D02*
X2159Y2604D01*
X2217Y2604D02*
X2259Y2604D01*
X918Y2603D02*
X958Y2603D01*
X1018Y2603D02*
X1058Y2603D01*
X1118Y2603D02*
X1158Y2603D01*
X2018Y2603D02*
X2058Y2603D01*
X2118Y2603D02*
X2158Y2603D01*
X2218Y2603D02*
X2258Y2603D01*
X919Y2602D02*
X957Y2602D01*
X1019Y2602D02*
X1057Y2602D01*
X1119Y2602D02*
X1157Y2602D01*
X2019Y2602D02*
X2057Y2602D01*
X2119Y2602D02*
X2157Y2602D01*
X2219Y2602D02*
X2257Y2602D01*
X920Y2601D02*
X956Y2601D01*
X1020Y2601D02*
X1056Y2601D01*
X1120Y2601D02*
X1156Y2601D01*
X2020Y2601D02*
X2056Y2601D01*
X2120Y2601D02*
X2156Y2601D01*
X2220Y2601D02*
X2256Y2601D01*
X922Y2600D02*
X955Y2600D01*
X1022Y2600D02*
X1055Y2600D01*
X1122Y2600D02*
X1155Y2600D01*
X2022Y2600D02*
X2054Y2600D01*
X2122Y2600D02*
X2154Y2600D01*
X2222Y2600D02*
X2254Y2600D01*
X923Y2599D02*
X953Y2599D01*
X1023Y2599D02*
X1053Y2599D01*
X1123Y2599D02*
X1153Y2599D01*
X2023Y2599D02*
X2053Y2599D01*
X2123Y2599D02*
X2153Y2599D01*
X2223Y2599D02*
X2253Y2599D01*
X925Y2598D02*
X951Y2598D01*
X1025Y2598D02*
X1051Y2598D01*
X1125Y2598D02*
X1151Y2598D01*
X2025Y2598D02*
X2051Y2598D01*
X2125Y2598D02*
X2151Y2598D01*
X2225Y2598D02*
X2251Y2598D01*
X927Y2597D02*
X949Y2597D01*
X1027Y2597D02*
X1049Y2597D01*
X1127Y2597D02*
X1149Y2597D01*
X2027Y2597D02*
X2049Y2597D01*
X2127Y2597D02*
X2149Y2597D01*
X2227Y2597D02*
X2249Y2597D01*
X930Y2596D02*
X946Y2596D01*
X1030Y2596D02*
X1046Y2596D01*
X1130Y2596D02*
X1146Y2596D01*
X2030Y2596D02*
X2046Y2596D01*
X2130Y2596D02*
X2146Y2596D01*
X2230Y2596D02*
X2246Y2596D01*
X935Y2595D02*
X941Y2595D01*
X1035Y2595D02*
X1041Y2595D01*
X1135Y2595D02*
X1141Y2595D01*
X2035Y2595D02*
X2041Y2595D01*
X2135Y2595D02*
X2141Y2595D01*
X2235Y2595D02*
X2241Y2595D01*
D02*
G04 End of Copper1*
M02*