G04 MADE WITH FRITZING*
G04 WWW.FRITZING.ORG*
G04 DOUBLE SIDED*
G04 HOLES PLATED*
G04 CONTOUR ON CENTER OF CONTOUR VECTOR*
%ASAXBY*%
%FSLAX23Y23*%
%MOIN*%
%OFA0B0*%
%SFA1.0B1.0*%
%ADD10C,0.049370*%
%ADD11C,0.088000*%
%ADD12C,0.070000*%
%ADD13C,0.140000*%
%ADD14C,0.085000*%
%ADD15C,0.080000*%
%ADD16C,0.072992*%
%ADD17C,0.135984*%
%ADD18C,0.063528*%
%ADD19C,0.090000*%
%ADD20C,0.148425*%
%ADD21R,0.085000X0.085000*%
%ADD22R,0.072992X0.072992*%
%ADD23R,0.090000X0.090000*%
%ADD24R,0.001000X0.001000*%
%LNMASK1*%
G90*
G70*
G54D10*
X2234Y1613D03*
X3082Y1613D03*
X1234Y2110D03*
X4132Y3009D03*
X5136Y812D03*
X5333Y262D03*
X5333Y3713D03*
X5232Y3814D03*
X4132Y1613D03*
G54D11*
X6627Y2818D03*
X6627Y2718D03*
X6627Y2618D03*
X6627Y2518D03*
X6627Y2418D03*
X6627Y2318D03*
X6627Y2218D03*
X6627Y2118D03*
X6627Y2018D03*
X6627Y1918D03*
X6627Y1818D03*
X6627Y1718D03*
G54D10*
X2634Y3010D03*
X2933Y3010D03*
X2634Y2711D03*
X2535Y3413D03*
X3634Y3413D03*
X2132Y1110D03*
X2132Y1314D03*
X5931Y2711D03*
X4932Y2711D03*
X5534Y2512D03*
X2331Y1314D03*
X2331Y513D03*
X5031Y513D03*
X4435Y414D03*
X2535Y414D03*
X4534Y613D03*
X3435Y613D03*
X3032Y613D03*
X2435Y613D03*
X4032Y712D03*
X5434Y3214D03*
X4733Y3214D03*
X3733Y3214D03*
X3733Y1911D03*
X5633Y3109D03*
X4733Y3109D03*
X2734Y1712D03*
X4236Y2010D03*
X3335Y1513D03*
X4236Y1413D03*
X4131Y812D03*
X4832Y812D03*
X4733Y1413D03*
X5434Y1413D03*
X4733Y2010D03*
X5434Y2010D03*
X4832Y1110D03*
X4236Y2612D03*
X4932Y1314D03*
X4733Y1314D03*
X4236Y1314D03*
X3833Y1314D03*
X3833Y1110D03*
X4932Y2811D03*
X5534Y2811D03*
X2734Y309D03*
X4032Y309D03*
X2535Y1513D03*
X2231Y1413D03*
X2231Y210D03*
X3833Y210D03*
X3833Y712D03*
X3833Y1010D03*
X3534Y110D03*
X4733Y1911D03*
X5031Y1911D03*
X4932Y1110D03*
X4932Y414D03*
X3131Y759D03*
X2085Y759D03*
X5732Y2711D03*
G54D11*
X83Y1562D03*
X83Y1462D03*
X83Y1362D03*
X83Y1262D03*
X83Y1162D03*
X83Y1062D03*
G54D10*
X3984Y3214D03*
X3984Y3109D03*
X3634Y3109D03*
X3932Y1513D03*
X1635Y1963D03*
G54D12*
X933Y3112D03*
X1033Y3112D03*
X1133Y3112D03*
G54D13*
X1033Y3702D03*
G54D12*
X933Y3112D03*
X1033Y3112D03*
X1133Y3112D03*
G54D13*
X1033Y3702D03*
G54D14*
X1433Y2712D03*
X1433Y2812D03*
G54D15*
X633Y2712D03*
X633Y2812D03*
X1833Y2712D03*
X1833Y2812D03*
G54D16*
X1033Y2213D03*
X1033Y2312D03*
G54D17*
X183Y162D03*
X183Y3812D03*
X6583Y3812D03*
X6533Y162D03*
G54D18*
X2033Y3112D03*
X2133Y3112D03*
X2233Y3112D03*
G54D17*
X3233Y3812D03*
X3233Y612D03*
G54D14*
X4333Y3612D03*
X4633Y3612D03*
X4333Y3512D03*
X4633Y3512D03*
X4333Y3412D03*
X4633Y3412D03*
X4333Y3312D03*
X4633Y3312D03*
X4333Y3012D03*
X4633Y3012D03*
X4333Y2912D03*
X4633Y2912D03*
X4333Y2812D03*
X4633Y2812D03*
X4333Y2712D03*
X4633Y2712D03*
X4333Y2412D03*
X4633Y2412D03*
X4333Y2312D03*
X4633Y2312D03*
X4333Y2212D03*
X4633Y2212D03*
X4333Y2112D03*
X4633Y2112D03*
X4333Y1812D03*
X4633Y1812D03*
X4333Y1712D03*
X4633Y1712D03*
X4333Y1612D03*
X4633Y1612D03*
X4333Y1512D03*
X4633Y1512D03*
X4333Y1212D03*
X4633Y1212D03*
X4333Y1112D03*
X4633Y1112D03*
X4333Y1012D03*
X4633Y1012D03*
X4333Y912D03*
X4633Y912D03*
X3433Y2112D03*
X3433Y1712D03*
G54D15*
X633Y1912D03*
X733Y1912D03*
X3333Y862D03*
X3233Y862D03*
X2533Y2812D03*
X2533Y2912D03*
G54D16*
X3533Y3213D03*
X3533Y3312D03*
G54D14*
X2833Y3312D03*
X3233Y3312D03*
G54D19*
X183Y3124D03*
X183Y3262D03*
G54D16*
X5833Y3413D03*
X5833Y3512D03*
X5833Y2813D03*
X5833Y2912D03*
X5833Y2213D03*
X5833Y2312D03*
X5833Y1613D03*
X5833Y1712D03*
X5833Y1013D03*
X5833Y1112D03*
G54D20*
X383Y1712D03*
X1683Y1712D03*
G54D15*
X363Y1562D03*
X363Y1462D03*
X363Y1362D03*
X363Y1262D03*
X363Y1162D03*
X363Y1062D03*
X1533Y1712D03*
X1433Y1712D03*
X1333Y1712D03*
X1233Y1712D03*
X1133Y1712D03*
X1033Y1712D03*
X933Y1712D03*
X833Y1712D03*
X733Y1712D03*
G54D20*
X1683Y912D03*
G54D15*
X633Y1712D03*
G54D20*
X383Y912D03*
G54D15*
X633Y912D03*
X733Y912D03*
X833Y912D03*
X933Y912D03*
X1033Y912D03*
X1133Y912D03*
X1233Y912D03*
X1333Y912D03*
X1433Y912D03*
X1533Y912D03*
G54D10*
X4231Y3164D03*
X4832Y3164D03*
X5031Y3164D03*
X5031Y2960D03*
G54D21*
X1433Y2712D03*
G54D22*
X1033Y2213D03*
G54D21*
X4333Y3612D03*
X4333Y3012D03*
X4333Y2412D03*
X4333Y1812D03*
X4333Y1212D03*
G54D22*
X3533Y3213D03*
G54D23*
X183Y3124D03*
G54D22*
X5833Y3413D03*
X5833Y2813D03*
X5833Y2213D03*
X5833Y1613D03*
X5833Y1013D03*
G54D24*
X927Y3177D02*
X938Y3177D01*
X1027Y3177D02*
X1038Y3177D01*
X1127Y3177D02*
X1138Y3177D01*
X2027Y3177D02*
X2038Y3177D01*
X2127Y3177D02*
X2138Y3177D01*
X2227Y3177D02*
X2238Y3177D01*
X923Y3176D02*
X942Y3176D01*
X1023Y3176D02*
X1042Y3176D01*
X1123Y3176D02*
X1142Y3176D01*
X2023Y3176D02*
X2042Y3176D01*
X2123Y3176D02*
X2142Y3176D01*
X2223Y3176D02*
X2242Y3176D01*
X920Y3175D02*
X945Y3175D01*
X1020Y3175D02*
X1045Y3175D01*
X1120Y3175D02*
X1145Y3175D01*
X2020Y3175D02*
X2045Y3175D01*
X2120Y3175D02*
X2145Y3175D01*
X2220Y3175D02*
X2245Y3175D01*
X918Y3174D02*
X947Y3174D01*
X1018Y3174D02*
X1047Y3174D01*
X1118Y3174D02*
X1147Y3174D01*
X2018Y3174D02*
X2047Y3174D01*
X2118Y3174D02*
X2147Y3174D01*
X2218Y3174D02*
X2247Y3174D01*
X916Y3173D02*
X949Y3173D01*
X1016Y3173D02*
X1049Y3173D01*
X1116Y3173D02*
X1149Y3173D01*
X2016Y3173D02*
X2049Y3173D01*
X2116Y3173D02*
X2149Y3173D01*
X2216Y3173D02*
X2249Y3173D01*
X914Y3172D02*
X951Y3172D01*
X1014Y3172D02*
X1051Y3172D01*
X1114Y3172D02*
X1151Y3172D01*
X2014Y3172D02*
X2051Y3172D01*
X2114Y3172D02*
X2151Y3172D01*
X2214Y3172D02*
X2251Y3172D01*
X913Y3171D02*
X952Y3171D01*
X1013Y3171D02*
X1052Y3171D01*
X1113Y3171D02*
X1152Y3171D01*
X2013Y3171D02*
X2052Y3171D01*
X2113Y3171D02*
X2152Y3171D01*
X2213Y3171D02*
X2252Y3171D01*
X912Y3170D02*
X954Y3170D01*
X1012Y3170D02*
X1054Y3170D01*
X1112Y3170D02*
X1154Y3170D01*
X2012Y3170D02*
X2054Y3170D01*
X2111Y3170D02*
X2154Y3170D01*
X2211Y3170D02*
X2254Y3170D01*
X910Y3169D02*
X955Y3169D01*
X1010Y3169D02*
X1055Y3169D01*
X1110Y3169D02*
X1155Y3169D01*
X2010Y3169D02*
X2055Y3169D01*
X2110Y3169D02*
X2155Y3169D01*
X2210Y3169D02*
X2255Y3169D01*
X909Y3168D02*
X956Y3168D01*
X1009Y3168D02*
X1056Y3168D01*
X1109Y3168D02*
X1156Y3168D01*
X2009Y3168D02*
X2056Y3168D01*
X2109Y3168D02*
X2156Y3168D01*
X2209Y3168D02*
X2256Y3168D01*
X908Y3167D02*
X957Y3167D01*
X1008Y3167D02*
X1057Y3167D01*
X1108Y3167D02*
X1157Y3167D01*
X2008Y3167D02*
X2057Y3167D01*
X2108Y3167D02*
X2157Y3167D01*
X2208Y3167D02*
X2257Y3167D01*
X907Y3166D02*
X958Y3166D01*
X1007Y3166D02*
X1058Y3166D01*
X1107Y3166D02*
X1158Y3166D01*
X2007Y3166D02*
X2058Y3166D01*
X2107Y3166D02*
X2158Y3166D01*
X2207Y3166D02*
X2258Y3166D01*
X906Y3165D02*
X959Y3165D01*
X1006Y3165D02*
X1059Y3165D01*
X1106Y3165D02*
X1159Y3165D01*
X2006Y3165D02*
X2059Y3165D01*
X2106Y3165D02*
X2159Y3165D01*
X2206Y3165D02*
X2259Y3165D01*
X906Y3164D02*
X960Y3164D01*
X1006Y3164D02*
X1060Y3164D01*
X1106Y3164D02*
X1160Y3164D01*
X2006Y3164D02*
X2060Y3164D01*
X2106Y3164D02*
X2160Y3164D01*
X2206Y3164D02*
X2260Y3164D01*
X905Y3163D02*
X961Y3163D01*
X1005Y3163D02*
X1061Y3163D01*
X1105Y3163D02*
X1161Y3163D01*
X2005Y3163D02*
X2060Y3163D01*
X2105Y3163D02*
X2160Y3163D01*
X2205Y3163D02*
X2260Y3163D01*
X904Y3162D02*
X961Y3162D01*
X1004Y3162D02*
X1061Y3162D01*
X1104Y3162D02*
X1161Y3162D01*
X2004Y3162D02*
X2061Y3162D01*
X2104Y3162D02*
X2161Y3162D01*
X2204Y3162D02*
X2261Y3162D01*
X904Y3161D02*
X962Y3161D01*
X1004Y3161D02*
X1062Y3161D01*
X1104Y3161D02*
X1162Y3161D01*
X2004Y3161D02*
X2062Y3161D01*
X2104Y3161D02*
X2162Y3161D01*
X2204Y3161D02*
X2262Y3161D01*
X903Y3160D02*
X962Y3160D01*
X1003Y3160D02*
X1062Y3160D01*
X1103Y3160D02*
X1162Y3160D01*
X2003Y3160D02*
X2062Y3160D01*
X2103Y3160D02*
X2162Y3160D01*
X2203Y3160D02*
X2262Y3160D01*
X902Y3159D02*
X963Y3159D01*
X1002Y3159D02*
X1063Y3159D01*
X1102Y3159D02*
X1163Y3159D01*
X2002Y3159D02*
X2063Y3159D01*
X2102Y3159D02*
X2163Y3159D01*
X2202Y3159D02*
X2263Y3159D01*
X902Y3158D02*
X963Y3158D01*
X1002Y3158D02*
X1063Y3158D01*
X1102Y3158D02*
X1163Y3158D01*
X2002Y3158D02*
X2063Y3158D01*
X2102Y3158D02*
X2163Y3158D01*
X2202Y3158D02*
X2263Y3158D01*
X901Y3157D02*
X964Y3157D01*
X1001Y3157D02*
X1064Y3157D01*
X1101Y3157D02*
X1164Y3157D01*
X2001Y3157D02*
X2064Y3157D01*
X2101Y3157D02*
X2164Y3157D01*
X2201Y3157D02*
X2264Y3157D01*
X901Y3156D02*
X964Y3156D01*
X1001Y3156D02*
X1064Y3156D01*
X1101Y3156D02*
X1164Y3156D01*
X2001Y3156D02*
X2064Y3156D01*
X2101Y3156D02*
X2164Y3156D01*
X2201Y3156D02*
X2264Y3156D01*
X901Y3155D02*
X965Y3155D01*
X1001Y3155D02*
X1065Y3155D01*
X1101Y3155D02*
X1165Y3155D01*
X2001Y3155D02*
X2065Y3155D01*
X2101Y3155D02*
X2165Y3155D01*
X2201Y3155D02*
X2265Y3155D01*
X900Y3154D02*
X965Y3154D01*
X1000Y3154D02*
X1065Y3154D01*
X1100Y3154D02*
X1165Y3154D01*
X2000Y3154D02*
X2065Y3154D01*
X2100Y3154D02*
X2165Y3154D01*
X2200Y3154D02*
X2265Y3154D01*
X900Y3153D02*
X966Y3153D01*
X1000Y3153D02*
X1066Y3153D01*
X1100Y3153D02*
X1166Y3153D01*
X2000Y3153D02*
X2065Y3153D01*
X2100Y3153D02*
X2165Y3153D01*
X2200Y3153D02*
X2265Y3153D01*
X900Y3152D02*
X966Y3152D01*
X1000Y3152D02*
X1066Y3152D01*
X1100Y3152D02*
X1166Y3152D01*
X2000Y3152D02*
X2066Y3152D01*
X2100Y3152D02*
X2166Y3152D01*
X2200Y3152D02*
X2266Y3152D01*
X899Y3151D02*
X966Y3151D01*
X999Y3151D02*
X1066Y3151D01*
X1099Y3151D02*
X1166Y3151D01*
X1999Y3151D02*
X2066Y3151D01*
X2099Y3151D02*
X2166Y3151D01*
X2199Y3151D02*
X2266Y3151D01*
X899Y3150D02*
X966Y3150D01*
X999Y3150D02*
X1066Y3150D01*
X1099Y3150D02*
X1166Y3150D01*
X1999Y3150D02*
X2066Y3150D01*
X2099Y3150D02*
X2166Y3150D01*
X2199Y3150D02*
X2266Y3150D01*
X899Y3149D02*
X967Y3149D01*
X999Y3149D02*
X1067Y3149D01*
X1099Y3149D02*
X1167Y3149D01*
X1999Y3149D02*
X2066Y3149D01*
X2099Y3149D02*
X2166Y3149D01*
X2199Y3149D02*
X2266Y3149D01*
X899Y3148D02*
X967Y3148D01*
X999Y3148D02*
X1067Y3148D01*
X1099Y3148D02*
X1167Y3148D01*
X1999Y3148D02*
X2067Y3148D01*
X2099Y3148D02*
X2167Y3148D01*
X2199Y3148D02*
X2267Y3148D01*
X899Y3147D02*
X967Y3147D01*
X999Y3147D02*
X1067Y3147D01*
X1099Y3147D02*
X1167Y3147D01*
X1998Y3147D02*
X2067Y3147D01*
X2098Y3147D02*
X2167Y3147D01*
X2198Y3147D02*
X2267Y3147D01*
X898Y3146D02*
X967Y3146D01*
X998Y3146D02*
X1067Y3146D01*
X1098Y3146D02*
X1167Y3146D01*
X1998Y3146D02*
X2067Y3146D01*
X2098Y3146D02*
X2167Y3146D01*
X2198Y3146D02*
X2267Y3146D01*
X898Y3145D02*
X967Y3145D01*
X998Y3145D02*
X1067Y3145D01*
X1098Y3145D02*
X1167Y3145D01*
X1998Y3145D02*
X2067Y3145D01*
X2098Y3145D02*
X2167Y3145D01*
X2198Y3145D02*
X2267Y3145D01*
X898Y3144D02*
X967Y3144D01*
X998Y3144D02*
X1067Y3144D01*
X1098Y3144D02*
X1167Y3144D01*
X1998Y3144D02*
X2067Y3144D01*
X2098Y3144D02*
X2167Y3144D01*
X2198Y3144D02*
X2267Y3144D01*
X898Y3143D02*
X967Y3143D01*
X998Y3143D02*
X1067Y3143D01*
X1098Y3143D02*
X1167Y3143D01*
X1998Y3143D02*
X2067Y3143D01*
X2098Y3143D02*
X2167Y3143D01*
X2198Y3143D02*
X2267Y3143D01*
X898Y3142D02*
X967Y3142D01*
X998Y3142D02*
X1067Y3142D01*
X1098Y3142D02*
X1167Y3142D01*
X1998Y3142D02*
X2067Y3142D01*
X2098Y3142D02*
X2167Y3142D01*
X2198Y3142D02*
X2267Y3142D01*
X898Y3141D02*
X967Y3141D01*
X998Y3141D02*
X1067Y3141D01*
X1098Y3141D02*
X1167Y3141D01*
X1998Y3141D02*
X2067Y3141D01*
X2098Y3141D02*
X2167Y3141D01*
X2198Y3141D02*
X2267Y3141D01*
X898Y3140D02*
X967Y3140D01*
X998Y3140D02*
X1067Y3140D01*
X1098Y3140D02*
X1167Y3140D01*
X1998Y3140D02*
X2067Y3140D01*
X2098Y3140D02*
X2167Y3140D01*
X2198Y3140D02*
X2267Y3140D01*
X898Y3139D02*
X967Y3139D01*
X998Y3139D02*
X1067Y3139D01*
X1098Y3139D02*
X1167Y3139D01*
X1998Y3139D02*
X2067Y3139D01*
X2098Y3139D02*
X2167Y3139D01*
X2198Y3139D02*
X2267Y3139D01*
X898Y3138D02*
X967Y3138D01*
X998Y3138D02*
X1067Y3138D01*
X1098Y3138D02*
X1167Y3138D01*
X1998Y3138D02*
X2067Y3138D01*
X2098Y3138D02*
X2167Y3138D01*
X2198Y3138D02*
X2267Y3138D01*
X898Y3137D02*
X967Y3137D01*
X998Y3137D02*
X1067Y3137D01*
X1098Y3137D02*
X1167Y3137D01*
X1998Y3137D02*
X2067Y3137D01*
X2098Y3137D02*
X2167Y3137D01*
X2198Y3137D02*
X2267Y3137D01*
X898Y3136D02*
X967Y3136D01*
X998Y3136D02*
X1067Y3136D01*
X1098Y3136D02*
X1167Y3136D01*
X1998Y3136D02*
X2067Y3136D01*
X2098Y3136D02*
X2167Y3136D01*
X2198Y3136D02*
X2267Y3136D01*
X898Y3135D02*
X967Y3135D01*
X998Y3135D02*
X1067Y3135D01*
X1098Y3135D02*
X1167Y3135D01*
X1998Y3135D02*
X2067Y3135D01*
X2098Y3135D02*
X2167Y3135D01*
X2198Y3135D02*
X2267Y3135D01*
X898Y3134D02*
X967Y3134D01*
X998Y3134D02*
X1067Y3134D01*
X1098Y3134D02*
X1167Y3134D01*
X1998Y3134D02*
X2067Y3134D01*
X2098Y3134D02*
X2167Y3134D01*
X2198Y3134D02*
X2267Y3134D01*
X898Y3133D02*
X967Y3133D01*
X998Y3133D02*
X1067Y3133D01*
X1098Y3133D02*
X1167Y3133D01*
X1998Y3133D02*
X2067Y3133D01*
X2098Y3133D02*
X2167Y3133D01*
X2198Y3133D02*
X2267Y3133D01*
X898Y3132D02*
X967Y3132D01*
X998Y3132D02*
X1067Y3132D01*
X1098Y3132D02*
X1167Y3132D01*
X1998Y3132D02*
X2067Y3132D01*
X2098Y3132D02*
X2167Y3132D01*
X2198Y3132D02*
X2267Y3132D01*
X898Y3131D02*
X967Y3131D01*
X998Y3131D02*
X1067Y3131D01*
X1098Y3131D02*
X1167Y3131D01*
X1998Y3131D02*
X2067Y3131D01*
X2098Y3131D02*
X2167Y3131D01*
X2198Y3131D02*
X2267Y3131D01*
X898Y3130D02*
X967Y3130D01*
X998Y3130D02*
X1067Y3130D01*
X1098Y3130D02*
X1167Y3130D01*
X1998Y3130D02*
X2067Y3130D01*
X2098Y3130D02*
X2167Y3130D01*
X2198Y3130D02*
X2267Y3130D01*
X898Y3129D02*
X967Y3129D01*
X998Y3129D02*
X1067Y3129D01*
X1098Y3129D02*
X1167Y3129D01*
X1998Y3129D02*
X2067Y3129D01*
X2098Y3129D02*
X2167Y3129D01*
X2198Y3129D02*
X2267Y3129D01*
X898Y3128D02*
X967Y3128D01*
X998Y3128D02*
X1067Y3128D01*
X1098Y3128D02*
X1167Y3128D01*
X1998Y3128D02*
X2067Y3128D01*
X2098Y3128D02*
X2167Y3128D01*
X2198Y3128D02*
X2267Y3128D01*
X898Y3127D02*
X928Y3127D01*
X937Y3127D02*
X967Y3127D01*
X998Y3127D02*
X1028Y3127D01*
X1037Y3127D02*
X1067Y3127D01*
X1098Y3127D02*
X1128Y3127D01*
X1137Y3127D02*
X1167Y3127D01*
X1998Y3127D02*
X2028Y3127D01*
X2037Y3127D02*
X2067Y3127D01*
X2098Y3127D02*
X2128Y3127D01*
X2137Y3127D02*
X2167Y3127D01*
X2198Y3127D02*
X2228Y3127D01*
X2237Y3127D02*
X2267Y3127D01*
X898Y3126D02*
X925Y3126D01*
X940Y3126D02*
X967Y3126D01*
X998Y3126D02*
X1025Y3126D01*
X1040Y3126D02*
X1067Y3126D01*
X1098Y3126D02*
X1125Y3126D01*
X1140Y3126D02*
X1167Y3126D01*
X1998Y3126D02*
X2025Y3126D01*
X2040Y3126D02*
X2067Y3126D01*
X2098Y3126D02*
X2125Y3126D01*
X2140Y3126D02*
X2167Y3126D01*
X2198Y3126D02*
X2225Y3126D01*
X2240Y3126D02*
X2267Y3126D01*
X898Y3125D02*
X924Y3125D01*
X942Y3125D02*
X967Y3125D01*
X998Y3125D02*
X1024Y3125D01*
X1042Y3125D02*
X1067Y3125D01*
X1098Y3125D02*
X1124Y3125D01*
X1142Y3125D02*
X1167Y3125D01*
X1998Y3125D02*
X2024Y3125D01*
X2042Y3125D02*
X2067Y3125D01*
X2098Y3125D02*
X2124Y3125D01*
X2142Y3125D02*
X2167Y3125D01*
X2198Y3125D02*
X2224Y3125D01*
X2242Y3125D02*
X2267Y3125D01*
X898Y3124D02*
X923Y3124D01*
X943Y3124D02*
X967Y3124D01*
X998Y3124D02*
X1023Y3124D01*
X1043Y3124D02*
X1067Y3124D01*
X1098Y3124D02*
X1123Y3124D01*
X1143Y3124D02*
X1167Y3124D01*
X1998Y3124D02*
X2023Y3124D01*
X2043Y3124D02*
X2067Y3124D01*
X2098Y3124D02*
X2123Y3124D01*
X2143Y3124D02*
X2167Y3124D01*
X2198Y3124D02*
X2223Y3124D01*
X2243Y3124D02*
X2267Y3124D01*
X898Y3123D02*
X921Y3123D01*
X944Y3123D02*
X967Y3123D01*
X998Y3123D02*
X1021Y3123D01*
X1044Y3123D02*
X1067Y3123D01*
X1098Y3123D02*
X1121Y3123D01*
X1144Y3123D02*
X1167Y3123D01*
X1998Y3123D02*
X2021Y3123D01*
X2044Y3123D02*
X2067Y3123D01*
X2098Y3123D02*
X2121Y3123D01*
X2144Y3123D02*
X2167Y3123D01*
X2198Y3123D02*
X2221Y3123D01*
X2244Y3123D02*
X2267Y3123D01*
X898Y3122D02*
X921Y3122D01*
X945Y3122D02*
X967Y3122D01*
X998Y3122D02*
X1021Y3122D01*
X1045Y3122D02*
X1067Y3122D01*
X1098Y3122D02*
X1121Y3122D01*
X1145Y3122D02*
X1167Y3122D01*
X1998Y3122D02*
X2021Y3122D01*
X2045Y3122D02*
X2067Y3122D01*
X2098Y3122D02*
X2121Y3122D01*
X2145Y3122D02*
X2167Y3122D01*
X2198Y3122D02*
X2221Y3122D01*
X2245Y3122D02*
X2267Y3122D01*
X898Y3121D02*
X920Y3121D01*
X946Y3121D02*
X967Y3121D01*
X998Y3121D02*
X1020Y3121D01*
X1046Y3121D02*
X1067Y3121D01*
X1098Y3121D02*
X1120Y3121D01*
X1146Y3121D02*
X1167Y3121D01*
X1998Y3121D02*
X2020Y3121D01*
X2046Y3121D02*
X2067Y3121D01*
X2098Y3121D02*
X2120Y3121D01*
X2146Y3121D02*
X2167Y3121D01*
X2198Y3121D02*
X2220Y3121D01*
X2246Y3121D02*
X2267Y3121D01*
X898Y3120D02*
X919Y3120D01*
X946Y3120D02*
X967Y3120D01*
X998Y3120D02*
X1019Y3120D01*
X1046Y3120D02*
X1067Y3120D01*
X1098Y3120D02*
X1119Y3120D01*
X1146Y3120D02*
X1167Y3120D01*
X1998Y3120D02*
X2019Y3120D01*
X2046Y3120D02*
X2067Y3120D01*
X2098Y3120D02*
X2119Y3120D01*
X2146Y3120D02*
X2167Y3120D01*
X2198Y3120D02*
X2219Y3120D01*
X2246Y3120D02*
X2267Y3120D01*
X898Y3119D02*
X919Y3119D01*
X947Y3119D02*
X967Y3119D01*
X998Y3119D02*
X1019Y3119D01*
X1047Y3119D02*
X1067Y3119D01*
X1098Y3119D02*
X1119Y3119D01*
X1147Y3119D02*
X1167Y3119D01*
X1998Y3119D02*
X2019Y3119D01*
X2047Y3119D02*
X2067Y3119D01*
X2098Y3119D02*
X2119Y3119D01*
X2147Y3119D02*
X2167Y3119D01*
X2198Y3119D02*
X2219Y3119D01*
X2247Y3119D02*
X2267Y3119D01*
X898Y3118D02*
X918Y3118D01*
X947Y3118D02*
X967Y3118D01*
X998Y3118D02*
X1018Y3118D01*
X1047Y3118D02*
X1067Y3118D01*
X1098Y3118D02*
X1118Y3118D01*
X1147Y3118D02*
X1167Y3118D01*
X1998Y3118D02*
X2018Y3118D01*
X2047Y3118D02*
X2067Y3118D01*
X2098Y3118D02*
X2118Y3118D01*
X2147Y3118D02*
X2167Y3118D01*
X2198Y3118D02*
X2218Y3118D01*
X2247Y3118D02*
X2267Y3118D01*
X898Y3117D02*
X918Y3117D01*
X948Y3117D02*
X967Y3117D01*
X998Y3117D02*
X1018Y3117D01*
X1048Y3117D02*
X1067Y3117D01*
X1098Y3117D02*
X1118Y3117D01*
X1148Y3117D02*
X1167Y3117D01*
X1998Y3117D02*
X2018Y3117D01*
X2047Y3117D02*
X2067Y3117D01*
X2098Y3117D02*
X2118Y3117D01*
X2147Y3117D02*
X2167Y3117D01*
X2198Y3117D02*
X2218Y3117D01*
X2247Y3117D02*
X2267Y3117D01*
X898Y3116D02*
X918Y3116D01*
X948Y3116D02*
X967Y3116D01*
X998Y3116D02*
X1018Y3116D01*
X1048Y3116D02*
X1067Y3116D01*
X1098Y3116D02*
X1118Y3116D01*
X1148Y3116D02*
X1167Y3116D01*
X1998Y3116D02*
X2018Y3116D01*
X2048Y3116D02*
X2067Y3116D01*
X2098Y3116D02*
X2118Y3116D01*
X2148Y3116D02*
X2167Y3116D01*
X2198Y3116D02*
X2218Y3116D01*
X2248Y3116D02*
X2267Y3116D01*
X898Y3115D02*
X917Y3115D01*
X948Y3115D02*
X967Y3115D01*
X998Y3115D02*
X1017Y3115D01*
X1048Y3115D02*
X1067Y3115D01*
X1098Y3115D02*
X1117Y3115D01*
X1148Y3115D02*
X1167Y3115D01*
X1998Y3115D02*
X2017Y3115D01*
X2048Y3115D02*
X2067Y3115D01*
X2098Y3115D02*
X2117Y3115D01*
X2148Y3115D02*
X2167Y3115D01*
X2198Y3115D02*
X2217Y3115D01*
X2248Y3115D02*
X2267Y3115D01*
X898Y3114D02*
X917Y3114D01*
X948Y3114D02*
X967Y3114D01*
X998Y3114D02*
X1017Y3114D01*
X1048Y3114D02*
X1067Y3114D01*
X1098Y3114D02*
X1117Y3114D01*
X1148Y3114D02*
X1167Y3114D01*
X1998Y3114D02*
X2017Y3114D01*
X2048Y3114D02*
X2067Y3114D01*
X2098Y3114D02*
X2117Y3114D01*
X2148Y3114D02*
X2167Y3114D01*
X2198Y3114D02*
X2217Y3114D01*
X2248Y3114D02*
X2267Y3114D01*
X898Y3113D02*
X917Y3113D01*
X948Y3113D02*
X967Y3113D01*
X998Y3113D02*
X1017Y3113D01*
X1048Y3113D02*
X1067Y3113D01*
X1098Y3113D02*
X1117Y3113D01*
X1148Y3113D02*
X1167Y3113D01*
X1998Y3113D02*
X2017Y3113D01*
X2048Y3113D02*
X2067Y3113D01*
X2098Y3113D02*
X2117Y3113D01*
X2148Y3113D02*
X2167Y3113D01*
X2198Y3113D02*
X2217Y3113D01*
X2248Y3113D02*
X2267Y3113D01*
X898Y3112D02*
X917Y3112D01*
X948Y3112D02*
X967Y3112D01*
X998Y3112D02*
X1017Y3112D01*
X1048Y3112D02*
X1067Y3112D01*
X1098Y3112D02*
X1117Y3112D01*
X1148Y3112D02*
X1167Y3112D01*
X1998Y3112D02*
X2017Y3112D01*
X2048Y3112D02*
X2067Y3112D01*
X2098Y3112D02*
X2112Y3112D01*
X2148Y3112D02*
X2167Y3112D01*
X2198Y3112D02*
X2217Y3112D01*
X2248Y3112D02*
X2267Y3112D01*
X898Y3111D02*
X917Y3111D01*
X948Y3111D02*
X967Y3111D01*
X998Y3111D02*
X1017Y3111D01*
X1048Y3111D02*
X1067Y3111D01*
X1098Y3111D02*
X1117Y3111D01*
X1148Y3111D02*
X1167Y3111D01*
X1998Y3111D02*
X2017Y3111D01*
X2048Y3111D02*
X2067Y3111D01*
X2098Y3111D02*
X2112Y3111D01*
X2148Y3111D02*
X2167Y3111D01*
X2198Y3111D02*
X2217Y3111D01*
X2248Y3111D02*
X2267Y3111D01*
X898Y3110D02*
X917Y3110D01*
X948Y3110D02*
X967Y3110D01*
X998Y3110D02*
X1017Y3110D01*
X1048Y3110D02*
X1067Y3110D01*
X1098Y3110D02*
X1117Y3110D01*
X1148Y3110D02*
X1167Y3110D01*
X1998Y3110D02*
X2017Y3110D01*
X2048Y3110D02*
X2067Y3110D01*
X2098Y3110D02*
X2112Y3110D01*
X2117Y3110D02*
X2117Y3110D01*
X2148Y3110D02*
X2167Y3110D01*
X2198Y3110D02*
X2217Y3110D01*
X2248Y3110D02*
X2267Y3110D01*
X898Y3109D02*
X918Y3109D01*
X948Y3109D02*
X967Y3109D01*
X998Y3109D02*
X1018Y3109D01*
X1048Y3109D02*
X1067Y3109D01*
X1098Y3109D02*
X1118Y3109D01*
X1148Y3109D02*
X1167Y3109D01*
X1998Y3109D02*
X2018Y3109D01*
X2048Y3109D02*
X2067Y3109D01*
X2098Y3109D02*
X2113Y3109D01*
X2117Y3109D02*
X2118Y3109D01*
X2148Y3109D02*
X2167Y3109D01*
X2198Y3109D02*
X2218Y3109D01*
X2248Y3109D02*
X2267Y3109D01*
X898Y3108D02*
X918Y3108D01*
X947Y3108D02*
X967Y3108D01*
X998Y3108D02*
X1018Y3108D01*
X1047Y3108D02*
X1067Y3108D01*
X1098Y3108D02*
X1118Y3108D01*
X1147Y3108D02*
X1167Y3108D01*
X1998Y3108D02*
X2018Y3108D01*
X2047Y3108D02*
X2067Y3108D01*
X2098Y3108D02*
X2113Y3108D01*
X2115Y3108D02*
X2118Y3108D01*
X2147Y3108D02*
X2167Y3108D01*
X2198Y3108D02*
X2218Y3108D01*
X2247Y3108D02*
X2267Y3108D01*
X898Y3107D02*
X918Y3107D01*
X947Y3107D02*
X967Y3107D01*
X998Y3107D02*
X1018Y3107D01*
X1047Y3107D02*
X1067Y3107D01*
X1098Y3107D02*
X1118Y3107D01*
X1147Y3107D02*
X1167Y3107D01*
X1998Y3107D02*
X2018Y3107D01*
X2047Y3107D02*
X2067Y3107D01*
X2098Y3107D02*
X2118Y3107D01*
X2147Y3107D02*
X2167Y3107D01*
X2198Y3107D02*
X2218Y3107D01*
X2247Y3107D02*
X2267Y3107D01*
X898Y3106D02*
X919Y3106D01*
X947Y3106D02*
X967Y3106D01*
X998Y3106D02*
X1019Y3106D01*
X1047Y3106D02*
X1067Y3106D01*
X1098Y3106D02*
X1119Y3106D01*
X1147Y3106D02*
X1167Y3106D01*
X1998Y3106D02*
X2019Y3106D01*
X2047Y3106D02*
X2067Y3106D01*
X2098Y3106D02*
X2119Y3106D01*
X2147Y3106D02*
X2167Y3106D01*
X2198Y3106D02*
X2219Y3106D01*
X2247Y3106D02*
X2267Y3106D01*
X898Y3105D02*
X919Y3105D01*
X946Y3105D02*
X967Y3105D01*
X998Y3105D02*
X1019Y3105D01*
X1046Y3105D02*
X1067Y3105D01*
X1098Y3105D02*
X1119Y3105D01*
X1146Y3105D02*
X1167Y3105D01*
X1998Y3105D02*
X2019Y3105D01*
X2046Y3105D02*
X2067Y3105D01*
X2098Y3105D02*
X2119Y3105D01*
X2146Y3105D02*
X2167Y3105D01*
X2198Y3105D02*
X2219Y3105D01*
X2246Y3105D02*
X2267Y3105D01*
X898Y3104D02*
X920Y3104D01*
X945Y3104D02*
X967Y3104D01*
X998Y3104D02*
X1020Y3104D01*
X1045Y3104D02*
X1067Y3104D01*
X1098Y3104D02*
X1120Y3104D01*
X1145Y3104D02*
X1167Y3104D01*
X1998Y3104D02*
X2020Y3104D01*
X2045Y3104D02*
X2067Y3104D01*
X2098Y3104D02*
X2120Y3104D01*
X2145Y3104D02*
X2167Y3104D01*
X2198Y3104D02*
X2220Y3104D01*
X2245Y3104D02*
X2267Y3104D01*
X898Y3103D02*
X921Y3103D01*
X945Y3103D02*
X967Y3103D01*
X998Y3103D02*
X1021Y3103D01*
X1045Y3103D02*
X1067Y3103D01*
X1098Y3103D02*
X1121Y3103D01*
X1145Y3103D02*
X1167Y3103D01*
X1998Y3103D02*
X2021Y3103D01*
X2045Y3103D02*
X2067Y3103D01*
X2098Y3103D02*
X2121Y3103D01*
X2145Y3103D02*
X2167Y3103D01*
X2198Y3103D02*
X2221Y3103D01*
X2245Y3103D02*
X2267Y3103D01*
X898Y3102D02*
X922Y3102D01*
X944Y3102D02*
X967Y3102D01*
X998Y3102D02*
X1022Y3102D01*
X1044Y3102D02*
X1067Y3102D01*
X1098Y3102D02*
X1122Y3102D01*
X1144Y3102D02*
X1167Y3102D01*
X1998Y3102D02*
X2022Y3102D01*
X2044Y3102D02*
X2067Y3102D01*
X2098Y3102D02*
X2122Y3102D01*
X2144Y3102D02*
X2167Y3102D01*
X2198Y3102D02*
X2222Y3102D01*
X2244Y3102D02*
X2267Y3102D01*
X898Y3101D02*
X923Y3101D01*
X943Y3101D02*
X967Y3101D01*
X998Y3101D02*
X1023Y3101D01*
X1043Y3101D02*
X1067Y3101D01*
X1098Y3101D02*
X1123Y3101D01*
X1143Y3101D02*
X1167Y3101D01*
X1998Y3101D02*
X2023Y3101D01*
X2043Y3101D02*
X2067Y3101D01*
X2098Y3101D02*
X2123Y3101D01*
X2143Y3101D02*
X2167Y3101D01*
X2198Y3101D02*
X2223Y3101D01*
X2243Y3101D02*
X2267Y3101D01*
X898Y3100D02*
X924Y3100D01*
X941Y3100D02*
X967Y3100D01*
X998Y3100D02*
X1024Y3100D01*
X1041Y3100D02*
X1067Y3100D01*
X1098Y3100D02*
X1124Y3100D01*
X1141Y3100D02*
X1167Y3100D01*
X1998Y3100D02*
X2024Y3100D01*
X2041Y3100D02*
X2067Y3100D01*
X2098Y3100D02*
X2124Y3100D01*
X2141Y3100D02*
X2167Y3100D01*
X2198Y3100D02*
X2224Y3100D01*
X2241Y3100D02*
X2267Y3100D01*
X898Y3099D02*
X926Y3099D01*
X940Y3099D02*
X967Y3099D01*
X998Y3099D02*
X1026Y3099D01*
X1040Y3099D02*
X1067Y3099D01*
X1098Y3099D02*
X1126Y3099D01*
X1140Y3099D02*
X1167Y3099D01*
X1998Y3099D02*
X2026Y3099D01*
X2040Y3099D02*
X2067Y3099D01*
X2098Y3099D02*
X2126Y3099D01*
X2140Y3099D02*
X2167Y3099D01*
X2198Y3099D02*
X2226Y3099D01*
X2240Y3099D02*
X2267Y3099D01*
X898Y3098D02*
X929Y3098D01*
X937Y3098D02*
X967Y3098D01*
X998Y3098D02*
X1029Y3098D01*
X1037Y3098D02*
X1067Y3098D01*
X1098Y3098D02*
X1129Y3098D01*
X1137Y3098D02*
X1167Y3098D01*
X1998Y3098D02*
X2029Y3098D01*
X2037Y3098D02*
X2067Y3098D01*
X2098Y3098D02*
X2128Y3098D01*
X2137Y3098D02*
X2167Y3098D01*
X2198Y3098D02*
X2228Y3098D01*
X2237Y3098D02*
X2267Y3098D01*
X898Y3097D02*
X967Y3097D01*
X998Y3097D02*
X1067Y3097D01*
X1098Y3097D02*
X1167Y3097D01*
X1998Y3097D02*
X2067Y3097D01*
X2098Y3097D02*
X2167Y3097D01*
X2198Y3097D02*
X2267Y3097D01*
X898Y3096D02*
X967Y3096D01*
X998Y3096D02*
X1067Y3096D01*
X1098Y3096D02*
X1167Y3096D01*
X1998Y3096D02*
X2067Y3096D01*
X2098Y3096D02*
X2167Y3096D01*
X2198Y3096D02*
X2267Y3096D01*
X898Y3095D02*
X967Y3095D01*
X998Y3095D02*
X1067Y3095D01*
X1098Y3095D02*
X1167Y3095D01*
X1998Y3095D02*
X2067Y3095D01*
X2098Y3095D02*
X2167Y3095D01*
X2198Y3095D02*
X2267Y3095D01*
X898Y3094D02*
X967Y3094D01*
X998Y3094D02*
X1067Y3094D01*
X1098Y3094D02*
X1167Y3094D01*
X1998Y3094D02*
X2067Y3094D01*
X2098Y3094D02*
X2167Y3094D01*
X2198Y3094D02*
X2267Y3094D01*
X898Y3093D02*
X967Y3093D01*
X998Y3093D02*
X1067Y3093D01*
X1098Y3093D02*
X1167Y3093D01*
X1998Y3093D02*
X2067Y3093D01*
X2098Y3093D02*
X2167Y3093D01*
X2198Y3093D02*
X2267Y3093D01*
X898Y3092D02*
X967Y3092D01*
X998Y3092D02*
X1067Y3092D01*
X1098Y3092D02*
X1167Y3092D01*
X1998Y3092D02*
X2067Y3092D01*
X2098Y3092D02*
X2167Y3092D01*
X2198Y3092D02*
X2267Y3092D01*
X898Y3091D02*
X967Y3091D01*
X998Y3091D02*
X1067Y3091D01*
X1098Y3091D02*
X1167Y3091D01*
X1998Y3091D02*
X2067Y3091D01*
X2098Y3091D02*
X2167Y3091D01*
X2198Y3091D02*
X2267Y3091D01*
X898Y3090D02*
X967Y3090D01*
X998Y3090D02*
X1067Y3090D01*
X1098Y3090D02*
X1167Y3090D01*
X1998Y3090D02*
X2067Y3090D01*
X2098Y3090D02*
X2167Y3090D01*
X2198Y3090D02*
X2267Y3090D01*
X898Y3089D02*
X967Y3089D01*
X998Y3089D02*
X1067Y3089D01*
X1098Y3089D02*
X1167Y3089D01*
X1998Y3089D02*
X2067Y3089D01*
X2098Y3089D02*
X2167Y3089D01*
X2198Y3089D02*
X2267Y3089D01*
X898Y3088D02*
X967Y3088D01*
X998Y3088D02*
X1067Y3088D01*
X1098Y3088D02*
X1167Y3088D01*
X1998Y3088D02*
X2067Y3088D01*
X2098Y3088D02*
X2167Y3088D01*
X2198Y3088D02*
X2267Y3088D01*
X898Y3087D02*
X967Y3087D01*
X998Y3087D02*
X1067Y3087D01*
X1098Y3087D02*
X1167Y3087D01*
X1998Y3087D02*
X2067Y3087D01*
X2098Y3087D02*
X2167Y3087D01*
X2198Y3087D02*
X2267Y3087D01*
X898Y3086D02*
X967Y3086D01*
X998Y3086D02*
X1067Y3086D01*
X1098Y3086D02*
X1167Y3086D01*
X1998Y3086D02*
X2067Y3086D01*
X2098Y3086D02*
X2167Y3086D01*
X2198Y3086D02*
X2267Y3086D01*
X898Y3085D02*
X967Y3085D01*
X998Y3085D02*
X1067Y3085D01*
X1098Y3085D02*
X1167Y3085D01*
X1998Y3085D02*
X2067Y3085D01*
X2098Y3085D02*
X2167Y3085D01*
X2198Y3085D02*
X2267Y3085D01*
X898Y3084D02*
X967Y3084D01*
X998Y3084D02*
X1067Y3084D01*
X1098Y3084D02*
X1167Y3084D01*
X1998Y3084D02*
X2067Y3084D01*
X2098Y3084D02*
X2167Y3084D01*
X2198Y3084D02*
X2267Y3084D01*
X898Y3083D02*
X967Y3083D01*
X998Y3083D02*
X1067Y3083D01*
X1098Y3083D02*
X1167Y3083D01*
X1998Y3083D02*
X2067Y3083D01*
X2098Y3083D02*
X2167Y3083D01*
X2198Y3083D02*
X2267Y3083D01*
X898Y3082D02*
X967Y3082D01*
X998Y3082D02*
X1067Y3082D01*
X1098Y3082D02*
X1167Y3082D01*
X1998Y3082D02*
X2067Y3082D01*
X2098Y3082D02*
X2167Y3082D01*
X2198Y3082D02*
X2267Y3082D01*
X898Y3081D02*
X967Y3081D01*
X998Y3081D02*
X1067Y3081D01*
X1098Y3081D02*
X1167Y3081D01*
X1998Y3081D02*
X2067Y3081D01*
X2098Y3081D02*
X2167Y3081D01*
X2198Y3081D02*
X2267Y3081D01*
X898Y3080D02*
X967Y3080D01*
X998Y3080D02*
X1067Y3080D01*
X1098Y3080D02*
X1167Y3080D01*
X1998Y3080D02*
X2067Y3080D01*
X2098Y3080D02*
X2167Y3080D01*
X2198Y3080D02*
X2267Y3080D01*
X898Y3079D02*
X967Y3079D01*
X998Y3079D02*
X1067Y3079D01*
X1098Y3079D02*
X1167Y3079D01*
X1998Y3079D02*
X2067Y3079D01*
X2098Y3079D02*
X2167Y3079D01*
X2198Y3079D02*
X2267Y3079D01*
X899Y3078D02*
X967Y3078D01*
X999Y3078D02*
X1067Y3078D01*
X1099Y3078D02*
X1167Y3078D01*
X1999Y3078D02*
X2067Y3078D01*
X2099Y3078D02*
X2167Y3078D01*
X2199Y3078D02*
X2267Y3078D01*
X899Y3077D02*
X967Y3077D01*
X999Y3077D02*
X1067Y3077D01*
X1099Y3077D02*
X1167Y3077D01*
X1999Y3077D02*
X2067Y3077D01*
X2099Y3077D02*
X2167Y3077D01*
X2199Y3077D02*
X2267Y3077D01*
X899Y3076D02*
X967Y3076D01*
X999Y3076D02*
X1067Y3076D01*
X1099Y3076D02*
X1166Y3076D01*
X1999Y3076D02*
X2066Y3076D01*
X2099Y3076D02*
X2166Y3076D01*
X2199Y3076D02*
X2266Y3076D01*
X899Y3075D02*
X966Y3075D01*
X999Y3075D02*
X1066Y3075D01*
X1099Y3075D02*
X1166Y3075D01*
X1999Y3075D02*
X2066Y3075D01*
X2099Y3075D02*
X2166Y3075D01*
X2199Y3075D02*
X2266Y3075D01*
X899Y3074D02*
X966Y3074D01*
X999Y3074D02*
X1066Y3074D01*
X1099Y3074D02*
X1166Y3074D01*
X1999Y3074D02*
X2066Y3074D01*
X2099Y3074D02*
X2166Y3074D01*
X2199Y3074D02*
X2266Y3074D01*
X900Y3073D02*
X966Y3073D01*
X1000Y3073D02*
X1066Y3073D01*
X1100Y3073D02*
X1166Y3073D01*
X2000Y3073D02*
X2066Y3073D01*
X2100Y3073D02*
X2166Y3073D01*
X2200Y3073D02*
X2266Y3073D01*
X900Y3072D02*
X965Y3072D01*
X1000Y3072D02*
X1065Y3072D01*
X1100Y3072D02*
X1165Y3072D01*
X2000Y3072D02*
X2065Y3072D01*
X2100Y3072D02*
X2165Y3072D01*
X2200Y3072D02*
X2265Y3072D01*
X900Y3071D02*
X965Y3071D01*
X1000Y3071D02*
X1065Y3071D01*
X1100Y3071D02*
X1165Y3071D01*
X2000Y3071D02*
X2065Y3071D01*
X2100Y3071D02*
X2165Y3071D01*
X2200Y3071D02*
X2265Y3071D01*
X901Y3070D02*
X965Y3070D01*
X1001Y3070D02*
X1065Y3070D01*
X1101Y3070D02*
X1165Y3070D01*
X2001Y3070D02*
X2065Y3070D01*
X2101Y3070D02*
X2165Y3070D01*
X2201Y3070D02*
X2265Y3070D01*
X901Y3069D02*
X964Y3069D01*
X1001Y3069D02*
X1064Y3069D01*
X1101Y3069D02*
X1164Y3069D01*
X2001Y3069D02*
X2064Y3069D01*
X2101Y3069D02*
X2164Y3069D01*
X2201Y3069D02*
X2264Y3069D01*
X902Y3068D02*
X964Y3068D01*
X1001Y3068D02*
X1064Y3068D01*
X1101Y3068D02*
X1164Y3068D01*
X2001Y3068D02*
X2064Y3068D01*
X2101Y3068D02*
X2164Y3068D01*
X2201Y3068D02*
X2264Y3068D01*
X902Y3067D02*
X963Y3067D01*
X1002Y3067D02*
X1063Y3067D01*
X1102Y3067D02*
X1163Y3067D01*
X2002Y3067D02*
X2063Y3067D01*
X2102Y3067D02*
X2163Y3067D01*
X2202Y3067D02*
X2263Y3067D01*
X902Y3066D02*
X963Y3066D01*
X1002Y3066D02*
X1063Y3066D01*
X1102Y3066D02*
X1163Y3066D01*
X2002Y3066D02*
X2063Y3066D01*
X2102Y3066D02*
X2163Y3066D01*
X2202Y3066D02*
X2263Y3066D01*
X903Y3065D02*
X962Y3065D01*
X1003Y3065D02*
X1062Y3065D01*
X1103Y3065D02*
X1162Y3065D01*
X2003Y3065D02*
X2062Y3065D01*
X2103Y3065D02*
X2162Y3065D01*
X2203Y3065D02*
X2262Y3065D01*
X904Y3064D02*
X962Y3064D01*
X1004Y3064D02*
X1062Y3064D01*
X1104Y3064D02*
X1162Y3064D01*
X2004Y3064D02*
X2062Y3064D01*
X2104Y3064D02*
X2162Y3064D01*
X2204Y3064D02*
X2262Y3064D01*
X904Y3063D02*
X961Y3063D01*
X1004Y3063D02*
X1061Y3063D01*
X1104Y3063D02*
X1161Y3063D01*
X2004Y3063D02*
X2061Y3063D01*
X2104Y3063D02*
X2161Y3063D01*
X2204Y3063D02*
X2261Y3063D01*
X905Y3062D02*
X960Y3062D01*
X1005Y3062D02*
X1060Y3062D01*
X1105Y3062D02*
X1160Y3062D01*
X2005Y3062D02*
X2060Y3062D01*
X2105Y3062D02*
X2160Y3062D01*
X2205Y3062D02*
X2260Y3062D01*
X906Y3061D02*
X960Y3061D01*
X1006Y3061D02*
X1060Y3061D01*
X1106Y3061D02*
X1160Y3061D01*
X2006Y3061D02*
X2060Y3061D01*
X2106Y3061D02*
X2160Y3061D01*
X2206Y3061D02*
X2260Y3061D01*
X906Y3060D02*
X959Y3060D01*
X1006Y3060D02*
X1059Y3060D01*
X1106Y3060D02*
X1159Y3060D01*
X2006Y3060D02*
X2059Y3060D01*
X2106Y3060D02*
X2159Y3060D01*
X2206Y3060D02*
X2259Y3060D01*
X907Y3059D02*
X958Y3059D01*
X1007Y3059D02*
X1058Y3059D01*
X1107Y3059D02*
X1158Y3059D01*
X2007Y3059D02*
X2058Y3059D01*
X2107Y3059D02*
X2158Y3059D01*
X2207Y3059D02*
X2258Y3059D01*
X908Y3058D02*
X957Y3058D01*
X1008Y3058D02*
X1057Y3058D01*
X1108Y3058D02*
X1157Y3058D01*
X2008Y3058D02*
X2057Y3058D01*
X2108Y3058D02*
X2157Y3058D01*
X2208Y3058D02*
X2257Y3058D01*
X909Y3057D02*
X956Y3057D01*
X1009Y3057D02*
X1056Y3057D01*
X1109Y3057D02*
X1156Y3057D01*
X2009Y3057D02*
X2056Y3057D01*
X2109Y3057D02*
X2156Y3057D01*
X2209Y3057D02*
X2256Y3057D01*
X910Y3056D02*
X955Y3056D01*
X1010Y3056D02*
X1055Y3056D01*
X1110Y3056D02*
X1155Y3056D01*
X2010Y3056D02*
X2055Y3056D01*
X2110Y3056D02*
X2155Y3056D01*
X2210Y3056D02*
X2255Y3056D01*
X912Y3055D02*
X954Y3055D01*
X1012Y3055D02*
X1054Y3055D01*
X1112Y3055D02*
X1154Y3055D01*
X2012Y3055D02*
X2054Y3055D01*
X2112Y3055D02*
X2154Y3055D01*
X2212Y3055D02*
X2254Y3055D01*
X913Y3054D02*
X952Y3054D01*
X1013Y3054D02*
X1052Y3054D01*
X1113Y3054D02*
X1152Y3054D01*
X2013Y3054D02*
X2052Y3054D01*
X2113Y3054D02*
X2152Y3054D01*
X2213Y3054D02*
X2252Y3054D01*
X915Y3053D02*
X951Y3053D01*
X1015Y3053D02*
X1051Y3053D01*
X1115Y3053D02*
X1151Y3053D01*
X2015Y3053D02*
X2051Y3053D01*
X2115Y3053D02*
X2151Y3053D01*
X2215Y3053D02*
X2251Y3053D01*
X916Y3052D02*
X949Y3052D01*
X1016Y3052D02*
X1049Y3052D01*
X1116Y3052D02*
X1149Y3052D01*
X2016Y3052D02*
X2049Y3052D01*
X2116Y3052D02*
X2149Y3052D01*
X2216Y3052D02*
X2249Y3052D01*
X918Y3051D02*
X947Y3051D01*
X1018Y3051D02*
X1047Y3051D01*
X1118Y3051D02*
X1147Y3051D01*
X2018Y3051D02*
X2047Y3051D01*
X2118Y3051D02*
X2147Y3051D01*
X2218Y3051D02*
X2247Y3051D01*
X921Y3050D02*
X945Y3050D01*
X1021Y3050D02*
X1045Y3050D01*
X1121Y3050D02*
X1145Y3050D01*
X2021Y3050D02*
X2045Y3050D01*
X2121Y3050D02*
X2145Y3050D01*
X2221Y3050D02*
X2245Y3050D01*
X924Y3049D02*
X942Y3049D01*
X1024Y3049D02*
X1042Y3049D01*
X1124Y3049D02*
X1142Y3049D01*
X2024Y3049D02*
X2042Y3049D01*
X2124Y3049D02*
X2142Y3049D01*
X2224Y3049D02*
X2242Y3049D01*
X928Y3048D02*
X937Y3048D01*
X1028Y3048D02*
X1037Y3048D01*
X1128Y3048D02*
X1137Y3048D01*
X2028Y3048D02*
X2037Y3048D01*
X2128Y3048D02*
X2137Y3048D01*
X2228Y3048D02*
X2237Y3048D01*
X2425Y1352D02*
X2440Y1352D01*
X2525Y1352D02*
X2540Y1352D01*
X2625Y1352D02*
X2640Y1352D01*
X2725Y1352D02*
X2740Y1352D01*
X2825Y1352D02*
X2840Y1352D01*
X2925Y1352D02*
X2940Y1352D01*
X3025Y1352D02*
X3040Y1352D01*
X3125Y1352D02*
X3140Y1352D01*
X3225Y1352D02*
X3240Y1352D01*
X3325Y1352D02*
X3340Y1352D01*
X3425Y1352D02*
X3440Y1352D01*
X3525Y1352D02*
X3540Y1352D01*
X3625Y1352D02*
X3640Y1352D01*
X3725Y1352D02*
X3740Y1352D01*
X2421Y1351D02*
X2444Y1351D01*
X2521Y1351D02*
X2544Y1351D01*
X2621Y1351D02*
X2644Y1351D01*
X2721Y1351D02*
X2744Y1351D01*
X2821Y1351D02*
X2844Y1351D01*
X2921Y1351D02*
X2944Y1351D01*
X3021Y1351D02*
X3044Y1351D01*
X3121Y1351D02*
X3144Y1351D01*
X3221Y1351D02*
X3244Y1351D01*
X3321Y1351D02*
X3344Y1351D01*
X3421Y1351D02*
X3444Y1351D01*
X3521Y1351D02*
X3544Y1351D01*
X3621Y1351D02*
X3644Y1351D01*
X3721Y1351D02*
X3744Y1351D01*
X2418Y1350D02*
X2447Y1350D01*
X2518Y1350D02*
X2547Y1350D01*
X2618Y1350D02*
X2647Y1350D01*
X2718Y1350D02*
X2747Y1350D01*
X2818Y1350D02*
X2847Y1350D01*
X2918Y1350D02*
X2947Y1350D01*
X3018Y1350D02*
X3047Y1350D01*
X3118Y1350D02*
X3147Y1350D01*
X3218Y1350D02*
X3247Y1350D01*
X3318Y1350D02*
X3347Y1350D01*
X3418Y1350D02*
X3447Y1350D01*
X3518Y1350D02*
X3547Y1350D01*
X3618Y1350D02*
X3647Y1350D01*
X3718Y1350D02*
X3747Y1350D01*
X2416Y1349D02*
X2449Y1349D01*
X2516Y1349D02*
X2549Y1349D01*
X2616Y1349D02*
X2649Y1349D01*
X2716Y1349D02*
X2749Y1349D01*
X2816Y1349D02*
X2849Y1349D01*
X2916Y1349D02*
X2949Y1349D01*
X3016Y1349D02*
X3049Y1349D01*
X3116Y1349D02*
X3149Y1349D01*
X3216Y1349D02*
X3249Y1349D01*
X3316Y1349D02*
X3349Y1349D01*
X3416Y1349D02*
X3449Y1349D01*
X3516Y1349D02*
X3549Y1349D01*
X3616Y1349D02*
X3649Y1349D01*
X3716Y1349D02*
X3749Y1349D01*
X2414Y1348D02*
X2451Y1348D01*
X2514Y1348D02*
X2551Y1348D01*
X2614Y1348D02*
X2651Y1348D01*
X2714Y1348D02*
X2751Y1348D01*
X2814Y1348D02*
X2851Y1348D01*
X2914Y1348D02*
X2951Y1348D01*
X3014Y1348D02*
X3051Y1348D01*
X3114Y1348D02*
X3151Y1348D01*
X3214Y1348D02*
X3251Y1348D01*
X3314Y1348D02*
X3351Y1348D01*
X3414Y1348D02*
X3451Y1348D01*
X3514Y1348D02*
X3551Y1348D01*
X3614Y1348D02*
X3651Y1348D01*
X3714Y1348D02*
X3751Y1348D01*
X2412Y1347D02*
X2453Y1347D01*
X2512Y1347D02*
X2553Y1347D01*
X2612Y1347D02*
X2653Y1347D01*
X2712Y1347D02*
X2753Y1347D01*
X2812Y1347D02*
X2853Y1347D01*
X2912Y1347D02*
X2953Y1347D01*
X3012Y1347D02*
X3053Y1347D01*
X3112Y1347D02*
X3153Y1347D01*
X3212Y1347D02*
X3253Y1347D01*
X3312Y1347D02*
X3353Y1347D01*
X3412Y1347D02*
X3453Y1347D01*
X3512Y1347D02*
X3553Y1347D01*
X3612Y1347D02*
X3653Y1347D01*
X3712Y1347D02*
X3753Y1347D01*
X2411Y1346D02*
X2454Y1346D01*
X2511Y1346D02*
X2554Y1346D01*
X2611Y1346D02*
X2654Y1346D01*
X2711Y1346D02*
X2754Y1346D01*
X2811Y1346D02*
X2854Y1346D01*
X2911Y1346D02*
X2954Y1346D01*
X3011Y1346D02*
X3054Y1346D01*
X3111Y1346D02*
X3154Y1346D01*
X3211Y1346D02*
X3254Y1346D01*
X3311Y1346D02*
X3354Y1346D01*
X3411Y1346D02*
X3454Y1346D01*
X3511Y1346D02*
X3554Y1346D01*
X3611Y1346D02*
X3654Y1346D01*
X3711Y1346D02*
X3754Y1346D01*
X2409Y1345D02*
X2456Y1345D01*
X2509Y1345D02*
X2556Y1345D01*
X2609Y1345D02*
X2656Y1345D01*
X2709Y1345D02*
X2756Y1345D01*
X2809Y1345D02*
X2856Y1345D01*
X2909Y1345D02*
X2956Y1345D01*
X3009Y1345D02*
X3056Y1345D01*
X3109Y1345D02*
X3156Y1345D01*
X3209Y1345D02*
X3256Y1345D01*
X3309Y1345D02*
X3356Y1345D01*
X3409Y1345D02*
X3456Y1345D01*
X3509Y1345D02*
X3556Y1345D01*
X3609Y1345D02*
X3656Y1345D01*
X3709Y1345D02*
X3756Y1345D01*
X2408Y1344D02*
X2457Y1344D01*
X2508Y1344D02*
X2557Y1344D01*
X2608Y1344D02*
X2657Y1344D01*
X2708Y1344D02*
X2757Y1344D01*
X2808Y1344D02*
X2857Y1344D01*
X2908Y1344D02*
X2957Y1344D01*
X3008Y1344D02*
X3057Y1344D01*
X3108Y1344D02*
X3157Y1344D01*
X3208Y1344D02*
X3257Y1344D01*
X3308Y1344D02*
X3357Y1344D01*
X3408Y1344D02*
X3457Y1344D01*
X3508Y1344D02*
X3557Y1344D01*
X3608Y1344D02*
X3657Y1344D01*
X3708Y1344D02*
X3757Y1344D01*
X2407Y1343D02*
X2458Y1343D01*
X2507Y1343D02*
X2558Y1343D01*
X2607Y1343D02*
X2658Y1343D01*
X2707Y1343D02*
X2758Y1343D01*
X2807Y1343D02*
X2858Y1343D01*
X2907Y1343D02*
X2958Y1343D01*
X3007Y1343D02*
X3058Y1343D01*
X3107Y1343D02*
X3158Y1343D01*
X3207Y1343D02*
X3258Y1343D01*
X3307Y1343D02*
X3358Y1343D01*
X3407Y1343D02*
X3458Y1343D01*
X3507Y1343D02*
X3558Y1343D01*
X3607Y1343D02*
X3658Y1343D01*
X3707Y1343D02*
X3758Y1343D01*
X2406Y1342D02*
X2459Y1342D01*
X2506Y1342D02*
X2559Y1342D01*
X2606Y1342D02*
X2659Y1342D01*
X2706Y1342D02*
X2759Y1342D01*
X2806Y1342D02*
X2859Y1342D01*
X2906Y1342D02*
X2959Y1342D01*
X3006Y1342D02*
X3059Y1342D01*
X3106Y1342D02*
X3159Y1342D01*
X3206Y1342D02*
X3259Y1342D01*
X3306Y1342D02*
X3359Y1342D01*
X3406Y1342D02*
X3459Y1342D01*
X3506Y1342D02*
X3559Y1342D01*
X3606Y1342D02*
X3659Y1342D01*
X3706Y1342D02*
X3759Y1342D01*
X2405Y1341D02*
X2461Y1341D01*
X2505Y1341D02*
X2561Y1341D01*
X2605Y1341D02*
X2661Y1341D01*
X2705Y1341D02*
X2761Y1341D01*
X2805Y1341D02*
X2861Y1341D01*
X2905Y1341D02*
X2961Y1341D01*
X3005Y1341D02*
X3061Y1341D01*
X3105Y1341D02*
X3160Y1341D01*
X3205Y1341D02*
X3260Y1341D01*
X3305Y1341D02*
X3360Y1341D01*
X3405Y1341D02*
X3460Y1341D01*
X3505Y1341D02*
X3560Y1341D01*
X3605Y1341D02*
X3660Y1341D01*
X3705Y1341D02*
X3760Y1341D01*
X2404Y1340D02*
X2461Y1340D01*
X2504Y1340D02*
X2561Y1340D01*
X2604Y1340D02*
X2661Y1340D01*
X2704Y1340D02*
X2761Y1340D01*
X2804Y1340D02*
X2861Y1340D01*
X2904Y1340D02*
X2961Y1340D01*
X3004Y1340D02*
X3061Y1340D01*
X3104Y1340D02*
X3161Y1340D01*
X3204Y1340D02*
X3261Y1340D01*
X3304Y1340D02*
X3361Y1340D01*
X3404Y1340D02*
X3461Y1340D01*
X3504Y1340D02*
X3561Y1340D01*
X3604Y1340D02*
X3661Y1340D01*
X3704Y1340D02*
X3761Y1340D01*
X2403Y1339D02*
X2462Y1339D01*
X2503Y1339D02*
X2562Y1339D01*
X2603Y1339D02*
X2662Y1339D01*
X2703Y1339D02*
X2762Y1339D01*
X2803Y1339D02*
X2862Y1339D01*
X2903Y1339D02*
X2962Y1339D01*
X3003Y1339D02*
X3062Y1339D01*
X3103Y1339D02*
X3162Y1339D01*
X3203Y1339D02*
X3262Y1339D01*
X3303Y1339D02*
X3362Y1339D01*
X3403Y1339D02*
X3462Y1339D01*
X3503Y1339D02*
X3562Y1339D01*
X3603Y1339D02*
X3662Y1339D01*
X3703Y1339D02*
X3762Y1339D01*
X2402Y1338D02*
X2463Y1338D01*
X2502Y1338D02*
X2563Y1338D01*
X2602Y1338D02*
X2663Y1338D01*
X2702Y1338D02*
X2763Y1338D01*
X2802Y1338D02*
X2863Y1338D01*
X2902Y1338D02*
X2963Y1338D01*
X3002Y1338D02*
X3063Y1338D01*
X3102Y1338D02*
X3163Y1338D01*
X3202Y1338D02*
X3263Y1338D01*
X3302Y1338D02*
X3363Y1338D01*
X3402Y1338D02*
X3463Y1338D01*
X3502Y1338D02*
X3563Y1338D01*
X3602Y1338D02*
X3663Y1338D01*
X3702Y1338D02*
X3763Y1338D01*
X2401Y1337D02*
X2464Y1337D01*
X2501Y1337D02*
X2564Y1337D01*
X2601Y1337D02*
X2664Y1337D01*
X2701Y1337D02*
X2764Y1337D01*
X2801Y1337D02*
X2864Y1337D01*
X2901Y1337D02*
X2964Y1337D01*
X3001Y1337D02*
X3064Y1337D01*
X3101Y1337D02*
X3164Y1337D01*
X3201Y1337D02*
X3264Y1337D01*
X3301Y1337D02*
X3364Y1337D01*
X3401Y1337D02*
X3464Y1337D01*
X3501Y1337D02*
X3564Y1337D01*
X3601Y1337D02*
X3664Y1337D01*
X3701Y1337D02*
X3764Y1337D01*
X2401Y1336D02*
X2465Y1336D01*
X2501Y1336D02*
X2565Y1336D01*
X2601Y1336D02*
X2665Y1336D01*
X2701Y1336D02*
X2765Y1336D01*
X2801Y1336D02*
X2865Y1336D01*
X2901Y1336D02*
X2965Y1336D01*
X3001Y1336D02*
X3065Y1336D01*
X3101Y1336D02*
X3165Y1336D01*
X3201Y1336D02*
X3265Y1336D01*
X3301Y1336D02*
X3365Y1336D01*
X3401Y1336D02*
X3465Y1336D01*
X3501Y1336D02*
X3565Y1336D01*
X3601Y1336D02*
X3665Y1336D01*
X3701Y1336D02*
X3765Y1336D01*
X2400Y1335D02*
X2465Y1335D01*
X2500Y1335D02*
X2565Y1335D01*
X2600Y1335D02*
X2665Y1335D01*
X2700Y1335D02*
X2765Y1335D01*
X2800Y1335D02*
X2865Y1335D01*
X2900Y1335D02*
X2965Y1335D01*
X3000Y1335D02*
X3065Y1335D01*
X3100Y1335D02*
X3165Y1335D01*
X3200Y1335D02*
X3265Y1335D01*
X3300Y1335D02*
X3365Y1335D01*
X3400Y1335D02*
X3465Y1335D01*
X3500Y1335D02*
X3565Y1335D01*
X3600Y1335D02*
X3665Y1335D01*
X3700Y1335D02*
X3765Y1335D01*
X2399Y1334D02*
X2466Y1334D01*
X2499Y1334D02*
X2566Y1334D01*
X2599Y1334D02*
X2666Y1334D01*
X2699Y1334D02*
X2766Y1334D01*
X2799Y1334D02*
X2866Y1334D01*
X2899Y1334D02*
X2966Y1334D01*
X2999Y1334D02*
X3066Y1334D01*
X3099Y1334D02*
X3166Y1334D01*
X3199Y1334D02*
X3266Y1334D01*
X3299Y1334D02*
X3366Y1334D01*
X3399Y1334D02*
X3466Y1334D01*
X3499Y1334D02*
X3566Y1334D01*
X3599Y1334D02*
X3666Y1334D01*
X3699Y1334D02*
X3766Y1334D01*
X2399Y1333D02*
X2467Y1333D01*
X2499Y1333D02*
X2567Y1333D01*
X2599Y1333D02*
X2667Y1333D01*
X2699Y1333D02*
X2767Y1333D01*
X2799Y1333D02*
X2867Y1333D01*
X2899Y1333D02*
X2967Y1333D01*
X2999Y1333D02*
X3067Y1333D01*
X3099Y1333D02*
X3167Y1333D01*
X3199Y1333D02*
X3267Y1333D01*
X3299Y1333D02*
X3367Y1333D01*
X3399Y1333D02*
X3467Y1333D01*
X3499Y1333D02*
X3567Y1333D01*
X3599Y1333D02*
X3667Y1333D01*
X3699Y1333D02*
X3767Y1333D01*
X2398Y1332D02*
X2467Y1332D01*
X2498Y1332D02*
X2567Y1332D01*
X2598Y1332D02*
X2667Y1332D01*
X2698Y1332D02*
X2767Y1332D01*
X2798Y1332D02*
X2867Y1332D01*
X2898Y1332D02*
X2967Y1332D01*
X2998Y1332D02*
X3067Y1332D01*
X3098Y1332D02*
X3167Y1332D01*
X3198Y1332D02*
X3267Y1332D01*
X3298Y1332D02*
X3367Y1332D01*
X3398Y1332D02*
X3467Y1332D01*
X3498Y1332D02*
X3567Y1332D01*
X3598Y1332D02*
X3667Y1332D01*
X3698Y1332D02*
X3767Y1332D01*
X2398Y1331D02*
X2468Y1331D01*
X2498Y1331D02*
X2568Y1331D01*
X2598Y1331D02*
X2668Y1331D01*
X2698Y1331D02*
X2768Y1331D01*
X2798Y1331D02*
X2868Y1331D01*
X2898Y1331D02*
X2968Y1331D01*
X2998Y1331D02*
X3068Y1331D01*
X3098Y1331D02*
X3168Y1331D01*
X3198Y1331D02*
X3268Y1331D01*
X3298Y1331D02*
X3368Y1331D01*
X3397Y1331D02*
X3468Y1331D01*
X3497Y1331D02*
X3568Y1331D01*
X3597Y1331D02*
X3668Y1331D01*
X3697Y1331D02*
X3768Y1331D01*
X2397Y1330D02*
X2468Y1330D01*
X2497Y1330D02*
X2568Y1330D01*
X2597Y1330D02*
X2668Y1330D01*
X2697Y1330D02*
X2768Y1330D01*
X2797Y1330D02*
X2868Y1330D01*
X2897Y1330D02*
X2968Y1330D01*
X2997Y1330D02*
X3068Y1330D01*
X3097Y1330D02*
X3168Y1330D01*
X3197Y1330D02*
X3268Y1330D01*
X3297Y1330D02*
X3368Y1330D01*
X3397Y1330D02*
X3468Y1330D01*
X3497Y1330D02*
X3568Y1330D01*
X3597Y1330D02*
X3668Y1330D01*
X3697Y1330D02*
X3768Y1330D01*
X2397Y1329D02*
X2469Y1329D01*
X2497Y1329D02*
X2569Y1329D01*
X2597Y1329D02*
X2669Y1329D01*
X2697Y1329D02*
X2769Y1329D01*
X2797Y1329D02*
X2869Y1329D01*
X2897Y1329D02*
X2969Y1329D01*
X2997Y1329D02*
X3069Y1329D01*
X3097Y1329D02*
X3169Y1329D01*
X3197Y1329D02*
X3269Y1329D01*
X3297Y1329D02*
X3369Y1329D01*
X3397Y1329D02*
X3469Y1329D01*
X3497Y1329D02*
X3569Y1329D01*
X3597Y1329D02*
X3669Y1329D01*
X3696Y1329D02*
X3769Y1329D01*
X2396Y1328D02*
X2469Y1328D01*
X2496Y1328D02*
X2569Y1328D01*
X2596Y1328D02*
X2669Y1328D01*
X2696Y1328D02*
X2769Y1328D01*
X2796Y1328D02*
X2869Y1328D01*
X2896Y1328D02*
X2969Y1328D01*
X2996Y1328D02*
X3069Y1328D01*
X3096Y1328D02*
X3169Y1328D01*
X3196Y1328D02*
X3269Y1328D01*
X3296Y1328D02*
X3369Y1328D01*
X3396Y1328D02*
X3469Y1328D01*
X3496Y1328D02*
X3569Y1328D01*
X3596Y1328D02*
X3669Y1328D01*
X3696Y1328D02*
X3769Y1328D01*
X2396Y1327D02*
X2469Y1327D01*
X2496Y1327D02*
X2569Y1327D01*
X2596Y1327D02*
X2669Y1327D01*
X2696Y1327D02*
X2769Y1327D01*
X2796Y1327D02*
X2869Y1327D01*
X2896Y1327D02*
X2969Y1327D01*
X2996Y1327D02*
X3069Y1327D01*
X3096Y1327D02*
X3169Y1327D01*
X3196Y1327D02*
X3269Y1327D01*
X3296Y1327D02*
X3369Y1327D01*
X3396Y1327D02*
X3469Y1327D01*
X3496Y1327D02*
X3569Y1327D01*
X3596Y1327D02*
X3669Y1327D01*
X3696Y1327D02*
X3769Y1327D01*
X2395Y1326D02*
X2470Y1326D01*
X2495Y1326D02*
X2570Y1326D01*
X2595Y1326D02*
X2670Y1326D01*
X2695Y1326D02*
X2770Y1326D01*
X2795Y1326D02*
X2870Y1326D01*
X2895Y1326D02*
X2970Y1326D01*
X2995Y1326D02*
X3070Y1326D01*
X3095Y1326D02*
X3170Y1326D01*
X3195Y1326D02*
X3270Y1326D01*
X3295Y1326D02*
X3370Y1326D01*
X3395Y1326D02*
X3470Y1326D01*
X3495Y1326D02*
X3570Y1326D01*
X3595Y1326D02*
X3670Y1326D01*
X3695Y1326D02*
X3770Y1326D01*
X2395Y1325D02*
X2470Y1325D01*
X2495Y1325D02*
X2570Y1325D01*
X2595Y1325D02*
X2670Y1325D01*
X2695Y1325D02*
X2770Y1325D01*
X2795Y1325D02*
X2870Y1325D01*
X2895Y1325D02*
X2970Y1325D01*
X2995Y1325D02*
X3070Y1325D01*
X3095Y1325D02*
X3170Y1325D01*
X3195Y1325D02*
X3270Y1325D01*
X3295Y1325D02*
X3370Y1325D01*
X3395Y1325D02*
X3470Y1325D01*
X3495Y1325D02*
X3570Y1325D01*
X3595Y1325D02*
X3670Y1325D01*
X3695Y1325D02*
X3770Y1325D01*
X2395Y1324D02*
X2470Y1324D01*
X2495Y1324D02*
X2570Y1324D01*
X2595Y1324D02*
X2670Y1324D01*
X2695Y1324D02*
X2770Y1324D01*
X2795Y1324D02*
X2870Y1324D01*
X2895Y1324D02*
X2970Y1324D01*
X2995Y1324D02*
X3070Y1324D01*
X3095Y1324D02*
X3170Y1324D01*
X3195Y1324D02*
X3270Y1324D01*
X3295Y1324D02*
X3370Y1324D01*
X3395Y1324D02*
X3470Y1324D01*
X3495Y1324D02*
X3570Y1324D01*
X3595Y1324D02*
X3670Y1324D01*
X3695Y1324D02*
X3770Y1324D01*
X2395Y1323D02*
X2471Y1323D01*
X2495Y1323D02*
X2571Y1323D01*
X2595Y1323D02*
X2671Y1323D01*
X2695Y1323D02*
X2771Y1323D01*
X2795Y1323D02*
X2871Y1323D01*
X2895Y1323D02*
X2971Y1323D01*
X2995Y1323D02*
X3071Y1323D01*
X3095Y1323D02*
X3171Y1323D01*
X3195Y1323D02*
X3271Y1323D01*
X3295Y1323D02*
X3371Y1323D01*
X3395Y1323D02*
X3471Y1323D01*
X3494Y1323D02*
X3571Y1323D01*
X3594Y1323D02*
X3671Y1323D01*
X3694Y1323D02*
X3771Y1323D01*
X2394Y1322D02*
X2471Y1322D01*
X2494Y1322D02*
X2571Y1322D01*
X2594Y1322D02*
X2671Y1322D01*
X2694Y1322D02*
X2771Y1322D01*
X2794Y1322D02*
X2871Y1322D01*
X2894Y1322D02*
X2971Y1322D01*
X2994Y1322D02*
X3071Y1322D01*
X3094Y1322D02*
X3171Y1322D01*
X3194Y1322D02*
X3271Y1322D01*
X3294Y1322D02*
X3371Y1322D01*
X3394Y1322D02*
X3471Y1322D01*
X3494Y1322D02*
X3571Y1322D01*
X3594Y1322D02*
X3671Y1322D01*
X3694Y1322D02*
X3771Y1322D01*
X2394Y1321D02*
X2471Y1321D01*
X2494Y1321D02*
X2571Y1321D01*
X2594Y1321D02*
X2671Y1321D01*
X2694Y1321D02*
X2771Y1321D01*
X2794Y1321D02*
X2871Y1321D01*
X2894Y1321D02*
X2971Y1321D01*
X2994Y1321D02*
X3071Y1321D01*
X3094Y1321D02*
X3171Y1321D01*
X3194Y1321D02*
X3271Y1321D01*
X3294Y1321D02*
X3371Y1321D01*
X3394Y1321D02*
X3471Y1321D01*
X3494Y1321D02*
X3571Y1321D01*
X3594Y1321D02*
X3671Y1321D01*
X3694Y1321D02*
X3771Y1321D01*
X2394Y1320D02*
X2471Y1320D01*
X2494Y1320D02*
X2571Y1320D01*
X2594Y1320D02*
X2671Y1320D01*
X2694Y1320D02*
X2771Y1320D01*
X2794Y1320D02*
X2871Y1320D01*
X2894Y1320D02*
X2971Y1320D01*
X2994Y1320D02*
X3071Y1320D01*
X3094Y1320D02*
X3171Y1320D01*
X3194Y1320D02*
X3271Y1320D01*
X3294Y1320D02*
X3371Y1320D01*
X3394Y1320D02*
X3471Y1320D01*
X3494Y1320D02*
X3571Y1320D01*
X3594Y1320D02*
X3671Y1320D01*
X3694Y1320D02*
X3771Y1320D01*
X2394Y1319D02*
X2472Y1319D01*
X2494Y1319D02*
X2572Y1319D01*
X2594Y1319D02*
X2672Y1319D01*
X2694Y1319D02*
X2772Y1319D01*
X2794Y1319D02*
X2872Y1319D01*
X2894Y1319D02*
X2972Y1319D01*
X2994Y1319D02*
X3072Y1319D01*
X3094Y1319D02*
X3172Y1319D01*
X3194Y1319D02*
X3272Y1319D01*
X3294Y1319D02*
X3372Y1319D01*
X3394Y1319D02*
X3471Y1319D01*
X3494Y1319D02*
X3571Y1319D01*
X3594Y1319D02*
X3671Y1319D01*
X3694Y1319D02*
X3771Y1319D01*
X2394Y1318D02*
X2472Y1318D01*
X2494Y1318D02*
X2572Y1318D01*
X2594Y1318D02*
X2672Y1318D01*
X2694Y1318D02*
X2772Y1318D01*
X2794Y1318D02*
X2872Y1318D01*
X2894Y1318D02*
X2972Y1318D01*
X2994Y1318D02*
X3072Y1318D01*
X3094Y1318D02*
X3172Y1318D01*
X3194Y1318D02*
X3272Y1318D01*
X3294Y1318D02*
X3372Y1318D01*
X3394Y1318D02*
X3472Y1318D01*
X3494Y1318D02*
X3572Y1318D01*
X3593Y1318D02*
X3672Y1318D01*
X3693Y1318D02*
X3772Y1318D01*
X2393Y1317D02*
X2472Y1317D01*
X2493Y1317D02*
X2572Y1317D01*
X2593Y1317D02*
X2672Y1317D01*
X2693Y1317D02*
X2772Y1317D01*
X2793Y1317D02*
X2872Y1317D01*
X2893Y1317D02*
X2972Y1317D01*
X2993Y1317D02*
X3072Y1317D01*
X3093Y1317D02*
X3172Y1317D01*
X3193Y1317D02*
X3272Y1317D01*
X3293Y1317D02*
X3372Y1317D01*
X3393Y1317D02*
X3472Y1317D01*
X3493Y1317D02*
X3572Y1317D01*
X3593Y1317D02*
X3672Y1317D01*
X3693Y1317D02*
X3772Y1317D01*
X2393Y1316D02*
X2472Y1316D01*
X2493Y1316D02*
X2572Y1316D01*
X2593Y1316D02*
X2672Y1316D01*
X2693Y1316D02*
X2772Y1316D01*
X2793Y1316D02*
X2872Y1316D01*
X2893Y1316D02*
X2972Y1316D01*
X2993Y1316D02*
X3072Y1316D01*
X3093Y1316D02*
X3172Y1316D01*
X3193Y1316D02*
X3272Y1316D01*
X3293Y1316D02*
X3372Y1316D01*
X3393Y1316D02*
X3472Y1316D01*
X3493Y1316D02*
X3572Y1316D01*
X3593Y1316D02*
X3672Y1316D01*
X3693Y1316D02*
X3772Y1316D01*
X2393Y1315D02*
X2472Y1315D01*
X2493Y1315D02*
X2572Y1315D01*
X2593Y1315D02*
X2672Y1315D01*
X2693Y1315D02*
X2772Y1315D01*
X2793Y1315D02*
X2872Y1315D01*
X2893Y1315D02*
X2972Y1315D01*
X2993Y1315D02*
X3072Y1315D01*
X3093Y1315D02*
X3172Y1315D01*
X3193Y1315D02*
X3272Y1315D01*
X3293Y1315D02*
X3372Y1315D01*
X3393Y1315D02*
X3472Y1315D01*
X3493Y1315D02*
X3572Y1315D01*
X3593Y1315D02*
X3672Y1315D01*
X3693Y1315D02*
X3772Y1315D01*
X2393Y1314D02*
X2472Y1314D01*
X2493Y1314D02*
X2572Y1314D01*
X2593Y1314D02*
X2672Y1314D01*
X2693Y1314D02*
X2772Y1314D01*
X2793Y1314D02*
X2872Y1314D01*
X2893Y1314D02*
X2972Y1314D01*
X2993Y1314D02*
X3072Y1314D01*
X3093Y1314D02*
X3172Y1314D01*
X3193Y1314D02*
X3272Y1314D01*
X3293Y1314D02*
X3372Y1314D01*
X3393Y1314D02*
X3472Y1314D01*
X3493Y1314D02*
X3572Y1314D01*
X3593Y1314D02*
X3672Y1314D01*
X3693Y1314D02*
X3772Y1314D01*
X2393Y1313D02*
X2472Y1313D01*
X2493Y1313D02*
X2572Y1313D01*
X2593Y1313D02*
X2672Y1313D01*
X2693Y1313D02*
X2772Y1313D01*
X2793Y1313D02*
X2872Y1313D01*
X2893Y1313D02*
X2972Y1313D01*
X2993Y1313D02*
X3072Y1313D01*
X3093Y1313D02*
X3172Y1313D01*
X3193Y1313D02*
X3272Y1313D01*
X3293Y1313D02*
X3372Y1313D01*
X3393Y1313D02*
X3472Y1313D01*
X3493Y1313D02*
X3572Y1313D01*
X3593Y1313D02*
X3672Y1313D01*
X3693Y1313D02*
X3772Y1313D01*
X2393Y1312D02*
X2472Y1312D01*
X2493Y1312D02*
X2572Y1312D01*
X2593Y1312D02*
X2672Y1312D01*
X2693Y1312D02*
X2772Y1312D01*
X2793Y1312D02*
X2872Y1312D01*
X2893Y1312D02*
X2972Y1312D01*
X2993Y1312D02*
X3072Y1312D01*
X3093Y1312D02*
X3172Y1312D01*
X3193Y1312D02*
X3272Y1312D01*
X3293Y1312D02*
X3372Y1312D01*
X3393Y1312D02*
X3472Y1312D01*
X3493Y1312D02*
X3572Y1312D01*
X3593Y1312D02*
X3672Y1312D01*
X3693Y1312D02*
X3772Y1312D01*
X2393Y1311D02*
X2472Y1311D01*
X2493Y1311D02*
X2572Y1311D01*
X2593Y1311D02*
X2672Y1311D01*
X2693Y1311D02*
X2772Y1311D01*
X2793Y1311D02*
X2872Y1311D01*
X2893Y1311D02*
X2972Y1311D01*
X2993Y1311D02*
X3072Y1311D01*
X3093Y1311D02*
X3172Y1311D01*
X3193Y1311D02*
X3272Y1311D01*
X3293Y1311D02*
X3372Y1311D01*
X3393Y1311D02*
X3472Y1311D01*
X3493Y1311D02*
X3572Y1311D01*
X3593Y1311D02*
X3672Y1311D01*
X3693Y1311D02*
X3772Y1311D01*
X2393Y1310D02*
X2472Y1310D01*
X2493Y1310D02*
X2572Y1310D01*
X2593Y1310D02*
X2672Y1310D01*
X2693Y1310D02*
X2772Y1310D01*
X2793Y1310D02*
X2872Y1310D01*
X2893Y1310D02*
X2972Y1310D01*
X2993Y1310D02*
X3072Y1310D01*
X3093Y1310D02*
X3172Y1310D01*
X3193Y1310D02*
X3272Y1310D01*
X3293Y1310D02*
X3372Y1310D01*
X3393Y1310D02*
X3472Y1310D01*
X3493Y1310D02*
X3572Y1310D01*
X3593Y1310D02*
X3672Y1310D01*
X3693Y1310D02*
X3772Y1310D01*
X2393Y1309D02*
X2472Y1309D01*
X2493Y1309D02*
X2572Y1309D01*
X2593Y1309D02*
X2672Y1309D01*
X2693Y1309D02*
X2772Y1309D01*
X2793Y1309D02*
X2872Y1309D01*
X2893Y1309D02*
X2972Y1309D01*
X2993Y1309D02*
X3072Y1309D01*
X3093Y1309D02*
X3172Y1309D01*
X3193Y1309D02*
X3272Y1309D01*
X3293Y1309D02*
X3372Y1309D01*
X3393Y1309D02*
X3472Y1309D01*
X3493Y1309D02*
X3572Y1309D01*
X3593Y1309D02*
X3672Y1309D01*
X3693Y1309D02*
X3772Y1309D01*
X2393Y1308D02*
X2472Y1308D01*
X2493Y1308D02*
X2572Y1308D01*
X2593Y1308D02*
X2672Y1308D01*
X2693Y1308D02*
X2772Y1308D01*
X2793Y1308D02*
X2872Y1308D01*
X2893Y1308D02*
X2972Y1308D01*
X2993Y1308D02*
X3072Y1308D01*
X3093Y1308D02*
X3172Y1308D01*
X3193Y1308D02*
X3272Y1308D01*
X3293Y1308D02*
X3372Y1308D01*
X3393Y1308D02*
X3472Y1308D01*
X3493Y1308D02*
X3572Y1308D01*
X3593Y1308D02*
X3672Y1308D01*
X3693Y1308D02*
X3772Y1308D01*
X2394Y1307D02*
X2472Y1307D01*
X2494Y1307D02*
X2572Y1307D01*
X2594Y1307D02*
X2672Y1307D01*
X2694Y1307D02*
X2772Y1307D01*
X2794Y1307D02*
X2872Y1307D01*
X2894Y1307D02*
X2972Y1307D01*
X2994Y1307D02*
X3072Y1307D01*
X3094Y1307D02*
X3172Y1307D01*
X3194Y1307D02*
X3272Y1307D01*
X3294Y1307D02*
X3372Y1307D01*
X3394Y1307D02*
X3472Y1307D01*
X3494Y1307D02*
X3572Y1307D01*
X3594Y1307D02*
X3672Y1307D01*
X3694Y1307D02*
X3772Y1307D01*
X2394Y1306D02*
X2471Y1306D01*
X2494Y1306D02*
X2571Y1306D01*
X2594Y1306D02*
X2671Y1306D01*
X2694Y1306D02*
X2771Y1306D01*
X2794Y1306D02*
X2871Y1306D01*
X2894Y1306D02*
X2971Y1306D01*
X2994Y1306D02*
X3071Y1306D01*
X3094Y1306D02*
X3171Y1306D01*
X3194Y1306D02*
X3271Y1306D01*
X3294Y1306D02*
X3371Y1306D01*
X3394Y1306D02*
X3471Y1306D01*
X3494Y1306D02*
X3571Y1306D01*
X3594Y1306D02*
X3671Y1306D01*
X3694Y1306D02*
X3771Y1306D01*
X2394Y1305D02*
X2471Y1305D01*
X2494Y1305D02*
X2571Y1305D01*
X2594Y1305D02*
X2671Y1305D01*
X2694Y1305D02*
X2771Y1305D01*
X2794Y1305D02*
X2871Y1305D01*
X2894Y1305D02*
X2971Y1305D01*
X2994Y1305D02*
X3071Y1305D01*
X3094Y1305D02*
X3171Y1305D01*
X3194Y1305D02*
X3271Y1305D01*
X3294Y1305D02*
X3371Y1305D01*
X3394Y1305D02*
X3471Y1305D01*
X3494Y1305D02*
X3571Y1305D01*
X3594Y1305D02*
X3671Y1305D01*
X3694Y1305D02*
X3771Y1305D01*
X2394Y1304D02*
X2471Y1304D01*
X2494Y1304D02*
X2571Y1304D01*
X2594Y1304D02*
X2671Y1304D01*
X2694Y1304D02*
X2771Y1304D01*
X2794Y1304D02*
X2871Y1304D01*
X2894Y1304D02*
X2971Y1304D01*
X2994Y1304D02*
X3071Y1304D01*
X3094Y1304D02*
X3171Y1304D01*
X3194Y1304D02*
X3271Y1304D01*
X3294Y1304D02*
X3371Y1304D01*
X3394Y1304D02*
X3471Y1304D01*
X3494Y1304D02*
X3571Y1304D01*
X3594Y1304D02*
X3671Y1304D01*
X3694Y1304D02*
X3771Y1304D01*
X2394Y1303D02*
X2471Y1303D01*
X2494Y1303D02*
X2571Y1303D01*
X2594Y1303D02*
X2671Y1303D01*
X2694Y1303D02*
X2771Y1303D01*
X2794Y1303D02*
X2871Y1303D01*
X2894Y1303D02*
X2971Y1303D01*
X2994Y1303D02*
X3071Y1303D01*
X3094Y1303D02*
X3171Y1303D01*
X3194Y1303D02*
X3271Y1303D01*
X3294Y1303D02*
X3371Y1303D01*
X3394Y1303D02*
X3471Y1303D01*
X3494Y1303D02*
X3571Y1303D01*
X3594Y1303D02*
X3671Y1303D01*
X3694Y1303D02*
X3771Y1303D01*
X2395Y1302D02*
X2471Y1302D01*
X2495Y1302D02*
X2571Y1302D01*
X2595Y1302D02*
X2671Y1302D01*
X2695Y1302D02*
X2771Y1302D01*
X2795Y1302D02*
X2871Y1302D01*
X2895Y1302D02*
X2971Y1302D01*
X2995Y1302D02*
X3071Y1302D01*
X3095Y1302D02*
X3170Y1302D01*
X3195Y1302D02*
X3270Y1302D01*
X3295Y1302D02*
X3370Y1302D01*
X3395Y1302D02*
X3470Y1302D01*
X3495Y1302D02*
X3570Y1302D01*
X3595Y1302D02*
X3670Y1302D01*
X3695Y1302D02*
X3770Y1302D01*
X2395Y1301D02*
X2470Y1301D01*
X2495Y1301D02*
X2570Y1301D01*
X2595Y1301D02*
X2670Y1301D01*
X2695Y1301D02*
X2770Y1301D01*
X2795Y1301D02*
X2870Y1301D01*
X2895Y1301D02*
X2970Y1301D01*
X2995Y1301D02*
X3070Y1301D01*
X3095Y1301D02*
X3170Y1301D01*
X3195Y1301D02*
X3270Y1301D01*
X3295Y1301D02*
X3370Y1301D01*
X3395Y1301D02*
X3470Y1301D01*
X3495Y1301D02*
X3570Y1301D01*
X3595Y1301D02*
X3670Y1301D01*
X3695Y1301D02*
X3770Y1301D01*
X2395Y1300D02*
X2470Y1300D01*
X2495Y1300D02*
X2570Y1300D01*
X2595Y1300D02*
X2670Y1300D01*
X2695Y1300D02*
X2770Y1300D01*
X2795Y1300D02*
X2870Y1300D01*
X2895Y1300D02*
X2970Y1300D01*
X2995Y1300D02*
X3070Y1300D01*
X3095Y1300D02*
X3170Y1300D01*
X3195Y1300D02*
X3270Y1300D01*
X3295Y1300D02*
X3370Y1300D01*
X3395Y1300D02*
X3470Y1300D01*
X3495Y1300D02*
X3570Y1300D01*
X3595Y1300D02*
X3670Y1300D01*
X3695Y1300D02*
X3770Y1300D01*
X2396Y1299D02*
X2470Y1299D01*
X2496Y1299D02*
X2570Y1299D01*
X2596Y1299D02*
X2670Y1299D01*
X2696Y1299D02*
X2770Y1299D01*
X2796Y1299D02*
X2870Y1299D01*
X2896Y1299D02*
X2970Y1299D01*
X2996Y1299D02*
X3070Y1299D01*
X3096Y1299D02*
X3170Y1299D01*
X3196Y1299D02*
X3270Y1299D01*
X3296Y1299D02*
X3370Y1299D01*
X3396Y1299D02*
X3470Y1299D01*
X3496Y1299D02*
X3570Y1299D01*
X3596Y1299D02*
X3670Y1299D01*
X3696Y1299D02*
X3770Y1299D01*
X2396Y1298D02*
X2469Y1298D01*
X2496Y1298D02*
X2569Y1298D01*
X2596Y1298D02*
X2669Y1298D01*
X2696Y1298D02*
X2769Y1298D01*
X2796Y1298D02*
X2869Y1298D01*
X2896Y1298D02*
X2969Y1298D01*
X2996Y1298D02*
X3069Y1298D01*
X3096Y1298D02*
X3169Y1298D01*
X3196Y1298D02*
X3269Y1298D01*
X3296Y1298D02*
X3369Y1298D01*
X3396Y1298D02*
X3469Y1298D01*
X3496Y1298D02*
X3569Y1298D01*
X3596Y1298D02*
X3669Y1298D01*
X3696Y1298D02*
X3769Y1298D01*
X2396Y1297D02*
X2469Y1297D01*
X2496Y1297D02*
X2569Y1297D01*
X2596Y1297D02*
X2669Y1297D01*
X2696Y1297D02*
X2769Y1297D01*
X2796Y1297D02*
X2869Y1297D01*
X2896Y1297D02*
X2969Y1297D01*
X2996Y1297D02*
X3069Y1297D01*
X3096Y1297D02*
X3169Y1297D01*
X3196Y1297D02*
X3269Y1297D01*
X3296Y1297D02*
X3369Y1297D01*
X3396Y1297D02*
X3469Y1297D01*
X3496Y1297D02*
X3569Y1297D01*
X3596Y1297D02*
X3669Y1297D01*
X3696Y1297D02*
X3769Y1297D01*
X2397Y1296D02*
X2468Y1296D01*
X2497Y1296D02*
X2568Y1296D01*
X2597Y1296D02*
X2668Y1296D01*
X2697Y1296D02*
X2768Y1296D01*
X2797Y1296D02*
X2868Y1296D01*
X2897Y1296D02*
X2968Y1296D01*
X2997Y1296D02*
X3068Y1296D01*
X3097Y1296D02*
X3168Y1296D01*
X3197Y1296D02*
X3268Y1296D01*
X3297Y1296D02*
X3368Y1296D01*
X3397Y1296D02*
X3468Y1296D01*
X3497Y1296D02*
X3568Y1296D01*
X3597Y1296D02*
X3668Y1296D01*
X3697Y1296D02*
X3768Y1296D01*
X2397Y1295D02*
X2468Y1295D01*
X2497Y1295D02*
X2568Y1295D01*
X2597Y1295D02*
X2668Y1295D01*
X2697Y1295D02*
X2768Y1295D01*
X2797Y1295D02*
X2868Y1295D01*
X2897Y1295D02*
X2968Y1295D01*
X2997Y1295D02*
X3068Y1295D01*
X3097Y1295D02*
X3168Y1295D01*
X3197Y1295D02*
X3268Y1295D01*
X3297Y1295D02*
X3368Y1295D01*
X3397Y1295D02*
X3468Y1295D01*
X3497Y1295D02*
X3568Y1295D01*
X3597Y1295D02*
X3668Y1295D01*
X3697Y1295D02*
X3768Y1295D01*
X2398Y1294D02*
X2467Y1294D01*
X2498Y1294D02*
X2567Y1294D01*
X2598Y1294D02*
X2667Y1294D01*
X2698Y1294D02*
X2767Y1294D01*
X2798Y1294D02*
X2867Y1294D01*
X2898Y1294D02*
X2967Y1294D01*
X2998Y1294D02*
X3067Y1294D01*
X3098Y1294D02*
X3167Y1294D01*
X3198Y1294D02*
X3267Y1294D01*
X3298Y1294D02*
X3367Y1294D01*
X3398Y1294D02*
X3467Y1294D01*
X3498Y1294D02*
X3567Y1294D01*
X3598Y1294D02*
X3667Y1294D01*
X3698Y1294D02*
X3767Y1294D01*
X2399Y1293D02*
X2467Y1293D01*
X2499Y1293D02*
X2567Y1293D01*
X2598Y1293D02*
X2667Y1293D01*
X2698Y1293D02*
X2767Y1293D01*
X2798Y1293D02*
X2867Y1293D01*
X2898Y1293D02*
X2967Y1293D01*
X2998Y1293D02*
X3067Y1293D01*
X3098Y1293D02*
X3167Y1293D01*
X3198Y1293D02*
X3267Y1293D01*
X3298Y1293D02*
X3367Y1293D01*
X3398Y1293D02*
X3467Y1293D01*
X3498Y1293D02*
X3567Y1293D01*
X3598Y1293D02*
X3667Y1293D01*
X3698Y1293D02*
X3767Y1293D01*
X2399Y1292D02*
X2466Y1292D01*
X2499Y1292D02*
X2566Y1292D01*
X2599Y1292D02*
X2666Y1292D01*
X2699Y1292D02*
X2766Y1292D01*
X2799Y1292D02*
X2866Y1292D01*
X2899Y1292D02*
X2966Y1292D01*
X2999Y1292D02*
X3066Y1292D01*
X3099Y1292D02*
X3166Y1292D01*
X3199Y1292D02*
X3266Y1292D01*
X3299Y1292D02*
X3366Y1292D01*
X3399Y1292D02*
X3466Y1292D01*
X3499Y1292D02*
X3566Y1292D01*
X3599Y1292D02*
X3666Y1292D01*
X3699Y1292D02*
X3766Y1292D01*
X2400Y1291D02*
X2466Y1291D01*
X2500Y1291D02*
X2566Y1291D01*
X2600Y1291D02*
X2666Y1291D01*
X2700Y1291D02*
X2766Y1291D01*
X2800Y1291D02*
X2866Y1291D01*
X2900Y1291D02*
X2965Y1291D01*
X3000Y1291D02*
X3065Y1291D01*
X3100Y1291D02*
X3165Y1291D01*
X3200Y1291D02*
X3265Y1291D01*
X3300Y1291D02*
X3365Y1291D01*
X3400Y1291D02*
X3465Y1291D01*
X3500Y1291D02*
X3565Y1291D01*
X3600Y1291D02*
X3665Y1291D01*
X3700Y1291D02*
X3765Y1291D01*
X2400Y1290D02*
X2465Y1290D01*
X2500Y1290D02*
X2565Y1290D01*
X2600Y1290D02*
X2665Y1290D01*
X2700Y1290D02*
X2765Y1290D01*
X2800Y1290D02*
X2865Y1290D01*
X2900Y1290D02*
X2965Y1290D01*
X3000Y1290D02*
X3065Y1290D01*
X3100Y1290D02*
X3165Y1290D01*
X3200Y1290D02*
X3265Y1290D01*
X3300Y1290D02*
X3365Y1290D01*
X3400Y1290D02*
X3465Y1290D01*
X3500Y1290D02*
X3565Y1290D01*
X3600Y1290D02*
X3665Y1290D01*
X3700Y1290D02*
X3765Y1290D01*
X2401Y1289D02*
X2464Y1289D01*
X2501Y1289D02*
X2564Y1289D01*
X2601Y1289D02*
X2664Y1289D01*
X2701Y1289D02*
X2764Y1289D01*
X2801Y1289D02*
X2864Y1289D01*
X2901Y1289D02*
X2964Y1289D01*
X3001Y1289D02*
X3064Y1289D01*
X3101Y1289D02*
X3164Y1289D01*
X3201Y1289D02*
X3264Y1289D01*
X3301Y1289D02*
X3364Y1289D01*
X3401Y1289D02*
X3464Y1289D01*
X3501Y1289D02*
X3564Y1289D01*
X3601Y1289D02*
X3664Y1289D01*
X3701Y1289D02*
X3764Y1289D01*
X2402Y1288D02*
X2463Y1288D01*
X2502Y1288D02*
X2563Y1288D01*
X2602Y1288D02*
X2663Y1288D01*
X2702Y1288D02*
X2763Y1288D01*
X2802Y1288D02*
X2863Y1288D01*
X2902Y1288D02*
X2963Y1288D01*
X3002Y1288D02*
X3063Y1288D01*
X3102Y1288D02*
X3163Y1288D01*
X3202Y1288D02*
X3263Y1288D01*
X3302Y1288D02*
X3363Y1288D01*
X3402Y1288D02*
X3463Y1288D01*
X3502Y1288D02*
X3563Y1288D01*
X3602Y1288D02*
X3663Y1288D01*
X3702Y1288D02*
X3763Y1288D01*
X2403Y1287D02*
X2463Y1287D01*
X2503Y1287D02*
X2563Y1287D01*
X2603Y1287D02*
X2663Y1287D01*
X2703Y1287D02*
X2763Y1287D01*
X2803Y1287D02*
X2863Y1287D01*
X2903Y1287D02*
X2963Y1287D01*
X3003Y1287D02*
X3063Y1287D01*
X3103Y1287D02*
X3163Y1287D01*
X3203Y1287D02*
X3263Y1287D01*
X3303Y1287D02*
X3363Y1287D01*
X3403Y1287D02*
X3463Y1287D01*
X3503Y1287D02*
X3563Y1287D01*
X3603Y1287D02*
X3663Y1287D01*
X3703Y1287D02*
X3763Y1287D01*
X2404Y1286D02*
X2462Y1286D01*
X2504Y1286D02*
X2562Y1286D01*
X2604Y1286D02*
X2662Y1286D01*
X2704Y1286D02*
X2762Y1286D01*
X2804Y1286D02*
X2862Y1286D01*
X2904Y1286D02*
X2962Y1286D01*
X3004Y1286D02*
X3062Y1286D01*
X3104Y1286D02*
X3162Y1286D01*
X3204Y1286D02*
X3262Y1286D01*
X3304Y1286D02*
X3362Y1286D01*
X3404Y1286D02*
X3462Y1286D01*
X3504Y1286D02*
X3562Y1286D01*
X3604Y1286D02*
X3662Y1286D01*
X3704Y1286D02*
X3762Y1286D01*
X2404Y1285D02*
X2461Y1285D01*
X2504Y1285D02*
X2561Y1285D01*
X2604Y1285D02*
X2661Y1285D01*
X2704Y1285D02*
X2761Y1285D01*
X2804Y1285D02*
X2861Y1285D01*
X2904Y1285D02*
X2961Y1285D01*
X3004Y1285D02*
X3061Y1285D01*
X3104Y1285D02*
X3161Y1285D01*
X3204Y1285D02*
X3261Y1285D01*
X3304Y1285D02*
X3361Y1285D01*
X3404Y1285D02*
X3461Y1285D01*
X3504Y1285D02*
X3561Y1285D01*
X3604Y1285D02*
X3661Y1285D01*
X3704Y1285D02*
X3761Y1285D01*
X2405Y1284D02*
X2460Y1284D01*
X2505Y1284D02*
X2560Y1284D01*
X2605Y1284D02*
X2660Y1284D01*
X2705Y1284D02*
X2760Y1284D01*
X2805Y1284D02*
X2860Y1284D01*
X2905Y1284D02*
X2960Y1284D01*
X3005Y1284D02*
X3060Y1284D01*
X3105Y1284D02*
X3160Y1284D01*
X3205Y1284D02*
X3260Y1284D01*
X3305Y1284D02*
X3360Y1284D01*
X3405Y1284D02*
X3460Y1284D01*
X3505Y1284D02*
X3560Y1284D01*
X3605Y1284D02*
X3660Y1284D01*
X3705Y1284D02*
X3760Y1284D01*
X2407Y1283D02*
X2459Y1283D01*
X2507Y1283D02*
X2559Y1283D01*
X2607Y1283D02*
X2659Y1283D01*
X2707Y1283D02*
X2759Y1283D01*
X2807Y1283D02*
X2859Y1283D01*
X2907Y1283D02*
X2959Y1283D01*
X3007Y1283D02*
X3059Y1283D01*
X3107Y1283D02*
X3159Y1283D01*
X3207Y1283D02*
X3259Y1283D01*
X3307Y1283D02*
X3359Y1283D01*
X3407Y1283D02*
X3459Y1283D01*
X3507Y1283D02*
X3559Y1283D01*
X3607Y1283D02*
X3659Y1283D01*
X3707Y1283D02*
X3759Y1283D01*
X2408Y1282D02*
X2457Y1282D01*
X2508Y1282D02*
X2557Y1282D01*
X2608Y1282D02*
X2657Y1282D01*
X2708Y1282D02*
X2757Y1282D01*
X2808Y1282D02*
X2857Y1282D01*
X2908Y1282D02*
X2957Y1282D01*
X3008Y1282D02*
X3057Y1282D01*
X3108Y1282D02*
X3157Y1282D01*
X3208Y1282D02*
X3257Y1282D01*
X3308Y1282D02*
X3357Y1282D01*
X3408Y1282D02*
X3457Y1282D01*
X3508Y1282D02*
X3557Y1282D01*
X3608Y1282D02*
X3657Y1282D01*
X3708Y1282D02*
X3757Y1282D01*
X2409Y1281D02*
X2456Y1281D01*
X2509Y1281D02*
X2556Y1281D01*
X2609Y1281D02*
X2656Y1281D01*
X2709Y1281D02*
X2756Y1281D01*
X2809Y1281D02*
X2856Y1281D01*
X2909Y1281D02*
X2956Y1281D01*
X3009Y1281D02*
X3056Y1281D01*
X3109Y1281D02*
X3156Y1281D01*
X3209Y1281D02*
X3256Y1281D01*
X3309Y1281D02*
X3356Y1281D01*
X3409Y1281D02*
X3456Y1281D01*
X3509Y1281D02*
X3556Y1281D01*
X3609Y1281D02*
X3656Y1281D01*
X3709Y1281D02*
X3756Y1281D01*
X2410Y1280D02*
X2455Y1280D01*
X2510Y1280D02*
X2555Y1280D01*
X2610Y1280D02*
X2655Y1280D01*
X2710Y1280D02*
X2755Y1280D01*
X2810Y1280D02*
X2855Y1280D01*
X2910Y1280D02*
X2955Y1280D01*
X3010Y1280D02*
X3055Y1280D01*
X3110Y1280D02*
X3155Y1280D01*
X3210Y1280D02*
X3255Y1280D01*
X3310Y1280D02*
X3355Y1280D01*
X3410Y1280D02*
X3455Y1280D01*
X3510Y1280D02*
X3555Y1280D01*
X3610Y1280D02*
X3655Y1280D01*
X3710Y1280D02*
X3755Y1280D01*
X2412Y1279D02*
X2453Y1279D01*
X2512Y1279D02*
X2553Y1279D01*
X2612Y1279D02*
X2653Y1279D01*
X2712Y1279D02*
X2753Y1279D01*
X2812Y1279D02*
X2853Y1279D01*
X2912Y1279D02*
X2953Y1279D01*
X3012Y1279D02*
X3053Y1279D01*
X3112Y1279D02*
X3153Y1279D01*
X3212Y1279D02*
X3253Y1279D01*
X3312Y1279D02*
X3353Y1279D01*
X3412Y1279D02*
X3453Y1279D01*
X3512Y1279D02*
X3553Y1279D01*
X3612Y1279D02*
X3653Y1279D01*
X3712Y1279D02*
X3753Y1279D01*
X2414Y1278D02*
X2452Y1278D01*
X2514Y1278D02*
X2552Y1278D01*
X2614Y1278D02*
X2652Y1278D01*
X2714Y1278D02*
X2752Y1278D01*
X2814Y1278D02*
X2852Y1278D01*
X2914Y1278D02*
X2952Y1278D01*
X3014Y1278D02*
X3052Y1278D01*
X3114Y1278D02*
X3152Y1278D01*
X3214Y1278D02*
X3252Y1278D01*
X3314Y1278D02*
X3352Y1278D01*
X3414Y1278D02*
X3452Y1278D01*
X3514Y1278D02*
X3552Y1278D01*
X3614Y1278D02*
X3652Y1278D01*
X3714Y1278D02*
X3752Y1278D01*
X2416Y1277D02*
X2450Y1277D01*
X2516Y1277D02*
X2550Y1277D01*
X2616Y1277D02*
X2650Y1277D01*
X2716Y1277D02*
X2750Y1277D01*
X2816Y1277D02*
X2850Y1277D01*
X2916Y1277D02*
X2950Y1277D01*
X3016Y1277D02*
X3050Y1277D01*
X3116Y1277D02*
X3150Y1277D01*
X3216Y1277D02*
X3250Y1277D01*
X3316Y1277D02*
X3350Y1277D01*
X3416Y1277D02*
X3450Y1277D01*
X3516Y1277D02*
X3550Y1277D01*
X3616Y1277D02*
X3650Y1277D01*
X3716Y1277D02*
X3750Y1277D01*
X2418Y1276D02*
X2448Y1276D01*
X2518Y1276D02*
X2548Y1276D01*
X2618Y1276D02*
X2648Y1276D01*
X2718Y1276D02*
X2748Y1276D01*
X2818Y1276D02*
X2848Y1276D01*
X2918Y1276D02*
X2948Y1276D01*
X3018Y1276D02*
X3048Y1276D01*
X3118Y1276D02*
X3148Y1276D01*
X3218Y1276D02*
X3248Y1276D01*
X3318Y1276D02*
X3348Y1276D01*
X3418Y1276D02*
X3448Y1276D01*
X3518Y1276D02*
X3548Y1276D01*
X3618Y1276D02*
X3648Y1276D01*
X3718Y1276D02*
X3748Y1276D01*
X2420Y1275D02*
X2445Y1275D01*
X2520Y1275D02*
X2545Y1275D01*
X2620Y1275D02*
X2645Y1275D01*
X2720Y1275D02*
X2745Y1275D01*
X2820Y1275D02*
X2845Y1275D01*
X2920Y1275D02*
X2945Y1275D01*
X3020Y1275D02*
X3045Y1275D01*
X3120Y1275D02*
X3145Y1275D01*
X3220Y1275D02*
X3245Y1275D01*
X3320Y1275D02*
X3345Y1275D01*
X3420Y1275D02*
X3445Y1275D01*
X3520Y1275D02*
X3545Y1275D01*
X3620Y1275D02*
X3645Y1275D01*
X3720Y1275D02*
X3745Y1275D01*
X2424Y1274D02*
X2441Y1274D01*
X2524Y1274D02*
X2541Y1274D01*
X2624Y1274D02*
X2641Y1274D01*
X2724Y1274D02*
X2741Y1274D01*
X2824Y1274D02*
X2841Y1274D01*
X2924Y1274D02*
X2941Y1274D01*
X3024Y1274D02*
X3041Y1274D01*
X3124Y1274D02*
X3141Y1274D01*
X3224Y1274D02*
X3241Y1274D01*
X3324Y1274D02*
X3341Y1274D01*
X3424Y1274D02*
X3441Y1274D01*
X3524Y1274D02*
X3541Y1274D01*
X3624Y1274D02*
X3641Y1274D01*
X3724Y1274D02*
X3741Y1274D01*
X2431Y1273D02*
X2435Y1273D01*
X2531Y1273D02*
X2535Y1273D01*
X2631Y1273D02*
X2635Y1273D01*
X2731Y1273D02*
X2735Y1273D01*
X2831Y1273D02*
X2835Y1273D01*
X2931Y1273D02*
X2935Y1273D01*
X3031Y1273D02*
X3034Y1273D01*
X3131Y1273D02*
X3134Y1273D01*
X3231Y1273D02*
X3234Y1273D01*
X3331Y1273D02*
X3334Y1273D01*
X3431Y1273D02*
X3434Y1273D01*
X3531Y1273D02*
X3534Y1273D01*
X3631Y1273D02*
X3634Y1273D01*
X3731Y1273D02*
X3734Y1273D01*
X2425Y1052D02*
X2440Y1052D01*
X2525Y1052D02*
X2540Y1052D01*
X2625Y1052D02*
X2640Y1052D01*
X2725Y1052D02*
X2740Y1052D01*
X2825Y1052D02*
X2840Y1052D01*
X2925Y1052D02*
X2940Y1052D01*
X3025Y1052D02*
X3040Y1052D01*
X3125Y1052D02*
X3140Y1052D01*
X3225Y1052D02*
X3240Y1052D01*
X3325Y1052D02*
X3340Y1052D01*
X3425Y1052D02*
X3440Y1052D01*
X3525Y1052D02*
X3540Y1052D01*
X3625Y1052D02*
X3640Y1052D01*
X3725Y1052D02*
X3740Y1052D01*
X2421Y1051D02*
X2444Y1051D01*
X2521Y1051D02*
X2544Y1051D01*
X2621Y1051D02*
X2644Y1051D01*
X2721Y1051D02*
X2744Y1051D01*
X2821Y1051D02*
X2844Y1051D01*
X2921Y1051D02*
X2944Y1051D01*
X3021Y1051D02*
X3044Y1051D01*
X3121Y1051D02*
X3144Y1051D01*
X3221Y1051D02*
X3244Y1051D01*
X3321Y1051D02*
X3344Y1051D01*
X3421Y1051D02*
X3444Y1051D01*
X3521Y1051D02*
X3544Y1051D01*
X3621Y1051D02*
X3644Y1051D01*
X3721Y1051D02*
X3744Y1051D01*
X2418Y1050D02*
X2447Y1050D01*
X2518Y1050D02*
X2547Y1050D01*
X2618Y1050D02*
X2647Y1050D01*
X2718Y1050D02*
X2747Y1050D01*
X2818Y1050D02*
X2847Y1050D01*
X2918Y1050D02*
X2947Y1050D01*
X3018Y1050D02*
X3047Y1050D01*
X3118Y1050D02*
X3147Y1050D01*
X3218Y1050D02*
X3247Y1050D01*
X3318Y1050D02*
X3347Y1050D01*
X3418Y1050D02*
X3447Y1050D01*
X3518Y1050D02*
X3547Y1050D01*
X3618Y1050D02*
X3647Y1050D01*
X3718Y1050D02*
X3747Y1050D01*
X2416Y1049D02*
X2449Y1049D01*
X2516Y1049D02*
X2549Y1049D01*
X2616Y1049D02*
X2649Y1049D01*
X2716Y1049D02*
X2749Y1049D01*
X2816Y1049D02*
X2849Y1049D01*
X2916Y1049D02*
X2949Y1049D01*
X3016Y1049D02*
X3049Y1049D01*
X3116Y1049D02*
X3149Y1049D01*
X3216Y1049D02*
X3249Y1049D01*
X3316Y1049D02*
X3349Y1049D01*
X3416Y1049D02*
X3449Y1049D01*
X3516Y1049D02*
X3549Y1049D01*
X3616Y1049D02*
X3649Y1049D01*
X3716Y1049D02*
X3749Y1049D01*
X2414Y1048D02*
X2451Y1048D01*
X2514Y1048D02*
X2551Y1048D01*
X2614Y1048D02*
X2651Y1048D01*
X2714Y1048D02*
X2751Y1048D01*
X2814Y1048D02*
X2851Y1048D01*
X2914Y1048D02*
X2951Y1048D01*
X3014Y1048D02*
X3051Y1048D01*
X3114Y1048D02*
X3151Y1048D01*
X3214Y1048D02*
X3251Y1048D01*
X3314Y1048D02*
X3351Y1048D01*
X3414Y1048D02*
X3451Y1048D01*
X3514Y1048D02*
X3551Y1048D01*
X3614Y1048D02*
X3651Y1048D01*
X3714Y1048D02*
X3751Y1048D01*
X2412Y1047D02*
X2453Y1047D01*
X2512Y1047D02*
X2553Y1047D01*
X2612Y1047D02*
X2653Y1047D01*
X2712Y1047D02*
X2753Y1047D01*
X2812Y1047D02*
X2853Y1047D01*
X2912Y1047D02*
X2953Y1047D01*
X3012Y1047D02*
X3053Y1047D01*
X3112Y1047D02*
X3153Y1047D01*
X3212Y1047D02*
X3253Y1047D01*
X3312Y1047D02*
X3353Y1047D01*
X3412Y1047D02*
X3453Y1047D01*
X3512Y1047D02*
X3553Y1047D01*
X3612Y1047D02*
X3653Y1047D01*
X3712Y1047D02*
X3753Y1047D01*
X2411Y1046D02*
X2454Y1046D01*
X2511Y1046D02*
X2554Y1046D01*
X2611Y1046D02*
X2654Y1046D01*
X2711Y1046D02*
X2754Y1046D01*
X2811Y1046D02*
X2854Y1046D01*
X2911Y1046D02*
X2954Y1046D01*
X3011Y1046D02*
X3054Y1046D01*
X3111Y1046D02*
X3154Y1046D01*
X3211Y1046D02*
X3254Y1046D01*
X3311Y1046D02*
X3354Y1046D01*
X3411Y1046D02*
X3454Y1046D01*
X3511Y1046D02*
X3554Y1046D01*
X3611Y1046D02*
X3654Y1046D01*
X3711Y1046D02*
X3754Y1046D01*
X2409Y1045D02*
X2456Y1045D01*
X2509Y1045D02*
X2556Y1045D01*
X2609Y1045D02*
X2656Y1045D01*
X2709Y1045D02*
X2756Y1045D01*
X2809Y1045D02*
X2856Y1045D01*
X2909Y1045D02*
X2956Y1045D01*
X3009Y1045D02*
X3056Y1045D01*
X3109Y1045D02*
X3156Y1045D01*
X3209Y1045D02*
X3256Y1045D01*
X3309Y1045D02*
X3356Y1045D01*
X3409Y1045D02*
X3456Y1045D01*
X3509Y1045D02*
X3556Y1045D01*
X3609Y1045D02*
X3656Y1045D01*
X3709Y1045D02*
X3756Y1045D01*
X2408Y1044D02*
X2457Y1044D01*
X2508Y1044D02*
X2557Y1044D01*
X2608Y1044D02*
X2657Y1044D01*
X2708Y1044D02*
X2757Y1044D01*
X2808Y1044D02*
X2857Y1044D01*
X2908Y1044D02*
X2957Y1044D01*
X3008Y1044D02*
X3057Y1044D01*
X3108Y1044D02*
X3157Y1044D01*
X3208Y1044D02*
X3257Y1044D01*
X3308Y1044D02*
X3357Y1044D01*
X3408Y1044D02*
X3457Y1044D01*
X3508Y1044D02*
X3557Y1044D01*
X3608Y1044D02*
X3657Y1044D01*
X3708Y1044D02*
X3757Y1044D01*
X2407Y1043D02*
X2458Y1043D01*
X2507Y1043D02*
X2558Y1043D01*
X2607Y1043D02*
X2658Y1043D01*
X2707Y1043D02*
X2758Y1043D01*
X2807Y1043D02*
X2858Y1043D01*
X2907Y1043D02*
X2958Y1043D01*
X3007Y1043D02*
X3058Y1043D01*
X3107Y1043D02*
X3158Y1043D01*
X3207Y1043D02*
X3258Y1043D01*
X3307Y1043D02*
X3358Y1043D01*
X3407Y1043D02*
X3458Y1043D01*
X3507Y1043D02*
X3558Y1043D01*
X3607Y1043D02*
X3658Y1043D01*
X3707Y1043D02*
X3758Y1043D01*
X2406Y1042D02*
X2459Y1042D01*
X2506Y1042D02*
X2559Y1042D01*
X2606Y1042D02*
X2659Y1042D01*
X2706Y1042D02*
X2759Y1042D01*
X2806Y1042D02*
X2859Y1042D01*
X2906Y1042D02*
X2959Y1042D01*
X3006Y1042D02*
X3059Y1042D01*
X3106Y1042D02*
X3159Y1042D01*
X3206Y1042D02*
X3259Y1042D01*
X3306Y1042D02*
X3359Y1042D01*
X3406Y1042D02*
X3459Y1042D01*
X3506Y1042D02*
X3559Y1042D01*
X3606Y1042D02*
X3659Y1042D01*
X3706Y1042D02*
X3759Y1042D01*
X2405Y1041D02*
X2461Y1041D01*
X2505Y1041D02*
X2561Y1041D01*
X2605Y1041D02*
X2661Y1041D01*
X2705Y1041D02*
X2761Y1041D01*
X2805Y1041D02*
X2861Y1041D01*
X2905Y1041D02*
X2961Y1041D01*
X3005Y1041D02*
X3061Y1041D01*
X3105Y1041D02*
X3161Y1041D01*
X3205Y1041D02*
X3261Y1041D01*
X3305Y1041D02*
X3361Y1041D01*
X3405Y1041D02*
X3461Y1041D01*
X3505Y1041D02*
X3561Y1041D01*
X3605Y1041D02*
X3661Y1041D01*
X3705Y1041D02*
X3761Y1041D01*
X2404Y1040D02*
X2461Y1040D01*
X2504Y1040D02*
X2561Y1040D01*
X2604Y1040D02*
X2661Y1040D01*
X2704Y1040D02*
X2761Y1040D01*
X2804Y1040D02*
X2861Y1040D01*
X2904Y1040D02*
X2961Y1040D01*
X3004Y1040D02*
X3061Y1040D01*
X3104Y1040D02*
X3161Y1040D01*
X3204Y1040D02*
X3261Y1040D01*
X3304Y1040D02*
X3361Y1040D01*
X3404Y1040D02*
X3461Y1040D01*
X3504Y1040D02*
X3561Y1040D01*
X3604Y1040D02*
X3661Y1040D01*
X3704Y1040D02*
X3761Y1040D01*
X2403Y1039D02*
X2462Y1039D01*
X2503Y1039D02*
X2562Y1039D01*
X2603Y1039D02*
X2662Y1039D01*
X2703Y1039D02*
X2762Y1039D01*
X2803Y1039D02*
X2862Y1039D01*
X2903Y1039D02*
X2962Y1039D01*
X3003Y1039D02*
X3062Y1039D01*
X3103Y1039D02*
X3162Y1039D01*
X3203Y1039D02*
X3262Y1039D01*
X3303Y1039D02*
X3362Y1039D01*
X3403Y1039D02*
X3462Y1039D01*
X3503Y1039D02*
X3562Y1039D01*
X3603Y1039D02*
X3662Y1039D01*
X3703Y1039D02*
X3762Y1039D01*
X2402Y1038D02*
X2463Y1038D01*
X2502Y1038D02*
X2563Y1038D01*
X2602Y1038D02*
X2663Y1038D01*
X2702Y1038D02*
X2763Y1038D01*
X2802Y1038D02*
X2863Y1038D01*
X2902Y1038D02*
X2963Y1038D01*
X3002Y1038D02*
X3063Y1038D01*
X3102Y1038D02*
X3163Y1038D01*
X3202Y1038D02*
X3263Y1038D01*
X3302Y1038D02*
X3363Y1038D01*
X3402Y1038D02*
X3463Y1038D01*
X3502Y1038D02*
X3563Y1038D01*
X3602Y1038D02*
X3663Y1038D01*
X3702Y1038D02*
X3763Y1038D01*
X2401Y1037D02*
X2464Y1037D01*
X2501Y1037D02*
X2564Y1037D01*
X2601Y1037D02*
X2664Y1037D01*
X2701Y1037D02*
X2764Y1037D01*
X2801Y1037D02*
X2864Y1037D01*
X2901Y1037D02*
X2964Y1037D01*
X3001Y1037D02*
X3064Y1037D01*
X3101Y1037D02*
X3164Y1037D01*
X3201Y1037D02*
X3264Y1037D01*
X3301Y1037D02*
X3364Y1037D01*
X3401Y1037D02*
X3464Y1037D01*
X3501Y1037D02*
X3564Y1037D01*
X3601Y1037D02*
X3664Y1037D01*
X3701Y1037D02*
X3764Y1037D01*
X2401Y1036D02*
X2465Y1036D01*
X2501Y1036D02*
X2565Y1036D01*
X2601Y1036D02*
X2665Y1036D01*
X2701Y1036D02*
X2765Y1036D01*
X2801Y1036D02*
X2865Y1036D01*
X2901Y1036D02*
X2965Y1036D01*
X3001Y1036D02*
X3065Y1036D01*
X3101Y1036D02*
X3165Y1036D01*
X3201Y1036D02*
X3265Y1036D01*
X3301Y1036D02*
X3365Y1036D01*
X3401Y1036D02*
X3465Y1036D01*
X3501Y1036D02*
X3565Y1036D01*
X3601Y1036D02*
X3665Y1036D01*
X3701Y1036D02*
X3765Y1036D01*
X2400Y1035D02*
X2465Y1035D01*
X2500Y1035D02*
X2565Y1035D01*
X2600Y1035D02*
X2665Y1035D01*
X2700Y1035D02*
X2765Y1035D01*
X2800Y1035D02*
X2865Y1035D01*
X2900Y1035D02*
X2965Y1035D01*
X3000Y1035D02*
X3065Y1035D01*
X3100Y1035D02*
X3165Y1035D01*
X3200Y1035D02*
X3265Y1035D01*
X3300Y1035D02*
X3365Y1035D01*
X3400Y1035D02*
X3465Y1035D01*
X3500Y1035D02*
X3565Y1035D01*
X3600Y1035D02*
X3665Y1035D01*
X3700Y1035D02*
X3765Y1035D01*
X2399Y1034D02*
X2466Y1034D01*
X2499Y1034D02*
X2566Y1034D01*
X2599Y1034D02*
X2666Y1034D01*
X2699Y1034D02*
X2766Y1034D01*
X2799Y1034D02*
X2866Y1034D01*
X2899Y1034D02*
X2966Y1034D01*
X2999Y1034D02*
X3066Y1034D01*
X3099Y1034D02*
X3166Y1034D01*
X3199Y1034D02*
X3266Y1034D01*
X3299Y1034D02*
X3366Y1034D01*
X3399Y1034D02*
X3466Y1034D01*
X3499Y1034D02*
X3566Y1034D01*
X3599Y1034D02*
X3666Y1034D01*
X3699Y1034D02*
X3766Y1034D01*
X2399Y1033D02*
X2467Y1033D01*
X2499Y1033D02*
X2567Y1033D01*
X2599Y1033D02*
X2667Y1033D01*
X2699Y1033D02*
X2767Y1033D01*
X2799Y1033D02*
X2867Y1033D01*
X2899Y1033D02*
X2967Y1033D01*
X2999Y1033D02*
X3067Y1033D01*
X3099Y1033D02*
X3167Y1033D01*
X3199Y1033D02*
X3267Y1033D01*
X3299Y1033D02*
X3367Y1033D01*
X3399Y1033D02*
X3467Y1033D01*
X3499Y1033D02*
X3567Y1033D01*
X3599Y1033D02*
X3667Y1033D01*
X3699Y1033D02*
X3767Y1033D01*
X2398Y1032D02*
X2467Y1032D01*
X2498Y1032D02*
X2567Y1032D01*
X2598Y1032D02*
X2667Y1032D01*
X2698Y1032D02*
X2767Y1032D01*
X2798Y1032D02*
X2867Y1032D01*
X2898Y1032D02*
X2967Y1032D01*
X2998Y1032D02*
X3067Y1032D01*
X3098Y1032D02*
X3167Y1032D01*
X3198Y1032D02*
X3267Y1032D01*
X3298Y1032D02*
X3367Y1032D01*
X3398Y1032D02*
X3467Y1032D01*
X3498Y1032D02*
X3567Y1032D01*
X3598Y1032D02*
X3667Y1032D01*
X3698Y1032D02*
X3767Y1032D01*
X2398Y1031D02*
X2468Y1031D01*
X2498Y1031D02*
X2568Y1031D01*
X2598Y1031D02*
X2668Y1031D01*
X2698Y1031D02*
X2768Y1031D01*
X2798Y1031D02*
X2868Y1031D01*
X2898Y1031D02*
X2968Y1031D01*
X2997Y1031D02*
X3068Y1031D01*
X3097Y1031D02*
X3168Y1031D01*
X3197Y1031D02*
X3268Y1031D01*
X3297Y1031D02*
X3368Y1031D01*
X3397Y1031D02*
X3468Y1031D01*
X3497Y1031D02*
X3568Y1031D01*
X3597Y1031D02*
X3668Y1031D01*
X3697Y1031D02*
X3768Y1031D01*
X2397Y1030D02*
X2468Y1030D01*
X2497Y1030D02*
X2568Y1030D01*
X2597Y1030D02*
X2668Y1030D01*
X2697Y1030D02*
X2768Y1030D01*
X2797Y1030D02*
X2868Y1030D01*
X2897Y1030D02*
X2968Y1030D01*
X2997Y1030D02*
X3068Y1030D01*
X3097Y1030D02*
X3168Y1030D01*
X3197Y1030D02*
X3268Y1030D01*
X3297Y1030D02*
X3368Y1030D01*
X3397Y1030D02*
X3468Y1030D01*
X3497Y1030D02*
X3568Y1030D01*
X3597Y1030D02*
X3668Y1030D01*
X3697Y1030D02*
X3768Y1030D01*
X2397Y1029D02*
X2469Y1029D01*
X2497Y1029D02*
X2569Y1029D01*
X2597Y1029D02*
X2669Y1029D01*
X2697Y1029D02*
X2769Y1029D01*
X2797Y1029D02*
X2869Y1029D01*
X2897Y1029D02*
X2969Y1029D01*
X2997Y1029D02*
X3069Y1029D01*
X3097Y1029D02*
X3169Y1029D01*
X3197Y1029D02*
X3269Y1029D01*
X3297Y1029D02*
X3369Y1029D01*
X3396Y1029D02*
X3469Y1029D01*
X3496Y1029D02*
X3569Y1029D01*
X3596Y1029D02*
X3669Y1029D01*
X3696Y1029D02*
X3769Y1029D01*
X2396Y1028D02*
X2469Y1028D01*
X2496Y1028D02*
X2569Y1028D01*
X2596Y1028D02*
X2669Y1028D01*
X2696Y1028D02*
X2769Y1028D01*
X2796Y1028D02*
X2869Y1028D01*
X2896Y1028D02*
X2969Y1028D01*
X2996Y1028D02*
X3069Y1028D01*
X3096Y1028D02*
X3169Y1028D01*
X3196Y1028D02*
X3269Y1028D01*
X3296Y1028D02*
X3369Y1028D01*
X3396Y1028D02*
X3469Y1028D01*
X3496Y1028D02*
X3569Y1028D01*
X3596Y1028D02*
X3669Y1028D01*
X3696Y1028D02*
X3769Y1028D01*
X2396Y1027D02*
X2470Y1027D01*
X2496Y1027D02*
X2569Y1027D01*
X2596Y1027D02*
X2669Y1027D01*
X2696Y1027D02*
X2769Y1027D01*
X2796Y1027D02*
X2869Y1027D01*
X2896Y1027D02*
X2969Y1027D01*
X2996Y1027D02*
X3069Y1027D01*
X3096Y1027D02*
X3169Y1027D01*
X3196Y1027D02*
X3269Y1027D01*
X3296Y1027D02*
X3369Y1027D01*
X3396Y1027D02*
X3469Y1027D01*
X3496Y1027D02*
X3569Y1027D01*
X3596Y1027D02*
X3669Y1027D01*
X3696Y1027D02*
X3769Y1027D01*
X2395Y1026D02*
X2470Y1026D01*
X2495Y1026D02*
X2570Y1026D01*
X2595Y1026D02*
X2670Y1026D01*
X2695Y1026D02*
X2770Y1026D01*
X2795Y1026D02*
X2870Y1026D01*
X2895Y1026D02*
X2970Y1026D01*
X2995Y1026D02*
X3070Y1026D01*
X3095Y1026D02*
X3170Y1026D01*
X3195Y1026D02*
X3270Y1026D01*
X3295Y1026D02*
X3370Y1026D01*
X3395Y1026D02*
X3470Y1026D01*
X3495Y1026D02*
X3570Y1026D01*
X3595Y1026D02*
X3670Y1026D01*
X3695Y1026D02*
X3770Y1026D01*
X2395Y1025D02*
X2470Y1025D01*
X2495Y1025D02*
X2570Y1025D01*
X2595Y1025D02*
X2670Y1025D01*
X2695Y1025D02*
X2770Y1025D01*
X2795Y1025D02*
X2870Y1025D01*
X2895Y1025D02*
X2970Y1025D01*
X2995Y1025D02*
X3070Y1025D01*
X3095Y1025D02*
X3170Y1025D01*
X3195Y1025D02*
X3270Y1025D01*
X3295Y1025D02*
X3370Y1025D01*
X3395Y1025D02*
X3470Y1025D01*
X3495Y1025D02*
X3570Y1025D01*
X3595Y1025D02*
X3670Y1025D01*
X3695Y1025D02*
X3770Y1025D01*
X2395Y1024D02*
X2470Y1024D01*
X2495Y1024D02*
X2570Y1024D01*
X2595Y1024D02*
X2670Y1024D01*
X2695Y1024D02*
X2770Y1024D01*
X2795Y1024D02*
X2870Y1024D01*
X2895Y1024D02*
X2970Y1024D01*
X2995Y1024D02*
X3070Y1024D01*
X3095Y1024D02*
X3170Y1024D01*
X3195Y1024D02*
X3270Y1024D01*
X3295Y1024D02*
X3370Y1024D01*
X3395Y1024D02*
X3470Y1024D01*
X3495Y1024D02*
X3570Y1024D01*
X3595Y1024D02*
X3670Y1024D01*
X3695Y1024D02*
X3770Y1024D01*
X2395Y1023D02*
X2471Y1023D01*
X2495Y1023D02*
X2571Y1023D01*
X2595Y1023D02*
X2671Y1023D01*
X2695Y1023D02*
X2771Y1023D01*
X2795Y1023D02*
X2871Y1023D01*
X2895Y1023D02*
X2971Y1023D01*
X2995Y1023D02*
X3071Y1023D01*
X3095Y1023D02*
X3171Y1023D01*
X3194Y1023D02*
X3271Y1023D01*
X3294Y1023D02*
X3371Y1023D01*
X3394Y1023D02*
X3471Y1023D01*
X3494Y1023D02*
X3571Y1023D01*
X3594Y1023D02*
X3671Y1023D01*
X3694Y1023D02*
X3771Y1023D01*
X2394Y1022D02*
X2471Y1022D01*
X2494Y1022D02*
X2571Y1022D01*
X2594Y1022D02*
X2671Y1022D01*
X2694Y1022D02*
X2771Y1022D01*
X2794Y1022D02*
X2871Y1022D01*
X2894Y1022D02*
X2971Y1022D01*
X2994Y1022D02*
X3071Y1022D01*
X3094Y1022D02*
X3171Y1022D01*
X3194Y1022D02*
X3271Y1022D01*
X3294Y1022D02*
X3371Y1022D01*
X3394Y1022D02*
X3471Y1022D01*
X3494Y1022D02*
X3571Y1022D01*
X3594Y1022D02*
X3671Y1022D01*
X3694Y1022D02*
X3771Y1022D01*
X2394Y1021D02*
X2471Y1021D01*
X2494Y1021D02*
X2571Y1021D01*
X2594Y1021D02*
X2671Y1021D01*
X2694Y1021D02*
X2771Y1021D01*
X2794Y1021D02*
X2871Y1021D01*
X2894Y1021D02*
X2971Y1021D01*
X2994Y1021D02*
X3071Y1021D01*
X3094Y1021D02*
X3171Y1021D01*
X3194Y1021D02*
X3271Y1021D01*
X3294Y1021D02*
X3371Y1021D01*
X3394Y1021D02*
X3471Y1021D01*
X3494Y1021D02*
X3571Y1021D01*
X3594Y1021D02*
X3671Y1021D01*
X3694Y1021D02*
X3771Y1021D01*
X2394Y1020D02*
X2471Y1020D01*
X2494Y1020D02*
X2571Y1020D01*
X2594Y1020D02*
X2671Y1020D01*
X2694Y1020D02*
X2771Y1020D01*
X2794Y1020D02*
X2871Y1020D01*
X2894Y1020D02*
X2971Y1020D01*
X2994Y1020D02*
X3071Y1020D01*
X3094Y1020D02*
X3171Y1020D01*
X3194Y1020D02*
X3271Y1020D01*
X3294Y1020D02*
X3371Y1020D01*
X3394Y1020D02*
X3471Y1020D01*
X3494Y1020D02*
X3571Y1020D01*
X3594Y1020D02*
X3671Y1020D01*
X3694Y1020D02*
X3771Y1020D01*
X2394Y1019D02*
X2472Y1019D01*
X2494Y1019D02*
X2572Y1019D01*
X2594Y1019D02*
X2672Y1019D01*
X2694Y1019D02*
X2772Y1019D01*
X2794Y1019D02*
X2872Y1019D01*
X2894Y1019D02*
X2972Y1019D01*
X2994Y1019D02*
X3072Y1019D01*
X3094Y1019D02*
X3172Y1019D01*
X3194Y1019D02*
X3272Y1019D01*
X3294Y1019D02*
X3372Y1019D01*
X3394Y1019D02*
X3472Y1019D01*
X3494Y1019D02*
X3572Y1019D01*
X3594Y1019D02*
X3672Y1019D01*
X3694Y1019D02*
X3772Y1019D01*
X2394Y1018D02*
X2472Y1018D01*
X2494Y1018D02*
X2572Y1018D01*
X2594Y1018D02*
X2672Y1018D01*
X2694Y1018D02*
X2772Y1018D01*
X2794Y1018D02*
X2872Y1018D01*
X2894Y1018D02*
X2972Y1018D01*
X2994Y1018D02*
X3072Y1018D01*
X3094Y1018D02*
X3172Y1018D01*
X3194Y1018D02*
X3272Y1018D01*
X3294Y1018D02*
X3372Y1018D01*
X3394Y1018D02*
X3472Y1018D01*
X3494Y1018D02*
X3572Y1018D01*
X3593Y1018D02*
X3672Y1018D01*
X3693Y1018D02*
X3772Y1018D01*
X2393Y1017D02*
X2472Y1017D01*
X2493Y1017D02*
X2572Y1017D01*
X2593Y1017D02*
X2672Y1017D01*
X2693Y1017D02*
X2772Y1017D01*
X2793Y1017D02*
X2872Y1017D01*
X2893Y1017D02*
X2972Y1017D01*
X2993Y1017D02*
X3072Y1017D01*
X3093Y1017D02*
X3172Y1017D01*
X3193Y1017D02*
X3272Y1017D01*
X3293Y1017D02*
X3372Y1017D01*
X3393Y1017D02*
X3472Y1017D01*
X3493Y1017D02*
X3572Y1017D01*
X3593Y1017D02*
X3672Y1017D01*
X3693Y1017D02*
X3772Y1017D01*
X2393Y1016D02*
X2472Y1016D01*
X2493Y1016D02*
X2572Y1016D01*
X2593Y1016D02*
X2672Y1016D01*
X2693Y1016D02*
X2772Y1016D01*
X2793Y1016D02*
X2872Y1016D01*
X2893Y1016D02*
X2972Y1016D01*
X2993Y1016D02*
X3072Y1016D01*
X3093Y1016D02*
X3172Y1016D01*
X3193Y1016D02*
X3272Y1016D01*
X3293Y1016D02*
X3372Y1016D01*
X3393Y1016D02*
X3472Y1016D01*
X3493Y1016D02*
X3572Y1016D01*
X3593Y1016D02*
X3672Y1016D01*
X3693Y1016D02*
X3772Y1016D01*
X2393Y1015D02*
X2472Y1015D01*
X2493Y1015D02*
X2572Y1015D01*
X2593Y1015D02*
X2672Y1015D01*
X2693Y1015D02*
X2772Y1015D01*
X2793Y1015D02*
X2872Y1015D01*
X2893Y1015D02*
X2972Y1015D01*
X2993Y1015D02*
X3072Y1015D01*
X3093Y1015D02*
X3172Y1015D01*
X3193Y1015D02*
X3272Y1015D01*
X3293Y1015D02*
X3372Y1015D01*
X3393Y1015D02*
X3472Y1015D01*
X3493Y1015D02*
X3572Y1015D01*
X3593Y1015D02*
X3672Y1015D01*
X3693Y1015D02*
X3772Y1015D01*
X2393Y1014D02*
X2472Y1014D01*
X2493Y1014D02*
X2572Y1014D01*
X2593Y1014D02*
X2672Y1014D01*
X2693Y1014D02*
X2772Y1014D01*
X2793Y1014D02*
X2872Y1014D01*
X2893Y1014D02*
X2972Y1014D01*
X2993Y1014D02*
X3072Y1014D01*
X3093Y1014D02*
X3172Y1014D01*
X3193Y1014D02*
X3272Y1014D01*
X3293Y1014D02*
X3372Y1014D01*
X3393Y1014D02*
X3472Y1014D01*
X3493Y1014D02*
X3572Y1014D01*
X3593Y1014D02*
X3672Y1014D01*
X3693Y1014D02*
X3772Y1014D01*
X2393Y1013D02*
X2472Y1013D01*
X2493Y1013D02*
X2572Y1013D01*
X2593Y1013D02*
X2672Y1013D01*
X2693Y1013D02*
X2772Y1013D01*
X2793Y1013D02*
X2872Y1013D01*
X2893Y1013D02*
X2972Y1013D01*
X2993Y1013D02*
X3072Y1013D01*
X3093Y1013D02*
X3172Y1013D01*
X3193Y1013D02*
X3272Y1013D01*
X3293Y1013D02*
X3372Y1013D01*
X3393Y1013D02*
X3472Y1013D01*
X3493Y1013D02*
X3572Y1013D01*
X3593Y1013D02*
X3672Y1013D01*
X3693Y1013D02*
X3772Y1013D01*
X2393Y1012D02*
X2472Y1012D01*
X2493Y1012D02*
X2572Y1012D01*
X2593Y1012D02*
X2672Y1012D01*
X2693Y1012D02*
X2772Y1012D01*
X2793Y1012D02*
X2872Y1012D01*
X2893Y1012D02*
X2972Y1012D01*
X2993Y1012D02*
X3072Y1012D01*
X3093Y1012D02*
X3172Y1012D01*
X3193Y1012D02*
X3272Y1012D01*
X3293Y1012D02*
X3372Y1012D01*
X3393Y1012D02*
X3472Y1012D01*
X3493Y1012D02*
X3572Y1012D01*
X3593Y1012D02*
X3672Y1012D01*
X3693Y1012D02*
X3772Y1012D01*
X2393Y1011D02*
X2472Y1011D01*
X2493Y1011D02*
X2572Y1011D01*
X2593Y1011D02*
X2672Y1011D01*
X2693Y1011D02*
X2772Y1011D01*
X2793Y1011D02*
X2872Y1011D01*
X2893Y1011D02*
X2972Y1011D01*
X2993Y1011D02*
X3072Y1011D01*
X3093Y1011D02*
X3172Y1011D01*
X3193Y1011D02*
X3272Y1011D01*
X3293Y1011D02*
X3372Y1011D01*
X3393Y1011D02*
X3472Y1011D01*
X3493Y1011D02*
X3572Y1011D01*
X3593Y1011D02*
X3672Y1011D01*
X3693Y1011D02*
X3772Y1011D01*
X2393Y1010D02*
X2472Y1010D01*
X2493Y1010D02*
X2572Y1010D01*
X2593Y1010D02*
X2672Y1010D01*
X2693Y1010D02*
X2772Y1010D01*
X2793Y1010D02*
X2872Y1010D01*
X2893Y1010D02*
X2972Y1010D01*
X2993Y1010D02*
X3072Y1010D01*
X3093Y1010D02*
X3172Y1010D01*
X3193Y1010D02*
X3272Y1010D01*
X3293Y1010D02*
X3372Y1010D01*
X3393Y1010D02*
X3472Y1010D01*
X3493Y1010D02*
X3572Y1010D01*
X3593Y1010D02*
X3672Y1010D01*
X3693Y1010D02*
X3772Y1010D01*
X2393Y1009D02*
X2472Y1009D01*
X2493Y1009D02*
X2572Y1009D01*
X2593Y1009D02*
X2672Y1009D01*
X2693Y1009D02*
X2772Y1009D01*
X2793Y1009D02*
X2872Y1009D01*
X2893Y1009D02*
X2972Y1009D01*
X2993Y1009D02*
X3072Y1009D01*
X3093Y1009D02*
X3172Y1009D01*
X3193Y1009D02*
X3272Y1009D01*
X3293Y1009D02*
X3372Y1009D01*
X3393Y1009D02*
X3472Y1009D01*
X3493Y1009D02*
X3572Y1009D01*
X3593Y1009D02*
X3672Y1009D01*
X3693Y1009D02*
X3772Y1009D01*
X2394Y1008D02*
X2472Y1008D01*
X2494Y1008D02*
X2572Y1008D01*
X2594Y1008D02*
X2672Y1008D01*
X2694Y1008D02*
X2772Y1008D01*
X2793Y1008D02*
X2872Y1008D01*
X2893Y1008D02*
X2972Y1008D01*
X2993Y1008D02*
X3072Y1008D01*
X3093Y1008D02*
X3172Y1008D01*
X3193Y1008D02*
X3272Y1008D01*
X3293Y1008D02*
X3372Y1008D01*
X3393Y1008D02*
X3472Y1008D01*
X3493Y1008D02*
X3572Y1008D01*
X3593Y1008D02*
X3672Y1008D01*
X3693Y1008D02*
X3772Y1008D01*
X2394Y1007D02*
X2472Y1007D01*
X2494Y1007D02*
X2572Y1007D01*
X2594Y1007D02*
X2672Y1007D01*
X2694Y1007D02*
X2772Y1007D01*
X2794Y1007D02*
X2872Y1007D01*
X2894Y1007D02*
X2972Y1007D01*
X2994Y1007D02*
X3072Y1007D01*
X3094Y1007D02*
X3172Y1007D01*
X3194Y1007D02*
X3272Y1007D01*
X3294Y1007D02*
X3372Y1007D01*
X3394Y1007D02*
X3472Y1007D01*
X3494Y1007D02*
X3572Y1007D01*
X3594Y1007D02*
X3672Y1007D01*
X3694Y1007D02*
X3772Y1007D01*
X2394Y1006D02*
X2471Y1006D01*
X2494Y1006D02*
X2571Y1006D01*
X2594Y1006D02*
X2671Y1006D01*
X2694Y1006D02*
X2771Y1006D01*
X2794Y1006D02*
X2871Y1006D01*
X2894Y1006D02*
X2971Y1006D01*
X2994Y1006D02*
X3071Y1006D01*
X3094Y1006D02*
X3171Y1006D01*
X3194Y1006D02*
X3271Y1006D01*
X3294Y1006D02*
X3371Y1006D01*
X3394Y1006D02*
X3471Y1006D01*
X3494Y1006D02*
X3571Y1006D01*
X3594Y1006D02*
X3671Y1006D01*
X3694Y1006D02*
X3771Y1006D01*
X2394Y1005D02*
X2471Y1005D01*
X2494Y1005D02*
X2571Y1005D01*
X2594Y1005D02*
X2671Y1005D01*
X2694Y1005D02*
X2771Y1005D01*
X2794Y1005D02*
X2871Y1005D01*
X2894Y1005D02*
X2971Y1005D01*
X2994Y1005D02*
X3071Y1005D01*
X3094Y1005D02*
X3171Y1005D01*
X3194Y1005D02*
X3271Y1005D01*
X3294Y1005D02*
X3371Y1005D01*
X3394Y1005D02*
X3471Y1005D01*
X3494Y1005D02*
X3571Y1005D01*
X3594Y1005D02*
X3671Y1005D01*
X3694Y1005D02*
X3771Y1005D01*
X2394Y1004D02*
X2471Y1004D01*
X2494Y1004D02*
X2571Y1004D01*
X2594Y1004D02*
X2671Y1004D01*
X2694Y1004D02*
X2771Y1004D01*
X2794Y1004D02*
X2871Y1004D01*
X2894Y1004D02*
X2971Y1004D01*
X2994Y1004D02*
X3071Y1004D01*
X3094Y1004D02*
X3171Y1004D01*
X3194Y1004D02*
X3271Y1004D01*
X3294Y1004D02*
X3371Y1004D01*
X3394Y1004D02*
X3471Y1004D01*
X3494Y1004D02*
X3571Y1004D01*
X3594Y1004D02*
X3671Y1004D01*
X3694Y1004D02*
X3771Y1004D01*
X2394Y1003D02*
X2471Y1003D01*
X2494Y1003D02*
X2571Y1003D01*
X2594Y1003D02*
X2671Y1003D01*
X2694Y1003D02*
X2771Y1003D01*
X2794Y1003D02*
X2871Y1003D01*
X2894Y1003D02*
X2971Y1003D01*
X2994Y1003D02*
X3071Y1003D01*
X3094Y1003D02*
X3171Y1003D01*
X3194Y1003D02*
X3271Y1003D01*
X3294Y1003D02*
X3371Y1003D01*
X3394Y1003D02*
X3471Y1003D01*
X3494Y1003D02*
X3571Y1003D01*
X3594Y1003D02*
X3671Y1003D01*
X3694Y1003D02*
X3771Y1003D01*
X2395Y1002D02*
X2471Y1002D01*
X2495Y1002D02*
X2571Y1002D01*
X2595Y1002D02*
X2671Y1002D01*
X2695Y1002D02*
X2771Y1002D01*
X2795Y1002D02*
X2871Y1002D01*
X2895Y1002D02*
X2971Y1002D01*
X2995Y1002D02*
X3071Y1002D01*
X3095Y1002D02*
X3170Y1002D01*
X3195Y1002D02*
X3270Y1002D01*
X3295Y1002D02*
X3370Y1002D01*
X3395Y1002D02*
X3470Y1002D01*
X3495Y1002D02*
X3570Y1002D01*
X3595Y1002D02*
X3670Y1002D01*
X3695Y1002D02*
X3770Y1002D01*
X2395Y1001D02*
X2470Y1001D01*
X2495Y1001D02*
X2570Y1001D01*
X2595Y1001D02*
X2670Y1001D01*
X2695Y1001D02*
X2770Y1001D01*
X2795Y1001D02*
X2870Y1001D01*
X2895Y1001D02*
X2970Y1001D01*
X2995Y1001D02*
X3070Y1001D01*
X3095Y1001D02*
X3170Y1001D01*
X3195Y1001D02*
X3270Y1001D01*
X3295Y1001D02*
X3370Y1001D01*
X3395Y1001D02*
X3470Y1001D01*
X3495Y1001D02*
X3570Y1001D01*
X3595Y1001D02*
X3670Y1001D01*
X3695Y1001D02*
X3770Y1001D01*
X2395Y1000D02*
X2470Y1000D01*
X2495Y1000D02*
X2570Y1000D01*
X2595Y1000D02*
X2670Y1000D01*
X2695Y1000D02*
X2770Y1000D01*
X2795Y1000D02*
X2870Y1000D01*
X2895Y1000D02*
X2970Y1000D01*
X2995Y1000D02*
X3070Y1000D01*
X3095Y1000D02*
X3170Y1000D01*
X3195Y1000D02*
X3270Y1000D01*
X3295Y1000D02*
X3370Y1000D01*
X3395Y1000D02*
X3470Y1000D01*
X3495Y1000D02*
X3570Y1000D01*
X3595Y1000D02*
X3670Y1000D01*
X3695Y1000D02*
X3770Y1000D01*
X2396Y999D02*
X2470Y999D01*
X2496Y999D02*
X2570Y999D01*
X2596Y999D02*
X2670Y999D01*
X2696Y999D02*
X2770Y999D01*
X2796Y999D02*
X2870Y999D01*
X2896Y999D02*
X2970Y999D01*
X2996Y999D02*
X3070Y999D01*
X3096Y999D02*
X3170Y999D01*
X3196Y999D02*
X3270Y999D01*
X3296Y999D02*
X3370Y999D01*
X3396Y999D02*
X3470Y999D01*
X3496Y999D02*
X3570Y999D01*
X3596Y999D02*
X3670Y999D01*
X3696Y999D02*
X3770Y999D01*
X2396Y998D02*
X2469Y998D01*
X2496Y998D02*
X2569Y998D01*
X2596Y998D02*
X2669Y998D01*
X2696Y998D02*
X2769Y998D01*
X2796Y998D02*
X2869Y998D01*
X2896Y998D02*
X2969Y998D01*
X2996Y998D02*
X3069Y998D01*
X3096Y998D02*
X3169Y998D01*
X3196Y998D02*
X3269Y998D01*
X3296Y998D02*
X3369Y998D01*
X3396Y998D02*
X3469Y998D01*
X3496Y998D02*
X3569Y998D01*
X3596Y998D02*
X3669Y998D01*
X3696Y998D02*
X3769Y998D01*
X2396Y997D02*
X2469Y997D01*
X2496Y997D02*
X2569Y997D01*
X2596Y997D02*
X2669Y997D01*
X2696Y997D02*
X2769Y997D01*
X2796Y997D02*
X2869Y997D01*
X2896Y997D02*
X2969Y997D01*
X2996Y997D02*
X3069Y997D01*
X3096Y997D02*
X3169Y997D01*
X3196Y997D02*
X3269Y997D01*
X3296Y997D02*
X3369Y997D01*
X3396Y997D02*
X3469Y997D01*
X3496Y997D02*
X3569Y997D01*
X3596Y997D02*
X3669Y997D01*
X3696Y997D02*
X3769Y997D01*
X2397Y996D02*
X2468Y996D01*
X2497Y996D02*
X2568Y996D01*
X2597Y996D02*
X2668Y996D01*
X2697Y996D02*
X2768Y996D01*
X2797Y996D02*
X2868Y996D01*
X2897Y996D02*
X2968Y996D01*
X2997Y996D02*
X3068Y996D01*
X3097Y996D02*
X3168Y996D01*
X3197Y996D02*
X3268Y996D01*
X3297Y996D02*
X3368Y996D01*
X3397Y996D02*
X3468Y996D01*
X3497Y996D02*
X3568Y996D01*
X3597Y996D02*
X3668Y996D01*
X3697Y996D02*
X3768Y996D01*
X2397Y995D02*
X2468Y995D01*
X2497Y995D02*
X2568Y995D01*
X2597Y995D02*
X2668Y995D01*
X2697Y995D02*
X2768Y995D01*
X2797Y995D02*
X2868Y995D01*
X2897Y995D02*
X2968Y995D01*
X2997Y995D02*
X3068Y995D01*
X3097Y995D02*
X3168Y995D01*
X3197Y995D02*
X3268Y995D01*
X3297Y995D02*
X3368Y995D01*
X3397Y995D02*
X3468Y995D01*
X3497Y995D02*
X3568Y995D01*
X3597Y995D02*
X3668Y995D01*
X3697Y995D02*
X3768Y995D01*
X2398Y994D02*
X2467Y994D01*
X2498Y994D02*
X2567Y994D01*
X2598Y994D02*
X2667Y994D01*
X2698Y994D02*
X2767Y994D01*
X2798Y994D02*
X2867Y994D01*
X2898Y994D02*
X2967Y994D01*
X2998Y994D02*
X3067Y994D01*
X3098Y994D02*
X3167Y994D01*
X3198Y994D02*
X3267Y994D01*
X3298Y994D02*
X3367Y994D01*
X3398Y994D02*
X3467Y994D01*
X3498Y994D02*
X3567Y994D01*
X3598Y994D02*
X3667Y994D01*
X3698Y994D02*
X3767Y994D01*
X2399Y993D02*
X2467Y993D01*
X2499Y993D02*
X2567Y993D01*
X2599Y993D02*
X2667Y993D01*
X2699Y993D02*
X2767Y993D01*
X2799Y993D02*
X2867Y993D01*
X2899Y993D02*
X2967Y993D01*
X2998Y993D02*
X3067Y993D01*
X3098Y993D02*
X3167Y993D01*
X3198Y993D02*
X3267Y993D01*
X3298Y993D02*
X3367Y993D01*
X3398Y993D02*
X3467Y993D01*
X3498Y993D02*
X3567Y993D01*
X3598Y993D02*
X3667Y993D01*
X3698Y993D02*
X3767Y993D01*
X2399Y992D02*
X2466Y992D01*
X2499Y992D02*
X2566Y992D01*
X2599Y992D02*
X2666Y992D01*
X2699Y992D02*
X2766Y992D01*
X2799Y992D02*
X2866Y992D01*
X2899Y992D02*
X2966Y992D01*
X2999Y992D02*
X3066Y992D01*
X3099Y992D02*
X3166Y992D01*
X3199Y992D02*
X3266Y992D01*
X3299Y992D02*
X3366Y992D01*
X3399Y992D02*
X3466Y992D01*
X3499Y992D02*
X3566Y992D01*
X3599Y992D02*
X3666Y992D01*
X3699Y992D02*
X3766Y992D01*
X2400Y991D02*
X2466Y991D01*
X2500Y991D02*
X2565Y991D01*
X2600Y991D02*
X2665Y991D01*
X2700Y991D02*
X2765Y991D01*
X2800Y991D02*
X2865Y991D01*
X2900Y991D02*
X2965Y991D01*
X3000Y991D02*
X3065Y991D01*
X3100Y991D02*
X3165Y991D01*
X3200Y991D02*
X3265Y991D01*
X3300Y991D02*
X3365Y991D01*
X3400Y991D02*
X3465Y991D01*
X3500Y991D02*
X3565Y991D01*
X3600Y991D02*
X3665Y991D01*
X3700Y991D02*
X3765Y991D01*
X2400Y990D02*
X2465Y990D01*
X2500Y990D02*
X2565Y990D01*
X2600Y990D02*
X2665Y990D01*
X2700Y990D02*
X2765Y990D01*
X2800Y990D02*
X2865Y990D01*
X2900Y990D02*
X2965Y990D01*
X3000Y990D02*
X3065Y990D01*
X3100Y990D02*
X3165Y990D01*
X3200Y990D02*
X3265Y990D01*
X3300Y990D02*
X3365Y990D01*
X3400Y990D02*
X3465Y990D01*
X3500Y990D02*
X3565Y990D01*
X3600Y990D02*
X3665Y990D01*
X3700Y990D02*
X3765Y990D01*
X2401Y989D02*
X2464Y989D01*
X2501Y989D02*
X2564Y989D01*
X2601Y989D02*
X2664Y989D01*
X2701Y989D02*
X2764Y989D01*
X2801Y989D02*
X2864Y989D01*
X2901Y989D02*
X2964Y989D01*
X3001Y989D02*
X3064Y989D01*
X3101Y989D02*
X3164Y989D01*
X3201Y989D02*
X3264Y989D01*
X3301Y989D02*
X3364Y989D01*
X3401Y989D02*
X3464Y989D01*
X3501Y989D02*
X3564Y989D01*
X3601Y989D02*
X3664Y989D01*
X3701Y989D02*
X3764Y989D01*
X2402Y988D02*
X2463Y988D01*
X2502Y988D02*
X2563Y988D01*
X2602Y988D02*
X2663Y988D01*
X2702Y988D02*
X2763Y988D01*
X2802Y988D02*
X2863Y988D01*
X2902Y988D02*
X2963Y988D01*
X3002Y988D02*
X3063Y988D01*
X3102Y988D02*
X3163Y988D01*
X3202Y988D02*
X3263Y988D01*
X3302Y988D02*
X3363Y988D01*
X3402Y988D02*
X3463Y988D01*
X3502Y988D02*
X3563Y988D01*
X3602Y988D02*
X3663Y988D01*
X3702Y988D02*
X3763Y988D01*
X2403Y987D02*
X2463Y987D01*
X2503Y987D02*
X2563Y987D01*
X2603Y987D02*
X2663Y987D01*
X2703Y987D02*
X2763Y987D01*
X2803Y987D02*
X2863Y987D01*
X2903Y987D02*
X2963Y987D01*
X3003Y987D02*
X3063Y987D01*
X3103Y987D02*
X3163Y987D01*
X3203Y987D02*
X3262Y987D01*
X3303Y987D02*
X3362Y987D01*
X3403Y987D02*
X3462Y987D01*
X3503Y987D02*
X3562Y987D01*
X3603Y987D02*
X3662Y987D01*
X3703Y987D02*
X3762Y987D01*
X2404Y986D02*
X2462Y986D01*
X2504Y986D02*
X2562Y986D01*
X2604Y986D02*
X2662Y986D01*
X2704Y986D02*
X2762Y986D01*
X2804Y986D02*
X2862Y986D01*
X2904Y986D02*
X2962Y986D01*
X3004Y986D02*
X3062Y986D01*
X3104Y986D02*
X3162Y986D01*
X3204Y986D02*
X3262Y986D01*
X3304Y986D02*
X3362Y986D01*
X3404Y986D02*
X3462Y986D01*
X3504Y986D02*
X3562Y986D01*
X3604Y986D02*
X3662Y986D01*
X3704Y986D02*
X3762Y986D01*
X2405Y985D02*
X2461Y985D01*
X2505Y985D02*
X2561Y985D01*
X2605Y985D02*
X2661Y985D01*
X2704Y985D02*
X2761Y985D01*
X2804Y985D02*
X2861Y985D01*
X2904Y985D02*
X2961Y985D01*
X3004Y985D02*
X3061Y985D01*
X3104Y985D02*
X3161Y985D01*
X3204Y985D02*
X3261Y985D01*
X3304Y985D02*
X3361Y985D01*
X3404Y985D02*
X3461Y985D01*
X3504Y985D02*
X3561Y985D01*
X3604Y985D02*
X3661Y985D01*
X3704Y985D02*
X3761Y985D01*
X2406Y984D02*
X2460Y984D01*
X2506Y984D02*
X2560Y984D01*
X2606Y984D02*
X2660Y984D01*
X2706Y984D02*
X2760Y984D01*
X2806Y984D02*
X2860Y984D01*
X2906Y984D02*
X2960Y984D01*
X3006Y984D02*
X3060Y984D01*
X3106Y984D02*
X3160Y984D01*
X3206Y984D02*
X3260Y984D01*
X3306Y984D02*
X3360Y984D01*
X3405Y984D02*
X3460Y984D01*
X3505Y984D02*
X3560Y984D01*
X3605Y984D02*
X3660Y984D01*
X3705Y984D02*
X3760Y984D01*
X2407Y983D02*
X2459Y983D01*
X2507Y983D02*
X2559Y983D01*
X2607Y983D02*
X2659Y983D01*
X2707Y983D02*
X2759Y983D01*
X2807Y983D02*
X2859Y983D01*
X2907Y983D02*
X2959Y983D01*
X3007Y983D02*
X3059Y983D01*
X3107Y983D02*
X3159Y983D01*
X3207Y983D02*
X3259Y983D01*
X3307Y983D02*
X3359Y983D01*
X3407Y983D02*
X3459Y983D01*
X3507Y983D02*
X3559Y983D01*
X3607Y983D02*
X3659Y983D01*
X3707Y983D02*
X3759Y983D01*
X2408Y982D02*
X2457Y982D01*
X2508Y982D02*
X2557Y982D01*
X2608Y982D02*
X2657Y982D01*
X2708Y982D02*
X2757Y982D01*
X2808Y982D02*
X2857Y982D01*
X2908Y982D02*
X2957Y982D01*
X3008Y982D02*
X3057Y982D01*
X3108Y982D02*
X3157Y982D01*
X3208Y982D02*
X3257Y982D01*
X3308Y982D02*
X3357Y982D01*
X3408Y982D02*
X3457Y982D01*
X3508Y982D02*
X3557Y982D01*
X3608Y982D02*
X3657Y982D01*
X3708Y982D02*
X3757Y982D01*
X2409Y981D02*
X2456Y981D01*
X2509Y981D02*
X2556Y981D01*
X2609Y981D02*
X2656Y981D01*
X2709Y981D02*
X2756Y981D01*
X2809Y981D02*
X2856Y981D01*
X2909Y981D02*
X2956Y981D01*
X3009Y981D02*
X3056Y981D01*
X3109Y981D02*
X3156Y981D01*
X3209Y981D02*
X3256Y981D01*
X3309Y981D02*
X3356Y981D01*
X3409Y981D02*
X3456Y981D01*
X3509Y981D02*
X3556Y981D01*
X3609Y981D02*
X3656Y981D01*
X3709Y981D02*
X3756Y981D01*
X2411Y980D02*
X2455Y980D01*
X2511Y980D02*
X2555Y980D01*
X2611Y980D02*
X2655Y980D01*
X2711Y980D02*
X2755Y980D01*
X2811Y980D02*
X2855Y980D01*
X2911Y980D02*
X2955Y980D01*
X3011Y980D02*
X3055Y980D01*
X3111Y980D02*
X3155Y980D01*
X3211Y980D02*
X3255Y980D01*
X3310Y980D02*
X3355Y980D01*
X3410Y980D02*
X3455Y980D01*
X3510Y980D02*
X3555Y980D01*
X3610Y980D02*
X3655Y980D01*
X3710Y980D02*
X3755Y980D01*
X2412Y979D02*
X2453Y979D01*
X2512Y979D02*
X2553Y979D01*
X2612Y979D02*
X2653Y979D01*
X2712Y979D02*
X2753Y979D01*
X2812Y979D02*
X2853Y979D01*
X2912Y979D02*
X2953Y979D01*
X3012Y979D02*
X3053Y979D01*
X3112Y979D02*
X3153Y979D01*
X3212Y979D02*
X3253Y979D01*
X3312Y979D02*
X3353Y979D01*
X3412Y979D02*
X3453Y979D01*
X3512Y979D02*
X3553Y979D01*
X3612Y979D02*
X3653Y979D01*
X3712Y979D02*
X3753Y979D01*
X2414Y978D02*
X2452Y978D01*
X2514Y978D02*
X2552Y978D01*
X2614Y978D02*
X2652Y978D01*
X2714Y978D02*
X2752Y978D01*
X2814Y978D02*
X2852Y978D01*
X2914Y978D02*
X2952Y978D01*
X3014Y978D02*
X3052Y978D01*
X3114Y978D02*
X3151Y978D01*
X3214Y978D02*
X3251Y978D01*
X3314Y978D02*
X3351Y978D01*
X3414Y978D02*
X3451Y978D01*
X3514Y978D02*
X3551Y978D01*
X3614Y978D02*
X3651Y978D01*
X3714Y978D02*
X3751Y978D01*
X2416Y977D02*
X2450Y977D01*
X2516Y977D02*
X2550Y977D01*
X2616Y977D02*
X2650Y977D01*
X2716Y977D02*
X2750Y977D01*
X2816Y977D02*
X2850Y977D01*
X2916Y977D02*
X2950Y977D01*
X3016Y977D02*
X3050Y977D01*
X3116Y977D02*
X3150Y977D01*
X3216Y977D02*
X3250Y977D01*
X3316Y977D02*
X3350Y977D01*
X3416Y977D02*
X3450Y977D01*
X3516Y977D02*
X3550Y977D01*
X3616Y977D02*
X3650Y977D01*
X3716Y977D02*
X3750Y977D01*
X2418Y976D02*
X2448Y976D01*
X2518Y976D02*
X2548Y976D01*
X2618Y976D02*
X2648Y976D01*
X2718Y976D02*
X2748Y976D01*
X2818Y976D02*
X2848Y976D01*
X2918Y976D02*
X2948Y976D01*
X3018Y976D02*
X3047Y976D01*
X3118Y976D02*
X3147Y976D01*
X3218Y976D02*
X3247Y976D01*
X3318Y976D02*
X3347Y976D01*
X3418Y976D02*
X3447Y976D01*
X3518Y976D02*
X3547Y976D01*
X3618Y976D02*
X3647Y976D01*
X3718Y976D02*
X3747Y976D01*
X2421Y975D02*
X2445Y975D01*
X2521Y975D02*
X2545Y975D01*
X2621Y975D02*
X2645Y975D01*
X2721Y975D02*
X2745Y975D01*
X2821Y975D02*
X2845Y975D01*
X2921Y975D02*
X2945Y975D01*
X3021Y975D02*
X3045Y975D01*
X3121Y975D02*
X3145Y975D01*
X3220Y975D02*
X3245Y975D01*
X3320Y975D02*
X3345Y975D01*
X3420Y975D02*
X3445Y975D01*
X3520Y975D02*
X3545Y975D01*
X3620Y975D02*
X3645Y975D01*
X3720Y975D02*
X3745Y975D01*
X2424Y974D02*
X2441Y974D01*
X2524Y974D02*
X2541Y974D01*
X2624Y974D02*
X2641Y974D01*
X2724Y974D02*
X2741Y974D01*
X2824Y974D02*
X2841Y974D01*
X2924Y974D02*
X2941Y974D01*
X3024Y974D02*
X3041Y974D01*
X3124Y974D02*
X3141Y974D01*
X3224Y974D02*
X3241Y974D01*
X3324Y974D02*
X3341Y974D01*
X3424Y974D02*
X3441Y974D01*
X3524Y974D02*
X3541Y974D01*
X3624Y974D02*
X3641Y974D01*
X3724Y974D02*
X3741Y974D01*
X2432Y973D02*
X2434Y973D01*
X2532Y973D02*
X2534Y973D01*
X2632Y973D02*
X2634Y973D01*
X2732Y973D02*
X2734Y973D01*
X2832Y973D02*
X2834Y973D01*
X2932Y973D02*
X2934Y973D01*
X3032Y973D02*
X3034Y973D01*
X3131Y973D02*
X3134Y973D01*
X3231Y973D02*
X3234Y973D01*
X3331Y973D02*
X3334Y973D01*
X3431Y973D02*
X3434Y973D01*
X3531Y973D02*
X3534Y973D01*
X3631Y973D02*
X3634Y973D01*
X3731Y973D02*
X3734Y973D01*
D02*
G04 End of Mask1*
M02*