; NON-PLATED HOLES START AT T1
; THROUGH (PLATED) HOLES START AT T100
M48
INCH
T1C0.125984
T2C0.130000
T100C0.035000
T101C0.030000
T102C0.031497
T103C0.038000
T104C0.046472
T105C0.098425
T106C0.039370
T107C0.040000
T108C0.015748
%
T1
X001388Y001562
X001388Y038562
X066388Y001562
X032388Y006562
X032388Y038562
X066388Y038562
T2
X021388Y037461
X010388Y037462
T100
X043388Y018562
X028388Y033562
X014388Y028562
X046388Y018562
X043388Y011562
X043388Y024562
X046388Y011562
X043388Y016562
X046388Y024562
X043388Y029562
X046388Y016562
X046388Y029562
X043388Y030562
X032388Y033562
X043388Y022562
X046388Y030562
X043388Y035562
X046388Y022562
X043388Y027562
X046388Y035562
X046388Y027562
X043388Y033562
X043388Y012562
X046388Y033562
X046388Y012562
X020388Y016562
X043388Y017562
X014388Y027562
X043388Y009562
X046388Y017562
X046388Y009562
X024388Y016562
X043388Y010562
X043388Y023562
X043388Y036562
X046388Y010562
X043388Y015562
X046388Y023562
X043388Y028562
X046388Y036562
X046388Y015562
X046388Y028562
X043388Y021562
X043388Y034562
X046388Y021562
X046388Y034562
T101
X041388Y018563
X018388Y028562
X041388Y011562
X041388Y024563
X027388Y010562
X025388Y010562
X041388Y016563
X041388Y029562
X028388Y010562
X026388Y010562
X024388Y010562
X025388Y028562
X041388Y030563
X029388Y010562
X041388Y022563
X041388Y035562
X006388Y027562
X041388Y027562
X030388Y010562
X025388Y013562
X027388Y013562
X033388Y010562
X031388Y010562
X035388Y010562
X037388Y010562
X024388Y013562
X028388Y013562
X026388Y013562
X032388Y010562
X034388Y010562
X036388Y010562
X041388Y033562
X020388Y011560
X029388Y013562
X041388Y012563
X041388Y017562
X018388Y027562
X030388Y013562
X041388Y009562
X025388Y029563
X031388Y013562
X035388Y013562
X033388Y013562
X037388Y013562
X041388Y010563
X041388Y023562
X034388Y013562
X032388Y013562
X036388Y013562
X041388Y036563
X041388Y015562
X006388Y028563
X041388Y028563
X041388Y021562
X041388Y034563
X020388Y012562
T102
X058388Y029562
X058388Y023562
X058388Y034577
X035388Y032577
X010388Y022577
X058388Y035562
X035388Y033562
X058388Y016577
X058388Y010577
X010388Y023562
X058388Y017562
X058388Y011562
X058388Y028577
X058388Y022577
T103
X000888Y016062
X066328Y024625
X066328Y025625
X000888Y011062
X066328Y026625
X000888Y012062
X066328Y020625
X066328Y017625
X066328Y027625
X000888Y013062
X066328Y021625
X066328Y018625
X066328Y028625
X000888Y014062
X066328Y022625
X066328Y019625
X000888Y015062
X066328Y023625
T104
X022388Y031561
X021388Y031561
X020388Y031561
T105
X016888Y017562
X016888Y009562
X003888Y017562
X003888Y009562
T106
X013388Y009562
X009388Y009562
X015388Y017562
X012388Y009562
X003688Y014062
X014388Y017562
X007388Y009562
X010388Y009562
X006388Y009562
X003688Y011062
X008388Y017562
X011388Y017562
X003688Y016062
X015388Y009562
X003688Y013062
X014388Y009562
X008388Y009562
X011388Y009562
X013388Y017562
X009388Y017562
X012388Y017562
X007388Y017562
X003688Y015062
X010388Y017562
X006388Y017562
X003688Y012062
T107
X001388Y032939
X001388Y031561
X011388Y031562
X010388Y031562
X009388Y031562
T108
X047384Y013586
X042412Y026564
X047384Y032583
X042412Y013586
X036393Y034571
X050367Y005578
X024409Y006573
X027392Y003537
X059368Y027559
X055391Y028553
X039376Y011544
X030375Y006573
X054396Y020546
X029381Y030542
X047384Y019552
X039376Y015574
X049372Y013586
X023362Y005578
X039900Y031536
X035399Y001549
X047384Y020546
X042412Y020546
X038905Y019552
X037388Y032583
X038382Y011544
X041365Y008561
X020903Y008038
X033410Y015574
X039376Y026564
X037388Y019552
X021374Y011544
X022368Y014580
X048378Y011544
X026398Y030542
X047384Y031536
X038382Y010550
X027392Y017563
X055391Y025570
X031369Y008038
X049372Y004584
X026398Y027559
X040371Y003537
X038382Y007567
X040371Y007567
X038382Y013586
X048378Y008561
X022368Y002543
X039900Y032583
X056385Y031536
X025403Y004584
X038382Y002543
X021374Y013586
X057379Y027559
X054396Y014580
X034405Y006573
X044401Y004584
X049372Y011544
X049372Y028553
X036393Y031536
X045395Y006573
X038905Y034571
X054396Y032583
X047384Y014580
X023362Y013586
X042412Y014580
X049372Y027559
X050367Y019552
X016402Y020075
X025403Y015574
X025403Y034571
X039376Y022587
T00
M30
