G04 MADE WITH FRITZING*
G04 WWW.FRITZING.ORG*
G04 DOUBLE SIDED*
G04 HOLES PLATED*
G04 CONTOUR ON CENTER OF CONTOUR VECTOR*
%ASAXBY*%
%FSLAX23Y23*%
%MOIN*%
%OFA0B0*%
%SFA1.0B1.0*%
%ADD10C,0.070000*%
%ADD11C,0.078000*%
%ADD12C,0.039370*%
%ADD13C,0.060000*%
%ADD14C,0.075000*%
%ADD15C,0.062992*%
%ADD16C,0.053528*%
%ADD17C,0.080000*%
%ADD18C,0.138425*%
%ADD19R,0.075000X0.075000*%
%ADD20R,0.062992X0.062992*%
%ADD21R,0.080000X0.080000*%
%ADD22C,0.024000*%
%ADD23R,0.001000X0.001000*%
%LNCOPPER0*%
G90*
G70*
G54D10*
X2439Y1056D03*
X3639Y1356D03*
X2539Y1056D03*
X3739Y1356D03*
X2639Y1056D03*
X2739Y1056D03*
X2839Y1056D03*
X2939Y1056D03*
X3739Y1056D03*
X3639Y1056D03*
X3539Y1056D03*
X3439Y1056D03*
X3039Y1056D03*
X3239Y1056D03*
X3139Y1056D03*
X3339Y1056D03*
X3239Y1356D03*
X3339Y1356D03*
X3439Y1356D03*
X3539Y1356D03*
X3039Y1356D03*
X3139Y1356D03*
X2639Y1356D03*
X2739Y1356D03*
X2839Y1356D03*
X2939Y1356D03*
X2439Y1356D03*
X2539Y1356D03*
G54D11*
X6633Y2863D03*
X6633Y2763D03*
X6633Y2663D03*
X6633Y2563D03*
X6633Y2463D03*
X6633Y2363D03*
X6633Y2263D03*
X6633Y2163D03*
X6633Y2063D03*
X6633Y1963D03*
X6633Y1863D03*
X6633Y1763D03*
G54D12*
X2640Y3054D03*
X2938Y3054D03*
X2640Y2756D03*
X2540Y3457D03*
X3639Y3457D03*
X2137Y1154D03*
X2137Y1359D03*
X5937Y2756D03*
X4937Y2756D03*
X5539Y2557D03*
X2336Y1359D03*
X2336Y558D03*
X5037Y558D03*
X4440Y458D03*
X2540Y458D03*
X4540Y657D03*
X3441Y657D03*
X3038Y657D03*
X2441Y657D03*
X4037Y757D03*
X5440Y3258D03*
X4738Y3258D03*
X3739Y3258D03*
X3739Y1955D03*
X5639Y3154D03*
X4738Y3154D03*
X2739Y1756D03*
X4241Y2055D03*
X3341Y1557D03*
X4241Y1458D03*
X4137Y856D03*
X4838Y856D03*
X4738Y1458D03*
X5440Y1458D03*
X4738Y2055D03*
X5440Y2055D03*
X4838Y1154D03*
X3938Y2656D03*
X3938Y2259D03*
X4241Y2656D03*
X4937Y1359D03*
X4738Y1359D03*
X4241Y1359D03*
X3838Y1359D03*
X3838Y1154D03*
X4937Y2855D03*
X5539Y2855D03*
X2739Y354D03*
X4037Y354D03*
X2540Y1557D03*
X2237Y1458D03*
X2237Y254D03*
X3838Y254D03*
X3838Y757D03*
X3838Y1055D03*
X3540Y155D03*
X4738Y1955D03*
X5037Y1955D03*
X4937Y1154D03*
X4937Y458D03*
X3891Y1955D03*
X3891Y3457D03*
X3137Y804D03*
X2090Y804D03*
X5738Y2756D03*
G54D11*
X89Y1606D03*
X89Y1506D03*
X89Y1406D03*
X89Y1306D03*
X89Y1206D03*
X89Y1106D03*
G54D12*
X3990Y3258D03*
X3990Y3154D03*
X3639Y3154D03*
X3938Y1557D03*
X3938Y1154D03*
X1640Y2008D03*
G54D13*
X939Y3156D03*
X1039Y3156D03*
X1139Y3156D03*
G54D14*
X1439Y2756D03*
X1439Y2856D03*
G54D10*
X639Y2756D03*
X639Y2856D03*
X1839Y2756D03*
X1839Y2856D03*
G54D15*
X1039Y2258D03*
X1039Y2356D03*
G54D16*
X2039Y3156D03*
X2139Y3156D03*
X2239Y3156D03*
G54D14*
X4339Y3656D03*
X4639Y3656D03*
X4339Y3556D03*
X4639Y3556D03*
X4339Y3456D03*
X4639Y3456D03*
X4339Y3356D03*
X4639Y3356D03*
X4339Y3056D03*
X4639Y3056D03*
X4339Y2956D03*
X4639Y2956D03*
X4339Y2856D03*
X4639Y2856D03*
X4339Y2756D03*
X4639Y2756D03*
X4339Y2456D03*
X4639Y2456D03*
X4339Y2356D03*
X4639Y2356D03*
X4339Y2256D03*
X4639Y2256D03*
X4339Y2156D03*
X4639Y2156D03*
X4339Y1856D03*
X4639Y1856D03*
X4339Y1756D03*
X4639Y1756D03*
X4339Y1656D03*
X4639Y1656D03*
X4339Y1556D03*
X4639Y1556D03*
X4339Y1256D03*
X4639Y1256D03*
X4339Y1156D03*
X4639Y1156D03*
X4339Y1056D03*
X4639Y1056D03*
X4339Y956D03*
X4639Y956D03*
X2039Y1656D03*
X2439Y1656D03*
G54D10*
X4139Y956D03*
X4139Y1056D03*
X4139Y1156D03*
X4139Y1256D03*
X4139Y1556D03*
X4139Y1656D03*
X4139Y1756D03*
X4139Y1856D03*
X4139Y2156D03*
X4139Y2256D03*
X4139Y2356D03*
X4139Y2456D03*
X4139Y2756D03*
X4139Y2856D03*
X4139Y2956D03*
X4139Y3056D03*
X4139Y3356D03*
X4139Y3456D03*
X4139Y3556D03*
X4139Y3656D03*
X2039Y1256D03*
X2039Y1156D03*
X2539Y2856D03*
X2539Y2956D03*
G54D15*
X3539Y3258D03*
X3539Y3356D03*
G54D14*
X2839Y3356D03*
X3239Y3356D03*
G54D17*
X139Y3156D03*
X139Y3294D03*
G54D15*
X5839Y3458D03*
X5839Y3556D03*
X5839Y2858D03*
X5839Y2956D03*
X5839Y2258D03*
X5839Y2356D03*
X5839Y1658D03*
X5839Y1756D03*
X5839Y1058D03*
X5839Y1156D03*
G54D18*
X389Y1756D03*
X1689Y1756D03*
G54D10*
X369Y1606D03*
X369Y1506D03*
X369Y1406D03*
X369Y1306D03*
X369Y1206D03*
X369Y1106D03*
X1539Y1756D03*
X1439Y1756D03*
X1339Y1756D03*
X1239Y1756D03*
X1139Y1756D03*
X1039Y1756D03*
X939Y1756D03*
X839Y1756D03*
X739Y1756D03*
G54D18*
X1689Y956D03*
G54D10*
X639Y1756D03*
G54D18*
X389Y956D03*
G54D10*
X639Y956D03*
X739Y956D03*
X839Y956D03*
X939Y956D03*
X1039Y956D03*
X1139Y956D03*
X1239Y956D03*
X1339Y956D03*
X1439Y956D03*
X1539Y956D03*
G54D19*
X1439Y2756D03*
G54D20*
X1039Y2258D03*
G54D19*
X4339Y3656D03*
X4339Y3056D03*
X4339Y2456D03*
X4339Y1856D03*
X4339Y1256D03*
G54D20*
X3539Y3258D03*
G54D21*
X139Y3156D03*
G54D20*
X5839Y3458D03*
X5839Y2858D03*
X5839Y2258D03*
X5839Y1658D03*
X5839Y1058D03*
G54D22*
X641Y3154D02*
X639Y2883D01*
D02*
X170Y3156D02*
X641Y3154D01*
D02*
X939Y2855D02*
X939Y3125D01*
D02*
X665Y2856D02*
X939Y2855D01*
D02*
X1038Y2756D02*
X1410Y2756D01*
D02*
X1039Y3125D02*
X1038Y2756D01*
D02*
X1138Y2855D02*
X1410Y2856D01*
D02*
X1139Y3125D02*
X1138Y2855D01*
D02*
X1813Y2856D02*
X1467Y2856D01*
D02*
X1467Y2756D02*
X1813Y2756D01*
D02*
X2038Y2855D02*
X1865Y2856D01*
D02*
X2039Y3122D02*
X2038Y2855D01*
D02*
X2137Y2756D02*
X1865Y2756D01*
D02*
X2139Y3122D02*
X2137Y2756D01*
D02*
X3540Y2955D02*
X2565Y2956D01*
D02*
X3539Y3231D02*
X3540Y2955D01*
D02*
X2540Y3154D02*
X2539Y2983D01*
D02*
X2273Y3156D02*
X2540Y3154D01*
D02*
X3512Y3356D02*
X3267Y3356D01*
D02*
X1441Y2358D02*
X1439Y2728D01*
D02*
X1066Y2356D02*
X1441Y2358D01*
D02*
X641Y2358D02*
X1012Y2356D01*
D02*
X639Y2730D02*
X641Y2358D01*
D02*
X1138Y2055D02*
X1038Y2055D01*
D02*
X1038Y2055D02*
X1039Y2231D01*
D02*
X1139Y1787D02*
X1138Y2055D01*
D02*
X840Y1155D02*
X2013Y1156D01*
D02*
X839Y987D02*
X840Y1154D01*
D02*
X1991Y757D02*
X1991Y856D01*
D02*
X1991Y856D02*
X3540Y856D01*
D02*
X3540Y856D02*
X3539Y1030D01*
D02*
X1337Y757D02*
X1991Y757D01*
D02*
X1338Y925D02*
X1337Y757D01*
D02*
X1237Y657D02*
X1239Y925D01*
D02*
X3639Y757D02*
X2190Y757D01*
D02*
X2190Y757D02*
X2190Y657D01*
D02*
X2190Y657D02*
X1237Y657D01*
D02*
X3639Y1030D02*
X3639Y757D01*
D02*
X2038Y956D02*
X2039Y1130D01*
D02*
X3236Y956D02*
X2038Y956D01*
D02*
X3238Y1030D02*
X3236Y956D01*
D02*
X2839Y3954D02*
X2839Y3385D01*
D02*
X5837Y3954D02*
X2839Y3954D01*
D02*
X5839Y3583D02*
X5837Y3954D01*
D02*
X4937Y2955D02*
X4667Y2956D01*
D02*
X4937Y3855D02*
X4937Y2955D01*
D02*
X3639Y3855D02*
X4937Y3855D01*
D02*
X3639Y3476D02*
X3639Y3855D01*
D02*
X737Y3959D02*
X1639Y3959D01*
D02*
X1639Y3959D02*
X2540Y3959D01*
D02*
X737Y3159D02*
X737Y3959D01*
D02*
X2540Y3959D02*
X2540Y3476D01*
D02*
X908Y3157D02*
X737Y3159D01*
D02*
X5937Y3154D02*
X5837Y3154D01*
D02*
X5837Y3154D02*
X5839Y2983D01*
D02*
X5937Y3557D02*
X5937Y3154D01*
D02*
X5866Y3556D02*
X5937Y3557D01*
D02*
X5738Y2737D02*
X5738Y2358D01*
D02*
X5738Y2358D02*
X5812Y2357D01*
D02*
X5937Y2055D02*
X5837Y2055D01*
D02*
X5837Y2055D02*
X5839Y1783D01*
D02*
X5937Y2358D02*
X5937Y2055D01*
D02*
X5866Y2357D02*
X5937Y2358D01*
D02*
X5937Y1155D02*
X5866Y1156D01*
D02*
X5937Y1756D02*
X5937Y1154D01*
D02*
X5866Y1756D02*
X5937Y1756D01*
D02*
X6439Y2855D02*
X6603Y2861D01*
D02*
X6439Y2955D02*
X6439Y2855D01*
D02*
X5866Y2956D02*
X6439Y2955D01*
D02*
X4165Y3056D02*
X4310Y3056D01*
D02*
X4310Y2956D02*
X4165Y2956D01*
D02*
X4310Y3356D02*
X4165Y3356D01*
D02*
X4165Y3456D02*
X4310Y3456D01*
D02*
X4165Y2456D02*
X4310Y2456D01*
D02*
X4310Y2356D02*
X4165Y2356D01*
D02*
X4165Y2256D02*
X4310Y2256D01*
D02*
X4310Y2156D02*
X4165Y2156D01*
D02*
X4165Y1856D02*
X4310Y1856D01*
D02*
X4310Y1756D02*
X4165Y1756D01*
D02*
X4165Y1656D02*
X4310Y1656D01*
D02*
X4310Y1556D02*
X4165Y1556D01*
D02*
X4165Y2856D02*
X4310Y2856D01*
D02*
X4310Y2756D02*
X4165Y2756D01*
D02*
X4165Y1256D02*
X4310Y1256D01*
D02*
X4310Y1156D02*
X4165Y1156D01*
D02*
X4165Y1056D02*
X4310Y1056D01*
D02*
X4310Y956D02*
X4165Y956D01*
D02*
X3341Y1254D02*
X3339Y1082D01*
D02*
X2065Y1256D02*
X3341Y1254D01*
D02*
X4738Y1055D02*
X4667Y1056D01*
D02*
X6439Y1756D02*
X6439Y856D01*
D02*
X6439Y856D02*
X5141Y856D01*
D02*
X5141Y856D02*
X5141Y1055D01*
D02*
X5141Y1055D02*
X4738Y1055D01*
D02*
X6603Y1762D02*
X6439Y1756D01*
D02*
X4310Y3556D02*
X4165Y3556D01*
D02*
X4165Y3656D02*
X4310Y3656D01*
D02*
X2640Y1155D02*
X2639Y1082D01*
D02*
X2156Y1155D02*
X2640Y1155D01*
D02*
X2137Y2458D02*
X2137Y1378D01*
D02*
X2441Y2458D02*
X2137Y2458D01*
D02*
X2441Y2756D02*
X2441Y2458D01*
D02*
X2621Y2756D02*
X2441Y2756D01*
D02*
X2919Y3054D02*
X2659Y3054D01*
D02*
X4737Y1756D02*
X4667Y1756D01*
D02*
X4738Y1557D02*
X4737Y1756D01*
D02*
X4667Y1557D02*
X4738Y1557D01*
D02*
X4738Y2358D02*
X4667Y2357D01*
D02*
X4738Y2154D02*
X4738Y2358D01*
D02*
X4667Y2156D02*
X4738Y2154D01*
D02*
X4738Y3358D02*
X4667Y3357D01*
D02*
X4738Y3557D02*
X4738Y3358D01*
D02*
X4667Y3556D02*
X4738Y3557D01*
D02*
X4918Y2756D02*
X4667Y2756D01*
D02*
X6603Y2762D02*
X5956Y2756D01*
D02*
X4918Y2855D02*
X4667Y2856D01*
D02*
X5539Y2576D02*
X5539Y2836D01*
D02*
X2355Y558D02*
X5018Y558D01*
D02*
X2413Y1357D02*
X2355Y1358D01*
D02*
X3665Y1356D02*
X3713Y1356D01*
D02*
X3565Y1356D02*
X3613Y1356D01*
D02*
X3540Y1254D02*
X3357Y1075D01*
D02*
X3539Y1330D02*
X3540Y1254D01*
D02*
X2559Y458D02*
X4421Y458D01*
D02*
X3460Y657D02*
X4521Y657D01*
D02*
X2460Y657D02*
X3019Y657D01*
D02*
X4037Y2855D02*
X4037Y776D01*
D02*
X4113Y2856D02*
X4037Y2855D01*
D02*
X3739Y3239D02*
X3739Y1974D01*
D02*
X5639Y3258D02*
X5459Y3258D01*
D02*
X5639Y3457D02*
X5639Y3258D01*
D02*
X5812Y3458D02*
X5639Y3457D01*
D02*
X5639Y2855D02*
X5639Y3135D01*
D02*
X5812Y2857D02*
X5639Y2855D01*
D02*
X4719Y2055D02*
X4260Y2055D01*
D02*
X5440Y2259D02*
X5440Y2074D01*
D02*
X5812Y2258D02*
X5440Y2259D01*
D02*
X4719Y1458D02*
X4260Y1458D01*
D02*
X3322Y1557D02*
X2559Y1557D01*
D02*
X5440Y1657D02*
X5440Y1477D01*
D02*
X5812Y1658D02*
X5440Y1657D01*
D02*
X4819Y856D02*
X4156Y856D01*
D02*
X4838Y2557D02*
X4838Y1173D01*
D02*
X4137Y2557D02*
X4838Y2557D01*
D02*
X4138Y2482D02*
X4137Y2557D01*
D02*
X4719Y1359D02*
X4260Y1359D01*
D02*
X3838Y1340D02*
X3838Y1173D01*
D02*
X4937Y1856D02*
X4937Y1378D01*
D02*
X4937Y2656D02*
X4937Y1856D01*
D02*
X4260Y2656D02*
X4937Y2656D01*
D02*
X3938Y2278D02*
X3938Y2638D01*
D02*
X4018Y354D02*
X2758Y354D01*
D02*
X3838Y776D02*
X3838Y1036D01*
D02*
X2938Y1458D02*
X2256Y1458D01*
D02*
X2256Y254D02*
X3819Y254D01*
D02*
X2939Y1382D02*
X2938Y1458D01*
D02*
X4937Y439D02*
X4937Y155D01*
D02*
X4937Y155D02*
X3559Y155D01*
D02*
X5037Y1155D02*
X4956Y1155D01*
D02*
X5037Y1936D02*
X5037Y1155D01*
D02*
X4137Y1955D02*
X4719Y1955D01*
D02*
X4138Y1882D02*
X4137Y1955D01*
D02*
X2109Y804D02*
X3118Y804D01*
D02*
X3891Y1974D02*
X3891Y3438D01*
D02*
X338Y1506D02*
X119Y1506D01*
D02*
X338Y1406D02*
X119Y1406D01*
D02*
X119Y1306D02*
X338Y1306D01*
D02*
X338Y1106D02*
X119Y1106D01*
D02*
X4440Y2756D02*
X4367Y2756D01*
D02*
X4440Y2955D02*
X4440Y2756D01*
D02*
X4367Y2956D02*
X4440Y2955D01*
D02*
X4719Y3258D02*
X4009Y3258D01*
D02*
X4719Y3154D02*
X4009Y3154D01*
D02*
X4037Y3358D02*
X4113Y3357D01*
D02*
X4037Y3557D02*
X4037Y3358D01*
D02*
X4113Y3556D02*
X4037Y3557D01*
D02*
X3938Y1173D02*
X3938Y1538D01*
D02*
X3739Y1557D02*
X3919Y1557D01*
D02*
X3739Y1382D02*
X3739Y1557D01*
D02*
X3639Y2604D02*
X3639Y3135D01*
D02*
X2739Y2604D02*
X3639Y2604D01*
D02*
X2739Y1775D02*
X2739Y2604D01*
D02*
X3341Y1458D02*
X3339Y1382D01*
D02*
X3488Y1458D02*
X3341Y1458D01*
D02*
X3488Y1657D02*
X3488Y1458D01*
D02*
X2467Y1656D02*
X3488Y1657D01*
D02*
X1640Y2557D02*
X1640Y2027D01*
D02*
X2237Y2557D02*
X1640Y2557D01*
D02*
X2239Y3122D02*
X2237Y2557D01*
G54D23*
X933Y3216D02*
X943Y3216D01*
X1033Y3216D02*
X1043Y3216D01*
X1133Y3216D02*
X1143Y3216D01*
X2033Y3216D02*
X2043Y3216D01*
X2133Y3216D02*
X2143Y3216D01*
X2233Y3216D02*
X2243Y3216D01*
X929Y3215D02*
X947Y3215D01*
X1029Y3215D02*
X1047Y3215D01*
X1129Y3215D02*
X1147Y3215D01*
X2029Y3215D02*
X2047Y3215D01*
X2129Y3215D02*
X2147Y3215D01*
X2229Y3215D02*
X2247Y3215D01*
X927Y3214D02*
X950Y3214D01*
X1027Y3214D02*
X1050Y3214D01*
X1127Y3214D02*
X1150Y3214D01*
X2027Y3214D02*
X2050Y3214D01*
X2126Y3214D02*
X2150Y3214D01*
X2226Y3214D02*
X2250Y3214D01*
X925Y3213D02*
X952Y3213D01*
X1025Y3213D02*
X1052Y3213D01*
X1125Y3213D02*
X1152Y3213D01*
X2024Y3213D02*
X2052Y3213D01*
X2124Y3213D02*
X2152Y3213D01*
X2224Y3213D02*
X2252Y3213D01*
X923Y3212D02*
X954Y3212D01*
X1023Y3212D02*
X1054Y3212D01*
X1123Y3212D02*
X1154Y3212D01*
X2023Y3212D02*
X2053Y3212D01*
X2123Y3212D02*
X2153Y3212D01*
X2223Y3212D02*
X2253Y3212D01*
X921Y3211D02*
X955Y3211D01*
X1021Y3211D02*
X1055Y3211D01*
X1121Y3211D02*
X1155Y3211D01*
X2021Y3211D02*
X2055Y3211D01*
X2121Y3211D02*
X2155Y3211D01*
X2221Y3211D02*
X2255Y3211D01*
X920Y3210D02*
X956Y3210D01*
X1020Y3210D02*
X1056Y3210D01*
X1120Y3210D02*
X1156Y3210D01*
X2020Y3210D02*
X2056Y3210D01*
X2120Y3210D02*
X2156Y3210D01*
X2220Y3210D02*
X2256Y3210D01*
X919Y3209D02*
X958Y3209D01*
X1019Y3209D02*
X1058Y3209D01*
X1119Y3209D02*
X1158Y3209D01*
X2019Y3209D02*
X2057Y3209D01*
X2119Y3209D02*
X2157Y3209D01*
X2219Y3209D02*
X2257Y3209D01*
X918Y3208D02*
X959Y3208D01*
X1018Y3208D02*
X1059Y3208D01*
X1118Y3208D02*
X1159Y3208D01*
X2018Y3208D02*
X2059Y3208D01*
X2118Y3208D02*
X2159Y3208D01*
X2218Y3208D02*
X2259Y3208D01*
X917Y3207D02*
X960Y3207D01*
X1017Y3207D02*
X1060Y3207D01*
X1117Y3207D02*
X1160Y3207D01*
X2017Y3207D02*
X2059Y3207D01*
X2117Y3207D02*
X2159Y3207D01*
X2217Y3207D02*
X2259Y3207D01*
X916Y3206D02*
X961Y3206D01*
X1016Y3206D02*
X1061Y3206D01*
X1116Y3206D02*
X1161Y3206D01*
X2016Y3206D02*
X2060Y3206D01*
X2116Y3206D02*
X2160Y3206D01*
X2216Y3206D02*
X2260Y3206D01*
X915Y3205D02*
X961Y3205D01*
X1015Y3205D02*
X1061Y3205D01*
X1115Y3205D02*
X1161Y3205D01*
X2015Y3205D02*
X2061Y3205D01*
X2115Y3205D02*
X2161Y3205D01*
X2215Y3205D02*
X2261Y3205D01*
X914Y3204D02*
X962Y3204D01*
X1014Y3204D02*
X1062Y3204D01*
X1114Y3204D02*
X1162Y3204D01*
X2014Y3204D02*
X2062Y3204D01*
X2114Y3204D02*
X2162Y3204D01*
X2214Y3204D02*
X2262Y3204D01*
X914Y3203D02*
X963Y3203D01*
X1014Y3203D02*
X1063Y3203D01*
X1114Y3203D02*
X1163Y3203D01*
X2014Y3203D02*
X2063Y3203D01*
X2114Y3203D02*
X2163Y3203D01*
X2213Y3203D02*
X2263Y3203D01*
X913Y3202D02*
X963Y3202D01*
X1013Y3202D02*
X1063Y3202D01*
X1113Y3202D02*
X1163Y3202D01*
X2013Y3202D02*
X2063Y3202D01*
X2113Y3202D02*
X2163Y3202D01*
X2213Y3202D02*
X2263Y3202D01*
X912Y3201D02*
X964Y3201D01*
X1012Y3201D02*
X1064Y3201D01*
X1112Y3201D02*
X1164Y3201D01*
X2012Y3201D02*
X2064Y3201D01*
X2112Y3201D02*
X2164Y3201D01*
X2212Y3201D02*
X2264Y3201D01*
X912Y3200D02*
X964Y3200D01*
X1012Y3200D02*
X1064Y3200D01*
X1112Y3200D02*
X1164Y3200D01*
X2012Y3200D02*
X2064Y3200D01*
X2112Y3200D02*
X2164Y3200D01*
X2212Y3200D02*
X2264Y3200D01*
X911Y3199D02*
X965Y3199D01*
X1011Y3199D02*
X1065Y3199D01*
X1111Y3199D02*
X1165Y3199D01*
X2011Y3199D02*
X2065Y3199D01*
X2111Y3199D02*
X2165Y3199D01*
X2211Y3199D02*
X2265Y3199D01*
X911Y3198D02*
X965Y3198D01*
X1011Y3198D02*
X1065Y3198D01*
X1111Y3198D02*
X1165Y3198D01*
X2011Y3198D02*
X2065Y3198D01*
X2111Y3198D02*
X2165Y3198D01*
X2211Y3198D02*
X2265Y3198D01*
X911Y3197D02*
X966Y3197D01*
X1011Y3197D02*
X1066Y3197D01*
X1111Y3197D02*
X1166Y3197D01*
X2010Y3197D02*
X2066Y3197D01*
X2110Y3197D02*
X2166Y3197D01*
X2210Y3197D02*
X2266Y3197D01*
X910Y3196D02*
X966Y3196D01*
X1010Y3196D02*
X1066Y3196D01*
X1110Y3196D02*
X1166Y3196D01*
X2010Y3196D02*
X2066Y3196D01*
X2110Y3196D02*
X2166Y3196D01*
X2210Y3196D02*
X2266Y3196D01*
X910Y3195D02*
X966Y3195D01*
X1010Y3195D02*
X1066Y3195D01*
X1110Y3195D02*
X1166Y3195D01*
X2010Y3195D02*
X2066Y3195D01*
X2110Y3195D02*
X2166Y3195D01*
X2210Y3195D02*
X2266Y3195D01*
X910Y3194D02*
X967Y3194D01*
X1010Y3194D02*
X1067Y3194D01*
X1110Y3194D02*
X1167Y3194D01*
X2010Y3194D02*
X2067Y3194D01*
X2110Y3194D02*
X2167Y3194D01*
X2210Y3194D02*
X2267Y3194D01*
X909Y3193D02*
X967Y3193D01*
X1009Y3193D02*
X1067Y3193D01*
X1109Y3193D02*
X1167Y3193D01*
X2009Y3193D02*
X2067Y3193D01*
X2109Y3193D02*
X2167Y3193D01*
X2209Y3193D02*
X2267Y3193D01*
X909Y3192D02*
X967Y3192D01*
X1009Y3192D02*
X1067Y3192D01*
X1109Y3192D02*
X1167Y3192D01*
X2009Y3192D02*
X2067Y3192D01*
X2109Y3192D02*
X2167Y3192D01*
X2209Y3192D02*
X2267Y3192D01*
X909Y3191D02*
X967Y3191D01*
X1009Y3191D02*
X1067Y3191D01*
X1109Y3191D02*
X1167Y3191D01*
X2009Y3191D02*
X2067Y3191D01*
X2109Y3191D02*
X2167Y3191D01*
X2209Y3191D02*
X2267Y3191D01*
X909Y3190D02*
X967Y3190D01*
X1009Y3190D02*
X1067Y3190D01*
X1109Y3190D02*
X1167Y3190D01*
X2009Y3190D02*
X2067Y3190D01*
X2109Y3190D02*
X2167Y3190D01*
X2209Y3190D02*
X2267Y3190D01*
X909Y3189D02*
X968Y3189D01*
X1009Y3189D02*
X1068Y3189D01*
X1109Y3189D02*
X1168Y3189D01*
X2009Y3189D02*
X2067Y3189D01*
X2109Y3189D02*
X2167Y3189D01*
X2209Y3189D02*
X2267Y3189D01*
X909Y3188D02*
X968Y3188D01*
X1009Y3188D02*
X1068Y3188D01*
X1109Y3188D02*
X1168Y3188D01*
X2009Y3188D02*
X2068Y3188D01*
X2109Y3188D02*
X2167Y3188D01*
X2209Y3188D02*
X2267Y3188D01*
X909Y3187D02*
X968Y3187D01*
X1009Y3187D02*
X1068Y3187D01*
X1109Y3187D02*
X1168Y3187D01*
X2009Y3187D02*
X2068Y3187D01*
X2109Y3187D02*
X2168Y3187D01*
X2209Y3187D02*
X2268Y3187D01*
X909Y3186D02*
X968Y3186D01*
X1009Y3186D02*
X1068Y3186D01*
X1109Y3186D02*
X1168Y3186D01*
X2009Y3186D02*
X2068Y3186D01*
X2109Y3186D02*
X2168Y3186D01*
X2209Y3186D02*
X2268Y3186D01*
X909Y3185D02*
X968Y3185D01*
X1009Y3185D02*
X1068Y3185D01*
X1109Y3185D02*
X1168Y3185D01*
X2009Y3185D02*
X2068Y3185D01*
X2109Y3185D02*
X2168Y3185D01*
X2209Y3185D02*
X2268Y3185D01*
X909Y3184D02*
X968Y3184D01*
X1009Y3184D02*
X1068Y3184D01*
X1109Y3184D02*
X1168Y3184D01*
X2009Y3184D02*
X2068Y3184D01*
X2109Y3184D02*
X2168Y3184D01*
X2209Y3184D02*
X2268Y3184D01*
X909Y3183D02*
X968Y3183D01*
X1009Y3183D02*
X1068Y3183D01*
X1109Y3183D02*
X1168Y3183D01*
X2009Y3183D02*
X2068Y3183D01*
X2109Y3183D02*
X2168Y3183D01*
X2209Y3183D02*
X2268Y3183D01*
X909Y3182D02*
X968Y3182D01*
X1009Y3182D02*
X1068Y3182D01*
X1109Y3182D02*
X1168Y3182D01*
X2009Y3182D02*
X2068Y3182D01*
X2109Y3182D02*
X2168Y3182D01*
X2209Y3182D02*
X2268Y3182D01*
X909Y3181D02*
X968Y3181D01*
X1009Y3181D02*
X1068Y3181D01*
X1109Y3181D02*
X1168Y3181D01*
X2009Y3181D02*
X2068Y3181D01*
X2109Y3181D02*
X2168Y3181D01*
X2209Y3181D02*
X2268Y3181D01*
X909Y3180D02*
X968Y3180D01*
X1009Y3180D02*
X1068Y3180D01*
X1109Y3180D02*
X1168Y3180D01*
X2009Y3180D02*
X2068Y3180D01*
X2109Y3180D02*
X2168Y3180D01*
X2209Y3180D02*
X2268Y3180D01*
X909Y3179D02*
X968Y3179D01*
X1009Y3179D02*
X1068Y3179D01*
X1109Y3179D02*
X1168Y3179D01*
X2009Y3179D02*
X2068Y3179D01*
X2109Y3179D02*
X2168Y3179D01*
X2209Y3179D02*
X2268Y3179D01*
X909Y3178D02*
X968Y3178D01*
X1009Y3178D02*
X1068Y3178D01*
X1109Y3178D02*
X1168Y3178D01*
X2009Y3178D02*
X2068Y3178D01*
X2109Y3178D02*
X2168Y3178D01*
X2209Y3178D02*
X2268Y3178D01*
X909Y3177D02*
X968Y3177D01*
X1009Y3177D02*
X1068Y3177D01*
X1109Y3177D02*
X1168Y3177D01*
X2009Y3177D02*
X2068Y3177D01*
X2109Y3177D02*
X2168Y3177D01*
X2209Y3177D02*
X2268Y3177D01*
X909Y3176D02*
X933Y3176D01*
X943Y3176D02*
X968Y3176D01*
X1009Y3176D02*
X1033Y3176D01*
X1043Y3176D02*
X1068Y3176D01*
X1109Y3176D02*
X1133Y3176D01*
X1143Y3176D02*
X1168Y3176D01*
X2009Y3176D02*
X2033Y3176D01*
X2043Y3176D02*
X2068Y3176D01*
X2109Y3176D02*
X2133Y3176D01*
X2143Y3176D02*
X2168Y3176D01*
X2209Y3176D02*
X2233Y3176D01*
X2243Y3176D02*
X2268Y3176D01*
X909Y3175D02*
X930Y3175D01*
X946Y3175D02*
X968Y3175D01*
X1009Y3175D02*
X1030Y3175D01*
X1046Y3175D02*
X1068Y3175D01*
X1109Y3175D02*
X1130Y3175D01*
X1146Y3175D02*
X1168Y3175D01*
X2009Y3175D02*
X2030Y3175D01*
X2046Y3175D02*
X2068Y3175D01*
X2109Y3175D02*
X2130Y3175D01*
X2146Y3175D02*
X2168Y3175D01*
X2209Y3175D02*
X2230Y3175D01*
X2246Y3175D02*
X2268Y3175D01*
X909Y3174D02*
X928Y3174D01*
X948Y3174D02*
X968Y3174D01*
X1009Y3174D02*
X1028Y3174D01*
X1048Y3174D02*
X1068Y3174D01*
X1109Y3174D02*
X1128Y3174D01*
X1148Y3174D02*
X1168Y3174D01*
X2009Y3174D02*
X2028Y3174D01*
X2048Y3174D02*
X2068Y3174D01*
X2109Y3174D02*
X2128Y3174D01*
X2148Y3174D02*
X2168Y3174D01*
X2209Y3174D02*
X2228Y3174D01*
X2248Y3174D02*
X2268Y3174D01*
X909Y3173D02*
X926Y3173D01*
X950Y3173D02*
X968Y3173D01*
X1009Y3173D02*
X1026Y3173D01*
X1050Y3173D02*
X1068Y3173D01*
X1109Y3173D02*
X1126Y3173D01*
X1150Y3173D02*
X1168Y3173D01*
X2009Y3173D02*
X2026Y3173D01*
X2050Y3173D02*
X2068Y3173D01*
X2109Y3173D02*
X2126Y3173D01*
X2150Y3173D02*
X2168Y3173D01*
X2209Y3173D02*
X2226Y3173D01*
X2250Y3173D02*
X2268Y3173D01*
X909Y3172D02*
X925Y3172D01*
X951Y3172D02*
X968Y3172D01*
X1009Y3172D02*
X1025Y3172D01*
X1051Y3172D02*
X1068Y3172D01*
X1109Y3172D02*
X1125Y3172D01*
X1151Y3172D02*
X1168Y3172D01*
X2009Y3172D02*
X2025Y3172D01*
X2051Y3172D02*
X2068Y3172D01*
X2109Y3172D02*
X2125Y3172D01*
X2151Y3172D02*
X2168Y3172D01*
X2209Y3172D02*
X2225Y3172D01*
X2251Y3172D02*
X2268Y3172D01*
X909Y3171D02*
X924Y3171D01*
X952Y3171D02*
X968Y3171D01*
X1009Y3171D02*
X1024Y3171D01*
X1052Y3171D02*
X1068Y3171D01*
X1109Y3171D02*
X1124Y3171D01*
X1152Y3171D02*
X1168Y3171D01*
X2009Y3171D02*
X2024Y3171D01*
X2052Y3171D02*
X2068Y3171D01*
X2109Y3171D02*
X2124Y3171D01*
X2152Y3171D02*
X2168Y3171D01*
X2209Y3171D02*
X2224Y3171D01*
X2252Y3171D02*
X2268Y3171D01*
X909Y3170D02*
X923Y3170D01*
X953Y3170D02*
X968Y3170D01*
X1009Y3170D02*
X1023Y3170D01*
X1053Y3170D02*
X1068Y3170D01*
X1109Y3170D02*
X1123Y3170D01*
X1153Y3170D02*
X1168Y3170D01*
X2009Y3170D02*
X2023Y3170D01*
X2053Y3170D02*
X2068Y3170D01*
X2109Y3170D02*
X2123Y3170D01*
X2153Y3170D02*
X2168Y3170D01*
X2209Y3170D02*
X2223Y3170D01*
X2253Y3170D02*
X2268Y3170D01*
X909Y3169D02*
X922Y3169D01*
X954Y3169D02*
X968Y3169D01*
X1009Y3169D02*
X1022Y3169D01*
X1054Y3169D02*
X1068Y3169D01*
X1109Y3169D02*
X1122Y3169D01*
X1154Y3169D02*
X1168Y3169D01*
X2009Y3169D02*
X2022Y3169D01*
X2054Y3169D02*
X2068Y3169D01*
X2109Y3169D02*
X2122Y3169D01*
X2154Y3169D02*
X2168Y3169D01*
X2209Y3169D02*
X2222Y3169D01*
X2254Y3169D02*
X2268Y3169D01*
X909Y3168D02*
X921Y3168D01*
X955Y3168D02*
X968Y3168D01*
X1009Y3168D02*
X1021Y3168D01*
X1055Y3168D02*
X1068Y3168D01*
X1109Y3168D02*
X1121Y3168D01*
X1155Y3168D02*
X1168Y3168D01*
X2009Y3168D02*
X2021Y3168D01*
X2055Y3168D02*
X2068Y3168D01*
X2109Y3168D02*
X2121Y3168D01*
X2155Y3168D02*
X2168Y3168D01*
X2209Y3168D02*
X2221Y3168D01*
X2255Y3168D02*
X2268Y3168D01*
X909Y3167D02*
X921Y3167D01*
X956Y3167D02*
X968Y3167D01*
X1009Y3167D02*
X1021Y3167D01*
X1056Y3167D02*
X1068Y3167D01*
X1109Y3167D02*
X1121Y3167D01*
X1156Y3167D02*
X1168Y3167D01*
X2009Y3167D02*
X2021Y3167D01*
X2056Y3167D02*
X2068Y3167D01*
X2109Y3167D02*
X2121Y3167D01*
X2156Y3167D02*
X2168Y3167D01*
X2209Y3167D02*
X2221Y3167D01*
X2256Y3167D02*
X2268Y3167D01*
X909Y3166D02*
X920Y3166D01*
X956Y3166D02*
X968Y3166D01*
X1009Y3166D02*
X1020Y3166D01*
X1056Y3166D02*
X1068Y3166D01*
X1109Y3166D02*
X1120Y3166D01*
X1156Y3166D02*
X1168Y3166D01*
X2009Y3166D02*
X2020Y3166D01*
X2056Y3166D02*
X2068Y3166D01*
X2109Y3166D02*
X2120Y3166D01*
X2156Y3166D02*
X2168Y3166D01*
X2209Y3166D02*
X2220Y3166D01*
X2256Y3166D02*
X2268Y3166D01*
X909Y3165D02*
X920Y3165D01*
X957Y3165D02*
X968Y3165D01*
X1009Y3165D02*
X1020Y3165D01*
X1057Y3165D02*
X1068Y3165D01*
X1109Y3165D02*
X1120Y3165D01*
X1157Y3165D02*
X1168Y3165D01*
X2009Y3165D02*
X2020Y3165D01*
X2057Y3165D02*
X2068Y3165D01*
X2109Y3165D02*
X2120Y3165D01*
X2157Y3165D02*
X2168Y3165D01*
X2209Y3165D02*
X2219Y3165D01*
X2257Y3165D02*
X2268Y3165D01*
X909Y3164D02*
X919Y3164D01*
X957Y3164D02*
X968Y3164D01*
X1009Y3164D02*
X1019Y3164D01*
X1057Y3164D02*
X1068Y3164D01*
X1109Y3164D02*
X1119Y3164D01*
X1157Y3164D02*
X1168Y3164D01*
X2009Y3164D02*
X2019Y3164D01*
X2057Y3164D02*
X2068Y3164D01*
X2109Y3164D02*
X2119Y3164D01*
X2157Y3164D02*
X2168Y3164D01*
X2209Y3164D02*
X2219Y3164D01*
X2257Y3164D02*
X2268Y3164D01*
X909Y3163D02*
X919Y3163D01*
X958Y3163D02*
X968Y3163D01*
X1009Y3163D02*
X1019Y3163D01*
X1058Y3163D02*
X1068Y3163D01*
X1109Y3163D02*
X1119Y3163D01*
X1158Y3163D02*
X1168Y3163D01*
X2009Y3163D02*
X2019Y3163D01*
X2057Y3163D02*
X2068Y3163D01*
X2109Y3163D02*
X2119Y3163D01*
X2157Y3163D02*
X2168Y3163D01*
X2209Y3163D02*
X2219Y3163D01*
X2257Y3163D02*
X2268Y3163D01*
X909Y3162D02*
X919Y3162D01*
X958Y3162D02*
X968Y3162D01*
X1009Y3162D02*
X1019Y3162D01*
X1058Y3162D02*
X1068Y3162D01*
X1109Y3162D02*
X1119Y3162D01*
X1158Y3162D02*
X1168Y3162D01*
X2009Y3162D02*
X2018Y3162D01*
X2058Y3162D02*
X2068Y3162D01*
X2109Y3162D02*
X2118Y3162D01*
X2158Y3162D02*
X2168Y3162D01*
X2209Y3162D02*
X2218Y3162D01*
X2258Y3162D02*
X2268Y3162D01*
X909Y3161D02*
X918Y3161D01*
X958Y3161D02*
X968Y3161D01*
X1009Y3161D02*
X1018Y3161D01*
X1058Y3161D02*
X1068Y3161D01*
X1109Y3161D02*
X1118Y3161D01*
X1158Y3161D02*
X1168Y3161D01*
X2009Y3161D02*
X2018Y3161D01*
X2058Y3161D02*
X2068Y3161D01*
X2109Y3161D02*
X2118Y3161D01*
X2158Y3161D02*
X2168Y3161D01*
X2209Y3161D02*
X2218Y3161D01*
X2258Y3161D02*
X2268Y3161D01*
X909Y3160D02*
X918Y3160D01*
X958Y3160D02*
X968Y3160D01*
X1009Y3160D02*
X1018Y3160D01*
X1058Y3160D02*
X1068Y3160D01*
X1109Y3160D02*
X1118Y3160D01*
X1158Y3160D02*
X1168Y3160D01*
X2009Y3160D02*
X2018Y3160D01*
X2058Y3160D02*
X2068Y3160D01*
X2109Y3160D02*
X2118Y3160D01*
X2158Y3160D02*
X2168Y3160D01*
X2209Y3160D02*
X2218Y3160D01*
X2258Y3160D02*
X2268Y3160D01*
X909Y3159D02*
X918Y3159D01*
X958Y3159D02*
X968Y3159D01*
X1009Y3159D02*
X1018Y3159D01*
X1058Y3159D02*
X1068Y3159D01*
X1109Y3159D02*
X1118Y3159D01*
X1158Y3159D02*
X1168Y3159D01*
X2009Y3159D02*
X2018Y3159D01*
X2058Y3159D02*
X2068Y3159D01*
X2109Y3159D02*
X2118Y3159D01*
X2158Y3159D02*
X2168Y3159D01*
X2209Y3159D02*
X2218Y3159D01*
X2258Y3159D02*
X2268Y3159D01*
X909Y3158D02*
X918Y3158D01*
X959Y3158D02*
X968Y3158D01*
X1009Y3158D02*
X1018Y3158D01*
X1059Y3158D02*
X1068Y3158D01*
X1109Y3158D02*
X1118Y3158D01*
X1159Y3158D02*
X1168Y3158D01*
X2009Y3158D02*
X2018Y3158D01*
X2058Y3158D02*
X2068Y3158D01*
X2109Y3158D02*
X2118Y3158D01*
X2158Y3158D02*
X2168Y3158D01*
X2209Y3158D02*
X2218Y3158D01*
X2258Y3158D02*
X2268Y3158D01*
X909Y3157D02*
X918Y3157D01*
X959Y3157D02*
X968Y3157D01*
X1009Y3157D02*
X1018Y3157D01*
X1059Y3157D02*
X1068Y3157D01*
X1109Y3157D02*
X1118Y3157D01*
X1159Y3157D02*
X1168Y3157D01*
X2009Y3157D02*
X2018Y3157D01*
X2059Y3157D02*
X2068Y3157D01*
X2109Y3157D02*
X2118Y3157D01*
X2159Y3157D02*
X2168Y3157D01*
X2209Y3157D02*
X2218Y3157D01*
X2259Y3157D02*
X2268Y3157D01*
X909Y3156D02*
X918Y3156D01*
X959Y3156D02*
X968Y3156D01*
X1009Y3156D02*
X1018Y3156D01*
X1059Y3156D02*
X1068Y3156D01*
X1109Y3156D02*
X1118Y3156D01*
X1159Y3156D02*
X1168Y3156D01*
X2009Y3156D02*
X2018Y3156D01*
X2059Y3156D02*
X2068Y3156D01*
X2109Y3156D02*
X2118Y3156D01*
X2159Y3156D02*
X2168Y3156D01*
X2209Y3156D02*
X2218Y3156D01*
X2258Y3156D02*
X2268Y3156D01*
X909Y3155D02*
X918Y3155D01*
X959Y3155D02*
X968Y3155D01*
X1009Y3155D02*
X1018Y3155D01*
X1059Y3155D02*
X1068Y3155D01*
X1109Y3155D02*
X1118Y3155D01*
X1159Y3155D02*
X1168Y3155D01*
X2009Y3155D02*
X2018Y3155D01*
X2058Y3155D02*
X2068Y3155D01*
X2109Y3155D02*
X2118Y3155D01*
X2158Y3155D02*
X2168Y3155D01*
X2209Y3155D02*
X2218Y3155D01*
X2258Y3155D02*
X2268Y3155D01*
X909Y3154D02*
X918Y3154D01*
X958Y3154D02*
X968Y3154D01*
X1009Y3154D02*
X1018Y3154D01*
X1058Y3154D02*
X1068Y3154D01*
X1109Y3154D02*
X1118Y3154D01*
X1158Y3154D02*
X1168Y3154D01*
X2009Y3154D02*
X2018Y3154D01*
X2058Y3154D02*
X2068Y3154D01*
X2109Y3154D02*
X2118Y3154D01*
X2158Y3154D02*
X2168Y3154D01*
X2209Y3154D02*
X2218Y3154D01*
X2258Y3154D02*
X2268Y3154D01*
X909Y3153D02*
X918Y3153D01*
X958Y3153D02*
X968Y3153D01*
X1009Y3153D02*
X1018Y3153D01*
X1058Y3153D02*
X1068Y3153D01*
X1109Y3153D02*
X1118Y3153D01*
X1158Y3153D02*
X1168Y3153D01*
X2009Y3153D02*
X2018Y3153D01*
X2058Y3153D02*
X2068Y3153D01*
X2109Y3153D02*
X2118Y3153D01*
X2158Y3153D02*
X2168Y3153D01*
X2209Y3153D02*
X2218Y3153D01*
X2258Y3153D02*
X2268Y3153D01*
X909Y3152D02*
X918Y3152D01*
X958Y3152D02*
X968Y3152D01*
X1009Y3152D02*
X1018Y3152D01*
X1058Y3152D02*
X1068Y3152D01*
X1109Y3152D02*
X1118Y3152D01*
X1158Y3152D02*
X1168Y3152D01*
X2009Y3152D02*
X2018Y3152D01*
X2058Y3152D02*
X2068Y3152D01*
X2109Y3152D02*
X2118Y3152D01*
X2158Y3152D02*
X2168Y3152D01*
X2209Y3152D02*
X2218Y3152D01*
X2258Y3152D02*
X2268Y3152D01*
X909Y3151D02*
X919Y3151D01*
X958Y3151D02*
X968Y3151D01*
X1009Y3151D02*
X1019Y3151D01*
X1058Y3151D02*
X1068Y3151D01*
X1109Y3151D02*
X1119Y3151D01*
X1158Y3151D02*
X1168Y3151D01*
X2009Y3151D02*
X2018Y3151D01*
X2058Y3151D02*
X2068Y3151D01*
X2109Y3151D02*
X2118Y3151D01*
X2158Y3151D02*
X2168Y3151D01*
X2209Y3151D02*
X2218Y3151D01*
X2258Y3151D02*
X2268Y3151D01*
X909Y3150D02*
X919Y3150D01*
X958Y3150D02*
X968Y3150D01*
X1009Y3150D02*
X1019Y3150D01*
X1057Y3150D02*
X1068Y3150D01*
X1109Y3150D02*
X1119Y3150D01*
X1157Y3150D02*
X1168Y3150D01*
X2009Y3150D02*
X2019Y3150D01*
X2057Y3150D02*
X2068Y3150D01*
X2109Y3150D02*
X2119Y3150D01*
X2157Y3150D02*
X2168Y3150D01*
X2209Y3150D02*
X2219Y3150D01*
X2257Y3150D02*
X2268Y3150D01*
X909Y3149D02*
X919Y3149D01*
X957Y3149D02*
X968Y3149D01*
X1009Y3149D02*
X1019Y3149D01*
X1057Y3149D02*
X1068Y3149D01*
X1109Y3149D02*
X1119Y3149D01*
X1157Y3149D02*
X1168Y3149D01*
X2009Y3149D02*
X2019Y3149D01*
X2057Y3149D02*
X2068Y3149D01*
X2109Y3149D02*
X2119Y3149D01*
X2157Y3149D02*
X2168Y3149D01*
X2209Y3149D02*
X2219Y3149D01*
X2257Y3149D02*
X2268Y3149D01*
X909Y3148D02*
X920Y3148D01*
X957Y3148D02*
X968Y3148D01*
X1009Y3148D02*
X1020Y3148D01*
X1057Y3148D02*
X1068Y3148D01*
X1109Y3148D02*
X1120Y3148D01*
X1157Y3148D02*
X1168Y3148D01*
X2009Y3148D02*
X2020Y3148D01*
X2057Y3148D02*
X2068Y3148D01*
X2109Y3148D02*
X2120Y3148D01*
X2157Y3148D02*
X2168Y3148D01*
X2209Y3148D02*
X2220Y3148D01*
X2257Y3148D02*
X2268Y3148D01*
X909Y3147D02*
X920Y3147D01*
X956Y3147D02*
X968Y3147D01*
X1009Y3147D02*
X1020Y3147D01*
X1056Y3147D02*
X1068Y3147D01*
X1109Y3147D02*
X1120Y3147D01*
X1156Y3147D02*
X1168Y3147D01*
X2009Y3147D02*
X2020Y3147D01*
X2056Y3147D02*
X2068Y3147D01*
X2109Y3147D02*
X2120Y3147D01*
X2156Y3147D02*
X2168Y3147D01*
X2209Y3147D02*
X2220Y3147D01*
X2256Y3147D02*
X2268Y3147D01*
X909Y3146D02*
X921Y3146D01*
X956Y3146D02*
X968Y3146D01*
X1009Y3146D02*
X1021Y3146D01*
X1056Y3146D02*
X1068Y3146D01*
X1109Y3146D02*
X1121Y3146D01*
X1156Y3146D02*
X1168Y3146D01*
X2009Y3146D02*
X2021Y3146D01*
X2055Y3146D02*
X2068Y3146D01*
X2109Y3146D02*
X2121Y3146D01*
X2155Y3146D02*
X2168Y3146D01*
X2209Y3146D02*
X2221Y3146D01*
X2255Y3146D02*
X2268Y3146D01*
X909Y3145D02*
X921Y3145D01*
X955Y3145D02*
X968Y3145D01*
X1009Y3145D02*
X1021Y3145D01*
X1055Y3145D02*
X1068Y3145D01*
X1109Y3145D02*
X1121Y3145D01*
X1155Y3145D02*
X1168Y3145D01*
X2009Y3145D02*
X2021Y3145D01*
X2055Y3145D02*
X2068Y3145D01*
X2109Y3145D02*
X2121Y3145D01*
X2155Y3145D02*
X2168Y3145D01*
X2209Y3145D02*
X2221Y3145D01*
X2255Y3145D02*
X2268Y3145D01*
X909Y3144D02*
X922Y3144D01*
X954Y3144D02*
X968Y3144D01*
X1009Y3144D02*
X1022Y3144D01*
X1054Y3144D02*
X1068Y3144D01*
X1109Y3144D02*
X1122Y3144D01*
X1154Y3144D02*
X1168Y3144D01*
X2009Y3144D02*
X2022Y3144D01*
X2054Y3144D02*
X2068Y3144D01*
X2109Y3144D02*
X2122Y3144D01*
X2154Y3144D02*
X2168Y3144D01*
X2209Y3144D02*
X2222Y3144D01*
X2254Y3144D02*
X2268Y3144D01*
X909Y3143D02*
X923Y3143D01*
X953Y3143D02*
X968Y3143D01*
X1009Y3143D02*
X1023Y3143D01*
X1053Y3143D02*
X1068Y3143D01*
X1109Y3143D02*
X1123Y3143D01*
X1153Y3143D02*
X1168Y3143D01*
X2009Y3143D02*
X2023Y3143D01*
X2053Y3143D02*
X2068Y3143D01*
X2109Y3143D02*
X2123Y3143D01*
X2153Y3143D02*
X2168Y3143D01*
X2209Y3143D02*
X2223Y3143D01*
X2253Y3143D02*
X2268Y3143D01*
X909Y3142D02*
X924Y3142D01*
X952Y3142D02*
X968Y3142D01*
X1009Y3142D02*
X1024Y3142D01*
X1052Y3142D02*
X1068Y3142D01*
X1109Y3142D02*
X1124Y3142D01*
X1152Y3142D02*
X1168Y3142D01*
X2009Y3142D02*
X2024Y3142D01*
X2052Y3142D02*
X2068Y3142D01*
X2109Y3142D02*
X2124Y3142D01*
X2152Y3142D02*
X2168Y3142D01*
X2209Y3142D02*
X2224Y3142D01*
X2252Y3142D02*
X2268Y3142D01*
X909Y3141D02*
X925Y3141D01*
X951Y3141D02*
X968Y3141D01*
X1009Y3141D02*
X1025Y3141D01*
X1051Y3141D02*
X1068Y3141D01*
X1109Y3141D02*
X1125Y3141D01*
X1151Y3141D02*
X1168Y3141D01*
X2009Y3141D02*
X2025Y3141D01*
X2051Y3141D02*
X2068Y3141D01*
X2109Y3141D02*
X2125Y3141D01*
X2151Y3141D02*
X2168Y3141D01*
X2209Y3141D02*
X2225Y3141D01*
X2251Y3141D02*
X2268Y3141D01*
X909Y3140D02*
X927Y3140D01*
X950Y3140D02*
X968Y3140D01*
X1009Y3140D02*
X1027Y3140D01*
X1050Y3140D02*
X1068Y3140D01*
X1109Y3140D02*
X1127Y3140D01*
X1150Y3140D02*
X1168Y3140D01*
X2009Y3140D02*
X2026Y3140D01*
X2050Y3140D02*
X2068Y3140D01*
X2109Y3140D02*
X2126Y3140D01*
X2150Y3140D02*
X2168Y3140D01*
X2209Y3140D02*
X2226Y3140D01*
X2250Y3140D02*
X2268Y3140D01*
X909Y3139D02*
X928Y3139D01*
X948Y3139D02*
X968Y3139D01*
X1009Y3139D02*
X1028Y3139D01*
X1048Y3139D02*
X1068Y3139D01*
X1109Y3139D02*
X1128Y3139D01*
X1148Y3139D02*
X1168Y3139D01*
X2009Y3139D02*
X2028Y3139D01*
X2048Y3139D02*
X2068Y3139D01*
X2109Y3139D02*
X2128Y3139D01*
X2148Y3139D02*
X2168Y3139D01*
X2209Y3139D02*
X2228Y3139D01*
X2248Y3139D02*
X2268Y3139D01*
X909Y3138D02*
X930Y3138D01*
X946Y3138D02*
X968Y3138D01*
X1009Y3138D02*
X1030Y3138D01*
X1046Y3138D02*
X1068Y3138D01*
X1109Y3138D02*
X1130Y3138D01*
X1146Y3138D02*
X1168Y3138D01*
X2009Y3138D02*
X2030Y3138D01*
X2046Y3138D02*
X2068Y3138D01*
X2109Y3138D02*
X2130Y3138D01*
X2146Y3138D02*
X2168Y3138D01*
X2209Y3138D02*
X2230Y3138D01*
X2246Y3138D02*
X2268Y3138D01*
X909Y3137D02*
X934Y3137D01*
X943Y3137D02*
X968Y3137D01*
X1009Y3137D02*
X1034Y3137D01*
X1043Y3137D02*
X1068Y3137D01*
X1109Y3137D02*
X1134Y3137D01*
X1143Y3137D02*
X1168Y3137D01*
X2009Y3137D02*
X2033Y3137D01*
X2043Y3137D02*
X2068Y3137D01*
X2109Y3137D02*
X2133Y3137D01*
X2143Y3137D02*
X2168Y3137D01*
X2209Y3137D02*
X2233Y3137D01*
X2243Y3137D02*
X2268Y3137D01*
X909Y3136D02*
X968Y3136D01*
X1009Y3136D02*
X1068Y3136D01*
X1109Y3136D02*
X1168Y3136D01*
X2009Y3136D02*
X2068Y3136D01*
X2109Y3136D02*
X2168Y3136D01*
X2209Y3136D02*
X2268Y3136D01*
X909Y3135D02*
X968Y3135D01*
X1009Y3135D02*
X1068Y3135D01*
X1109Y3135D02*
X1168Y3135D01*
X2009Y3135D02*
X2068Y3135D01*
X2109Y3135D02*
X2168Y3135D01*
X2209Y3135D02*
X2268Y3135D01*
X909Y3134D02*
X968Y3134D01*
X1009Y3134D02*
X1068Y3134D01*
X1109Y3134D02*
X1168Y3134D01*
X2009Y3134D02*
X2068Y3134D01*
X2109Y3134D02*
X2168Y3134D01*
X2209Y3134D02*
X2268Y3134D01*
X909Y3133D02*
X968Y3133D01*
X1009Y3133D02*
X1068Y3133D01*
X1109Y3133D02*
X1168Y3133D01*
X2009Y3133D02*
X2068Y3133D01*
X2109Y3133D02*
X2168Y3133D01*
X2209Y3133D02*
X2268Y3133D01*
X909Y3132D02*
X968Y3132D01*
X1009Y3132D02*
X1068Y3132D01*
X1109Y3132D02*
X1168Y3132D01*
X2009Y3132D02*
X2068Y3132D01*
X2109Y3132D02*
X2168Y3132D01*
X2209Y3132D02*
X2268Y3132D01*
X909Y3131D02*
X968Y3131D01*
X1009Y3131D02*
X1068Y3131D01*
X1109Y3131D02*
X1168Y3131D01*
X2009Y3131D02*
X2068Y3131D01*
X2109Y3131D02*
X2168Y3131D01*
X2209Y3131D02*
X2268Y3131D01*
X909Y3130D02*
X968Y3130D01*
X1009Y3130D02*
X1068Y3130D01*
X1109Y3130D02*
X1168Y3130D01*
X2009Y3130D02*
X2068Y3130D01*
X2109Y3130D02*
X2168Y3130D01*
X2209Y3130D02*
X2268Y3130D01*
X909Y3129D02*
X968Y3129D01*
X1009Y3129D02*
X1068Y3129D01*
X1109Y3129D02*
X1168Y3129D01*
X2009Y3129D02*
X2068Y3129D01*
X2109Y3129D02*
X2168Y3129D01*
X2209Y3129D02*
X2268Y3129D01*
X909Y3128D02*
X968Y3128D01*
X1009Y3128D02*
X1068Y3128D01*
X1109Y3128D02*
X1168Y3128D01*
X2009Y3128D02*
X2068Y3128D01*
X2109Y3128D02*
X2168Y3128D01*
X2209Y3128D02*
X2268Y3128D01*
X909Y3127D02*
X968Y3127D01*
X1009Y3127D02*
X1068Y3127D01*
X1109Y3127D02*
X1168Y3127D01*
X2009Y3127D02*
X2068Y3127D01*
X2109Y3127D02*
X2168Y3127D01*
X2209Y3127D02*
X2268Y3127D01*
X909Y3126D02*
X968Y3126D01*
X1009Y3126D02*
X1068Y3126D01*
X1109Y3126D02*
X1168Y3126D01*
X2009Y3126D02*
X2068Y3126D01*
X2109Y3126D02*
X2168Y3126D01*
X2209Y3126D02*
X2268Y3126D01*
X909Y3125D02*
X968Y3125D01*
X1009Y3125D02*
X1068Y3125D01*
X1109Y3125D02*
X1168Y3125D01*
X2009Y3125D02*
X2067Y3125D01*
X2109Y3125D02*
X2167Y3125D01*
X2209Y3125D02*
X2267Y3125D01*
X909Y3124D02*
X968Y3124D01*
X1009Y3124D02*
X1068Y3124D01*
X1109Y3124D02*
X1168Y3124D01*
X2009Y3124D02*
X2067Y3124D01*
X2109Y3124D02*
X2167Y3124D01*
X2209Y3124D02*
X2267Y3124D01*
X909Y3123D02*
X967Y3123D01*
X1009Y3123D02*
X1067Y3123D01*
X1109Y3123D02*
X1167Y3123D01*
X2009Y3123D02*
X2067Y3123D01*
X2109Y3123D02*
X2167Y3123D01*
X2209Y3123D02*
X2267Y3123D01*
X909Y3122D02*
X967Y3122D01*
X1009Y3122D02*
X1067Y3122D01*
X1109Y3122D02*
X1167Y3122D01*
X2009Y3122D02*
X2067Y3122D01*
X2109Y3122D02*
X2167Y3122D01*
X2209Y3122D02*
X2267Y3122D01*
X909Y3121D02*
X967Y3121D01*
X1009Y3121D02*
X1067Y3121D01*
X1109Y3121D02*
X1167Y3121D01*
X2009Y3121D02*
X2067Y3121D01*
X2109Y3121D02*
X2167Y3121D01*
X2209Y3121D02*
X2267Y3121D01*
X909Y3120D02*
X967Y3120D01*
X1009Y3120D02*
X1067Y3120D01*
X1109Y3120D02*
X1167Y3120D01*
X2009Y3120D02*
X2067Y3120D01*
X2109Y3120D02*
X2167Y3120D01*
X2209Y3120D02*
X2267Y3120D01*
X910Y3119D02*
X967Y3119D01*
X1010Y3119D02*
X1067Y3119D01*
X1110Y3119D02*
X1167Y3119D01*
X2010Y3119D02*
X2067Y3119D01*
X2110Y3119D02*
X2167Y3119D01*
X2210Y3119D02*
X2267Y3119D01*
X910Y3118D02*
X966Y3118D01*
X1010Y3118D02*
X1066Y3118D01*
X1110Y3118D02*
X1166Y3118D01*
X2010Y3118D02*
X2066Y3118D01*
X2110Y3118D02*
X2166Y3118D01*
X2210Y3118D02*
X2266Y3118D01*
X910Y3117D02*
X966Y3117D01*
X1010Y3117D02*
X1066Y3117D01*
X1110Y3117D02*
X1166Y3117D01*
X2010Y3117D02*
X2066Y3117D01*
X2110Y3117D02*
X2166Y3117D01*
X2210Y3117D02*
X2266Y3117D01*
X911Y3116D02*
X966Y3116D01*
X1011Y3116D02*
X1066Y3116D01*
X1111Y3116D02*
X1166Y3116D01*
X2011Y3116D02*
X2066Y3116D01*
X2111Y3116D02*
X2166Y3116D01*
X2211Y3116D02*
X2266Y3116D01*
X911Y3115D02*
X965Y3115D01*
X1011Y3115D02*
X1065Y3115D01*
X1111Y3115D02*
X1165Y3115D01*
X2011Y3115D02*
X2065Y3115D01*
X2111Y3115D02*
X2165Y3115D01*
X2211Y3115D02*
X2265Y3115D01*
X911Y3114D02*
X965Y3114D01*
X1011Y3114D02*
X1065Y3114D01*
X1111Y3114D02*
X1165Y3114D01*
X2011Y3114D02*
X2065Y3114D01*
X2111Y3114D02*
X2165Y3114D01*
X2211Y3114D02*
X2265Y3114D01*
X912Y3113D02*
X964Y3113D01*
X1012Y3113D02*
X1064Y3113D01*
X1112Y3113D02*
X1164Y3113D01*
X2012Y3113D02*
X2064Y3113D01*
X2112Y3113D02*
X2164Y3113D01*
X2212Y3113D02*
X2264Y3113D01*
X912Y3112D02*
X964Y3112D01*
X1012Y3112D02*
X1064Y3112D01*
X1112Y3112D02*
X1164Y3112D01*
X2012Y3112D02*
X2064Y3112D01*
X2112Y3112D02*
X2164Y3112D01*
X2212Y3112D02*
X2264Y3112D01*
X913Y3111D02*
X963Y3111D01*
X1013Y3111D02*
X1063Y3111D01*
X1113Y3111D02*
X1163Y3111D01*
X2013Y3111D02*
X2063Y3111D01*
X2113Y3111D02*
X2163Y3111D01*
X2213Y3111D02*
X2263Y3111D01*
X914Y3110D02*
X963Y3110D01*
X1014Y3110D02*
X1063Y3110D01*
X1114Y3110D02*
X1163Y3110D01*
X2014Y3110D02*
X2063Y3110D01*
X2114Y3110D02*
X2163Y3110D01*
X2214Y3110D02*
X2263Y3110D01*
X914Y3109D02*
X962Y3109D01*
X1014Y3109D02*
X1062Y3109D01*
X1114Y3109D02*
X1162Y3109D01*
X2014Y3109D02*
X2062Y3109D01*
X2114Y3109D02*
X2162Y3109D01*
X2214Y3109D02*
X2262Y3109D01*
X915Y3108D02*
X961Y3108D01*
X1015Y3108D02*
X1061Y3108D01*
X1115Y3108D02*
X1161Y3108D01*
X2015Y3108D02*
X2061Y3108D01*
X2115Y3108D02*
X2161Y3108D01*
X2215Y3108D02*
X2261Y3108D01*
X916Y3107D02*
X960Y3107D01*
X1016Y3107D02*
X1060Y3107D01*
X1116Y3107D02*
X1160Y3107D01*
X2016Y3107D02*
X2060Y3107D01*
X2116Y3107D02*
X2160Y3107D01*
X2216Y3107D02*
X2260Y3107D01*
X917Y3106D02*
X960Y3106D01*
X1017Y3106D02*
X1059Y3106D01*
X1117Y3106D02*
X1159Y3106D01*
X2017Y3106D02*
X2059Y3106D01*
X2117Y3106D02*
X2159Y3106D01*
X2217Y3106D02*
X2259Y3106D01*
X918Y3105D02*
X959Y3105D01*
X1018Y3105D02*
X1059Y3105D01*
X1118Y3105D02*
X1158Y3105D01*
X2018Y3105D02*
X2058Y3105D01*
X2118Y3105D02*
X2158Y3105D01*
X2218Y3105D02*
X2258Y3105D01*
X919Y3104D02*
X957Y3104D01*
X1019Y3104D02*
X1057Y3104D01*
X1119Y3104D02*
X1157Y3104D01*
X2019Y3104D02*
X2057Y3104D01*
X2119Y3104D02*
X2157Y3104D01*
X2219Y3104D02*
X2257Y3104D01*
X920Y3103D02*
X956Y3103D01*
X1020Y3103D02*
X1056Y3103D01*
X1120Y3103D02*
X1156Y3103D01*
X2020Y3103D02*
X2056Y3103D01*
X2120Y3103D02*
X2156Y3103D01*
X2220Y3103D02*
X2256Y3103D01*
X922Y3102D02*
X955Y3102D01*
X1022Y3102D02*
X1055Y3102D01*
X1121Y3102D02*
X1155Y3102D01*
X2021Y3102D02*
X2055Y3102D01*
X2121Y3102D02*
X2155Y3102D01*
X2221Y3102D02*
X2255Y3102D01*
X923Y3101D02*
X953Y3101D01*
X1023Y3101D02*
X1053Y3101D01*
X1123Y3101D02*
X1153Y3101D01*
X2023Y3101D02*
X2053Y3101D01*
X2123Y3101D02*
X2153Y3101D01*
X2223Y3101D02*
X2253Y3101D01*
X925Y3100D02*
X952Y3100D01*
X1025Y3100D02*
X1052Y3100D01*
X1125Y3100D02*
X1152Y3100D01*
X2025Y3100D02*
X2051Y3100D01*
X2125Y3100D02*
X2151Y3100D01*
X2225Y3100D02*
X2251Y3100D01*
X927Y3099D02*
X950Y3099D01*
X1027Y3099D02*
X1050Y3099D01*
X1127Y3099D02*
X1150Y3099D01*
X2027Y3099D02*
X2049Y3099D01*
X2127Y3099D02*
X2149Y3099D01*
X2227Y3099D02*
X2249Y3099D01*
X930Y3098D02*
X947Y3098D01*
X1030Y3098D02*
X1047Y3098D01*
X1130Y3098D02*
X1147Y3098D01*
X2030Y3098D02*
X2047Y3098D01*
X2129Y3098D02*
X2147Y3098D01*
X2229Y3098D02*
X2247Y3098D01*
X934Y3097D02*
X943Y3097D01*
X1034Y3097D02*
X1043Y3097D01*
X1134Y3097D02*
X1143Y3097D01*
X2034Y3097D02*
X2042Y3097D01*
X2134Y3097D02*
X2142Y3097D01*
X2234Y3097D02*
X2242Y3097D01*
X2432Y1391D02*
X2444Y1391D01*
X2532Y1391D02*
X2544Y1391D01*
X2632Y1391D02*
X2644Y1391D01*
X2732Y1391D02*
X2744Y1391D01*
X2832Y1391D02*
X2844Y1391D01*
X2932Y1391D02*
X2944Y1391D01*
X3032Y1391D02*
X3044Y1391D01*
X3132Y1391D02*
X3144Y1391D01*
X3232Y1391D02*
X3243Y1391D01*
X3332Y1391D02*
X3343Y1391D01*
X3432Y1391D02*
X3443Y1391D01*
X3532Y1391D02*
X3543Y1391D01*
X3632Y1391D02*
X3643Y1391D01*
X3732Y1391D02*
X3743Y1391D01*
X2428Y1390D02*
X2448Y1390D01*
X2528Y1390D02*
X2548Y1390D01*
X2628Y1390D02*
X2648Y1390D01*
X2728Y1390D02*
X2748Y1390D01*
X2828Y1390D02*
X2848Y1390D01*
X2928Y1390D02*
X2948Y1390D01*
X3028Y1390D02*
X3047Y1390D01*
X3128Y1390D02*
X3147Y1390D01*
X3228Y1390D02*
X3247Y1390D01*
X3328Y1390D02*
X3347Y1390D01*
X3428Y1390D02*
X3447Y1390D01*
X3528Y1390D02*
X3547Y1390D01*
X3628Y1390D02*
X3647Y1390D01*
X3728Y1390D02*
X3747Y1390D01*
X2426Y1389D02*
X2450Y1389D01*
X2526Y1389D02*
X2550Y1389D01*
X2626Y1389D02*
X2650Y1389D01*
X2726Y1389D02*
X2750Y1389D01*
X2826Y1389D02*
X2850Y1389D01*
X2926Y1389D02*
X2950Y1389D01*
X3026Y1389D02*
X3050Y1389D01*
X3126Y1389D02*
X3150Y1389D01*
X3226Y1389D02*
X3250Y1389D01*
X3326Y1389D02*
X3350Y1389D01*
X3426Y1389D02*
X3450Y1389D01*
X3526Y1389D02*
X3550Y1389D01*
X3626Y1389D02*
X3650Y1389D01*
X3726Y1389D02*
X3750Y1389D01*
X2423Y1388D02*
X2453Y1388D01*
X2523Y1388D02*
X2553Y1388D01*
X2623Y1388D02*
X2653Y1388D01*
X2723Y1388D02*
X2753Y1388D01*
X2823Y1388D02*
X2853Y1388D01*
X2923Y1388D02*
X2953Y1388D01*
X3023Y1388D02*
X3053Y1388D01*
X3123Y1388D02*
X3153Y1388D01*
X3223Y1388D02*
X3252Y1388D01*
X3323Y1388D02*
X3352Y1388D01*
X3423Y1388D02*
X3452Y1388D01*
X3523Y1388D02*
X3552Y1388D01*
X3623Y1388D02*
X3652Y1388D01*
X3723Y1388D02*
X3752Y1388D01*
X2421Y1387D02*
X2455Y1387D01*
X2521Y1387D02*
X2555Y1387D01*
X2621Y1387D02*
X2655Y1387D01*
X2721Y1387D02*
X2755Y1387D01*
X2821Y1387D02*
X2855Y1387D01*
X2921Y1387D02*
X2955Y1387D01*
X3021Y1387D02*
X3055Y1387D01*
X3121Y1387D02*
X3155Y1387D01*
X3221Y1387D02*
X3254Y1387D01*
X3321Y1387D02*
X3354Y1387D01*
X3421Y1387D02*
X3454Y1387D01*
X3521Y1387D02*
X3554Y1387D01*
X3621Y1387D02*
X3654Y1387D01*
X3721Y1387D02*
X3754Y1387D01*
X2420Y1386D02*
X2456Y1386D01*
X2520Y1386D02*
X2556Y1386D01*
X2620Y1386D02*
X2656Y1386D01*
X2720Y1386D02*
X2756Y1386D01*
X2820Y1386D02*
X2856Y1386D01*
X2920Y1386D02*
X2956Y1386D01*
X3020Y1386D02*
X3056Y1386D01*
X3120Y1386D02*
X3156Y1386D01*
X3220Y1386D02*
X3256Y1386D01*
X3320Y1386D02*
X3356Y1386D01*
X3420Y1386D02*
X3456Y1386D01*
X3520Y1386D02*
X3556Y1386D01*
X3620Y1386D02*
X3656Y1386D01*
X3720Y1386D02*
X3756Y1386D01*
X2418Y1385D02*
X2458Y1385D01*
X2518Y1385D02*
X2558Y1385D01*
X2618Y1385D02*
X2658Y1385D01*
X2718Y1385D02*
X2758Y1385D01*
X2818Y1385D02*
X2858Y1385D01*
X2918Y1385D02*
X2958Y1385D01*
X3018Y1385D02*
X3058Y1385D01*
X3118Y1385D02*
X3158Y1385D01*
X3218Y1385D02*
X3258Y1385D01*
X3318Y1385D02*
X3358Y1385D01*
X3418Y1385D02*
X3458Y1385D01*
X3518Y1385D02*
X3558Y1385D01*
X3618Y1385D02*
X3658Y1385D01*
X3718Y1385D02*
X3758Y1385D01*
X2417Y1384D02*
X2459Y1384D01*
X2517Y1384D02*
X2559Y1384D01*
X2617Y1384D02*
X2659Y1384D01*
X2717Y1384D02*
X2759Y1384D01*
X2817Y1384D02*
X2859Y1384D01*
X2917Y1384D02*
X2959Y1384D01*
X3017Y1384D02*
X3059Y1384D01*
X3117Y1384D02*
X3159Y1384D01*
X3217Y1384D02*
X3259Y1384D01*
X3317Y1384D02*
X3359Y1384D01*
X3417Y1384D02*
X3459Y1384D01*
X3517Y1384D02*
X3559Y1384D01*
X3617Y1384D02*
X3659Y1384D01*
X3717Y1384D02*
X3759Y1384D01*
X2416Y1383D02*
X2460Y1383D01*
X2516Y1383D02*
X2560Y1383D01*
X2616Y1383D02*
X2660Y1383D01*
X2716Y1383D02*
X2760Y1383D01*
X2816Y1383D02*
X2860Y1383D01*
X2916Y1383D02*
X2960Y1383D01*
X3016Y1383D02*
X3060Y1383D01*
X3115Y1383D02*
X3160Y1383D01*
X3215Y1383D02*
X3260Y1383D01*
X3315Y1383D02*
X3360Y1383D01*
X3415Y1383D02*
X3460Y1383D01*
X3515Y1383D02*
X3560Y1383D01*
X3615Y1383D02*
X3660Y1383D01*
X3715Y1383D02*
X3760Y1383D01*
X2414Y1382D02*
X2462Y1382D01*
X2514Y1382D02*
X2562Y1382D01*
X2614Y1382D02*
X2662Y1382D01*
X2714Y1382D02*
X2762Y1382D01*
X2814Y1382D02*
X2862Y1382D01*
X2914Y1382D02*
X2962Y1382D01*
X3014Y1382D02*
X3062Y1382D01*
X3114Y1382D02*
X3162Y1382D01*
X3214Y1382D02*
X3262Y1382D01*
X3314Y1382D02*
X3361Y1382D01*
X3414Y1382D02*
X3461Y1382D01*
X3514Y1382D02*
X3561Y1382D01*
X3614Y1382D02*
X3661Y1382D01*
X3714Y1382D02*
X3761Y1382D01*
X2413Y1381D02*
X2463Y1381D01*
X2513Y1381D02*
X2563Y1381D01*
X2613Y1381D02*
X2663Y1381D01*
X2713Y1381D02*
X2763Y1381D01*
X2813Y1381D02*
X2863Y1381D01*
X2913Y1381D02*
X2963Y1381D01*
X3013Y1381D02*
X3063Y1381D01*
X3113Y1381D02*
X3163Y1381D01*
X3213Y1381D02*
X3263Y1381D01*
X3313Y1381D02*
X3363Y1381D01*
X3413Y1381D02*
X3463Y1381D01*
X3513Y1381D02*
X3562Y1381D01*
X3613Y1381D02*
X3662Y1381D01*
X3713Y1381D02*
X3762Y1381D01*
X2413Y1380D02*
X2464Y1380D01*
X2513Y1380D02*
X2564Y1380D01*
X2613Y1380D02*
X2663Y1380D01*
X2713Y1380D02*
X2763Y1380D01*
X2812Y1380D02*
X2863Y1380D01*
X2912Y1380D02*
X2963Y1380D01*
X3012Y1380D02*
X3063Y1380D01*
X3112Y1380D02*
X3163Y1380D01*
X3212Y1380D02*
X3263Y1380D01*
X3312Y1380D02*
X3363Y1380D01*
X3412Y1380D02*
X3463Y1380D01*
X3512Y1380D02*
X3563Y1380D01*
X3612Y1380D02*
X3663Y1380D01*
X3712Y1380D02*
X3763Y1380D01*
X2412Y1379D02*
X2464Y1379D01*
X2512Y1379D02*
X2564Y1379D01*
X2612Y1379D02*
X2664Y1379D01*
X2712Y1379D02*
X2764Y1379D01*
X2812Y1379D02*
X2864Y1379D01*
X2912Y1379D02*
X2964Y1379D01*
X3012Y1379D02*
X3064Y1379D01*
X3112Y1379D02*
X3164Y1379D01*
X3212Y1379D02*
X3264Y1379D01*
X3312Y1379D02*
X3364Y1379D01*
X3412Y1379D02*
X3464Y1379D01*
X3512Y1379D02*
X3564Y1379D01*
X3612Y1379D02*
X3664Y1379D01*
X3712Y1379D02*
X3764Y1379D01*
X2411Y1378D02*
X2465Y1378D01*
X2511Y1378D02*
X2565Y1378D01*
X2611Y1378D02*
X2665Y1378D01*
X2711Y1378D02*
X2765Y1378D01*
X2811Y1378D02*
X2865Y1378D01*
X2911Y1378D02*
X2965Y1378D01*
X3011Y1378D02*
X3065Y1378D01*
X3111Y1378D02*
X3165Y1378D01*
X3211Y1378D02*
X3265Y1378D01*
X3311Y1378D02*
X3365Y1378D01*
X3411Y1378D02*
X3465Y1378D01*
X3511Y1378D02*
X3565Y1378D01*
X3611Y1378D02*
X3665Y1378D01*
X3711Y1378D02*
X3765Y1378D01*
X2410Y1377D02*
X2466Y1377D01*
X2510Y1377D02*
X2566Y1377D01*
X2610Y1377D02*
X2666Y1377D01*
X2710Y1377D02*
X2766Y1377D01*
X2810Y1377D02*
X2866Y1377D01*
X2910Y1377D02*
X2966Y1377D01*
X3010Y1377D02*
X3066Y1377D01*
X3110Y1377D02*
X3166Y1377D01*
X3210Y1377D02*
X3266Y1377D01*
X3310Y1377D02*
X3366Y1377D01*
X3410Y1377D02*
X3466Y1377D01*
X3510Y1377D02*
X3566Y1377D01*
X3610Y1377D02*
X3666Y1377D01*
X3710Y1377D02*
X3766Y1377D01*
X2410Y1376D02*
X2467Y1376D01*
X2510Y1376D02*
X2567Y1376D01*
X2609Y1376D02*
X2667Y1376D01*
X2709Y1376D02*
X2767Y1376D01*
X2809Y1376D02*
X2866Y1376D01*
X2909Y1376D02*
X2966Y1376D01*
X3009Y1376D02*
X3066Y1376D01*
X3109Y1376D02*
X3166Y1376D01*
X3209Y1376D02*
X3266Y1376D01*
X3309Y1376D02*
X3366Y1376D01*
X3409Y1376D02*
X3466Y1376D01*
X3509Y1376D02*
X3566Y1376D01*
X3609Y1376D02*
X3666Y1376D01*
X3709Y1376D02*
X3766Y1376D01*
X2409Y1375D02*
X2467Y1375D01*
X2509Y1375D02*
X2567Y1375D01*
X2609Y1375D02*
X2667Y1375D01*
X2709Y1375D02*
X2767Y1375D01*
X2809Y1375D02*
X2867Y1375D01*
X2909Y1375D02*
X2967Y1375D01*
X3009Y1375D02*
X3067Y1375D01*
X3109Y1375D02*
X3167Y1375D01*
X3209Y1375D02*
X3267Y1375D01*
X3309Y1375D02*
X3367Y1375D01*
X3409Y1375D02*
X3467Y1375D01*
X3509Y1375D02*
X3567Y1375D01*
X3609Y1375D02*
X3667Y1375D01*
X3709Y1375D02*
X3767Y1375D01*
X2408Y1374D02*
X2468Y1374D01*
X2508Y1374D02*
X2568Y1374D01*
X2608Y1374D02*
X2668Y1374D01*
X2708Y1374D02*
X2768Y1374D01*
X2808Y1374D02*
X2868Y1374D01*
X2908Y1374D02*
X2968Y1374D01*
X3008Y1374D02*
X3068Y1374D01*
X3108Y1374D02*
X3168Y1374D01*
X3208Y1374D02*
X3268Y1374D01*
X3308Y1374D02*
X3368Y1374D01*
X3408Y1374D02*
X3468Y1374D01*
X3508Y1374D02*
X3568Y1374D01*
X3608Y1374D02*
X3668Y1374D01*
X3708Y1374D02*
X3768Y1374D01*
X2408Y1373D02*
X2468Y1373D01*
X2508Y1373D02*
X2568Y1373D01*
X2608Y1373D02*
X2668Y1373D01*
X2708Y1373D02*
X2768Y1373D01*
X2808Y1373D02*
X2868Y1373D01*
X2908Y1373D02*
X2968Y1373D01*
X3008Y1373D02*
X3068Y1373D01*
X3108Y1373D02*
X3168Y1373D01*
X3208Y1373D02*
X3268Y1373D01*
X3308Y1373D02*
X3368Y1373D01*
X3408Y1373D02*
X3468Y1373D01*
X3508Y1373D02*
X3568Y1373D01*
X3608Y1373D02*
X3668Y1373D01*
X3708Y1373D02*
X3768Y1373D01*
X2407Y1372D02*
X2469Y1372D01*
X2507Y1372D02*
X2569Y1372D01*
X2607Y1372D02*
X2669Y1372D01*
X2707Y1372D02*
X2769Y1372D01*
X2807Y1372D02*
X2869Y1372D01*
X2907Y1372D02*
X2969Y1372D01*
X3007Y1372D02*
X3069Y1372D01*
X3107Y1372D02*
X3169Y1372D01*
X3207Y1372D02*
X3269Y1372D01*
X3307Y1372D02*
X3369Y1372D01*
X3407Y1372D02*
X3469Y1372D01*
X3507Y1372D02*
X3569Y1372D01*
X3607Y1372D02*
X3669Y1372D01*
X3707Y1372D02*
X3769Y1372D01*
X2407Y1371D02*
X2433Y1371D01*
X2443Y1371D02*
X2469Y1371D01*
X2507Y1371D02*
X2533Y1371D01*
X2543Y1371D02*
X2569Y1371D01*
X2607Y1371D02*
X2633Y1371D01*
X2643Y1371D02*
X2669Y1371D01*
X2707Y1371D02*
X2733Y1371D01*
X2743Y1371D02*
X2769Y1371D01*
X2807Y1371D02*
X2833Y1371D01*
X2843Y1371D02*
X2869Y1371D01*
X2907Y1371D02*
X2933Y1371D01*
X2943Y1371D02*
X2969Y1371D01*
X3007Y1371D02*
X3033Y1371D01*
X3043Y1371D02*
X3069Y1371D01*
X3107Y1371D02*
X3133Y1371D01*
X3143Y1371D02*
X3169Y1371D01*
X3207Y1371D02*
X3233Y1371D01*
X3243Y1371D02*
X3269Y1371D01*
X3307Y1371D02*
X3333Y1371D01*
X3343Y1371D02*
X3369Y1371D01*
X3407Y1371D02*
X3433Y1371D01*
X3443Y1371D02*
X3469Y1371D01*
X3507Y1371D02*
X3533Y1371D01*
X3543Y1371D02*
X3569Y1371D01*
X3607Y1371D02*
X3633Y1371D01*
X3643Y1371D02*
X3669Y1371D01*
X3707Y1371D02*
X3733Y1371D01*
X3743Y1371D02*
X3769Y1371D01*
X2406Y1370D02*
X2430Y1370D01*
X2446Y1370D02*
X2470Y1370D01*
X2506Y1370D02*
X2530Y1370D01*
X2546Y1370D02*
X2570Y1370D01*
X2606Y1370D02*
X2630Y1370D01*
X2646Y1370D02*
X2670Y1370D01*
X2706Y1370D02*
X2730Y1370D01*
X2746Y1370D02*
X2770Y1370D01*
X2806Y1370D02*
X2830Y1370D01*
X2846Y1370D02*
X2870Y1370D01*
X2906Y1370D02*
X2930Y1370D01*
X2946Y1370D02*
X2970Y1370D01*
X3006Y1370D02*
X3030Y1370D01*
X3045Y1370D02*
X3070Y1370D01*
X3106Y1370D02*
X3130Y1370D01*
X3145Y1370D02*
X3170Y1370D01*
X3206Y1370D02*
X3230Y1370D01*
X3245Y1370D02*
X3270Y1370D01*
X3306Y1370D02*
X3330Y1370D01*
X3345Y1370D02*
X3370Y1370D01*
X3406Y1370D02*
X3430Y1370D01*
X3445Y1370D02*
X3470Y1370D01*
X3506Y1370D02*
X3530Y1370D01*
X3545Y1370D02*
X3570Y1370D01*
X3606Y1370D02*
X3630Y1370D01*
X3645Y1370D02*
X3670Y1370D01*
X3706Y1370D02*
X3730Y1370D01*
X3745Y1370D02*
X3770Y1370D01*
X2406Y1369D02*
X2429Y1369D01*
X2447Y1369D02*
X2470Y1369D01*
X2506Y1369D02*
X2529Y1369D01*
X2547Y1369D02*
X2570Y1369D01*
X2606Y1369D02*
X2629Y1369D01*
X2647Y1369D02*
X2670Y1369D01*
X2706Y1369D02*
X2729Y1369D01*
X2747Y1369D02*
X2770Y1369D01*
X2806Y1369D02*
X2829Y1369D01*
X2847Y1369D02*
X2870Y1369D01*
X2906Y1369D02*
X2929Y1369D01*
X2947Y1369D02*
X2970Y1369D01*
X3006Y1369D02*
X3029Y1369D01*
X3047Y1369D02*
X3070Y1369D01*
X3106Y1369D02*
X3129Y1369D01*
X3147Y1369D02*
X3170Y1369D01*
X3206Y1369D02*
X3229Y1369D01*
X3247Y1369D02*
X3270Y1369D01*
X3306Y1369D02*
X3329Y1369D01*
X3347Y1369D02*
X3370Y1369D01*
X3406Y1369D02*
X3429Y1369D01*
X3447Y1369D02*
X3470Y1369D01*
X3506Y1369D02*
X3529Y1369D01*
X3547Y1369D02*
X3570Y1369D01*
X3606Y1369D02*
X3629Y1369D01*
X3647Y1369D02*
X3670Y1369D01*
X3706Y1369D02*
X3729Y1369D01*
X3747Y1369D02*
X3770Y1369D01*
X2406Y1368D02*
X2428Y1368D01*
X2448Y1368D02*
X2470Y1368D01*
X2506Y1368D02*
X2528Y1368D01*
X2548Y1368D02*
X2570Y1368D01*
X2606Y1368D02*
X2628Y1368D01*
X2648Y1368D02*
X2670Y1368D01*
X2706Y1368D02*
X2728Y1368D01*
X2748Y1368D02*
X2770Y1368D01*
X2806Y1368D02*
X2828Y1368D01*
X2848Y1368D02*
X2870Y1368D01*
X2906Y1368D02*
X2928Y1368D01*
X2948Y1368D02*
X2970Y1368D01*
X3006Y1368D02*
X3028Y1368D01*
X3048Y1368D02*
X3070Y1368D01*
X3106Y1368D02*
X3128Y1368D01*
X3148Y1368D02*
X3170Y1368D01*
X3206Y1368D02*
X3228Y1368D01*
X3248Y1368D02*
X3270Y1368D01*
X3306Y1368D02*
X3328Y1368D01*
X3348Y1368D02*
X3370Y1368D01*
X3406Y1368D02*
X3428Y1368D01*
X3448Y1368D02*
X3470Y1368D01*
X3506Y1368D02*
X3528Y1368D01*
X3548Y1368D02*
X3570Y1368D01*
X3605Y1368D02*
X3628Y1368D01*
X3648Y1368D02*
X3670Y1368D01*
X3705Y1368D02*
X3728Y1368D01*
X3748Y1368D02*
X3770Y1368D01*
X2405Y1367D02*
X2427Y1367D01*
X2449Y1367D02*
X2471Y1367D01*
X2505Y1367D02*
X2527Y1367D01*
X2549Y1367D02*
X2571Y1367D01*
X2605Y1367D02*
X2627Y1367D01*
X2649Y1367D02*
X2671Y1367D01*
X2705Y1367D02*
X2727Y1367D01*
X2749Y1367D02*
X2771Y1367D01*
X2805Y1367D02*
X2827Y1367D01*
X2849Y1367D02*
X2871Y1367D01*
X2905Y1367D02*
X2927Y1367D01*
X2949Y1367D02*
X2971Y1367D01*
X3005Y1367D02*
X3027Y1367D01*
X3049Y1367D02*
X3071Y1367D01*
X3105Y1367D02*
X3127Y1367D01*
X3149Y1367D02*
X3171Y1367D01*
X3205Y1367D02*
X3227Y1367D01*
X3249Y1367D02*
X3271Y1367D01*
X3305Y1367D02*
X3327Y1367D01*
X3349Y1367D02*
X3371Y1367D01*
X3405Y1367D02*
X3427Y1367D01*
X3449Y1367D02*
X3471Y1367D01*
X3505Y1367D02*
X3527Y1367D01*
X3549Y1367D02*
X3571Y1367D01*
X3605Y1367D02*
X3627Y1367D01*
X3649Y1367D02*
X3671Y1367D01*
X3705Y1367D02*
X3727Y1367D01*
X3749Y1367D02*
X3771Y1367D01*
X2405Y1366D02*
X2426Y1366D01*
X2450Y1366D02*
X2471Y1366D01*
X2505Y1366D02*
X2526Y1366D01*
X2550Y1366D02*
X2571Y1366D01*
X2605Y1366D02*
X2626Y1366D01*
X2650Y1366D02*
X2671Y1366D01*
X2705Y1366D02*
X2726Y1366D01*
X2750Y1366D02*
X2771Y1366D01*
X2805Y1366D02*
X2826Y1366D01*
X2850Y1366D02*
X2871Y1366D01*
X2905Y1366D02*
X2926Y1366D01*
X2950Y1366D02*
X2971Y1366D01*
X3005Y1366D02*
X3026Y1366D01*
X3050Y1366D02*
X3071Y1366D01*
X3105Y1366D02*
X3126Y1366D01*
X3150Y1366D02*
X3171Y1366D01*
X3205Y1366D02*
X3226Y1366D01*
X3250Y1366D02*
X3271Y1366D01*
X3305Y1366D02*
X3326Y1366D01*
X3350Y1366D02*
X3371Y1366D01*
X3405Y1366D02*
X3426Y1366D01*
X3450Y1366D02*
X3471Y1366D01*
X3505Y1366D02*
X3526Y1366D01*
X3550Y1366D02*
X3571Y1366D01*
X3605Y1366D02*
X3626Y1366D01*
X3650Y1366D02*
X3671Y1366D01*
X3705Y1366D02*
X3726Y1366D01*
X3750Y1366D02*
X3771Y1366D01*
X2405Y1365D02*
X2425Y1365D01*
X2451Y1365D02*
X2471Y1365D01*
X2505Y1365D02*
X2525Y1365D01*
X2551Y1365D02*
X2571Y1365D01*
X2605Y1365D02*
X2625Y1365D01*
X2651Y1365D02*
X2671Y1365D01*
X2705Y1365D02*
X2725Y1365D01*
X2751Y1365D02*
X2771Y1365D01*
X2805Y1365D02*
X2825Y1365D01*
X2851Y1365D02*
X2871Y1365D01*
X2905Y1365D02*
X2925Y1365D01*
X2951Y1365D02*
X2971Y1365D01*
X3005Y1365D02*
X3025Y1365D01*
X3051Y1365D02*
X3071Y1365D01*
X3105Y1365D02*
X3125Y1365D01*
X3151Y1365D02*
X3171Y1365D01*
X3205Y1365D02*
X3225Y1365D01*
X3251Y1365D02*
X3271Y1365D01*
X3305Y1365D02*
X3325Y1365D01*
X3351Y1365D02*
X3371Y1365D01*
X3405Y1365D02*
X3425Y1365D01*
X3451Y1365D02*
X3471Y1365D01*
X3505Y1365D02*
X3525Y1365D01*
X3551Y1365D02*
X3571Y1365D01*
X3605Y1365D02*
X3625Y1365D01*
X3651Y1365D02*
X3671Y1365D01*
X3705Y1365D02*
X3725Y1365D01*
X3751Y1365D02*
X3771Y1365D01*
X2404Y1364D02*
X2424Y1364D01*
X2452Y1364D02*
X2472Y1364D01*
X2504Y1364D02*
X2524Y1364D01*
X2552Y1364D02*
X2572Y1364D01*
X2604Y1364D02*
X2624Y1364D01*
X2652Y1364D02*
X2672Y1364D01*
X2704Y1364D02*
X2724Y1364D01*
X2752Y1364D02*
X2772Y1364D01*
X2804Y1364D02*
X2824Y1364D01*
X2852Y1364D02*
X2872Y1364D01*
X2904Y1364D02*
X2924Y1364D01*
X2952Y1364D02*
X2972Y1364D01*
X3004Y1364D02*
X3024Y1364D01*
X3052Y1364D02*
X3072Y1364D01*
X3104Y1364D02*
X3124Y1364D01*
X3152Y1364D02*
X3172Y1364D01*
X3204Y1364D02*
X3224Y1364D01*
X3252Y1364D02*
X3272Y1364D01*
X3304Y1364D02*
X3324Y1364D01*
X3352Y1364D02*
X3372Y1364D01*
X3404Y1364D02*
X3424Y1364D01*
X3452Y1364D02*
X3471Y1364D01*
X3504Y1364D02*
X3524Y1364D01*
X3552Y1364D02*
X3571Y1364D01*
X3604Y1364D02*
X3624Y1364D01*
X3652Y1364D02*
X3671Y1364D01*
X3704Y1364D02*
X3724Y1364D01*
X3752Y1364D02*
X3771Y1364D01*
X2404Y1363D02*
X2424Y1363D01*
X2452Y1363D02*
X2472Y1363D01*
X2504Y1363D02*
X2524Y1363D01*
X2552Y1363D02*
X2572Y1363D01*
X2604Y1363D02*
X2624Y1363D01*
X2652Y1363D02*
X2672Y1363D01*
X2704Y1363D02*
X2724Y1363D01*
X2752Y1363D02*
X2772Y1363D01*
X2804Y1363D02*
X2824Y1363D01*
X2852Y1363D02*
X2872Y1363D01*
X2904Y1363D02*
X2924Y1363D01*
X2952Y1363D02*
X2972Y1363D01*
X3004Y1363D02*
X3024Y1363D01*
X3052Y1363D02*
X3072Y1363D01*
X3104Y1363D02*
X3124Y1363D01*
X3152Y1363D02*
X3172Y1363D01*
X3204Y1363D02*
X3224Y1363D01*
X3252Y1363D02*
X3272Y1363D01*
X3304Y1363D02*
X3324Y1363D01*
X3352Y1363D02*
X3372Y1363D01*
X3404Y1363D02*
X3424Y1363D01*
X3452Y1363D02*
X3472Y1363D01*
X3504Y1363D02*
X3524Y1363D01*
X3552Y1363D02*
X3572Y1363D01*
X3604Y1363D02*
X3624Y1363D01*
X3652Y1363D02*
X3672Y1363D01*
X3704Y1363D02*
X3724Y1363D01*
X3752Y1363D02*
X3772Y1363D01*
X2404Y1362D02*
X2423Y1362D01*
X2453Y1362D02*
X2472Y1362D01*
X2504Y1362D02*
X2523Y1362D01*
X2553Y1362D02*
X2572Y1362D01*
X2604Y1362D02*
X2623Y1362D01*
X2653Y1362D02*
X2672Y1362D01*
X2704Y1362D02*
X2723Y1362D01*
X2753Y1362D02*
X2772Y1362D01*
X2804Y1362D02*
X2823Y1362D01*
X2853Y1362D02*
X2872Y1362D01*
X2904Y1362D02*
X2923Y1362D01*
X2953Y1362D02*
X2972Y1362D01*
X3004Y1362D02*
X3023Y1362D01*
X3053Y1362D02*
X3072Y1362D01*
X3104Y1362D02*
X3123Y1362D01*
X3153Y1362D02*
X3172Y1362D01*
X3204Y1362D02*
X3223Y1362D01*
X3253Y1362D02*
X3272Y1362D01*
X3304Y1362D02*
X3323Y1362D01*
X3353Y1362D02*
X3372Y1362D01*
X3404Y1362D02*
X3423Y1362D01*
X3453Y1362D02*
X3472Y1362D01*
X3504Y1362D02*
X3523Y1362D01*
X3553Y1362D02*
X3572Y1362D01*
X3604Y1362D02*
X3623Y1362D01*
X3653Y1362D02*
X3672Y1362D01*
X3704Y1362D02*
X3723Y1362D01*
X3753Y1362D02*
X3772Y1362D01*
X2404Y1361D02*
X2423Y1361D01*
X2453Y1361D02*
X2472Y1361D01*
X2504Y1361D02*
X2523Y1361D01*
X2553Y1361D02*
X2572Y1361D01*
X2604Y1361D02*
X2623Y1361D01*
X2653Y1361D02*
X2672Y1361D01*
X2704Y1361D02*
X2723Y1361D01*
X2753Y1361D02*
X2772Y1361D01*
X2804Y1361D02*
X2823Y1361D01*
X2853Y1361D02*
X2872Y1361D01*
X2904Y1361D02*
X2923Y1361D01*
X2953Y1361D02*
X2972Y1361D01*
X3004Y1361D02*
X3023Y1361D01*
X3053Y1361D02*
X3072Y1361D01*
X3104Y1361D02*
X3123Y1361D01*
X3153Y1361D02*
X3172Y1361D01*
X3204Y1361D02*
X3223Y1361D01*
X3253Y1361D02*
X3272Y1361D01*
X3304Y1361D02*
X3323Y1361D01*
X3353Y1361D02*
X3372Y1361D01*
X3404Y1361D02*
X3423Y1361D01*
X3453Y1361D02*
X3472Y1361D01*
X3504Y1361D02*
X3523Y1361D01*
X3553Y1361D02*
X3572Y1361D01*
X3604Y1361D02*
X3623Y1361D01*
X3653Y1361D02*
X3672Y1361D01*
X3704Y1361D02*
X3723Y1361D01*
X3753Y1361D02*
X3772Y1361D01*
X2404Y1360D02*
X2423Y1360D01*
X2453Y1360D02*
X2472Y1360D01*
X2504Y1360D02*
X2523Y1360D01*
X2553Y1360D02*
X2572Y1360D01*
X2604Y1360D02*
X2623Y1360D01*
X2653Y1360D02*
X2672Y1360D01*
X2704Y1360D02*
X2723Y1360D01*
X2753Y1360D02*
X2772Y1360D01*
X2804Y1360D02*
X2823Y1360D01*
X2853Y1360D02*
X2872Y1360D01*
X2904Y1360D02*
X2923Y1360D01*
X2953Y1360D02*
X2972Y1360D01*
X3004Y1360D02*
X3023Y1360D01*
X3053Y1360D02*
X3072Y1360D01*
X3104Y1360D02*
X3123Y1360D01*
X3153Y1360D02*
X3172Y1360D01*
X3204Y1360D02*
X3223Y1360D01*
X3253Y1360D02*
X3272Y1360D01*
X3304Y1360D02*
X3323Y1360D01*
X3353Y1360D02*
X3372Y1360D01*
X3404Y1360D02*
X3423Y1360D01*
X3453Y1360D02*
X3472Y1360D01*
X3504Y1360D02*
X3523Y1360D01*
X3553Y1360D02*
X3572Y1360D01*
X3604Y1360D02*
X3623Y1360D01*
X3653Y1360D02*
X3672Y1360D01*
X3704Y1360D02*
X3723Y1360D01*
X3753Y1360D02*
X3772Y1360D01*
X2404Y1359D02*
X2423Y1359D01*
X2453Y1359D02*
X2472Y1359D01*
X2504Y1359D02*
X2523Y1359D01*
X2553Y1359D02*
X2572Y1359D01*
X2604Y1359D02*
X2623Y1359D01*
X2653Y1359D02*
X2672Y1359D01*
X2704Y1359D02*
X2723Y1359D01*
X2753Y1359D02*
X2772Y1359D01*
X2804Y1359D02*
X2823Y1359D01*
X2853Y1359D02*
X2872Y1359D01*
X2904Y1359D02*
X2923Y1359D01*
X2953Y1359D02*
X2972Y1359D01*
X3004Y1359D02*
X3023Y1359D01*
X3053Y1359D02*
X3072Y1359D01*
X3104Y1359D02*
X3123Y1359D01*
X3153Y1359D02*
X3172Y1359D01*
X3204Y1359D02*
X3223Y1359D01*
X3253Y1359D02*
X3272Y1359D01*
X3304Y1359D02*
X3323Y1359D01*
X3353Y1359D02*
X3372Y1359D01*
X3404Y1359D02*
X3423Y1359D01*
X3453Y1359D02*
X3472Y1359D01*
X3504Y1359D02*
X3523Y1359D01*
X3553Y1359D02*
X3572Y1359D01*
X3604Y1359D02*
X3623Y1359D01*
X3653Y1359D02*
X3672Y1359D01*
X3704Y1359D02*
X3723Y1359D01*
X3753Y1359D02*
X3772Y1359D01*
X2404Y1358D02*
X2423Y1358D01*
X2453Y1358D02*
X2472Y1358D01*
X2504Y1358D02*
X2523Y1358D01*
X2553Y1358D02*
X2572Y1358D01*
X2604Y1358D02*
X2623Y1358D01*
X2653Y1358D02*
X2672Y1358D01*
X2704Y1358D02*
X2723Y1358D01*
X2753Y1358D02*
X2772Y1358D01*
X2804Y1358D02*
X2823Y1358D01*
X2853Y1358D02*
X2872Y1358D01*
X2904Y1358D02*
X2923Y1358D01*
X2953Y1358D02*
X2972Y1358D01*
X3004Y1358D02*
X3023Y1358D01*
X3053Y1358D02*
X3072Y1358D01*
X3104Y1358D02*
X3123Y1358D01*
X3153Y1358D02*
X3172Y1358D01*
X3204Y1358D02*
X3223Y1358D01*
X3253Y1358D02*
X3272Y1358D01*
X3303Y1358D02*
X3323Y1358D01*
X3353Y1358D02*
X3372Y1358D01*
X3403Y1358D02*
X3423Y1358D01*
X3453Y1358D02*
X3472Y1358D01*
X3503Y1358D02*
X3523Y1358D01*
X3553Y1358D02*
X3572Y1358D01*
X3603Y1358D02*
X3622Y1358D01*
X3653Y1358D02*
X3672Y1358D01*
X3703Y1358D02*
X3722Y1358D01*
X3753Y1358D02*
X3772Y1358D01*
X2404Y1357D02*
X2423Y1357D01*
X2453Y1357D02*
X2473Y1357D01*
X2504Y1357D02*
X2523Y1357D01*
X2553Y1357D02*
X2572Y1357D01*
X2604Y1357D02*
X2623Y1357D01*
X2653Y1357D02*
X2672Y1357D01*
X2704Y1357D02*
X2723Y1357D01*
X2753Y1357D02*
X2772Y1357D01*
X2804Y1357D02*
X2823Y1357D01*
X2853Y1357D02*
X2872Y1357D01*
X2903Y1357D02*
X2923Y1357D01*
X2953Y1357D02*
X2972Y1357D01*
X3003Y1357D02*
X3022Y1357D01*
X3053Y1357D02*
X3072Y1357D01*
X3103Y1357D02*
X3122Y1357D01*
X3153Y1357D02*
X3172Y1357D01*
X3203Y1357D02*
X3222Y1357D01*
X3253Y1357D02*
X3272Y1357D01*
X3303Y1357D02*
X3322Y1357D01*
X3353Y1357D02*
X3372Y1357D01*
X3403Y1357D02*
X3422Y1357D01*
X3453Y1357D02*
X3472Y1357D01*
X3503Y1357D02*
X3522Y1357D01*
X3553Y1357D02*
X3572Y1357D01*
X3603Y1357D02*
X3622Y1357D01*
X3653Y1357D02*
X3672Y1357D01*
X3703Y1357D02*
X3722Y1357D01*
X3753Y1357D02*
X3772Y1357D01*
X2404Y1356D02*
X2423Y1356D01*
X2453Y1356D02*
X2472Y1356D01*
X2504Y1356D02*
X2523Y1356D01*
X2553Y1356D02*
X2572Y1356D01*
X2604Y1356D02*
X2623Y1356D01*
X2653Y1356D02*
X2672Y1356D01*
X2704Y1356D02*
X2723Y1356D01*
X2753Y1356D02*
X2772Y1356D01*
X2804Y1356D02*
X2823Y1356D01*
X2853Y1356D02*
X2872Y1356D01*
X2904Y1356D02*
X2923Y1356D01*
X2953Y1356D02*
X2972Y1356D01*
X3004Y1356D02*
X3023Y1356D01*
X3053Y1356D02*
X3072Y1356D01*
X3103Y1356D02*
X3123Y1356D01*
X3153Y1356D02*
X3172Y1356D01*
X3203Y1356D02*
X3222Y1356D01*
X3253Y1356D02*
X3272Y1356D01*
X3303Y1356D02*
X3322Y1356D01*
X3353Y1356D02*
X3372Y1356D01*
X3403Y1356D02*
X3422Y1356D01*
X3453Y1356D02*
X3472Y1356D01*
X3503Y1356D02*
X3522Y1356D01*
X3553Y1356D02*
X3572Y1356D01*
X3603Y1356D02*
X3622Y1356D01*
X3653Y1356D02*
X3672Y1356D01*
X3703Y1356D02*
X3722Y1356D01*
X3753Y1356D02*
X3772Y1356D01*
X2404Y1355D02*
X2423Y1355D01*
X2453Y1355D02*
X2472Y1355D01*
X2504Y1355D02*
X2523Y1355D01*
X2553Y1355D02*
X2572Y1355D01*
X2604Y1355D02*
X2623Y1355D01*
X2653Y1355D02*
X2672Y1355D01*
X2704Y1355D02*
X2723Y1355D01*
X2753Y1355D02*
X2772Y1355D01*
X2804Y1355D02*
X2823Y1355D01*
X2853Y1355D02*
X2872Y1355D01*
X2904Y1355D02*
X2923Y1355D01*
X2953Y1355D02*
X2972Y1355D01*
X3004Y1355D02*
X3023Y1355D01*
X3053Y1355D02*
X3072Y1355D01*
X3104Y1355D02*
X3123Y1355D01*
X3153Y1355D02*
X3172Y1355D01*
X3204Y1355D02*
X3223Y1355D01*
X3253Y1355D02*
X3272Y1355D01*
X3304Y1355D02*
X3323Y1355D01*
X3353Y1355D02*
X3372Y1355D01*
X3404Y1355D02*
X3423Y1355D01*
X3453Y1355D02*
X3472Y1355D01*
X3503Y1355D02*
X3523Y1355D01*
X3553Y1355D02*
X3572Y1355D01*
X3603Y1355D02*
X3623Y1355D01*
X3653Y1355D02*
X3672Y1355D01*
X3703Y1355D02*
X3722Y1355D01*
X3753Y1355D02*
X3772Y1355D01*
X2404Y1354D02*
X2423Y1354D01*
X2453Y1354D02*
X2472Y1354D01*
X2504Y1354D02*
X2523Y1354D01*
X2553Y1354D02*
X2572Y1354D01*
X2604Y1354D02*
X2623Y1354D01*
X2653Y1354D02*
X2672Y1354D01*
X2704Y1354D02*
X2723Y1354D01*
X2753Y1354D02*
X2772Y1354D01*
X2804Y1354D02*
X2823Y1354D01*
X2853Y1354D02*
X2872Y1354D01*
X2904Y1354D02*
X2923Y1354D01*
X2953Y1354D02*
X2972Y1354D01*
X3004Y1354D02*
X3023Y1354D01*
X3053Y1354D02*
X3072Y1354D01*
X3104Y1354D02*
X3123Y1354D01*
X3153Y1354D02*
X3172Y1354D01*
X3204Y1354D02*
X3223Y1354D01*
X3253Y1354D02*
X3272Y1354D01*
X3304Y1354D02*
X3323Y1354D01*
X3353Y1354D02*
X3372Y1354D01*
X3404Y1354D02*
X3423Y1354D01*
X3453Y1354D02*
X3472Y1354D01*
X3504Y1354D02*
X3523Y1354D01*
X3553Y1354D02*
X3572Y1354D01*
X3604Y1354D02*
X3623Y1354D01*
X3653Y1354D02*
X3672Y1354D01*
X3704Y1354D02*
X3723Y1354D01*
X3753Y1354D02*
X3772Y1354D01*
X2404Y1353D02*
X2423Y1353D01*
X2453Y1353D02*
X2472Y1353D01*
X2504Y1353D02*
X2523Y1353D01*
X2553Y1353D02*
X2572Y1353D01*
X2604Y1353D02*
X2623Y1353D01*
X2653Y1353D02*
X2672Y1353D01*
X2704Y1353D02*
X2723Y1353D01*
X2753Y1353D02*
X2772Y1353D01*
X2804Y1353D02*
X2823Y1353D01*
X2853Y1353D02*
X2872Y1353D01*
X2904Y1353D02*
X2923Y1353D01*
X2953Y1353D02*
X2972Y1353D01*
X3004Y1353D02*
X3023Y1353D01*
X3053Y1353D02*
X3072Y1353D01*
X3104Y1353D02*
X3123Y1353D01*
X3153Y1353D02*
X3172Y1353D01*
X3204Y1353D02*
X3223Y1353D01*
X3253Y1353D02*
X3272Y1353D01*
X3304Y1353D02*
X3323Y1353D01*
X3353Y1353D02*
X3372Y1353D01*
X3404Y1353D02*
X3423Y1353D01*
X3453Y1353D02*
X3472Y1353D01*
X3504Y1353D02*
X3523Y1353D01*
X3553Y1353D02*
X3572Y1353D01*
X3604Y1353D02*
X3623Y1353D01*
X3653Y1353D02*
X3672Y1353D01*
X3704Y1353D02*
X3723Y1353D01*
X3753Y1353D02*
X3772Y1353D01*
X2404Y1352D02*
X2423Y1352D01*
X2453Y1352D02*
X2472Y1352D01*
X2504Y1352D02*
X2523Y1352D01*
X2553Y1352D02*
X2572Y1352D01*
X2604Y1352D02*
X2623Y1352D01*
X2653Y1352D02*
X2672Y1352D01*
X2704Y1352D02*
X2723Y1352D01*
X2753Y1352D02*
X2772Y1352D01*
X2804Y1352D02*
X2823Y1352D01*
X2853Y1352D02*
X2872Y1352D01*
X2904Y1352D02*
X2923Y1352D01*
X2953Y1352D02*
X2972Y1352D01*
X3004Y1352D02*
X3023Y1352D01*
X3053Y1352D02*
X3072Y1352D01*
X3104Y1352D02*
X3123Y1352D01*
X3153Y1352D02*
X3172Y1352D01*
X3204Y1352D02*
X3223Y1352D01*
X3253Y1352D02*
X3272Y1352D01*
X3304Y1352D02*
X3323Y1352D01*
X3353Y1352D02*
X3372Y1352D01*
X3404Y1352D02*
X3423Y1352D01*
X3453Y1352D02*
X3472Y1352D01*
X3504Y1352D02*
X3523Y1352D01*
X3553Y1352D02*
X3572Y1352D01*
X3604Y1352D02*
X3623Y1352D01*
X3653Y1352D02*
X3672Y1352D01*
X3704Y1352D02*
X3723Y1352D01*
X3753Y1352D02*
X3772Y1352D01*
X2404Y1351D02*
X2423Y1351D01*
X2453Y1351D02*
X2472Y1351D01*
X2504Y1351D02*
X2523Y1351D01*
X2553Y1351D02*
X2572Y1351D01*
X2604Y1351D02*
X2623Y1351D01*
X2653Y1351D02*
X2672Y1351D01*
X2704Y1351D02*
X2723Y1351D01*
X2753Y1351D02*
X2772Y1351D01*
X2804Y1351D02*
X2823Y1351D01*
X2853Y1351D02*
X2872Y1351D01*
X2904Y1351D02*
X2923Y1351D01*
X2953Y1351D02*
X2972Y1351D01*
X3004Y1351D02*
X3023Y1351D01*
X3053Y1351D02*
X3072Y1351D01*
X3104Y1351D02*
X3123Y1351D01*
X3153Y1351D02*
X3172Y1351D01*
X3204Y1351D02*
X3223Y1351D01*
X3253Y1351D02*
X3272Y1351D01*
X3304Y1351D02*
X3323Y1351D01*
X3352Y1351D02*
X3372Y1351D01*
X3404Y1351D02*
X3423Y1351D01*
X3452Y1351D02*
X3472Y1351D01*
X3504Y1351D02*
X3523Y1351D01*
X3552Y1351D02*
X3572Y1351D01*
X3604Y1351D02*
X3623Y1351D01*
X3652Y1351D02*
X3672Y1351D01*
X3704Y1351D02*
X3723Y1351D01*
X3752Y1351D02*
X3772Y1351D01*
X2404Y1350D02*
X2424Y1350D01*
X2452Y1350D02*
X2472Y1350D01*
X2504Y1350D02*
X2524Y1350D01*
X2552Y1350D02*
X2572Y1350D01*
X2604Y1350D02*
X2624Y1350D01*
X2652Y1350D02*
X2672Y1350D01*
X2704Y1350D02*
X2724Y1350D01*
X2752Y1350D02*
X2772Y1350D01*
X2804Y1350D02*
X2824Y1350D01*
X2852Y1350D02*
X2872Y1350D01*
X2904Y1350D02*
X2924Y1350D01*
X2952Y1350D02*
X2972Y1350D01*
X3004Y1350D02*
X3024Y1350D01*
X3052Y1350D02*
X3072Y1350D01*
X3104Y1350D02*
X3124Y1350D01*
X3152Y1350D02*
X3172Y1350D01*
X3204Y1350D02*
X3224Y1350D01*
X3252Y1350D02*
X3272Y1350D01*
X3304Y1350D02*
X3324Y1350D01*
X3352Y1350D02*
X3372Y1350D01*
X3404Y1350D02*
X3424Y1350D01*
X3452Y1350D02*
X3472Y1350D01*
X3504Y1350D02*
X3524Y1350D01*
X3552Y1350D02*
X3572Y1350D01*
X3604Y1350D02*
X3624Y1350D01*
X3652Y1350D02*
X3672Y1350D01*
X3704Y1350D02*
X3724Y1350D01*
X3752Y1350D02*
X3772Y1350D01*
X2405Y1349D02*
X2425Y1349D01*
X2452Y1349D02*
X2472Y1349D01*
X2505Y1349D02*
X2525Y1349D01*
X2552Y1349D02*
X2572Y1349D01*
X2605Y1349D02*
X2625Y1349D01*
X2652Y1349D02*
X2672Y1349D01*
X2704Y1349D02*
X2724Y1349D01*
X2751Y1349D02*
X2771Y1349D01*
X2804Y1349D02*
X2824Y1349D01*
X2851Y1349D02*
X2871Y1349D01*
X2904Y1349D02*
X2924Y1349D01*
X2951Y1349D02*
X2971Y1349D01*
X3004Y1349D02*
X3024Y1349D01*
X3051Y1349D02*
X3071Y1349D01*
X3104Y1349D02*
X3124Y1349D01*
X3151Y1349D02*
X3171Y1349D01*
X3204Y1349D02*
X3224Y1349D01*
X3251Y1349D02*
X3271Y1349D01*
X3304Y1349D02*
X3324Y1349D01*
X3351Y1349D02*
X3371Y1349D01*
X3404Y1349D02*
X3424Y1349D01*
X3451Y1349D02*
X3471Y1349D01*
X3504Y1349D02*
X3524Y1349D01*
X3551Y1349D02*
X3571Y1349D01*
X3604Y1349D02*
X3624Y1349D01*
X3651Y1349D02*
X3671Y1349D01*
X3704Y1349D02*
X3724Y1349D01*
X3751Y1349D02*
X3771Y1349D01*
X2405Y1348D02*
X2425Y1348D01*
X2451Y1348D02*
X2471Y1348D01*
X2505Y1348D02*
X2525Y1348D01*
X2551Y1348D02*
X2571Y1348D01*
X2605Y1348D02*
X2625Y1348D01*
X2651Y1348D02*
X2671Y1348D01*
X2705Y1348D02*
X2725Y1348D01*
X2751Y1348D02*
X2771Y1348D01*
X2805Y1348D02*
X2825Y1348D01*
X2851Y1348D02*
X2871Y1348D01*
X2905Y1348D02*
X2925Y1348D01*
X2951Y1348D02*
X2971Y1348D01*
X3005Y1348D02*
X3025Y1348D01*
X3051Y1348D02*
X3071Y1348D01*
X3105Y1348D02*
X3125Y1348D01*
X3151Y1348D02*
X3171Y1348D01*
X3205Y1348D02*
X3225Y1348D01*
X3251Y1348D02*
X3271Y1348D01*
X3305Y1348D02*
X3325Y1348D01*
X3351Y1348D02*
X3371Y1348D01*
X3405Y1348D02*
X3425Y1348D01*
X3451Y1348D02*
X3471Y1348D01*
X3505Y1348D02*
X3525Y1348D01*
X3551Y1348D02*
X3571Y1348D01*
X3605Y1348D02*
X3625Y1348D01*
X3651Y1348D02*
X3671Y1348D01*
X3705Y1348D02*
X3725Y1348D01*
X3751Y1348D02*
X3771Y1348D01*
X2405Y1347D02*
X2426Y1347D01*
X2450Y1347D02*
X2471Y1347D01*
X2505Y1347D02*
X2526Y1347D01*
X2550Y1347D02*
X2571Y1347D01*
X2605Y1347D02*
X2626Y1347D01*
X2650Y1347D02*
X2671Y1347D01*
X2705Y1347D02*
X2726Y1347D01*
X2750Y1347D02*
X2771Y1347D01*
X2805Y1347D02*
X2826Y1347D01*
X2850Y1347D02*
X2871Y1347D01*
X2905Y1347D02*
X2926Y1347D01*
X2950Y1347D02*
X2971Y1347D01*
X3005Y1347D02*
X3026Y1347D01*
X3050Y1347D02*
X3071Y1347D01*
X3105Y1347D02*
X3126Y1347D01*
X3150Y1347D02*
X3171Y1347D01*
X3205Y1347D02*
X3226Y1347D01*
X3250Y1347D02*
X3271Y1347D01*
X3305Y1347D02*
X3326Y1347D01*
X3350Y1347D02*
X3371Y1347D01*
X3405Y1347D02*
X3426Y1347D01*
X3450Y1347D02*
X3471Y1347D01*
X3505Y1347D02*
X3526Y1347D01*
X3550Y1347D02*
X3571Y1347D01*
X3605Y1347D02*
X3626Y1347D01*
X3650Y1347D02*
X3671Y1347D01*
X3705Y1347D02*
X3726Y1347D01*
X3750Y1347D02*
X3771Y1347D01*
X2405Y1346D02*
X2427Y1346D01*
X2449Y1346D02*
X2471Y1346D01*
X2505Y1346D02*
X2527Y1346D01*
X2549Y1346D02*
X2571Y1346D01*
X2605Y1346D02*
X2627Y1346D01*
X2649Y1346D02*
X2671Y1346D01*
X2705Y1346D02*
X2727Y1346D01*
X2749Y1346D02*
X2771Y1346D01*
X2805Y1346D02*
X2827Y1346D01*
X2849Y1346D02*
X2871Y1346D01*
X2905Y1346D02*
X2927Y1346D01*
X2949Y1346D02*
X2971Y1346D01*
X3005Y1346D02*
X3027Y1346D01*
X3049Y1346D02*
X3071Y1346D01*
X3105Y1346D02*
X3127Y1346D01*
X3149Y1346D02*
X3171Y1346D01*
X3205Y1346D02*
X3227Y1346D01*
X3249Y1346D02*
X3271Y1346D01*
X3305Y1346D02*
X3327Y1346D01*
X3349Y1346D02*
X3371Y1346D01*
X3405Y1346D02*
X3427Y1346D01*
X3449Y1346D02*
X3471Y1346D01*
X3505Y1346D02*
X3527Y1346D01*
X3549Y1346D02*
X3571Y1346D01*
X3605Y1346D02*
X3627Y1346D01*
X3649Y1346D02*
X3671Y1346D01*
X3705Y1346D02*
X3727Y1346D01*
X3749Y1346D02*
X3771Y1346D01*
X2406Y1345D02*
X2428Y1345D01*
X2448Y1345D02*
X2470Y1345D01*
X2506Y1345D02*
X2528Y1345D01*
X2548Y1345D02*
X2570Y1345D01*
X2606Y1345D02*
X2628Y1345D01*
X2648Y1345D02*
X2670Y1345D01*
X2706Y1345D02*
X2728Y1345D01*
X2748Y1345D02*
X2770Y1345D01*
X2806Y1345D02*
X2828Y1345D01*
X2848Y1345D02*
X2870Y1345D01*
X2906Y1345D02*
X2928Y1345D01*
X2948Y1345D02*
X2970Y1345D01*
X3006Y1345D02*
X3028Y1345D01*
X3048Y1345D02*
X3070Y1345D01*
X3106Y1345D02*
X3128Y1345D01*
X3148Y1345D02*
X3170Y1345D01*
X3206Y1345D02*
X3228Y1345D01*
X3248Y1345D02*
X3270Y1345D01*
X3306Y1345D02*
X3328Y1345D01*
X3348Y1345D02*
X3370Y1345D01*
X3406Y1345D02*
X3428Y1345D01*
X3448Y1345D02*
X3470Y1345D01*
X3506Y1345D02*
X3528Y1345D01*
X3548Y1345D02*
X3570Y1345D01*
X3606Y1345D02*
X3628Y1345D01*
X3648Y1345D02*
X3670Y1345D01*
X3706Y1345D02*
X3728Y1345D01*
X3748Y1345D02*
X3770Y1345D01*
X2406Y1344D02*
X2429Y1344D01*
X2447Y1344D02*
X2470Y1344D01*
X2506Y1344D02*
X2529Y1344D01*
X2547Y1344D02*
X2570Y1344D01*
X2606Y1344D02*
X2629Y1344D01*
X2647Y1344D02*
X2670Y1344D01*
X2706Y1344D02*
X2729Y1344D01*
X2747Y1344D02*
X2770Y1344D01*
X2806Y1344D02*
X2829Y1344D01*
X2847Y1344D02*
X2870Y1344D01*
X2906Y1344D02*
X2929Y1344D01*
X2947Y1344D02*
X2970Y1344D01*
X3006Y1344D02*
X3029Y1344D01*
X3047Y1344D02*
X3070Y1344D01*
X3106Y1344D02*
X3129Y1344D01*
X3147Y1344D02*
X3170Y1344D01*
X3206Y1344D02*
X3229Y1344D01*
X3247Y1344D02*
X3270Y1344D01*
X3306Y1344D02*
X3329Y1344D01*
X3347Y1344D02*
X3370Y1344D01*
X3406Y1344D02*
X3429Y1344D01*
X3447Y1344D02*
X3470Y1344D01*
X3506Y1344D02*
X3529Y1344D01*
X3547Y1344D02*
X3570Y1344D01*
X3606Y1344D02*
X3629Y1344D01*
X3647Y1344D02*
X3670Y1344D01*
X3706Y1344D02*
X3729Y1344D01*
X3747Y1344D02*
X3770Y1344D01*
X2407Y1343D02*
X2431Y1343D01*
X2445Y1343D02*
X2470Y1343D01*
X2507Y1343D02*
X2531Y1343D01*
X2545Y1343D02*
X2570Y1343D01*
X2606Y1343D02*
X2631Y1343D01*
X2645Y1343D02*
X2670Y1343D01*
X2706Y1343D02*
X2731Y1343D01*
X2745Y1343D02*
X2770Y1343D01*
X2806Y1343D02*
X2831Y1343D01*
X2845Y1343D02*
X2869Y1343D01*
X2906Y1343D02*
X2931Y1343D01*
X2945Y1343D02*
X2969Y1343D01*
X3006Y1343D02*
X3031Y1343D01*
X3045Y1343D02*
X3069Y1343D01*
X3106Y1343D02*
X3131Y1343D01*
X3145Y1343D02*
X3169Y1343D01*
X3206Y1343D02*
X3231Y1343D01*
X3245Y1343D02*
X3269Y1343D01*
X3306Y1343D02*
X3331Y1343D01*
X3345Y1343D02*
X3369Y1343D01*
X3406Y1343D02*
X3431Y1343D01*
X3445Y1343D02*
X3469Y1343D01*
X3506Y1343D02*
X3531Y1343D01*
X3545Y1343D02*
X3569Y1343D01*
X3606Y1343D02*
X3631Y1343D01*
X3645Y1343D02*
X3669Y1343D01*
X3706Y1343D02*
X3731Y1343D01*
X3745Y1343D02*
X3769Y1343D01*
X2407Y1342D02*
X2434Y1342D01*
X2442Y1342D02*
X2469Y1342D01*
X2507Y1342D02*
X2534Y1342D01*
X2542Y1342D02*
X2569Y1342D01*
X2607Y1342D02*
X2634Y1342D01*
X2642Y1342D02*
X2669Y1342D01*
X2707Y1342D02*
X2734Y1342D01*
X2742Y1342D02*
X2769Y1342D01*
X2807Y1342D02*
X2834Y1342D01*
X2842Y1342D02*
X2869Y1342D01*
X2907Y1342D02*
X2934Y1342D01*
X2942Y1342D02*
X2969Y1342D01*
X3007Y1342D02*
X3034Y1342D01*
X3042Y1342D02*
X3069Y1342D01*
X3107Y1342D02*
X3134Y1342D01*
X3142Y1342D02*
X3169Y1342D01*
X3207Y1342D02*
X3234Y1342D01*
X3242Y1342D02*
X3269Y1342D01*
X3307Y1342D02*
X3334Y1342D01*
X3342Y1342D02*
X3369Y1342D01*
X3407Y1342D02*
X3434Y1342D01*
X3442Y1342D02*
X3469Y1342D01*
X3507Y1342D02*
X3534Y1342D01*
X3542Y1342D02*
X3569Y1342D01*
X3607Y1342D02*
X3634Y1342D01*
X3642Y1342D02*
X3669Y1342D01*
X3707Y1342D02*
X3734Y1342D01*
X3742Y1342D02*
X3769Y1342D01*
X2407Y1341D02*
X2469Y1341D01*
X2507Y1341D02*
X2569Y1341D01*
X2607Y1341D02*
X2669Y1341D01*
X2707Y1341D02*
X2769Y1341D01*
X2807Y1341D02*
X2869Y1341D01*
X2907Y1341D02*
X2969Y1341D01*
X3007Y1341D02*
X3069Y1341D01*
X3107Y1341D02*
X3169Y1341D01*
X3207Y1341D02*
X3269Y1341D01*
X3307Y1341D02*
X3368Y1341D01*
X3407Y1341D02*
X3468Y1341D01*
X3507Y1341D02*
X3568Y1341D01*
X3607Y1341D02*
X3668Y1341D01*
X3707Y1341D02*
X3768Y1341D01*
X2408Y1340D02*
X2468Y1340D01*
X2508Y1340D02*
X2568Y1340D01*
X2608Y1340D02*
X2668Y1340D01*
X2708Y1340D02*
X2768Y1340D01*
X2808Y1340D02*
X2868Y1340D01*
X2908Y1340D02*
X2968Y1340D01*
X3008Y1340D02*
X3068Y1340D01*
X3108Y1340D02*
X3168Y1340D01*
X3208Y1340D02*
X3268Y1340D01*
X3308Y1340D02*
X3368Y1340D01*
X3408Y1340D02*
X3468Y1340D01*
X3508Y1340D02*
X3568Y1340D01*
X3608Y1340D02*
X3668Y1340D01*
X3708Y1340D02*
X3768Y1340D01*
X2409Y1339D02*
X2468Y1339D01*
X2509Y1339D02*
X2568Y1339D01*
X2608Y1339D02*
X2668Y1339D01*
X2708Y1339D02*
X2768Y1339D01*
X2808Y1339D02*
X2867Y1339D01*
X2908Y1339D02*
X2967Y1339D01*
X3008Y1339D02*
X3067Y1339D01*
X3108Y1339D02*
X3167Y1339D01*
X3208Y1339D02*
X3267Y1339D01*
X3308Y1339D02*
X3367Y1339D01*
X3408Y1339D02*
X3467Y1339D01*
X3508Y1339D02*
X3567Y1339D01*
X3608Y1339D02*
X3667Y1339D01*
X3708Y1339D02*
X3767Y1339D01*
X2409Y1338D02*
X2467Y1338D01*
X2509Y1338D02*
X2567Y1338D01*
X2609Y1338D02*
X2667Y1338D01*
X2709Y1338D02*
X2767Y1338D01*
X2809Y1338D02*
X2867Y1338D01*
X2909Y1338D02*
X2967Y1338D01*
X3009Y1338D02*
X3067Y1338D01*
X3109Y1338D02*
X3167Y1338D01*
X3209Y1338D02*
X3267Y1338D01*
X3309Y1338D02*
X3367Y1338D01*
X3409Y1338D02*
X3467Y1338D01*
X3509Y1338D02*
X3567Y1338D01*
X3609Y1338D02*
X3667Y1338D01*
X3709Y1338D02*
X3767Y1338D01*
X2410Y1337D02*
X2466Y1337D01*
X2510Y1337D02*
X2566Y1337D01*
X2610Y1337D02*
X2666Y1337D01*
X2710Y1337D02*
X2766Y1337D01*
X2810Y1337D02*
X2866Y1337D01*
X2910Y1337D02*
X2966Y1337D01*
X3010Y1337D02*
X3066Y1337D01*
X3110Y1337D02*
X3166Y1337D01*
X3210Y1337D02*
X3266Y1337D01*
X3310Y1337D02*
X3366Y1337D01*
X3410Y1337D02*
X3466Y1337D01*
X3510Y1337D02*
X3566Y1337D01*
X3610Y1337D02*
X3666Y1337D01*
X3710Y1337D02*
X3766Y1337D01*
X2410Y1336D02*
X2466Y1336D01*
X2510Y1336D02*
X2566Y1336D01*
X2610Y1336D02*
X2666Y1336D01*
X2710Y1336D02*
X2766Y1336D01*
X2810Y1336D02*
X2866Y1336D01*
X2910Y1336D02*
X2966Y1336D01*
X3010Y1336D02*
X3066Y1336D01*
X3110Y1336D02*
X3166Y1336D01*
X3210Y1336D02*
X3266Y1336D01*
X3310Y1336D02*
X3366Y1336D01*
X3410Y1336D02*
X3466Y1336D01*
X3510Y1336D02*
X3566Y1336D01*
X3610Y1336D02*
X3666Y1336D01*
X3710Y1336D02*
X3765Y1336D01*
X2411Y1335D02*
X2465Y1335D01*
X2511Y1335D02*
X2565Y1335D01*
X2611Y1335D02*
X2665Y1335D01*
X2711Y1335D02*
X2765Y1335D01*
X2811Y1335D02*
X2865Y1335D01*
X2911Y1335D02*
X2965Y1335D01*
X3011Y1335D02*
X3065Y1335D01*
X3111Y1335D02*
X3165Y1335D01*
X3211Y1335D02*
X3265Y1335D01*
X3311Y1335D02*
X3365Y1335D01*
X3411Y1335D02*
X3465Y1335D01*
X3511Y1335D02*
X3565Y1335D01*
X3611Y1335D02*
X3665Y1335D01*
X3711Y1335D02*
X3765Y1335D01*
X2412Y1334D02*
X2464Y1334D01*
X2512Y1334D02*
X2564Y1334D01*
X2612Y1334D02*
X2664Y1334D01*
X2712Y1334D02*
X2764Y1334D01*
X2812Y1334D02*
X2864Y1334D01*
X2912Y1334D02*
X2964Y1334D01*
X3012Y1334D02*
X3064Y1334D01*
X3112Y1334D02*
X3164Y1334D01*
X3212Y1334D02*
X3264Y1334D01*
X3312Y1334D02*
X3364Y1334D01*
X3412Y1334D02*
X3464Y1334D01*
X3512Y1334D02*
X3564Y1334D01*
X3612Y1334D02*
X3664Y1334D01*
X3712Y1334D02*
X3764Y1334D01*
X2413Y1333D02*
X2463Y1333D01*
X2513Y1333D02*
X2563Y1333D01*
X2613Y1333D02*
X2663Y1333D01*
X2713Y1333D02*
X2763Y1333D01*
X2813Y1333D02*
X2863Y1333D01*
X2913Y1333D02*
X2963Y1333D01*
X3013Y1333D02*
X3063Y1333D01*
X3113Y1333D02*
X3163Y1333D01*
X3213Y1333D02*
X3263Y1333D01*
X3313Y1333D02*
X3363Y1333D01*
X3413Y1333D02*
X3463Y1333D01*
X3513Y1333D02*
X3563Y1333D01*
X3613Y1333D02*
X3663Y1333D01*
X3713Y1333D02*
X3763Y1333D01*
X2414Y1332D02*
X2462Y1332D01*
X2514Y1332D02*
X2562Y1332D01*
X2614Y1332D02*
X2662Y1332D01*
X2714Y1332D02*
X2762Y1332D01*
X2814Y1332D02*
X2862Y1332D01*
X2914Y1332D02*
X2962Y1332D01*
X3014Y1332D02*
X3062Y1332D01*
X3114Y1332D02*
X3162Y1332D01*
X3214Y1332D02*
X3262Y1332D01*
X3314Y1332D02*
X3362Y1332D01*
X3414Y1332D02*
X3462Y1332D01*
X3514Y1332D02*
X3562Y1332D01*
X3614Y1332D02*
X3662Y1332D01*
X3714Y1332D02*
X3762Y1332D01*
X2415Y1331D02*
X2461Y1331D01*
X2515Y1331D02*
X2561Y1331D01*
X2615Y1331D02*
X2661Y1331D01*
X2715Y1331D02*
X2761Y1331D01*
X2815Y1331D02*
X2861Y1331D01*
X2915Y1331D02*
X2961Y1331D01*
X3015Y1331D02*
X3061Y1331D01*
X3115Y1331D02*
X3161Y1331D01*
X3215Y1331D02*
X3261Y1331D01*
X3315Y1331D02*
X3361Y1331D01*
X3415Y1331D02*
X3461Y1331D01*
X3515Y1331D02*
X3561Y1331D01*
X3615Y1331D02*
X3661Y1331D01*
X3715Y1331D02*
X3761Y1331D01*
X2416Y1330D02*
X2460Y1330D01*
X2516Y1330D02*
X2560Y1330D01*
X2616Y1330D02*
X2660Y1330D01*
X2716Y1330D02*
X2760Y1330D01*
X2816Y1330D02*
X2860Y1330D01*
X2916Y1330D02*
X2960Y1330D01*
X3016Y1330D02*
X3060Y1330D01*
X3116Y1330D02*
X3160Y1330D01*
X3216Y1330D02*
X3260Y1330D01*
X3316Y1330D02*
X3360Y1330D01*
X3416Y1330D02*
X3460Y1330D01*
X3516Y1330D02*
X3560Y1330D01*
X3616Y1330D02*
X3660Y1330D01*
X3716Y1330D02*
X3760Y1330D01*
X2417Y1329D02*
X2459Y1329D01*
X2517Y1329D02*
X2559Y1329D01*
X2617Y1329D02*
X2659Y1329D01*
X2717Y1329D02*
X2759Y1329D01*
X2817Y1329D02*
X2859Y1329D01*
X2917Y1329D02*
X2959Y1329D01*
X3017Y1329D02*
X3059Y1329D01*
X3117Y1329D02*
X3159Y1329D01*
X3217Y1329D02*
X3259Y1329D01*
X3317Y1329D02*
X3359Y1329D01*
X3417Y1329D02*
X3459Y1329D01*
X3517Y1329D02*
X3559Y1329D01*
X3617Y1329D02*
X3659Y1329D01*
X3717Y1329D02*
X3759Y1329D01*
X2419Y1328D02*
X2457Y1328D01*
X2519Y1328D02*
X2557Y1328D01*
X2619Y1328D02*
X2657Y1328D01*
X2719Y1328D02*
X2757Y1328D01*
X2819Y1328D02*
X2857Y1328D01*
X2919Y1328D02*
X2957Y1328D01*
X3019Y1328D02*
X3057Y1328D01*
X3119Y1328D02*
X3157Y1328D01*
X3219Y1328D02*
X3257Y1328D01*
X3319Y1328D02*
X3357Y1328D01*
X3418Y1328D02*
X3457Y1328D01*
X3518Y1328D02*
X3557Y1328D01*
X3618Y1328D02*
X3657Y1328D01*
X3718Y1328D02*
X3757Y1328D01*
X2420Y1327D02*
X2456Y1327D01*
X2520Y1327D02*
X2556Y1327D01*
X2620Y1327D02*
X2656Y1327D01*
X2720Y1327D02*
X2756Y1327D01*
X2820Y1327D02*
X2856Y1327D01*
X2920Y1327D02*
X2956Y1327D01*
X3020Y1327D02*
X3056Y1327D01*
X3120Y1327D02*
X3156Y1327D01*
X3220Y1327D02*
X3256Y1327D01*
X3320Y1327D02*
X3356Y1327D01*
X3420Y1327D02*
X3456Y1327D01*
X3520Y1327D02*
X3556Y1327D01*
X3620Y1327D02*
X3656Y1327D01*
X3720Y1327D02*
X3756Y1327D01*
X2422Y1326D02*
X2454Y1326D01*
X2522Y1326D02*
X2554Y1326D01*
X2622Y1326D02*
X2654Y1326D01*
X2722Y1326D02*
X2754Y1326D01*
X2822Y1326D02*
X2854Y1326D01*
X2922Y1326D02*
X2954Y1326D01*
X3022Y1326D02*
X3054Y1326D01*
X3122Y1326D02*
X3154Y1326D01*
X3222Y1326D02*
X3254Y1326D01*
X3322Y1326D02*
X3354Y1326D01*
X3422Y1326D02*
X3454Y1326D01*
X3522Y1326D02*
X3554Y1326D01*
X3622Y1326D02*
X3654Y1326D01*
X3722Y1326D02*
X3754Y1326D01*
X2424Y1325D02*
X2452Y1325D01*
X2524Y1325D02*
X2552Y1325D01*
X2624Y1325D02*
X2652Y1325D01*
X2724Y1325D02*
X2752Y1325D01*
X2824Y1325D02*
X2852Y1325D01*
X2924Y1325D02*
X2952Y1325D01*
X3024Y1325D02*
X3052Y1325D01*
X3124Y1325D02*
X3152Y1325D01*
X3224Y1325D02*
X3252Y1325D01*
X3324Y1325D02*
X3352Y1325D01*
X3424Y1325D02*
X3452Y1325D01*
X3524Y1325D02*
X3552Y1325D01*
X3624Y1325D02*
X3652Y1325D01*
X3724Y1325D02*
X3752Y1325D01*
X2426Y1324D02*
X2450Y1324D01*
X2526Y1324D02*
X2550Y1324D01*
X2626Y1324D02*
X2650Y1324D01*
X2726Y1324D02*
X2750Y1324D01*
X2826Y1324D02*
X2850Y1324D01*
X2926Y1324D02*
X2949Y1324D01*
X3026Y1324D02*
X3049Y1324D01*
X3126Y1324D02*
X3149Y1324D01*
X3226Y1324D02*
X3249Y1324D01*
X3326Y1324D02*
X3349Y1324D01*
X3426Y1324D02*
X3449Y1324D01*
X3526Y1324D02*
X3549Y1324D01*
X3626Y1324D02*
X3649Y1324D01*
X3726Y1324D02*
X3749Y1324D01*
X2430Y1323D02*
X2447Y1323D01*
X2530Y1323D02*
X2547Y1323D01*
X2629Y1323D02*
X2646Y1323D01*
X2729Y1323D02*
X2746Y1323D01*
X2829Y1323D02*
X2846Y1323D01*
X2929Y1323D02*
X2946Y1323D01*
X3029Y1323D02*
X3046Y1323D01*
X3129Y1323D02*
X3146Y1323D01*
X3229Y1323D02*
X3246Y1323D01*
X3329Y1323D02*
X3346Y1323D01*
X3429Y1323D02*
X3446Y1323D01*
X3529Y1323D02*
X3546Y1323D01*
X3629Y1323D02*
X3646Y1323D01*
X3729Y1323D02*
X3746Y1323D01*
X2434Y1322D02*
X2442Y1322D01*
X2534Y1322D02*
X2542Y1322D01*
X2634Y1322D02*
X2642Y1322D01*
X2734Y1322D02*
X2742Y1322D01*
X2834Y1322D02*
X2842Y1322D01*
X2934Y1322D02*
X2942Y1322D01*
X3034Y1322D02*
X3042Y1322D01*
X3134Y1322D02*
X3142Y1322D01*
X3234Y1322D02*
X3242Y1322D01*
X3334Y1322D02*
X3342Y1322D01*
X3434Y1322D02*
X3442Y1322D01*
X3534Y1322D02*
X3542Y1322D01*
X3634Y1322D02*
X3642Y1322D01*
X3734Y1322D02*
X3742Y1322D01*
X2432Y1091D02*
X2444Y1091D01*
X2532Y1091D02*
X2544Y1091D01*
X2632Y1091D02*
X2644Y1091D01*
X2732Y1091D02*
X2744Y1091D01*
X2832Y1091D02*
X2844Y1091D01*
X2932Y1091D02*
X2944Y1091D01*
X3032Y1091D02*
X3044Y1091D01*
X3132Y1091D02*
X3144Y1091D01*
X3232Y1091D02*
X3244Y1091D01*
X3332Y1091D02*
X3344Y1091D01*
X3432Y1091D02*
X3444Y1091D01*
X3532Y1091D02*
X3544Y1091D01*
X3632Y1091D02*
X3644Y1091D01*
X3732Y1091D02*
X3744Y1091D01*
X2428Y1090D02*
X2448Y1090D01*
X2528Y1090D02*
X2548Y1090D01*
X2628Y1090D02*
X2648Y1090D01*
X2728Y1090D02*
X2748Y1090D01*
X2828Y1090D02*
X2848Y1090D01*
X2928Y1090D02*
X2948Y1090D01*
X3028Y1090D02*
X3048Y1090D01*
X3128Y1090D02*
X3148Y1090D01*
X3228Y1090D02*
X3248Y1090D01*
X3328Y1090D02*
X3348Y1090D01*
X3428Y1090D02*
X3447Y1090D01*
X3528Y1090D02*
X3547Y1090D01*
X3628Y1090D02*
X3647Y1090D01*
X3728Y1090D02*
X3747Y1090D01*
X2426Y1089D02*
X2450Y1089D01*
X2526Y1089D02*
X2550Y1089D01*
X2626Y1089D02*
X2650Y1089D01*
X2726Y1089D02*
X2750Y1089D01*
X2826Y1089D02*
X2850Y1089D01*
X2926Y1089D02*
X2950Y1089D01*
X3026Y1089D02*
X3050Y1089D01*
X3126Y1089D02*
X3150Y1089D01*
X3226Y1089D02*
X3250Y1089D01*
X3326Y1089D02*
X3350Y1089D01*
X3426Y1089D02*
X3450Y1089D01*
X3526Y1089D02*
X3550Y1089D01*
X3626Y1089D02*
X3650Y1089D01*
X3726Y1089D02*
X3750Y1089D01*
X2423Y1088D02*
X2453Y1088D01*
X2523Y1088D02*
X2553Y1088D01*
X2623Y1088D02*
X2653Y1088D01*
X2723Y1088D02*
X2753Y1088D01*
X2823Y1088D02*
X2853Y1088D01*
X2923Y1088D02*
X2953Y1088D01*
X3023Y1088D02*
X3053Y1088D01*
X3123Y1088D02*
X3153Y1088D01*
X3223Y1088D02*
X3253Y1088D01*
X3323Y1088D02*
X3353Y1088D01*
X3423Y1088D02*
X3452Y1088D01*
X3523Y1088D02*
X3552Y1088D01*
X3623Y1088D02*
X3652Y1088D01*
X3723Y1088D02*
X3752Y1088D01*
X2421Y1087D02*
X2455Y1087D01*
X2521Y1087D02*
X2555Y1087D01*
X2621Y1087D02*
X2655Y1087D01*
X2721Y1087D02*
X2755Y1087D01*
X2821Y1087D02*
X2855Y1087D01*
X2921Y1087D02*
X2955Y1087D01*
X3021Y1087D02*
X3055Y1087D01*
X3121Y1087D02*
X3155Y1087D01*
X3221Y1087D02*
X3255Y1087D01*
X3321Y1087D02*
X3355Y1087D01*
X3421Y1087D02*
X3455Y1087D01*
X3521Y1087D02*
X3554Y1087D01*
X3621Y1087D02*
X3654Y1087D01*
X3721Y1087D02*
X3754Y1087D01*
X2420Y1086D02*
X2456Y1086D01*
X2520Y1086D02*
X2556Y1086D01*
X2620Y1086D02*
X2656Y1086D01*
X2720Y1086D02*
X2756Y1086D01*
X2820Y1086D02*
X2856Y1086D01*
X2920Y1086D02*
X2956Y1086D01*
X3020Y1086D02*
X3056Y1086D01*
X3120Y1086D02*
X3156Y1086D01*
X3220Y1086D02*
X3256Y1086D01*
X3320Y1086D02*
X3356Y1086D01*
X3420Y1086D02*
X3456Y1086D01*
X3520Y1086D02*
X3556Y1086D01*
X3620Y1086D02*
X3656Y1086D01*
X3720Y1086D02*
X3756Y1086D01*
X2418Y1085D02*
X2458Y1085D01*
X2518Y1085D02*
X2558Y1085D01*
X2618Y1085D02*
X2658Y1085D01*
X2718Y1085D02*
X2758Y1085D01*
X2818Y1085D02*
X2858Y1085D01*
X2918Y1085D02*
X2958Y1085D01*
X3018Y1085D02*
X3058Y1085D01*
X3118Y1085D02*
X3158Y1085D01*
X3218Y1085D02*
X3258Y1085D01*
X3318Y1085D02*
X3358Y1085D01*
X3418Y1085D02*
X3458Y1085D01*
X3518Y1085D02*
X3558Y1085D01*
X3618Y1085D02*
X3658Y1085D01*
X3718Y1085D02*
X3758Y1085D01*
X2417Y1084D02*
X2459Y1084D01*
X2517Y1084D02*
X2559Y1084D01*
X2617Y1084D02*
X2659Y1084D01*
X2717Y1084D02*
X2759Y1084D01*
X2817Y1084D02*
X2859Y1084D01*
X2917Y1084D02*
X2959Y1084D01*
X3017Y1084D02*
X3059Y1084D01*
X3117Y1084D02*
X3159Y1084D01*
X3217Y1084D02*
X3259Y1084D01*
X3317Y1084D02*
X3359Y1084D01*
X3417Y1084D02*
X3459Y1084D01*
X3517Y1084D02*
X3559Y1084D01*
X3617Y1084D02*
X3659Y1084D01*
X3717Y1084D02*
X3759Y1084D01*
X2416Y1083D02*
X2460Y1083D01*
X2516Y1083D02*
X2560Y1083D01*
X2616Y1083D02*
X2660Y1083D01*
X2716Y1083D02*
X2760Y1083D01*
X2816Y1083D02*
X2860Y1083D01*
X2916Y1083D02*
X2960Y1083D01*
X3015Y1083D02*
X3060Y1083D01*
X3115Y1083D02*
X3160Y1083D01*
X3215Y1083D02*
X3260Y1083D01*
X3315Y1083D02*
X3360Y1083D01*
X3415Y1083D02*
X3460Y1083D01*
X3515Y1083D02*
X3560Y1083D01*
X3615Y1083D02*
X3660Y1083D01*
X3715Y1083D02*
X3760Y1083D01*
X2414Y1082D02*
X2462Y1082D01*
X2514Y1082D02*
X2562Y1082D01*
X2614Y1082D02*
X2662Y1082D01*
X2714Y1082D02*
X2762Y1082D01*
X2814Y1082D02*
X2862Y1082D01*
X2914Y1082D02*
X2962Y1082D01*
X3014Y1082D02*
X3062Y1082D01*
X3114Y1082D02*
X3162Y1082D01*
X3214Y1082D02*
X3262Y1082D01*
X3314Y1082D02*
X3362Y1082D01*
X3414Y1082D02*
X3461Y1082D01*
X3514Y1082D02*
X3561Y1082D01*
X3614Y1082D02*
X3661Y1082D01*
X3714Y1082D02*
X3761Y1082D01*
X2413Y1081D02*
X2463Y1081D01*
X2513Y1081D02*
X2563Y1081D01*
X2613Y1081D02*
X2663Y1081D01*
X2713Y1081D02*
X2763Y1081D01*
X2813Y1081D02*
X2863Y1081D01*
X2913Y1081D02*
X2963Y1081D01*
X3013Y1081D02*
X3063Y1081D01*
X3113Y1081D02*
X3163Y1081D01*
X3213Y1081D02*
X3263Y1081D01*
X3313Y1081D02*
X3363Y1081D01*
X3413Y1081D02*
X3463Y1081D01*
X3513Y1081D02*
X3563Y1081D01*
X3613Y1081D02*
X3663Y1081D01*
X3713Y1081D02*
X3762Y1081D01*
X2413Y1080D02*
X2464Y1080D01*
X2513Y1080D02*
X2564Y1080D01*
X2613Y1080D02*
X2664Y1080D01*
X2712Y1080D02*
X2763Y1080D01*
X2812Y1080D02*
X2863Y1080D01*
X2912Y1080D02*
X2963Y1080D01*
X3012Y1080D02*
X3063Y1080D01*
X3112Y1080D02*
X3163Y1080D01*
X3212Y1080D02*
X3263Y1080D01*
X3312Y1080D02*
X3363Y1080D01*
X3412Y1080D02*
X3463Y1080D01*
X3512Y1080D02*
X3563Y1080D01*
X3612Y1080D02*
X3663Y1080D01*
X3712Y1080D02*
X3763Y1080D01*
X2412Y1079D02*
X2464Y1079D01*
X2512Y1079D02*
X2564Y1079D01*
X2612Y1079D02*
X2664Y1079D01*
X2712Y1079D02*
X2764Y1079D01*
X2812Y1079D02*
X2864Y1079D01*
X2912Y1079D02*
X2964Y1079D01*
X3012Y1079D02*
X3064Y1079D01*
X3112Y1079D02*
X3164Y1079D01*
X3212Y1079D02*
X3264Y1079D01*
X3312Y1079D02*
X3364Y1079D01*
X3412Y1079D02*
X3464Y1079D01*
X3512Y1079D02*
X3564Y1079D01*
X3612Y1079D02*
X3664Y1079D01*
X3712Y1079D02*
X3764Y1079D01*
X2411Y1078D02*
X2465Y1078D01*
X2511Y1078D02*
X2565Y1078D01*
X2611Y1078D02*
X2665Y1078D01*
X2711Y1078D02*
X2765Y1078D01*
X2811Y1078D02*
X2865Y1078D01*
X2911Y1078D02*
X2965Y1078D01*
X3011Y1078D02*
X3065Y1078D01*
X3111Y1078D02*
X3165Y1078D01*
X3211Y1078D02*
X3265Y1078D01*
X3311Y1078D02*
X3365Y1078D01*
X3411Y1078D02*
X3465Y1078D01*
X3511Y1078D02*
X3565Y1078D01*
X3611Y1078D02*
X3665Y1078D01*
X3711Y1078D02*
X3765Y1078D01*
X2410Y1077D02*
X2466Y1077D01*
X2510Y1077D02*
X2566Y1077D01*
X2610Y1077D02*
X2666Y1077D01*
X2710Y1077D02*
X2766Y1077D01*
X2810Y1077D02*
X2866Y1077D01*
X2910Y1077D02*
X2966Y1077D01*
X3010Y1077D02*
X3066Y1077D01*
X3110Y1077D02*
X3166Y1077D01*
X3210Y1077D02*
X3266Y1077D01*
X3310Y1077D02*
X3366Y1077D01*
X3410Y1077D02*
X3466Y1077D01*
X3510Y1077D02*
X3566Y1077D01*
X3610Y1077D02*
X3666Y1077D01*
X3710Y1077D02*
X3766Y1077D01*
X2410Y1076D02*
X2467Y1076D01*
X2510Y1076D02*
X2567Y1076D01*
X2609Y1076D02*
X2667Y1076D01*
X2709Y1076D02*
X2767Y1076D01*
X2809Y1076D02*
X2866Y1076D01*
X2909Y1076D02*
X2966Y1076D01*
X3009Y1076D02*
X3066Y1076D01*
X3109Y1076D02*
X3166Y1076D01*
X3209Y1076D02*
X3266Y1076D01*
X3309Y1076D02*
X3366Y1076D01*
X3409Y1076D02*
X3466Y1076D01*
X3509Y1076D02*
X3566Y1076D01*
X3609Y1076D02*
X3666Y1076D01*
X3709Y1076D02*
X3766Y1076D01*
X2409Y1075D02*
X2467Y1075D01*
X2509Y1075D02*
X2567Y1075D01*
X2609Y1075D02*
X2667Y1075D01*
X2709Y1075D02*
X2767Y1075D01*
X2809Y1075D02*
X2867Y1075D01*
X2909Y1075D02*
X2967Y1075D01*
X3009Y1075D02*
X3067Y1075D01*
X3109Y1075D02*
X3167Y1075D01*
X3209Y1075D02*
X3267Y1075D01*
X3309Y1075D02*
X3367Y1075D01*
X3409Y1075D02*
X3467Y1075D01*
X3509Y1075D02*
X3567Y1075D01*
X3609Y1075D02*
X3667Y1075D01*
X3709Y1075D02*
X3767Y1075D01*
X2408Y1074D02*
X2468Y1074D01*
X2508Y1074D02*
X2568Y1074D01*
X2608Y1074D02*
X2668Y1074D01*
X2708Y1074D02*
X2768Y1074D01*
X2808Y1074D02*
X2868Y1074D01*
X2908Y1074D02*
X2968Y1074D01*
X3008Y1074D02*
X3068Y1074D01*
X3108Y1074D02*
X3168Y1074D01*
X3208Y1074D02*
X3268Y1074D01*
X3308Y1074D02*
X3368Y1074D01*
X3408Y1074D02*
X3468Y1074D01*
X3508Y1074D02*
X3568Y1074D01*
X3608Y1074D02*
X3668Y1074D01*
X3708Y1074D02*
X3768Y1074D01*
X2408Y1073D02*
X2468Y1073D01*
X2508Y1073D02*
X2568Y1073D01*
X2608Y1073D02*
X2668Y1073D01*
X2708Y1073D02*
X2768Y1073D01*
X2808Y1073D02*
X2868Y1073D01*
X2908Y1073D02*
X2968Y1073D01*
X3008Y1073D02*
X3068Y1073D01*
X3108Y1073D02*
X3168Y1073D01*
X3208Y1073D02*
X3268Y1073D01*
X3308Y1073D02*
X3368Y1073D01*
X3408Y1073D02*
X3468Y1073D01*
X3508Y1073D02*
X3568Y1073D01*
X3608Y1073D02*
X3668Y1073D01*
X3708Y1073D02*
X3768Y1073D01*
X2407Y1072D02*
X2469Y1072D01*
X2507Y1072D02*
X2569Y1072D01*
X2607Y1072D02*
X2669Y1072D01*
X2707Y1072D02*
X2769Y1072D01*
X2807Y1072D02*
X2869Y1072D01*
X2907Y1072D02*
X2969Y1072D01*
X3007Y1072D02*
X3069Y1072D01*
X3107Y1072D02*
X3169Y1072D01*
X3207Y1072D02*
X3269Y1072D01*
X3307Y1072D02*
X3369Y1072D01*
X3407Y1072D02*
X3469Y1072D01*
X3507Y1072D02*
X3569Y1072D01*
X3607Y1072D02*
X3669Y1072D01*
X3707Y1072D02*
X3769Y1072D01*
X2407Y1071D02*
X2433Y1071D01*
X2443Y1071D02*
X2469Y1071D01*
X2507Y1071D02*
X2533Y1071D01*
X2543Y1071D02*
X2569Y1071D01*
X2607Y1071D02*
X2633Y1071D01*
X2643Y1071D02*
X2669Y1071D01*
X2707Y1071D02*
X2733Y1071D01*
X2743Y1071D02*
X2769Y1071D01*
X2807Y1071D02*
X2833Y1071D01*
X2843Y1071D02*
X2869Y1071D01*
X2907Y1071D02*
X2933Y1071D01*
X2943Y1071D02*
X2969Y1071D01*
X3007Y1071D02*
X3033Y1071D01*
X3043Y1071D02*
X3069Y1071D01*
X3107Y1071D02*
X3133Y1071D01*
X3143Y1071D02*
X3169Y1071D01*
X3207Y1071D02*
X3233Y1071D01*
X3243Y1071D02*
X3269Y1071D01*
X3307Y1071D02*
X3333Y1071D01*
X3343Y1071D02*
X3369Y1071D01*
X3407Y1071D02*
X3433Y1071D01*
X3443Y1071D02*
X3469Y1071D01*
X3507Y1071D02*
X3533Y1071D01*
X3543Y1071D02*
X3569Y1071D01*
X3607Y1071D02*
X3633Y1071D01*
X3643Y1071D02*
X3669Y1071D01*
X3707Y1071D02*
X3733Y1071D01*
X3743Y1071D02*
X3769Y1071D01*
X2406Y1070D02*
X2430Y1070D01*
X2446Y1070D02*
X2470Y1070D01*
X2506Y1070D02*
X2530Y1070D01*
X2546Y1070D02*
X2570Y1070D01*
X2606Y1070D02*
X2630Y1070D01*
X2646Y1070D02*
X2670Y1070D01*
X2706Y1070D02*
X2730Y1070D01*
X2746Y1070D02*
X2770Y1070D01*
X2806Y1070D02*
X2830Y1070D01*
X2846Y1070D02*
X2870Y1070D01*
X2906Y1070D02*
X2930Y1070D01*
X2946Y1070D02*
X2970Y1070D01*
X3006Y1070D02*
X3030Y1070D01*
X3046Y1070D02*
X3070Y1070D01*
X3106Y1070D02*
X3130Y1070D01*
X3145Y1070D02*
X3170Y1070D01*
X3206Y1070D02*
X3230Y1070D01*
X3245Y1070D02*
X3270Y1070D01*
X3306Y1070D02*
X3330Y1070D01*
X3345Y1070D02*
X3370Y1070D01*
X3406Y1070D02*
X3430Y1070D01*
X3445Y1070D02*
X3470Y1070D01*
X3506Y1070D02*
X3530Y1070D01*
X3545Y1070D02*
X3570Y1070D01*
X3606Y1070D02*
X3630Y1070D01*
X3645Y1070D02*
X3670Y1070D01*
X3706Y1070D02*
X3730Y1070D01*
X3745Y1070D02*
X3770Y1070D01*
X2406Y1069D02*
X2429Y1069D01*
X2447Y1069D02*
X2470Y1069D01*
X2506Y1069D02*
X2529Y1069D01*
X2547Y1069D02*
X2570Y1069D01*
X2606Y1069D02*
X2629Y1069D01*
X2647Y1069D02*
X2670Y1069D01*
X2706Y1069D02*
X2729Y1069D01*
X2747Y1069D02*
X2770Y1069D01*
X2806Y1069D02*
X2829Y1069D01*
X2847Y1069D02*
X2870Y1069D01*
X2906Y1069D02*
X2929Y1069D01*
X2947Y1069D02*
X2970Y1069D01*
X3006Y1069D02*
X3029Y1069D01*
X3047Y1069D02*
X3070Y1069D01*
X3106Y1069D02*
X3129Y1069D01*
X3147Y1069D02*
X3170Y1069D01*
X3206Y1069D02*
X3229Y1069D01*
X3247Y1069D02*
X3270Y1069D01*
X3306Y1069D02*
X3329Y1069D01*
X3347Y1069D02*
X3370Y1069D01*
X3406Y1069D02*
X3429Y1069D01*
X3447Y1069D02*
X3470Y1069D01*
X3506Y1069D02*
X3529Y1069D01*
X3547Y1069D02*
X3570Y1069D01*
X3606Y1069D02*
X3629Y1069D01*
X3647Y1069D02*
X3670Y1069D01*
X3706Y1069D02*
X3729Y1069D01*
X3747Y1069D02*
X3770Y1069D01*
X2406Y1068D02*
X2428Y1068D01*
X2448Y1068D02*
X2470Y1068D01*
X2506Y1068D02*
X2528Y1068D01*
X2548Y1068D02*
X2570Y1068D01*
X2606Y1068D02*
X2628Y1068D01*
X2648Y1068D02*
X2670Y1068D01*
X2706Y1068D02*
X2728Y1068D01*
X2748Y1068D02*
X2770Y1068D01*
X2806Y1068D02*
X2828Y1068D01*
X2848Y1068D02*
X2870Y1068D01*
X2906Y1068D02*
X2928Y1068D01*
X2948Y1068D02*
X2970Y1068D01*
X3006Y1068D02*
X3028Y1068D01*
X3048Y1068D02*
X3070Y1068D01*
X3106Y1068D02*
X3128Y1068D01*
X3148Y1068D02*
X3170Y1068D01*
X3206Y1068D02*
X3228Y1068D01*
X3248Y1068D02*
X3270Y1068D01*
X3306Y1068D02*
X3328Y1068D01*
X3348Y1068D02*
X3370Y1068D01*
X3406Y1068D02*
X3428Y1068D01*
X3448Y1068D02*
X3470Y1068D01*
X3506Y1068D02*
X3528Y1068D01*
X3548Y1068D02*
X3570Y1068D01*
X3605Y1068D02*
X3628Y1068D01*
X3648Y1068D02*
X3670Y1068D01*
X3705Y1068D02*
X3728Y1068D01*
X3748Y1068D02*
X3770Y1068D01*
X2405Y1067D02*
X2427Y1067D01*
X2449Y1067D02*
X2471Y1067D01*
X2505Y1067D02*
X2527Y1067D01*
X2549Y1067D02*
X2571Y1067D01*
X2605Y1067D02*
X2627Y1067D01*
X2649Y1067D02*
X2671Y1067D01*
X2705Y1067D02*
X2727Y1067D01*
X2749Y1067D02*
X2771Y1067D01*
X2805Y1067D02*
X2827Y1067D01*
X2849Y1067D02*
X2871Y1067D01*
X2905Y1067D02*
X2927Y1067D01*
X2949Y1067D02*
X2971Y1067D01*
X3005Y1067D02*
X3027Y1067D01*
X3049Y1067D02*
X3071Y1067D01*
X3105Y1067D02*
X3127Y1067D01*
X3149Y1067D02*
X3171Y1067D01*
X3205Y1067D02*
X3227Y1067D01*
X3249Y1067D02*
X3271Y1067D01*
X3305Y1067D02*
X3327Y1067D01*
X3349Y1067D02*
X3371Y1067D01*
X3405Y1067D02*
X3427Y1067D01*
X3449Y1067D02*
X3471Y1067D01*
X3505Y1067D02*
X3527Y1067D01*
X3549Y1067D02*
X3571Y1067D01*
X3605Y1067D02*
X3627Y1067D01*
X3649Y1067D02*
X3671Y1067D01*
X3705Y1067D02*
X3727Y1067D01*
X3749Y1067D02*
X3771Y1067D01*
X2405Y1066D02*
X2426Y1066D01*
X2450Y1066D02*
X2471Y1066D01*
X2505Y1066D02*
X2526Y1066D01*
X2550Y1066D02*
X2571Y1066D01*
X2605Y1066D02*
X2626Y1066D01*
X2650Y1066D02*
X2671Y1066D01*
X2705Y1066D02*
X2726Y1066D01*
X2750Y1066D02*
X2771Y1066D01*
X2805Y1066D02*
X2826Y1066D01*
X2850Y1066D02*
X2871Y1066D01*
X2905Y1066D02*
X2926Y1066D01*
X2950Y1066D02*
X2971Y1066D01*
X3005Y1066D02*
X3026Y1066D01*
X3050Y1066D02*
X3071Y1066D01*
X3105Y1066D02*
X3126Y1066D01*
X3150Y1066D02*
X3171Y1066D01*
X3205Y1066D02*
X3226Y1066D01*
X3250Y1066D02*
X3271Y1066D01*
X3305Y1066D02*
X3326Y1066D01*
X3350Y1066D02*
X3371Y1066D01*
X3405Y1066D02*
X3426Y1066D01*
X3450Y1066D02*
X3471Y1066D01*
X3505Y1066D02*
X3526Y1066D01*
X3550Y1066D02*
X3571Y1066D01*
X3605Y1066D02*
X3626Y1066D01*
X3650Y1066D02*
X3671Y1066D01*
X3705Y1066D02*
X3726Y1066D01*
X3750Y1066D02*
X3771Y1066D01*
X2405Y1065D02*
X2425Y1065D01*
X2451Y1065D02*
X2471Y1065D01*
X2505Y1065D02*
X2525Y1065D01*
X2551Y1065D02*
X2571Y1065D01*
X2605Y1065D02*
X2625Y1065D01*
X2651Y1065D02*
X2671Y1065D01*
X2705Y1065D02*
X2725Y1065D01*
X2751Y1065D02*
X2771Y1065D01*
X2805Y1065D02*
X2825Y1065D01*
X2851Y1065D02*
X2871Y1065D01*
X2905Y1065D02*
X2925Y1065D01*
X2951Y1065D02*
X2971Y1065D01*
X3005Y1065D02*
X3025Y1065D01*
X3051Y1065D02*
X3071Y1065D01*
X3105Y1065D02*
X3125Y1065D01*
X3151Y1065D02*
X3171Y1065D01*
X3205Y1065D02*
X3225Y1065D01*
X3251Y1065D02*
X3271Y1065D01*
X3305Y1065D02*
X3325Y1065D01*
X3351Y1065D02*
X3371Y1065D01*
X3405Y1065D02*
X3425Y1065D01*
X3451Y1065D02*
X3471Y1065D01*
X3505Y1065D02*
X3525Y1065D01*
X3551Y1065D02*
X3571Y1065D01*
X3605Y1065D02*
X3625Y1065D01*
X3651Y1065D02*
X3671Y1065D01*
X3705Y1065D02*
X3725Y1065D01*
X3751Y1065D02*
X3771Y1065D01*
X2404Y1064D02*
X2424Y1064D01*
X2452Y1064D02*
X2472Y1064D01*
X2504Y1064D02*
X2524Y1064D01*
X2552Y1064D02*
X2572Y1064D01*
X2604Y1064D02*
X2624Y1064D01*
X2652Y1064D02*
X2672Y1064D01*
X2704Y1064D02*
X2724Y1064D01*
X2752Y1064D02*
X2772Y1064D01*
X2804Y1064D02*
X2824Y1064D01*
X2852Y1064D02*
X2872Y1064D01*
X2904Y1064D02*
X2924Y1064D01*
X2952Y1064D02*
X2972Y1064D01*
X3004Y1064D02*
X3024Y1064D01*
X3052Y1064D02*
X3072Y1064D01*
X3104Y1064D02*
X3124Y1064D01*
X3152Y1064D02*
X3172Y1064D01*
X3204Y1064D02*
X3224Y1064D01*
X3252Y1064D02*
X3272Y1064D01*
X3304Y1064D02*
X3324Y1064D01*
X3352Y1064D02*
X3372Y1064D01*
X3404Y1064D02*
X3424Y1064D01*
X3452Y1064D02*
X3471Y1064D01*
X3504Y1064D02*
X3524Y1064D01*
X3552Y1064D02*
X3571Y1064D01*
X3604Y1064D02*
X3624Y1064D01*
X3652Y1064D02*
X3671Y1064D01*
X3704Y1064D02*
X3724Y1064D01*
X3752Y1064D02*
X3771Y1064D01*
X2404Y1063D02*
X2424Y1063D01*
X2452Y1063D02*
X2472Y1063D01*
X2504Y1063D02*
X2524Y1063D01*
X2552Y1063D02*
X2572Y1063D01*
X2604Y1063D02*
X2624Y1063D01*
X2652Y1063D02*
X2672Y1063D01*
X2704Y1063D02*
X2724Y1063D01*
X2752Y1063D02*
X2772Y1063D01*
X2804Y1063D02*
X2824Y1063D01*
X2852Y1063D02*
X2872Y1063D01*
X2904Y1063D02*
X2924Y1063D01*
X2952Y1063D02*
X2972Y1063D01*
X3004Y1063D02*
X3024Y1063D01*
X3052Y1063D02*
X3072Y1063D01*
X3104Y1063D02*
X3124Y1063D01*
X3152Y1063D02*
X3172Y1063D01*
X3204Y1063D02*
X3224Y1063D01*
X3252Y1063D02*
X3272Y1063D01*
X3304Y1063D02*
X3324Y1063D01*
X3352Y1063D02*
X3372Y1063D01*
X3404Y1063D02*
X3424Y1063D01*
X3452Y1063D02*
X3472Y1063D01*
X3504Y1063D02*
X3524Y1063D01*
X3552Y1063D02*
X3572Y1063D01*
X3604Y1063D02*
X3624Y1063D01*
X3652Y1063D02*
X3672Y1063D01*
X3704Y1063D02*
X3724Y1063D01*
X3752Y1063D02*
X3772Y1063D01*
X2404Y1062D02*
X2423Y1062D01*
X2453Y1062D02*
X2472Y1062D01*
X2504Y1062D02*
X2523Y1062D01*
X2553Y1062D02*
X2572Y1062D01*
X2604Y1062D02*
X2623Y1062D01*
X2653Y1062D02*
X2672Y1062D01*
X2704Y1062D02*
X2723Y1062D01*
X2753Y1062D02*
X2772Y1062D01*
X2804Y1062D02*
X2823Y1062D01*
X2853Y1062D02*
X2872Y1062D01*
X2904Y1062D02*
X2923Y1062D01*
X2953Y1062D02*
X2972Y1062D01*
X3004Y1062D02*
X3023Y1062D01*
X3053Y1062D02*
X3072Y1062D01*
X3104Y1062D02*
X3123Y1062D01*
X3153Y1062D02*
X3172Y1062D01*
X3204Y1062D02*
X3223Y1062D01*
X3253Y1062D02*
X3272Y1062D01*
X3304Y1062D02*
X3323Y1062D01*
X3353Y1062D02*
X3372Y1062D01*
X3404Y1062D02*
X3423Y1062D01*
X3453Y1062D02*
X3472Y1062D01*
X3504Y1062D02*
X3523Y1062D01*
X3553Y1062D02*
X3572Y1062D01*
X3604Y1062D02*
X3623Y1062D01*
X3653Y1062D02*
X3672Y1062D01*
X3704Y1062D02*
X3723Y1062D01*
X3753Y1062D02*
X3772Y1062D01*
X2404Y1061D02*
X2423Y1061D01*
X2453Y1061D02*
X2472Y1061D01*
X2504Y1061D02*
X2523Y1061D01*
X2553Y1061D02*
X2572Y1061D01*
X2604Y1061D02*
X2623Y1061D01*
X2653Y1061D02*
X2672Y1061D01*
X2704Y1061D02*
X2723Y1061D01*
X2753Y1061D02*
X2772Y1061D01*
X2804Y1061D02*
X2823Y1061D01*
X2853Y1061D02*
X2872Y1061D01*
X2904Y1061D02*
X2923Y1061D01*
X2953Y1061D02*
X2972Y1061D01*
X3004Y1061D02*
X3023Y1061D01*
X3053Y1061D02*
X3072Y1061D01*
X3104Y1061D02*
X3123Y1061D01*
X3153Y1061D02*
X3172Y1061D01*
X3204Y1061D02*
X3223Y1061D01*
X3253Y1061D02*
X3272Y1061D01*
X3304Y1061D02*
X3323Y1061D01*
X3353Y1061D02*
X3372Y1061D01*
X3404Y1061D02*
X3423Y1061D01*
X3453Y1061D02*
X3472Y1061D01*
X3504Y1061D02*
X3523Y1061D01*
X3553Y1061D02*
X3572Y1061D01*
X3604Y1061D02*
X3623Y1061D01*
X3653Y1061D02*
X3672Y1061D01*
X3704Y1061D02*
X3723Y1061D01*
X3753Y1061D02*
X3772Y1061D01*
X2404Y1060D02*
X2423Y1060D01*
X2453Y1060D02*
X2472Y1060D01*
X2504Y1060D02*
X2523Y1060D01*
X2553Y1060D02*
X2572Y1060D01*
X2604Y1060D02*
X2623Y1060D01*
X2653Y1060D02*
X2672Y1060D01*
X2704Y1060D02*
X2723Y1060D01*
X2753Y1060D02*
X2772Y1060D01*
X2804Y1060D02*
X2823Y1060D01*
X2853Y1060D02*
X2872Y1060D01*
X2904Y1060D02*
X2923Y1060D01*
X2953Y1060D02*
X2972Y1060D01*
X3004Y1060D02*
X3023Y1060D01*
X3053Y1060D02*
X3072Y1060D01*
X3104Y1060D02*
X3123Y1060D01*
X3153Y1060D02*
X3172Y1060D01*
X3204Y1060D02*
X3223Y1060D01*
X3253Y1060D02*
X3272Y1060D01*
X3304Y1060D02*
X3323Y1060D01*
X3353Y1060D02*
X3372Y1060D01*
X3404Y1060D02*
X3423Y1060D01*
X3453Y1060D02*
X3472Y1060D01*
X3504Y1060D02*
X3523Y1060D01*
X3553Y1060D02*
X3572Y1060D01*
X3604Y1060D02*
X3623Y1060D01*
X3653Y1060D02*
X3672Y1060D01*
X3704Y1060D02*
X3723Y1060D01*
X3753Y1060D02*
X3772Y1060D01*
X2404Y1059D02*
X2423Y1059D01*
X2453Y1059D02*
X2472Y1059D01*
X2504Y1059D02*
X2523Y1059D01*
X2553Y1059D02*
X2572Y1059D01*
X2604Y1059D02*
X2623Y1059D01*
X2653Y1059D02*
X2672Y1059D01*
X2704Y1059D02*
X2723Y1059D01*
X2753Y1059D02*
X2772Y1059D01*
X2804Y1059D02*
X2823Y1059D01*
X2853Y1059D02*
X2872Y1059D01*
X2904Y1059D02*
X2923Y1059D01*
X2953Y1059D02*
X2972Y1059D01*
X3004Y1059D02*
X3023Y1059D01*
X3053Y1059D02*
X3072Y1059D01*
X3104Y1059D02*
X3123Y1059D01*
X3153Y1059D02*
X3172Y1059D01*
X3204Y1059D02*
X3223Y1059D01*
X3253Y1059D02*
X3272Y1059D01*
X3304Y1059D02*
X3323Y1059D01*
X3353Y1059D02*
X3372Y1059D01*
X3404Y1059D02*
X3423Y1059D01*
X3453Y1059D02*
X3472Y1059D01*
X3504Y1059D02*
X3523Y1059D01*
X3553Y1059D02*
X3572Y1059D01*
X3604Y1059D02*
X3623Y1059D01*
X3653Y1059D02*
X3672Y1059D01*
X3704Y1059D02*
X3723Y1059D01*
X3753Y1059D02*
X3772Y1059D01*
X2404Y1058D02*
X2423Y1058D01*
X2453Y1058D02*
X2472Y1058D01*
X2504Y1058D02*
X2523Y1058D01*
X2553Y1058D02*
X2572Y1058D01*
X2604Y1058D02*
X2623Y1058D01*
X2653Y1058D02*
X2672Y1058D01*
X2704Y1058D02*
X2723Y1058D01*
X2753Y1058D02*
X2772Y1058D01*
X2804Y1058D02*
X2823Y1058D01*
X2853Y1058D02*
X2872Y1058D01*
X2904Y1058D02*
X2923Y1058D01*
X2953Y1058D02*
X2972Y1058D01*
X3004Y1058D02*
X3023Y1058D01*
X3053Y1058D02*
X3072Y1058D01*
X3104Y1058D02*
X3123Y1058D01*
X3153Y1058D02*
X3172Y1058D01*
X3204Y1058D02*
X3223Y1058D01*
X3253Y1058D02*
X3272Y1058D01*
X3303Y1058D02*
X3323Y1058D01*
X3353Y1058D02*
X3372Y1058D01*
X3403Y1058D02*
X3423Y1058D01*
X3453Y1058D02*
X3472Y1058D01*
X3503Y1058D02*
X3523Y1058D01*
X3553Y1058D02*
X3572Y1058D01*
X3603Y1058D02*
X3622Y1058D01*
X3653Y1058D02*
X3672Y1058D01*
X3703Y1058D02*
X3722Y1058D01*
X3753Y1058D02*
X3772Y1058D01*
X2404Y1057D02*
X2423Y1057D01*
X2454Y1057D02*
X2473Y1057D01*
X2504Y1057D02*
X2523Y1057D01*
X2553Y1057D02*
X2572Y1057D01*
X2604Y1057D02*
X2623Y1057D01*
X2653Y1057D02*
X2672Y1057D01*
X2704Y1057D02*
X2723Y1057D01*
X2753Y1057D02*
X2772Y1057D01*
X2804Y1057D02*
X2823Y1057D01*
X2853Y1057D02*
X2872Y1057D01*
X2903Y1057D02*
X2922Y1057D01*
X2953Y1057D02*
X2972Y1057D01*
X3003Y1057D02*
X3022Y1057D01*
X3053Y1057D02*
X3072Y1057D01*
X3103Y1057D02*
X3122Y1057D01*
X3153Y1057D02*
X3172Y1057D01*
X3203Y1057D02*
X3222Y1057D01*
X3253Y1057D02*
X3272Y1057D01*
X3303Y1057D02*
X3322Y1057D01*
X3353Y1057D02*
X3372Y1057D01*
X3403Y1057D02*
X3422Y1057D01*
X3453Y1057D02*
X3472Y1057D01*
X3503Y1057D02*
X3522Y1057D01*
X3553Y1057D02*
X3572Y1057D01*
X3603Y1057D02*
X3622Y1057D01*
X3653Y1057D02*
X3672Y1057D01*
X3703Y1057D02*
X3722Y1057D01*
X3753Y1057D02*
X3772Y1057D01*
X2404Y1056D02*
X2423Y1056D01*
X2453Y1056D02*
X2472Y1056D01*
X2504Y1056D02*
X2523Y1056D01*
X2553Y1056D02*
X2572Y1056D01*
X2604Y1056D02*
X2623Y1056D01*
X2653Y1056D02*
X2672Y1056D01*
X2704Y1056D02*
X2723Y1056D01*
X2753Y1056D02*
X2772Y1056D01*
X2804Y1056D02*
X2823Y1056D01*
X2853Y1056D02*
X2872Y1056D01*
X2904Y1056D02*
X2923Y1056D01*
X2953Y1056D02*
X2972Y1056D01*
X3004Y1056D02*
X3023Y1056D01*
X3053Y1056D02*
X3072Y1056D01*
X3103Y1056D02*
X3123Y1056D01*
X3153Y1056D02*
X3172Y1056D01*
X3203Y1056D02*
X3222Y1056D01*
X3253Y1056D02*
X3272Y1056D01*
X3303Y1056D02*
X3322Y1056D01*
X3353Y1056D02*
X3372Y1056D01*
X3403Y1056D02*
X3422Y1056D01*
X3453Y1056D02*
X3472Y1056D01*
X3503Y1056D02*
X3522Y1056D01*
X3553Y1056D02*
X3572Y1056D01*
X3603Y1056D02*
X3622Y1056D01*
X3653Y1056D02*
X3672Y1056D01*
X3703Y1056D02*
X3722Y1056D01*
X3753Y1056D02*
X3772Y1056D01*
X2404Y1055D02*
X2423Y1055D01*
X2453Y1055D02*
X2472Y1055D01*
X2504Y1055D02*
X2523Y1055D01*
X2553Y1055D02*
X2572Y1055D01*
X2604Y1055D02*
X2623Y1055D01*
X2653Y1055D02*
X2672Y1055D01*
X2704Y1055D02*
X2723Y1055D01*
X2753Y1055D02*
X2772Y1055D01*
X2804Y1055D02*
X2823Y1055D01*
X2853Y1055D02*
X2872Y1055D01*
X2904Y1055D02*
X2923Y1055D01*
X2953Y1055D02*
X2972Y1055D01*
X3004Y1055D02*
X3023Y1055D01*
X3053Y1055D02*
X3072Y1055D01*
X3104Y1055D02*
X3123Y1055D01*
X3153Y1055D02*
X3172Y1055D01*
X3204Y1055D02*
X3223Y1055D01*
X3253Y1055D02*
X3272Y1055D01*
X3304Y1055D02*
X3323Y1055D01*
X3353Y1055D02*
X3372Y1055D01*
X3404Y1055D02*
X3423Y1055D01*
X3453Y1055D02*
X3472Y1055D01*
X3503Y1055D02*
X3523Y1055D01*
X3553Y1055D02*
X3572Y1055D01*
X3603Y1055D02*
X3623Y1055D01*
X3653Y1055D02*
X3672Y1055D01*
X3703Y1055D02*
X3722Y1055D01*
X3753Y1055D02*
X3772Y1055D01*
X2404Y1054D02*
X2423Y1054D01*
X2453Y1054D02*
X2472Y1054D01*
X2504Y1054D02*
X2523Y1054D01*
X2553Y1054D02*
X2572Y1054D01*
X2604Y1054D02*
X2623Y1054D01*
X2653Y1054D02*
X2672Y1054D01*
X2704Y1054D02*
X2723Y1054D01*
X2753Y1054D02*
X2772Y1054D01*
X2804Y1054D02*
X2823Y1054D01*
X2853Y1054D02*
X2872Y1054D01*
X2904Y1054D02*
X2923Y1054D01*
X2953Y1054D02*
X2972Y1054D01*
X3004Y1054D02*
X3023Y1054D01*
X3053Y1054D02*
X3072Y1054D01*
X3104Y1054D02*
X3123Y1054D01*
X3153Y1054D02*
X3172Y1054D01*
X3204Y1054D02*
X3223Y1054D01*
X3253Y1054D02*
X3272Y1054D01*
X3304Y1054D02*
X3323Y1054D01*
X3353Y1054D02*
X3372Y1054D01*
X3404Y1054D02*
X3423Y1054D01*
X3453Y1054D02*
X3472Y1054D01*
X3504Y1054D02*
X3523Y1054D01*
X3553Y1054D02*
X3572Y1054D01*
X3604Y1054D02*
X3623Y1054D01*
X3653Y1054D02*
X3672Y1054D01*
X3704Y1054D02*
X3723Y1054D01*
X3753Y1054D02*
X3772Y1054D01*
X2404Y1053D02*
X2423Y1053D01*
X2453Y1053D02*
X2472Y1053D01*
X2504Y1053D02*
X2523Y1053D01*
X2553Y1053D02*
X2572Y1053D01*
X2604Y1053D02*
X2623Y1053D01*
X2653Y1053D02*
X2672Y1053D01*
X2704Y1053D02*
X2723Y1053D01*
X2753Y1053D02*
X2772Y1053D01*
X2804Y1053D02*
X2823Y1053D01*
X2853Y1053D02*
X2872Y1053D01*
X2904Y1053D02*
X2923Y1053D01*
X2953Y1053D02*
X2972Y1053D01*
X3004Y1053D02*
X3023Y1053D01*
X3053Y1053D02*
X3072Y1053D01*
X3104Y1053D02*
X3123Y1053D01*
X3153Y1053D02*
X3172Y1053D01*
X3204Y1053D02*
X3223Y1053D01*
X3253Y1053D02*
X3272Y1053D01*
X3304Y1053D02*
X3323Y1053D01*
X3353Y1053D02*
X3372Y1053D01*
X3404Y1053D02*
X3423Y1053D01*
X3453Y1053D02*
X3472Y1053D01*
X3504Y1053D02*
X3523Y1053D01*
X3553Y1053D02*
X3572Y1053D01*
X3604Y1053D02*
X3623Y1053D01*
X3653Y1053D02*
X3672Y1053D01*
X3704Y1053D02*
X3723Y1053D01*
X3753Y1053D02*
X3772Y1053D01*
X2404Y1052D02*
X2423Y1052D01*
X2453Y1052D02*
X2472Y1052D01*
X2504Y1052D02*
X2523Y1052D01*
X2553Y1052D02*
X2572Y1052D01*
X2604Y1052D02*
X2623Y1052D01*
X2653Y1052D02*
X2672Y1052D01*
X2704Y1052D02*
X2723Y1052D01*
X2753Y1052D02*
X2772Y1052D01*
X2804Y1052D02*
X2823Y1052D01*
X2853Y1052D02*
X2872Y1052D01*
X2904Y1052D02*
X2923Y1052D01*
X2953Y1052D02*
X2972Y1052D01*
X3004Y1052D02*
X3023Y1052D01*
X3053Y1052D02*
X3072Y1052D01*
X3104Y1052D02*
X3123Y1052D01*
X3153Y1052D02*
X3172Y1052D01*
X3204Y1052D02*
X3223Y1052D01*
X3253Y1052D02*
X3272Y1052D01*
X3304Y1052D02*
X3323Y1052D01*
X3353Y1052D02*
X3372Y1052D01*
X3404Y1052D02*
X3423Y1052D01*
X3453Y1052D02*
X3472Y1052D01*
X3504Y1052D02*
X3523Y1052D01*
X3553Y1052D02*
X3572Y1052D01*
X3604Y1052D02*
X3623Y1052D01*
X3653Y1052D02*
X3672Y1052D01*
X3704Y1052D02*
X3723Y1052D01*
X3753Y1052D02*
X3772Y1052D01*
X2404Y1051D02*
X2423Y1051D01*
X2453Y1051D02*
X2472Y1051D01*
X2504Y1051D02*
X2523Y1051D01*
X2553Y1051D02*
X2572Y1051D01*
X2604Y1051D02*
X2623Y1051D01*
X2653Y1051D02*
X2672Y1051D01*
X2704Y1051D02*
X2723Y1051D01*
X2753Y1051D02*
X2772Y1051D01*
X2804Y1051D02*
X2823Y1051D01*
X2853Y1051D02*
X2872Y1051D01*
X2904Y1051D02*
X2923Y1051D01*
X2953Y1051D02*
X2972Y1051D01*
X3004Y1051D02*
X3023Y1051D01*
X3053Y1051D02*
X3072Y1051D01*
X3104Y1051D02*
X3123Y1051D01*
X3153Y1051D02*
X3172Y1051D01*
X3204Y1051D02*
X3223Y1051D01*
X3253Y1051D02*
X3272Y1051D01*
X3304Y1051D02*
X3323Y1051D01*
X3352Y1051D02*
X3372Y1051D01*
X3404Y1051D02*
X3423Y1051D01*
X3452Y1051D02*
X3472Y1051D01*
X3504Y1051D02*
X3523Y1051D01*
X3552Y1051D02*
X3572Y1051D01*
X3604Y1051D02*
X3623Y1051D01*
X3652Y1051D02*
X3672Y1051D01*
X3704Y1051D02*
X3723Y1051D01*
X3752Y1051D02*
X3772Y1051D01*
X2404Y1050D02*
X2424Y1050D01*
X2452Y1050D02*
X2472Y1050D01*
X2504Y1050D02*
X2524Y1050D01*
X2552Y1050D02*
X2572Y1050D01*
X2604Y1050D02*
X2624Y1050D01*
X2652Y1050D02*
X2672Y1050D01*
X2704Y1050D02*
X2724Y1050D01*
X2752Y1050D02*
X2772Y1050D01*
X2804Y1050D02*
X2824Y1050D01*
X2852Y1050D02*
X2872Y1050D01*
X2904Y1050D02*
X2924Y1050D01*
X2952Y1050D02*
X2972Y1050D01*
X3004Y1050D02*
X3024Y1050D01*
X3052Y1050D02*
X3072Y1050D01*
X3104Y1050D02*
X3124Y1050D01*
X3152Y1050D02*
X3172Y1050D01*
X3204Y1050D02*
X3224Y1050D01*
X3252Y1050D02*
X3272Y1050D01*
X3304Y1050D02*
X3324Y1050D01*
X3352Y1050D02*
X3372Y1050D01*
X3404Y1050D02*
X3424Y1050D01*
X3452Y1050D02*
X3472Y1050D01*
X3504Y1050D02*
X3524Y1050D01*
X3552Y1050D02*
X3572Y1050D01*
X3604Y1050D02*
X3624Y1050D01*
X3652Y1050D02*
X3672Y1050D01*
X3704Y1050D02*
X3724Y1050D01*
X3752Y1050D02*
X3772Y1050D01*
X2405Y1049D02*
X2425Y1049D01*
X2452Y1049D02*
X2472Y1049D01*
X2505Y1049D02*
X2525Y1049D01*
X2552Y1049D02*
X2572Y1049D01*
X2605Y1049D02*
X2625Y1049D01*
X2652Y1049D02*
X2672Y1049D01*
X2704Y1049D02*
X2724Y1049D01*
X2751Y1049D02*
X2771Y1049D01*
X2804Y1049D02*
X2824Y1049D01*
X2851Y1049D02*
X2871Y1049D01*
X2904Y1049D02*
X2924Y1049D01*
X2951Y1049D02*
X2971Y1049D01*
X3004Y1049D02*
X3024Y1049D01*
X3051Y1049D02*
X3071Y1049D01*
X3104Y1049D02*
X3124Y1049D01*
X3151Y1049D02*
X3171Y1049D01*
X3204Y1049D02*
X3224Y1049D01*
X3251Y1049D02*
X3271Y1049D01*
X3304Y1049D02*
X3324Y1049D01*
X3351Y1049D02*
X3371Y1049D01*
X3404Y1049D02*
X3424Y1049D01*
X3451Y1049D02*
X3471Y1049D01*
X3504Y1049D02*
X3524Y1049D01*
X3551Y1049D02*
X3571Y1049D01*
X3604Y1049D02*
X3624Y1049D01*
X3651Y1049D02*
X3671Y1049D01*
X3704Y1049D02*
X3724Y1049D01*
X3751Y1049D02*
X3771Y1049D01*
X2405Y1048D02*
X2425Y1048D01*
X2451Y1048D02*
X2471Y1048D01*
X2505Y1048D02*
X2525Y1048D01*
X2551Y1048D02*
X2571Y1048D01*
X2605Y1048D02*
X2625Y1048D01*
X2651Y1048D02*
X2671Y1048D01*
X2705Y1048D02*
X2725Y1048D01*
X2751Y1048D02*
X2771Y1048D01*
X2805Y1048D02*
X2825Y1048D01*
X2851Y1048D02*
X2871Y1048D01*
X2905Y1048D02*
X2925Y1048D01*
X2951Y1048D02*
X2971Y1048D01*
X3005Y1048D02*
X3025Y1048D01*
X3051Y1048D02*
X3071Y1048D01*
X3105Y1048D02*
X3125Y1048D01*
X3151Y1048D02*
X3171Y1048D01*
X3205Y1048D02*
X3225Y1048D01*
X3251Y1048D02*
X3271Y1048D01*
X3305Y1048D02*
X3325Y1048D01*
X3351Y1048D02*
X3371Y1048D01*
X3405Y1048D02*
X3425Y1048D01*
X3451Y1048D02*
X3471Y1048D01*
X3505Y1048D02*
X3525Y1048D01*
X3551Y1048D02*
X3571Y1048D01*
X3605Y1048D02*
X3625Y1048D01*
X3651Y1048D02*
X3671Y1048D01*
X3705Y1048D02*
X3725Y1048D01*
X3751Y1048D02*
X3771Y1048D01*
X2405Y1047D02*
X2426Y1047D01*
X2450Y1047D02*
X2471Y1047D01*
X2505Y1047D02*
X2526Y1047D01*
X2550Y1047D02*
X2571Y1047D01*
X2605Y1047D02*
X2626Y1047D01*
X2650Y1047D02*
X2671Y1047D01*
X2705Y1047D02*
X2726Y1047D01*
X2750Y1047D02*
X2771Y1047D01*
X2805Y1047D02*
X2826Y1047D01*
X2850Y1047D02*
X2871Y1047D01*
X2905Y1047D02*
X2926Y1047D01*
X2950Y1047D02*
X2971Y1047D01*
X3005Y1047D02*
X3026Y1047D01*
X3050Y1047D02*
X3071Y1047D01*
X3105Y1047D02*
X3126Y1047D01*
X3150Y1047D02*
X3171Y1047D01*
X3205Y1047D02*
X3226Y1047D01*
X3250Y1047D02*
X3271Y1047D01*
X3305Y1047D02*
X3326Y1047D01*
X3350Y1047D02*
X3371Y1047D01*
X3405Y1047D02*
X3426Y1047D01*
X3450Y1047D02*
X3471Y1047D01*
X3505Y1047D02*
X3526Y1047D01*
X3550Y1047D02*
X3571Y1047D01*
X3605Y1047D02*
X3626Y1047D01*
X3650Y1047D02*
X3671Y1047D01*
X3705Y1047D02*
X3726Y1047D01*
X3750Y1047D02*
X3771Y1047D01*
X2405Y1046D02*
X2427Y1046D01*
X2449Y1046D02*
X2471Y1046D01*
X2505Y1046D02*
X2527Y1046D01*
X2549Y1046D02*
X2571Y1046D01*
X2605Y1046D02*
X2627Y1046D01*
X2649Y1046D02*
X2671Y1046D01*
X2705Y1046D02*
X2727Y1046D01*
X2749Y1046D02*
X2771Y1046D01*
X2805Y1046D02*
X2827Y1046D01*
X2849Y1046D02*
X2871Y1046D01*
X2905Y1046D02*
X2927Y1046D01*
X2949Y1046D02*
X2971Y1046D01*
X3005Y1046D02*
X3027Y1046D01*
X3049Y1046D02*
X3071Y1046D01*
X3105Y1046D02*
X3127Y1046D01*
X3149Y1046D02*
X3171Y1046D01*
X3205Y1046D02*
X3227Y1046D01*
X3249Y1046D02*
X3271Y1046D01*
X3305Y1046D02*
X3327Y1046D01*
X3349Y1046D02*
X3371Y1046D01*
X3405Y1046D02*
X3427Y1046D01*
X3449Y1046D02*
X3471Y1046D01*
X3505Y1046D02*
X3527Y1046D01*
X3549Y1046D02*
X3571Y1046D01*
X3605Y1046D02*
X3627Y1046D01*
X3649Y1046D02*
X3671Y1046D01*
X3705Y1046D02*
X3727Y1046D01*
X3749Y1046D02*
X3771Y1046D01*
X2406Y1045D02*
X2428Y1045D01*
X2448Y1045D02*
X2470Y1045D01*
X2506Y1045D02*
X2528Y1045D01*
X2548Y1045D02*
X2570Y1045D01*
X2606Y1045D02*
X2628Y1045D01*
X2648Y1045D02*
X2670Y1045D01*
X2706Y1045D02*
X2728Y1045D01*
X2748Y1045D02*
X2770Y1045D01*
X2806Y1045D02*
X2828Y1045D01*
X2848Y1045D02*
X2870Y1045D01*
X2906Y1045D02*
X2928Y1045D01*
X2948Y1045D02*
X2970Y1045D01*
X3006Y1045D02*
X3028Y1045D01*
X3048Y1045D02*
X3070Y1045D01*
X3106Y1045D02*
X3128Y1045D01*
X3148Y1045D02*
X3170Y1045D01*
X3206Y1045D02*
X3228Y1045D01*
X3248Y1045D02*
X3270Y1045D01*
X3306Y1045D02*
X3328Y1045D01*
X3348Y1045D02*
X3370Y1045D01*
X3406Y1045D02*
X3428Y1045D01*
X3448Y1045D02*
X3470Y1045D01*
X3506Y1045D02*
X3528Y1045D01*
X3548Y1045D02*
X3570Y1045D01*
X3606Y1045D02*
X3628Y1045D01*
X3648Y1045D02*
X3670Y1045D01*
X3706Y1045D02*
X3728Y1045D01*
X3748Y1045D02*
X3770Y1045D01*
X2406Y1044D02*
X2429Y1044D01*
X2447Y1044D02*
X2470Y1044D01*
X2506Y1044D02*
X2529Y1044D01*
X2547Y1044D02*
X2570Y1044D01*
X2606Y1044D02*
X2629Y1044D01*
X2647Y1044D02*
X2670Y1044D01*
X2706Y1044D02*
X2729Y1044D01*
X2747Y1044D02*
X2770Y1044D01*
X2806Y1044D02*
X2829Y1044D01*
X2847Y1044D02*
X2870Y1044D01*
X2906Y1044D02*
X2929Y1044D01*
X2947Y1044D02*
X2970Y1044D01*
X3006Y1044D02*
X3029Y1044D01*
X3047Y1044D02*
X3070Y1044D01*
X3106Y1044D02*
X3129Y1044D01*
X3147Y1044D02*
X3170Y1044D01*
X3206Y1044D02*
X3229Y1044D01*
X3247Y1044D02*
X3270Y1044D01*
X3306Y1044D02*
X3329Y1044D01*
X3347Y1044D02*
X3370Y1044D01*
X3406Y1044D02*
X3429Y1044D01*
X3447Y1044D02*
X3470Y1044D01*
X3506Y1044D02*
X3529Y1044D01*
X3547Y1044D02*
X3570Y1044D01*
X3606Y1044D02*
X3629Y1044D01*
X3647Y1044D02*
X3670Y1044D01*
X3706Y1044D02*
X3729Y1044D01*
X3747Y1044D02*
X3770Y1044D01*
X2407Y1043D02*
X2431Y1043D01*
X2445Y1043D02*
X2470Y1043D01*
X2507Y1043D02*
X2531Y1043D01*
X2545Y1043D02*
X2570Y1043D01*
X2606Y1043D02*
X2631Y1043D01*
X2645Y1043D02*
X2670Y1043D01*
X2706Y1043D02*
X2731Y1043D01*
X2745Y1043D02*
X2770Y1043D01*
X2806Y1043D02*
X2831Y1043D01*
X2845Y1043D02*
X2869Y1043D01*
X2906Y1043D02*
X2931Y1043D01*
X2945Y1043D02*
X2969Y1043D01*
X3006Y1043D02*
X3031Y1043D01*
X3045Y1043D02*
X3069Y1043D01*
X3106Y1043D02*
X3131Y1043D01*
X3145Y1043D02*
X3169Y1043D01*
X3206Y1043D02*
X3231Y1043D01*
X3245Y1043D02*
X3269Y1043D01*
X3306Y1043D02*
X3331Y1043D01*
X3345Y1043D02*
X3369Y1043D01*
X3406Y1043D02*
X3431Y1043D01*
X3445Y1043D02*
X3469Y1043D01*
X3506Y1043D02*
X3531Y1043D01*
X3545Y1043D02*
X3569Y1043D01*
X3606Y1043D02*
X3631Y1043D01*
X3645Y1043D02*
X3669Y1043D01*
X3706Y1043D02*
X3731Y1043D01*
X3745Y1043D02*
X3769Y1043D01*
X2407Y1042D02*
X2434Y1042D01*
X2442Y1042D02*
X2469Y1042D01*
X2507Y1042D02*
X2534Y1042D01*
X2542Y1042D02*
X2569Y1042D01*
X2607Y1042D02*
X2634Y1042D01*
X2642Y1042D02*
X2669Y1042D01*
X2707Y1042D02*
X2734Y1042D01*
X2742Y1042D02*
X2769Y1042D01*
X2807Y1042D02*
X2834Y1042D01*
X2842Y1042D02*
X2869Y1042D01*
X2907Y1042D02*
X2934Y1042D01*
X2942Y1042D02*
X2969Y1042D01*
X3007Y1042D02*
X3034Y1042D01*
X3042Y1042D02*
X3069Y1042D01*
X3107Y1042D02*
X3134Y1042D01*
X3142Y1042D02*
X3169Y1042D01*
X3207Y1042D02*
X3234Y1042D01*
X3242Y1042D02*
X3269Y1042D01*
X3307Y1042D02*
X3334Y1042D01*
X3342Y1042D02*
X3369Y1042D01*
X3407Y1042D02*
X3434Y1042D01*
X3442Y1042D02*
X3469Y1042D01*
X3507Y1042D02*
X3534Y1042D01*
X3542Y1042D02*
X3569Y1042D01*
X3607Y1042D02*
X3634Y1042D01*
X3642Y1042D02*
X3669Y1042D01*
X3707Y1042D02*
X3734Y1042D01*
X3742Y1042D02*
X3769Y1042D01*
X2407Y1041D02*
X2469Y1041D01*
X2507Y1041D02*
X2569Y1041D01*
X2607Y1041D02*
X2669Y1041D01*
X2707Y1041D02*
X2769Y1041D01*
X2807Y1041D02*
X2869Y1041D01*
X2907Y1041D02*
X2969Y1041D01*
X3007Y1041D02*
X3069Y1041D01*
X3107Y1041D02*
X3169Y1041D01*
X3207Y1041D02*
X3269Y1041D01*
X3307Y1041D02*
X3368Y1041D01*
X3407Y1041D02*
X3468Y1041D01*
X3507Y1041D02*
X3568Y1041D01*
X3607Y1041D02*
X3668Y1041D01*
X3707Y1041D02*
X3768Y1041D01*
X2408Y1040D02*
X2468Y1040D01*
X2508Y1040D02*
X2568Y1040D01*
X2608Y1040D02*
X2668Y1040D01*
X2708Y1040D02*
X2768Y1040D01*
X2808Y1040D02*
X2868Y1040D01*
X2908Y1040D02*
X2968Y1040D01*
X3008Y1040D02*
X3068Y1040D01*
X3108Y1040D02*
X3168Y1040D01*
X3208Y1040D02*
X3268Y1040D01*
X3308Y1040D02*
X3368Y1040D01*
X3408Y1040D02*
X3468Y1040D01*
X3508Y1040D02*
X3568Y1040D01*
X3608Y1040D02*
X3668Y1040D01*
X3708Y1040D02*
X3768Y1040D01*
X2409Y1039D02*
X2468Y1039D01*
X2509Y1039D02*
X2568Y1039D01*
X2608Y1039D02*
X2668Y1039D01*
X2708Y1039D02*
X2768Y1039D01*
X2808Y1039D02*
X2867Y1039D01*
X2908Y1039D02*
X2967Y1039D01*
X3008Y1039D02*
X3067Y1039D01*
X3108Y1039D02*
X3167Y1039D01*
X3208Y1039D02*
X3267Y1039D01*
X3308Y1039D02*
X3367Y1039D01*
X3408Y1039D02*
X3467Y1039D01*
X3508Y1039D02*
X3567Y1039D01*
X3608Y1039D02*
X3667Y1039D01*
X3708Y1039D02*
X3767Y1039D01*
X2409Y1038D02*
X2467Y1038D01*
X2509Y1038D02*
X2567Y1038D01*
X2609Y1038D02*
X2667Y1038D01*
X2709Y1038D02*
X2767Y1038D01*
X2809Y1038D02*
X2867Y1038D01*
X2909Y1038D02*
X2967Y1038D01*
X3009Y1038D02*
X3067Y1038D01*
X3109Y1038D02*
X3167Y1038D01*
X3209Y1038D02*
X3267Y1038D01*
X3309Y1038D02*
X3367Y1038D01*
X3409Y1038D02*
X3467Y1038D01*
X3509Y1038D02*
X3567Y1038D01*
X3609Y1038D02*
X3667Y1038D01*
X3709Y1038D02*
X3767Y1038D01*
X2410Y1037D02*
X2466Y1037D01*
X2510Y1037D02*
X2566Y1037D01*
X2610Y1037D02*
X2666Y1037D01*
X2710Y1037D02*
X2766Y1037D01*
X2810Y1037D02*
X2866Y1037D01*
X2910Y1037D02*
X2966Y1037D01*
X3010Y1037D02*
X3066Y1037D01*
X3110Y1037D02*
X3166Y1037D01*
X3210Y1037D02*
X3266Y1037D01*
X3310Y1037D02*
X3366Y1037D01*
X3410Y1037D02*
X3466Y1037D01*
X3510Y1037D02*
X3566Y1037D01*
X3610Y1037D02*
X3666Y1037D01*
X3710Y1037D02*
X3766Y1037D01*
X2410Y1036D02*
X2466Y1036D01*
X2510Y1036D02*
X2566Y1036D01*
X2610Y1036D02*
X2666Y1036D01*
X2710Y1036D02*
X2766Y1036D01*
X2810Y1036D02*
X2866Y1036D01*
X2910Y1036D02*
X2966Y1036D01*
X3010Y1036D02*
X3066Y1036D01*
X3110Y1036D02*
X3166Y1036D01*
X3210Y1036D02*
X3266Y1036D01*
X3310Y1036D02*
X3366Y1036D01*
X3410Y1036D02*
X3466Y1036D01*
X3510Y1036D02*
X3566Y1036D01*
X3610Y1036D02*
X3666Y1036D01*
X3710Y1036D02*
X3765Y1036D01*
X2411Y1035D02*
X2465Y1035D01*
X2511Y1035D02*
X2565Y1035D01*
X2611Y1035D02*
X2665Y1035D01*
X2711Y1035D02*
X2765Y1035D01*
X2811Y1035D02*
X2865Y1035D01*
X2911Y1035D02*
X2965Y1035D01*
X3011Y1035D02*
X3065Y1035D01*
X3111Y1035D02*
X3165Y1035D01*
X3211Y1035D02*
X3265Y1035D01*
X3311Y1035D02*
X3365Y1035D01*
X3411Y1035D02*
X3465Y1035D01*
X3511Y1035D02*
X3565Y1035D01*
X3611Y1035D02*
X3665Y1035D01*
X3711Y1035D02*
X3765Y1035D01*
X2412Y1034D02*
X2464Y1034D01*
X2512Y1034D02*
X2564Y1034D01*
X2612Y1034D02*
X2664Y1034D01*
X2712Y1034D02*
X2764Y1034D01*
X2812Y1034D02*
X2864Y1034D01*
X2912Y1034D02*
X2964Y1034D01*
X3012Y1034D02*
X3064Y1034D01*
X3112Y1034D02*
X3164Y1034D01*
X3212Y1034D02*
X3264Y1034D01*
X3312Y1034D02*
X3364Y1034D01*
X3412Y1034D02*
X3464Y1034D01*
X3512Y1034D02*
X3564Y1034D01*
X3612Y1034D02*
X3664Y1034D01*
X3712Y1034D02*
X3764Y1034D01*
X2413Y1033D02*
X2463Y1033D01*
X2513Y1033D02*
X2563Y1033D01*
X2613Y1033D02*
X2663Y1033D01*
X2713Y1033D02*
X2763Y1033D01*
X2813Y1033D02*
X2863Y1033D01*
X2913Y1033D02*
X2963Y1033D01*
X3013Y1033D02*
X3063Y1033D01*
X3113Y1033D02*
X3163Y1033D01*
X3213Y1033D02*
X3263Y1033D01*
X3313Y1033D02*
X3363Y1033D01*
X3413Y1033D02*
X3463Y1033D01*
X3513Y1033D02*
X3563Y1033D01*
X3613Y1033D02*
X3663Y1033D01*
X3713Y1033D02*
X3763Y1033D01*
X2414Y1032D02*
X2462Y1032D01*
X2514Y1032D02*
X2562Y1032D01*
X2614Y1032D02*
X2662Y1032D01*
X2714Y1032D02*
X2762Y1032D01*
X2814Y1032D02*
X2862Y1032D01*
X2914Y1032D02*
X2962Y1032D01*
X3014Y1032D02*
X3062Y1032D01*
X3114Y1032D02*
X3162Y1032D01*
X3214Y1032D02*
X3262Y1032D01*
X3314Y1032D02*
X3362Y1032D01*
X3414Y1032D02*
X3462Y1032D01*
X3514Y1032D02*
X3562Y1032D01*
X3614Y1032D02*
X3662Y1032D01*
X3714Y1032D02*
X3762Y1032D01*
X2415Y1031D02*
X2461Y1031D01*
X2515Y1031D02*
X2561Y1031D01*
X2615Y1031D02*
X2661Y1031D01*
X2715Y1031D02*
X2761Y1031D01*
X2815Y1031D02*
X2861Y1031D01*
X2915Y1031D02*
X2961Y1031D01*
X3015Y1031D02*
X3061Y1031D01*
X3115Y1031D02*
X3161Y1031D01*
X3215Y1031D02*
X3261Y1031D01*
X3315Y1031D02*
X3361Y1031D01*
X3415Y1031D02*
X3461Y1031D01*
X3515Y1031D02*
X3561Y1031D01*
X3615Y1031D02*
X3661Y1031D01*
X3715Y1031D02*
X3761Y1031D01*
X2416Y1030D02*
X2460Y1030D01*
X2516Y1030D02*
X2560Y1030D01*
X2616Y1030D02*
X2660Y1030D01*
X2716Y1030D02*
X2760Y1030D01*
X2816Y1030D02*
X2860Y1030D01*
X2916Y1030D02*
X2960Y1030D01*
X3016Y1030D02*
X3060Y1030D01*
X3116Y1030D02*
X3160Y1030D01*
X3216Y1030D02*
X3260Y1030D01*
X3316Y1030D02*
X3360Y1030D01*
X3416Y1030D02*
X3460Y1030D01*
X3516Y1030D02*
X3560Y1030D01*
X3616Y1030D02*
X3660Y1030D01*
X3716Y1030D02*
X3760Y1030D01*
X2417Y1029D02*
X2459Y1029D01*
X2517Y1029D02*
X2559Y1029D01*
X2617Y1029D02*
X2659Y1029D01*
X2717Y1029D02*
X2759Y1029D01*
X2817Y1029D02*
X2859Y1029D01*
X2917Y1029D02*
X2959Y1029D01*
X3017Y1029D02*
X3059Y1029D01*
X3117Y1029D02*
X3159Y1029D01*
X3217Y1029D02*
X3259Y1029D01*
X3317Y1029D02*
X3359Y1029D01*
X3417Y1029D02*
X3459Y1029D01*
X3517Y1029D02*
X3559Y1029D01*
X3617Y1029D02*
X3659Y1029D01*
X3717Y1029D02*
X3759Y1029D01*
X2419Y1028D02*
X2457Y1028D01*
X2519Y1028D02*
X2557Y1028D01*
X2619Y1028D02*
X2657Y1028D01*
X2719Y1028D02*
X2757Y1028D01*
X2819Y1028D02*
X2857Y1028D01*
X2919Y1028D02*
X2957Y1028D01*
X3019Y1028D02*
X3057Y1028D01*
X3119Y1028D02*
X3157Y1028D01*
X3219Y1028D02*
X3257Y1028D01*
X3319Y1028D02*
X3357Y1028D01*
X3419Y1028D02*
X3457Y1028D01*
X3518Y1028D02*
X3557Y1028D01*
X3618Y1028D02*
X3657Y1028D01*
X3718Y1028D02*
X3757Y1028D01*
X2420Y1027D02*
X2456Y1027D01*
X2520Y1027D02*
X2556Y1027D01*
X2620Y1027D02*
X2656Y1027D01*
X2720Y1027D02*
X2756Y1027D01*
X2820Y1027D02*
X2856Y1027D01*
X2920Y1027D02*
X2956Y1027D01*
X3020Y1027D02*
X3056Y1027D01*
X3120Y1027D02*
X3156Y1027D01*
X3220Y1027D02*
X3256Y1027D01*
X3320Y1027D02*
X3356Y1027D01*
X3420Y1027D02*
X3456Y1027D01*
X3520Y1027D02*
X3556Y1027D01*
X3620Y1027D02*
X3656Y1027D01*
X3720Y1027D02*
X3756Y1027D01*
X2422Y1026D02*
X2454Y1026D01*
X2522Y1026D02*
X2554Y1026D01*
X2622Y1026D02*
X2654Y1026D01*
X2722Y1026D02*
X2754Y1026D01*
X2822Y1026D02*
X2854Y1026D01*
X2922Y1026D02*
X2954Y1026D01*
X3022Y1026D02*
X3054Y1026D01*
X3122Y1026D02*
X3154Y1026D01*
X3222Y1026D02*
X3254Y1026D01*
X3322Y1026D02*
X3354Y1026D01*
X3422Y1026D02*
X3454Y1026D01*
X3522Y1026D02*
X3554Y1026D01*
X3622Y1026D02*
X3654Y1026D01*
X3722Y1026D02*
X3754Y1026D01*
X2424Y1025D02*
X2452Y1025D01*
X2524Y1025D02*
X2552Y1025D01*
X2624Y1025D02*
X2652Y1025D01*
X2724Y1025D02*
X2752Y1025D01*
X2824Y1025D02*
X2852Y1025D01*
X2924Y1025D02*
X2952Y1025D01*
X3024Y1025D02*
X3052Y1025D01*
X3124Y1025D02*
X3152Y1025D01*
X3224Y1025D02*
X3252Y1025D01*
X3324Y1025D02*
X3352Y1025D01*
X3424Y1025D02*
X3452Y1025D01*
X3524Y1025D02*
X3552Y1025D01*
X3624Y1025D02*
X3652Y1025D01*
X3724Y1025D02*
X3752Y1025D01*
X2427Y1024D02*
X2450Y1024D01*
X2527Y1024D02*
X2550Y1024D01*
X2627Y1024D02*
X2649Y1024D01*
X2727Y1024D02*
X2749Y1024D01*
X2826Y1024D02*
X2849Y1024D01*
X2926Y1024D02*
X2949Y1024D01*
X3026Y1024D02*
X3049Y1024D01*
X3126Y1024D02*
X3149Y1024D01*
X3226Y1024D02*
X3249Y1024D01*
X3326Y1024D02*
X3349Y1024D01*
X3426Y1024D02*
X3449Y1024D01*
X3526Y1024D02*
X3549Y1024D01*
X3626Y1024D02*
X3649Y1024D01*
X3726Y1024D02*
X3749Y1024D01*
X2430Y1023D02*
X2446Y1023D01*
X2530Y1023D02*
X2546Y1023D01*
X2630Y1023D02*
X2646Y1023D01*
X2730Y1023D02*
X2746Y1023D01*
X2830Y1023D02*
X2846Y1023D01*
X2930Y1023D02*
X2946Y1023D01*
X3030Y1023D02*
X3046Y1023D01*
X3130Y1023D02*
X3146Y1023D01*
X3229Y1023D02*
X3246Y1023D01*
X3329Y1023D02*
X3346Y1023D01*
X3429Y1023D02*
X3446Y1023D01*
X3529Y1023D02*
X3546Y1023D01*
X3629Y1023D02*
X3646Y1023D01*
X3729Y1023D02*
X3746Y1023D01*
X2434Y1022D02*
X2442Y1022D01*
X2534Y1022D02*
X2542Y1022D01*
X2634Y1022D02*
X2642Y1022D01*
X2734Y1022D02*
X2742Y1022D01*
X2834Y1022D02*
X2842Y1022D01*
X2934Y1022D02*
X2942Y1022D01*
X3034Y1022D02*
X3042Y1022D01*
X3134Y1022D02*
X3142Y1022D01*
X3234Y1022D02*
X3242Y1022D01*
X3334Y1022D02*
X3342Y1022D01*
X3434Y1022D02*
X3442Y1022D01*
X3534Y1022D02*
X3542Y1022D01*
X3634Y1022D02*
X3642Y1022D01*
X3734Y1022D02*
X3742Y1022D01*
D02*
G04 End of Copper0*
M02*