; NON-PLATED HOLES START AT T1
; THROUGH (PLATED) HOLES START AT T100
M48
INCH
T1C0.125984
T2C0.130000
T100C0.098425
T101C0.039370
T102C0.040000
T103C0.015748
T104C0.035000
T105C0.030000
T106C0.031497
T107C0.038000
T108C0.046472
%
T1
X065332Y001615
X001832Y001615
X032332Y006115
X032332Y038115
X001832Y038115
X065832Y038115
T2
X010332Y037015
X021332Y037015
T100
X016832Y017115
X016832Y009115
X003832Y017115
X003832Y009115
T101
X014332Y009115
X003632Y014615
X015332Y017115
X008332Y009115
X003632Y011615
X011332Y009115
X007332Y009115
X013332Y017115
X010332Y009115
X009332Y017115
X012332Y017115
X006332Y017115
X003632Y013615
X015332Y009115
X003632Y010615
X013332Y009115
X009332Y009115
X012332Y009115
X014332Y017115
X006332Y009115
X003632Y015615
X008332Y017115
X011332Y017115
X007332Y017115
X003632Y012615
X010332Y017115
T102
X001832Y031237
X011332Y031115
X010332Y031115
X009332Y031115
X001832Y032615
T103
X047328Y031090
X048321Y031644
X055335Y028107
X030319Y006126
X047328Y019105
X049316Y013139
X040315Y003091
X031313Y007592
X024353Y006126
X052323Y038135
X048322Y008115
X036338Y034125
X026342Y027112
X038326Y002097
X050306Y029600
X056329Y031090
X023306Y005132
X039844Y032136
X049316Y011098
X025347Y004138
X039844Y031090
X047328Y020100
X041309Y008115
X054340Y014134
X034349Y006126
X044345Y004138
X042307Y031644
X053328Y037129
X057323Y027112
X054340Y032136
X048322Y011098
X042356Y014134
X012338Y021102
X026342Y030095
X050311Y019105
X038326Y010104
X041322Y016132
X036338Y031090
X025347Y015128
X025347Y034125
X027336Y017117
X055335Y025124
X042356Y026118
X049316Y004138
X029325Y030095
X042356Y013139
X027336Y003091
X038326Y013139
X051357Y008115
X038326Y007121
X022312Y002097
X040315Y007121
X050311Y005132
X059312Y027112
X016346Y019629
X021318Y013139
X054340Y020100
X038326Y011098
X049316Y028107
X035343Y001102
X045339Y006126
X050306Y031644
X037332Y032136
X022335Y016132
X039321Y015128
X047328Y014134
X023306Y013139
X021318Y011098
X042356Y020100
X020847Y007592
X041322Y030093
X033354Y015128
X030823Y016132
X037332Y019105
X053328Y002617
X047328Y013139
X047328Y032136
X022312Y014134
X049316Y027112
T104
X014332Y028115
X046332Y018115
X043332Y011115
X043332Y024115
X046332Y011115
X043332Y016115
X046332Y024115
X043332Y029115
X046332Y016115
X046332Y029115
X043332Y030115
X032332Y033115
X043332Y022115
X046332Y030115
X043332Y035115
X046332Y022115
X043332Y027115
X034332Y017115
X046332Y035115
X046332Y027115
X043332Y033115
X043332Y012115
X046332Y033115
X046332Y012115
X043332Y017115
X014332Y027115
X043332Y009115
X046332Y017115
X034332Y021115
X046332Y009115
X043332Y010115
X043332Y023115
X043332Y036115
X046332Y010115
X043332Y015115
X046332Y023115
X043332Y028115
X046332Y036115
X046332Y015115
X046332Y028115
X043332Y021115
X043332Y034115
X046332Y021115
X046332Y034115
X043332Y018115
X028332Y033115
T105
X018332Y028115
X032330Y008615
X028332Y010115
X026332Y010115
X024332Y010115
X029332Y010115
X027332Y010115
X025332Y010115
X025332Y028115
X006332Y027115
X006332Y019115
X033332Y010115
X031332Y010115
X024332Y013115
X028332Y013115
X026332Y013115
X032332Y010115
X030332Y010115
X034332Y010115
X036332Y010115
X025332Y013115
X029332Y013115
X027332Y013115
X035332Y010115
X037332Y010115
X018332Y027115
X033332Y008615
X031332Y013115
X033332Y013115
X030332Y013115
X034332Y013115
X032332Y013115
X036332Y013115
X025332Y029117
X006332Y028117
X035332Y013115
X037332Y013115
X007334Y019115
T106
X035332Y033115
X010332Y023115
X058332Y035115
X058332Y028131
X058332Y022131
X058332Y017115
X035332Y032131
X058332Y011115
X010332Y022131
X058332Y034131
X058332Y029115
X058332Y023115
X058332Y016131
X058332Y010131
T107
X066272Y018178
X000832Y014615
X066272Y028178
X066272Y022178
X066272Y019178
X000832Y015615
X066272Y023178
X000832Y010615
X066272Y024178
X000832Y011615
X066272Y025178
X000832Y012615
X066272Y026178
X066272Y020178
X066272Y017178
X000832Y013615
X066272Y027178
X066272Y021178
T108
X022332Y031115
X021332Y031115
X020332Y031115
T00
M30
